G04*
G04 #@! TF.GenerationSoftware,Altium Limited,Altium Designer,18.1.7 (191)*
G04*
G04 Layer_Color=16711935*
%FSLAX25Y25*%
%MOIN*%
G70*
G01*
G75*
G36*
X539750Y674000D02*
X436250D01*
Y726000D01*
X539750D01*
Y674000D01*
D02*
G37*
G36*
X537750Y606571D02*
X434250D01*
Y658571D01*
X537750D01*
Y606571D01*
D02*
G37*
G36*
X545250Y527000D02*
X441750D01*
Y579000D01*
X545250D01*
Y527000D01*
D02*
G37*
G36*
X494520Y429593D02*
X475063D01*
Y436408D01*
X494520D01*
Y429593D01*
D02*
G37*
G36*
X581277Y423051D02*
X557379D01*
Y446949D01*
X581277D01*
Y423051D01*
D02*
G37*
G36*
X494937Y412593D02*
X475480D01*
Y419408D01*
X494937D01*
Y412593D01*
D02*
G37*
G36*
X117715Y370889D02*
X70115D01*
Y424989D01*
X117715D01*
Y370889D01*
D02*
G37*
G36*
X630709Y321266D02*
X620709D01*
Y337266D01*
X630709D01*
Y321266D01*
D02*
G37*
G36*
X660516Y320750D02*
X650516D01*
Y336750D01*
X660516D01*
Y320750D01*
D02*
G37*
G36*
X600984Y319766D02*
X590984D01*
Y335766D01*
X600984D01*
Y319766D01*
D02*
G37*
G36*
X146484Y319766D02*
X136484D01*
Y335766D01*
X146484D01*
Y319766D01*
D02*
G37*
G36*
X100063D02*
X90063D01*
Y335766D01*
X100063D01*
Y319766D01*
D02*
G37*
G36*
X278484Y319750D02*
X268484D01*
Y335750D01*
X278484D01*
Y319750D01*
D02*
G37*
G36*
X328984Y319266D02*
X318984D01*
Y335266D01*
X328984D01*
Y319266D01*
D02*
G37*
G36*
X209516D02*
X199516D01*
Y335266D01*
X209516D01*
Y319266D01*
D02*
G37*
M02*
