G04*
G04 #@! TF.GenerationSoftware,Altium Limited,Altium Designer,18.1.7 (191)*
G04*
G04 Layer_Color=65535*
%FSLAX25Y25*%
%MOIN*%
G70*
G01*
G75*
%ADD10C,0.00787*%
%ADD11C,0.02000*%
%ADD12C,0.00984*%
%ADD13C,0.01000*%
%ADD14C,0.00394*%
%ADD15C,0.00600*%
%ADD16C,0.00300*%
%ADD17C,0.00500*%
G36*
X568798Y424551D02*
Y423551D01*
X567298D01*
Y424551D01*
X568798D01*
D02*
G37*
D10*
X539657Y613587D02*
G03*
X538870Y613587I-394J0D01*
G01*
D02*
G03*
X539657Y613587I394J0D01*
G01*
X390410Y378921D02*
G03*
X390410Y378528I0J-197D01*
G01*
D02*
G03*
X390410Y378921I0J197D01*
G01*
D02*
G03*
X390410Y378528I0J-197D01*
G01*
X259961Y647945D02*
G03*
X260748Y647945I394J0D01*
G01*
D02*
G03*
X259961Y647945I-394J0D01*
G01*
X690370Y324205D02*
G03*
X691157Y324205I394J0D01*
G01*
D02*
G03*
X690370Y324205I-394J0D01*
G01*
X447402Y702394D02*
G03*
X447402Y701606I0J-394D01*
G01*
D02*
G03*
X447402Y702394I0J394D01*
G01*
X446681Y636394D02*
G03*
X446681Y635606I0J-394D01*
G01*
D02*
G03*
X446681Y636394I0J394D01*
G01*
X451681Y551185D02*
G03*
X451681Y550398I0J-394D01*
G01*
D02*
G03*
X451681Y551185I0J394D01*
G01*
X109260Y647945D02*
G03*
X108473Y647945I-394J0D01*
G01*
D02*
G03*
X109260Y647945I394J0D01*
G01*
X607909Y590220D02*
X609091D01*
X607909Y592780D02*
X609091D01*
X495681Y442310D02*
X500799D01*
X521878Y454165D02*
Y455740D01*
X519122Y454165D02*
Y455740D01*
X670811Y438382D02*
X697189D01*
X670811Y448618D02*
X697189D01*
X670811Y438382D02*
Y448618D01*
X697189Y438382D02*
Y448618D01*
X570017Y462532D02*
X571198D01*
X570017Y465091D02*
X571198D01*
X641201Y512047D02*
X642382D01*
X641201Y509488D02*
X642382D01*
X701279Y400910D02*
Y402091D01*
X698721Y400910D02*
Y402091D01*
X656043Y597500D02*
Y604586D01*
X628957D02*
X656043D01*
X628957Y597500D02*
Y604586D01*
Y597500D02*
X656043D01*
X620925Y534275D02*
Y568527D01*
X655177Y534275D02*
Y568527D01*
X620925D02*
X655177D01*
X620925Y534275D02*
X655177D01*
X593197Y640559D02*
X595657D01*
X593197D02*
Y643019D01*
Y655027D02*
Y657488D01*
X595657D01*
X607665D02*
X610126D01*
Y655027D02*
Y657488D01*
X607665Y640559D02*
X610126D01*
Y643019D01*
X709280Y443409D02*
Y444591D01*
X706720Y443409D02*
Y444591D01*
X730756Y441728D02*
Y445272D01*
X725244Y441728D02*
Y445272D01*
X696945Y662043D02*
X728362D01*
Y614641D02*
Y662043D01*
X696945Y614641D02*
X728362D01*
X666512D02*
X678835D01*
X666512Y662043D02*
X678835D01*
X666512Y647988D02*
Y662043D01*
Y614641D02*
Y629641D01*
Y637200D02*
Y638539D01*
X685228Y597299D02*
X688772D01*
X685228Y591787D02*
X688772D01*
X705728Y597299D02*
X709272D01*
X705728Y591787D02*
X709272D01*
X107921Y340980D02*
X248079D01*
Y426020D01*
X107921D02*
X248079D01*
X107921Y340980D02*
Y426020D01*
X108421Y435980D02*
X248579D01*
Y521020D01*
X108421D02*
X248579D01*
X108421Y435980D02*
Y521020D01*
X680500Y557354D02*
Y559354D01*
X690500Y557354D02*
Y559354D01*
X608122Y498606D02*
Y499394D01*
X610878Y498606D02*
Y499394D01*
X625347Y498629D02*
Y499417D01*
X628102Y498629D02*
Y499417D01*
X598622Y498606D02*
Y499394D01*
X601378Y498606D02*
Y499394D01*
X617622Y498787D02*
Y499574D01*
X620378Y498787D02*
Y499574D01*
X584878Y498449D02*
Y499236D01*
X582122Y498449D02*
Y499236D01*
X593039Y498606D02*
Y499394D01*
X590283Y498606D02*
Y499394D01*
X720256Y441728D02*
Y445271D01*
X714744Y441728D02*
Y445271D01*
X652756Y441771D02*
Y445315D01*
X647244Y441771D02*
Y445315D01*
X639413Y441610D02*
Y445153D01*
X633901Y441610D02*
Y445153D01*
D11*
X93329Y380389D02*
G03*
X93329Y380389I-1500J0D01*
G01*
X452750Y559500D02*
G03*
X452750Y559500I-1500J0D01*
G01*
X445250Y639071D02*
G03*
X445250Y639071I-1500J0D01*
G01*
X447250Y706500D02*
G03*
X447250Y706500I-1500J0D01*
G01*
X660500Y342750D02*
G03*
X660500Y342750I-1500J0D01*
G01*
X278468Y341750D02*
G03*
X278468Y341750I-1500J0D01*
G01*
X630693Y343266D02*
G03*
X630693Y343266I-1500J0D01*
G01*
X600968Y341766D02*
G03*
X600968Y341766I-1500J0D01*
G01*
X328969Y341266D02*
G03*
X328969Y341266I-1500J0D01*
G01*
X209500D02*
G03*
X209500Y341266I-1500J0D01*
G01*
X146469Y341766D02*
G03*
X146469Y341766I-1500J0D01*
G01*
X100048D02*
G03*
X100048Y341766I-1500J0D01*
G01*
D12*
X671303Y432083D02*
G03*
X671303Y432083I-492J0D01*
G01*
X623369Y566717D02*
G03*
X623369Y566717I-492J0D01*
G01*
X594279Y638000D02*
G03*
X594279Y638000I-492J0D01*
G01*
X664524Y643263D02*
G03*
X664524Y643263I-492J0D01*
G01*
X123492Y338421D02*
G03*
X123492Y338421I-492J0D01*
G01*
X123992Y433421D02*
G03*
X123992Y433421I-492J0D01*
G01*
X688492Y557263D02*
G03*
X688492Y557263I-197J0D01*
G01*
D13*
X655480Y657543D02*
G03*
X655480Y657543I-12402J0D01*
G01*
X617331Y615543D02*
X631831D01*
X615331Y617543D02*
X617331Y615543D01*
X615331Y617543D02*
Y622543D01*
X617331Y624543D01*
X631831D01*
Y615543D02*
Y624543D01*
X599610Y663000D02*
Y672000D01*
X585110D02*
X599610D01*
X583110Y670000D02*
X585110Y672000D01*
X583110Y665000D02*
Y670000D01*
Y665000D02*
X585110Y663000D01*
X599610D01*
X357627Y389598D02*
X355627D01*
X356627D01*
Y384600D01*
X355627Y383600D01*
X354628D01*
X353628Y384600D01*
X359626Y388598D02*
X360626Y389598D01*
X362625D01*
X363625Y388598D01*
Y387599D01*
X361626Y385599D01*
Y384600D02*
Y383600D01*
X93998Y499000D02*
Y495001D01*
Y497001D01*
X88000D01*
X93998Y490003D02*
Y492002D01*
X92998Y493002D01*
X89000D01*
X88000Y492002D01*
Y490003D01*
X89000Y489003D01*
X92998D01*
X93998Y490003D01*
Y481006D02*
X88000D01*
X89999D01*
X93998Y477007D01*
X90999Y480006D01*
X88000Y477007D01*
X93998Y475008D02*
Y473008D01*
Y474008D01*
X88000D01*
Y475008D01*
Y473008D01*
X93998Y470009D02*
X88000D01*
Y466011D01*
X93998Y464011D02*
X88000D01*
Y460013D01*
X92998Y448017D02*
X93998Y449016D01*
Y451016D01*
X92998Y452015D01*
X91999D01*
X90999Y451016D01*
Y449016D01*
X89999Y448017D01*
X89000D01*
X88000Y449016D01*
Y451016D01*
X89000Y452015D01*
X93998Y446017D02*
X88000D01*
X89999Y444018D01*
X88000Y442018D01*
X93998D01*
Y440019D02*
Y438020D01*
Y439019D01*
X88000D01*
Y440019D01*
Y438020D01*
X93998Y435021D02*
Y431022D01*
Y433021D01*
X88000D01*
X92998Y425024D02*
X93998Y426024D01*
Y428023D01*
X92998Y429023D01*
X89000D01*
X88000Y428023D01*
Y426024D01*
X89000Y425024D01*
X93998Y423025D02*
X88000D01*
X90999D01*
Y419026D01*
X93998D01*
X88000D01*
X228499Y726498D02*
X226499D01*
X227499D01*
Y721500D01*
X226499Y720500D01*
X225500D01*
X224500Y721500D01*
X230498Y726498D02*
X234497D01*
Y725498D01*
X230498Y721500D01*
Y720500D01*
X681199Y399498D02*
X679199D01*
X680199D01*
Y394500D01*
X679199Y393500D01*
X678200D01*
X677200Y394500D01*
X687197Y399498D02*
X685197Y398498D01*
X683198Y396499D01*
Y394500D01*
X684198Y393500D01*
X686197D01*
X687197Y394500D01*
Y395499D01*
X686197Y396499D01*
X683198D01*
X536499Y688498D02*
X534499D01*
X535499D01*
Y683500D01*
X534499Y682500D01*
X533500D01*
X532500Y683500D01*
X542497Y688498D02*
X538498D01*
Y685499D01*
X540497Y686499D01*
X541497D01*
X542497Y685499D01*
Y683500D01*
X541497Y682500D01*
X539498D01*
X538498Y683500D01*
X482762Y577541D02*
X478763D01*
Y574542D01*
X480762D01*
X478763D01*
Y571543D01*
X487760D02*
Y577541D01*
X484761Y574542D01*
X488760D01*
X478499Y670498D02*
X474500D01*
Y667499D01*
X476499D01*
X474500D01*
Y664500D01*
X480498Y669498D02*
X481498Y670498D01*
X483497D01*
X484497Y669498D01*
Y668499D01*
X483497Y667499D01*
X482497D01*
X483497D01*
X484497Y666499D01*
Y665500D01*
X483497Y664500D01*
X481498D01*
X480498Y665500D01*
X399219Y594189D02*
X397220D01*
X398219D01*
Y589191D01*
X397220Y588191D01*
X396220D01*
X395220Y589191D01*
X404218Y588191D02*
Y594189D01*
X401219Y591190D01*
X405217D01*
X460999Y731998D02*
X458999D01*
X459999D01*
Y727000D01*
X458999Y726000D01*
X458000D01*
X457000Y727000D01*
X462998Y730998D02*
X463998Y731998D01*
X465997D01*
X466997Y730998D01*
Y729999D01*
X465997Y728999D01*
X464997D01*
X465997D01*
X466997Y727999D01*
Y727000D01*
X465997Y726000D01*
X463998D01*
X462998Y727000D01*
X394219Y679398D02*
X392220D01*
X393219D01*
Y674400D01*
X392220Y673400D01*
X391220D01*
X390220Y674400D01*
X400217Y673400D02*
X396218D01*
X400217Y677399D01*
Y678398D01*
X399218Y679398D01*
X397218D01*
X396218Y678398D01*
D14*
X526854Y663882D02*
X575988D01*
X526854Y616441D02*
Y663882D01*
Y616441D02*
X575988D01*
Y663882D01*
X204556Y524725D02*
X235240Y561293D01*
X103824Y609249D02*
X134508Y645817D01*
X127046Y589763D02*
X181333Y544211D01*
X158047Y626708D02*
X212333Y581156D01*
X356749Y375339D02*
X380568D01*
X356749D02*
X380568D01*
X356749Y243843D02*
Y375339D01*
Y243843D02*
Y375339D01*
Y243843D02*
X565016D01*
X356749D02*
X565016D01*
Y375339D01*
Y243843D02*
Y375339D01*
X541001D02*
X565016D01*
X541001D02*
X565016D01*
X445528D02*
X477024D01*
X445528D02*
X477024D01*
X315457Y524996D02*
X346141Y561564D01*
X214725Y609520D02*
X245409Y646088D01*
X237948Y590034D02*
X292234Y544482D01*
X268949Y626979D02*
X323235Y581427D01*
X245000Y764716D02*
X245354Y716843D01*
X245000Y764716D02*
X339134D01*
Y714874D02*
Y764716D01*
X245354Y651882D02*
Y697157D01*
Y651882D02*
X262717D01*
X282402D02*
X302087D01*
X339134D02*
Y697157D01*
X321772Y651882D02*
X339134D01*
X727488Y327059D02*
Y374500D01*
X678354Y327059D02*
X727488D01*
X678354D02*
Y374500D01*
X727488D01*
X396654Y685563D02*
Y718437D01*
X445787D01*
Y685563D02*
Y718437D01*
X396654Y685563D02*
X445787D01*
X395933Y619563D02*
Y652437D01*
X445067D01*
Y619563D02*
Y652437D01*
X395933Y619563D02*
X445067D01*
X400933Y534354D02*
Y567228D01*
X450067D01*
Y534354D02*
Y567228D01*
X400933Y534354D02*
X450067D01*
X170283Y651882D02*
X187646D01*
Y697157D01*
X130913Y651882D02*
X150598D01*
X93866D02*
X111228D01*
X93866D02*
Y697157D01*
X187646Y714874D02*
Y764716D01*
X93512D02*
X187646D01*
X93512D02*
X93866Y716843D01*
D15*
X82115Y412989D02*
X105715D01*
Y382889D02*
Y412989D01*
X82115Y382889D02*
X105715D01*
X82115D02*
Y412989D01*
X453750Y539000D02*
Y567000D01*
X533250D01*
Y539000D02*
Y567000D01*
X453750Y539000D02*
X533250D01*
X446250Y618571D02*
Y646571D01*
X525750D01*
Y618571D02*
Y646571D01*
X446250Y618571D02*
X525750D01*
X448250Y686000D02*
Y714000D01*
X527750D01*
Y686000D02*
Y714000D01*
X448250Y686000D02*
X527750D01*
X478681Y436158D02*
X490902D01*
X478681Y429843D02*
X490902D01*
X479098Y419158D02*
X491319D01*
X479098Y412843D02*
X491319D01*
X578997Y440819D02*
Y444669D01*
X559659Y440819D02*
Y444669D01*
Y425331D02*
X563509D01*
X578997D02*
Y429181D01*
X575147Y444669D02*
X578997D01*
X559659D02*
X563509D01*
X559659Y425331D02*
Y429181D01*
X575147Y425331D02*
X578997D01*
D16*
X471000Y434665D02*
X474332Y431333D01*
X471000D02*
X474332Y434665D01*
X471000Y432999D02*
X474332D01*
X472666Y431333D02*
Y434665D01*
D17*
X497500Y415001D02*
X495501Y417000D01*
X497500D02*
X495501Y415001D01*
X497500Y416001D02*
X495501D01*
X496500Y417000D02*
Y415001D01*
X575945Y448199D02*
X573946Y446200D01*
Y448199D02*
X575945Y446200D01*
X574946Y448199D02*
Y446200D01*
X573946Y447199D02*
X575945D01*
X654500Y664999D02*
X656499D01*
X655500Y665999D02*
Y664000D01*
X499265Y433236D02*
Y430236D01*
X500765D01*
X501264Y430736D01*
Y432736D01*
X500765Y433236D01*
X499265D01*
X503764Y430236D02*
Y433236D01*
X502264Y431736D01*
X504263D01*
X198999Y726499D02*
X198000D01*
X198500D01*
Y724000D01*
X198000Y723500D01*
X197500D01*
X197000Y724000D01*
X199999Y723500D02*
X200999D01*
X200499D01*
Y726499D01*
X199999Y725999D01*
X209600Y659899D02*
X207601D01*
Y658399D01*
X208600D01*
X207601D01*
Y656900D01*
X210600Y659899D02*
X212599D01*
Y659399D01*
X210600Y657400D01*
Y656900D01*
X109109Y666689D02*
X107110D01*
Y665190D01*
X108110D01*
X107110D01*
Y663690D01*
X112108Y666689D02*
X111109Y666189D01*
X110109Y665190D01*
Y664190D01*
X110609Y663690D01*
X111608D01*
X112108Y664190D01*
Y664690D01*
X111608Y665190D01*
X110109D01*
X480499Y710027D02*
X478500D01*
Y708528D01*
X479500D01*
X478500D01*
Y707028D01*
X483498D02*
X481499D01*
X483498Y709028D01*
Y709527D01*
X482999Y710027D01*
X481999D01*
X481499Y709527D01*
X489599Y458414D02*
Y460414D01*
X489100Y460913D01*
X488100D01*
X487600Y460414D01*
Y458414D01*
X488100Y457914D01*
X489100D01*
X488600Y458914D02*
X489599Y457914D01*
X489100D02*
X489599Y458414D01*
X490599Y457914D02*
X491599D01*
X491099D01*
Y460913D01*
X490599Y460414D01*
X554000Y451499D02*
Y449000D01*
X554500Y448500D01*
X555500D01*
X555999Y449000D01*
Y451499D01*
X558499Y448500D02*
Y451499D01*
X556999Y450000D01*
X558998D01*
X613186Y533999D02*
Y531500D01*
X613686Y531000D01*
X614685D01*
X615185Y531500D01*
Y533999D01*
X618184Y531000D02*
X616185D01*
X618184Y532999D01*
Y533499D01*
X617684Y533999D01*
X616685D01*
X616185Y533499D01*
X607605Y637499D02*
Y635000D01*
X608105Y634500D01*
X609105D01*
X609605Y635000D01*
Y637499D01*
X610604Y636999D02*
X611104Y637499D01*
X612104D01*
X612604Y636999D01*
Y636499D01*
X612104Y635999D01*
X611604D01*
X612104D01*
X612604Y635500D01*
Y635000D01*
X612104Y634500D01*
X611104D01*
X610604Y635000D01*
X518600Y462353D02*
Y465352D01*
X520099D01*
X520599Y464852D01*
Y463852D01*
X520099Y463352D01*
X518600D01*
X519600D02*
X520599Y462353D01*
X523598D02*
X521599D01*
X523598Y464352D01*
Y464852D01*
X523099Y465352D01*
X522099D01*
X521599Y464852D01*
X524598D02*
X525098Y465352D01*
X526098D01*
X526597Y464852D01*
Y464352D01*
X526098Y463852D01*
X526597Y463352D01*
Y462853D01*
X526098Y462353D01*
X525098D01*
X524598Y462853D01*
Y463352D01*
X525098Y463852D01*
X524598Y464352D01*
Y464852D01*
X525098Y463852D02*
X526098D01*
X261500Y311484D02*
X258501D01*
Y312983D01*
X259001Y313483D01*
X260001D01*
X260501Y312983D01*
Y311484D01*
Y312484D02*
X261500Y313483D01*
X259001Y314483D02*
X258501Y314983D01*
Y315983D01*
X259001Y316482D01*
X261000D01*
X261500Y315983D01*
Y314983D01*
X261000Y314483D01*
X259001D01*
X641000Y313323D02*
X638001D01*
Y314822D01*
X638501Y315322D01*
X639501D01*
X640000Y314822D01*
Y313323D01*
Y314322D02*
X641000Y315322D01*
Y318321D02*
Y316322D01*
X639001Y318321D01*
X638501D01*
X638001Y317821D01*
Y316822D01*
X638501Y316322D01*
X638001Y319321D02*
Y321320D01*
X638501D01*
X640500Y319321D01*
X641000D01*
X612693Y311000D02*
X609694D01*
Y312499D01*
X610194Y312999D01*
X611194D01*
X611693Y312499D01*
Y311000D01*
Y311999D02*
X612693Y312999D01*
Y315998D02*
Y313999D01*
X610694Y315998D01*
X610194D01*
X609694Y315498D01*
Y314498D01*
X610194Y313999D01*
X609694Y318997D02*
X610194Y317997D01*
X611194Y316998D01*
X612193D01*
X612693Y317497D01*
Y318497D01*
X612193Y318997D01*
X611693D01*
X611194Y318497D01*
Y316998D01*
X583000Y309000D02*
X580001D01*
Y310500D01*
X580501Y311000D01*
X581500D01*
X582000Y310500D01*
Y309000D01*
Y310000D02*
X583000Y311000D01*
Y313999D02*
Y311999D01*
X581001Y313999D01*
X580501D01*
X580001Y313499D01*
Y312499D01*
X580501Y311999D01*
X580001Y316998D02*
Y314999D01*
X581500D01*
X581001Y315998D01*
Y316498D01*
X581500Y316998D01*
X582500D01*
X583000Y316498D01*
Y315498D01*
X582500Y314999D01*
X314969Y307500D02*
X311970D01*
Y308999D01*
X312469Y309499D01*
X313469D01*
X313969Y308999D01*
Y307500D01*
Y308499D02*
X314969Y309499D01*
Y312498D02*
Y310499D01*
X312969Y312498D01*
X312469D01*
X311970Y311998D01*
Y310999D01*
X312469Y310499D01*
X314969Y314997D02*
X311970D01*
X313469Y313498D01*
Y315497D01*
X192500Y312000D02*
X189501D01*
Y313499D01*
X190001Y313999D01*
X191000D01*
X191500Y313499D01*
Y312000D01*
Y312999D02*
X192500Y313999D01*
Y316998D02*
Y314999D01*
X190501Y316998D01*
X190001D01*
X189501Y316498D01*
Y315498D01*
X190001Y314999D01*
Y317998D02*
X189501Y318497D01*
Y319497D01*
X190001Y319997D01*
X190501D01*
X191000Y319497D01*
Y318997D01*
Y319497D01*
X191500Y319997D01*
X192000D01*
X192500Y319497D01*
Y318497D01*
X192000Y317998D01*
X129469Y312000D02*
X126470D01*
Y313499D01*
X126969Y313999D01*
X127969D01*
X128469Y313499D01*
Y312000D01*
Y313000D02*
X129469Y313999D01*
Y316998D02*
Y314999D01*
X127469Y316998D01*
X126969D01*
X126470Y316498D01*
Y315499D01*
X126969Y314999D01*
X129469Y319997D02*
Y317998D01*
X127469Y319997D01*
X126969D01*
X126470Y319498D01*
Y318498D01*
X126969Y317998D01*
X83048Y314000D02*
X80049D01*
Y315500D01*
X80548Y316000D01*
X81548D01*
X82048Y315500D01*
Y314000D01*
Y315000D02*
X83048Y316000D01*
Y318999D02*
Y316999D01*
X81048Y318999D01*
X80548D01*
X80049Y318499D01*
Y317499D01*
X80548Y316999D01*
X83048Y319998D02*
Y320998D01*
Y320498D01*
X80049D01*
X80548Y319998D01*
X690500Y568999D02*
X692499Y566000D01*
Y568999D02*
X690500Y566000D01*
X693499D02*
X694499D01*
X693999D01*
Y568999D01*
X693499Y568499D01*
X698500Y667298D02*
Y664799D01*
X699000Y664299D01*
X700000D01*
X700499Y664799D01*
Y667298D01*
X703498Y666798D02*
X702998Y667298D01*
X701999D01*
X701499Y666798D01*
Y666298D01*
X701999Y665798D01*
X702998D01*
X703498Y665299D01*
Y664799D01*
X702998Y664299D01*
X701999D01*
X701499Y664799D01*
X704498Y667298D02*
Y664299D01*
X705998D01*
X706497Y664799D01*
Y665299D01*
X705998Y665798D01*
X704498D01*
X705998D01*
X706497Y666298D01*
Y666798D01*
X705998Y667298D01*
X704498D01*
X707497Y664299D02*
X708497D01*
X707997D01*
Y667298D01*
X707497Y666798D01*
X672583Y465424D02*
Y462925D01*
X673082Y462425D01*
X674082D01*
X674582Y462925D01*
Y465424D01*
X675582Y462425D02*
X676581D01*
X676082D01*
Y465424D01*
X675582Y464925D01*
X612776Y476500D02*
X609777D01*
Y477999D01*
X610276Y478499D01*
X611276D01*
X611776Y477999D01*
Y476500D01*
Y477500D02*
X612776Y478499D01*
Y479499D02*
Y480499D01*
Y479999D01*
X609777D01*
X610276Y479499D01*
X612276Y481998D02*
X612776Y482498D01*
Y483498D01*
X612276Y483998D01*
X610276D01*
X609777Y483498D01*
Y482498D01*
X610276Y481998D01*
X610776D01*
X611276Y482498D01*
Y483998D01*
X631161Y475366D02*
X628162D01*
Y476865D01*
X628662Y477365D01*
X629662D01*
X630162Y476865D01*
Y475366D01*
Y476365D02*
X631161Y477365D01*
Y478365D02*
Y479364D01*
Y478864D01*
X628162D01*
X628662Y478365D01*
X628162Y480864D02*
Y482863D01*
X628662D01*
X630662Y480864D01*
X631161D01*
X602776Y476843D02*
X599777D01*
Y478342D01*
X600277Y478842D01*
X601276D01*
X601776Y478342D01*
Y476843D01*
Y477842D02*
X602776Y478842D01*
Y479842D02*
Y480841D01*
Y480342D01*
X599777D01*
X600277Y479842D01*
X599777Y484340D02*
X600277Y483341D01*
X601276Y482341D01*
X602276D01*
X602776Y482841D01*
Y483840D01*
X602276Y484340D01*
X601776D01*
X601276Y483840D01*
Y482341D01*
X622776Y476023D02*
X619776D01*
Y477523D01*
X620276Y478022D01*
X621276D01*
X621776Y477523D01*
Y476023D01*
Y477023D02*
X622776Y478022D01*
Y479022D02*
Y480022D01*
Y479522D01*
X619776D01*
X620276Y479022D01*
X619776Y483521D02*
Y481521D01*
X621276D01*
X620776Y482521D01*
Y483021D01*
X621276Y483521D01*
X622276D01*
X622776Y483021D01*
Y482021D01*
X622276Y481521D01*
X623500Y631697D02*
Y634696D01*
X625000D01*
X625499Y634196D01*
Y633196D01*
X625000Y632696D01*
X623500D01*
X624500D02*
X625499Y631697D01*
X626499D02*
X627499D01*
X626999D01*
Y634696D01*
X626499Y634196D01*
X630498Y631697D02*
Y634696D01*
X628998Y633196D01*
X630998D01*
X604500Y674000D02*
Y676999D01*
X606000D01*
X606499Y676499D01*
Y675499D01*
X606000Y675000D01*
X604500D01*
X605500D02*
X606499Y674000D01*
X607499D02*
X608499D01*
X607999D01*
Y676999D01*
X607499Y676499D01*
X609998D02*
X610498Y676999D01*
X611498D01*
X611998Y676499D01*
Y675999D01*
X611498Y675499D01*
X610998D01*
X611498D01*
X611998Y675000D01*
Y674500D01*
X611498Y674000D01*
X610498D01*
X609998Y674500D01*
X588077Y476685D02*
X585078D01*
Y478185D01*
X585578Y478684D01*
X586578D01*
X587078Y478185D01*
Y476685D01*
Y477685D02*
X588077Y478684D01*
Y479684D02*
Y480684D01*
Y480184D01*
X585078D01*
X585578Y479684D01*
X588077Y484183D02*
Y482183D01*
X586078Y484183D01*
X585578D01*
X585078Y483683D01*
Y482683D01*
X585578Y482183D01*
X594437Y476842D02*
X591438D01*
Y478342D01*
X591938Y478842D01*
X592937D01*
X593437Y478342D01*
Y476842D01*
Y477842D02*
X594437Y478842D01*
Y479842D02*
Y480841D01*
Y480341D01*
X591438D01*
X591938Y479842D01*
X594437Y482341D02*
Y483340D01*
Y482841D01*
X591438D01*
X591938Y482341D01*
X650000Y619500D02*
Y622499D01*
X651500D01*
X651999Y621999D01*
Y620999D01*
X651500Y620500D01*
X650000D01*
X651000D02*
X651999Y619500D01*
X652999Y620000D02*
X653499Y619500D01*
X654498D01*
X654998Y620000D01*
Y621999D01*
X654498Y622499D01*
X653499D01*
X652999Y621999D01*
Y621499D01*
X653499Y620999D01*
X654998D01*
X648878Y638000D02*
Y640999D01*
X650378D01*
X650877Y640499D01*
Y639500D01*
X650378Y639000D01*
X648878D01*
X649878D02*
X650877Y638000D01*
X651877Y640499D02*
X652377Y640999D01*
X653377D01*
X653876Y640499D01*
Y639999D01*
X653377Y639500D01*
X653876Y639000D01*
Y638500D01*
X653377Y638000D01*
X652377D01*
X651877Y638500D01*
Y639000D01*
X652377Y639500D01*
X651877Y639999D01*
Y640499D01*
X652377Y639500D02*
X653377D01*
X612500Y609071D02*
X609501D01*
Y610570D01*
X610001Y611070D01*
X611000D01*
X611500Y610570D01*
Y609071D01*
Y610071D02*
X612500Y611070D01*
X609501Y612070D02*
Y614069D01*
X610001D01*
X612000Y612070D01*
X612500D01*
X580500Y624413D02*
Y627412D01*
X581999D01*
X582499Y626913D01*
Y625913D01*
X581999Y625413D01*
X580500D01*
X581500D02*
X582499Y624413D01*
X585498Y627412D02*
X584499Y626913D01*
X583499Y625913D01*
Y624913D01*
X583999Y624413D01*
X584999D01*
X585498Y624913D01*
Y625413D01*
X584999Y625913D01*
X583499D01*
X600640Y601575D02*
X597641D01*
Y603074D01*
X598141Y603574D01*
X599140D01*
X599640Y603074D01*
Y601575D01*
Y602574D02*
X600640Y603574D01*
X597641Y606573D02*
Y604574D01*
X599140D01*
X598641Y605574D01*
Y606073D01*
X599140Y606573D01*
X600140D01*
X600640Y606073D01*
Y605074D01*
X600140Y604574D01*
X581900Y612000D02*
Y614999D01*
X583399D01*
X583899Y614499D01*
Y613499D01*
X583399Y612999D01*
X581900D01*
X582900D02*
X583899Y612000D01*
X586399D02*
Y614999D01*
X584899Y613499D01*
X586898D01*
X687000Y535500D02*
Y538499D01*
X688499D01*
X688999Y537999D01*
Y537000D01*
X688499Y536500D01*
X687000D01*
X688000D02*
X688999Y535500D01*
X689999Y537999D02*
X690499Y538499D01*
X691499D01*
X691998Y537999D01*
Y537499D01*
X691499Y537000D01*
X690999D01*
X691499D01*
X691998Y536500D01*
Y536000D01*
X691499Y535500D01*
X690499D01*
X689999Y536000D01*
X630000Y593000D02*
Y595999D01*
X631499D01*
X631999Y595499D01*
Y594499D01*
X631499Y594000D01*
X630000D01*
X631000D02*
X631999Y593000D01*
X634998D02*
X632999D01*
X634998Y594999D01*
Y595499D01*
X634499Y595999D01*
X633499D01*
X632999Y595499D01*
X683000Y599543D02*
Y602542D01*
X684500D01*
X684999Y602042D01*
Y601043D01*
X684500Y600543D01*
X683000D01*
X684000D02*
X684999Y599543D01*
X685999D02*
X686999D01*
X686499D01*
Y602542D01*
X685999Y602042D01*
X698885Y396499D02*
Y393500D01*
X700885D01*
X701885D02*
X702884D01*
X702384D01*
Y396499D01*
X701885Y395999D01*
X607499Y605499D02*
X605500D01*
Y604000D01*
X606500D01*
X605500D01*
Y602500D01*
X608499D02*
X609499D01*
X608999D01*
Y605499D01*
X608499Y604999D01*
X619500Y612499D02*
Y609500D01*
X620999D01*
X621499Y610000D01*
Y611999D01*
X620999Y612499D01*
X619500D01*
X624498Y609500D02*
X622499D01*
X624498Y611499D01*
Y611999D01*
X623998Y612499D01*
X622999D01*
X622499Y611999D01*
X588500Y677999D02*
Y675000D01*
X589999D01*
X590499Y675500D01*
Y677499D01*
X589999Y677999D01*
X588500D01*
X591499Y675000D02*
X592499D01*
X591999D01*
Y677999D01*
X591499Y677499D01*
X579564Y465536D02*
X580063Y466036D01*
Y467036D01*
X579564Y467535D01*
X577564D01*
X577064Y467036D01*
Y466036D01*
X577564Y465536D01*
X579564Y464536D02*
X580063Y464037D01*
Y463037D01*
X579564Y462537D01*
X579064D01*
X578564Y463037D01*
Y463537D01*
Y463037D01*
X578064Y462537D01*
X577564D01*
X577064Y463037D01*
Y464037D01*
X577564Y464536D01*
X579564Y461537D02*
X580063Y461037D01*
Y460038D01*
X579564Y459538D01*
X577564D01*
X577064Y460038D01*
Y461037D01*
X577564Y461537D01*
X579564D01*
X611787Y664346D02*
X611287Y664845D01*
X610288D01*
X609788Y664346D01*
Y662346D01*
X610288Y661846D01*
X611287D01*
X611787Y662346D01*
X614786Y661846D02*
X612787D01*
X614786Y663846D01*
Y664346D01*
X614286Y664845D01*
X613287D01*
X612787Y664346D01*
X615786Y662346D02*
X616286Y661846D01*
X617285D01*
X617785Y662346D01*
Y664346D01*
X617285Y664845D01*
X616286D01*
X615786Y664346D01*
Y663846D01*
X616286Y663346D01*
X617785D01*
X627999Y658501D02*
X628499Y659000D01*
Y660000D01*
X627999Y660500D01*
X626000D01*
X625500Y660000D01*
Y659000D01*
X626000Y658501D01*
X625500Y655502D02*
Y657501D01*
X627499Y655502D01*
X627999D01*
X628499Y656002D01*
Y657001D01*
X627999Y657501D01*
Y654502D02*
X628499Y654002D01*
Y653002D01*
X627999Y652503D01*
X627499D01*
X627000Y653002D01*
X626500Y652503D01*
X626000D01*
X625500Y653002D01*
Y654002D01*
X626000Y654502D01*
X626500D01*
X627000Y654002D01*
X627499Y654502D01*
X627999D01*
X627000Y654002D02*
Y653002D01*
X693499Y550869D02*
X693000Y551369D01*
X692000D01*
X691500Y550869D01*
Y548869D01*
X692000Y548370D01*
X693000D01*
X693499Y548869D01*
X696498Y548370D02*
X694499D01*
X696498Y550369D01*
Y550869D01*
X695998Y551369D01*
X694999D01*
X694499Y550869D01*
X697498Y551369D02*
X699497D01*
Y550869D01*
X697498Y548869D01*
Y548370D01*
X651122Y502251D02*
X650622Y502751D01*
X649622D01*
X649122Y502251D01*
Y500252D01*
X649622Y499752D01*
X650622D01*
X651122Y500252D01*
X654121Y499752D02*
X652121D01*
X654121Y501751D01*
Y502251D01*
X653621Y502751D01*
X652621D01*
X652121Y502251D01*
X657120Y502751D02*
X656120Y502251D01*
X655120Y501252D01*
Y500252D01*
X655620Y499752D01*
X656620D01*
X657120Y500252D01*
Y500752D01*
X656620Y501252D01*
X655120D01*
X650433Y494794D02*
X649933Y495294D01*
X648933D01*
X648433Y494794D01*
Y492795D01*
X648933Y492295D01*
X649933D01*
X650433Y492795D01*
X653432Y492295D02*
X651432D01*
X653432Y494294D01*
Y494794D01*
X652932Y495294D01*
X651932D01*
X651432Y494794D01*
X656431Y495294D02*
X654431D01*
Y493794D01*
X655431Y494294D01*
X655931D01*
X656431Y493794D01*
Y492795D01*
X655931Y492295D01*
X654931D01*
X654431Y492795D01*
X651603Y509952D02*
X651103Y510452D01*
X650103D01*
X649603Y509952D01*
Y507953D01*
X650103Y507453D01*
X651103D01*
X651603Y507953D01*
X654602Y507453D02*
X652602D01*
X654602Y509452D01*
Y509952D01*
X654102Y510452D01*
X653102D01*
X652602Y509952D01*
X657101Y507453D02*
Y510452D01*
X655601Y508953D01*
X657601D01*
X616999Y592546D02*
X616500Y593046D01*
X615500D01*
X615000Y592546D01*
Y590547D01*
X615500Y590047D01*
X616500D01*
X616999Y590547D01*
X619998Y590047D02*
X617999D01*
X619998Y592047D01*
Y592546D01*
X619498Y593046D01*
X618499D01*
X617999Y592546D01*
X620998D02*
X621498Y593046D01*
X622498D01*
X622997Y592546D01*
Y592047D01*
X622498Y591547D01*
X621998D01*
X622498D01*
X622997Y591047D01*
Y590547D01*
X622498Y590047D01*
X621498D01*
X620998Y590547D01*
X614874Y577999D02*
X614374Y578499D01*
X613374D01*
X612875Y577999D01*
Y576000D01*
X613374Y575500D01*
X614374D01*
X614874Y576000D01*
X617873Y575500D02*
X615874D01*
X617873Y577499D01*
Y577999D01*
X617373Y578499D01*
X616373D01*
X615874Y577999D01*
X620872Y575500D02*
X618873D01*
X620872Y577499D01*
Y577999D01*
X620372Y578499D01*
X619373D01*
X618873Y577999D01*
X614499Y583964D02*
X614000Y584464D01*
X613000D01*
X612500Y583964D01*
Y581964D01*
X613000Y581465D01*
X614000D01*
X614499Y581964D01*
X617498Y581465D02*
X615499D01*
X617498Y583464D01*
Y583964D01*
X616998Y584464D01*
X615999D01*
X615499Y583964D01*
X618498Y581465D02*
X619498D01*
X618998D01*
Y584464D01*
X618498Y583964D01*
X671939Y534499D02*
X671439Y534999D01*
X670439D01*
X669939Y534499D01*
Y532500D01*
X670439Y532000D01*
X671439D01*
X671939Y532500D01*
X674937Y532000D02*
X672938D01*
X674937Y533999D01*
Y534499D01*
X674438Y534999D01*
X673438D01*
X672938Y534499D01*
X675937D02*
X676437Y534999D01*
X677437D01*
X677937Y534499D01*
Y532500D01*
X677437Y532000D01*
X676437D01*
X675937Y532500D01*
Y534499D01*
X684999Y579499D02*
X684500Y579999D01*
X683500D01*
X683000Y579499D01*
Y577500D01*
X683500Y577000D01*
X684500D01*
X684999Y577500D01*
X685999Y577000D02*
X686999D01*
X686499D01*
Y579999D01*
X685999Y579499D01*
X688498Y577500D02*
X688998Y577000D01*
X689998D01*
X690498Y577500D01*
Y579499D01*
X689998Y579999D01*
X688998D01*
X688498Y579499D01*
Y578999D01*
X688998Y578500D01*
X690498D01*
X705499Y559999D02*
X704999Y560499D01*
X704000D01*
X703500Y559999D01*
Y558000D01*
X704000Y557500D01*
X704999D01*
X705499Y558000D01*
X706499Y557500D02*
X707499D01*
X706999D01*
Y560499D01*
X706499Y559999D01*
X708998D02*
X709498Y560499D01*
X710498D01*
X710998Y559999D01*
Y559499D01*
X710498Y558999D01*
X710998Y558500D01*
Y558000D01*
X710498Y557500D01*
X709498D01*
X708998Y558000D01*
Y558500D01*
X709498Y558999D01*
X708998Y559499D01*
Y559999D01*
X709498Y558999D02*
X710498D01*
X661338Y514267D02*
X660838Y514767D01*
X659838D01*
X659339Y514267D01*
Y512268D01*
X659838Y511768D01*
X660838D01*
X661338Y512268D01*
X662338Y511768D02*
X663337D01*
X662837D01*
Y514767D01*
X662338Y514267D01*
X664837Y514767D02*
X666836D01*
Y514267D01*
X664837Y512268D01*
Y511768D01*
X678527Y547645D02*
X678027Y548144D01*
X677027D01*
X676528Y547645D01*
Y545645D01*
X677027Y545145D01*
X678027D01*
X678527Y545645D01*
X679527Y545145D02*
X680526D01*
X680026D01*
Y548144D01*
X679527Y547645D01*
X684025Y548144D02*
X683026Y547645D01*
X682026Y546645D01*
Y545645D01*
X682526Y545145D01*
X683525D01*
X684025Y545645D01*
Y546145D01*
X683525Y546645D01*
X682026D01*
X607502Y554499D02*
X607002Y554999D01*
X606003D01*
X605503Y554499D01*
Y552500D01*
X606003Y552000D01*
X607002D01*
X607502Y552500D01*
X608502Y552000D02*
X609502D01*
X609002D01*
Y554999D01*
X608502Y554499D01*
X613001Y554999D02*
X611001D01*
Y553500D01*
X612001Y553999D01*
X612501D01*
X613001Y553500D01*
Y552500D01*
X612501Y552000D01*
X611501D01*
X611001Y552500D01*
X640499Y518499D02*
X639999Y518999D01*
X639000D01*
X638500Y518499D01*
Y516500D01*
X639000Y516000D01*
X639999D01*
X640499Y516500D01*
X641499Y516000D02*
X642499D01*
X641999D01*
Y518999D01*
X641499Y518499D01*
X645498Y516000D02*
Y518999D01*
X643998Y517499D01*
X645998D01*
X641999Y592999D02*
X641500Y593499D01*
X640500D01*
X640000Y592999D01*
Y591000D01*
X640500Y590500D01*
X641500D01*
X641999Y591000D01*
X642999Y590500D02*
X643999D01*
X643499D01*
Y593499D01*
X642999Y592999D01*
X645498D02*
X645998Y593499D01*
X646998D01*
X647498Y592999D01*
Y592499D01*
X646998Y591999D01*
X646498D01*
X646998D01*
X647498Y591500D01*
Y591000D01*
X646998Y590500D01*
X645998D01*
X645498Y591000D01*
X705869Y454999D02*
X705369Y455499D01*
X704369D01*
X703870Y454999D01*
Y453000D01*
X704369Y452500D01*
X705369D01*
X705869Y453000D01*
X706869Y452500D02*
X707868D01*
X707369D01*
Y455499D01*
X706869Y454999D01*
X711367Y452500D02*
X709368D01*
X711367Y454499D01*
Y454999D01*
X710867Y455499D01*
X709868D01*
X709368Y454999D01*
X726499Y456499D02*
X725999Y456999D01*
X725000D01*
X724500Y456499D01*
Y454500D01*
X725000Y454000D01*
X725999D01*
X726499Y454500D01*
X727499Y454000D02*
X728499D01*
X727999D01*
Y456999D01*
X727499Y456499D01*
X729998Y454000D02*
X730998D01*
X730498D01*
Y456999D01*
X729998Y456499D01*
X716299Y456256D02*
X715800Y456756D01*
X714800D01*
X714300Y456256D01*
Y454257D01*
X714800Y453757D01*
X715800D01*
X716299Y454257D01*
X717299Y453757D02*
X718299D01*
X717799D01*
Y456756D01*
X717299Y456256D01*
X719798D02*
X720298Y456756D01*
X721298D01*
X721798Y456256D01*
Y454257D01*
X721298Y453757D01*
X720298D01*
X719798Y454257D01*
Y456256D01*
X658999Y454999D02*
X658499Y455499D01*
X657500D01*
X657000Y454999D01*
Y453000D01*
X657500Y452500D01*
X658499D01*
X658999Y453000D01*
X659999D02*
X660499Y452500D01*
X661498D01*
X661998Y453000D01*
Y454999D01*
X661498Y455499D01*
X660499D01*
X659999Y454999D01*
Y454499D01*
X660499Y454000D01*
X661998D01*
X648799Y456329D02*
X648300Y456829D01*
X647300D01*
X646800Y456329D01*
Y454330D01*
X647300Y453830D01*
X648300D01*
X648799Y454330D01*
X649799Y456329D02*
X650299Y456829D01*
X651299D01*
X651798Y456329D01*
Y455829D01*
X651299Y455330D01*
X651798Y454830D01*
Y454330D01*
X651299Y453830D01*
X650299D01*
X649799Y454330D01*
Y454830D01*
X650299Y455330D01*
X649799Y455829D01*
Y456329D01*
X650299Y455330D02*
X651299D01*
X635457Y456168D02*
X634957Y456668D01*
X633957D01*
X633457Y456168D01*
Y454169D01*
X633957Y453669D01*
X634957D01*
X635457Y454169D01*
X636456Y456668D02*
X638456D01*
Y456168D01*
X636456Y454169D01*
Y453669D01*
X692501Y403042D02*
X692001Y402542D01*
Y401543D01*
X692501Y401043D01*
X694500D01*
X695000Y401543D01*
Y402542D01*
X694500Y403042D01*
X692001Y406041D02*
X692501Y405042D01*
X693501Y404042D01*
X694500D01*
X695000Y404542D01*
Y405542D01*
X694500Y406041D01*
X694000D01*
X693501Y405542D01*
Y404042D01*
X678501Y403042D02*
X678001Y402542D01*
Y401543D01*
X678501Y401043D01*
X680500D01*
X681000Y401543D01*
Y402542D01*
X680500Y403042D01*
X678001Y406041D02*
Y404042D01*
X679500D01*
X679001Y405042D01*
Y405542D01*
X679500Y406041D01*
X680500D01*
X681000Y405542D01*
Y404542D01*
X680500Y404042D01*
X685001Y403042D02*
X684501Y402542D01*
Y401543D01*
X685001Y401043D01*
X687000D01*
X687500Y401543D01*
Y402542D01*
X687000Y403042D01*
X687500Y405542D02*
X684501D01*
X686000Y404042D01*
Y406041D01*
X709574Y393688D02*
X709074Y394188D01*
X708075D01*
X707575Y393688D01*
Y391689D01*
X708075Y391189D01*
X709074D01*
X709574Y391689D01*
X710574Y393688D02*
X711074Y394188D01*
X712073D01*
X712573Y393688D01*
Y393188D01*
X712073Y392688D01*
X711573D01*
X712073D01*
X712573Y392189D01*
Y391689D01*
X712073Y391189D01*
X711074D01*
X710574Y391689D01*
X704999Y601542D02*
X704499Y602042D01*
X703500D01*
X703000Y601542D01*
Y599543D01*
X703500Y599043D01*
X704499D01*
X704999Y599543D01*
X707998Y599043D02*
X705999D01*
X707998Y601042D01*
Y601542D01*
X707499Y602042D01*
X706499D01*
X705999Y601542D01*
X641692Y664542D02*
X641193Y665042D01*
X640193D01*
X639693Y664542D01*
Y662543D01*
X640193Y662043D01*
X641193D01*
X641692Y662543D01*
X642692Y662043D02*
X643692D01*
X643192D01*
Y665042D01*
X642692Y664542D01*
X140500Y528500D02*
Y531499D01*
X141999D01*
X142499Y530999D01*
Y529999D01*
X141999Y529499D01*
X140500D01*
X141500D02*
X142499Y528500D01*
X144999D02*
X143999D01*
X143499Y529000D01*
Y529999D01*
X143999Y530499D01*
X144999D01*
X145498Y529999D01*
Y529499D01*
X143499D01*
X146498Y528500D02*
X147498D01*
X146998D01*
Y531499D01*
X146498D01*
X149497Y530499D02*
X150497D01*
X150997Y529999D01*
Y528500D01*
X149497D01*
X148997Y529000D01*
X149497Y529499D01*
X150997D01*
X151996Y530499D02*
Y529000D01*
X152496Y528500D01*
X153996D01*
Y528000D01*
X153496Y527500D01*
X152996D01*
X153996Y528500D02*
Y530499D01*
X157994Y531499D02*
Y528500D01*
X159494D01*
X159994Y529000D01*
Y529499D01*
X159494Y529999D01*
X157994D01*
X159494D01*
X159994Y530499D01*
Y530999D01*
X159494Y531499D01*
X157994D01*
X152500Y329500D02*
Y332499D01*
X153999D01*
X154499Y331999D01*
Y330999D01*
X153999Y330500D01*
X152500D01*
X153500D02*
X154499Y329500D01*
X156999D02*
X155999D01*
X155499Y330000D01*
Y330999D01*
X155999Y331499D01*
X156999D01*
X157498Y330999D01*
Y330500D01*
X155499D01*
X158498Y329500D02*
X159498D01*
X158998D01*
Y332499D01*
X158498D01*
X161497Y331499D02*
X162497D01*
X162997Y330999D01*
Y329500D01*
X161497D01*
X160997Y330000D01*
X161497Y330500D01*
X162997D01*
X163996Y331499D02*
Y330000D01*
X164496Y329500D01*
X165996D01*
Y329000D01*
X165496Y328500D01*
X164996D01*
X165996Y329500D02*
Y331499D01*
X169994Y329500D02*
Y331499D01*
X170994Y332499D01*
X171994Y331499D01*
Y329500D01*
Y330999D01*
X169994D01*
X646000Y606500D02*
Y609499D01*
X647500D01*
X647999Y608999D01*
Y608000D01*
X647500Y607500D01*
X646000D01*
X648999Y606500D02*
X649999D01*
X649499D01*
Y609499D01*
X648999Y608999D01*
X500209Y421999D02*
Y419000D01*
X501708D01*
X502208Y419500D01*
Y421499D01*
X501708Y421999D01*
X500209D01*
X503208Y421499D02*
X503708Y421999D01*
X504707D01*
X505207Y421499D01*
Y420999D01*
X504707Y420500D01*
X504207D01*
X504707D01*
X505207Y420000D01*
Y419500D01*
X504707Y419000D01*
X503708D01*
X503208Y419500D01*
M02*
