G04*
G04 #@! TF.GenerationSoftware,Altium Limited,Altium Designer,18.1.7 (191)*
G04*
G04 Layer_Color=32768*
%FSLAX25Y25*%
%MOIN*%
G70*
G01*
G75*
%ADD14C,0.00394*%
%ADD15C,0.00600*%
%ADD134C,0.00197*%
G36*
X528250Y685500D02*
X447750D01*
Y714500D01*
X528250D01*
Y685500D01*
D02*
G37*
G36*
X526250Y618071D02*
X445750D01*
Y647071D01*
X526250D01*
Y618071D01*
D02*
G37*
G36*
X533750Y538500D02*
X453250D01*
Y567500D01*
X533750D01*
Y538500D01*
D02*
G37*
G36*
X491402Y435183D02*
X494770D01*
Y430817D01*
X491402D01*
Y429343D01*
X478181D01*
Y430817D01*
X474813D01*
Y435183D01*
X478181D01*
Y436657D01*
X491402D01*
Y435183D01*
D02*
G37*
G36*
X574856Y444169D02*
X578497D01*
Y440528D01*
X579777D01*
Y429472D01*
X578497D01*
Y425831D01*
X574856D01*
Y424551D01*
X563800D01*
Y425831D01*
X560159D01*
Y429472D01*
X558879D01*
Y440528D01*
X560159D01*
Y444169D01*
X563800D01*
Y445449D01*
X574856D01*
Y444169D01*
D02*
G37*
G36*
X491819Y418183D02*
X495187D01*
Y413817D01*
X491819D01*
Y412343D01*
X478598D01*
Y413817D01*
X475230D01*
Y418183D01*
X478598D01*
Y419658D01*
X491819D01*
Y418183D01*
D02*
G37*
G36*
X106215Y382389D02*
X81615D01*
Y413489D01*
X106215D01*
Y382389D01*
D02*
G37*
G36*
X632193Y321531D02*
X619224D01*
Y337000D01*
X632193D01*
Y321531D01*
D02*
G37*
G36*
X662000Y321016D02*
X649031D01*
Y336484D01*
X662000D01*
Y321016D01*
D02*
G37*
G36*
X602468Y320032D02*
X589500D01*
Y335500D01*
X602468D01*
Y320032D01*
D02*
G37*
G36*
X147969Y320032D02*
X135000D01*
Y335500D01*
X147969D01*
Y320032D01*
D02*
G37*
G36*
X101548D02*
X88579D01*
Y335500D01*
X101548D01*
Y320032D01*
D02*
G37*
G36*
X279969Y320016D02*
X267000D01*
Y335484D01*
X279969D01*
Y320016D01*
D02*
G37*
G36*
X330469Y319531D02*
X317500D01*
Y335000D01*
X330469D01*
Y319531D01*
D02*
G37*
G36*
X211000D02*
X198031D01*
Y335000D01*
X211000D01*
Y319531D01*
D02*
G37*
D14*
X524886Y679709D02*
X584059D01*
X524886Y600614D02*
Y679709D01*
Y600614D02*
X584059D01*
Y679709D01*
X96435Y606568D02*
X203198Y516983D01*
X96435Y606568D02*
X136181Y653936D01*
X242945Y564351D01*
X203198Y516983D02*
X242945Y564351D01*
X352812Y380398D02*
X568953D01*
Y239906D02*
Y380398D01*
X352812Y239906D02*
X568953D01*
X352812D02*
Y380398D01*
X207336Y606839D02*
X314100Y517254D01*
X207336Y606839D02*
X247083Y654207D01*
X353847Y564622D01*
X314100Y517254D02*
X353847Y564622D01*
X346839Y639532D02*
Y768653D01*
X237650D02*
X346839D01*
X237650Y639532D02*
Y768653D01*
Y639532D02*
X346839D01*
X735559Y311232D02*
Y390327D01*
X676386Y311232D02*
X735559D01*
X676386D02*
Y390327D01*
X735559D01*
X392717Y667768D02*
Y736232D01*
X451732D01*
Y667768D02*
Y736232D01*
X392717Y667768D02*
X451732D01*
X391996Y601768D02*
Y670232D01*
X451012D01*
Y601768D02*
Y670232D01*
X391996Y601768D02*
X451012D01*
X396996Y516559D02*
Y585024D01*
X456012D01*
Y516559D02*
Y585024D01*
X396996Y516559D02*
X456012D01*
X613228Y601417D02*
Y603583D01*
X612146Y602500D02*
X614311D01*
X86161Y639532D02*
X195350D01*
X86161D02*
Y768653D01*
X195350D01*
Y639532D02*
Y768653D01*
X697917Y558811D02*
X700083D01*
X699000Y557728D02*
Y559894D01*
X688417Y543000D02*
X690583D01*
X689500Y541917D02*
Y544082D01*
X608500Y589630D02*
Y593370D01*
X606630Y591500D02*
X610370D01*
X603972Y589433D02*
X613028D01*
X603972Y593567D02*
X613028D01*
Y589433D02*
Y593567D01*
X603972Y589433D02*
Y593567D01*
X608000Y583917D02*
Y586083D01*
X606917Y585000D02*
X609083D01*
X518335Y459677D02*
X522665D01*
X518335Y450228D02*
X522665D01*
Y459677D01*
X518335Y450228D02*
Y459677D01*
X520500Y453083D02*
Y456823D01*
X518630Y454953D02*
X522370D01*
X669827Y426472D02*
X698173D01*
X669827Y460528D02*
X698173D01*
X669827Y426472D02*
Y460528D01*
X698173Y426472D02*
Y460528D01*
X684000Y441532D02*
Y445469D01*
X682032Y443500D02*
X685969D01*
X660000Y442917D02*
Y445083D01*
X658917Y444000D02*
X661083D01*
X575135Y461744D02*
Y465878D01*
X566080Y461744D02*
Y465878D01*
Y461744D02*
X575135D01*
X566080Y465878D02*
X575135D01*
X568737Y463811D02*
X572477D01*
X570607Y461941D02*
Y465681D01*
X607417Y577000D02*
X609583D01*
X608500Y575917D02*
Y578083D01*
X693716Y409598D02*
Y411763D01*
X692634Y410680D02*
X694799D01*
X640925Y495267D02*
X643090D01*
X642008Y494185D02*
Y496350D01*
X641791Y508897D02*
Y512637D01*
X639921Y510767D02*
X643661D01*
X637264Y512834D02*
X646319D01*
X637264Y508700D02*
X646319D01*
X637264D02*
Y512834D01*
X646319Y508700D02*
Y512834D01*
X686216Y409598D02*
Y411763D01*
X685134Y410680D02*
X687299D01*
X679716Y409598D02*
Y411763D01*
X678634Y410680D02*
X680799D01*
X698130Y401500D02*
X701870D01*
X700000Y399630D02*
Y403370D01*
X702067Y396973D02*
Y406028D01*
X697933Y396973D02*
Y406028D01*
X702067D01*
X697933Y396973D02*
X702067D01*
X709500Y399106D02*
Y401272D01*
X708417Y400189D02*
X710583D01*
X637500Y590232D02*
Y592397D01*
X636417Y591315D02*
X638583D01*
X611870Y525220D02*
Y577582D01*
X664232Y525220D02*
Y577582D01*
X611870D02*
X664232D01*
X611870Y525220D02*
X664232D01*
X636083Y551401D02*
X640020D01*
X638051Y549433D02*
Y553370D01*
X654917Y517500D02*
X657083D01*
X656000Y516417D02*
Y518583D01*
X601661Y647055D02*
Y650992D01*
X599693Y649023D02*
X603630D01*
X682500Y538917D02*
Y541083D01*
X681417Y540000D02*
X683583D01*
X609142Y545417D02*
Y547583D01*
X608059Y546500D02*
X610224D01*
X588417Y619043D02*
X590583D01*
X589500Y617961D02*
Y620126D01*
X591917Y625197D02*
X594083D01*
X593000Y624114D02*
Y626279D01*
X598274Y612618D02*
X600439D01*
X599356Y611535D02*
Y613700D01*
X605500Y611960D02*
Y614126D01*
X604417Y613043D02*
X606582D01*
X706130Y444000D02*
X709870D01*
X708000Y442130D02*
Y445870D01*
X710067Y439472D02*
Y448527D01*
X705933Y439472D02*
Y448527D01*
X710067D01*
X705933Y439472D02*
X710067D01*
X726031Y443500D02*
X729969D01*
X728000Y441532D02*
Y445469D01*
X731543Y435921D02*
Y451079D01*
X724457Y435921D02*
Y451079D01*
X731543D01*
X724457Y435921D02*
X731543D01*
X631114Y616106D02*
Y623980D01*
X616547Y616106D02*
Y623980D01*
Y616106D02*
X631114D01*
X616547Y623980D02*
X631114D01*
X621862Y620043D02*
X625799D01*
X623831Y618074D02*
Y622011D01*
X628917Y628815D02*
X631083D01*
X630000Y627732D02*
Y629897D01*
X679421Y591000D02*
Y598087D01*
X694579Y591000D02*
Y598087D01*
X679421D02*
X694579D01*
X679421Y591000D02*
X694579D01*
X685032Y594543D02*
X688969D01*
X687000Y592575D02*
Y596512D01*
X707500Y592574D02*
Y596511D01*
X705532Y594543D02*
X709469D01*
X699921Y598086D02*
X715079D01*
X699921Y591000D02*
X715079D01*
X699921D02*
Y598086D01*
X715079Y591000D02*
Y598086D01*
X607335Y494374D02*
X611665D01*
X607335Y503626D02*
X611665D01*
X607335Y494374D02*
Y503626D01*
X611665Y494374D02*
Y503626D01*
X609500Y497130D02*
Y500870D01*
X607630Y499000D02*
X611370D01*
X624559Y494397D02*
X628890D01*
X624559Y503649D02*
X628890D01*
X624559Y494397D02*
Y503649D01*
X628890Y494397D02*
Y503649D01*
X626724Y497153D02*
Y500893D01*
X624854Y499023D02*
X628595D01*
X597835Y494374D02*
X602166D01*
X597835Y503626D02*
X602166D01*
X597835Y494374D02*
Y503626D01*
X602166Y494374D02*
Y503626D01*
X600000Y497130D02*
Y500870D01*
X598130Y499000D02*
X601870D01*
X616835Y494555D02*
X621165D01*
X616835Y503807D02*
X621165D01*
X616835Y494555D02*
Y503807D01*
X621165Y494555D02*
Y503807D01*
X619000Y497311D02*
Y501051D01*
X617130Y499181D02*
X620870D01*
X607605Y669417D02*
Y671583D01*
X606523Y670500D02*
X608688D01*
X581630Y498842D02*
X585370D01*
X583500Y496972D02*
Y500713D01*
X585665Y494216D02*
Y503468D01*
X581335Y494216D02*
Y503468D01*
X585665D01*
X581335Y494216D02*
X585665D01*
X589791Y499000D02*
X593531D01*
X591661Y497130D02*
Y500870D01*
X593826Y494374D02*
Y503626D01*
X589496Y494374D02*
Y503626D01*
X593826D01*
X589496Y494374D02*
X593826D01*
X652228Y627960D02*
Y630126D01*
X651146Y629043D02*
X653311D01*
X652000Y634189D02*
Y636354D01*
X650917Y635271D02*
X653083D01*
X591610Y665531D02*
Y669468D01*
X589642Y667500D02*
X593579D01*
X584327Y671437D02*
X598894D01*
X584327Y663563D02*
X598894D01*
X584327D02*
Y671437D01*
X598894Y663563D02*
Y671437D01*
X621417Y657000D02*
X623583D01*
X622500Y655918D02*
Y658083D01*
X614417Y657000D02*
X616583D01*
X615500Y655918D02*
Y658083D01*
X695417Y543000D02*
X697583D01*
X696500Y541917D02*
Y544082D01*
X642008Y501642D02*
Y503807D01*
X640925Y502724D02*
X643090D01*
X676138Y539811D02*
X678303D01*
X677221Y538728D02*
Y540894D01*
X685338Y570500D02*
X687504D01*
X686421Y569417D02*
Y571583D01*
X647260Y517232D02*
X649425D01*
X648342Y516149D02*
Y518315D01*
X631000Y587917D02*
Y590083D01*
X629917Y589000D02*
X632083D01*
X715531Y443500D02*
X719469D01*
X717500Y441531D02*
Y445468D01*
X721043Y435921D02*
Y451079D01*
X713957Y435921D02*
Y451079D01*
X721043D01*
X713957Y435921D02*
X721043D01*
X648031Y443543D02*
X651969D01*
X650000Y441574D02*
Y445511D01*
X653543Y435964D02*
Y451122D01*
X646457Y435964D02*
Y451122D01*
X653543D01*
X646457Y435964D02*
X653543D01*
X634689Y443382D02*
X638626D01*
X636657Y441413D02*
Y445350D01*
X640201Y435803D02*
Y450960D01*
X633114Y435803D02*
Y450960D01*
X640201D01*
X633114Y435803D02*
X640201D01*
D15*
X106215Y382389D02*
Y413489D01*
X81615Y382389D02*
X106215D01*
X81615D02*
Y413489D01*
X106215D01*
X453250Y567500D02*
X533750D01*
Y538500D02*
Y567500D01*
X453250Y538500D02*
X533750D01*
X453250D02*
Y567500D01*
X445750Y647071D02*
X526250D01*
Y618071D02*
Y647071D01*
X445750Y618071D02*
X526250D01*
X445750D02*
Y647071D01*
X447750Y714500D02*
X528250D01*
Y685500D02*
Y714500D01*
X447750Y685500D02*
X528250D01*
X447750D02*
Y714500D01*
X478181Y429343D02*
X491402D01*
Y430817D01*
Y435183D02*
Y436657D01*
X478181D02*
X491402D01*
X478181Y435183D02*
Y436657D01*
Y429343D02*
Y430817D01*
X474813D02*
X478181D01*
X491402D02*
X494770D01*
Y435183D01*
X491402D02*
X494770D01*
X474813D02*
X478181D01*
X474813Y430817D02*
Y435183D01*
X495187Y413817D02*
Y418183D01*
X491819Y413817D02*
X495187D01*
X475230D02*
X478598D01*
X475230D02*
Y418183D01*
X478598D01*
X491819D02*
X495187D01*
X491819D02*
Y419658D01*
Y412343D02*
Y413817D01*
X478598Y412343D02*
X491819D01*
X478598D02*
Y413817D01*
Y418183D02*
Y419658D01*
X491819D01*
X560159Y444169D02*
X563800D01*
Y445449D01*
X574856D01*
Y444169D02*
Y445449D01*
Y444169D02*
X578497D01*
Y440528D02*
Y444169D01*
Y440528D02*
X579777D01*
Y429472D02*
Y440528D01*
X578497Y429472D02*
X579777D01*
X578497Y425831D02*
Y429472D01*
X574856Y425831D02*
X578497D01*
X574856Y424551D02*
Y425831D01*
X563800Y424551D02*
X574856D01*
X563800D02*
Y425831D01*
X560159D02*
X563800D01*
X560159D02*
Y429472D01*
X558879D02*
X560159D01*
X558879D02*
Y440528D01*
X560159D01*
Y444169D01*
X662000Y321016D02*
Y336484D01*
X649031Y321016D02*
X662000D01*
X649031D02*
Y336484D01*
X662000D01*
X267000Y335484D02*
X279969D01*
X267000Y320016D02*
Y335484D01*
Y320016D02*
X279969D01*
Y335484D01*
X632193Y321531D02*
Y337000D01*
X619224Y321531D02*
X632193D01*
X619224D02*
Y337000D01*
X632193D01*
X589500Y335500D02*
X602468D01*
X589500Y320032D02*
Y335500D01*
Y320032D02*
X602468D01*
Y335500D01*
X330469Y319531D02*
Y335000D01*
X317500Y319531D02*
X330469D01*
X317500D02*
Y335000D01*
X330469D01*
X198031D02*
X211000D01*
X198031Y319531D02*
Y335000D01*
Y319531D02*
X211000D01*
Y335000D01*
X147969Y320032D02*
Y335500D01*
X135000Y320032D02*
X147969D01*
X135000D02*
Y335500D01*
X147969D01*
X88579D02*
X101548D01*
X88579Y320032D02*
Y335500D01*
Y320032D02*
X101548D01*
Y335500D01*
D134*
X609685Y604272D02*
X616772D01*
X609685Y600728D02*
X616772D01*
X609685D02*
Y604272D01*
X616772Y600728D02*
Y604272D01*
X697032Y555071D02*
Y562551D01*
X700969Y555071D02*
Y562551D01*
X697032Y555071D02*
X700969D01*
X697032Y562551D02*
X700969D01*
X691272Y539457D02*
Y546543D01*
X687728Y539457D02*
Y546543D01*
X691272D01*
X687728Y539457D02*
X691272D01*
X604260Y583032D02*
X611740D01*
X604260Y586969D02*
X611740D01*
Y583032D02*
Y586969D01*
X604260Y583032D02*
Y586969D01*
X487217Y441326D02*
X501784D01*
X487217D02*
Y455302D01*
X501784D01*
Y441326D02*
Y455302D01*
X658031Y447740D02*
X661968D01*
X658031Y440260D02*
X661968D01*
Y447740D01*
X658031Y440260D02*
Y447740D01*
X604760Y575032D02*
Y578968D01*
X612240Y575032D02*
Y578968D01*
X604760D02*
X612240D01*
X604760Y575032D02*
X612240D01*
X691748Y414420D02*
X695685D01*
X691748Y406940D02*
X695685D01*
Y414420D01*
X691748Y406940D02*
Y414420D01*
X645748Y493299D02*
Y497236D01*
X638268Y493299D02*
Y497236D01*
Y493299D02*
X645748D01*
X638268Y497236D02*
X645748D01*
X684248Y414420D02*
X688185D01*
X684248Y406940D02*
X688185D01*
Y414420D01*
X684248Y406940D02*
Y414420D01*
X677748D02*
X681685D01*
X677748Y406940D02*
X681685D01*
Y414420D01*
X677748Y406940D02*
Y414420D01*
X707531Y403929D02*
X711468D01*
X707531Y396449D02*
X711468D01*
Y403929D01*
X707531Y396449D02*
Y403929D01*
X635728Y587771D02*
X639272D01*
X635728Y594858D02*
X639272D01*
X635728Y587771D02*
Y594858D01*
X639272Y587771D02*
Y594858D01*
X657969Y513760D02*
Y521240D01*
X654032Y513760D02*
Y521240D01*
X657969D01*
X654032Y513760D02*
X657969D01*
X591524Y638886D02*
X611799D01*
X591524Y659161D02*
X611799D01*
X591524Y638886D02*
Y659161D01*
X611799Y638886D02*
Y659161D01*
X680532Y536260D02*
X684469D01*
X680532Y543740D02*
X684469D01*
X680532Y536260D02*
Y543740D01*
X684469Y536260D02*
Y543740D01*
X607173Y542760D02*
X611110D01*
X607173Y550240D02*
X611110D01*
X607173Y542760D02*
Y550240D01*
X611110Y542760D02*
Y550240D01*
X585957Y617272D02*
Y620815D01*
X593043Y617272D02*
Y620815D01*
X585957D02*
X593043D01*
X585957Y617272D02*
X593043D01*
X589457Y623425D02*
Y626968D01*
X596543Y623425D02*
Y626968D01*
X589457D02*
X596543D01*
X589457Y623425D02*
X596543D01*
X597585Y609074D02*
Y616161D01*
X601128Y609074D02*
Y616161D01*
X597585Y609074D02*
X601128D01*
X597585Y616161D02*
X601128D01*
X603728Y616586D02*
X607271D01*
X603728Y609500D02*
X607271D01*
Y616586D01*
X603728Y609500D02*
Y616586D01*
X626457Y627043D02*
Y630586D01*
X633543Y627043D02*
Y630586D01*
X626457D02*
X633543D01*
X626457Y627043D02*
X633543D01*
X604062Y668728D02*
X611149D01*
X604062Y672271D02*
X611149D01*
Y668728D02*
Y672271D01*
X604062Y668728D02*
Y672271D01*
X648685Y630815D02*
X655772D01*
X648685Y627271D02*
X655772D01*
X648685D02*
Y630815D01*
X655772Y627271D02*
Y630815D01*
X648457Y637043D02*
X655543D01*
X648457Y633500D02*
X655543D01*
X648457D02*
Y637043D01*
X655543Y633500D02*
Y637043D01*
X624469Y653260D02*
Y660740D01*
X620531Y653260D02*
Y660740D01*
X624469D01*
X620531Y653260D02*
X624469D01*
X617469D02*
Y660740D01*
X613531Y653260D02*
Y660740D01*
X617469D01*
X613531Y653260D02*
X617469D01*
X698469Y539260D02*
Y546740D01*
X694532Y539260D02*
Y546740D01*
X698469D01*
X694532Y539260D02*
X698469D01*
X638268Y504693D02*
X645748D01*
X638268Y500756D02*
X645748D01*
X638268D02*
Y504693D01*
X645748Y500756D02*
Y504693D01*
X679189Y536071D02*
Y543551D01*
X675252Y536071D02*
Y543551D01*
X679189D01*
X675252Y536071D02*
X679189D01*
X684453Y566760D02*
Y574240D01*
X688390Y566760D02*
Y574240D01*
X684453Y566760D02*
X688390D01*
X684453Y574240D02*
X688390D01*
X650311Y513492D02*
Y520972D01*
X646374Y513492D02*
Y520972D01*
X650311D01*
X646374Y513492D02*
X650311D01*
X627260Y587031D02*
X634740D01*
X627260Y590968D02*
X634740D01*
Y587031D02*
Y590968D01*
X627260Y587031D02*
Y590968D01*
M02*
