G04*
G04 #@! TF.GenerationSoftware,Altium Limited,Altium Designer,18.1.7 (191)*
G04*
G04 Layer_Color=8421504*
%FSLAX25Y25*%
%MOIN*%
G70*
G01*
G75*
%ADD18R,0.04375X0.02365*%
%ADD19R,0.02165X0.02165*%
%ADD20R,0.02441X0.02441*%
%ADD21R,0.02165X0.02165*%
%ADD22R,0.02756X0.03347*%
%ADD23R,0.02441X0.02441*%
%ADD24R,0.05118X0.02559*%
%ADD25R,0.03543X0.02756*%
%ADD26R,0.00100X0.00100*%
%ADD27R,0.03937X0.09449*%
%ADD28R,0.12992X0.09449*%
%ADD29R,0.03347X0.02756*%
%ADD30R,0.04921X0.01181*%
%ADD31O,0.04921X0.01181*%
%ADD32O,0.01181X0.04921*%
%ADD33O,0.01181X0.03347*%
%ADD34O,0.03347X0.01181*%
%ADD35R,0.08189X0.08189*%
%ADD36R,0.06299X0.03740*%
%ADD37R,0.03937X0.05906*%
%ADD38R,0.03740X0.06299*%
%ADD39R,0.04000X0.09000*%
%ADD40R,0.04000X0.03000*%
G04:AMPARAMS|DCode=41|XSize=35.43mil|YSize=39.37mil|CornerRadius=8.86mil|HoleSize=0mil|Usage=FLASHONLY|Rotation=90.000|XOffset=0mil|YOffset=0mil|HoleType=Round|Shape=RoundedRectangle|*
%AMROUNDEDRECTD41*
21,1,0.03543,0.02165,0,0,90.0*
21,1,0.01772,0.03937,0,0,90.0*
1,1,0.01772,0.01083,0.00886*
1,1,0.01772,0.01083,-0.00886*
1,1,0.01772,-0.01083,-0.00886*
1,1,0.01772,-0.01083,0.00886*
%
%ADD41ROUNDEDRECTD41*%
%ADD42R,0.03937X0.03543*%
%ADD43R,0.03543X0.02953*%
G36*
X573285Y436944D02*
X571828D01*
X571272Y437500D01*
Y438957D01*
X573285D01*
Y436944D01*
D02*
G37*
G36*
X570484Y437500D02*
X569928Y436944D01*
X568728D01*
X568172Y437500D01*
Y438957D01*
X570484D01*
Y437500D01*
D02*
G37*
G36*
X567384D02*
X566827Y436944D01*
X565371D01*
Y438957D01*
X567384D01*
Y437500D01*
D02*
G37*
G36*
X573285Y433844D02*
X571828D01*
X571272Y434401D01*
Y435600D01*
X571828Y436156D01*
X573285D01*
Y433844D01*
D02*
G37*
G36*
X570484Y435600D02*
Y434401D01*
X569928Y433844D01*
X568728D01*
X568172Y434401D01*
Y435600D01*
X568728Y436156D01*
X569928D01*
X570484Y435600D01*
D02*
G37*
G36*
X567384D02*
Y434401D01*
X566827Y433844D01*
X565371D01*
Y436156D01*
X566827D01*
X567384Y435600D01*
D02*
G37*
G36*
X573285Y431043D02*
X571272D01*
Y432500D01*
X571828Y433056D01*
X573285D01*
Y431043D01*
D02*
G37*
G36*
X570484Y432500D02*
Y431043D01*
X568172D01*
Y432500D01*
X568728Y433056D01*
X569928D01*
X570484Y432500D01*
D02*
G37*
G36*
X567384D02*
Y431043D01*
X565371D01*
Y433056D01*
X566827D01*
X567384Y432500D01*
D02*
G37*
D18*
X491583Y433000D02*
D03*
X478000D02*
D03*
X492000Y416000D02*
D03*
X478417D02*
D03*
D19*
X611457Y602500D02*
D03*
X615000D02*
D03*
X587728Y619043D02*
D03*
X591272D02*
D03*
X591228Y625197D02*
D03*
X594772D02*
D03*
X628228Y628815D02*
D03*
X631772D02*
D03*
X609377Y670500D02*
D03*
X605833D02*
D03*
X650457Y629043D02*
D03*
X654000D02*
D03*
X650228Y635271D02*
D03*
X653772D02*
D03*
D20*
X699000Y557000D02*
D03*
Y560622D02*
D03*
X660000Y445811D02*
D03*
Y442189D02*
D03*
X693716Y412491D02*
D03*
Y408869D02*
D03*
X686216Y412491D02*
D03*
Y408869D02*
D03*
X679716Y412491D02*
D03*
Y408869D02*
D03*
X709500Y402000D02*
D03*
Y398378D02*
D03*
X656000Y519311D02*
D03*
Y515689D02*
D03*
X682500Y538189D02*
D03*
Y541811D02*
D03*
X609142Y544689D02*
D03*
Y548311D02*
D03*
X622500Y658811D02*
D03*
Y655189D02*
D03*
X615500Y658811D02*
D03*
Y655189D02*
D03*
X696500Y544811D02*
D03*
Y541189D02*
D03*
X677221Y541622D02*
D03*
Y538000D02*
D03*
X686421Y568689D02*
D03*
Y572311D02*
D03*
X648342Y519043D02*
D03*
Y515421D02*
D03*
D21*
X689500Y544771D02*
D03*
Y541228D02*
D03*
X637500Y589543D02*
D03*
Y593086D02*
D03*
X599356Y610846D02*
D03*
Y614389D02*
D03*
X605500Y614815D02*
D03*
Y611271D02*
D03*
D22*
X611256Y591500D02*
D03*
X605744D02*
D03*
X573363Y463811D02*
D03*
X567851D02*
D03*
X639035Y510767D02*
D03*
X644547D02*
D03*
D23*
X609811Y585000D02*
D03*
X606189D02*
D03*
X606689Y577000D02*
D03*
X610311D02*
D03*
X643819Y495267D02*
D03*
X640197D02*
D03*
Y502724D02*
D03*
X643819D02*
D03*
X632811Y589000D02*
D03*
X629189D02*
D03*
D24*
X498240Y444574D02*
D03*
Y452054D02*
D03*
X490760Y448314D02*
D03*
D25*
X520500Y457905D02*
D03*
Y452000D02*
D03*
D26*
X569328Y435000D02*
D03*
D27*
X674945Y432083D02*
D03*
X684000D02*
D03*
X693055D02*
D03*
D28*
X684000Y454917D02*
D03*
D29*
X700000Y404256D02*
D03*
Y398744D02*
D03*
X708000Y446756D02*
D03*
Y441244D02*
D03*
D30*
X616102Y566165D02*
D03*
D31*
Y564197D02*
D03*
Y562228D02*
D03*
Y560260D02*
D03*
Y558291D02*
D03*
Y556323D02*
D03*
Y554354D02*
D03*
Y552386D02*
D03*
Y550417D02*
D03*
Y548449D02*
D03*
Y546480D02*
D03*
Y544512D02*
D03*
Y542543D02*
D03*
Y540575D02*
D03*
Y538606D02*
D03*
Y536638D02*
D03*
X660000D02*
D03*
Y538606D02*
D03*
Y540575D02*
D03*
Y542543D02*
D03*
Y544512D02*
D03*
Y546480D02*
D03*
Y548449D02*
D03*
Y550417D02*
D03*
Y552386D02*
D03*
Y554354D02*
D03*
Y556323D02*
D03*
Y558291D02*
D03*
Y560260D02*
D03*
Y562228D02*
D03*
Y564197D02*
D03*
Y566165D02*
D03*
D32*
X623287Y529452D02*
D03*
X625256D02*
D03*
X627224D02*
D03*
X629193D02*
D03*
X631161D02*
D03*
X633130D02*
D03*
X635098D02*
D03*
X637067D02*
D03*
X639035D02*
D03*
X641004D02*
D03*
X642972D02*
D03*
X644941D02*
D03*
X646909D02*
D03*
X648878D02*
D03*
X650846D02*
D03*
X652815D02*
D03*
Y573350D02*
D03*
X650846D02*
D03*
X648878D02*
D03*
X646909D02*
D03*
X644941D02*
D03*
X642972D02*
D03*
X641004D02*
D03*
X639035D02*
D03*
X637067D02*
D03*
X635098D02*
D03*
X633130D02*
D03*
X631161D02*
D03*
X629193D02*
D03*
X627224D02*
D03*
X625256D02*
D03*
X623287D02*
D03*
D33*
X597823Y641543D02*
D03*
X600382D02*
D03*
X602941D02*
D03*
X605500D02*
D03*
Y656504D02*
D03*
X602941D02*
D03*
X600382D02*
D03*
X597823D02*
D03*
D34*
X609142Y645185D02*
D03*
Y647744D02*
D03*
Y650303D02*
D03*
Y652862D02*
D03*
X594181D02*
D03*
Y650303D02*
D03*
Y647744D02*
D03*
Y645185D02*
D03*
D35*
X601661Y649023D02*
D03*
D36*
X728000Y448716D02*
D03*
Y438283D02*
D03*
X717500Y448716D02*
D03*
Y438283D02*
D03*
X650000Y448760D02*
D03*
Y438327D02*
D03*
X636657Y448598D02*
D03*
Y438165D02*
D03*
D37*
X628161Y620043D02*
D03*
X619500D02*
D03*
X587280Y667500D02*
D03*
X595941D02*
D03*
D38*
X681783Y594543D02*
D03*
X692216D02*
D03*
X702284Y594543D02*
D03*
X712717D02*
D03*
D39*
X652032Y330984D02*
D03*
X659000Y330984D02*
D03*
X276969Y329984D02*
D03*
X270000Y329984D02*
D03*
X622225Y331500D02*
D03*
X629193Y331500D02*
D03*
X599468Y330001D02*
D03*
X592500Y330000D02*
D03*
X320500Y329500D02*
D03*
X327469Y329500D02*
D03*
X208000D02*
D03*
X201032Y329500D02*
D03*
X138000Y330000D02*
D03*
X144969Y330000D02*
D03*
X98548D02*
D03*
X91579Y330000D02*
D03*
D40*
X652031Y323500D02*
D03*
X659000D02*
D03*
X276968Y322500D02*
D03*
X270000D02*
D03*
X622224Y324016D02*
D03*
X629193D02*
D03*
X599468Y322516D02*
D03*
X592500D02*
D03*
X320500Y322016D02*
D03*
X327469D02*
D03*
X208000D02*
D03*
X201031D02*
D03*
X138000Y322516D02*
D03*
X144969D02*
D03*
X98548D02*
D03*
X91579D02*
D03*
D41*
X682201Y554354D02*
D03*
Y563015D02*
D03*
X688500D02*
D03*
D42*
Y554354D02*
D03*
D43*
X609500Y496343D02*
D03*
Y501658D02*
D03*
X626724Y496366D02*
D03*
Y501681D02*
D03*
X600000Y496343D02*
D03*
Y501658D02*
D03*
X619000Y496523D02*
D03*
Y501838D02*
D03*
X583500Y501500D02*
D03*
Y496185D02*
D03*
X591661Y501657D02*
D03*
Y496343D02*
D03*
M02*
