G04*
G04 #@! TF.GenerationSoftware,Altium Limited,Altium Designer,18.1.7 (191)*
G04*
G04 Layer_Physical_Order=4*
G04 Layer_Color=16711680*
%FSLAX25Y25*%
%MOIN*%
G70*
G01*
G75*
%ADD13C,0.01000*%
%ADD75C,0.06100*%
%ADD77C,0.08800*%
%ADD90C,0.06004*%
%ADD91C,0.10925*%
%ADD92C,0.19311*%
%ADD93C,0.14764*%
%ADD94C,0.06496*%
%ADD95C,0.16831*%
%ADD96C,0.03937*%
%ADD97R,0.03937X0.03937*%
%ADD98C,0.02598*%
%ADD99C,0.14961*%
%ADD100R,0.06299X0.06299*%
%ADD101C,0.06299*%
%ADD102R,0.05512X0.05512*%
%ADD103C,0.05512*%
%ADD104R,0.06496X0.06496*%
%ADD105C,0.05000*%
%ADD132C,0.03000*%
D13*
X248000Y398500D02*
X416000Y398500D01*
X91829Y392500D02*
X212000Y392500D01*
X382457Y493543D02*
X426500Y449500D01*
Y448314D02*
Y449500D01*
X249957Y493543D02*
X382457D01*
X586500Y428500D02*
X589000Y431000D01*
X586500Y384000D02*
Y428500D01*
X596000Y413500D02*
Y433000D01*
Y346000D02*
Y413500D01*
X595500Y345500D02*
X596000Y346000D01*
X595500Y345500D02*
X596000Y345000D01*
X580500Y378000D02*
X586500Y384000D01*
X601661Y419543D02*
Y440882D01*
X601500Y441043D02*
X601661Y440882D01*
X601500Y441043D02*
X614500Y454043D01*
X567500Y316500D02*
X596000Y345000D01*
X364000Y371500D02*
X385543Y393043D01*
X233000Y413500D02*
X248000Y398500D01*
X233500Y450000D02*
X241457Y442043D01*
X397343Y442043D02*
X406433Y432953D01*
X241457Y442043D02*
X397343Y442043D01*
X515500Y408043D02*
X562000Y408043D01*
X515043Y408043D02*
X515500D01*
X500043Y393043D02*
X515043Y408043D01*
X385543Y393043D02*
X500043D01*
X233500Y510000D02*
X249957Y493543D01*
X596645Y517500D02*
X598957D01*
X595892Y516748D02*
X596645Y517500D01*
X581957D02*
X633953Y569496D01*
X581900Y517500D02*
X582000D01*
X581900D02*
X581957D01*
X532543Y468043D02*
X582000Y517500D01*
X633953Y569496D02*
X669500D01*
X586634Y512500D02*
X590500Y516366D01*
X581457Y512500D02*
X586634D01*
X633872Y561543D02*
X668500D01*
X591661Y519333D02*
X633872Y561543D01*
X590500Y516366D02*
Y517500D01*
X580668Y503515D02*
X595892Y516748D01*
X565329Y490183D02*
X580668Y503515D01*
X565329Y467372D02*
Y490183D01*
X546839Y448882D02*
X565329Y467372D01*
X609788Y509788D02*
Y511043D01*
X605500Y505500D02*
X609788Y509788D01*
X618733Y509500D02*
X620000D01*
X614500Y505267D02*
X618733Y509500D01*
X614500Y454072D02*
Y505267D01*
X605500Y466500D02*
Y505500D01*
X582500Y443500D02*
X605500Y466500D01*
X531500Y468043D02*
X532543D01*
X538500Y469543D02*
X581457Y512500D01*
X606329Y516500D02*
X620043D01*
X580000Y490200D02*
X606329Y516529D01*
X580000Y437043D02*
Y490171D01*
X582500Y401143D02*
Y443500D01*
X626776Y509767D02*
X626949D01*
X620043Y516500D02*
X626776Y509767D01*
X582400Y401043D02*
X582500Y401143D01*
X562000Y408043D02*
X573000Y419043D01*
X212000Y392500D02*
X233000Y413500D01*
X562500Y419543D02*
X580000Y437043D01*
X546839Y429543D02*
Y448882D01*
X538500Y460543D02*
Y469543D01*
X668500Y561543D02*
X678000Y571043D01*
Y572043D01*
X589500Y608543D02*
Y611161D01*
Y608043D02*
Y608543D01*
Y611161D02*
X600382Y622043D01*
X642500Y601043D02*
X660689Y582854D01*
X662500D01*
X647500Y601043D02*
X657500Y591043D01*
X660000D01*
D75*
X91829Y402843D02*
D03*
Y393000D02*
D03*
D77*
X520000Y546500D02*
D03*
Y559500D02*
D03*
X467000Y546500D02*
D03*
Y559500D02*
D03*
X512500Y626071D02*
D03*
Y639071D02*
D03*
X459500Y626071D02*
D03*
Y639071D02*
D03*
X514500Y693500D02*
D03*
Y706500D02*
D03*
X461500Y693500D02*
D03*
Y706500D02*
D03*
D90*
X563279Y671736D02*
D03*
Y608587D02*
D03*
X714780Y319205D02*
D03*
Y382354D02*
D03*
X408720Y677709D02*
D03*
Y726291D02*
D03*
X408000Y611709D02*
D03*
Y660291D02*
D03*
X413000Y526500D02*
D03*
Y575083D02*
D03*
D91*
X562000Y651382D02*
D03*
Y628941D02*
D03*
X539559Y651382D02*
D03*
Y628941D02*
D03*
X691059Y339559D02*
D03*
Y362000D02*
D03*
X713500Y339559D02*
D03*
Y362000D02*
D03*
X432441Y702000D02*
D03*
X410000D02*
D03*
X431720Y636000D02*
D03*
X409279D02*
D03*
X436721Y550791D02*
D03*
X414280D02*
D03*
D92*
X217770Y567729D02*
D03*
X143880Y629730D02*
D03*
X121610Y603190D02*
D03*
X195500Y541189D02*
D03*
X328671Y568000D02*
D03*
X254781Y630001D02*
D03*
X232511Y603461D02*
D03*
X306402Y541460D02*
D03*
D93*
X390410Y369079D02*
D03*
X405371D02*
D03*
X420331D02*
D03*
X435292D02*
D03*
X486473D02*
D03*
X501434D02*
D03*
X516394D02*
D03*
X531355D02*
D03*
D94*
X379071Y299000D02*
D03*
X388363D02*
D03*
X456237D02*
D03*
X465528D02*
D03*
X533402D02*
D03*
X542694D02*
D03*
X233000Y353500D02*
D03*
Y413500D02*
D03*
X123000D02*
D03*
X233500Y448500D02*
D03*
Y508500D02*
D03*
X123500D02*
D03*
D95*
X250000Y707000D02*
D03*
X334488D02*
D03*
X311929Y671567D02*
D03*
Y651882D02*
D03*
X272559Y671567D02*
D03*
Y651882D02*
D03*
X121071D02*
D03*
Y671567D02*
D03*
X160441Y651882D02*
D03*
Y671567D02*
D03*
X183000Y707000D02*
D03*
X98512D02*
D03*
D96*
X652500Y601043D02*
D03*
X647500D02*
D03*
X642500D02*
D03*
X637500D02*
D03*
D97*
X632500D02*
D03*
D98*
X599428Y646991D02*
D03*
Y651141D02*
D03*
X603601D02*
D03*
Y646991D02*
D03*
D99*
X687890Y662043D02*
D03*
Y614641D02*
D03*
D100*
X669347Y643263D02*
D03*
D101*
Y633421D02*
D03*
X677221Y643263D02*
D03*
Y633421D02*
D03*
D102*
X648000Y657543D02*
D03*
D103*
X638157D02*
D03*
D104*
X123000Y353500D02*
D03*
X123500Y448500D02*
D03*
D105*
X97500Y592000D02*
D03*
X544000Y550500D02*
D03*
X544500Y533000D02*
D03*
X525500Y532500D02*
D03*
X505000Y533000D02*
D03*
X558000Y725500D02*
D03*
X536500Y726500D02*
D03*
X517000Y727000D02*
D03*
X498500D02*
D03*
X292000Y706500D02*
D03*
X358500Y611500D02*
D03*
X358000Y701500D02*
D03*
Y687000D02*
D03*
Y671000D02*
D03*
Y656500D02*
D03*
Y641000D02*
D03*
Y626500D02*
D03*
X306500Y707500D02*
D03*
X275500Y708000D02*
D03*
X358500Y596500D02*
D03*
X347000Y596000D02*
D03*
X332000D02*
D03*
X315000Y597000D02*
D03*
X299000Y596000D02*
D03*
X272500Y594500D02*
D03*
X259000D02*
D03*
X246000Y595000D02*
D03*
X223500Y620500D02*
D03*
X226000Y638000D02*
D03*
Y654000D02*
D03*
X225500Y668500D02*
D03*
Y682500D02*
D03*
X226000Y700500D02*
D03*
X225500Y713000D02*
D03*
X198500Y669500D02*
D03*
Y683500D02*
D03*
X199000Y697000D02*
D03*
X199500Y711000D02*
D03*
X198500Y655000D02*
D03*
X196686Y639500D02*
D03*
X155000Y716000D02*
D03*
X138500Y716500D02*
D03*
X80000Y715500D02*
D03*
X79500Y700000D02*
D03*
X80000Y688500D02*
D03*
X80400Y672000D02*
D03*
X80000Y656000D02*
D03*
X81000Y639071D02*
D03*
X80500Y625000D02*
D03*
Y609500D02*
D03*
X119500Y716000D02*
D03*
X197000Y623500D02*
D03*
X196711Y608587D02*
D03*
X196710Y593500D02*
D03*
X177509D02*
D03*
X158307D02*
D03*
X139105D02*
D03*
X81500D02*
D03*
X520500Y468500D02*
D03*
X729500Y419000D02*
D03*
X697500Y419500D02*
D03*
X687000Y420000D02*
D03*
X715500Y418000D02*
D03*
X426500Y448314D02*
D03*
X715500Y428500D02*
D03*
X669500Y474500D02*
D03*
X698839Y474000D02*
D03*
X722000Y404369D02*
D03*
X596000Y413500D02*
D03*
Y433000D02*
D03*
X589000Y431000D02*
D03*
X601661Y419543D02*
D03*
X407457Y433000D02*
D03*
X704870Y541000D02*
D03*
X624662Y669500D02*
D03*
X642000Y584496D02*
D03*
X622686Y599000D02*
D03*
X364000Y371500D02*
D03*
X638157Y624500D02*
D03*
X416000Y399000D02*
D03*
X515500Y408500D02*
D03*
X598957Y517500D02*
D03*
X581900D02*
D03*
X590500D02*
D03*
X609788Y511043D02*
D03*
X620000Y509500D02*
D03*
X626949Y509767D02*
D03*
X582400Y401043D02*
D03*
X567500Y316500D02*
D03*
X580500Y378000D02*
D03*
X573000Y419043D02*
D03*
X624662Y582354D02*
D03*
X562500Y419543D02*
D03*
X546839Y429543D02*
D03*
X538500Y460543D02*
D03*
X531500Y468043D02*
D03*
X678000Y572043D02*
D03*
X669500Y569496D02*
D03*
X589500Y608543D02*
D03*
X660000Y591043D02*
D03*
X662500Y582854D02*
D03*
X667000Y539370D02*
D03*
X600382Y622043D02*
D03*
X595500Y632043D02*
D03*
D132*
X520500Y468500D02*
Y493500D01*
X591000Y564000D01*
X722000Y404369D02*
X723000Y405369D01*
X723000Y631500D02*
X723000Y405369D01*
X702000Y652500D02*
X723000Y631500D01*
X591000Y564000D02*
X606308D01*
X624662Y582354D01*
X673000Y652500D02*
X702000D01*
X669347Y648847D02*
X673000Y652500D01*
X669347Y643263D02*
Y648847D01*
M02*
