G04*
G04 #@! TF.GenerationSoftware,Altium Limited,Altium Designer,18.1.7 (191)*
G04*
G04 Layer_Color=255*
%FSLAX25Y25*%
%MOIN*%
G70*
G01*
G75*
%ADD75C,0.06100*%
%ADD77C,0.08800*%
%ADD90C,0.06004*%
%ADD91C,0.10925*%
%ADD92C,0.19311*%
%ADD93C,0.14764*%
%ADD94C,0.06496*%
%ADD95C,0.16831*%
%ADD96C,0.03937*%
%ADD97R,0.03937X0.03937*%
%ADD98C,0.02598*%
%ADD99C,0.14961*%
%ADD100R,0.06299X0.06299*%
%ADD101C,0.06299*%
%ADD102R,0.05512X0.05512*%
%ADD103C,0.05512*%
%ADD104R,0.06496X0.06496*%
D75*
X91829Y402843D02*
D03*
Y393000D02*
D03*
D77*
X520000Y546500D02*
D03*
Y559500D02*
D03*
X467000Y546500D02*
D03*
Y559500D02*
D03*
X512500Y626071D02*
D03*
Y639071D02*
D03*
X459500Y626071D02*
D03*
Y639071D02*
D03*
X514500Y693500D02*
D03*
Y706500D02*
D03*
X461500Y693500D02*
D03*
Y706500D02*
D03*
D90*
X563279Y671736D02*
D03*
Y608587D02*
D03*
X714780Y319205D02*
D03*
Y382354D02*
D03*
X408720Y677709D02*
D03*
Y726291D02*
D03*
X408000Y611709D02*
D03*
Y660291D02*
D03*
X413000Y526500D02*
D03*
Y575083D02*
D03*
D91*
X562000Y651382D02*
D03*
Y628941D02*
D03*
X539559Y651382D02*
D03*
Y628941D02*
D03*
X691059Y339559D02*
D03*
Y362000D02*
D03*
X713500Y339559D02*
D03*
Y362000D02*
D03*
X432441Y702000D02*
D03*
X410000D02*
D03*
X431720Y636000D02*
D03*
X409279D02*
D03*
X436721Y550791D02*
D03*
X414280D02*
D03*
D92*
X217770Y567729D02*
D03*
X143880Y629730D02*
D03*
X121610Y603190D02*
D03*
X195500Y541189D02*
D03*
X328671Y568000D02*
D03*
X254781Y630001D02*
D03*
X232511Y603461D02*
D03*
X306402Y541460D02*
D03*
D93*
X390410Y369079D02*
D03*
X405371D02*
D03*
X420331D02*
D03*
X435292D02*
D03*
X486473D02*
D03*
X501434D02*
D03*
X516394D02*
D03*
X531355D02*
D03*
D94*
X379071Y299000D02*
D03*
X388363D02*
D03*
X456237D02*
D03*
X465528D02*
D03*
X533402D02*
D03*
X542694D02*
D03*
X233000Y353500D02*
D03*
Y413500D02*
D03*
X123000D02*
D03*
X233500Y448500D02*
D03*
Y508500D02*
D03*
X123500D02*
D03*
D95*
X250000Y707000D02*
D03*
X334488D02*
D03*
X311929Y671567D02*
D03*
Y651882D02*
D03*
X272559Y671567D02*
D03*
Y651882D02*
D03*
X121071D02*
D03*
Y671567D02*
D03*
X160441Y651882D02*
D03*
Y671567D02*
D03*
X183000Y707000D02*
D03*
X98512D02*
D03*
D96*
X652500Y601043D02*
D03*
X647500D02*
D03*
X642500D02*
D03*
X637500D02*
D03*
D97*
X632500D02*
D03*
D98*
X599428Y646991D02*
D03*
Y651141D02*
D03*
X603601D02*
D03*
Y646991D02*
D03*
D99*
X687890Y662043D02*
D03*
Y614641D02*
D03*
D100*
X669347Y643263D02*
D03*
D101*
Y633421D02*
D03*
X677221Y643263D02*
D03*
Y633421D02*
D03*
D102*
X648000Y657543D02*
D03*
D103*
X638157D02*
D03*
D104*
X123000Y353500D02*
D03*
X123500Y448500D02*
D03*
M02*
