M48
;Layer_Color=9474304
;FILE_FORMAT=2:5
INCH,LZ
;TYPE=PLATED
T3F00S00C0.02800
;TYPE=NON_PLATED
%
T03
X0632763Y0277
X0646342
X0659921
X06735
X0683921Y02765
X06975
X06995Y02915
Y03075
X0685921
X06755Y0308
X0661921
X0648342
X0634763
X0621184
X0607605
X0594026
X0580447
X055329
X0539711
X0526132
X0524131Y0277
X0537711
X0551289
X0564868
X0578447
X0592026
X0605605
X0619184
X0510553
X0496974
X0483395
X0469816
X0456237
X0442658
X0429079
X04155
X0395353Y0276
X0375853Y0275
X03565Y0276
X0342921
X03325Y02765
X0318921
X0319Y0309
X0334Y030963
X0283Y03095
X02675
X0264605Y02765
X0278184
X0291763
X0305342
X0251026
X0237447
X0223868
X0210289
X0196711
X0183132
X0169553
X01995Y0310654
X02115Y03095
X0147Y0309
X01335
X0105Y03105
X0091329
X0075853Y03045
X00845Y02945
X0095Y0287
X0101658Y02765
X0115237
X0128816
X0142395
X0155974
X0149757Y034
X0139329
X01289
X0117686
X0107257
X0096829
X00864
X00844Y03545
X00835Y0367
X00844Y0379
X0094829
X0105257
X0115686
X0126114
X0136543
X0146971
X0148Y0359
X0146029Y0403131
X01356
X00795Y04066
Y0417029
Y0427457
Y0437886
Y0448314
Y0458743
X0076Y0318
X0118737
X0159474
X0173053
X0186632
X0191471Y034
X0181043
X0170614
X0160186
X02019
X0208926
X0219355
X0229783
X0240212
X0250641
X0261069
X0271498
X0281926
X02914Y0341
X0301829
X0312257
X0308842Y0318
X0295263
X0254526
X0240947
X0227368
X0230761Y03795
X0220332
X0209904
X0199475
X0189047
X0178618
X0168189
X01574Y0379
X0156457Y0403131
X0166886
X0177314
X0187743
X0198171
X02086
X01975Y03595
X026
X0262829Y038
X02524
X0241189Y03795
X0273257Y038
X0283686
X0294114
X0304543
X0298413Y036
X0297386Y04035
X0307814
X0286957
X0276529
X02661
X0318243
X0328671
X03391
X03505Y0403782
X036051
X03655Y0415143
Y0424143
Y0434571
Y0445
Y0455429
Y0465857
X0357971Y03795
X0347543
X03385Y038
X03254
X0314971
X0338Y03585
X0333114Y0341
X0322686
X0343543
X0353971
X03644
X0364014Y0353
Y03625
X038Y03345
X03795Y03195
X03625Y03175
X0346421
X04705Y0337
X0483
X04975
X0511Y03365
X0525Y0336
X0526Y0322
X05515Y0336
X05605Y03355
X0569Y0336
X05824Y0335
X0592329Y0346
X0602757
X0607Y0336
X06135
X0612257Y0379
X0601829
X05914
X05669Y03785
X0556471
X0546043
X0549Y0367
X05495Y0358
X055Y03465
X047Y03535
Y03665
Y03835
X0622686Y0379
X0633114
X0643543
X0653971
X06644
X06775Y03775
X0677Y03655
X06775Y03535
X0674Y0335
X06665
X0647917Y03375
X0638157
X06925Y0383
X0669939Y0558043
X0602941Y0557543
X03655Y05535
X0355071
X0344643
X0334214
X03224Y0554
X03223Y05095
X0332729
X0343157
X0353586
X0364014
X03655Y05205
X0366Y0533754
Y0543254
X03634Y0488
X0352971
X0342543
X0332114
X0321686
X03655Y0476286
X0311257Y0488
X0300828
X02904
X0276Y04875
X0277686Y0509189
X0267257
X0256829
X02464
X0214032Y0511689
X0203603
X0193174
X0182746
X0172317
X0161889
X01584Y0488
X01689
X0179329
X0189757
X0200186
X0210614
X0221043
X0231471
X0227971Y05545
X0217543
X0207114
X0196686
X0186257
X0175829
X01654
X02384
X02494Y0554
X0259829
X0270257
X0280686
X0291114
X0301543
X0311971
X0311871Y05095
X0301443
X0291014
X015146Y0511689
X0141032
X0115214Y0511
X0104786
X0094357
X0083929
X00825Y05225
X0081Y05355
X00804Y0546
X0081Y0558756
X0091329Y05545
X0101757
X0112186
X0122614
X0133043
X0143471
X01539
X0147971Y0488
X0137543
X0127114
X0116686
X0106257
X0095829
X00854
X00795Y04796
Y0469171
M30
