M48
;Layer_Color=9474304
;FILE_FORMAT=2:5
INCH,LZ
;TYPE=PLATED
T1F00S00C0.01201
T2F00S00C0.02362
T3F00S00C0.02800
T4F00S00C0.03622
T5F00S00C0.03937
T6F00S00C0.04100
T7F00S00C0.04331
T8F00S00C0.06800
T9F00S00C0.07283
T10F00S00C0.09055
T11F00S00C0.09843
T12F00S00C0.11220
T13F00S00C0.12000
T14F00S00C0.12874
;TYPE=NON_PLATED
T15F00S00C0.12008
%
T01
X0599428Y0646991
Y0651141
X0603601
Y0646991
T02
X06325Y0601043
X06375
X06425
X06475
X06525
X0648Y0657543
X0638157
T03
X03805Y03535
X0364Y03715
X03915Y03835
X04075Y0384
X04235Y03835
X044
X0457
X0416Y0399
X0407457Y0433
X04265Y0448314
X05205Y04685
X05315Y0468043
X05385Y0460543
X0546839Y0429543
X05625Y0419543
X0573Y0419043
X05824Y0401043
X05805Y0378
X0596Y04135
X0601661Y0419543
X0596Y0433
X0589Y0431
X05155Y04085
X05675Y03165
X0687Y042
X06975Y04195
X07155Y0418
Y04285
X07295Y0419
X0722Y0404369
X0698839Y0474
X06695Y04745
X0667Y053937
X06695Y0569496
X0678Y0572043
X06625Y0582854
X066Y0591043
X0642Y0584496
X0638157Y06245
X0626949Y0509767
X070487Y0541
X062Y05095
X0609788Y0511043
X0598957Y05175
X05905
X05819
X0568Y053187
X05445Y0533
X0544Y05505
X05675Y05575
X0567Y0578
X05895Y0608543
X0600382Y0622043
X0622686Y0599
X0624662Y0582354
X04945Y0593
X0505Y0533
X05255Y05325
X03585Y05965
X0347Y0596
X0332
X0315Y0597
X03585Y06115
X0299Y0596
X02725Y05945
X0259
X02245Y0592
X0200186Y05935
X02005Y0608587
X02015Y06235
X0223868Y0621
X0177509Y05935
X0158307
X0139105
X00975Y0592
X00815Y05935
X00805Y06095
Y0625
X0081Y0639071
X008Y0656
X00804Y0672
X008Y06885
X00795Y07
X008Y07155
X01195Y0716
X01385Y07165
X0155Y0716
X0203Y07115
X02025Y0697
Y0683
X02015Y06695
Y0655315
X0201Y06395
X0226Y0638
Y0654
X02255Y06685
Y06825
X0226Y07005
X02255Y0713
X02755Y0708
X0292Y07065
X03065Y07075
X0358Y07015
Y0687
Y0671
Y06565
Y0641
Y06265
X0495Y06685
X04985Y0727
X0517
X05365Y07265
X0558Y07255
X056Y0711
X05605Y0693933
X0624662Y06695
X05955Y0632043
T04
X0669347Y0633421
X0677221
Y0643263
X0669347
T05
X0123Y03535
Y04135
X01235Y04485
X02335
X0233Y04135
Y03535
X02335Y05085
X01235
T06
X0091829Y0393
Y0402843
T07
X0533402Y0299
X0542694
X0465528
X0456237
X0388363
X0379071
T08
X052Y05465
Y05595
X0467
Y05465
X04595Y0626071
Y0639071
X04615Y06935
Y07065
X05145
Y06935
X05125Y0639071
Y0626071
T09
X0691059Y0339559
X07135
Y0362
X0691059
X0436721Y0550791
X041428
X0409279Y0636
X043172
X0432441Y0702
X041
X0539559Y0651382
Y0628941
X0562
Y0651382
T10
X068789Y0614641
Y0662043
T11
X039041Y0369079
X0405371
X0420331
X0435292
X0486473
X0501434
X0516394
X0531355
T12
X012313Y0655315
Y0675
X0100571Y0710433
X0185059
X01625Y0675
Y0655315
X0272559Y0651882
Y0671567
X0311929
Y0651882
X025Y0707
X0334488
T13
X07255Y02765
X008Y02755
X0079Y07335
X0724
T14
X033289Y0564999
X031062Y0538459
X01955Y0541189
X021777Y0567729
X023673Y060046
X012161Y060319
X014388Y062973
X0259Y0627
T15
X071478Y0319205
Y0382354
X0563279Y0608587
X0408Y0611709
X0413Y0575083
Y05265
X0408Y0660291
X040872Y0677709
Y0726291
X0563279Y0671736
M30
