G04 #@! TF.GenerationSoftware,KiCad,Pcbnew,(5.1.10)-1*
G04 #@! TF.CreationDate,2021-06-08T20:52:53+03:00*
G04 #@! TF.ProjectId,ScienceBoard-1,53636965-6e63-4654-926f-6172642d312e,rev?*
G04 #@! TF.SameCoordinates,Original*
G04 #@! TF.FileFunction,Legend,Bot*
G04 #@! TF.FilePolarity,Positive*
%FSLAX46Y46*%
G04 Gerber Fmt 4.6, Leading zero omitted, Abs format (unit mm)*
G04 Created by KiCad (PCBNEW (5.1.10)-1) date 2021-06-08 20:52:53*
%MOMM*%
%LPD*%
G01*
G04 APERTURE LIST*
%ADD10C,0.150000*%
G04 APERTURE END LIST*
D10*
X169516380Y-49871333D02*
X169040190Y-49538000D01*
X169516380Y-49299904D02*
X168516380Y-49299904D01*
X168516380Y-49680857D01*
X168564000Y-49776095D01*
X168611619Y-49823714D01*
X168706857Y-49871333D01*
X168849714Y-49871333D01*
X168944952Y-49823714D01*
X168992571Y-49776095D01*
X169040190Y-49680857D01*
X169040190Y-49299904D01*
X169516380Y-50347523D02*
X169516380Y-50538000D01*
X169468761Y-50633238D01*
X169421142Y-50680857D01*
X169278285Y-50776095D01*
X169087809Y-50823714D01*
X168706857Y-50823714D01*
X168611619Y-50776095D01*
X168564000Y-50728476D01*
X168516380Y-50633238D01*
X168516380Y-50442761D01*
X168564000Y-50347523D01*
X168611619Y-50299904D01*
X168706857Y-50252285D01*
X168944952Y-50252285D01*
X169040190Y-50299904D01*
X169087809Y-50347523D01*
X169135428Y-50442761D01*
X169135428Y-50633238D01*
X169087809Y-50728476D01*
X169040190Y-50776095D01*
X168944952Y-50823714D01*
X93837857Y-91230380D02*
X94171190Y-90754190D01*
X94409285Y-91230380D02*
X94409285Y-90230380D01*
X94028333Y-90230380D01*
X93933095Y-90278000D01*
X93885476Y-90325619D01*
X93837857Y-90420857D01*
X93837857Y-90563714D01*
X93885476Y-90658952D01*
X93933095Y-90706571D01*
X94028333Y-90754190D01*
X94409285Y-90754190D01*
X92885476Y-91230380D02*
X93456904Y-91230380D01*
X93171190Y-91230380D02*
X93171190Y-90230380D01*
X93266428Y-90373238D01*
X93361666Y-90468476D01*
X93456904Y-90516095D01*
X92552142Y-90230380D02*
X91933095Y-90230380D01*
X92266428Y-90611333D01*
X92123571Y-90611333D01*
X92028333Y-90658952D01*
X91980714Y-90706571D01*
X91933095Y-90801809D01*
X91933095Y-91039904D01*
X91980714Y-91135142D01*
X92028333Y-91182761D01*
X92123571Y-91230380D01*
X92409285Y-91230380D01*
X92504523Y-91182761D01*
X92552142Y-91135142D01*
M02*
