M48
; DRILL file {KiCad (5.1.10)-1} date 06/08/21 20:52:31
; FORMAT={-:-/ absolute / inch / decimal}
; #@! TF.CreationDate,2021-06-08T20:52:31+03:00
; #@! TF.GenerationSoftware,Kicad,Pcbnew,(5.1.10)-1
; #@! TF.FileFunction,Plated,1,4,PTH
FMAT,2
INCH
T1C0.0098
T2C0.0157
T3C0.0200
T4C0.0315
T5C0.0394
T6C0.0400
T7C0.0433
T8C0.0472
T9C0.0591
T10C0.0709
T11C0.0740
T12C0.0984
%
G90
G05
T1
X6.76Y-2.64
X6.7909Y-2.57
X6.7909Y-2.65
X6.95Y-2.65
X7.02Y-2.62
X7.24Y-2.65
X7.25Y-2.62
X7.27Y-2.57
X7.27Y-2.65
X7.27Y-2.99
X7.3Y-2.62
X7.35Y-3.0
X7.38Y-2.65
T2
X2.38Y-2.31
X2.47Y-2.17
X4.03Y-2.47
X4.4Y-1.9
X4.4Y-2.54
X4.41Y-1.99
X4.55Y-2.38
X5.03Y-2.05
X5.07Y-2.83
X5.09Y-3.27
X5.11Y-1.92
X5.11Y-2.73
X5.12Y-2.18
X5.15Y-1.88
X5.17Y-3.37
X5.18Y-2.51
X5.2Y-1.92
X5.22Y-3.18
X5.23Y-2.67
X5.24Y-3.0
X5.2493Y-2.2707
X5.25Y-2.52
X5.25Y-2.62
X5.37Y-1.92
X5.4Y-3.37
X5.43Y-3.07
X5.48Y-3.18
X5.56Y-3.21
X5.575Y-3.475
X5.67Y-3.47
X5.84Y-3.1
X5.87Y-1.82
X5.97Y-2.71
X5.97Y-2.81
X6.01Y-1.92
X6.01Y-2.02
X6.01Y-2.14
X6.11Y-1.88
X6.17Y-3.4
X6.23Y-2.85
X6.25Y-3.4
X6.25Y-3.4
X6.38Y-1.8
X6.39Y-2.92
X6.45Y-1.84
X6.6Y-3.1
X6.61Y-1.81
X6.61Y-1.88
X6.61Y-2.16
X6.69Y-2.3
X6.73Y-2.52
X6.75Y-2.78
X6.75Y-2.82
X6.75Y-2.86
X6.77Y-3.04
X6.79Y-2.78
X6.79Y-2.82
X6.79Y-2.86
X6.83Y-2.49
X6.83Y-2.78
X6.83Y-2.82
X6.83Y-2.86
X6.87Y-2.78
X6.87Y-2.82
X6.87Y-2.86
X6.87Y-3.1
X6.89Y-2.53
X6.91Y-2.78
X6.91Y-2.82
X6.91Y-2.86
X6.97Y-2.78
X6.97Y-2.82
X6.97Y-2.86
X6.97Y-3.08
X6.97Y-3.14
X6.98Y-2.54
X7.0Y-3.03
X7.01Y-2.78
X7.01Y-2.82
X7.01Y-2.86
X7.05Y-2.78
X7.05Y-2.82
X7.05Y-2.86
X7.06Y-3.18
X7.09Y-2.78
X7.09Y-2.82
X7.09Y-2.86
X7.13Y-2.78
X7.13Y-2.82
X7.13Y-2.86
X7.17Y-2.51
X7.17Y-2.78
X7.17Y-2.82
X7.17Y-2.86
X7.23Y-2.78
X7.23Y-2.82
X7.23Y-2.86
X7.27Y-2.78
X7.27Y-2.82
X7.27Y-2.86
X7.31Y-2.49
X7.31Y-2.78
X7.31Y-2.82
X7.31Y-2.86
X7.35Y-2.78
X7.35Y-2.82
X7.35Y-2.86
X7.39Y-2.78
X7.39Y-2.82
X7.39Y-2.86
X7.46Y-2.4859
T3
X2.56Y-1.7
X4.23Y-1.7
T4
X4.78Y-2.45
X4.9769Y-2.45
T5
X3.4819Y-3.18
X3.4819Y-3.2981
X3.4819Y-3.4162
X3.6Y-3.18
X3.6Y-3.2981
X3.6Y-3.4162
T6
X4.6489Y-1.7315
X4.7489Y-1.7315
X4.8489Y-1.7315
X4.9489Y-1.7315
X5.0089Y-3.6315
X5.0489Y-1.7315
X5.1089Y-3.6315
X5.1489Y-1.7315
X5.2089Y-3.6315
X5.2489Y-1.7315
X5.3089Y-3.6315
X5.3489Y-1.7315
X5.4089Y-3.6315
X5.4489Y-1.7315
X5.5089Y-3.6315
X5.5489Y-1.7315
X5.6089Y-3.6315
X5.7089Y-1.7315
X5.7089Y-3.6315
X5.8089Y-1.7315
X5.9089Y-1.7315
X5.9089Y-3.6315
X6.0089Y-1.7315
X6.0089Y-3.6315
X6.1089Y-1.7315
X6.1089Y-3.6315
X6.2089Y-1.7315
X6.2089Y-3.6315
X6.3089Y-1.7315
X6.3089Y-3.6315
X6.4089Y-1.7315
X6.4089Y-3.6315
X6.4139Y-2.5315
X6.4139Y-2.6315
X6.4139Y-2.7315
X6.5089Y-3.6315
X6.5139Y-2.5315
X6.5139Y-2.6315
X6.5139Y-2.7315
X6.6089Y-1.7315
X6.6089Y-3.6315
X6.7089Y-1.7315
X6.8089Y-1.7315
X6.8089Y-3.6315
X6.9089Y-1.7315
X6.9089Y-3.6315
X7.0089Y-1.7315
X7.0089Y-3.6315
X7.1089Y-1.7315
X7.1089Y-3.6315
X7.2089Y-1.7315
X7.2089Y-3.6315
X7.3089Y-1.7315
X7.3089Y-3.6315
X7.4089Y-3.6315
X7.5089Y-3.6315
X7.6089Y-1.7315
X7.6089Y-1.8315
X7.6089Y-1.9315
X7.6089Y-2.0315
X7.6089Y-2.1315
X7.6089Y-2.2315
X7.6089Y-2.3315
X7.6089Y-2.4315
X7.6089Y-2.5315
X7.6089Y-2.6315
X7.6089Y-2.7315
X7.6089Y-2.8315
X7.6089Y-2.9315
X7.6089Y-3.0315
X7.6089Y-3.1315
X7.6089Y-3.2315
X7.6089Y-3.3315
X7.6089Y-3.4315
X7.7089Y-1.7315
X7.7089Y-1.8315
X7.7089Y-1.9315
X7.7089Y-2.0315
X7.7089Y-2.1315
X7.7089Y-2.2315
X7.7089Y-2.3315
X7.7089Y-2.4315
X7.7089Y-2.5315
X7.7089Y-2.6315
X7.7089Y-2.7315
X7.7089Y-2.8315
X7.7089Y-2.9315
X7.7089Y-3.0315
X7.7089Y-3.1315
X7.7089Y-3.2315
X7.7089Y-3.3315
X7.7089Y-3.4315
T7
X2.988Y-2.856
X3.3896Y-2.856
T8
X3.85Y-1.96
X3.95Y-1.96
X4.4Y-3.17
X4.4Y-3.27
X4.42Y-2.89
X4.52Y-2.89
X4.7007Y-2.89
X4.8007Y-2.89
X6.15Y-2.4
X6.15Y-2.5
X6.69Y-3.37
X6.73Y-1.98
X6.79Y-3.37
X6.83Y-1.98
X6.89Y-3.37
X6.93Y-1.98
X6.99Y-3.37
X7.03Y-1.98
X7.13Y-1.98
X7.14Y-3.37
X7.23Y-1.98
X7.24Y-3.37
X7.33Y-1.98
X7.34Y-3.37
X7.43Y-1.98
X7.44Y-3.37
T9
X3.18Y-3.1409
X3.18Y-3.3554
X3.18Y-3.57
T10
X2.28Y-3.35
X2.5044Y-3.35
T11
X2.2Y-1.72
X2.2Y-3.63
X7.82Y-2.33
X7.82Y-3.56
T12
X2.8384Y-2.2536
X3.5392Y-2.352
T0
M30
