G04 #@! TF.GenerationSoftware,KiCad,Pcbnew,(5.1.10)-1*
G04 #@! TF.CreationDate,2021-06-08T20:52:53+03:00*
G04 #@! TF.ProjectId,ScienceBoard-1,53636965-6e63-4654-926f-6172642d312e,rev?*
G04 #@! TF.SameCoordinates,Original*
G04 #@! TF.FileFunction,Copper,L3,Inr*
G04 #@! TF.FilePolarity,Positive*
%FSLAX46Y46*%
G04 Gerber Fmt 4.6, Leading zero omitted, Abs format (unit mm)*
G04 Created by KiCad (PCBNEW (5.1.10)-1) date 2021-06-08 20:52:53*
%MOMM*%
%LPD*%
G01*
G04 APERTURE LIST*
G04 #@! TA.AperFunction,ComponentPad*
%ADD10C,1.500000*%
G04 #@! TD*
G04 #@! TA.AperFunction,ComponentPad*
%ADD11C,3.700000*%
G04 #@! TD*
G04 #@! TA.AperFunction,ComponentPad*
%ADD12O,1.727200X1.727200*%
G04 #@! TD*
G04 #@! TA.AperFunction,ComponentPad*
%ADD13O,1.740000X2.200000*%
G04 #@! TD*
G04 #@! TA.AperFunction,ComponentPad*
%ADD14O,2.200000X1.740000*%
G04 #@! TD*
G04 #@! TA.AperFunction,ComponentPad*
%ADD15O,4.500000X2.500000*%
G04 #@! TD*
G04 #@! TA.AperFunction,ComponentPad*
%ADD16R,4.500000X2.500000*%
G04 #@! TD*
G04 #@! TA.AperFunction,ComponentPad*
%ADD17C,1.200000*%
G04 #@! TD*
G04 #@! TA.AperFunction,ComponentPad*
%ADD18C,2.600000*%
G04 #@! TD*
G04 #@! TA.AperFunction,ComponentPad*
%ADD19C,1.600000*%
G04 #@! TD*
G04 #@! TA.AperFunction,ViaPad*
%ADD20C,1.905000*%
G04 #@! TD*
G04 #@! TA.AperFunction,ViaPad*
%ADD21C,0.800000*%
G04 #@! TD*
G04 #@! TA.AperFunction,ViaPad*
%ADD22C,0.500000*%
G04 #@! TD*
G04 #@! TA.AperFunction,ViaPad*
%ADD23C,1.016000*%
G04 #@! TD*
G04 APERTURE END LIST*
D10*
X88440000Y-86772000D03*
X88440000Y-83772000D03*
X88440000Y-80772000D03*
X91440000Y-86772000D03*
X91440000Y-83772000D03*
G04 #@! TA.AperFunction,ComponentPad*
G36*
G01*
X90940000Y-80022000D02*
X91940000Y-80022000D01*
G75*
G02*
X92190000Y-80272000I0J-250000D01*
G01*
X92190000Y-81272000D01*
G75*
G02*
X91940000Y-81522000I-250000J0D01*
G01*
X90940000Y-81522000D01*
G75*
G02*
X90690000Y-81272000I0J250000D01*
G01*
X90690000Y-80272000D01*
G75*
G02*
X90940000Y-80022000I250000J0D01*
G01*
G37*
G04 #@! TD.AperFunction*
D11*
X63612000Y-85090000D03*
G04 #@! TA.AperFunction,ComponentPad*
G36*
G01*
X59512000Y-86940000D02*
X56312000Y-86940000D01*
G75*
G02*
X56062000Y-86690000I0J250000D01*
G01*
X56062000Y-83490000D01*
G75*
G02*
X56312000Y-83240000I250000J0D01*
G01*
X59512000Y-83240000D01*
G75*
G02*
X59762000Y-83490000I0J-250000D01*
G01*
X59762000Y-86690000D01*
G75*
G02*
X59512000Y-86940000I-250000J0D01*
G01*
G37*
G04 #@! TD.AperFunction*
D12*
X162912000Y-64300000D03*
X195805000Y-87160000D03*
X193265000Y-87160000D03*
X195805000Y-84620000D03*
X193265000Y-84620000D03*
X195805000Y-82080000D03*
X193265000Y-82080000D03*
X195805000Y-79540000D03*
X193265000Y-79540000D03*
X195805000Y-77000000D03*
X193265000Y-77000000D03*
X195805000Y-74460000D03*
X193265000Y-74460000D03*
X195805000Y-71920000D03*
X193265000Y-71920000D03*
X195805000Y-69380000D03*
X193265000Y-69380000D03*
X195805000Y-66840000D03*
X193265000Y-66840000D03*
X195805000Y-64300000D03*
X193265000Y-64300000D03*
X195805000Y-61760000D03*
X193265000Y-61760000D03*
X195805000Y-59220000D03*
X193265000Y-59220000D03*
X195805000Y-56680000D03*
X193265000Y-56680000D03*
X195805000Y-54140000D03*
X193265000Y-54140000D03*
X195805000Y-51600000D03*
X193265000Y-51600000D03*
X195805000Y-49060000D03*
X193265000Y-49060000D03*
X195805000Y-46520000D03*
X193265000Y-46520000D03*
X195805000Y-43980000D03*
X193265000Y-43980000D03*
X190725000Y-92240000D03*
X188185000Y-92240000D03*
X185645000Y-92240000D03*
X183105000Y-92240000D03*
X180565000Y-92240000D03*
X178025000Y-92240000D03*
X175485000Y-92240000D03*
X172945000Y-92240000D03*
X167865000Y-92240000D03*
X165325000Y-92240000D03*
X162785000Y-92240000D03*
X160245000Y-92240000D03*
X157705000Y-92240000D03*
X155165000Y-92240000D03*
X152625000Y-92240000D03*
X127225000Y-92240000D03*
X133321000Y-43980000D03*
X130781000Y-43980000D03*
X128241000Y-43980000D03*
X123161000Y-43980000D03*
X120621000Y-43980000D03*
X118081000Y-43980000D03*
X135861000Y-43980000D03*
X138401000Y-43980000D03*
X140941000Y-43980000D03*
X125701000Y-43980000D03*
X145005000Y-43980000D03*
X147545000Y-43980000D03*
X150085000Y-43980000D03*
X152625000Y-43980000D03*
X155165000Y-43980000D03*
X157705000Y-43980000D03*
X160245000Y-43980000D03*
X162785000Y-43980000D03*
X167865000Y-43980000D03*
X170405000Y-43980000D03*
X172945000Y-43980000D03*
X175485000Y-43980000D03*
X178025000Y-43980000D03*
X180565000Y-43980000D03*
X183105000Y-43980000D03*
X185645000Y-43980000D03*
X129765000Y-92240000D03*
X132305000Y-92240000D03*
X134845000Y-92240000D03*
X137385000Y-92240000D03*
X139925000Y-92240000D03*
X142465000Y-92240000D03*
X145005000Y-92240000D03*
X150085000Y-92240000D03*
X165452000Y-64300000D03*
X162912000Y-66840000D03*
X165452000Y-66840000D03*
X165452000Y-69380000D03*
X162912000Y-69380000D03*
D13*
X121938000Y-73406000D03*
G04 #@! TA.AperFunction,ComponentPad*
G36*
G01*
X118528000Y-74256001D02*
X118528000Y-72555999D01*
G75*
G02*
X118777999Y-72306000I249999J0D01*
G01*
X120018001Y-72306000D01*
G75*
G02*
X120268000Y-72555999I0J-249999D01*
G01*
X120268000Y-74256001D01*
G75*
G02*
X120018001Y-74506000I-249999J0D01*
G01*
X118777999Y-74506000D01*
G75*
G02*
X118528000Y-74256001I0J249999D01*
G01*
G37*
G04 #@! TD.AperFunction*
X114808000Y-73406000D03*
G04 #@! TA.AperFunction,ComponentPad*
G36*
G01*
X111398000Y-74256001D02*
X111398000Y-72555999D01*
G75*
G02*
X111647999Y-72306000I249999J0D01*
G01*
X112888001Y-72306000D01*
G75*
G02*
X113138000Y-72555999I0J-249999D01*
G01*
X113138000Y-74256001D01*
G75*
G02*
X112888001Y-74506000I-249999J0D01*
G01*
X111647999Y-74506000D01*
G75*
G02*
X111398000Y-74256001I0J249999D01*
G01*
G37*
G04 #@! TD.AperFunction*
D14*
X111760000Y-83058000D03*
G04 #@! TA.AperFunction,ComponentPad*
G36*
G01*
X110909999Y-79648000D02*
X112610001Y-79648000D01*
G75*
G02*
X112860000Y-79897999I0J-249999D01*
G01*
X112860000Y-81138001D01*
G75*
G02*
X112610001Y-81388000I-249999J0D01*
G01*
X110909999Y-81388000D01*
G75*
G02*
X110660000Y-81138001I0J249999D01*
G01*
X110660000Y-79897999D01*
G75*
G02*
X110909999Y-79648000I249999J0D01*
G01*
G37*
G04 #@! TD.AperFunction*
D13*
X100330000Y-49784000D03*
G04 #@! TA.AperFunction,ComponentPad*
G36*
G01*
X96920000Y-50634001D02*
X96920000Y-48933999D01*
G75*
G02*
X97169999Y-48684000I249999J0D01*
G01*
X98410001Y-48684000D01*
G75*
G02*
X98660000Y-48933999I0J-249999D01*
G01*
X98660000Y-50634001D01*
G75*
G02*
X98410001Y-50884000I-249999J0D01*
G01*
X97169999Y-50884000D01*
G75*
G02*
X96920000Y-50634001I0J249999D01*
G01*
G37*
G04 #@! TD.AperFunction*
D15*
X80772000Y-79778000D03*
X80772000Y-85228000D03*
D16*
X80772000Y-90678000D03*
D17*
X75896000Y-72542000D03*
D18*
X89896000Y-59742000D03*
X72096000Y-57242000D03*
D17*
X86096000Y-72542000D03*
D14*
X156210000Y-60960000D03*
G04 #@! TA.AperFunction,ComponentPad*
G36*
G01*
X157060001Y-64370000D02*
X155359999Y-64370000D01*
G75*
G02*
X155110000Y-64120001I0J249999D01*
G01*
X155110000Y-62879999D01*
G75*
G02*
X155359999Y-62630000I249999J0D01*
G01*
X157060001Y-62630000D01*
G75*
G02*
X157310000Y-62879999I0J-249999D01*
G01*
X157310000Y-64120001D01*
G75*
G02*
X157060001Y-64370000I-249999J0D01*
G01*
G37*
G04 #@! TD.AperFunction*
D13*
X181356000Y-85598000D03*
X183896000Y-85598000D03*
X186436000Y-85598000D03*
G04 #@! TA.AperFunction,ComponentPad*
G36*
G01*
X189846000Y-84747999D02*
X189846000Y-86448001D01*
G75*
G02*
X189596001Y-86698000I-249999J0D01*
G01*
X188355999Y-86698000D01*
G75*
G02*
X188106000Y-86448001I0J249999D01*
G01*
X188106000Y-84747999D01*
G75*
G02*
X188355999Y-84498000I249999J0D01*
G01*
X189596001Y-84498000D01*
G75*
G02*
X189846000Y-84747999I0J-249999D01*
G01*
G37*
G04 #@! TD.AperFunction*
X169926000Y-85598000D03*
X172466000Y-85598000D03*
X175006000Y-85598000D03*
G04 #@! TA.AperFunction,ComponentPad*
G36*
G01*
X178416000Y-84747999D02*
X178416000Y-86448001D01*
G75*
G02*
X178166001Y-86698000I-249999J0D01*
G01*
X176925999Y-86698000D01*
G75*
G02*
X176676000Y-86448001I0J249999D01*
G01*
X176676000Y-84747999D01*
G75*
G02*
X176925999Y-84498000I249999J0D01*
G01*
X178166001Y-84498000D01*
G75*
G02*
X178416000Y-84747999I0J-249999D01*
G01*
G37*
G04 #@! TD.AperFunction*
X170942000Y-50292000D03*
X173482000Y-50292000D03*
X176022000Y-50292000D03*
X178562000Y-50292000D03*
X181102000Y-50292000D03*
X183642000Y-50292000D03*
X186182000Y-50292000D03*
G04 #@! TA.AperFunction,ComponentPad*
G36*
G01*
X189592000Y-49441999D02*
X189592000Y-51142001D01*
G75*
G02*
X189342001Y-51392000I-249999J0D01*
G01*
X188101999Y-51392000D01*
G75*
G02*
X187852000Y-51142001I0J249999D01*
G01*
X187852000Y-49441999D01*
G75*
G02*
X188101999Y-49192000I249999J0D01*
G01*
X189342001Y-49192000D01*
G75*
G02*
X189592000Y-49441999I0J-249999D01*
G01*
G37*
G04 #@! TD.AperFunction*
D19*
X126412000Y-62230000D03*
X121412000Y-62230000D03*
D20*
X55880000Y-92202000D03*
X55880000Y-43688000D03*
X198628000Y-59182000D03*
X198628000Y-90424000D03*
D21*
X60452000Y-58674000D03*
X169926000Y-58420000D03*
X129286000Y-83058000D03*
D22*
X184658000Y-75946000D03*
X186690000Y-76200000D03*
D21*
X112014000Y-50546000D03*
X182118000Y-63754000D03*
X170942000Y-64008000D03*
X133350000Y-64008000D03*
X148336000Y-78740000D03*
X137922000Y-77978000D03*
X179324000Y-80772000D03*
X127762000Y-52070000D03*
X167640000Y-78740000D03*
X111760000Y-64516000D03*
X102362000Y-62738000D03*
X171450000Y-72644000D03*
X171450000Y-71628000D03*
X171450000Y-70612000D03*
X172466000Y-70612000D03*
X172466000Y-71628000D03*
X172466000Y-72644000D03*
X173482000Y-72644000D03*
X173482000Y-71628000D03*
X173482000Y-70612000D03*
X174498000Y-70612000D03*
X174498000Y-71628000D03*
X174498000Y-72644000D03*
X175514000Y-72644000D03*
X175514000Y-71628000D03*
X175514000Y-70612000D03*
X183642000Y-70612000D03*
X184658000Y-70612000D03*
X185674000Y-70612000D03*
X186690000Y-70612000D03*
X187706000Y-70612000D03*
X187706000Y-71628000D03*
X186690000Y-71628000D03*
X185674000Y-71628000D03*
X184658000Y-71628000D03*
X183642000Y-71628000D03*
X183642000Y-72644000D03*
X184658000Y-72644000D03*
X185674000Y-72644000D03*
X186690000Y-72644000D03*
X187706000Y-72644000D03*
D22*
X171704000Y-67056000D03*
X183896000Y-67310000D03*
D21*
X177292000Y-64516000D03*
X173482000Y-63246000D03*
X175006000Y-64262000D03*
X185674000Y-63246000D03*
X189483854Y-63140729D03*
X115570000Y-60452000D03*
X136398000Y-48768000D03*
X149098000Y-46228000D03*
X130048000Y-55372000D03*
X129794000Y-69342000D03*
X182118000Y-70612000D03*
X181102000Y-70612000D03*
X180086000Y-70612000D03*
X179070000Y-70612000D03*
X178054000Y-70612000D03*
X177038000Y-70612000D03*
X177038000Y-71628000D03*
X178054000Y-71628000D03*
X179070000Y-71628000D03*
X180086000Y-71628000D03*
X181102000Y-71628000D03*
X182118000Y-71628000D03*
X182118000Y-72644000D03*
X181102000Y-72644000D03*
X180086000Y-72644000D03*
X179070000Y-72644000D03*
X178054000Y-72644000D03*
X177038000Y-72644000D03*
X171958000Y-77216000D03*
X174498000Y-78740000D03*
D22*
X184658000Y-67310000D03*
X184658000Y-65278000D03*
D21*
X133096000Y-76200000D03*
X144018000Y-88138000D03*
X128778000Y-71882000D03*
X141605000Y-88265000D03*
X133331000Y-57677000D03*
X131572000Y-63754000D03*
X162052000Y-45720000D03*
X163830000Y-46736000D03*
D23*
X65024000Y-43180000D03*
X107442000Y-43180000D03*
D21*
X130810000Y-47752000D03*
X132842000Y-67818000D03*
X133350000Y-66548000D03*
X155194000Y-47752000D03*
X62738000Y-55118000D03*
D22*
X185420000Y-66548000D03*
X178308000Y-66548000D03*
X184150000Y-66548000D03*
D21*
X177800000Y-76962000D03*
X177038000Y-78232000D03*
X177038000Y-79756000D03*
D22*
X187452000Y-67310000D03*
X172489000Y-65278000D03*
X176530000Y-67310000D03*
X172489000Y-67310000D03*
D21*
X111760000Y-48260000D03*
X129794000Y-48768000D03*
X132080000Y-48768000D03*
X141224000Y-81534000D03*
X131318000Y-85598000D03*
X137160000Y-85598000D03*
X152654000Y-51308000D03*
X151638000Y-71374000D03*
X151638000Y-68834000D03*
X152654000Y-48768000D03*
X152654000Y-54356000D03*
X158242000Y-72390000D03*
X162306000Y-74168000D03*
X156718000Y-86360000D03*
X158750000Y-86360000D03*
X158750000Y-86360000D03*
X139192000Y-80772000D03*
X132588000Y-80772000D03*
X167894000Y-45974000D03*
X167894000Y-47752000D03*
X167894000Y-54864000D03*
M02*
