G04 #@! TF.GenerationSoftware,KiCad,Pcbnew,(5.1.10)-1*
G04 #@! TF.CreationDate,2021-06-08T20:52:53+03:00*
G04 #@! TF.ProjectId,ScienceBoard-1,53636965-6e63-4654-926f-6172642d312e,rev?*
G04 #@! TF.SameCoordinates,Original*
G04 #@! TF.FileFunction,Paste,Top*
G04 #@! TF.FilePolarity,Positive*
%FSLAX46Y46*%
G04 Gerber Fmt 4.6, Leading zero omitted, Abs format (unit mm)*
G04 Created by KiCad (PCBNEW (5.1.10)-1) date 2021-06-08 20:52:53*
%MOMM*%
%LPD*%
G01*
G04 APERTURE LIST*
%ADD10R,2.000000X1.500000*%
%ADD11R,2.000000X3.800000*%
%ADD12R,1.800000X1.500000*%
%ADD13R,1.800000X2.000000*%
%ADD14R,0.800000X0.900000*%
%ADD15R,2.000000X1.780000*%
%ADD16R,0.900000X0.800000*%
%ADD17R,1.200000X0.900000*%
%ADD18R,1.200000X2.200000*%
%ADD19R,2.750000X3.050000*%
%ADD20R,4.600000X0.800000*%
%ADD21R,4.550000X5.250000*%
%ADD22R,0.900000X1.200000*%
G04 APERTURE END LIST*
D10*
X118516000Y-47108000D03*
X118516000Y-51708000D03*
X118516000Y-49408000D03*
D11*
X124816000Y-49408000D03*
G36*
G01*
X116159500Y-47688000D02*
X116504500Y-47688000D01*
G75*
G02*
X116652000Y-47835500I0J-147500D01*
G01*
X116652000Y-48130500D01*
G75*
G02*
X116504500Y-48278000I-147500J0D01*
G01*
X116159500Y-48278000D01*
G75*
G02*
X116012000Y-48130500I0J147500D01*
G01*
X116012000Y-47835500D01*
G75*
G02*
X116159500Y-47688000I147500J0D01*
G01*
G37*
G36*
G01*
X116159500Y-46718000D02*
X116504500Y-46718000D01*
G75*
G02*
X116652000Y-46865500I0J-147500D01*
G01*
X116652000Y-47160500D01*
G75*
G02*
X116504500Y-47308000I-147500J0D01*
G01*
X116159500Y-47308000D01*
G75*
G02*
X116012000Y-47160500I0J147500D01*
G01*
X116012000Y-46865500D01*
G75*
G02*
X116159500Y-46718000I147500J0D01*
G01*
G37*
D12*
X58598000Y-45080000D03*
D13*
X64998000Y-45430000D03*
X56698000Y-53830000D03*
D14*
X60452000Y-57134000D03*
X59502000Y-55134000D03*
X61402000Y-55134000D03*
D15*
X117174000Y-85598000D03*
X127174000Y-80518000D03*
X117174000Y-83058000D03*
X127174000Y-83058000D03*
X117174000Y-80518000D03*
X127174000Y-85598000D03*
X182292000Y-55880000D03*
X172292000Y-60960000D03*
X182292000Y-58420000D03*
X172292000Y-58420000D03*
X182292000Y-60960000D03*
X172292000Y-55880000D03*
G36*
G01*
X107106500Y-51372000D02*
X106761500Y-51372000D01*
G75*
G02*
X106614000Y-51224500I0J147500D01*
G01*
X106614000Y-50929500D01*
G75*
G02*
X106761500Y-50782000I147500J0D01*
G01*
X107106500Y-50782000D01*
G75*
G02*
X107254000Y-50929500I0J-147500D01*
G01*
X107254000Y-51224500D01*
G75*
G02*
X107106500Y-51372000I-147500J0D01*
G01*
G37*
G36*
G01*
X107106500Y-52342000D02*
X106761500Y-52342000D01*
G75*
G02*
X106614000Y-52194500I0J147500D01*
G01*
X106614000Y-51899500D01*
G75*
G02*
X106761500Y-51752000I147500J0D01*
G01*
X107106500Y-51752000D01*
G75*
G02*
X107254000Y-51899500I0J-147500D01*
G01*
X107254000Y-52194500D01*
G75*
G02*
X107106500Y-52342000I-147500J0D01*
G01*
G37*
G36*
G01*
X107106500Y-48578000D02*
X106761500Y-48578000D01*
G75*
G02*
X106614000Y-48430500I0J147500D01*
G01*
X106614000Y-48135500D01*
G75*
G02*
X106761500Y-47988000I147500J0D01*
G01*
X107106500Y-47988000D01*
G75*
G02*
X107254000Y-48135500I0J-147500D01*
G01*
X107254000Y-48430500D01*
G75*
G02*
X107106500Y-48578000I-147500J0D01*
G01*
G37*
G36*
G01*
X107106500Y-49548000D02*
X106761500Y-49548000D01*
G75*
G02*
X106614000Y-49400500I0J147500D01*
G01*
X106614000Y-49105500D01*
G75*
G02*
X106761500Y-48958000I147500J0D01*
G01*
X107106500Y-48958000D01*
G75*
G02*
X107254000Y-49105500I0J-147500D01*
G01*
X107254000Y-49400500D01*
G75*
G02*
X107106500Y-49548000I-147500J0D01*
G01*
G37*
D16*
X110440000Y-50380000D03*
X108440000Y-51330000D03*
X108440000Y-49430000D03*
G36*
G01*
X107269500Y-78676000D02*
X107614500Y-78676000D01*
G75*
G02*
X107762000Y-78823500I0J-147500D01*
G01*
X107762000Y-79118500D01*
G75*
G02*
X107614500Y-79266000I-147500J0D01*
G01*
X107269500Y-79266000D01*
G75*
G02*
X107122000Y-79118500I0J147500D01*
G01*
X107122000Y-78823500D01*
G75*
G02*
X107269500Y-78676000I147500J0D01*
G01*
G37*
G36*
G01*
X107269500Y-77706000D02*
X107614500Y-77706000D01*
G75*
G02*
X107762000Y-77853500I0J-147500D01*
G01*
X107762000Y-78148500D01*
G75*
G02*
X107614500Y-78296000I-147500J0D01*
G01*
X107269500Y-78296000D01*
G75*
G02*
X107122000Y-78148500I0J147500D01*
G01*
X107122000Y-77853500D01*
G75*
G02*
X107269500Y-77706000I147500J0D01*
G01*
G37*
G36*
G01*
X129984000Y-85770500D02*
X129984000Y-85425500D01*
G75*
G02*
X130131500Y-85278000I147500J0D01*
G01*
X130426500Y-85278000D01*
G75*
G02*
X130574000Y-85425500I0J-147500D01*
G01*
X130574000Y-85770500D01*
G75*
G02*
X130426500Y-85918000I-147500J0D01*
G01*
X130131500Y-85918000D01*
G75*
G02*
X129984000Y-85770500I0J147500D01*
G01*
G37*
G36*
G01*
X129014000Y-85770500D02*
X129014000Y-85425500D01*
G75*
G02*
X129161500Y-85278000I147500J0D01*
G01*
X129456500Y-85278000D01*
G75*
G02*
X129604000Y-85425500I0J-147500D01*
G01*
X129604000Y-85770500D01*
G75*
G02*
X129456500Y-85918000I-147500J0D01*
G01*
X129161500Y-85918000D01*
G75*
G02*
X129014000Y-85770500I0J147500D01*
G01*
G37*
D14*
X98110000Y-45450000D03*
X100010000Y-45450000D03*
X99060000Y-43450000D03*
G36*
G01*
X95641000Y-58941000D02*
X96891000Y-58941000D01*
G75*
G02*
X97141000Y-59191000I0J-250000D01*
G01*
X97141000Y-59941000D01*
G75*
G02*
X96891000Y-60191000I-250000J0D01*
G01*
X95641000Y-60191000D01*
G75*
G02*
X95391000Y-59941000I0J250000D01*
G01*
X95391000Y-59191000D01*
G75*
G02*
X95641000Y-58941000I250000J0D01*
G01*
G37*
G36*
G01*
X95641000Y-56141000D02*
X96891000Y-56141000D01*
G75*
G02*
X97141000Y-56391000I0J-250000D01*
G01*
X97141000Y-57141000D01*
G75*
G02*
X96891000Y-57391000I-250000J0D01*
G01*
X95641000Y-57391000D01*
G75*
G02*
X95391000Y-57141000I0J250000D01*
G01*
X95391000Y-56391000D01*
G75*
G02*
X95641000Y-56141000I250000J0D01*
G01*
G37*
D17*
X74168000Y-77344000D03*
X74168000Y-80644000D03*
G36*
G01*
X184424001Y-73111000D02*
X183583999Y-73111000D01*
G75*
G02*
X183334000Y-72861001I0J249999D01*
G01*
X183334000Y-72070999D01*
G75*
G02*
X183583999Y-71821000I249999J0D01*
G01*
X184424001Y-71821000D01*
G75*
G02*
X184674000Y-72070999I0J-249999D01*
G01*
X184674000Y-72861001D01*
G75*
G02*
X184424001Y-73111000I-249999J0D01*
G01*
G37*
G36*
G01*
X186094001Y-73111000D02*
X185253999Y-73111000D01*
G75*
G02*
X185004000Y-72861001I0J249999D01*
G01*
X185004000Y-72070999D01*
G75*
G02*
X185253999Y-71821000I249999J0D01*
G01*
X186094001Y-71821000D01*
G75*
G02*
X186344000Y-72070999I0J-249999D01*
G01*
X186344000Y-72861001D01*
G75*
G02*
X186094001Y-73111000I-249999J0D01*
G01*
G37*
G36*
G01*
X187764001Y-73111000D02*
X186923999Y-73111000D01*
G75*
G02*
X186674000Y-72861001I0J249999D01*
G01*
X186674000Y-72070999D01*
G75*
G02*
X186923999Y-71821000I249999J0D01*
G01*
X187764001Y-71821000D01*
G75*
G02*
X188014000Y-72070999I0J-249999D01*
G01*
X188014000Y-72861001D01*
G75*
G02*
X187764001Y-73111000I-249999J0D01*
G01*
G37*
G36*
G01*
X184424001Y-71511000D02*
X183583999Y-71511000D01*
G75*
G02*
X183334000Y-71261001I0J249999D01*
G01*
X183334000Y-70470999D01*
G75*
G02*
X183583999Y-70221000I249999J0D01*
G01*
X184424001Y-70221000D01*
G75*
G02*
X184674000Y-70470999I0J-249999D01*
G01*
X184674000Y-71261001D01*
G75*
G02*
X184424001Y-71511000I-249999J0D01*
G01*
G37*
G36*
G01*
X186094001Y-71511000D02*
X185253999Y-71511000D01*
G75*
G02*
X185004000Y-71261001I0J249999D01*
G01*
X185004000Y-70470999D01*
G75*
G02*
X185253999Y-70221000I249999J0D01*
G01*
X186094001Y-70221000D01*
G75*
G02*
X186344000Y-70470999I0J-249999D01*
G01*
X186344000Y-71261001D01*
G75*
G02*
X186094001Y-71511000I-249999J0D01*
G01*
G37*
G36*
G01*
X187764001Y-71511000D02*
X186923999Y-71511000D01*
G75*
G02*
X186674000Y-71261001I0J249999D01*
G01*
X186674000Y-70470999D01*
G75*
G02*
X186923999Y-70221000I249999J0D01*
G01*
X187764001Y-70221000D01*
G75*
G02*
X188014000Y-70470999I0J-249999D01*
G01*
X188014000Y-71261001D01*
G75*
G02*
X187764001Y-71511000I-249999J0D01*
G01*
G37*
G36*
G01*
X182199000Y-75316000D02*
X181999000Y-75316000D01*
G75*
G02*
X181899000Y-75216000I0J100000D01*
G01*
X181899000Y-73866000D01*
G75*
G02*
X181999000Y-73766000I100000J0D01*
G01*
X182199000Y-73766000D01*
G75*
G02*
X182299000Y-73866000I0J-100000D01*
G01*
X182299000Y-75216000D01*
G75*
G02*
X182199000Y-75316000I-100000J0D01*
G01*
G37*
G36*
G01*
X182849000Y-75316000D02*
X182649000Y-75316000D01*
G75*
G02*
X182549000Y-75216000I0J100000D01*
G01*
X182549000Y-73866000D01*
G75*
G02*
X182649000Y-73766000I100000J0D01*
G01*
X182849000Y-73766000D01*
G75*
G02*
X182949000Y-73866000I0J-100000D01*
G01*
X182949000Y-75216000D01*
G75*
G02*
X182849000Y-75316000I-100000J0D01*
G01*
G37*
G36*
G01*
X183499000Y-75316000D02*
X183299000Y-75316000D01*
G75*
G02*
X183199000Y-75216000I0J100000D01*
G01*
X183199000Y-73866000D01*
G75*
G02*
X183299000Y-73766000I100000J0D01*
G01*
X183499000Y-73766000D01*
G75*
G02*
X183599000Y-73866000I0J-100000D01*
G01*
X183599000Y-75216000D01*
G75*
G02*
X183499000Y-75316000I-100000J0D01*
G01*
G37*
G36*
G01*
X184149000Y-75316000D02*
X183949000Y-75316000D01*
G75*
G02*
X183849000Y-75216000I0J100000D01*
G01*
X183849000Y-73866000D01*
G75*
G02*
X183949000Y-73766000I100000J0D01*
G01*
X184149000Y-73766000D01*
G75*
G02*
X184249000Y-73866000I0J-100000D01*
G01*
X184249000Y-75216000D01*
G75*
G02*
X184149000Y-75316000I-100000J0D01*
G01*
G37*
G36*
G01*
X184799000Y-75316000D02*
X184599000Y-75316000D01*
G75*
G02*
X184499000Y-75216000I0J100000D01*
G01*
X184499000Y-73866000D01*
G75*
G02*
X184599000Y-73766000I100000J0D01*
G01*
X184799000Y-73766000D01*
G75*
G02*
X184899000Y-73866000I0J-100000D01*
G01*
X184899000Y-75216000D01*
G75*
G02*
X184799000Y-75316000I-100000J0D01*
G01*
G37*
G36*
G01*
X185449000Y-75316000D02*
X185249000Y-75316000D01*
G75*
G02*
X185149000Y-75216000I0J100000D01*
G01*
X185149000Y-73866000D01*
G75*
G02*
X185249000Y-73766000I100000J0D01*
G01*
X185449000Y-73766000D01*
G75*
G02*
X185549000Y-73866000I0J-100000D01*
G01*
X185549000Y-75216000D01*
G75*
G02*
X185449000Y-75316000I-100000J0D01*
G01*
G37*
G36*
G01*
X186099000Y-75316000D02*
X185899000Y-75316000D01*
G75*
G02*
X185799000Y-75216000I0J100000D01*
G01*
X185799000Y-73866000D01*
G75*
G02*
X185899000Y-73766000I100000J0D01*
G01*
X186099000Y-73766000D01*
G75*
G02*
X186199000Y-73866000I0J-100000D01*
G01*
X186199000Y-75216000D01*
G75*
G02*
X186099000Y-75316000I-100000J0D01*
G01*
G37*
G36*
G01*
X186749000Y-75316000D02*
X186549000Y-75316000D01*
G75*
G02*
X186449000Y-75216000I0J100000D01*
G01*
X186449000Y-73866000D01*
G75*
G02*
X186549000Y-73766000I100000J0D01*
G01*
X186749000Y-73766000D01*
G75*
G02*
X186849000Y-73866000I0J-100000D01*
G01*
X186849000Y-75216000D01*
G75*
G02*
X186749000Y-75316000I-100000J0D01*
G01*
G37*
G36*
G01*
X187399000Y-75316000D02*
X187199000Y-75316000D01*
G75*
G02*
X187099000Y-75216000I0J100000D01*
G01*
X187099000Y-73866000D01*
G75*
G02*
X187199000Y-73766000I100000J0D01*
G01*
X187399000Y-73766000D01*
G75*
G02*
X187499000Y-73866000I0J-100000D01*
G01*
X187499000Y-75216000D01*
G75*
G02*
X187399000Y-75316000I-100000J0D01*
G01*
G37*
G36*
G01*
X188049000Y-75316000D02*
X187849000Y-75316000D01*
G75*
G02*
X187749000Y-75216000I0J100000D01*
G01*
X187749000Y-73866000D01*
G75*
G02*
X187849000Y-73766000I100000J0D01*
G01*
X188049000Y-73766000D01*
G75*
G02*
X188149000Y-73866000I0J-100000D01*
G01*
X188149000Y-75216000D01*
G75*
G02*
X188049000Y-75316000I-100000J0D01*
G01*
G37*
G36*
G01*
X188699000Y-75316000D02*
X188499000Y-75316000D01*
G75*
G02*
X188399000Y-75216000I0J100000D01*
G01*
X188399000Y-73866000D01*
G75*
G02*
X188499000Y-73766000I100000J0D01*
G01*
X188699000Y-73766000D01*
G75*
G02*
X188799000Y-73866000I0J-100000D01*
G01*
X188799000Y-75216000D01*
G75*
G02*
X188699000Y-75316000I-100000J0D01*
G01*
G37*
G36*
G01*
X189349000Y-75316000D02*
X189149000Y-75316000D01*
G75*
G02*
X189049000Y-75216000I0J100000D01*
G01*
X189049000Y-73866000D01*
G75*
G02*
X189149000Y-73766000I100000J0D01*
G01*
X189349000Y-73766000D01*
G75*
G02*
X189449000Y-73866000I0J-100000D01*
G01*
X189449000Y-75216000D01*
G75*
G02*
X189349000Y-75316000I-100000J0D01*
G01*
G37*
G36*
G01*
X189349000Y-69566000D02*
X189149000Y-69566000D01*
G75*
G02*
X189049000Y-69466000I0J100000D01*
G01*
X189049000Y-68116000D01*
G75*
G02*
X189149000Y-68016000I100000J0D01*
G01*
X189349000Y-68016000D01*
G75*
G02*
X189449000Y-68116000I0J-100000D01*
G01*
X189449000Y-69466000D01*
G75*
G02*
X189349000Y-69566000I-100000J0D01*
G01*
G37*
G36*
G01*
X188699000Y-69566000D02*
X188499000Y-69566000D01*
G75*
G02*
X188399000Y-69466000I0J100000D01*
G01*
X188399000Y-68116000D01*
G75*
G02*
X188499000Y-68016000I100000J0D01*
G01*
X188699000Y-68016000D01*
G75*
G02*
X188799000Y-68116000I0J-100000D01*
G01*
X188799000Y-69466000D01*
G75*
G02*
X188699000Y-69566000I-100000J0D01*
G01*
G37*
G36*
G01*
X188049000Y-69566000D02*
X187849000Y-69566000D01*
G75*
G02*
X187749000Y-69466000I0J100000D01*
G01*
X187749000Y-68116000D01*
G75*
G02*
X187849000Y-68016000I100000J0D01*
G01*
X188049000Y-68016000D01*
G75*
G02*
X188149000Y-68116000I0J-100000D01*
G01*
X188149000Y-69466000D01*
G75*
G02*
X188049000Y-69566000I-100000J0D01*
G01*
G37*
G36*
G01*
X187399000Y-69566000D02*
X187199000Y-69566000D01*
G75*
G02*
X187099000Y-69466000I0J100000D01*
G01*
X187099000Y-68116000D01*
G75*
G02*
X187199000Y-68016000I100000J0D01*
G01*
X187399000Y-68016000D01*
G75*
G02*
X187499000Y-68116000I0J-100000D01*
G01*
X187499000Y-69466000D01*
G75*
G02*
X187399000Y-69566000I-100000J0D01*
G01*
G37*
G36*
G01*
X186749000Y-69566000D02*
X186549000Y-69566000D01*
G75*
G02*
X186449000Y-69466000I0J100000D01*
G01*
X186449000Y-68116000D01*
G75*
G02*
X186549000Y-68016000I100000J0D01*
G01*
X186749000Y-68016000D01*
G75*
G02*
X186849000Y-68116000I0J-100000D01*
G01*
X186849000Y-69466000D01*
G75*
G02*
X186749000Y-69566000I-100000J0D01*
G01*
G37*
G36*
G01*
X186099000Y-69566000D02*
X185899000Y-69566000D01*
G75*
G02*
X185799000Y-69466000I0J100000D01*
G01*
X185799000Y-68116000D01*
G75*
G02*
X185899000Y-68016000I100000J0D01*
G01*
X186099000Y-68016000D01*
G75*
G02*
X186199000Y-68116000I0J-100000D01*
G01*
X186199000Y-69466000D01*
G75*
G02*
X186099000Y-69566000I-100000J0D01*
G01*
G37*
G36*
G01*
X185449000Y-69566000D02*
X185249000Y-69566000D01*
G75*
G02*
X185149000Y-69466000I0J100000D01*
G01*
X185149000Y-68116000D01*
G75*
G02*
X185249000Y-68016000I100000J0D01*
G01*
X185449000Y-68016000D01*
G75*
G02*
X185549000Y-68116000I0J-100000D01*
G01*
X185549000Y-69466000D01*
G75*
G02*
X185449000Y-69566000I-100000J0D01*
G01*
G37*
G36*
G01*
X184799000Y-69566000D02*
X184599000Y-69566000D01*
G75*
G02*
X184499000Y-69466000I0J100000D01*
G01*
X184499000Y-68116000D01*
G75*
G02*
X184599000Y-68016000I100000J0D01*
G01*
X184799000Y-68016000D01*
G75*
G02*
X184899000Y-68116000I0J-100000D01*
G01*
X184899000Y-69466000D01*
G75*
G02*
X184799000Y-69566000I-100000J0D01*
G01*
G37*
G36*
G01*
X184149000Y-69566000D02*
X183949000Y-69566000D01*
G75*
G02*
X183849000Y-69466000I0J100000D01*
G01*
X183849000Y-68116000D01*
G75*
G02*
X183949000Y-68016000I100000J0D01*
G01*
X184149000Y-68016000D01*
G75*
G02*
X184249000Y-68116000I0J-100000D01*
G01*
X184249000Y-69466000D01*
G75*
G02*
X184149000Y-69566000I-100000J0D01*
G01*
G37*
G36*
G01*
X183499000Y-69566000D02*
X183299000Y-69566000D01*
G75*
G02*
X183199000Y-69466000I0J100000D01*
G01*
X183199000Y-68116000D01*
G75*
G02*
X183299000Y-68016000I100000J0D01*
G01*
X183499000Y-68016000D01*
G75*
G02*
X183599000Y-68116000I0J-100000D01*
G01*
X183599000Y-69466000D01*
G75*
G02*
X183499000Y-69566000I-100000J0D01*
G01*
G37*
G36*
G01*
X182849000Y-69566000D02*
X182649000Y-69566000D01*
G75*
G02*
X182549000Y-69466000I0J100000D01*
G01*
X182549000Y-68116000D01*
G75*
G02*
X182649000Y-68016000I100000J0D01*
G01*
X182849000Y-68016000D01*
G75*
G02*
X182949000Y-68116000I0J-100000D01*
G01*
X182949000Y-69466000D01*
G75*
G02*
X182849000Y-69566000I-100000J0D01*
G01*
G37*
G36*
G01*
X182199000Y-69566000D02*
X181999000Y-69566000D01*
G75*
G02*
X181899000Y-69466000I0J100000D01*
G01*
X181899000Y-68116000D01*
G75*
G02*
X181999000Y-68016000I100000J0D01*
G01*
X182199000Y-68016000D01*
G75*
G02*
X182299000Y-68116000I0J-100000D01*
G01*
X182299000Y-69466000D01*
G75*
G02*
X182199000Y-69566000I-100000J0D01*
G01*
G37*
G36*
G01*
X172260001Y-73101000D02*
X171419999Y-73101000D01*
G75*
G02*
X171170000Y-72851001I0J249999D01*
G01*
X171170000Y-72060999D01*
G75*
G02*
X171419999Y-71811000I249999J0D01*
G01*
X172260001Y-71811000D01*
G75*
G02*
X172510000Y-72060999I0J-249999D01*
G01*
X172510000Y-72851001D01*
G75*
G02*
X172260001Y-73101000I-249999J0D01*
G01*
G37*
G36*
G01*
X173930001Y-73101000D02*
X173089999Y-73101000D01*
G75*
G02*
X172840000Y-72851001I0J249999D01*
G01*
X172840000Y-72060999D01*
G75*
G02*
X173089999Y-71811000I249999J0D01*
G01*
X173930001Y-71811000D01*
G75*
G02*
X174180000Y-72060999I0J-249999D01*
G01*
X174180000Y-72851001D01*
G75*
G02*
X173930001Y-73101000I-249999J0D01*
G01*
G37*
G36*
G01*
X175600001Y-73101000D02*
X174759999Y-73101000D01*
G75*
G02*
X174510000Y-72851001I0J249999D01*
G01*
X174510000Y-72060999D01*
G75*
G02*
X174759999Y-71811000I249999J0D01*
G01*
X175600001Y-71811000D01*
G75*
G02*
X175850000Y-72060999I0J-249999D01*
G01*
X175850000Y-72851001D01*
G75*
G02*
X175600001Y-73101000I-249999J0D01*
G01*
G37*
G36*
G01*
X172260001Y-71501000D02*
X171419999Y-71501000D01*
G75*
G02*
X171170000Y-71251001I0J249999D01*
G01*
X171170000Y-70460999D01*
G75*
G02*
X171419999Y-70211000I249999J0D01*
G01*
X172260001Y-70211000D01*
G75*
G02*
X172510000Y-70460999I0J-249999D01*
G01*
X172510000Y-71251001D01*
G75*
G02*
X172260001Y-71501000I-249999J0D01*
G01*
G37*
G36*
G01*
X173930001Y-71501000D02*
X173089999Y-71501000D01*
G75*
G02*
X172840000Y-71251001I0J249999D01*
G01*
X172840000Y-70460999D01*
G75*
G02*
X173089999Y-70211000I249999J0D01*
G01*
X173930001Y-70211000D01*
G75*
G02*
X174180000Y-70460999I0J-249999D01*
G01*
X174180000Y-71251001D01*
G75*
G02*
X173930001Y-71501000I-249999J0D01*
G01*
G37*
G36*
G01*
X175600001Y-71501000D02*
X174759999Y-71501000D01*
G75*
G02*
X174510000Y-71251001I0J249999D01*
G01*
X174510000Y-70460999D01*
G75*
G02*
X174759999Y-70211000I249999J0D01*
G01*
X175600001Y-70211000D01*
G75*
G02*
X175850000Y-70460999I0J-249999D01*
G01*
X175850000Y-71251001D01*
G75*
G02*
X175600001Y-71501000I-249999J0D01*
G01*
G37*
G36*
G01*
X170035000Y-75306000D02*
X169835000Y-75306000D01*
G75*
G02*
X169735000Y-75206000I0J100000D01*
G01*
X169735000Y-73856000D01*
G75*
G02*
X169835000Y-73756000I100000J0D01*
G01*
X170035000Y-73756000D01*
G75*
G02*
X170135000Y-73856000I0J-100000D01*
G01*
X170135000Y-75206000D01*
G75*
G02*
X170035000Y-75306000I-100000J0D01*
G01*
G37*
G36*
G01*
X170685000Y-75306000D02*
X170485000Y-75306000D01*
G75*
G02*
X170385000Y-75206000I0J100000D01*
G01*
X170385000Y-73856000D01*
G75*
G02*
X170485000Y-73756000I100000J0D01*
G01*
X170685000Y-73756000D01*
G75*
G02*
X170785000Y-73856000I0J-100000D01*
G01*
X170785000Y-75206000D01*
G75*
G02*
X170685000Y-75306000I-100000J0D01*
G01*
G37*
G36*
G01*
X171335000Y-75306000D02*
X171135000Y-75306000D01*
G75*
G02*
X171035000Y-75206000I0J100000D01*
G01*
X171035000Y-73856000D01*
G75*
G02*
X171135000Y-73756000I100000J0D01*
G01*
X171335000Y-73756000D01*
G75*
G02*
X171435000Y-73856000I0J-100000D01*
G01*
X171435000Y-75206000D01*
G75*
G02*
X171335000Y-75306000I-100000J0D01*
G01*
G37*
G36*
G01*
X171985000Y-75306000D02*
X171785000Y-75306000D01*
G75*
G02*
X171685000Y-75206000I0J100000D01*
G01*
X171685000Y-73856000D01*
G75*
G02*
X171785000Y-73756000I100000J0D01*
G01*
X171985000Y-73756000D01*
G75*
G02*
X172085000Y-73856000I0J-100000D01*
G01*
X172085000Y-75206000D01*
G75*
G02*
X171985000Y-75306000I-100000J0D01*
G01*
G37*
G36*
G01*
X172635000Y-75306000D02*
X172435000Y-75306000D01*
G75*
G02*
X172335000Y-75206000I0J100000D01*
G01*
X172335000Y-73856000D01*
G75*
G02*
X172435000Y-73756000I100000J0D01*
G01*
X172635000Y-73756000D01*
G75*
G02*
X172735000Y-73856000I0J-100000D01*
G01*
X172735000Y-75206000D01*
G75*
G02*
X172635000Y-75306000I-100000J0D01*
G01*
G37*
G36*
G01*
X173285000Y-75306000D02*
X173085000Y-75306000D01*
G75*
G02*
X172985000Y-75206000I0J100000D01*
G01*
X172985000Y-73856000D01*
G75*
G02*
X173085000Y-73756000I100000J0D01*
G01*
X173285000Y-73756000D01*
G75*
G02*
X173385000Y-73856000I0J-100000D01*
G01*
X173385000Y-75206000D01*
G75*
G02*
X173285000Y-75306000I-100000J0D01*
G01*
G37*
G36*
G01*
X173935000Y-75306000D02*
X173735000Y-75306000D01*
G75*
G02*
X173635000Y-75206000I0J100000D01*
G01*
X173635000Y-73856000D01*
G75*
G02*
X173735000Y-73756000I100000J0D01*
G01*
X173935000Y-73756000D01*
G75*
G02*
X174035000Y-73856000I0J-100000D01*
G01*
X174035000Y-75206000D01*
G75*
G02*
X173935000Y-75306000I-100000J0D01*
G01*
G37*
G36*
G01*
X174585000Y-75306000D02*
X174385000Y-75306000D01*
G75*
G02*
X174285000Y-75206000I0J100000D01*
G01*
X174285000Y-73856000D01*
G75*
G02*
X174385000Y-73756000I100000J0D01*
G01*
X174585000Y-73756000D01*
G75*
G02*
X174685000Y-73856000I0J-100000D01*
G01*
X174685000Y-75206000D01*
G75*
G02*
X174585000Y-75306000I-100000J0D01*
G01*
G37*
G36*
G01*
X175235000Y-75306000D02*
X175035000Y-75306000D01*
G75*
G02*
X174935000Y-75206000I0J100000D01*
G01*
X174935000Y-73856000D01*
G75*
G02*
X175035000Y-73756000I100000J0D01*
G01*
X175235000Y-73756000D01*
G75*
G02*
X175335000Y-73856000I0J-100000D01*
G01*
X175335000Y-75206000D01*
G75*
G02*
X175235000Y-75306000I-100000J0D01*
G01*
G37*
G36*
G01*
X175885000Y-75306000D02*
X175685000Y-75306000D01*
G75*
G02*
X175585000Y-75206000I0J100000D01*
G01*
X175585000Y-73856000D01*
G75*
G02*
X175685000Y-73756000I100000J0D01*
G01*
X175885000Y-73756000D01*
G75*
G02*
X175985000Y-73856000I0J-100000D01*
G01*
X175985000Y-75206000D01*
G75*
G02*
X175885000Y-75306000I-100000J0D01*
G01*
G37*
G36*
G01*
X176535000Y-75306000D02*
X176335000Y-75306000D01*
G75*
G02*
X176235000Y-75206000I0J100000D01*
G01*
X176235000Y-73856000D01*
G75*
G02*
X176335000Y-73756000I100000J0D01*
G01*
X176535000Y-73756000D01*
G75*
G02*
X176635000Y-73856000I0J-100000D01*
G01*
X176635000Y-75206000D01*
G75*
G02*
X176535000Y-75306000I-100000J0D01*
G01*
G37*
G36*
G01*
X177185000Y-75306000D02*
X176985000Y-75306000D01*
G75*
G02*
X176885000Y-75206000I0J100000D01*
G01*
X176885000Y-73856000D01*
G75*
G02*
X176985000Y-73756000I100000J0D01*
G01*
X177185000Y-73756000D01*
G75*
G02*
X177285000Y-73856000I0J-100000D01*
G01*
X177285000Y-75206000D01*
G75*
G02*
X177185000Y-75306000I-100000J0D01*
G01*
G37*
G36*
G01*
X177185000Y-69556000D02*
X176985000Y-69556000D01*
G75*
G02*
X176885000Y-69456000I0J100000D01*
G01*
X176885000Y-68106000D01*
G75*
G02*
X176985000Y-68006000I100000J0D01*
G01*
X177185000Y-68006000D01*
G75*
G02*
X177285000Y-68106000I0J-100000D01*
G01*
X177285000Y-69456000D01*
G75*
G02*
X177185000Y-69556000I-100000J0D01*
G01*
G37*
G36*
G01*
X176535000Y-69556000D02*
X176335000Y-69556000D01*
G75*
G02*
X176235000Y-69456000I0J100000D01*
G01*
X176235000Y-68106000D01*
G75*
G02*
X176335000Y-68006000I100000J0D01*
G01*
X176535000Y-68006000D01*
G75*
G02*
X176635000Y-68106000I0J-100000D01*
G01*
X176635000Y-69456000D01*
G75*
G02*
X176535000Y-69556000I-100000J0D01*
G01*
G37*
G36*
G01*
X175885000Y-69556000D02*
X175685000Y-69556000D01*
G75*
G02*
X175585000Y-69456000I0J100000D01*
G01*
X175585000Y-68106000D01*
G75*
G02*
X175685000Y-68006000I100000J0D01*
G01*
X175885000Y-68006000D01*
G75*
G02*
X175985000Y-68106000I0J-100000D01*
G01*
X175985000Y-69456000D01*
G75*
G02*
X175885000Y-69556000I-100000J0D01*
G01*
G37*
G36*
G01*
X175235000Y-69556000D02*
X175035000Y-69556000D01*
G75*
G02*
X174935000Y-69456000I0J100000D01*
G01*
X174935000Y-68106000D01*
G75*
G02*
X175035000Y-68006000I100000J0D01*
G01*
X175235000Y-68006000D01*
G75*
G02*
X175335000Y-68106000I0J-100000D01*
G01*
X175335000Y-69456000D01*
G75*
G02*
X175235000Y-69556000I-100000J0D01*
G01*
G37*
G36*
G01*
X174585000Y-69556000D02*
X174385000Y-69556000D01*
G75*
G02*
X174285000Y-69456000I0J100000D01*
G01*
X174285000Y-68106000D01*
G75*
G02*
X174385000Y-68006000I100000J0D01*
G01*
X174585000Y-68006000D01*
G75*
G02*
X174685000Y-68106000I0J-100000D01*
G01*
X174685000Y-69456000D01*
G75*
G02*
X174585000Y-69556000I-100000J0D01*
G01*
G37*
G36*
G01*
X173935000Y-69556000D02*
X173735000Y-69556000D01*
G75*
G02*
X173635000Y-69456000I0J100000D01*
G01*
X173635000Y-68106000D01*
G75*
G02*
X173735000Y-68006000I100000J0D01*
G01*
X173935000Y-68006000D01*
G75*
G02*
X174035000Y-68106000I0J-100000D01*
G01*
X174035000Y-69456000D01*
G75*
G02*
X173935000Y-69556000I-100000J0D01*
G01*
G37*
G36*
G01*
X173285000Y-69556000D02*
X173085000Y-69556000D01*
G75*
G02*
X172985000Y-69456000I0J100000D01*
G01*
X172985000Y-68106000D01*
G75*
G02*
X173085000Y-68006000I100000J0D01*
G01*
X173285000Y-68006000D01*
G75*
G02*
X173385000Y-68106000I0J-100000D01*
G01*
X173385000Y-69456000D01*
G75*
G02*
X173285000Y-69556000I-100000J0D01*
G01*
G37*
G36*
G01*
X172635000Y-69556000D02*
X172435000Y-69556000D01*
G75*
G02*
X172335000Y-69456000I0J100000D01*
G01*
X172335000Y-68106000D01*
G75*
G02*
X172435000Y-68006000I100000J0D01*
G01*
X172635000Y-68006000D01*
G75*
G02*
X172735000Y-68106000I0J-100000D01*
G01*
X172735000Y-69456000D01*
G75*
G02*
X172635000Y-69556000I-100000J0D01*
G01*
G37*
G36*
G01*
X171985000Y-69556000D02*
X171785000Y-69556000D01*
G75*
G02*
X171685000Y-69456000I0J100000D01*
G01*
X171685000Y-68106000D01*
G75*
G02*
X171785000Y-68006000I100000J0D01*
G01*
X171985000Y-68006000D01*
G75*
G02*
X172085000Y-68106000I0J-100000D01*
G01*
X172085000Y-69456000D01*
G75*
G02*
X171985000Y-69556000I-100000J0D01*
G01*
G37*
G36*
G01*
X171335000Y-69556000D02*
X171135000Y-69556000D01*
G75*
G02*
X171035000Y-69456000I0J100000D01*
G01*
X171035000Y-68106000D01*
G75*
G02*
X171135000Y-68006000I100000J0D01*
G01*
X171335000Y-68006000D01*
G75*
G02*
X171435000Y-68106000I0J-100000D01*
G01*
X171435000Y-69456000D01*
G75*
G02*
X171335000Y-69556000I-100000J0D01*
G01*
G37*
G36*
G01*
X170685000Y-69556000D02*
X170485000Y-69556000D01*
G75*
G02*
X170385000Y-69456000I0J100000D01*
G01*
X170385000Y-68106000D01*
G75*
G02*
X170485000Y-68006000I100000J0D01*
G01*
X170685000Y-68006000D01*
G75*
G02*
X170785000Y-68106000I0J-100000D01*
G01*
X170785000Y-69456000D01*
G75*
G02*
X170685000Y-69556000I-100000J0D01*
G01*
G37*
G36*
G01*
X170035000Y-69556000D02*
X169835000Y-69556000D01*
G75*
G02*
X169735000Y-69456000I0J100000D01*
G01*
X169735000Y-68106000D01*
G75*
G02*
X169835000Y-68006000I100000J0D01*
G01*
X170035000Y-68006000D01*
G75*
G02*
X170135000Y-68106000I0J-100000D01*
G01*
X170135000Y-69456000D01*
G75*
G02*
X170035000Y-69556000I-100000J0D01*
G01*
G37*
G36*
G01*
X130637500Y-46418000D02*
X130982500Y-46418000D01*
G75*
G02*
X131130000Y-46565500I0J-147500D01*
G01*
X131130000Y-46860500D01*
G75*
G02*
X130982500Y-47008000I-147500J0D01*
G01*
X130637500Y-47008000D01*
G75*
G02*
X130490000Y-46860500I0J147500D01*
G01*
X130490000Y-46565500D01*
G75*
G02*
X130637500Y-46418000I147500J0D01*
G01*
G37*
G36*
G01*
X130637500Y-45448000D02*
X130982500Y-45448000D01*
G75*
G02*
X131130000Y-45595500I0J-147500D01*
G01*
X131130000Y-45890500D01*
G75*
G02*
X130982500Y-46038000I-147500J0D01*
G01*
X130637500Y-46038000D01*
G75*
G02*
X130490000Y-45890500I0J147500D01*
G01*
X130490000Y-45595500D01*
G75*
G02*
X130637500Y-45448000I147500J0D01*
G01*
G37*
G36*
G01*
X155021500Y-46418000D02*
X155366500Y-46418000D01*
G75*
G02*
X155514000Y-46565500I0J-147500D01*
G01*
X155514000Y-46860500D01*
G75*
G02*
X155366500Y-47008000I-147500J0D01*
G01*
X155021500Y-47008000D01*
G75*
G02*
X154874000Y-46860500I0J147500D01*
G01*
X154874000Y-46565500D01*
G75*
G02*
X155021500Y-46418000I147500J0D01*
G01*
G37*
G36*
G01*
X155021500Y-45448000D02*
X155366500Y-45448000D01*
G75*
G02*
X155514000Y-45595500I0J-147500D01*
G01*
X155514000Y-45890500D01*
G75*
G02*
X155366500Y-46038000I-147500J0D01*
G01*
X155021500Y-46038000D01*
G75*
G02*
X154874000Y-45890500I0J147500D01*
G01*
X154874000Y-45595500D01*
G75*
G02*
X155021500Y-45448000I147500J0D01*
G01*
G37*
G36*
G01*
X133177500Y-46418000D02*
X133522500Y-46418000D01*
G75*
G02*
X133670000Y-46565500I0J-147500D01*
G01*
X133670000Y-46860500D01*
G75*
G02*
X133522500Y-47008000I-147500J0D01*
G01*
X133177500Y-47008000D01*
G75*
G02*
X133030000Y-46860500I0J147500D01*
G01*
X133030000Y-46565500D01*
G75*
G02*
X133177500Y-46418000I147500J0D01*
G01*
G37*
G36*
G01*
X133177500Y-45448000D02*
X133522500Y-45448000D01*
G75*
G02*
X133670000Y-45595500I0J-147500D01*
G01*
X133670000Y-45890500D01*
G75*
G02*
X133522500Y-46038000I-147500J0D01*
G01*
X133177500Y-46038000D01*
G75*
G02*
X133030000Y-45890500I0J147500D01*
G01*
X133030000Y-45595500D01*
G75*
G02*
X133177500Y-45448000I147500J0D01*
G01*
G37*
G36*
G01*
X128442500Y-46038000D02*
X128097500Y-46038000D01*
G75*
G02*
X127950000Y-45890500I0J147500D01*
G01*
X127950000Y-45595500D01*
G75*
G02*
X128097500Y-45448000I147500J0D01*
G01*
X128442500Y-45448000D01*
G75*
G02*
X128590000Y-45595500I0J-147500D01*
G01*
X128590000Y-45890500D01*
G75*
G02*
X128442500Y-46038000I-147500J0D01*
G01*
G37*
G36*
G01*
X128442500Y-47008000D02*
X128097500Y-47008000D01*
G75*
G02*
X127950000Y-46860500I0J147500D01*
G01*
X127950000Y-46565500D01*
G75*
G02*
X128097500Y-46418000I147500J0D01*
G01*
X128442500Y-46418000D01*
G75*
G02*
X128590000Y-46565500I0J-147500D01*
G01*
X128590000Y-46860500D01*
G75*
G02*
X128442500Y-47008000I-147500J0D01*
G01*
G37*
G36*
G01*
X182290500Y-65088000D02*
X181945500Y-65088000D01*
G75*
G02*
X181798000Y-64940500I0J147500D01*
G01*
X181798000Y-64645500D01*
G75*
G02*
X181945500Y-64498000I147500J0D01*
G01*
X182290500Y-64498000D01*
G75*
G02*
X182438000Y-64645500I0J-147500D01*
G01*
X182438000Y-64940500D01*
G75*
G02*
X182290500Y-65088000I-147500J0D01*
G01*
G37*
G36*
G01*
X182290500Y-66058000D02*
X181945500Y-66058000D01*
G75*
G02*
X181798000Y-65910500I0J147500D01*
G01*
X181798000Y-65615500D01*
G75*
G02*
X181945500Y-65468000I147500J0D01*
G01*
X182290500Y-65468000D01*
G75*
G02*
X182438000Y-65615500I0J-147500D01*
G01*
X182438000Y-65910500D01*
G75*
G02*
X182290500Y-66058000I-147500J0D01*
G01*
G37*
G36*
G01*
X182961500Y-65468000D02*
X183306500Y-65468000D01*
G75*
G02*
X183454000Y-65615500I0J-147500D01*
G01*
X183454000Y-65910500D01*
G75*
G02*
X183306500Y-66058000I-147500J0D01*
G01*
X182961500Y-66058000D01*
G75*
G02*
X182814000Y-65910500I0J147500D01*
G01*
X182814000Y-65615500D01*
G75*
G02*
X182961500Y-65468000I147500J0D01*
G01*
G37*
G36*
G01*
X182961500Y-64498000D02*
X183306500Y-64498000D01*
G75*
G02*
X183454000Y-64645500I0J-147500D01*
G01*
X183454000Y-64940500D01*
G75*
G02*
X183306500Y-65088000I-147500J0D01*
G01*
X182961500Y-65088000D01*
G75*
G02*
X182814000Y-64940500I0J147500D01*
G01*
X182814000Y-64645500D01*
G75*
G02*
X182961500Y-64498000I147500J0D01*
G01*
G37*
G36*
G01*
X179642000Y-74503500D02*
X179642000Y-74848500D01*
G75*
G02*
X179494500Y-74996000I-147500J0D01*
G01*
X179199500Y-74996000D01*
G75*
G02*
X179052000Y-74848500I0J147500D01*
G01*
X179052000Y-74503500D01*
G75*
G02*
X179199500Y-74356000I147500J0D01*
G01*
X179494500Y-74356000D01*
G75*
G02*
X179642000Y-74503500I0J-147500D01*
G01*
G37*
G36*
G01*
X180612000Y-74503500D02*
X180612000Y-74848500D01*
G75*
G02*
X180464500Y-74996000I-147500J0D01*
G01*
X180169500Y-74996000D01*
G75*
G02*
X180022000Y-74848500I0J147500D01*
G01*
X180022000Y-74503500D01*
G75*
G02*
X180169500Y-74356000I147500J0D01*
G01*
X180464500Y-74356000D01*
G75*
G02*
X180612000Y-74503500I0J-147500D01*
G01*
G37*
G36*
G01*
X180022000Y-76626500D02*
X180022000Y-76281500D01*
G75*
G02*
X180169500Y-76134000I147500J0D01*
G01*
X180464500Y-76134000D01*
G75*
G02*
X180612000Y-76281500I0J-147500D01*
G01*
X180612000Y-76626500D01*
G75*
G02*
X180464500Y-76774000I-147500J0D01*
G01*
X180169500Y-76774000D01*
G75*
G02*
X180022000Y-76626500I0J147500D01*
G01*
G37*
G36*
G01*
X179052000Y-76626500D02*
X179052000Y-76281500D01*
G75*
G02*
X179199500Y-76134000I147500J0D01*
G01*
X179494500Y-76134000D01*
G75*
G02*
X179642000Y-76281500I0J-147500D01*
G01*
X179642000Y-76626500D01*
G75*
G02*
X179494500Y-76774000I-147500J0D01*
G01*
X179199500Y-76774000D01*
G75*
G02*
X179052000Y-76626500I0J147500D01*
G01*
G37*
G36*
G01*
X180022000Y-77642500D02*
X180022000Y-77297500D01*
G75*
G02*
X180169500Y-77150000I147500J0D01*
G01*
X180464500Y-77150000D01*
G75*
G02*
X180612000Y-77297500I0J-147500D01*
G01*
X180612000Y-77642500D01*
G75*
G02*
X180464500Y-77790000I-147500J0D01*
G01*
X180169500Y-77790000D01*
G75*
G02*
X180022000Y-77642500I0J147500D01*
G01*
G37*
G36*
G01*
X179052000Y-77642500D02*
X179052000Y-77297500D01*
G75*
G02*
X179199500Y-77150000I147500J0D01*
G01*
X179494500Y-77150000D01*
G75*
G02*
X179642000Y-77297500I0J-147500D01*
G01*
X179642000Y-77642500D01*
G75*
G02*
X179494500Y-77790000I-147500J0D01*
G01*
X179199500Y-77790000D01*
G75*
G02*
X179052000Y-77642500I0J147500D01*
G01*
G37*
G36*
G01*
X102534500Y-64072000D02*
X102189500Y-64072000D01*
G75*
G02*
X102042000Y-63924500I0J147500D01*
G01*
X102042000Y-63629500D01*
G75*
G02*
X102189500Y-63482000I147500J0D01*
G01*
X102534500Y-63482000D01*
G75*
G02*
X102682000Y-63629500I0J-147500D01*
G01*
X102682000Y-63924500D01*
G75*
G02*
X102534500Y-64072000I-147500J0D01*
G01*
G37*
G36*
G01*
X102534500Y-65042000D02*
X102189500Y-65042000D01*
G75*
G02*
X102042000Y-64894500I0J147500D01*
G01*
X102042000Y-64599500D01*
G75*
G02*
X102189500Y-64452000I147500J0D01*
G01*
X102534500Y-64452000D01*
G75*
G02*
X102682000Y-64599500I0J-147500D01*
G01*
X102682000Y-64894500D01*
G75*
G02*
X102534500Y-65042000I-147500J0D01*
G01*
G37*
G36*
G01*
X131762000Y-57830500D02*
X131762000Y-57485500D01*
G75*
G02*
X131909500Y-57338000I147500J0D01*
G01*
X132204500Y-57338000D01*
G75*
G02*
X132352000Y-57485500I0J-147500D01*
G01*
X132352000Y-57830500D01*
G75*
G02*
X132204500Y-57978000I-147500J0D01*
G01*
X131909500Y-57978000D01*
G75*
G02*
X131762000Y-57830500I0J147500D01*
G01*
G37*
G36*
G01*
X130792000Y-57830500D02*
X130792000Y-57485500D01*
G75*
G02*
X130939500Y-57338000I147500J0D01*
G01*
X131234500Y-57338000D01*
G75*
G02*
X131382000Y-57485500I0J-147500D01*
G01*
X131382000Y-57830500D01*
G75*
G02*
X131234500Y-57978000I-147500J0D01*
G01*
X130939500Y-57978000D01*
G75*
G02*
X130792000Y-57830500I0J147500D01*
G01*
G37*
G36*
G01*
X131508000Y-72816500D02*
X131508000Y-72471500D01*
G75*
G02*
X131655500Y-72324000I147500J0D01*
G01*
X131950500Y-72324000D01*
G75*
G02*
X132098000Y-72471500I0J-147500D01*
G01*
X132098000Y-72816500D01*
G75*
G02*
X131950500Y-72964000I-147500J0D01*
G01*
X131655500Y-72964000D01*
G75*
G02*
X131508000Y-72816500I0J147500D01*
G01*
G37*
G36*
G01*
X130538000Y-72816500D02*
X130538000Y-72471500D01*
G75*
G02*
X130685500Y-72324000I147500J0D01*
G01*
X130980500Y-72324000D01*
G75*
G02*
X131128000Y-72471500I0J-147500D01*
G01*
X131128000Y-72816500D01*
G75*
G02*
X130980500Y-72964000I-147500J0D01*
G01*
X130685500Y-72964000D01*
G75*
G02*
X130538000Y-72816500I0J147500D01*
G01*
G37*
G36*
G01*
X131762000Y-56560500D02*
X131762000Y-56215500D01*
G75*
G02*
X131909500Y-56068000I147500J0D01*
G01*
X132204500Y-56068000D01*
G75*
G02*
X132352000Y-56215500I0J-147500D01*
G01*
X132352000Y-56560500D01*
G75*
G02*
X132204500Y-56708000I-147500J0D01*
G01*
X131909500Y-56708000D01*
G75*
G02*
X131762000Y-56560500I0J147500D01*
G01*
G37*
G36*
G01*
X130792000Y-56560500D02*
X130792000Y-56215500D01*
G75*
G02*
X130939500Y-56068000I147500J0D01*
G01*
X131234500Y-56068000D01*
G75*
G02*
X131382000Y-56215500I0J-147500D01*
G01*
X131382000Y-56560500D01*
G75*
G02*
X131234500Y-56708000I-147500J0D01*
G01*
X130939500Y-56708000D01*
G75*
G02*
X130792000Y-56560500I0J147500D01*
G01*
G37*
G36*
G01*
X131508000Y-69514500D02*
X131508000Y-69169500D01*
G75*
G02*
X131655500Y-69022000I147500J0D01*
G01*
X131950500Y-69022000D01*
G75*
G02*
X132098000Y-69169500I0J-147500D01*
G01*
X132098000Y-69514500D01*
G75*
G02*
X131950500Y-69662000I-147500J0D01*
G01*
X131655500Y-69662000D01*
G75*
G02*
X131508000Y-69514500I0J147500D01*
G01*
G37*
G36*
G01*
X130538000Y-69514500D02*
X130538000Y-69169500D01*
G75*
G02*
X130685500Y-69022000I147500J0D01*
G01*
X130980500Y-69022000D01*
G75*
G02*
X131128000Y-69169500I0J-147500D01*
G01*
X131128000Y-69514500D01*
G75*
G02*
X130980500Y-69662000I-147500J0D01*
G01*
X130685500Y-69662000D01*
G75*
G02*
X130538000Y-69514500I0J147500D01*
G01*
G37*
G36*
G01*
X171114500Y-65342000D02*
X170769500Y-65342000D01*
G75*
G02*
X170622000Y-65194500I0J147500D01*
G01*
X170622000Y-64899500D01*
G75*
G02*
X170769500Y-64752000I147500J0D01*
G01*
X171114500Y-64752000D01*
G75*
G02*
X171262000Y-64899500I0J-147500D01*
G01*
X171262000Y-65194500D01*
G75*
G02*
X171114500Y-65342000I-147500J0D01*
G01*
G37*
G36*
G01*
X171114500Y-66312000D02*
X170769500Y-66312000D01*
G75*
G02*
X170622000Y-66164500I0J147500D01*
G01*
X170622000Y-65869500D01*
G75*
G02*
X170769500Y-65722000I147500J0D01*
G01*
X171114500Y-65722000D01*
G75*
G02*
X171262000Y-65869500I0J-147500D01*
G01*
X171262000Y-66164500D01*
G75*
G02*
X171114500Y-66312000I-147500J0D01*
G01*
G37*
G36*
G01*
X169753500Y-65722000D02*
X170098500Y-65722000D01*
G75*
G02*
X170246000Y-65869500I0J-147500D01*
G01*
X170246000Y-66164500D01*
G75*
G02*
X170098500Y-66312000I-147500J0D01*
G01*
X169753500Y-66312000D01*
G75*
G02*
X169606000Y-66164500I0J147500D01*
G01*
X169606000Y-65869500D01*
G75*
G02*
X169753500Y-65722000I147500J0D01*
G01*
G37*
G36*
G01*
X169753500Y-64752000D02*
X170098500Y-64752000D01*
G75*
G02*
X170246000Y-64899500I0J-147500D01*
G01*
X170246000Y-65194500D01*
G75*
G02*
X170098500Y-65342000I-147500J0D01*
G01*
X169753500Y-65342000D01*
G75*
G02*
X169606000Y-65194500I0J147500D01*
G01*
X169606000Y-64899500D01*
G75*
G02*
X169753500Y-64752000I147500J0D01*
G01*
G37*
G36*
G01*
X167958000Y-74249500D02*
X167958000Y-74594500D01*
G75*
G02*
X167810500Y-74742000I-147500J0D01*
G01*
X167515500Y-74742000D01*
G75*
G02*
X167368000Y-74594500I0J147500D01*
G01*
X167368000Y-74249500D01*
G75*
G02*
X167515500Y-74102000I147500J0D01*
G01*
X167810500Y-74102000D01*
G75*
G02*
X167958000Y-74249500I0J-147500D01*
G01*
G37*
G36*
G01*
X168928000Y-74249500D02*
X168928000Y-74594500D01*
G75*
G02*
X168780500Y-74742000I-147500J0D01*
G01*
X168485500Y-74742000D01*
G75*
G02*
X168338000Y-74594500I0J147500D01*
G01*
X168338000Y-74249500D01*
G75*
G02*
X168485500Y-74102000I147500J0D01*
G01*
X168780500Y-74102000D01*
G75*
G02*
X168928000Y-74249500I0J-147500D01*
G01*
G37*
G36*
G01*
X168338000Y-76880500D02*
X168338000Y-76535500D01*
G75*
G02*
X168485500Y-76388000I147500J0D01*
G01*
X168780500Y-76388000D01*
G75*
G02*
X168928000Y-76535500I0J-147500D01*
G01*
X168928000Y-76880500D01*
G75*
G02*
X168780500Y-77028000I-147500J0D01*
G01*
X168485500Y-77028000D01*
G75*
G02*
X168338000Y-76880500I0J147500D01*
G01*
G37*
G36*
G01*
X167368000Y-76880500D02*
X167368000Y-76535500D01*
G75*
G02*
X167515500Y-76388000I147500J0D01*
G01*
X167810500Y-76388000D01*
G75*
G02*
X167958000Y-76535500I0J-147500D01*
G01*
X167958000Y-76880500D01*
G75*
G02*
X167810500Y-77028000I-147500J0D01*
G01*
X167515500Y-77028000D01*
G75*
G02*
X167368000Y-76880500I0J147500D01*
G01*
G37*
G36*
G01*
X168338000Y-77896500D02*
X168338000Y-77551500D01*
G75*
G02*
X168485500Y-77404000I147500J0D01*
G01*
X168780500Y-77404000D01*
G75*
G02*
X168928000Y-77551500I0J-147500D01*
G01*
X168928000Y-77896500D01*
G75*
G02*
X168780500Y-78044000I-147500J0D01*
G01*
X168485500Y-78044000D01*
G75*
G02*
X168338000Y-77896500I0J147500D01*
G01*
G37*
G36*
G01*
X167368000Y-77896500D02*
X167368000Y-77551500D01*
G75*
G02*
X167515500Y-77404000I147500J0D01*
G01*
X167810500Y-77404000D01*
G75*
G02*
X167958000Y-77551500I0J-147500D01*
G01*
X167958000Y-77896500D01*
G75*
G02*
X167810500Y-78044000I-147500J0D01*
G01*
X167515500Y-78044000D01*
G75*
G02*
X167368000Y-77896500I0J147500D01*
G01*
G37*
D18*
X104145000Y-63045000D03*
X108705000Y-63045000D03*
D19*
X107950000Y-55070000D03*
X104900000Y-58420000D03*
X104900000Y-55070000D03*
X107950000Y-58420000D03*
D20*
X136507000Y-51327000D03*
X136507000Y-52597000D03*
X136507000Y-53867000D03*
X136507000Y-55137000D03*
X136507000Y-56407000D03*
X136507000Y-57677000D03*
X136507000Y-58947000D03*
D21*
X148082000Y-57912000D03*
X143232000Y-52362000D03*
X148082000Y-52362000D03*
X143232000Y-57912000D03*
D20*
X136531000Y-65259000D03*
X136531000Y-66529000D03*
X136531000Y-67799000D03*
X136531000Y-69069000D03*
X136531000Y-70339000D03*
X136531000Y-71609000D03*
X136531000Y-72879000D03*
D21*
X148106000Y-71844000D03*
X143256000Y-66294000D03*
X148106000Y-66294000D03*
X143256000Y-71844000D03*
D17*
X127762000Y-53468000D03*
X127762000Y-56768000D03*
D22*
X105538000Y-66040000D03*
X108838000Y-66040000D03*
G36*
G01*
X113242000Y-52188000D02*
X114342000Y-52188000D01*
G75*
G02*
X114592000Y-52438000I0J-250000D01*
G01*
X114592000Y-55263000D01*
G75*
G02*
X114342000Y-55513000I-250000J0D01*
G01*
X113242000Y-55513000D01*
G75*
G02*
X112992000Y-55263000I0J250000D01*
G01*
X112992000Y-52438000D01*
G75*
G02*
X113242000Y-52188000I250000J0D01*
G01*
G37*
G36*
G01*
X113242000Y-57263000D02*
X114342000Y-57263000D01*
G75*
G02*
X114592000Y-57513000I0J-250000D01*
G01*
X114592000Y-60338000D01*
G75*
G02*
X114342000Y-60588000I-250000J0D01*
G01*
X113242000Y-60588000D01*
G75*
G02*
X112992000Y-60338000I0J250000D01*
G01*
X112992000Y-57513000D01*
G75*
G02*
X113242000Y-57263000I250000J0D01*
G01*
G37*
G36*
G01*
X131762000Y-59100500D02*
X131762000Y-58755500D01*
G75*
G02*
X131909500Y-58608000I147500J0D01*
G01*
X132204500Y-58608000D01*
G75*
G02*
X132352000Y-58755500I0J-147500D01*
G01*
X132352000Y-59100500D01*
G75*
G02*
X132204500Y-59248000I-147500J0D01*
G01*
X131909500Y-59248000D01*
G75*
G02*
X131762000Y-59100500I0J147500D01*
G01*
G37*
G36*
G01*
X130792000Y-59100500D02*
X130792000Y-58755500D01*
G75*
G02*
X130939500Y-58608000I147500J0D01*
G01*
X131234500Y-58608000D01*
G75*
G02*
X131382000Y-58755500I0J-147500D01*
G01*
X131382000Y-59100500D01*
G75*
G02*
X131234500Y-59248000I-147500J0D01*
G01*
X130939500Y-59248000D01*
G75*
G02*
X130792000Y-59100500I0J147500D01*
G01*
G37*
G36*
G01*
X131508000Y-71800500D02*
X131508000Y-71455500D01*
G75*
G02*
X131655500Y-71308000I147500J0D01*
G01*
X131950500Y-71308000D01*
G75*
G02*
X132098000Y-71455500I0J-147500D01*
G01*
X132098000Y-71800500D01*
G75*
G02*
X131950500Y-71948000I-147500J0D01*
G01*
X131655500Y-71948000D01*
G75*
G02*
X131508000Y-71800500I0J147500D01*
G01*
G37*
G36*
G01*
X130538000Y-71800500D02*
X130538000Y-71455500D01*
G75*
G02*
X130685500Y-71308000I147500J0D01*
G01*
X130980500Y-71308000D01*
G75*
G02*
X131128000Y-71455500I0J-147500D01*
G01*
X131128000Y-71800500D01*
G75*
G02*
X130980500Y-71948000I-147500J0D01*
G01*
X130685500Y-71948000D01*
G75*
G02*
X130538000Y-71800500I0J147500D01*
G01*
G37*
G36*
G01*
X131382000Y-55199500D02*
X131382000Y-55544500D01*
G75*
G02*
X131234500Y-55692000I-147500J0D01*
G01*
X130939500Y-55692000D01*
G75*
G02*
X130792000Y-55544500I0J147500D01*
G01*
X130792000Y-55199500D01*
G75*
G02*
X130939500Y-55052000I147500J0D01*
G01*
X131234500Y-55052000D01*
G75*
G02*
X131382000Y-55199500I0J-147500D01*
G01*
G37*
G36*
G01*
X132352000Y-55199500D02*
X132352000Y-55544500D01*
G75*
G02*
X132204500Y-55692000I-147500J0D01*
G01*
X131909500Y-55692000D01*
G75*
G02*
X131762000Y-55544500I0J147500D01*
G01*
X131762000Y-55199500D01*
G75*
G02*
X131909500Y-55052000I147500J0D01*
G01*
X132204500Y-55052000D01*
G75*
G02*
X132352000Y-55199500I0J-147500D01*
G01*
G37*
G36*
G01*
X131151000Y-70185500D02*
X131151000Y-70530500D01*
G75*
G02*
X131003500Y-70678000I-147500J0D01*
G01*
X130708500Y-70678000D01*
G75*
G02*
X130561000Y-70530500I0J147500D01*
G01*
X130561000Y-70185500D01*
G75*
G02*
X130708500Y-70038000I147500J0D01*
G01*
X131003500Y-70038000D01*
G75*
G02*
X131151000Y-70185500I0J-147500D01*
G01*
G37*
G36*
G01*
X132121000Y-70185500D02*
X132121000Y-70530500D01*
G75*
G02*
X131973500Y-70678000I-147500J0D01*
G01*
X131678500Y-70678000D01*
G75*
G02*
X131531000Y-70530500I0J147500D01*
G01*
X131531000Y-70185500D01*
G75*
G02*
X131678500Y-70038000I147500J0D01*
G01*
X131973500Y-70038000D01*
G75*
G02*
X132121000Y-70185500I0J-147500D01*
G01*
G37*
G36*
G01*
X112857500Y-64175000D02*
X113202500Y-64175000D01*
G75*
G02*
X113350000Y-64322500I0J-147500D01*
G01*
X113350000Y-64617500D01*
G75*
G02*
X113202500Y-64765000I-147500J0D01*
G01*
X112857500Y-64765000D01*
G75*
G02*
X112710000Y-64617500I0J147500D01*
G01*
X112710000Y-64322500D01*
G75*
G02*
X112857500Y-64175000I147500J0D01*
G01*
G37*
G36*
G01*
X112857500Y-63205000D02*
X113202500Y-63205000D01*
G75*
G02*
X113350000Y-63352500I0J-147500D01*
G01*
X113350000Y-63647500D01*
G75*
G02*
X113202500Y-63795000I-147500J0D01*
G01*
X112857500Y-63795000D01*
G75*
G02*
X112710000Y-63647500I0J147500D01*
G01*
X112710000Y-63352500D01*
G75*
G02*
X112857500Y-63205000I147500J0D01*
G01*
G37*
G36*
G01*
X136479500Y-77660000D02*
X136824500Y-77660000D01*
G75*
G02*
X136972000Y-77807500I0J-147500D01*
G01*
X136972000Y-78102500D01*
G75*
G02*
X136824500Y-78250000I-147500J0D01*
G01*
X136479500Y-78250000D01*
G75*
G02*
X136332000Y-78102500I0J147500D01*
G01*
X136332000Y-77807500D01*
G75*
G02*
X136479500Y-77660000I147500J0D01*
G01*
G37*
G36*
G01*
X136479500Y-76690000D02*
X136824500Y-76690000D01*
G75*
G02*
X136972000Y-76837500I0J-147500D01*
G01*
X136972000Y-77132500D01*
G75*
G02*
X136824500Y-77280000I-147500J0D01*
G01*
X136479500Y-77280000D01*
G75*
G02*
X136332000Y-77132500I0J147500D01*
G01*
X136332000Y-76837500D01*
G75*
G02*
X136479500Y-76690000I147500J0D01*
G01*
G37*
G36*
G01*
X140272000Y-61803500D02*
X140272000Y-62148500D01*
G75*
G02*
X140124500Y-62296000I-147500J0D01*
G01*
X139829500Y-62296000D01*
G75*
G02*
X139682000Y-62148500I0J147500D01*
G01*
X139682000Y-61803500D01*
G75*
G02*
X139829500Y-61656000I147500J0D01*
G01*
X140124500Y-61656000D01*
G75*
G02*
X140272000Y-61803500I0J-147500D01*
G01*
G37*
G36*
G01*
X141242000Y-61803500D02*
X141242000Y-62148500D01*
G75*
G02*
X141094500Y-62296000I-147500J0D01*
G01*
X140799500Y-62296000D01*
G75*
G02*
X140652000Y-62148500I0J147500D01*
G01*
X140652000Y-61803500D01*
G75*
G02*
X140799500Y-61656000I147500J0D01*
G01*
X141094500Y-61656000D01*
G75*
G02*
X141242000Y-61803500I0J-147500D01*
G01*
G37*
G36*
G01*
X140018000Y-76789500D02*
X140018000Y-77134500D01*
G75*
G02*
X139870500Y-77282000I-147500J0D01*
G01*
X139575500Y-77282000D01*
G75*
G02*
X139428000Y-77134500I0J147500D01*
G01*
X139428000Y-76789500D01*
G75*
G02*
X139575500Y-76642000I147500J0D01*
G01*
X139870500Y-76642000D01*
G75*
G02*
X140018000Y-76789500I0J-147500D01*
G01*
G37*
G36*
G01*
X140988000Y-76789500D02*
X140988000Y-77134500D01*
G75*
G02*
X140840500Y-77282000I-147500J0D01*
G01*
X140545500Y-77282000D01*
G75*
G02*
X140398000Y-77134500I0J147500D01*
G01*
X140398000Y-76789500D01*
G75*
G02*
X140545500Y-76642000I147500J0D01*
G01*
X140840500Y-76642000D01*
G75*
G02*
X140988000Y-76789500I0J-147500D01*
G01*
G37*
G36*
G01*
X149270500Y-47562000D02*
X148925500Y-47562000D01*
G75*
G02*
X148778000Y-47414500I0J147500D01*
G01*
X148778000Y-47119500D01*
G75*
G02*
X148925500Y-46972000I147500J0D01*
G01*
X149270500Y-46972000D01*
G75*
G02*
X149418000Y-47119500I0J-147500D01*
G01*
X149418000Y-47414500D01*
G75*
G02*
X149270500Y-47562000I-147500J0D01*
G01*
G37*
G36*
G01*
X149270500Y-48532000D02*
X148925500Y-48532000D01*
G75*
G02*
X148778000Y-48384500I0J147500D01*
G01*
X148778000Y-48089500D01*
G75*
G02*
X148925500Y-47942000I147500J0D01*
G01*
X149270500Y-47942000D01*
G75*
G02*
X149418000Y-48089500I0J-147500D01*
G01*
X149418000Y-48384500D01*
G75*
G02*
X149270500Y-48532000I-147500J0D01*
G01*
G37*
G36*
G01*
X149433500Y-78445000D02*
X149778500Y-78445000D01*
G75*
G02*
X149926000Y-78592500I0J-147500D01*
G01*
X149926000Y-78887500D01*
G75*
G02*
X149778500Y-79035000I-147500J0D01*
G01*
X149433500Y-79035000D01*
G75*
G02*
X149286000Y-78887500I0J147500D01*
G01*
X149286000Y-78592500D01*
G75*
G02*
X149433500Y-78445000I147500J0D01*
G01*
G37*
G36*
G01*
X149433500Y-77475000D02*
X149778500Y-77475000D01*
G75*
G02*
X149926000Y-77622500I0J-147500D01*
G01*
X149926000Y-77917500D01*
G75*
G02*
X149778500Y-78065000I-147500J0D01*
G01*
X149433500Y-78065000D01*
G75*
G02*
X149286000Y-77917500I0J147500D01*
G01*
X149286000Y-77622500D01*
G75*
G02*
X149433500Y-77475000I147500J0D01*
G01*
G37*
G36*
G01*
X173164000Y-64434500D02*
X173164000Y-64089500D01*
G75*
G02*
X173311500Y-63942000I147500J0D01*
G01*
X173606500Y-63942000D01*
G75*
G02*
X173754000Y-64089500I0J-147500D01*
G01*
X173754000Y-64434500D01*
G75*
G02*
X173606500Y-64582000I-147500J0D01*
G01*
X173311500Y-64582000D01*
G75*
G02*
X173164000Y-64434500I0J147500D01*
G01*
G37*
G36*
G01*
X172194000Y-64434500D02*
X172194000Y-64089500D01*
G75*
G02*
X172341500Y-63942000I147500J0D01*
G01*
X172636500Y-63942000D01*
G75*
G02*
X172784000Y-64089500I0J-147500D01*
G01*
X172784000Y-64434500D01*
G75*
G02*
X172636500Y-64582000I-147500J0D01*
G01*
X172341500Y-64582000D01*
G75*
G02*
X172194000Y-64434500I0J147500D01*
G01*
G37*
G36*
G01*
X176974000Y-65704500D02*
X176974000Y-65359500D01*
G75*
G02*
X177121500Y-65212000I147500J0D01*
G01*
X177416500Y-65212000D01*
G75*
G02*
X177564000Y-65359500I0J-147500D01*
G01*
X177564000Y-65704500D01*
G75*
G02*
X177416500Y-65852000I-147500J0D01*
G01*
X177121500Y-65852000D01*
G75*
G02*
X176974000Y-65704500I0J147500D01*
G01*
G37*
G36*
G01*
X176004000Y-65704500D02*
X176004000Y-65359500D01*
G75*
G02*
X176151500Y-65212000I147500J0D01*
G01*
X176446500Y-65212000D01*
G75*
G02*
X176594000Y-65359500I0J-147500D01*
G01*
X176594000Y-65704500D01*
G75*
G02*
X176446500Y-65852000I-147500J0D01*
G01*
X176151500Y-65852000D01*
G75*
G02*
X176004000Y-65704500I0J147500D01*
G01*
G37*
G36*
G01*
X174308000Y-65359500D02*
X174308000Y-65704500D01*
G75*
G02*
X174160500Y-65852000I-147500J0D01*
G01*
X173865500Y-65852000D01*
G75*
G02*
X173718000Y-65704500I0J147500D01*
G01*
X173718000Y-65359500D01*
G75*
G02*
X173865500Y-65212000I147500J0D01*
G01*
X174160500Y-65212000D01*
G75*
G02*
X174308000Y-65359500I0J-147500D01*
G01*
G37*
G36*
G01*
X175278000Y-65359500D02*
X175278000Y-65704500D01*
G75*
G02*
X175130500Y-65852000I-147500J0D01*
G01*
X174835500Y-65852000D01*
G75*
G02*
X174688000Y-65704500I0J147500D01*
G01*
X174688000Y-65359500D01*
G75*
G02*
X174835500Y-65212000I147500J0D01*
G01*
X175130500Y-65212000D01*
G75*
G02*
X175278000Y-65359500I0J-147500D01*
G01*
G37*
G36*
G01*
X185356000Y-64434500D02*
X185356000Y-64089500D01*
G75*
G02*
X185503500Y-63942000I147500J0D01*
G01*
X185798500Y-63942000D01*
G75*
G02*
X185946000Y-64089500I0J-147500D01*
G01*
X185946000Y-64434500D01*
G75*
G02*
X185798500Y-64582000I-147500J0D01*
G01*
X185503500Y-64582000D01*
G75*
G02*
X185356000Y-64434500I0J147500D01*
G01*
G37*
G36*
G01*
X184386000Y-64434500D02*
X184386000Y-64089500D01*
G75*
G02*
X184533500Y-63942000I147500J0D01*
G01*
X184828500Y-63942000D01*
G75*
G02*
X184976000Y-64089500I0J-147500D01*
G01*
X184976000Y-64434500D01*
G75*
G02*
X184828500Y-64582000I-147500J0D01*
G01*
X184533500Y-64582000D01*
G75*
G02*
X184386000Y-64434500I0J147500D01*
G01*
G37*
G36*
G01*
X187978000Y-64089500D02*
X187978000Y-64434500D01*
G75*
G02*
X187830500Y-64582000I-147500J0D01*
G01*
X187535500Y-64582000D01*
G75*
G02*
X187388000Y-64434500I0J147500D01*
G01*
X187388000Y-64089500D01*
G75*
G02*
X187535500Y-63942000I147500J0D01*
G01*
X187830500Y-63942000D01*
G75*
G02*
X187978000Y-64089500I0J-147500D01*
G01*
G37*
G36*
G01*
X187008000Y-64089500D02*
X187008000Y-64434500D01*
G75*
G02*
X186860500Y-64582000I-147500J0D01*
G01*
X186565500Y-64582000D01*
G75*
G02*
X186418000Y-64434500I0J147500D01*
G01*
X186418000Y-64089500D01*
G75*
G02*
X186565500Y-63942000I147500J0D01*
G01*
X186860500Y-63942000D01*
G75*
G02*
X187008000Y-64089500I0J-147500D01*
G01*
G37*
G36*
G01*
X189293854Y-64045860D02*
X189293854Y-64390860D01*
G75*
G02*
X189146354Y-64538360I-147500J0D01*
G01*
X188851354Y-64538360D01*
G75*
G02*
X188703854Y-64390860I0J147500D01*
G01*
X188703854Y-64045860D01*
G75*
G02*
X188851354Y-63898360I147500J0D01*
G01*
X189146354Y-63898360D01*
G75*
G02*
X189293854Y-64045860I0J-147500D01*
G01*
G37*
G36*
G01*
X190263854Y-64045860D02*
X190263854Y-64390860D01*
G75*
G02*
X190116354Y-64538360I-147500J0D01*
G01*
X189821354Y-64538360D01*
G75*
G02*
X189673854Y-64390860I0J147500D01*
G01*
X189673854Y-64045860D01*
G75*
G02*
X189821354Y-63898360I147500J0D01*
G01*
X190116354Y-63898360D01*
G75*
G02*
X190263854Y-64045860I0J-147500D01*
G01*
G37*
M02*
