G04*
G04 #@! TF.GenerationSoftware,Altium Limited,Altium Designer,18.1.7 (191)*
G04*
G04 Layer_Color=16711935*
%FSLAX25Y25*%
%MOIN*%
G70*
G01*
G75*
%ADD11C,0.02000*%
%ADD13C,0.00787*%
%ADD15C,0.00394*%
%ADD16C,0.00500*%
%ADD17C,0.00300*%
%ADD137C,0.00100*%
D11*
X285968Y322500D02*
G03*
X285968Y322500I-1500J0D01*
G01*
X85829Y393000D02*
G03*
X85829Y393000I-1500J0D01*
G01*
X468500Y567000D02*
G03*
X468500Y567000I-1500J0D01*
G01*
X107547Y322516D02*
G03*
X107547Y322516I-1500J0D01*
G01*
X153969D02*
G03*
X153969Y322516I-1500J0D01*
G01*
X217000Y322016D02*
G03*
X217000Y322016I-1500J0D01*
G01*
X336469D02*
G03*
X336469Y322016I-1500J0D01*
G01*
X608468Y322516D02*
G03*
X608468Y322516I-1500J0D01*
G01*
X638193Y324016D02*
G03*
X638193Y324016I-1500J0D01*
G01*
X668000Y323500D02*
G03*
X668000Y323500I-1500J0D01*
G01*
X461000Y646571D02*
G03*
X461000Y646571I-1500J0D01*
G01*
X463000Y714000D02*
G03*
X463000Y714000I-1500J0D01*
G01*
D13*
X727488Y345779D02*
X733591D01*
Y355780D01*
X727488D02*
X733591D01*
X727488Y345779D02*
Y355780D01*
X708776Y327059D02*
X720784D01*
X708776Y313201D02*
Y327059D01*
Y313201D02*
X720784D01*
Y327059D01*
X708776Y388358D02*
X720784D01*
X708776Y374500D02*
Y388358D01*
Y374500D02*
X720784D01*
Y388358D01*
X678354Y374500D02*
X727488D01*
X678354Y327059D02*
Y374500D01*
Y327059D02*
X727488D01*
Y374500D01*
X420874Y567228D02*
Y581087D01*
X405126D02*
X420874D01*
X405126Y567228D02*
Y581087D01*
X420874Y520496D02*
Y534354D01*
X405126Y520496D02*
X420874D01*
X405126D02*
Y534354D01*
X400933D02*
X450067D01*
Y567228D01*
X400933D02*
X450067D01*
X400933Y534354D02*
Y567228D01*
X245354Y651882D02*
X339134D01*
X245354D02*
Y764716D01*
X339134D01*
Y651882D02*
Y764716D01*
X356749Y243843D02*
Y375339D01*
Y243843D02*
X565016D01*
Y375339D01*
X356749D02*
X565016D01*
X319676Y521995D02*
X350676Y558940D01*
X249944Y643464D02*
X350676Y558940D01*
X218944Y606519D02*
X249944Y643464D01*
X218944Y606519D02*
X319676Y521995D01*
X204556Y524725D02*
X235556Y561670D01*
X134824Y646194D02*
X235556Y561670D01*
X103824Y609249D02*
X134824Y646194D01*
X103824Y609249D02*
X204556Y524725D01*
X189705Y655315D02*
Y768150D01*
X95925D02*
X189705D01*
X95925Y655315D02*
Y768150D01*
Y655315D02*
X189705D01*
X415874Y652437D02*
Y666295D01*
X400126D02*
X415874D01*
X400126Y652437D02*
Y666295D01*
X415874Y605705D02*
Y619563D01*
X400126Y605705D02*
X415874D01*
X400126D02*
Y619563D01*
X395933D02*
X445067D01*
Y652437D01*
X395933D02*
X445067D01*
X395933Y619563D02*
Y652437D01*
X416595Y718437D02*
Y732295D01*
X400846D02*
X416595D01*
X400846Y718437D02*
Y732295D01*
X416595Y671705D02*
Y685563D01*
X400846Y671705D02*
X416595D01*
X400846D02*
Y685563D01*
X396654D02*
X445787D01*
Y718437D01*
X396654D02*
X445787D01*
X396654Y685563D02*
Y718437D01*
X575988Y616441D02*
Y663882D01*
X526854Y616441D02*
X575988D01*
X526854D02*
Y663882D01*
X575988D01*
X569283D02*
Y677740D01*
X557276Y663882D02*
X569283D01*
X557276D02*
Y677740D01*
X569283D01*
Y602583D02*
Y616441D01*
X557276Y602583D02*
X569283D01*
X557276D02*
Y616441D01*
X569283D01*
X575988Y635161D02*
Y645161D01*
X582091D01*
Y635161D02*
Y645161D01*
X575988Y635161D02*
X582091D01*
D15*
X599299Y644693D02*
G03*
X599299Y644693I-1969J0D01*
G01*
X666512Y662043D02*
X728362D01*
X666512Y614641D02*
X728362D01*
Y662043D01*
X666512Y614641D02*
Y662043D01*
X618366Y531716D02*
X657736D01*
X618366Y571086D02*
X657736D01*
Y531716D02*
Y571086D01*
X618366Y531716D02*
Y571086D01*
X619500Y622799D02*
X628161D01*
X619500Y617287D02*
X628161D01*
X619500D02*
Y622799D01*
X628161Y617287D02*
Y622799D01*
X493319Y442684D02*
X497059Y446424D01*
Y442684D02*
Y453944D01*
X491941D02*
X497059D01*
X491941Y442684D02*
Y453944D01*
Y442684D02*
X497059D01*
X697189Y436217D02*
Y450783D01*
X670811Y436217D02*
Y450783D01*
X697189D01*
X670811Y436217D02*
X697189D01*
X680602Y591295D02*
X693398D01*
X680602Y597791D02*
X693398D01*
Y591295D02*
Y597791D01*
X680602Y591295D02*
Y597791D01*
X611370Y495752D02*
Y502248D01*
X607630Y495752D02*
Y502248D01*
X611370D01*
X607630Y495752D02*
X611370D01*
X627933Y627732D02*
X632067D01*
X627933Y629897D02*
X632067D01*
Y627732D02*
Y629897D01*
X627933Y627732D02*
Y629897D01*
X609535Y641149D02*
Y656897D01*
X593787Y641149D02*
Y656897D01*
X609535D01*
X593787Y641149D02*
X609535D01*
X108421Y435980D02*
Y521020D01*
X248579Y435980D02*
Y521020D01*
X108421Y435980D02*
X248579D01*
X108421Y521020D02*
X248579D01*
X518630Y451606D02*
Y458299D01*
X522370Y451606D02*
Y458299D01*
X518630Y451606D02*
X522370D01*
X518630Y458299D02*
X522370D01*
X698130Y398252D02*
X701870D01*
X698130Y404748D02*
X701870D01*
X698130Y398252D02*
Y404748D01*
X701870Y398252D02*
Y404748D01*
X724752Y437102D02*
X731248D01*
X724752Y449898D02*
X731248D01*
X724752Y437102D02*
Y449898D01*
X731248Y437102D02*
Y449898D01*
X567359Y465681D02*
X573855D01*
X567359Y461941D02*
X573855D01*
X567359D02*
Y465681D01*
X573855Y461941D02*
Y465681D01*
X621417Y654933D02*
X623583D01*
X621417Y659067D02*
X623583D01*
X621417Y654933D02*
Y659067D01*
X623583Y654933D02*
Y659067D01*
X107921Y340980D02*
Y426020D01*
X248079Y340980D02*
Y426020D01*
X107921Y340980D02*
X248079D01*
X107921Y426020D02*
X248079D01*
X713898Y591295D02*
Y597791D01*
X701102Y591295D02*
Y597791D01*
Y591295D02*
X713898D01*
X701102Y597791D02*
X713898D01*
X708417Y398122D02*
Y402256D01*
X710583Y398122D02*
Y402256D01*
X708417Y398122D02*
X710583D01*
X708417Y402256D02*
X710583D01*
X685134Y408613D02*
Y412747D01*
X687299Y408613D02*
Y412747D01*
X685134Y408613D02*
X687299D01*
X685134Y412747D02*
X687299D01*
X678634Y408613D02*
Y412747D01*
X680799Y408613D02*
Y412747D01*
X678634Y408613D02*
X680799D01*
X678634Y412747D02*
X680799D01*
X692634Y408613D02*
Y412747D01*
X694799Y408613D02*
Y412747D01*
X692634Y408613D02*
X694799D01*
X692634Y412747D02*
X694799D01*
X633409Y436984D02*
X639905D01*
X633409Y449779D02*
X639905D01*
X633409Y436984D02*
Y449779D01*
X639905Y436984D02*
Y449779D01*
X646752Y437145D02*
X653248D01*
X646752Y449940D02*
X653248D01*
X646752Y437145D02*
Y449940D01*
X653248Y437145D02*
Y449940D01*
X658917Y441933D02*
Y446067D01*
X661083Y441933D02*
Y446067D01*
X658917Y441933D02*
X661083D01*
X658917Y446067D02*
X661083D01*
X714252Y437102D02*
X720748D01*
X714252Y449897D02*
X720748D01*
X714252Y437102D02*
Y449897D01*
X720748Y437102D02*
Y449897D01*
X706130Y440752D02*
X709870D01*
X706130Y447248D02*
X709870D01*
X706130Y440752D02*
Y447248D01*
X709870Y440752D02*
Y447248D01*
X628933Y587917D02*
Y590083D01*
X633067Y587917D02*
Y590083D01*
X628933D02*
X633067D01*
X628933Y587917D02*
X633067D01*
X647260Y515165D02*
X649425D01*
X647260Y519299D02*
X649425D01*
X647260Y515165D02*
Y519299D01*
X649425Y515165D02*
Y519299D01*
X610224Y544433D02*
Y548567D01*
X608059Y544433D02*
Y548567D01*
X610224D01*
X608059Y544433D02*
X610224D01*
X683583Y537933D02*
Y542067D01*
X681417Y537933D02*
Y542067D01*
X683583D01*
X681417Y537933D02*
X683583D01*
X654917Y515433D02*
X657083D01*
X654917Y519567D02*
X657083D01*
X654917Y515433D02*
Y519567D01*
X657083Y515433D02*
Y519567D01*
X697917Y560878D02*
X700083D01*
X697917Y556744D02*
X700083D01*
Y560878D01*
X697917Y556744D02*
Y560878D01*
X685338Y572567D02*
X687504D01*
X685338Y568433D02*
X687504D01*
Y572567D01*
X685338Y568433D02*
Y572567D01*
X676138Y537744D02*
X678303D01*
X676138Y541878D02*
X678303D01*
X676138Y537744D02*
Y541878D01*
X678303Y537744D02*
Y541878D01*
X605933Y583917D02*
Y586083D01*
X610067Y583917D02*
Y586083D01*
X605933D02*
X610067D01*
X605933Y583917D02*
X610067D01*
X606433Y575917D02*
X610567D01*
X606433Y578083D02*
X610567D01*
Y575917D02*
Y578083D01*
X606433Y575917D02*
Y578083D01*
X605252Y589630D02*
Y593370D01*
X611748Y589630D02*
Y593370D01*
X605252D02*
X611748D01*
X605252Y589630D02*
X611748D01*
X645039Y508897D02*
Y512637D01*
X638543Y508897D02*
Y512637D01*
Y508897D02*
X645039D01*
X638543Y512637D02*
X645039D01*
X639941Y496350D02*
X644075D01*
X639941Y494185D02*
X644075D01*
X639941D02*
Y496350D01*
X644075Y494185D02*
Y496350D01*
Y501642D02*
Y503807D01*
X639941Y501642D02*
Y503807D01*
Y501642D02*
X644075D01*
X639941Y503807D02*
X644075D01*
X695417Y540933D02*
X697583D01*
X695417Y545067D02*
X697583D01*
X695417Y540933D02*
Y545067D01*
X697583Y540933D02*
Y545067D01*
X614417Y654933D02*
X616583D01*
X614417Y659067D02*
X616583D01*
X614417Y654933D02*
Y659067D01*
X616583Y654933D02*
Y659067D01*
X595941Y664744D02*
Y670256D01*
X587280Y664744D02*
Y670256D01*
Y664744D02*
X595941D01*
X587280Y670256D02*
X595941D01*
X615295Y601417D02*
Y603583D01*
X611161Y601417D02*
Y603583D01*
Y601417D02*
X615295D01*
X611161Y603583D02*
X615295D01*
X638583Y589248D02*
Y593382D01*
X636417Y589248D02*
Y593382D01*
X638583D01*
X636417Y589248D02*
X638583D01*
X688417Y540933D02*
X690583D01*
X688417Y545067D02*
X690583D01*
X688417Y540933D02*
Y545067D01*
X690583Y540933D02*
Y545067D01*
X587433Y617961D02*
X591567D01*
X587433Y620126D02*
X591567D01*
Y617961D02*
Y620126D01*
X587433Y617961D02*
Y620126D01*
X598274Y614685D02*
X600439D01*
X598274Y610551D02*
X600439D01*
Y614685D01*
X598274Y610551D02*
Y614685D01*
X590933Y624114D02*
X595067D01*
X590933Y626279D02*
X595067D01*
Y624114D02*
Y626279D01*
X590933Y624114D02*
Y626279D01*
X604417Y610976D02*
Y615110D01*
X606582Y610976D02*
Y615110D01*
X604417Y610976D02*
X606582D01*
X604417Y615110D02*
X606582D01*
X654067Y634189D02*
Y636354D01*
X649933Y634189D02*
Y636354D01*
Y634189D02*
X654067D01*
X649933Y636354D02*
X654067D01*
X654295Y627960D02*
Y630126D01*
X650162Y627960D02*
Y630126D01*
Y627960D02*
X654295D01*
X650162Y630126D02*
X654295D01*
X589791Y495752D02*
X593531D01*
X589791Y502248D02*
X593531D01*
X589791Y495752D02*
Y502248D01*
X593531Y495752D02*
Y502248D01*
X581630Y495594D02*
X585370D01*
X581630Y502091D02*
X585370D01*
X581630Y495594D02*
Y502091D01*
X585370Y495594D02*
Y502091D01*
X605538Y669417D02*
Y671583D01*
X609672Y669417D02*
Y671583D01*
X605538D02*
X609672D01*
X605538Y669417D02*
X609672D01*
X620870Y495933D02*
Y502429D01*
X617130Y495933D02*
Y502429D01*
X620870D01*
X617130Y495933D02*
X620870D01*
X601870Y495752D02*
Y502248D01*
X598130Y495752D02*
Y502248D01*
X601870D01*
X598130Y495752D02*
X601870D01*
X628595Y495775D02*
Y502271D01*
X624854Y495775D02*
Y502271D01*
X628595D01*
X624854Y495775D02*
X628595D01*
D16*
X574445Y440762D02*
X572446Y438763D01*
Y440762D02*
X574445Y438763D01*
X573446Y440762D02*
Y438763D01*
X572446Y439762D02*
X574445D01*
X491069Y416001D02*
X489070Y418000D01*
X491069D02*
X489070Y416001D01*
X491069Y417000D02*
X489070D01*
X490069Y418000D02*
Y416001D01*
D17*
X478931Y434665D02*
X482263Y431333D01*
X478931D02*
X482263Y434665D01*
X478931Y432999D02*
X482263D01*
X480597Y431333D02*
Y434665D01*
D137*
X479181Y431917D02*
Y434083D01*
X477213D02*
X479181D01*
X477213Y431917D02*
Y434083D01*
Y431917D02*
X479181D01*
X490402D02*
Y434083D01*
Y431917D02*
X492370D01*
Y434083D01*
X490402D02*
X492370D01*
X479181Y434329D02*
X480510Y435658D01*
X479181Y431671D02*
X480510Y430342D01*
X479181D02*
X490402D01*
Y435658D01*
X479181D02*
X490402D01*
X479181Y430342D02*
Y435658D01*
X561159Y443169D02*
X577497D01*
Y426831D02*
Y443169D01*
X561159Y426831D02*
X577497D01*
X561159D02*
Y443169D01*
X572497D02*
X577497Y438169D01*
X269984Y334250D02*
X276984D01*
Y321250D02*
Y334250D01*
X269984Y321250D02*
X276984D01*
X269984D02*
Y334250D01*
X82615Y383389D02*
Y412489D01*
Y383389D02*
X105215D01*
Y412489D01*
X82615D02*
X105215D01*
X454250Y539500D02*
X532750D01*
Y566500D01*
X454250D02*
X532750D01*
X454250Y539500D02*
Y566500D01*
X490819Y413343D02*
Y418657D01*
X479598Y413343D02*
X490819D01*
X479598D02*
Y418657D01*
X490819D01*
X489490D02*
X490819Y417329D01*
X489490Y413343D02*
X490819Y414671D01*
X477630Y414917D02*
X479598D01*
X477630D02*
Y417083D01*
X479598D01*
Y414917D02*
Y417083D01*
X490819D02*
X492787D01*
Y414917D02*
Y417083D01*
X490819Y414917D02*
X492787D01*
X490819D02*
Y417083D01*
X91563Y334266D02*
X98563D01*
Y321266D02*
Y334266D01*
X91563Y321266D02*
X98563D01*
X91563D02*
Y334266D01*
X137984Y321266D02*
Y334266D01*
Y321266D02*
X144984D01*
Y334266D01*
X137984D02*
X144984D01*
X201016Y333766D02*
X208016D01*
Y320766D02*
Y333766D01*
X201016Y320766D02*
X208016D01*
X201016D02*
Y333766D01*
X320484Y320766D02*
Y333766D01*
Y320766D02*
X327484D01*
Y333766D01*
X320484D02*
X327484D01*
X592484Y334266D02*
X599484D01*
Y321266D02*
Y334266D01*
X592484Y321266D02*
X599484D01*
X592484D02*
Y334266D01*
X622209Y322766D02*
Y335766D01*
Y322766D02*
X629209D01*
Y335766D01*
X622209D02*
X629209D01*
X652016Y322250D02*
Y335250D01*
Y322250D02*
X659016D01*
Y335250D01*
X652016D02*
X659016D01*
X446750Y619071D02*
X525250D01*
Y646071D01*
X446750D02*
X525250D01*
X446750Y619071D02*
Y646071D01*
X448750Y686500D02*
X527250D01*
Y713500D01*
X448750D02*
X527250D01*
X448750Y686500D02*
Y713500D01*
M02*
