G04*
G04 #@! TF.GenerationSoftware,Altium Limited,Altium Designer,18.1.7 (191)*
G04*
G04 Layer_Color=16711935*
%FSLAX25Y25*%
%MOIN*%
G70*
G01*
G75*
%ADD72C,0.16800*%
%ADD73C,0.15761*%
%ADD74C,0.07099*%
%ADD75R,0.07099X0.07099*%
%ADD76C,0.03398*%
%ADD77R,0.07296X0.07296*%
%ADD78C,0.07296*%
%ADD79R,0.04737X0.04737*%
%ADD80C,0.04737*%
%ADD81C,0.06100*%
%ADD82C,0.08800*%
%ADD83C,0.06312*%
%ADD84R,0.06312X0.06312*%
%ADD85C,0.06804*%
%ADD86C,0.11725*%
%ADD87C,0.17631*%
%ADD88C,0.15564*%
%ADD89C,0.20111*%
%ADD90C,0.05800*%
D72*
X80000Y275500D02*
D03*
X725500Y276500D02*
D03*
X724000Y733500D02*
D03*
X79000D02*
D03*
D73*
X687890Y614641D02*
D03*
Y662043D02*
D03*
D74*
X677221Y633421D02*
D03*
Y643263D02*
D03*
X669347Y633421D02*
D03*
D75*
Y643263D02*
D03*
D76*
X603601Y646991D02*
D03*
Y651141D02*
D03*
X599428D02*
D03*
Y646991D02*
D03*
D77*
X123500Y448500D02*
D03*
X123000Y353500D02*
D03*
D78*
X123500Y508500D02*
D03*
X233500D02*
D03*
Y448500D02*
D03*
X542694Y299000D02*
D03*
X533402D02*
D03*
X465528D02*
D03*
X456237D02*
D03*
X388363D02*
D03*
X379071D02*
D03*
X123000Y413500D02*
D03*
X233000D02*
D03*
Y353500D02*
D03*
D79*
X632500Y601043D02*
D03*
D80*
X637500D02*
D03*
X642500D02*
D03*
X647500D02*
D03*
X652500D02*
D03*
D81*
X91829Y393000D02*
D03*
Y402843D02*
D03*
D82*
X467000Y559500D02*
D03*
Y546500D02*
D03*
X520000Y559500D02*
D03*
Y546500D02*
D03*
X459500Y639071D02*
D03*
Y626071D02*
D03*
X512500Y639071D02*
D03*
Y626071D02*
D03*
X461500Y706500D02*
D03*
Y693500D02*
D03*
X514500Y706500D02*
D03*
Y693500D02*
D03*
D83*
X638157Y657543D02*
D03*
D84*
X648000D02*
D03*
D85*
X714780Y382354D02*
D03*
Y319205D02*
D03*
X413000Y575083D02*
D03*
Y526500D02*
D03*
X408000Y660291D02*
D03*
Y611709D02*
D03*
X408720Y726291D02*
D03*
Y677709D02*
D03*
X563279Y608587D02*
D03*
Y671736D02*
D03*
D86*
X713500Y362000D02*
D03*
Y339559D02*
D03*
X691059Y362000D02*
D03*
Y339559D02*
D03*
X414280Y550791D02*
D03*
X436721D02*
D03*
X409279Y636000D02*
D03*
X431720D02*
D03*
X410000Y702000D02*
D03*
X432441D02*
D03*
X539559Y628941D02*
D03*
Y651382D02*
D03*
X562000Y628941D02*
D03*
Y651382D02*
D03*
D87*
X272559Y651882D02*
D03*
Y671567D02*
D03*
X311929Y651882D02*
D03*
Y671567D02*
D03*
X334488Y707000D02*
D03*
X250000D02*
D03*
X100571Y710433D02*
D03*
X185059D02*
D03*
X162500Y675000D02*
D03*
Y655315D02*
D03*
X123130Y675000D02*
D03*
Y655315D02*
D03*
D88*
X531355Y369079D02*
D03*
X516394D02*
D03*
X501434D02*
D03*
X486473D02*
D03*
X435292D02*
D03*
X420331D02*
D03*
X405371D02*
D03*
X390410D02*
D03*
D89*
X310620Y538459D02*
D03*
X236730Y600460D02*
D03*
X259000Y627000D02*
D03*
X332890Y564999D02*
D03*
X195500Y541189D02*
D03*
X121610Y603190D02*
D03*
X143880Y629730D02*
D03*
X217770Y567729D02*
D03*
D90*
X224500Y592000D02*
D03*
X380500Y353500D02*
D03*
X391500Y383500D02*
D03*
X407500Y384000D02*
D03*
X423500Y383500D02*
D03*
X440000D02*
D03*
X457000D02*
D03*
X567500Y316500D02*
D03*
X495000Y668500D02*
D03*
X494500Y593000D02*
D03*
X567000Y578000D02*
D03*
X567500Y557500D02*
D03*
X568000Y531870D02*
D03*
X560500Y693933D02*
D03*
X560000Y711000D02*
D03*
X97500Y592000D02*
D03*
X544000Y550500D02*
D03*
X544500Y533000D02*
D03*
X525500Y532500D02*
D03*
X505000Y533000D02*
D03*
X558000Y725500D02*
D03*
X536500Y726500D02*
D03*
X517000Y727000D02*
D03*
X498500D02*
D03*
X292000Y706500D02*
D03*
X358500Y611500D02*
D03*
X358000Y701500D02*
D03*
Y687000D02*
D03*
Y671000D02*
D03*
Y656500D02*
D03*
Y641000D02*
D03*
Y626500D02*
D03*
X306500Y707500D02*
D03*
X275500Y708000D02*
D03*
X358500Y596500D02*
D03*
X347000Y596000D02*
D03*
X332000D02*
D03*
X315000Y597000D02*
D03*
X299000Y596000D02*
D03*
X272500Y594500D02*
D03*
X259000D02*
D03*
X223868Y621000D02*
D03*
X226000Y638000D02*
D03*
Y654000D02*
D03*
X225500Y668500D02*
D03*
Y682500D02*
D03*
X226000Y700500D02*
D03*
X225500Y713000D02*
D03*
X201500Y669500D02*
D03*
X202500Y683000D02*
D03*
Y697000D02*
D03*
X203000Y711500D02*
D03*
X201500Y655315D02*
D03*
X201000Y639500D02*
D03*
X155000Y716000D02*
D03*
X138500Y716500D02*
D03*
X80000Y715500D02*
D03*
X79500Y700000D02*
D03*
X80000Y688500D02*
D03*
X80400Y672000D02*
D03*
X80000Y656000D02*
D03*
X81000Y639071D02*
D03*
X80500Y625000D02*
D03*
Y609500D02*
D03*
X119500Y716000D02*
D03*
X201500Y623500D02*
D03*
X200500Y608587D02*
D03*
X200186Y593500D02*
D03*
X177509D02*
D03*
X158307D02*
D03*
X139105D02*
D03*
X81500D02*
D03*
X520500Y468500D02*
D03*
X729500Y419000D02*
D03*
X697500Y419500D02*
D03*
X687000Y420000D02*
D03*
X715500Y418000D02*
D03*
X426500Y448314D02*
D03*
X715500Y428500D02*
D03*
X669500Y474500D02*
D03*
X698839Y474000D02*
D03*
X722000Y404369D02*
D03*
X596000Y413500D02*
D03*
Y433000D02*
D03*
X589000Y431000D02*
D03*
X601661Y419543D02*
D03*
X407457Y433000D02*
D03*
X704870Y541000D02*
D03*
X624662Y669500D02*
D03*
X642000Y584496D02*
D03*
X622686Y599000D02*
D03*
X364000Y371500D02*
D03*
X638157Y624500D02*
D03*
X416000Y399000D02*
D03*
X515500Y408500D02*
D03*
X598957Y517500D02*
D03*
X581900D02*
D03*
X590500D02*
D03*
X609788Y511043D02*
D03*
X620000Y509500D02*
D03*
X626949Y509767D02*
D03*
X582400Y401043D02*
D03*
X580500Y378000D02*
D03*
X573000Y419043D02*
D03*
X624662Y582354D02*
D03*
X562500Y419543D02*
D03*
X546839Y429543D02*
D03*
X538500Y460543D02*
D03*
X531500Y468043D02*
D03*
X678000Y572043D02*
D03*
X669500Y569496D02*
D03*
X589500Y608543D02*
D03*
X660000Y591043D02*
D03*
X662500Y582854D02*
D03*
X667000Y539370D02*
D03*
X600382Y622043D02*
D03*
X595500Y632043D02*
D03*
M02*
