G04*
G04 #@! TF.GenerationSoftware,Altium Limited,Altium Designer,18.1.7 (191)*
G04*
G04 Layer_Color=8388736*
%FSLAX25Y25*%
%MOIN*%
G70*
G01*
G75*
%ADD25R,0.04375X0.02365*%
%ADD28R,0.04000X0.03000*%
%ADD45O,0.01981X0.05721*%
%ADD46O,0.05721X0.01981*%
%ADD47R,0.05721X0.01981*%
%ADD48R,0.04737X0.06706*%
%ADD49R,0.05918X0.03359*%
%ADD50R,0.13792X0.10249*%
%ADD51R,0.04737X0.10249*%
%ADD52R,0.00104X0.00104*%
%ADD53R,0.03937X0.01378*%
%ADD54R,0.01378X0.03937*%
%ADD55R,0.04800X0.09800*%
%ADD56R,0.04540X0.07099*%
%ADD57R,0.04343X0.03753*%
%ADD58R,0.02965X0.02965*%
%ADD59R,0.08989X0.08989*%
%ADD60O,0.04147X0.01981*%
%ADD61O,0.01981X0.04147*%
%ADD62R,0.04343X0.03556*%
%ADD63R,0.04147X0.03556*%
%ADD64R,0.04737X0.04343*%
G04:AMPARAMS|DCode=65|XSize=43.43mil|YSize=47.37mil|CornerRadius=12.86mil|HoleSize=0mil|Usage=FLASHONLY|Rotation=90.000|XOffset=0mil|YOffset=0mil|HoleType=Round|Shape=RoundedRectangle|*
%AMROUNDEDRECTD65*
21,1,0.04343,0.02165,0,0,90.0*
21,1,0.01772,0.04737,0,0,90.0*
1,1,0.02572,0.01083,0.00886*
1,1,0.02572,0.01083,-0.00886*
1,1,0.02572,-0.01083,-0.00886*
1,1,0.02572,-0.01083,0.00886*
%
%ADD65ROUNDEDRECTD65*%
%ADD66R,0.07099X0.04540*%
%ADD67R,0.03556X0.04147*%
%ADD68R,0.03241X0.03241*%
%ADD69R,0.03241X0.03241*%
%ADD70R,0.02965X0.02965*%
%ADD71R,0.02965X0.02965*%
%ADD72C,0.16800*%
%ADD73C,0.15761*%
%ADD74C,0.07099*%
%ADD75R,0.07099X0.07099*%
%ADD76C,0.03398*%
%ADD77R,0.07296X0.07296*%
%ADD78C,0.07296*%
%ADD79R,0.04737X0.04737*%
%ADD80C,0.04737*%
%ADD81C,0.06100*%
%ADD82C,0.08800*%
%ADD83C,0.06312*%
%ADD84R,0.06312X0.06312*%
%ADD85C,0.06804*%
%ADD86C,0.11725*%
%ADD87C,0.17631*%
%ADD88C,0.15564*%
%ADD89C,0.20111*%
%ADD90C,0.05800*%
G36*
X573830Y437337D02*
Y435763D01*
Y434237D01*
Y430498D01*
X564826D01*
Y432663D01*
Y434237D01*
Y435763D01*
Y437337D01*
Y439502D01*
X573830D01*
Y437337D01*
D02*
G37*
%LPC*%
G36*
X571665D02*
X570090D01*
Y435763D01*
X571665D01*
Y437337D01*
D02*
G37*
G36*
X568565D02*
X566991D01*
Y435763D01*
X568565D01*
Y437337D01*
D02*
G37*
G36*
X571665Y434237D02*
X570090D01*
Y432663D01*
X571665D01*
Y434237D01*
D02*
G37*
G36*
X568565D02*
X566991D01*
Y432663D01*
X568565D01*
Y434237D01*
D02*
G37*
%LPD*%
D25*
X478000Y433000D02*
D03*
X491583D02*
D03*
X478417Y416000D02*
D03*
X492000D02*
D03*
D28*
X270000Y322500D02*
D03*
X276968D02*
D03*
X91579Y322516D02*
D03*
X98548D02*
D03*
X144969D02*
D03*
X138000D02*
D03*
X201031Y322016D02*
D03*
X208000D02*
D03*
X327469D02*
D03*
X320500D02*
D03*
X592500Y322516D02*
D03*
X599468D02*
D03*
X629193Y324016D02*
D03*
X622224D02*
D03*
X659000Y323500D02*
D03*
X652031D02*
D03*
D45*
X623287Y573350D02*
D03*
X625256D02*
D03*
X627224D02*
D03*
X629193D02*
D03*
X631161D02*
D03*
X633130D02*
D03*
X635098D02*
D03*
X637067D02*
D03*
X639035D02*
D03*
X641004D02*
D03*
X642972D02*
D03*
X644941D02*
D03*
X646909D02*
D03*
X648878D02*
D03*
X650846D02*
D03*
X652815D02*
D03*
Y529452D02*
D03*
X650846D02*
D03*
X648878D02*
D03*
X646909D02*
D03*
X644941D02*
D03*
X642972D02*
D03*
X641004D02*
D03*
X639035D02*
D03*
X637067D02*
D03*
X635098D02*
D03*
X633130D02*
D03*
X631161D02*
D03*
X629193D02*
D03*
X627224D02*
D03*
X625256D02*
D03*
X623287D02*
D03*
D46*
X660000Y566165D02*
D03*
Y564197D02*
D03*
Y562228D02*
D03*
Y560260D02*
D03*
Y558291D02*
D03*
Y556323D02*
D03*
Y554354D02*
D03*
Y552386D02*
D03*
Y550417D02*
D03*
Y548449D02*
D03*
Y546480D02*
D03*
Y544512D02*
D03*
Y542543D02*
D03*
Y540575D02*
D03*
Y538606D02*
D03*
Y536638D02*
D03*
X616102D02*
D03*
Y538606D02*
D03*
Y540575D02*
D03*
Y542543D02*
D03*
Y544512D02*
D03*
Y546480D02*
D03*
Y548449D02*
D03*
Y550417D02*
D03*
Y552386D02*
D03*
Y554354D02*
D03*
Y556323D02*
D03*
Y558291D02*
D03*
Y560260D02*
D03*
Y562228D02*
D03*
Y564197D02*
D03*
D47*
Y566165D02*
D03*
D48*
X619500Y620043D02*
D03*
X628161D02*
D03*
X595941Y667500D02*
D03*
X587280D02*
D03*
D49*
X490760Y448314D02*
D03*
X498240Y452054D02*
D03*
Y444574D02*
D03*
D50*
X684000Y454917D02*
D03*
D51*
X693055Y432083D02*
D03*
X684000D02*
D03*
X674945D02*
D03*
D52*
X569328Y435000D02*
D03*
D53*
X576808Y438839D02*
D03*
Y436280D02*
D03*
Y433721D02*
D03*
Y431161D02*
D03*
X561848D02*
D03*
Y433721D02*
D03*
Y436280D02*
D03*
Y438839D02*
D03*
D54*
X573167Y427520D02*
D03*
X570608D02*
D03*
X568048D02*
D03*
X565489D02*
D03*
Y442480D02*
D03*
X568048D02*
D03*
X570608D02*
D03*
X573167D02*
D03*
D55*
X270000Y329984D02*
D03*
X276969Y329984D02*
D03*
X91579Y330000D02*
D03*
X98548Y330000D02*
D03*
X144969D02*
D03*
X138000Y330000D02*
D03*
X201032Y329500D02*
D03*
X208000Y329500D02*
D03*
X327469D02*
D03*
X320500Y329500D02*
D03*
X592500Y330000D02*
D03*
X599468Y330001D02*
D03*
X629193Y331500D02*
D03*
X622225Y331500D02*
D03*
X659000Y330984D02*
D03*
X652032Y330984D02*
D03*
D56*
X692216Y594543D02*
D03*
X681783D02*
D03*
X712717Y594543D02*
D03*
X702284D02*
D03*
D57*
X609500Y501658D02*
D03*
Y496343D02*
D03*
X591661Y496343D02*
D03*
Y501657D02*
D03*
X583500Y496185D02*
D03*
Y501500D02*
D03*
X619000Y501838D02*
D03*
Y496523D02*
D03*
X600000Y501658D02*
D03*
Y496343D02*
D03*
X626724Y501681D02*
D03*
Y496366D02*
D03*
D58*
X631772Y628815D02*
D03*
X628228D02*
D03*
X615000Y602500D02*
D03*
X611457D02*
D03*
X594772Y625197D02*
D03*
X591228D02*
D03*
X653772Y635271D02*
D03*
X650228D02*
D03*
X654000Y629043D02*
D03*
X650457D02*
D03*
X605833Y670500D02*
D03*
X609377D02*
D03*
D59*
X601661Y649023D02*
D03*
D60*
X594181Y645185D02*
D03*
Y647744D02*
D03*
Y650303D02*
D03*
Y652862D02*
D03*
X609142D02*
D03*
Y650303D02*
D03*
Y647744D02*
D03*
Y645185D02*
D03*
D61*
X597823Y656504D02*
D03*
X600382D02*
D03*
X602941D02*
D03*
X605500D02*
D03*
Y641543D02*
D03*
X602941D02*
D03*
X600382D02*
D03*
X597823D02*
D03*
D62*
X520500Y452000D02*
D03*
Y457905D02*
D03*
D63*
X700000Y398744D02*
D03*
Y404256D02*
D03*
X708000Y441244D02*
D03*
Y446756D02*
D03*
D64*
X688500Y554354D02*
D03*
D65*
Y563015D02*
D03*
X682201D02*
D03*
Y554354D02*
D03*
D66*
X728000Y438283D02*
D03*
Y448716D02*
D03*
X636657Y438165D02*
D03*
Y448598D02*
D03*
X650000Y438327D02*
D03*
Y448760D02*
D03*
X717500Y438283D02*
D03*
Y448716D02*
D03*
D67*
X567851Y463811D02*
D03*
X573363D02*
D03*
X605744Y591500D02*
D03*
X611256D02*
D03*
X644547Y510767D02*
D03*
X639035D02*
D03*
D68*
X622500Y655189D02*
D03*
Y658811D02*
D03*
X709500Y398378D02*
D03*
Y402000D02*
D03*
X686216Y408869D02*
D03*
Y412491D02*
D03*
X679716Y408869D02*
D03*
Y412491D02*
D03*
X693716Y408869D02*
D03*
Y412491D02*
D03*
X660000Y442189D02*
D03*
Y445811D02*
D03*
X648342Y515421D02*
D03*
Y519043D02*
D03*
X609142Y548311D02*
D03*
Y544689D02*
D03*
X682500Y541811D02*
D03*
Y538189D02*
D03*
X656000Y515689D02*
D03*
Y519311D02*
D03*
X699000Y560622D02*
D03*
Y557000D02*
D03*
X686421Y572311D02*
D03*
Y568689D02*
D03*
X677221Y538000D02*
D03*
Y541622D02*
D03*
X696500Y541189D02*
D03*
Y544811D02*
D03*
X615500Y655189D02*
D03*
Y658811D02*
D03*
D69*
X629189Y589000D02*
D03*
X632811D02*
D03*
X606189Y585000D02*
D03*
X609811D02*
D03*
X610311Y577000D02*
D03*
X606689D02*
D03*
X640197Y495267D02*
D03*
X643819D02*
D03*
Y502724D02*
D03*
X640197D02*
D03*
D70*
X637500Y593086D02*
D03*
Y589543D02*
D03*
X689500Y541228D02*
D03*
Y544771D02*
D03*
X599356Y614389D02*
D03*
Y610846D02*
D03*
X605500Y611271D02*
D03*
Y614815D02*
D03*
D71*
X591272Y619043D02*
D03*
X587728D02*
D03*
D72*
X80000Y275500D02*
D03*
X725500Y276500D02*
D03*
X724000Y733500D02*
D03*
X79000D02*
D03*
D73*
X687890Y614641D02*
D03*
Y662043D02*
D03*
D74*
X677221Y633421D02*
D03*
Y643263D02*
D03*
X669347Y633421D02*
D03*
D75*
Y643263D02*
D03*
D76*
X603601Y646991D02*
D03*
Y651141D02*
D03*
X599428D02*
D03*
Y646991D02*
D03*
D77*
X123500Y448500D02*
D03*
X123000Y353500D02*
D03*
D78*
X123500Y508500D02*
D03*
X233500D02*
D03*
Y448500D02*
D03*
X542694Y299000D02*
D03*
X533402D02*
D03*
X465528D02*
D03*
X456237D02*
D03*
X388363D02*
D03*
X379071D02*
D03*
X123000Y413500D02*
D03*
X233000D02*
D03*
Y353500D02*
D03*
D79*
X632500Y601043D02*
D03*
D80*
X637500D02*
D03*
X642500D02*
D03*
X647500D02*
D03*
X652500D02*
D03*
D81*
X91829Y393000D02*
D03*
Y402843D02*
D03*
D82*
X467000Y559500D02*
D03*
Y546500D02*
D03*
X520000Y559500D02*
D03*
Y546500D02*
D03*
X459500Y639071D02*
D03*
Y626071D02*
D03*
X512500Y639071D02*
D03*
Y626071D02*
D03*
X461500Y706500D02*
D03*
Y693500D02*
D03*
X514500Y706500D02*
D03*
Y693500D02*
D03*
D83*
X638157Y657543D02*
D03*
D84*
X648000D02*
D03*
D85*
X714780Y382354D02*
D03*
Y319205D02*
D03*
X413000Y575083D02*
D03*
Y526500D02*
D03*
X408000Y660291D02*
D03*
Y611709D02*
D03*
X408720Y726291D02*
D03*
Y677709D02*
D03*
X563279Y608587D02*
D03*
Y671736D02*
D03*
D86*
X713500Y362000D02*
D03*
Y339559D02*
D03*
X691059Y362000D02*
D03*
Y339559D02*
D03*
X414280Y550791D02*
D03*
X436721D02*
D03*
X409279Y636000D02*
D03*
X431720D02*
D03*
X410000Y702000D02*
D03*
X432441D02*
D03*
X539559Y628941D02*
D03*
Y651382D02*
D03*
X562000Y628941D02*
D03*
Y651382D02*
D03*
D87*
X272559Y651882D02*
D03*
Y671567D02*
D03*
X311929Y651882D02*
D03*
Y671567D02*
D03*
X334488Y707000D02*
D03*
X250000D02*
D03*
X100571Y710433D02*
D03*
X185059D02*
D03*
X162500Y675000D02*
D03*
Y655315D02*
D03*
X123130Y675000D02*
D03*
Y655315D02*
D03*
D88*
X531355Y369079D02*
D03*
X516394D02*
D03*
X501434D02*
D03*
X486473D02*
D03*
X435292D02*
D03*
X420331D02*
D03*
X405371D02*
D03*
X390410D02*
D03*
D89*
X310620Y538459D02*
D03*
X236730Y600460D02*
D03*
X259000Y627000D02*
D03*
X332890Y564999D02*
D03*
X195500Y541189D02*
D03*
X121610Y603190D02*
D03*
X143880Y629730D02*
D03*
X217770Y567729D02*
D03*
D90*
X224500Y592000D02*
D03*
X380500Y353500D02*
D03*
X391500Y383500D02*
D03*
X407500Y384000D02*
D03*
X423500Y383500D02*
D03*
X440000D02*
D03*
X457000D02*
D03*
X567500Y316500D02*
D03*
X495000Y668500D02*
D03*
X494500Y593000D02*
D03*
X567000Y578000D02*
D03*
X567500Y557500D02*
D03*
X568000Y531870D02*
D03*
X560500Y693933D02*
D03*
X560000Y711000D02*
D03*
X97500Y592000D02*
D03*
X544000Y550500D02*
D03*
X544500Y533000D02*
D03*
X525500Y532500D02*
D03*
X505000Y533000D02*
D03*
X558000Y725500D02*
D03*
X536500Y726500D02*
D03*
X517000Y727000D02*
D03*
X498500D02*
D03*
X677500Y377500D02*
D03*
X292000Y706500D02*
D03*
X358500Y611500D02*
D03*
X358000Y701500D02*
D03*
Y687000D02*
D03*
Y671000D02*
D03*
Y656500D02*
D03*
Y641000D02*
D03*
Y626500D02*
D03*
X306500Y707500D02*
D03*
X275500Y708000D02*
D03*
X358500Y596500D02*
D03*
X347000Y596000D02*
D03*
X332000D02*
D03*
X315000Y597000D02*
D03*
X299000Y596000D02*
D03*
X272500Y594500D02*
D03*
X259000D02*
D03*
X223868Y621000D02*
D03*
X226000Y638000D02*
D03*
Y654000D02*
D03*
X225500Y668500D02*
D03*
Y682500D02*
D03*
X226000Y700500D02*
D03*
X225500Y713000D02*
D03*
X201500Y669500D02*
D03*
X202500Y683000D02*
D03*
Y697000D02*
D03*
X203000Y711500D02*
D03*
X201500Y655315D02*
D03*
X201000Y639500D02*
D03*
X155000Y716000D02*
D03*
X138500Y716500D02*
D03*
X80000Y715500D02*
D03*
X79500Y700000D02*
D03*
X80000Y688500D02*
D03*
X80400Y672000D02*
D03*
X80000Y656000D02*
D03*
X81000Y639071D02*
D03*
X80500Y625000D02*
D03*
Y609500D02*
D03*
X119500Y716000D02*
D03*
X201500Y623500D02*
D03*
X200500Y608587D02*
D03*
X200186Y593500D02*
D03*
X177509D02*
D03*
X158307D02*
D03*
X139105D02*
D03*
X81500D02*
D03*
X507500Y465857D02*
D03*
X520500Y468500D02*
D03*
X729500Y419000D02*
D03*
X697500Y419500D02*
D03*
X687000Y420000D02*
D03*
X715500Y418000D02*
D03*
X426500Y448314D02*
D03*
X715500Y428500D02*
D03*
X669500Y474500D02*
D03*
X698839Y474000D02*
D03*
X722000Y404369D02*
D03*
X596000Y413500D02*
D03*
Y433000D02*
D03*
X589000Y431000D02*
D03*
X601661Y419543D02*
D03*
X703000Y580787D02*
D03*
X698929Y568763D02*
D03*
X407457Y433000D02*
D03*
X704870Y541000D02*
D03*
X685000Y524000D02*
D03*
X601661Y548370D02*
D03*
X664941Y519500D02*
D03*
X624662Y669500D02*
D03*
X602000Y569500D02*
D03*
X642000Y584496D02*
D03*
X622686Y599000D02*
D03*
X366000Y543254D02*
D03*
X364000Y371500D02*
D03*
X638157Y624500D02*
D03*
X365500Y415143D02*
D03*
X416000Y399000D02*
D03*
X515500Y408500D02*
D03*
X598957Y517500D02*
D03*
X581900D02*
D03*
X590500D02*
D03*
X609788Y511043D02*
D03*
X620000Y509500D02*
D03*
X626949Y509767D02*
D03*
X647917Y488224D02*
D03*
X582400Y401043D02*
D03*
X365500Y520500D02*
D03*
X82500Y522500D02*
D03*
X83929Y511000D02*
D03*
X104786D02*
D03*
X94357D02*
D03*
X366000Y533754D02*
D03*
X115214Y511000D02*
D03*
X81000Y535500D02*
D03*
Y558756D02*
D03*
X291014Y509500D02*
D03*
X246400Y509189D02*
D03*
X256829D02*
D03*
X277686D02*
D03*
X267257D02*
D03*
X344643Y553500D02*
D03*
X334214D02*
D03*
X365500D02*
D03*
X355071D02*
D03*
X141032Y511689D02*
D03*
X151460D02*
D03*
X172317D02*
D03*
X161889D02*
D03*
X193174D02*
D03*
X182746D02*
D03*
X214032D02*
D03*
X203603D02*
D03*
X301443Y509500D02*
D03*
X322300D02*
D03*
X311871D02*
D03*
X343157D02*
D03*
X332729D02*
D03*
X364014D02*
D03*
X353586D02*
D03*
X249400Y554000D02*
D03*
X259829D02*
D03*
X280686D02*
D03*
X270257D02*
D03*
X301543D02*
D03*
X291114D02*
D03*
X322400D02*
D03*
X311971D02*
D03*
X165400Y554500D02*
D03*
X175829D02*
D03*
X196686D02*
D03*
X186257D02*
D03*
X217543D02*
D03*
X207114D02*
D03*
X238400D02*
D03*
X227971D02*
D03*
X80400Y546000D02*
D03*
X91329Y554500D02*
D03*
X112186D02*
D03*
X101757D02*
D03*
X133043D02*
D03*
X122614D02*
D03*
X153900D02*
D03*
X143471D02*
D03*
X79500Y479600D02*
D03*
Y469171D02*
D03*
Y448314D02*
D03*
Y458743D02*
D03*
Y427457D02*
D03*
Y437886D02*
D03*
Y406600D02*
D03*
Y417029D02*
D03*
X208600Y403131D02*
D03*
X198171D02*
D03*
X177314D02*
D03*
X187743D02*
D03*
X156457D02*
D03*
X166886D02*
D03*
X135600D02*
D03*
X146029D02*
D03*
X339100Y403500D02*
D03*
X328671D02*
D03*
X307814D02*
D03*
X318243D02*
D03*
X286957D02*
D03*
X297386D02*
D03*
X266100D02*
D03*
X276529D02*
D03*
X350500Y403782D02*
D03*
X360510D02*
D03*
X365500Y434571D02*
D03*
Y424143D02*
D03*
Y455429D02*
D03*
Y445000D02*
D03*
Y476286D02*
D03*
Y465857D02*
D03*
X290400Y488000D02*
D03*
X300828D02*
D03*
X321686D02*
D03*
X311257D02*
D03*
X342543D02*
D03*
X332114D02*
D03*
X363400D02*
D03*
X352971D02*
D03*
X276000Y487500D02*
D03*
X168900Y488000D02*
D03*
X179329D02*
D03*
X200186D02*
D03*
X189757D02*
D03*
X221043D02*
D03*
X210614D02*
D03*
X231471D02*
D03*
X85400D02*
D03*
X95829D02*
D03*
X116686D02*
D03*
X106257D02*
D03*
X137543D02*
D03*
X127114D02*
D03*
X158400D02*
D03*
X147971D02*
D03*
X674000Y335000D02*
D03*
X549000Y367000D02*
D03*
X677000Y365500D02*
D03*
X677500Y353500D02*
D03*
X692500Y383000D02*
D03*
X582400Y335000D02*
D03*
X592329Y346000D02*
D03*
X613500Y336000D02*
D03*
X602757Y346000D02*
D03*
X666500Y335000D02*
D03*
X638157Y337500D02*
D03*
X647917D02*
D03*
X550000Y346500D02*
D03*
X607000Y336000D02*
D03*
X560500Y335500D02*
D03*
X591400Y379000D02*
D03*
X601829D02*
D03*
X622686D02*
D03*
X612257D02*
D03*
X643543D02*
D03*
X633114D02*
D03*
X664400D02*
D03*
X653971D02*
D03*
X569000Y336000D02*
D03*
X549500Y358000D02*
D03*
X551500Y336000D02*
D03*
X546043Y378500D02*
D03*
X566900D02*
D03*
X556471D02*
D03*
X364014Y362500D02*
D03*
X197500Y359500D02*
D03*
X260000D02*
D03*
X338000Y358500D02*
D03*
X298413Y360000D02*
D03*
X347543Y379500D02*
D03*
X364014Y353000D02*
D03*
X357971Y379500D02*
D03*
X252400Y380000D02*
D03*
X262829D02*
D03*
X283686D02*
D03*
X273257D02*
D03*
X304543D02*
D03*
X294114D02*
D03*
X325400D02*
D03*
X314971D02*
D03*
X168189Y379500D02*
D03*
X178618D02*
D03*
X199475D02*
D03*
X189047D02*
D03*
X220332D02*
D03*
X209904D02*
D03*
X241189D02*
D03*
X230761D02*
D03*
X84400Y379000D02*
D03*
X94829D02*
D03*
X115686D02*
D03*
X105257D02*
D03*
X136543D02*
D03*
X126114D02*
D03*
X157400D02*
D03*
X146971D02*
D03*
X128900Y340000D02*
D03*
X139329D02*
D03*
X160186D02*
D03*
X149757D02*
D03*
X181043D02*
D03*
X170614D02*
D03*
X201900D02*
D03*
X191471D02*
D03*
X208926D02*
D03*
X219355D02*
D03*
X240212D02*
D03*
X229783D02*
D03*
X261069D02*
D03*
X250641D02*
D03*
X281926D02*
D03*
X271498D02*
D03*
X291400Y341000D02*
D03*
X301829D02*
D03*
X322686D02*
D03*
X312257D02*
D03*
X343543D02*
D03*
X333114D02*
D03*
X364400D02*
D03*
X353971D02*
D03*
X338500Y380000D02*
D03*
X148000Y359000D02*
D03*
X84400Y354500D02*
D03*
X83500Y367000D02*
D03*
X107257Y340000D02*
D03*
X117686D02*
D03*
X96829D02*
D03*
X86400D02*
D03*
X580500Y378000D02*
D03*
X573000Y419043D02*
D03*
X624662Y582354D02*
D03*
X562500Y419543D02*
D03*
X546839Y429543D02*
D03*
X573166Y454043D02*
D03*
X547500Y467043D02*
D03*
X538500Y460543D02*
D03*
X531500Y468043D02*
D03*
X669939Y558043D02*
D03*
X678000Y572043D02*
D03*
X669500Y569496D02*
D03*
X589500Y608543D02*
D03*
X660000Y591043D02*
D03*
X662500Y582854D02*
D03*
X602941Y557543D02*
D03*
X667000Y539370D02*
D03*
X600382Y622043D02*
D03*
X595500Y632043D02*
D03*
X669000Y600043D02*
D03*
X395353Y276000D02*
D03*
X375853Y275000D02*
D03*
X84500Y294500D02*
D03*
X380000Y334500D02*
D03*
X675500Y308000D02*
D03*
X661921D02*
D03*
X634763D02*
D03*
X648342D02*
D03*
X607605D02*
D03*
X621184D02*
D03*
X580447D02*
D03*
X594026D02*
D03*
X483000Y337000D02*
D03*
X525000Y336000D02*
D03*
X511000Y336500D02*
D03*
X497500Y337000D02*
D03*
X539711Y308000D02*
D03*
X526132D02*
D03*
X553290D02*
D03*
X470000Y383500D02*
D03*
X470500Y337000D02*
D03*
X526000Y322000D02*
D03*
X470000Y366500D02*
D03*
Y353500D02*
D03*
X429079Y277000D02*
D03*
X415500D02*
D03*
X456237D02*
D03*
X442658D02*
D03*
X564868D02*
D03*
X551289D02*
D03*
X524131D02*
D03*
X537711D02*
D03*
X496974D02*
D03*
X510553D02*
D03*
X469816D02*
D03*
X483395D02*
D03*
X592026D02*
D03*
X578447D02*
D03*
X619184D02*
D03*
X605605D02*
D03*
X646342D02*
D03*
X632763D02*
D03*
X659921D02*
D03*
X673500D02*
D03*
X697500Y276500D02*
D03*
X683921D02*
D03*
X699500Y291500D02*
D03*
X685921Y307500D02*
D03*
X699500D02*
D03*
X362500Y317500D02*
D03*
X346421D02*
D03*
X379500Y319500D02*
D03*
X342921Y276000D02*
D03*
X356500D02*
D03*
X332500Y276500D02*
D03*
X318921D02*
D03*
X291763D02*
D03*
X305342D02*
D03*
X264605D02*
D03*
X278184D02*
D03*
X237447D02*
D03*
X251026D02*
D03*
X142395D02*
D03*
X128816D02*
D03*
X169553D02*
D03*
X155974D02*
D03*
X196711D02*
D03*
X183132D02*
D03*
X210289D02*
D03*
X223868D02*
D03*
X101658D02*
D03*
X115237D02*
D03*
X95000Y287000D02*
D03*
X75853Y304500D02*
D03*
X91329Y310500D02*
D03*
X76000Y318000D02*
D03*
X118737D02*
D03*
X105000Y310500D02*
D03*
X227368Y318000D02*
D03*
X211500Y309500D02*
D03*
X186632Y318000D02*
D03*
X199500Y310654D02*
D03*
X159474Y318000D02*
D03*
X173053D02*
D03*
X133500Y309000D02*
D03*
X147000D02*
D03*
X254526Y318000D02*
D03*
X240947D02*
D03*
X283000Y309500D02*
D03*
X267500D02*
D03*
X308842Y318000D02*
D03*
X295263D02*
D03*
X319000Y309000D02*
D03*
X334000Y309630D02*
D03*
M02*
