G04*
G04 #@! TF.GenerationSoftware,Altium Limited,Altium Designer,18.1.7 (191)*
G04*
G04 Layer_Color=32768*
%FSLAX25Y25*%
%MOIN*%
G70*
G01*
G75*
%ADD16C,0.00500*%
%ADD17C,0.00300*%
%ADD137C,0.00100*%
D16*
X493959Y430658D02*
X493459Y430158D01*
X492459D01*
X491959Y430658D01*
Y432658D01*
X492459Y433157D01*
X493459D01*
X493959Y432658D01*
Y430658D01*
X490960Y433157D02*
Y432658D01*
X490460D01*
Y433157D01*
X490960D01*
X488460D02*
X487461D01*
X487961D01*
Y430158D01*
X488460Y430658D01*
X485961Y433157D02*
X484962D01*
X485461D01*
Y430158D01*
X485961Y430658D01*
X481463Y433157D02*
X483462D01*
X481463Y431158D01*
Y430658D01*
X481962Y430158D01*
X482962D01*
X483462Y430658D01*
X480463Y433157D02*
X479463D01*
X479963D01*
Y431158D01*
X480463D01*
X477964Y433157D02*
Y431158D01*
X476464D01*
X475964Y431658D01*
Y433157D01*
X474965D02*
X472965Y431158D01*
X469966Y433157D02*
X471966D01*
X469966Y431158D01*
Y430658D01*
X470466Y430158D01*
X471466D01*
X471966Y430658D01*
X468967Y433157D02*
Y432658D01*
X468467D01*
Y433157D01*
X468967D01*
X466468Y430658D02*
X465968Y430158D01*
X464968D01*
X464468Y430658D01*
Y431158D01*
X464968Y431658D01*
X464468Y432158D01*
Y432658D01*
X464968Y433157D01*
X465968D01*
X466468Y432658D01*
Y432158D01*
X465968Y431658D01*
X466468Y431158D01*
Y430658D01*
X465968Y431658D02*
X464968D01*
X461469Y430158D02*
X463469D01*
Y431658D01*
X462469Y431158D01*
X461969D01*
X461469Y431658D01*
Y432658D01*
X461969Y433157D01*
X462969D01*
X463469Y432658D01*
X460469Y433157D02*
Y431158D01*
X459970D01*
X459470Y431658D01*
Y433157D01*
Y431658D01*
X458970Y431158D01*
X458470Y431658D01*
Y433157D01*
X457471D02*
Y431158D01*
X456971D01*
X456471Y431658D01*
Y433157D01*
Y431658D01*
X455971Y431158D01*
X455471Y431658D01*
Y433157D01*
X457598Y414751D02*
X457099Y414251D01*
X456099D01*
X455599Y414751D01*
Y416750D01*
X456099Y417250D01*
X457099D01*
X457598Y416750D01*
Y414751D01*
X454599Y417250D02*
Y416750D01*
X454100D01*
Y417250D01*
X454599D01*
X452100Y414751D02*
X451600Y414251D01*
X450601D01*
X450101Y414751D01*
Y416750D01*
X450601Y417250D01*
X451600D01*
X452100Y416750D01*
Y414751D01*
X447102Y414251D02*
X449101D01*
Y415751D01*
X448102Y415251D01*
X447602D01*
X447102Y415751D01*
Y416750D01*
X447602Y417250D01*
X448601D01*
X449101Y416750D01*
X446102Y414751D02*
X445602Y414251D01*
X444603D01*
X444103Y414751D01*
Y415251D01*
X444603Y415751D01*
X445103D01*
X444603D01*
X444103Y416250D01*
Y416750D01*
X444603Y417250D01*
X445602D01*
X446102Y416750D01*
X443103Y417250D02*
X442103D01*
X442603D01*
Y415251D01*
X443103D01*
X440604Y417250D02*
Y415251D01*
X439104D01*
X438605Y415751D01*
Y417250D01*
X437605D02*
X435605Y415251D01*
X434606Y417250D02*
X433606D01*
X434106D01*
Y414251D01*
X434606Y414751D01*
X432107Y417250D02*
Y416750D01*
X431607D01*
Y417250D01*
X432107D01*
X429607Y414751D02*
X429108Y414251D01*
X428108D01*
X427608Y414751D01*
Y415251D01*
X428108Y415751D01*
X428608D01*
X428108D01*
X427608Y416250D01*
Y416750D01*
X428108Y417250D01*
X429108D01*
X429607Y416750D01*
X424609Y414251D02*
X426608D01*
Y415751D01*
X425609Y415251D01*
X425109D01*
X424609Y415751D01*
Y416750D01*
X425109Y417250D01*
X426109D01*
X426608Y416750D01*
X423609Y417250D02*
Y415251D01*
X423110D01*
X422610Y415751D01*
Y417250D01*
Y415751D01*
X422110Y415251D01*
X421610Y415751D01*
Y417250D01*
X420610D02*
Y415251D01*
X420111D01*
X419611Y415751D01*
Y417250D01*
Y415751D01*
X419111Y415251D01*
X418611Y415751D01*
Y417250D01*
X465630Y414751D02*
X465130Y414251D01*
X464130D01*
X463631Y414751D01*
Y416750D01*
X464130Y417250D01*
X465130D01*
X465630Y416750D01*
Y414751D01*
X462631Y417250D02*
Y416750D01*
X462131D01*
Y417250D01*
X462631D01*
X460132Y414751D02*
X459632Y414251D01*
X458632D01*
X458132Y414751D01*
Y416750D01*
X458632Y417250D01*
X459632D01*
X460132Y416750D01*
Y414751D01*
X455133Y417250D02*
X457133D01*
X455133Y415251D01*
Y414751D01*
X455633Y414251D01*
X456633D01*
X457133Y414751D01*
X452134Y417250D02*
X454134D01*
X452134Y415251D01*
Y414751D01*
X452634Y414251D01*
X453634D01*
X454134Y414751D01*
X451135Y417250D02*
X450135D01*
X450635D01*
Y415251D01*
X451135D01*
X448635Y417250D02*
Y415251D01*
X447136D01*
X446636Y415751D01*
Y417250D01*
X445636D02*
X443637Y415251D01*
X442637Y414751D02*
X442137Y414251D01*
X441138D01*
X440638Y414751D01*
Y416750D01*
X441138Y417250D01*
X442137D01*
X442637Y416750D01*
Y414751D01*
X439638Y417250D02*
Y416750D01*
X439139D01*
Y417250D01*
X439638D01*
X435140Y414251D02*
X437139D01*
Y415751D01*
X436139Y415251D01*
X435640D01*
X435140Y415751D01*
Y416750D01*
X435640Y417250D01*
X436639D01*
X437139Y416750D01*
X432141Y414251D02*
X434140D01*
Y415751D01*
X433140Y415251D01*
X432641D01*
X432141Y415751D01*
Y416750D01*
X432641Y417250D01*
X433640D01*
X434140Y416750D01*
X431141Y417250D02*
Y415251D01*
X430641D01*
X430141Y415751D01*
Y417250D01*
Y415751D01*
X429642Y415251D01*
X429142Y415751D01*
Y417250D01*
X428142D02*
Y415251D01*
X427642D01*
X427142Y415751D01*
Y417250D01*
Y415751D01*
X426643Y415251D01*
X426143Y415751D01*
Y417250D01*
X500125Y405418D02*
X499625Y404918D01*
X498626D01*
X498126Y405418D01*
Y407417D01*
X498626Y407917D01*
X499625D01*
X500125Y407417D01*
Y405418D01*
X497126Y407917D02*
Y407417D01*
X496626D01*
Y407917D01*
X497126D01*
X494627Y405418D02*
X494127Y404918D01*
X493127D01*
X492627Y405418D01*
Y407417D01*
X493127Y407917D01*
X494127D01*
X494627Y407417D01*
Y405418D01*
X491628Y407917D02*
X490628D01*
X491128D01*
Y404918D01*
X491628Y405418D01*
X487129Y404918D02*
X488129Y405418D01*
X489129Y406418D01*
Y407417D01*
X488629Y407917D01*
X487629D01*
X487129Y407417D01*
Y406918D01*
X487629Y406418D01*
X489129D01*
X486130Y407917D02*
X485130D01*
X485630D01*
Y405918D01*
X486130D01*
X483630Y407917D02*
Y405918D01*
X482131D01*
X481631Y406418D01*
Y407917D01*
X480631D02*
X478632Y405918D01*
X477632Y405418D02*
X477132Y404918D01*
X476133D01*
X475633Y405418D01*
Y407417D01*
X476133Y407917D01*
X477132D01*
X477632Y407417D01*
Y405418D01*
X474633Y407917D02*
Y407417D01*
X474133D01*
Y407917D01*
X474633D01*
X470635D02*
Y404918D01*
X472134Y406418D01*
X470135D01*
X469135Y407917D02*
Y405918D01*
X468635D01*
X468135Y406418D01*
Y407917D01*
Y406418D01*
X467635Y405918D01*
X467136Y406418D01*
Y407917D01*
X466136D02*
Y405918D01*
X465636D01*
X465136Y406418D01*
Y407917D01*
Y406418D01*
X464637Y405918D01*
X464137Y406418D01*
Y407917D01*
X493959Y395418D02*
X493459Y394918D01*
X492459D01*
X491959Y395418D01*
Y397417D01*
X492459Y397917D01*
X493459D01*
X493959Y397417D01*
Y395418D01*
X490960Y397917D02*
Y397417D01*
X490460D01*
Y397917D01*
X490960D01*
X488460D02*
X487461D01*
X487961D01*
Y394918D01*
X488460Y395418D01*
X483962Y394918D02*
X485961D01*
Y396418D01*
X484962Y395918D01*
X484462D01*
X483962Y396418D01*
Y397417D01*
X484462Y397917D01*
X485461D01*
X485961Y397417D01*
X480963Y397917D02*
X482962D01*
X480963Y395918D01*
Y395418D01*
X481463Y394918D01*
X482462D01*
X482962Y395418D01*
X479963Y397917D02*
X478964D01*
X479463D01*
Y395918D01*
X479963D01*
X477464Y397917D02*
Y395918D01*
X475964D01*
X475465Y396418D01*
Y397917D01*
X474465D02*
X472466Y395918D01*
X471466Y395418D02*
X470966Y394918D01*
X469966D01*
X469467Y395418D01*
Y395918D01*
X469966Y396418D01*
X470466D01*
X469966D01*
X469467Y396918D01*
Y397417D01*
X469966Y397917D01*
X470966D01*
X471466Y397417D01*
X468467Y397917D02*
Y397417D01*
X467967D01*
Y397917D01*
X468467D01*
X465968Y395418D02*
X465468Y394918D01*
X464468D01*
X463968Y395418D01*
Y395918D01*
X464468Y396418D01*
X463968Y396918D01*
Y397417D01*
X464468Y397917D01*
X465468D01*
X465968Y397417D01*
Y396918D01*
X465468Y396418D01*
X465968Y395918D01*
Y395418D01*
X465468Y396418D02*
X464468D01*
X460969Y394918D02*
X462969D01*
Y396418D01*
X461969Y395918D01*
X461469D01*
X460969Y396418D01*
Y397417D01*
X461469Y397917D01*
X462469D01*
X462969Y397417D01*
X459970Y397917D02*
Y395918D01*
X459470D01*
X458970Y396418D01*
Y397917D01*
Y396418D01*
X458470Y395918D01*
X457970Y396418D01*
Y397917D01*
X456971D02*
Y395918D01*
X456471D01*
X455971Y396418D01*
Y397917D01*
Y396418D01*
X455471Y395918D01*
X454971Y396418D01*
Y397917D01*
X518959Y464683D02*
Y462683D01*
X517959Y461684D01*
X516959Y462683D01*
Y464683D01*
Y463183D01*
X518959D01*
X515960Y464683D02*
X514960D01*
X515460D01*
Y461684D01*
X515960D01*
X512961Y462184D02*
Y462683D01*
X513460D01*
X512461D01*
X512961D01*
Y464183D01*
X512461Y464683D01*
X505963D02*
X507962D01*
X505963Y462683D01*
Y462184D01*
X506463Y461684D01*
X507462D01*
X507962Y462184D01*
X501964Y464683D02*
Y461684D01*
X500465D01*
X499965Y462184D01*
Y463183D01*
X500465Y463683D01*
X501964D01*
X498465Y462683D02*
X497466D01*
X496966Y463183D01*
Y464683D01*
X498465D01*
X498965Y464183D01*
X498465Y463683D01*
X496966D01*
X493967Y461684D02*
Y464683D01*
X495466D01*
X495966Y464183D01*
Y463183D01*
X495466Y462683D01*
X493967D01*
X492967Y464683D02*
X491468D01*
X490968Y464183D01*
X491468Y463683D01*
X492467D01*
X492967Y463183D01*
X492467Y462683D01*
X490968D01*
X489468Y462184D02*
Y462683D01*
X489968D01*
X488968D01*
X489468D01*
Y464183D01*
X488968Y464683D01*
X487469Y462683D02*
Y464183D01*
X486969Y464683D01*
X485469D01*
Y465182D01*
X485969Y465682D01*
X486469D01*
X485469Y464683D02*
Y462683D01*
X484470Y464683D02*
X483470D01*
X483970D01*
Y461684D01*
X484470D01*
X480471Y464683D02*
X481471D01*
X481971Y464183D01*
Y463183D01*
X481471Y462683D01*
X480471D01*
X479971Y463183D01*
Y463683D01*
X481971D01*
X478972Y462683D02*
X478472D01*
Y463183D01*
X478972D01*
Y462683D01*
Y464183D02*
X478472D01*
Y464683D01*
X478972D01*
Y464183D01*
X471974Y461684D02*
X472973D01*
X473473Y462184D01*
Y464183D01*
X472973Y464683D01*
X471974D01*
X471474Y464183D01*
Y462184D01*
X471974Y461684D01*
X470474D02*
X468475Y464683D01*
Y461684D02*
X470474Y464683D01*
X467475Y464183D02*
X466975Y464683D01*
X465976D01*
X465476Y464183D01*
Y462184D01*
X465976Y461684D01*
X466975D01*
X467475Y462184D01*
Y462683D01*
X466975Y463183D01*
X465476D01*
X464476Y462184D02*
X463976Y461684D01*
X462977D01*
X462477Y462184D01*
Y464183D01*
X462977Y464683D01*
X463976D01*
X464476Y464183D01*
Y462184D01*
X461477Y461684D02*
Y462184D01*
X460478Y463183D01*
X459478Y462184D01*
Y461684D01*
X460478Y463183D02*
Y464683D01*
X456479Y461684D02*
X457479Y462184D01*
X458478Y463183D01*
Y464183D01*
X457978Y464683D01*
X456979D01*
X456479Y464183D01*
Y463683D01*
X456979Y463183D01*
X458478D01*
X455479Y462184D02*
X454979Y461684D01*
X453980D01*
X453480Y462184D01*
Y464183D01*
X453980Y464683D01*
X454979D01*
X455479Y464183D01*
Y462184D01*
X452480Y461684D02*
Y464683D01*
X450981D01*
X450481Y464183D01*
Y462184D01*
X450981Y461684D01*
X452480D01*
X449481Y462184D02*
X448981Y461684D01*
X447982D01*
X447482Y462184D01*
Y462683D01*
X447982Y463183D01*
X448482D01*
X447982D01*
X447482Y463683D01*
Y464183D01*
X447982Y464683D01*
X448981D01*
X449481Y464183D01*
X446482Y462184D02*
X445982Y461684D01*
X444983D01*
X444483Y462184D01*
Y464183D01*
X444983Y464683D01*
X445982D01*
X446482Y464183D01*
Y462184D01*
X443483Y464683D02*
Y461684D01*
X441984D01*
X441484Y462184D01*
Y463183D01*
X441984Y463683D01*
X443483D01*
X518959Y457183D02*
Y455183D01*
X517959Y454184D01*
X516959Y455183D01*
Y457183D01*
Y455683D01*
X518959D01*
X515960Y457183D02*
X514960D01*
X515460D01*
Y454184D01*
X515960D01*
X512961Y454683D02*
Y455183D01*
X513460D01*
X512461D01*
X512961D01*
Y456683D01*
X512461Y457183D01*
X507962D02*
X506962D01*
X507462D01*
Y454184D01*
X507962Y454683D01*
X502464Y457183D02*
Y454184D01*
X500964D01*
X500465Y454683D01*
Y455683D01*
X500964Y456183D01*
X502464D01*
X498965Y455183D02*
X497965D01*
X497466Y455683D01*
Y457183D01*
X498965D01*
X499465Y456683D01*
X498965Y456183D01*
X497466D01*
X494467Y454184D02*
Y457183D01*
X495966D01*
X496466Y456683D01*
Y455683D01*
X495966Y455183D01*
X494467D01*
X493467Y457183D02*
X491967D01*
X491468Y456683D01*
X491967Y456183D01*
X492967D01*
X493467Y455683D01*
X492967Y455183D01*
X491468D01*
X489968Y454683D02*
Y455183D01*
X490468D01*
X489468D01*
X489968D01*
Y456683D01*
X489468Y457183D01*
X487969Y455183D02*
Y456683D01*
X487469Y457183D01*
X485969D01*
Y457683D01*
X486469Y458182D01*
X486969D01*
X485969Y457183D02*
Y455183D01*
X484970Y457183D02*
X483970D01*
X484470D01*
Y454184D01*
X484970D01*
X480971Y457183D02*
X481971D01*
X482471Y456683D01*
Y455683D01*
X481971Y455183D01*
X480971D01*
X480471Y455683D01*
Y456183D01*
X482471D01*
X479471Y455183D02*
X478972D01*
Y455683D01*
X479471D01*
Y455183D01*
Y456683D02*
X478972D01*
Y457183D01*
X479471D01*
Y456683D01*
X472474Y454184D02*
X473473D01*
X473973Y454683D01*
Y456683D01*
X473473Y457183D01*
X472474D01*
X471974Y456683D01*
Y454683D01*
X472474Y454184D01*
X470974D02*
X468975Y457183D01*
Y454184D02*
X470974Y457183D01*
X465976Y454184D02*
X466975Y454683D01*
X467975Y455683D01*
Y456683D01*
X467475Y457183D01*
X466476D01*
X465976Y456683D01*
Y456183D01*
X466476Y455683D01*
X467975D01*
X464976Y454683D02*
X464476Y454184D01*
X463477D01*
X462977Y454683D01*
Y456683D01*
X463477Y457183D01*
X464476D01*
X464976Y456683D01*
Y454683D01*
X461977Y454184D02*
Y454683D01*
X460977Y455683D01*
X459978Y454683D01*
Y454184D01*
X460977Y455683D02*
Y457183D01*
X458978Y456683D02*
X458478Y457183D01*
X457479D01*
X456979Y456683D01*
Y454683D01*
X457479Y454184D01*
X458478D01*
X458978Y454683D01*
Y455183D01*
X458478Y455683D01*
X456979D01*
X455979Y454683D02*
X455479Y454184D01*
X454480D01*
X453980Y454683D01*
Y456683D01*
X454480Y457183D01*
X455479D01*
X455979Y456683D01*
Y454683D01*
X452980Y454184D02*
Y457183D01*
X451480D01*
X450981Y456683D01*
Y454683D01*
X451480Y454184D01*
X452980D01*
X449981Y454683D02*
X449481Y454184D01*
X448482D01*
X447982Y454683D01*
Y455183D01*
X448482Y455683D01*
X448981D01*
X448482D01*
X447982Y456183D01*
Y456683D01*
X448482Y457183D01*
X449481D01*
X449981Y456683D01*
X446982Y454683D02*
X446482Y454184D01*
X445482D01*
X444983Y454683D01*
Y456683D01*
X445482Y457183D01*
X446482D01*
X446982Y456683D01*
Y454683D01*
X443983Y457183D02*
Y454184D01*
X442483D01*
X441984Y454683D01*
Y455683D01*
X442483Y456183D01*
X443983D01*
X527709Y446684D02*
Y449683D01*
X526209D01*
X525709Y449183D01*
Y447184D01*
X526209Y446684D01*
X527709D01*
X523210Y449683D02*
X524210D01*
X524710Y449183D01*
Y448183D01*
X524210Y447683D01*
X523210D01*
X522710Y448183D01*
Y448683D01*
X524710D01*
X521211Y449683D02*
Y447184D01*
Y448183D01*
X521711D01*
X520711D01*
X521211D01*
Y447184D01*
X520711Y446684D01*
X518712Y447683D02*
X517712D01*
X517212Y448183D01*
Y449683D01*
X518712D01*
X519211Y449183D01*
X518712Y448683D01*
X517212D01*
X516212Y447683D02*
Y449183D01*
X515712Y449683D01*
X514213D01*
Y447683D01*
X513213Y449683D02*
X512214D01*
X512713D01*
Y446684D01*
X513213D01*
X510214Y447184D02*
Y447683D01*
X510714D01*
X509715D01*
X510214D01*
Y449183D01*
X509715Y449683D01*
X505216D02*
Y446684D01*
X503716D01*
X503217Y447184D01*
Y448183D01*
X503716Y448683D01*
X505216D01*
X501717Y447683D02*
X500717D01*
X500218Y448183D01*
Y449683D01*
X501717D01*
X502217Y449183D01*
X501717Y448683D01*
X500218D01*
X497219Y446684D02*
Y449683D01*
X498718D01*
X499218Y449183D01*
Y448183D01*
X498718Y447683D01*
X497219D01*
X496219Y449683D02*
X494719D01*
X494219Y449183D01*
X494719Y448683D01*
X495719D01*
X496219Y448183D01*
X495719Y447683D01*
X494219D01*
X492720Y447184D02*
Y447683D01*
X493220D01*
X492220D01*
X492720D01*
Y449183D01*
X492220Y449683D01*
X490721Y447683D02*
Y449183D01*
X490221Y449683D01*
X488721D01*
Y450182D01*
X489221Y450682D01*
X489721D01*
X488721Y449683D02*
Y447683D01*
X487722Y449683D02*
X486722D01*
X487222D01*
Y446684D01*
X487722D01*
X483723Y449683D02*
X484723D01*
X485222Y449183D01*
Y448183D01*
X484723Y447683D01*
X483723D01*
X483223Y448183D01*
Y448683D01*
X485222D01*
X482223Y447683D02*
X481723D01*
Y448183D01*
X482223D01*
Y447683D01*
Y449183D02*
X481723D01*
Y449683D01*
X482223D01*
Y449183D01*
X476725Y449683D02*
Y446684D01*
X475226D01*
X474726Y447184D01*
Y448183D01*
X475226Y448683D01*
X476725D01*
X475726D02*
X474726Y449683D01*
X473726Y446684D02*
X471727Y449683D01*
Y446684D02*
X473726Y449683D01*
X469228D02*
Y446684D01*
X470727Y448183D01*
X468728D01*
X467728Y447184D02*
X467228Y446684D01*
X466228D01*
X465729Y447184D01*
Y447683D01*
X466228Y448183D01*
X466728D01*
X466228D01*
X465729Y448683D01*
Y449183D01*
X466228Y449683D01*
X467228D01*
X467728Y449183D01*
X464729Y450682D02*
Y447683D01*
X463230D01*
X462730Y448183D01*
Y449183D01*
X463230Y449683D01*
X464729D01*
X461730Y446684D02*
X459731D01*
Y447184D01*
X461730Y449183D01*
Y449683D01*
X456732Y446684D02*
X458731D01*
Y448183D01*
X457731Y447683D01*
X457232D01*
X456732Y448183D01*
Y449183D01*
X457232Y449683D01*
X458231D01*
X458731Y449183D01*
X455732Y446684D02*
Y447184D01*
X454732Y448183D01*
X453733Y447184D01*
Y446684D01*
X454732Y448183D02*
Y449683D01*
X450734D02*
X452733D01*
X450734Y447683D01*
Y447184D01*
X451233Y446684D01*
X452233D01*
X452733Y447184D01*
X449734D02*
X449234Y446684D01*
X448234D01*
X447734Y447184D01*
Y447683D01*
X448234Y448183D01*
X448734D01*
X448234D01*
X447734Y448683D01*
Y449183D01*
X448234Y449683D01*
X449234D01*
X449734Y449183D01*
X446735Y450682D02*
Y447683D01*
X445235D01*
X444735Y448183D01*
Y449183D01*
X445235Y449683D01*
X446735D01*
X441737Y446684D02*
X442736Y447184D01*
X443736Y448183D01*
Y449183D01*
X443236Y449683D01*
X442236D01*
X441737Y449183D01*
Y448683D01*
X442236Y448183D01*
X443736D01*
X438737Y446684D02*
X440737D01*
Y448183D01*
X439737Y447683D01*
X439237D01*
X438737Y448183D01*
Y449183D01*
X439237Y449683D01*
X440237D01*
X440737Y449183D01*
X437738Y446684D02*
Y449683D01*
X436238D01*
X435738Y449183D01*
Y447184D01*
X436238Y446684D01*
X437738D01*
X434739Y447184D02*
X434239Y446684D01*
X433239D01*
X432739Y447184D01*
Y449183D01*
X433239Y449683D01*
X434239D01*
X434739Y449183D01*
Y447184D01*
X431740Y446684D02*
X429740D01*
X430740D01*
Y449683D01*
X673999Y337750D02*
X674499Y337250D01*
Y336250D01*
X673999Y335751D01*
X672000D01*
X671500Y336250D01*
Y337250D01*
X672000Y337750D01*
X673999D01*
X671500Y334751D02*
X672000D01*
Y334251D01*
X671500D01*
Y334751D01*
X673999Y332252D02*
X674499Y331752D01*
Y330752D01*
X673999Y330252D01*
X672000D01*
X671500Y330752D01*
Y331752D01*
X672000Y332252D01*
X673999D01*
X671500Y327753D02*
X674499D01*
X672999Y329253D01*
Y327253D01*
X674499Y324254D02*
Y326254D01*
X672999D01*
X673499Y325254D01*
Y324754D01*
X672999Y324254D01*
X672000D01*
X671500Y324754D01*
Y325754D01*
X672000Y326254D01*
X671500Y323255D02*
Y322255D01*
Y322755D01*
X673499D01*
Y323255D01*
X671500Y320755D02*
X673499D01*
Y319256D01*
X672999Y318756D01*
X671500D01*
Y317756D02*
X673499Y315757D01*
X671500Y314757D02*
Y313758D01*
Y314258D01*
X674499D01*
X673999Y314757D01*
X671500Y312258D02*
X672000D01*
Y311758D01*
X671500D01*
Y312258D01*
Y309759D02*
Y308759D01*
Y309259D01*
X674499D01*
X673999Y309759D01*
X671500Y305760D02*
X674499D01*
X672999Y307260D01*
Y305260D01*
X673999Y304261D02*
X674499Y303761D01*
Y302761D01*
X673999Y302261D01*
X673499D01*
X672999Y302761D01*
Y303261D01*
Y302761D01*
X672500Y302261D01*
X672000D01*
X671500Y302761D01*
Y303761D01*
X672000Y304261D01*
X671500Y301262D02*
X673499D01*
Y300762D01*
X672999Y300262D01*
X671500D01*
X672999D01*
X673499Y299762D01*
X672999Y299262D01*
X671500D01*
Y298263D02*
X673499D01*
Y297763D01*
X672999Y297263D01*
X671500D01*
X672999D01*
X673499Y296763D01*
X672999Y296263D01*
X671500D01*
X658515Y397234D02*
X659015Y396734D01*
Y395734D01*
X658515Y395234D01*
X656516D01*
X656016Y395734D01*
Y396734D01*
X656516Y397234D01*
X658515D01*
X656016Y394235D02*
X656516D01*
Y393735D01*
X656016D01*
Y394235D01*
X658515Y391736D02*
X659015Y391236D01*
Y390236D01*
X658515Y389736D01*
X656516D01*
X656016Y390236D01*
Y391236D01*
X656516Y391736D01*
X658515D01*
Y388737D02*
X659015Y388237D01*
Y387237D01*
X658515Y386737D01*
X658015D01*
X657515Y387237D01*
Y387737D01*
Y387237D01*
X657015Y386737D01*
X656516D01*
X656016Y387237D01*
Y388237D01*
X656516Y388737D01*
X659015Y383738D02*
Y385738D01*
X657515D01*
X658015Y384738D01*
Y384238D01*
X657515Y383738D01*
X656516D01*
X656016Y384238D01*
Y385238D01*
X656516Y385738D01*
X656016Y382739D02*
Y381739D01*
Y382239D01*
X658015D01*
Y382739D01*
X656016Y380239D02*
X658015D01*
Y378740D01*
X657515Y378240D01*
X656016D01*
Y377240D02*
X658015Y375241D01*
X658515Y374241D02*
X659015Y373742D01*
Y372742D01*
X658515Y372242D01*
X656516D01*
X656016Y372742D01*
Y373742D01*
X656516Y374241D01*
X658515D01*
X656016Y371242D02*
X656516D01*
Y370743D01*
X656016D01*
Y371242D01*
X658515Y368743D02*
X659015Y368243D01*
Y367244D01*
X658515Y366744D01*
X658015D01*
X657515Y367244D01*
X657015Y366744D01*
X656516D01*
X656016Y367244D01*
Y368243D01*
X656516Y368743D01*
X657015D01*
X657515Y368243D01*
X658015Y368743D01*
X658515D01*
X657515Y368243D02*
Y367244D01*
X658515Y365744D02*
X659015Y365244D01*
Y364245D01*
X658515Y363745D01*
X658015D01*
X657515Y364245D01*
X657015Y363745D01*
X656516D01*
X656016Y364245D01*
Y365244D01*
X656516Y365744D01*
X657015D01*
X657515Y365244D01*
X658015Y365744D01*
X658515D01*
X657515Y365244D02*
Y364245D01*
X656516Y362745D02*
X656016Y362245D01*
Y361245D01*
X656516Y360746D01*
X658515D01*
X659015Y361245D01*
Y362245D01*
X658515Y362745D01*
X658015D01*
X657515Y362245D01*
Y360746D01*
X656016Y359746D02*
X658015D01*
Y359246D01*
X657515Y358746D01*
X656016D01*
X657515D01*
X658015Y358246D01*
X657515Y357747D01*
X656016D01*
Y356747D02*
X658015D01*
Y356247D01*
X657515Y355747D01*
X656016D01*
X657515D01*
X658015Y355247D01*
X657515Y354748D01*
X656016D01*
X681016Y338493D02*
X683015Y340492D01*
D17*
X442291Y404316D02*
Y399317D01*
X444791D01*
X445624Y400150D01*
Y403483D01*
X444791Y404316D01*
X442291D01*
X449789Y399317D02*
X448123D01*
X447290Y400150D01*
Y401817D01*
X448123Y402650D01*
X449789D01*
X450622Y401817D01*
Y400983D01*
X447290D01*
X453121Y399317D02*
Y403483D01*
Y401817D01*
X452288D01*
X453954D01*
X453121D01*
Y403483D01*
X453954Y404316D01*
X457287Y402650D02*
X458953D01*
X459786Y401817D01*
Y399317D01*
X457287D01*
X456453Y400150D01*
X457287Y400983D01*
X459786D01*
X461452Y402650D02*
Y400150D01*
X462285Y399317D01*
X464784D01*
Y402650D01*
X466450Y399317D02*
X468116D01*
X467283D01*
Y404316D01*
X466450D01*
X471449Y403483D02*
Y402650D01*
X470615D01*
X472282D01*
X471449D01*
Y400150D01*
X472282Y399317D01*
X479779D02*
Y404316D01*
X482278D01*
X483111Y403483D01*
Y401817D01*
X482278Y400983D01*
X479779D01*
X485611Y402650D02*
X487277D01*
X488110Y401817D01*
Y399317D01*
X485611D01*
X484778Y400150D01*
X485611Y400983D01*
X488110D01*
X493108Y404316D02*
Y399317D01*
X490609D01*
X489776Y400150D01*
Y401817D01*
X490609Y402650D01*
X493108D01*
X494774Y399317D02*
X497273D01*
X498107Y400150D01*
X497273Y400983D01*
X495607D01*
X494774Y401817D01*
X495607Y402650D01*
X498107D01*
X500606Y403483D02*
Y402650D01*
X499773D01*
X501439D01*
X500606D01*
Y400150D01*
X501439Y399317D01*
X503938Y402650D02*
Y400150D01*
X504771Y399317D01*
X507270D01*
Y398484D01*
X506437Y397651D01*
X505604D01*
X507270Y399317D02*
Y402650D01*
X508936Y399317D02*
X510603D01*
X509769D01*
Y404316D01*
X508936D01*
X515601Y399317D02*
X513935D01*
X513102Y400150D01*
Y401817D01*
X513935Y402650D01*
X515601D01*
X516434Y401817D01*
Y400983D01*
X513102D01*
X518100Y402650D02*
X518933D01*
Y401817D01*
X518100D01*
Y402650D01*
Y400150D02*
X518933D01*
Y399317D01*
X518100D01*
Y400150D01*
X527264Y399317D02*
Y404316D01*
X529763D01*
X530596Y403483D01*
Y401817D01*
X529763Y400983D01*
X527264D01*
X528930D02*
X530596Y399317D01*
X532262Y404316D02*
X535595Y399317D01*
Y404316D02*
X532262Y399317D01*
X539760D02*
Y404316D01*
X537261Y401817D01*
X540593D01*
X542259Y403483D02*
X543092Y404316D01*
X544758D01*
X545591Y403483D01*
Y402650D01*
X544758Y401817D01*
X543925D01*
X544758D01*
X545591Y400983D01*
Y400150D01*
X544758Y399317D01*
X543092D01*
X542259Y400150D01*
X547257Y397651D02*
Y402650D01*
X549756D01*
X550590Y401817D01*
Y400150D01*
X549756Y399317D01*
X547257D01*
X552256Y404316D02*
X555588D01*
Y403483D01*
X552256Y400150D01*
Y399317D01*
X560586Y404316D02*
X557254D01*
Y401817D01*
X558920Y402650D01*
X559753D01*
X560586Y401817D01*
Y400150D01*
X559753Y399317D01*
X558087D01*
X557254Y400150D01*
X562253Y404316D02*
Y403483D01*
X563919Y401817D01*
X565585Y403483D01*
Y404316D01*
X563919Y401817D02*
Y399317D01*
X570583D02*
X567251D01*
X570583Y402650D01*
Y403483D01*
X569750Y404316D01*
X568084D01*
X567251Y403483D01*
X572249D02*
X573082Y404316D01*
X574748D01*
X575582Y403483D01*
Y402650D01*
X574748Y401817D01*
X573915D01*
X574748D01*
X575582Y400983D01*
Y400150D01*
X574748Y399317D01*
X573082D01*
X572249Y400150D01*
X577248Y397651D02*
Y402650D01*
X579747D01*
X580580Y401817D01*
Y400150D01*
X579747Y399317D01*
X577248D01*
X585578Y404316D02*
X583912Y403483D01*
X582246Y401817D01*
Y400150D01*
X583079Y399317D01*
X584745D01*
X585578Y400150D01*
Y400983D01*
X584745Y401817D01*
X582246D01*
X590577Y404316D02*
X587244D01*
Y401817D01*
X588910Y402650D01*
X589744D01*
X590577Y401817D01*
Y400150D01*
X589744Y399317D01*
X588077D01*
X587244Y400150D01*
X592243Y404316D02*
Y399317D01*
X594742D01*
X595575Y400150D01*
Y403483D01*
X594742Y404316D01*
X592243D01*
X597241Y403483D02*
X598074Y404316D01*
X599740D01*
X600573Y403483D01*
Y400150D01*
X599740Y399317D01*
X598074D01*
X597241Y400150D01*
Y403483D01*
X602240Y404316D02*
X605572D01*
X603906D01*
Y399317D01*
X451041Y391817D02*
Y395150D01*
X452707Y396816D01*
X454374Y395150D01*
Y391817D01*
Y394317D01*
X451041D01*
X456040Y391817D02*
X457706D01*
X456873D01*
Y396816D01*
X456040D01*
X461038Y395983D02*
Y395150D01*
X460205D01*
X461871D01*
X461038D01*
Y392650D01*
X461871Y391817D01*
X469369D02*
X471035D01*
X470202D01*
Y396816D01*
X469369Y395983D01*
X478532Y391817D02*
Y396816D01*
X481032D01*
X481865Y395983D01*
Y394317D01*
X481032Y393483D01*
X478532D01*
X484364Y395150D02*
X486030D01*
X486863Y394317D01*
Y391817D01*
X484364D01*
X483531Y392650D01*
X484364Y393483D01*
X486863D01*
X491861Y396816D02*
Y391817D01*
X489362D01*
X488529Y392650D01*
Y394317D01*
X489362Y395150D01*
X491861D01*
X493528Y391817D02*
X496027D01*
X496860Y392650D01*
X496027Y393483D01*
X494361D01*
X493528Y394317D01*
X494361Y395150D01*
X496860D01*
X499359Y395983D02*
Y395150D01*
X498526D01*
X500192D01*
X499359D01*
Y392650D01*
X500192Y391817D01*
X502691Y395150D02*
Y392650D01*
X503524Y391817D01*
X506024D01*
Y390984D01*
X505191Y390151D01*
X504357D01*
X506024Y391817D02*
Y395150D01*
X507690Y391817D02*
X509356D01*
X508523D01*
Y396816D01*
X507690D01*
X514354Y391817D02*
X512688D01*
X511855Y392650D01*
Y394317D01*
X512688Y395150D01*
X514354D01*
X515187Y394317D01*
Y393483D01*
X511855D01*
X516853Y395150D02*
X517686D01*
Y394317D01*
X516853D01*
Y395150D01*
Y392650D02*
X517686D01*
Y391817D01*
X516853D01*
Y392650D01*
X528516Y396816D02*
X526850D01*
X526017Y395983D01*
Y392650D01*
X526850Y391817D01*
X528516D01*
X529349Y392650D01*
Y395983D01*
X528516Y396816D01*
X531015D02*
X534348Y391817D01*
Y396816D02*
X531015Y391817D01*
X539346Y396816D02*
X537680Y395983D01*
X536014Y394317D01*
Y392650D01*
X536847Y391817D01*
X538513D01*
X539346Y392650D01*
Y393483D01*
X538513Y394317D01*
X536014D01*
X541012Y395983D02*
X541845Y396816D01*
X543511D01*
X544345Y395983D01*
Y392650D01*
X543511Y391817D01*
X541845D01*
X541012Y392650D01*
Y395983D01*
X546011Y396816D02*
Y395983D01*
X547677Y394317D01*
X549343Y395983D01*
Y396816D01*
X547677Y394317D02*
Y391817D01*
X551009Y392650D02*
X551842Y391817D01*
X553508D01*
X554341Y392650D01*
Y395983D01*
X553508Y396816D01*
X551842D01*
X551009Y395983D01*
Y395150D01*
X551842Y394317D01*
X554341D01*
X556007Y395983D02*
X556840Y396816D01*
X558506D01*
X559340Y395983D01*
Y392650D01*
X558506Y391817D01*
X556840D01*
X556007Y392650D01*
Y395983D01*
X561006Y396816D02*
Y391817D01*
X563505D01*
X564338Y392650D01*
Y395983D01*
X563505Y396816D01*
X561006D01*
X566004Y395983D02*
X566837Y396816D01*
X568503D01*
X569336Y395983D01*
Y395150D01*
X568503Y394317D01*
X567670D01*
X568503D01*
X569336Y393483D01*
Y392650D01*
X568503Y391817D01*
X566837D01*
X566004Y392650D01*
X571002Y395983D02*
X571836Y396816D01*
X573502D01*
X574335Y395983D01*
Y392650D01*
X573502Y391817D01*
X571836D01*
X571002Y392650D01*
Y395983D01*
X576001Y391817D02*
Y396816D01*
X578500D01*
X579333Y395983D01*
Y394317D01*
X578500Y393483D01*
X576001D01*
X451041Y384317D02*
Y387650D01*
X452707Y389316D01*
X454374Y387650D01*
Y384317D01*
Y386817D01*
X451041D01*
X456040Y384317D02*
X457706D01*
X456873D01*
Y389316D01*
X456040D01*
X461038Y388483D02*
Y387650D01*
X460205D01*
X461871D01*
X461038D01*
Y385150D01*
X461871Y384317D01*
X472701D02*
X469369D01*
X472701Y387650D01*
Y388483D01*
X471868Y389316D01*
X470202D01*
X469369Y388483D01*
X479365Y384317D02*
Y389316D01*
X481865D01*
X482698Y388483D01*
Y386817D01*
X481865Y385983D01*
X479365D01*
X485197Y387650D02*
X486863D01*
X487696Y386817D01*
Y384317D01*
X485197D01*
X484364Y385150D01*
X485197Y385983D01*
X487696D01*
X492695Y389316D02*
Y384317D01*
X490195D01*
X489362Y385150D01*
Y386817D01*
X490195Y387650D01*
X492695D01*
X494361Y384317D02*
X496860D01*
X497693Y385150D01*
X496860Y385983D01*
X495194D01*
X494361Y386817D01*
X495194Y387650D01*
X497693D01*
X500192Y388483D02*
Y387650D01*
X499359D01*
X501025D01*
X500192D01*
Y385150D01*
X501025Y384317D01*
X503524Y387650D02*
Y385150D01*
X504357Y384317D01*
X506857D01*
Y383484D01*
X506024Y382651D01*
X505191D01*
X506857Y384317D02*
Y387650D01*
X508523Y384317D02*
X510189D01*
X509356D01*
Y389316D01*
X508523D01*
X515187Y384317D02*
X513521D01*
X512688Y385150D01*
Y386817D01*
X513521Y387650D01*
X515187D01*
X516020Y386817D01*
Y385983D01*
X512688D01*
X517686Y387650D02*
X518519D01*
Y386817D01*
X517686D01*
Y387650D01*
Y385150D02*
X518519D01*
Y384317D01*
X517686D01*
Y385150D01*
X529349Y389316D02*
X527683D01*
X526850Y388483D01*
Y385150D01*
X527683Y384317D01*
X529349D01*
X530182Y385150D01*
Y388483D01*
X529349Y389316D01*
X531848D02*
X535181Y384317D01*
Y389316D02*
X531848Y384317D01*
X536847Y385150D02*
X537680Y384317D01*
X539346D01*
X540179Y385150D01*
Y388483D01*
X539346Y389316D01*
X537680D01*
X536847Y388483D01*
Y387650D01*
X537680Y386817D01*
X540179D01*
X541845Y388483D02*
X542678Y389316D01*
X544344D01*
X545178Y388483D01*
Y385150D01*
X544344Y384317D01*
X542678D01*
X541845Y385150D01*
Y388483D01*
X546844Y389316D02*
Y388483D01*
X548510Y386817D01*
X550176Y388483D01*
Y389316D01*
X548510Y386817D02*
Y384317D01*
X555174Y389316D02*
X553508Y388483D01*
X551842Y386817D01*
Y385150D01*
X552675Y384317D01*
X554341D01*
X555174Y385150D01*
Y385983D01*
X554341Y386817D01*
X551842D01*
X556840Y388483D02*
X557674Y389316D01*
X559340D01*
X560173Y388483D01*
Y385150D01*
X559340Y384317D01*
X557674D01*
X556840Y385150D01*
Y388483D01*
X561839Y389316D02*
Y384317D01*
X564338D01*
X565171Y385150D01*
Y388483D01*
X564338Y389316D01*
X561839D01*
X566837Y388483D02*
X567670Y389316D01*
X569336D01*
X570169Y388483D01*
Y387650D01*
X569336Y386817D01*
X568503D01*
X569336D01*
X570169Y385983D01*
Y385150D01*
X569336Y384317D01*
X567670D01*
X566837Y385150D01*
X571836Y388483D02*
X572669Y389316D01*
X574335D01*
X575168Y388483D01*
Y385150D01*
X574335Y384317D01*
X572669D01*
X571836Y385150D01*
Y388483D01*
X576834Y384317D02*
Y389316D01*
X579333D01*
X580166Y388483D01*
Y386817D01*
X579333Y385983D01*
X576834D01*
X71614Y434189D02*
X66615D01*
Y431689D01*
X67448Y430856D01*
X70780D01*
X71614Y431689D01*
Y434189D01*
X66615Y426691D02*
Y428357D01*
X67448Y429190D01*
X69114D01*
X69947Y428357D01*
Y426691D01*
X69114Y425858D01*
X68281D01*
Y429190D01*
X66615Y423359D02*
X70780D01*
X69114D01*
Y424192D01*
Y422526D01*
Y423359D01*
X70780D01*
X71614Y422526D01*
X69947Y419193D02*
Y417527D01*
X69114Y416694D01*
X66615D01*
Y419193D01*
X67448Y420026D01*
X68281Y419193D01*
Y416694D01*
X69947Y415028D02*
X67448D01*
X66615Y414195D01*
Y411696D01*
X69947D01*
X66615Y410030D02*
Y408364D01*
Y409197D01*
X71614D01*
Y410030D01*
X70780Y405031D02*
X69947D01*
Y405864D01*
Y404198D01*
Y405031D01*
X67448D01*
X66615Y404198D01*
Y396701D02*
X71614D01*
Y394201D01*
X70780Y393368D01*
X69114D01*
X68281Y394201D01*
Y396701D01*
X69947Y390869D02*
Y389203D01*
X69114Y388370D01*
X66615D01*
Y390869D01*
X67448Y391702D01*
X68281Y390869D01*
Y388370D01*
X71614Y383372D02*
X66615D01*
Y385871D01*
X67448Y386704D01*
X69114D01*
X69947Y385871D01*
Y383372D01*
X66615Y381706D02*
Y379206D01*
X67448Y378373D01*
X68281Y379206D01*
Y380873D01*
X69114Y381706D01*
X69947Y380873D01*
Y378373D01*
X70780Y375874D02*
X69947D01*
Y376707D01*
Y375041D01*
Y375874D01*
X67448D01*
X66615Y375041D01*
X69947Y372542D02*
X67448D01*
X66615Y371709D01*
Y369210D01*
X65782D01*
X64949Y370043D01*
Y370876D01*
X66615Y369210D02*
X69947D01*
X66615Y367544D02*
Y365877D01*
Y366710D01*
X71614D01*
Y367544D01*
X66615Y360879D02*
Y362545D01*
X67448Y363378D01*
X69114D01*
X69947Y362545D01*
Y360879D01*
X69114Y360046D01*
X68281D01*
Y363378D01*
X69947Y358380D02*
Y357547D01*
X69114D01*
Y358380D01*
X69947D01*
X67448D02*
Y357547D01*
X66615D01*
Y358380D01*
X67448D01*
X71614Y345884D02*
Y349216D01*
X66615D01*
Y345884D01*
X69114Y349216D02*
Y347550D01*
X71614Y344218D02*
X66615Y340885D01*
X71614D02*
X66615Y344218D01*
X71614Y335887D02*
X70780Y337553D01*
X69114Y339219D01*
X67448D01*
X66615Y338386D01*
Y336720D01*
X67448Y335887D01*
X68281D01*
X69114Y336720D01*
Y339219D01*
X66615Y334221D02*
Y332555D01*
Y333388D01*
X71614D01*
X70780Y334221D01*
X71614Y330056D02*
X70780D01*
X69114Y328390D01*
X70780Y326723D01*
X71614D01*
X69114Y328390D02*
X66615D01*
X71614Y321725D02*
X70780Y323391D01*
X69114Y325057D01*
X67448D01*
X66615Y324224D01*
Y322558D01*
X67448Y321725D01*
X68281D01*
X69114Y322558D01*
Y325057D01*
X66615Y320059D02*
Y318393D01*
Y319226D01*
X71614D01*
X70780Y320059D01*
X71614Y315894D02*
X66615D01*
Y313394D01*
X67448Y312561D01*
X70780D01*
X71614Y313394D01*
Y315894D01*
X66615Y308396D02*
X71614D01*
X69114Y310895D01*
Y307563D01*
X66615Y305897D02*
Y304231D01*
Y305064D01*
X71614D01*
X70780Y305897D01*
X66615Y301731D02*
X71614D01*
Y299232D01*
X70780Y298399D01*
X69114D01*
X68281Y299232D01*
Y301731D01*
X59115Y435439D02*
Y433772D01*
Y434606D01*
X64113D01*
X63280Y435439D01*
X59115Y431273D02*
Y428774D01*
X59948Y427941D01*
X60781Y428774D01*
Y430440D01*
X61614Y431273D01*
X62447Y430440D01*
Y427941D01*
X63280Y425442D02*
X62447D01*
Y426275D01*
Y424609D01*
Y425442D01*
X59948D01*
X59115Y424609D01*
Y417111D02*
X64113D01*
X62447Y415445D01*
X64113Y413779D01*
X59115D01*
X63280Y411280D02*
X62447D01*
Y412113D01*
Y410447D01*
Y411280D01*
X59948D01*
X59115Y410447D01*
X57449Y406281D02*
Y405448D01*
X58282Y404615D01*
X62447D01*
Y407114D01*
X61614Y407947D01*
X59948D01*
X59115Y407114D01*
Y404615D01*
Y397951D02*
X64113D01*
Y395451D01*
X63280Y394618D01*
X61614D01*
X60781Y395451D01*
Y397951D01*
X62447Y392119D02*
Y390453D01*
X61614Y389620D01*
X59115D01*
Y392119D01*
X59948Y392952D01*
X60781Y392119D01*
Y389620D01*
X64113Y384622D02*
X59115D01*
Y387121D01*
X59948Y387954D01*
X61614D01*
X62447Y387121D01*
Y384622D01*
X59115Y382956D02*
Y380456D01*
X59948Y379623D01*
X60781Y380456D01*
Y382122D01*
X61614Y382956D01*
X62447Y382122D01*
Y379623D01*
X63280Y377124D02*
X62447D01*
Y377957D01*
Y376291D01*
Y377124D01*
X59948D01*
X59115Y376291D01*
X62447Y373792D02*
X59948D01*
X59115Y372959D01*
Y370460D01*
X58282D01*
X57449Y371293D01*
Y372126D01*
X59115Y370460D02*
X62447D01*
X59115Y368794D02*
Y367127D01*
Y367960D01*
X64113D01*
Y368794D01*
X59115Y362129D02*
Y363795D01*
X59948Y364628D01*
X61614D01*
X62447Y363795D01*
Y362129D01*
X61614Y361296D01*
X60781D01*
Y364628D01*
X62447Y359630D02*
Y358797D01*
X61614D01*
Y359630D01*
X62447D01*
X59948D02*
Y358797D01*
X59115D01*
Y359630D01*
X59948D01*
X59115Y350466D02*
X64113D01*
Y347967D01*
X63280Y347134D01*
X61614D01*
X60781Y347967D01*
Y350466D01*
Y348800D02*
X59115Y347134D01*
X64113Y345468D02*
X59115Y342135D01*
X64113D02*
X59115Y345468D01*
X63280Y340469D02*
X64113Y339636D01*
Y337970D01*
X63280Y337137D01*
X62447D01*
X61614Y337970D01*
X60781Y337137D01*
X59948D01*
X59115Y337970D01*
Y339636D01*
X59948Y340469D01*
X60781D01*
X61614Y339636D01*
X62447Y340469D01*
X63280D01*
X61614Y339636D02*
Y337970D01*
X63280Y335471D02*
X64113Y334638D01*
Y332972D01*
X63280Y332139D01*
X59948D01*
X59115Y332972D01*
Y334638D01*
X59948Y335471D01*
X63280D01*
X64113Y330473D02*
X63280D01*
X61614Y328806D01*
X63280Y327140D01*
X64113D01*
X61614Y328806D02*
X59115D01*
Y325474D02*
Y323808D01*
Y324641D01*
X64113D01*
X63280Y325474D01*
X59115Y317977D02*
Y321309D01*
X62447Y317977D01*
X63280D01*
X64113Y318810D01*
Y320476D01*
X63280Y321309D01*
Y316311D02*
X64113Y315477D01*
Y313811D01*
X63280Y312978D01*
X59948D01*
X59115Y313811D01*
Y315477D01*
X59948Y316311D01*
X63280D01*
X64113Y311312D02*
X59115D01*
Y308813D01*
X59948Y307980D01*
X63280D01*
X64113Y308813D01*
Y311312D01*
Y302981D02*
Y306314D01*
X61614D01*
X62447Y304648D01*
Y303815D01*
X61614Y302981D01*
X59948D01*
X59115Y303815D01*
Y305481D01*
X59948Y306314D01*
X63280Y301315D02*
X64113Y300482D01*
Y298816D01*
X63280Y297983D01*
X59948D01*
X59115Y298816D01*
Y300482D01*
X59948Y301315D01*
X63280D01*
X59115Y296317D02*
X64113D01*
Y293818D01*
X63280Y292985D01*
X61614D01*
X60781Y293818D01*
Y296317D01*
X51615Y430856D02*
Y434189D01*
X54947Y430856D01*
X55781D01*
X56613Y431689D01*
Y433356D01*
X55781Y434189D01*
X51615Y429190D02*
X54947D01*
Y426691D01*
X54114Y425858D01*
X51615D01*
X56613Y420859D02*
X51615D01*
Y423359D01*
X52448Y424192D01*
X54114D01*
X54947Y423359D01*
Y420859D01*
X51615Y414195D02*
X56613D01*
X54947Y412529D01*
X56613Y410863D01*
X51615D01*
X55781Y408364D02*
X54947D01*
Y409197D01*
Y407530D01*
Y408364D01*
X52448D01*
X51615Y407530D01*
X49949Y403365D02*
Y402532D01*
X50782Y401699D01*
X54947D01*
Y404198D01*
X54114Y405031D01*
X52448D01*
X51615Y404198D01*
Y401699D01*
Y395035D02*
X56613D01*
Y392535D01*
X55781Y391702D01*
X54114D01*
X53281Y392535D01*
Y395035D01*
X54947Y389203D02*
Y387537D01*
X54114Y386704D01*
X51615D01*
Y389203D01*
X52448Y390036D01*
X53281Y389203D01*
Y386704D01*
X56613Y381706D02*
X51615D01*
Y384205D01*
X52448Y385038D01*
X54114D01*
X54947Y384205D01*
Y381706D01*
X51615Y380039D02*
Y377540D01*
X52448Y376707D01*
X53281Y377540D01*
Y379206D01*
X54114Y380039D01*
X54947Y379206D01*
Y376707D01*
X55781Y374208D02*
X54947D01*
Y375041D01*
Y373375D01*
Y374208D01*
X52448D01*
X51615Y373375D01*
X54947Y370876D02*
X52448D01*
X51615Y370043D01*
Y367544D01*
X50782D01*
X49949Y368376D01*
Y369210D01*
X51615Y367544D02*
X54947D01*
X51615Y365877D02*
Y364211D01*
Y365044D01*
X56613D01*
Y365877D01*
X51615Y359213D02*
Y360879D01*
X52448Y361712D01*
X54114D01*
X54947Y360879D01*
Y359213D01*
X54114Y358380D01*
X53281D01*
Y361712D01*
X54947Y356714D02*
Y355881D01*
X54114D01*
Y356714D01*
X54947D01*
X52448D02*
Y355881D01*
X51615D01*
Y356714D01*
X52448D01*
X56613Y344218D02*
Y347550D01*
X51615D01*
Y344218D01*
X54114Y347550D02*
Y345884D01*
X56613Y342552D02*
X51615Y339219D01*
X56613D02*
X51615Y342552D01*
X56613Y337553D02*
Y334221D01*
X55781D01*
X52448Y337553D01*
X51615D01*
X55781Y332555D02*
X56613Y331722D01*
Y330056D01*
X55781Y329223D01*
X52448D01*
X51615Y330056D01*
Y331722D01*
X52448Y332555D01*
X55781D01*
X56613Y327556D02*
X55781D01*
X54114Y325890D01*
X55781Y324224D01*
X56613D01*
X54114Y325890D02*
X51615D01*
X56613Y322558D02*
Y319226D01*
X55781D01*
X52448Y322558D01*
X51615D01*
X55781Y317560D02*
X56613Y316727D01*
Y315060D01*
X55781Y314227D01*
X52448D01*
X51615Y315060D01*
Y316727D01*
X52448Y317560D01*
X55781D01*
X56613Y312561D02*
X51615D01*
Y310062D01*
X52448Y309229D01*
X55781D01*
X56613Y310062D01*
Y312561D01*
Y307563D02*
Y304231D01*
X55781D01*
X52448Y307563D01*
X51615D01*
X55781Y302565D02*
X56613Y301731D01*
Y300065D01*
X55781Y299232D01*
X52448D01*
X51615Y300065D01*
Y301731D01*
X52448Y302565D01*
X55781D01*
X51615Y297566D02*
X56613D01*
Y295067D01*
X55781Y294234D01*
X54114D01*
X53281Y295067D01*
Y297566D01*
X48281Y434189D02*
X49114Y433356D01*
Y431689D01*
X48281Y430856D01*
X47447D01*
X46614Y431689D01*
Y432522D01*
Y431689D01*
X45781Y430856D01*
X44948D01*
X44115Y431689D01*
Y433356D01*
X44948Y434189D01*
X47447Y429190D02*
X44115D01*
X45781D01*
X46614Y428357D01*
X47447Y427524D01*
Y426691D01*
X49114Y420859D02*
X44115D01*
Y423359D01*
X44948Y424192D01*
X46614D01*
X47447Y423359D01*
Y420859D01*
X44115Y414195D02*
X49114D01*
X47447Y412529D01*
X49114Y410863D01*
X44115D01*
X48281Y408364D02*
X47447D01*
Y409197D01*
Y407530D01*
Y408364D01*
X44948D01*
X44115Y407530D01*
X42449Y403365D02*
Y402532D01*
X43282Y401699D01*
X47447D01*
Y404198D01*
X46614Y405031D01*
X44948D01*
X44115Y404198D01*
Y401699D01*
Y395035D02*
X49114D01*
Y392535D01*
X48281Y391702D01*
X46614D01*
X45781Y392535D01*
Y395035D01*
X47447Y389203D02*
Y387537D01*
X46614Y386704D01*
X44115D01*
Y389203D01*
X44948Y390036D01*
X45781Y389203D01*
Y386704D01*
X49114Y381706D02*
X44115D01*
Y384205D01*
X44948Y385038D01*
X46614D01*
X47447Y384205D01*
Y381706D01*
X44115Y380039D02*
Y377540D01*
X44948Y376707D01*
X45781Y377540D01*
Y379206D01*
X46614Y380039D01*
X47447Y379206D01*
Y376707D01*
X48281Y374208D02*
X47447D01*
Y375041D01*
Y373375D01*
Y374208D01*
X44948D01*
X44115Y373375D01*
X47447Y370876D02*
X44948D01*
X44115Y370043D01*
Y367544D01*
X43282D01*
X42449Y368376D01*
Y369210D01*
X44115Y367544D02*
X47447D01*
X44115Y365877D02*
Y364211D01*
Y365044D01*
X49114D01*
Y365877D01*
X44115Y359213D02*
Y360879D01*
X44948Y361712D01*
X46614D01*
X47447Y360879D01*
Y359213D01*
X46614Y358380D01*
X45781D01*
Y361712D01*
X47447Y356714D02*
Y355881D01*
X46614D01*
Y356714D01*
X47447D01*
X44948D02*
Y355881D01*
X44115D01*
Y356714D01*
X44948D01*
X49114Y344218D02*
Y347550D01*
X44115D01*
Y344218D01*
X46614Y347550D02*
Y345884D01*
X49114Y342552D02*
X44115Y339219D01*
X49114D02*
X44115Y342552D01*
X49114Y337553D02*
Y334221D01*
X48281D01*
X44948Y337553D01*
X44115D01*
X48281Y332555D02*
X49114Y331722D01*
Y330056D01*
X48281Y329223D01*
X44948D01*
X44115Y330056D01*
Y331722D01*
X44948Y332555D01*
X48281D01*
X49114Y327556D02*
X48281D01*
X46614Y325890D01*
X48281Y324224D01*
X49114D01*
X46614Y325890D02*
X44115D01*
X49114Y322558D02*
Y319226D01*
X48281D01*
X44948Y322558D01*
X44115D01*
X48281Y317560D02*
X49114Y316727D01*
Y315060D01*
X48281Y314227D01*
X44948D01*
X44115Y315060D01*
Y316727D01*
X44948Y317560D01*
X48281D01*
X49114Y312561D02*
X44115D01*
Y310062D01*
X44948Y309229D01*
X48281D01*
X49114Y310062D01*
Y312561D01*
Y307563D02*
Y304231D01*
X48281D01*
X44948Y307563D01*
X44115D01*
X48281Y302565D02*
X49114Y301731D01*
Y300065D01*
X48281Y299232D01*
X44948D01*
X44115Y300065D01*
Y301731D01*
X44948Y302565D01*
X48281D01*
X44115Y297566D02*
X49114D01*
Y295067D01*
X48281Y294234D01*
X46614D01*
X45781Y295067D01*
Y297566D01*
X41614Y435439D02*
X36615D01*
Y432106D01*
Y427941D02*
Y429607D01*
X37448Y430440D01*
X39114D01*
X39947Y429607D01*
Y427941D01*
X39114Y427108D01*
X38281D01*
Y430440D01*
X36615Y424609D02*
X40780D01*
X39114D01*
Y425442D01*
Y423776D01*
Y424609D01*
X40780D01*
X41614Y423776D01*
X40780Y420443D02*
X39947D01*
Y421277D01*
Y419610D01*
Y420443D01*
X37448D01*
X36615Y419610D01*
Y412113D02*
X41614D01*
X39947Y410447D01*
X41614Y408780D01*
X36615D01*
X40780Y406281D02*
X39947D01*
Y407114D01*
Y405448D01*
Y406281D01*
X37448D01*
X36615Y405448D01*
X34949Y401283D02*
Y400450D01*
X35782Y399617D01*
X39947D01*
Y402116D01*
X39114Y402949D01*
X37448D01*
X36615Y402116D01*
Y399617D01*
Y392952D02*
X41614D01*
Y390453D01*
X40780Y389620D01*
X39114D01*
X38281Y390453D01*
Y392952D01*
X39947Y387121D02*
Y385455D01*
X39114Y384622D01*
X36615D01*
Y387121D01*
X37448Y387954D01*
X38281Y387121D01*
Y384622D01*
X41614Y379623D02*
X36615D01*
Y382122D01*
X37448Y382956D01*
X39114D01*
X39947Y382122D01*
Y379623D01*
X36615Y377957D02*
Y375458D01*
X37448Y374625D01*
X38281Y375458D01*
Y377124D01*
X39114Y377957D01*
X39947Y377124D01*
Y374625D01*
X40780Y372126D02*
X39947D01*
Y372959D01*
Y371293D01*
Y372126D01*
X37448D01*
X36615Y371293D01*
X39947Y368794D02*
X37448D01*
X36615Y367960D01*
Y365461D01*
X35782D01*
X34949Y366294D01*
Y367127D01*
X36615Y365461D02*
X39947D01*
X36615Y363795D02*
Y362129D01*
Y362962D01*
X41614D01*
Y363795D01*
X36615Y357131D02*
Y358797D01*
X37448Y359630D01*
X39114D01*
X39947Y358797D01*
Y357131D01*
X39114Y356297D01*
X38281D01*
Y359630D01*
X39947Y354631D02*
Y353798D01*
X39114D01*
Y354631D01*
X39947D01*
X37448D02*
Y353798D01*
X36615D01*
Y354631D01*
X37448D01*
X41614Y342135D02*
Y345468D01*
X36615D01*
Y342135D01*
X39114Y345468D02*
Y343802D01*
X41614Y340469D02*
X36615Y337137D01*
X41614D02*
X36615Y340469D01*
X41614Y332139D02*
X40780Y333805D01*
X39114Y335471D01*
X37448D01*
X36615Y334638D01*
Y332972D01*
X37448Y332139D01*
X38281D01*
X39114Y332972D01*
Y335471D01*
X40780Y330473D02*
X41614Y329640D01*
Y327973D01*
X40780Y327140D01*
X37448D01*
X36615Y327973D01*
Y329640D01*
X37448Y330473D01*
X40780D01*
X41614Y325474D02*
X40780D01*
X39114Y323808D01*
X40780Y322142D01*
X41614D01*
X39114Y323808D02*
X36615D01*
X41614Y317144D02*
X40780Y318810D01*
X39114Y320476D01*
X37448D01*
X36615Y319643D01*
Y317977D01*
X37448Y317144D01*
X38281D01*
X39114Y317977D01*
Y320476D01*
X40780Y315477D02*
X41614Y314644D01*
Y312978D01*
X40780Y312145D01*
X37448D01*
X36615Y312978D01*
Y314644D01*
X37448Y315477D01*
X40780D01*
X41614Y310479D02*
X36615D01*
Y307980D01*
X37448Y307147D01*
X40780D01*
X41614Y307980D01*
Y310479D01*
X40780Y305481D02*
X41614Y304648D01*
Y302981D01*
X40780Y302148D01*
X39947D01*
X39114Y302981D01*
Y303815D01*
Y302981D01*
X38281Y302148D01*
X37448D01*
X36615Y302981D01*
Y304648D01*
X37448Y305481D01*
X40780Y300482D02*
X41614Y299649D01*
Y297983D01*
X40780Y297150D01*
X37448D01*
X36615Y297983D01*
Y299649D01*
X37448Y300482D01*
X40780D01*
X36615Y295484D02*
X41614D01*
Y292985D01*
X40780Y292152D01*
X39114D01*
X38281Y292985D01*
Y295484D01*
X29115Y436689D02*
X34113D01*
Y434189D01*
X33281Y433356D01*
X31614D01*
X30781Y434189D01*
Y436689D01*
Y435022D02*
X29115Y433356D01*
Y431690D02*
Y430024D01*
Y430857D01*
X32447D01*
Y431690D01*
X27449Y425859D02*
Y425026D01*
X28282Y424193D01*
X32447D01*
Y426692D01*
X31614Y427525D01*
X29948D01*
X29115Y426692D01*
Y424193D01*
X34113Y422527D02*
X29115D01*
X31614D01*
X32447Y421693D01*
Y420027D01*
X31614Y419194D01*
X29115D01*
X33281Y416695D02*
X32447D01*
Y417528D01*
Y415862D01*
Y416695D01*
X29948D01*
X29115Y415862D01*
Y408364D02*
X34113D01*
X32447Y406698D01*
X34113Y405032D01*
X29115D01*
X33281Y402533D02*
X32447D01*
Y403366D01*
Y401700D01*
Y402533D01*
X29948D01*
X29115Y401700D01*
X27449Y397535D02*
Y396702D01*
X28282Y395868D01*
X32447D01*
Y398368D01*
X31614Y399201D01*
X29948D01*
X29115Y398368D01*
Y395868D01*
Y389204D02*
X34113D01*
Y386705D01*
X33281Y385872D01*
X31614D01*
X30781Y386705D01*
Y389204D01*
X32447Y383372D02*
Y381706D01*
X31614Y380873D01*
X29115D01*
Y383372D01*
X29948Y384206D01*
X30781Y383372D01*
Y380873D01*
X34113Y375875D02*
X29115D01*
Y378374D01*
X29948Y379207D01*
X31614D01*
X32447Y378374D01*
Y375875D01*
X29115Y374209D02*
Y371710D01*
X29948Y370877D01*
X30781Y371710D01*
Y373376D01*
X31614Y374209D01*
X32447Y373376D01*
Y370877D01*
X33281Y368377D02*
X32447D01*
Y369210D01*
Y367544D01*
Y368377D01*
X29948D01*
X29115Y367544D01*
X32447Y365045D02*
X29948D01*
X29115Y364212D01*
Y361713D01*
X28282D01*
X27449Y362546D01*
Y363379D01*
X29115Y361713D02*
X32447D01*
X29115Y360047D02*
Y358381D01*
Y359214D01*
X34113D01*
Y360047D01*
X29115Y353382D02*
Y355048D01*
X29948Y355881D01*
X31614D01*
X32447Y355048D01*
Y353382D01*
X31614Y352549D01*
X30781D01*
Y355881D01*
X32447Y350883D02*
Y350050D01*
X31614D01*
Y350883D01*
X32447D01*
X29948D02*
Y350050D01*
X29115D01*
Y350883D01*
X29948D01*
X34113Y338387D02*
Y341719D01*
X29115D01*
Y338387D01*
X31614Y341719D02*
Y340053D01*
X34113Y336721D02*
X29115Y333389D01*
X34113D02*
X29115Y336721D01*
X34113Y328390D02*
Y331723D01*
X31614D01*
X32447Y330056D01*
Y329223D01*
X31614Y328390D01*
X29948D01*
X29115Y329223D01*
Y330890D01*
X29948Y331723D01*
X29115Y326724D02*
Y325058D01*
Y325891D01*
X34113D01*
X33281Y326724D01*
X34113Y322559D02*
X33281D01*
X31614Y320893D01*
X33281Y319227D01*
X34113D01*
X31614Y320893D02*
X29115D01*
X34113Y314228D02*
Y317561D01*
X31614D01*
X32447Y315894D01*
Y315061D01*
X31614Y314228D01*
X29948D01*
X29115Y315061D01*
Y316727D01*
X29948Y317561D01*
X29115Y312562D02*
Y310896D01*
Y311729D01*
X34113D01*
X33281Y312562D01*
X34113Y308397D02*
X29115D01*
Y305898D01*
X29948Y305065D01*
X33281D01*
X34113Y305898D01*
Y308397D01*
Y300066D02*
Y303398D01*
X31614D01*
X32447Y301732D01*
Y300899D01*
X31614Y300066D01*
X29948D01*
X29115Y300899D01*
Y302565D01*
X29948Y303398D01*
X29115Y298400D02*
Y296734D01*
Y297567D01*
X34113D01*
X33281Y298400D01*
X29115Y294235D02*
X34113D01*
Y291736D01*
X33281Y290902D01*
X31614D01*
X30781Y291736D01*
Y294235D01*
X21615Y431689D02*
X24947D01*
X26614Y430022D01*
X24947Y428356D01*
X21615D01*
X24114D01*
Y431689D01*
X21615Y426690D02*
Y425024D01*
Y425857D01*
X26614D01*
Y426690D01*
X25780Y421692D02*
X24947D01*
Y422525D01*
Y420859D01*
Y421692D01*
X22448D01*
X21615Y420859D01*
Y413361D02*
X26614D01*
Y410862D01*
X25780Y410029D01*
X24114D01*
X23281Y410862D01*
Y413361D01*
X24947Y407530D02*
Y405864D01*
X24114Y405030D01*
X21615D01*
Y407530D01*
X22448Y408363D01*
X23281Y407530D01*
Y405030D01*
X26614Y400032D02*
X21615D01*
Y402531D01*
X22448Y403364D01*
X24114D01*
X24947Y402531D01*
Y400032D01*
X21615Y398366D02*
Y395867D01*
X22448Y395034D01*
X23281Y395867D01*
Y397533D01*
X24114Y398366D01*
X24947Y397533D01*
Y395034D01*
X25780Y392535D02*
X24947D01*
Y393368D01*
Y391702D01*
Y392535D01*
X22448D01*
X21615Y391702D01*
X24947Y389202D02*
X22448D01*
X21615Y388369D01*
Y385870D01*
X20782D01*
X19949Y386703D01*
Y387536D01*
X21615Y385870D02*
X24947D01*
X21615Y384204D02*
Y382538D01*
Y383371D01*
X26614D01*
Y384204D01*
X21615Y377539D02*
Y379206D01*
X22448Y380039D01*
X24114D01*
X24947Y379206D01*
Y377539D01*
X24114Y376706D01*
X23281D01*
Y380039D01*
X21615Y370042D02*
Y368376D01*
Y369209D01*
X26614D01*
X25780Y370042D01*
X24947Y365877D02*
Y365043D01*
X24114D01*
Y365877D01*
X24947D01*
X22448D02*
Y365043D01*
X21615D01*
Y365877D01*
X22448D01*
X26614Y354214D02*
Y355880D01*
X25780Y356713D01*
X22448D01*
X21615Y355880D01*
Y354214D01*
X22448Y353381D01*
X25780D01*
X26614Y354214D01*
Y351714D02*
X21615Y348382D01*
X26614D02*
X21615Y351714D01*
X26614Y343384D02*
X25780Y345050D01*
X24114Y346716D01*
X22448D01*
X21615Y345883D01*
Y344217D01*
X22448Y343384D01*
X23281D01*
X24114Y344217D01*
Y346716D01*
X25780Y341718D02*
X26614Y340885D01*
Y339218D01*
X25780Y338385D01*
X22448D01*
X21615Y339218D01*
Y340885D01*
X22448Y341718D01*
X25780D01*
X26614Y336719D02*
X25780D01*
X24114Y335053D01*
X25780Y333387D01*
X26614D01*
X24114Y335053D02*
X21615D01*
X22448Y331721D02*
X21615Y330888D01*
Y329222D01*
X22448Y328389D01*
X25780D01*
X26614Y329222D01*
Y330888D01*
X25780Y331721D01*
X24947D01*
X24114Y330888D01*
Y328389D01*
X25780Y326723D02*
X26614Y325889D01*
Y324223D01*
X25780Y323390D01*
X22448D01*
X21615Y324223D01*
Y325889D01*
X22448Y326723D01*
X25780D01*
X26614Y321724D02*
X21615D01*
Y319225D01*
X22448Y318392D01*
X25780D01*
X26614Y319225D01*
Y321724D01*
X25780Y316726D02*
X26614Y315893D01*
Y314227D01*
X25780Y313393D01*
X24947D01*
X24114Y314227D01*
Y315060D01*
Y314227D01*
X23281Y313393D01*
X22448D01*
X21615Y314227D01*
Y315893D01*
X22448Y316726D01*
X25780Y311727D02*
X26614Y310894D01*
Y309228D01*
X25780Y308395D01*
X22448D01*
X21615Y309228D01*
Y310894D01*
X22448Y311727D01*
X25780D01*
X21615Y306729D02*
X26614D01*
Y304230D01*
X25780Y303397D01*
X24114D01*
X23281Y304230D01*
Y306729D01*
X14115Y431689D02*
X17447D01*
X19114Y430022D01*
X17447Y428356D01*
X14115D01*
X16614D01*
Y431689D01*
X14115Y426690D02*
Y425024D01*
Y425857D01*
X19114D01*
Y426690D01*
X18281Y421692D02*
X17447D01*
Y422525D01*
Y420859D01*
Y421692D01*
X14948D01*
X14115Y420859D01*
Y413361D02*
X19114D01*
Y410862D01*
X18281Y410029D01*
X16614D01*
X15781Y410862D01*
Y413361D01*
X17447Y407530D02*
Y405864D01*
X16614Y405030D01*
X14115D01*
Y407530D01*
X14948Y408363D01*
X15781Y407530D01*
Y405030D01*
X19114Y400032D02*
X14115D01*
Y402531D01*
X14948Y403364D01*
X16614D01*
X17447Y402531D01*
Y400032D01*
X14115Y398366D02*
Y395867D01*
X14948Y395034D01*
X15781Y395867D01*
Y397533D01*
X16614Y398366D01*
X17447Y397533D01*
Y395034D01*
X18281Y392535D02*
X17447D01*
Y393368D01*
Y391702D01*
Y392535D01*
X14948D01*
X14115Y391702D01*
X17447Y389202D02*
X14948D01*
X14115Y388369D01*
Y385870D01*
X13282D01*
X12449Y386703D01*
Y387536D01*
X14115Y385870D02*
X17447D01*
X14115Y384204D02*
Y382538D01*
Y383371D01*
X19114D01*
Y384204D01*
X14115Y377539D02*
Y379206D01*
X14948Y380039D01*
X16614D01*
X17447Y379206D01*
Y377539D01*
X16614Y376706D01*
X15781D01*
Y380039D01*
X14115Y366710D02*
Y370042D01*
X17447Y366710D01*
X18281D01*
X19114Y367543D01*
Y369209D01*
X18281Y370042D01*
X17447Y365043D02*
Y364210D01*
X16614D01*
Y365043D01*
X17447D01*
X14948D02*
Y364210D01*
X14115D01*
Y365043D01*
X14948D01*
X19114Y353381D02*
Y355047D01*
X18281Y355880D01*
X14948D01*
X14115Y355047D01*
Y353381D01*
X14948Y352548D01*
X18281D01*
X19114Y353381D01*
Y350881D02*
X14115Y347549D01*
X19114D02*
X14115Y350881D01*
X14948Y345883D02*
X14115Y345050D01*
Y343384D01*
X14948Y342551D01*
X18281D01*
X19114Y343384D01*
Y345050D01*
X18281Y345883D01*
X17447D01*
X16614Y345050D01*
Y342551D01*
X18281Y340885D02*
X19114Y340052D01*
Y338385D01*
X18281Y337552D01*
X14948D01*
X14115Y338385D01*
Y340052D01*
X14948Y340885D01*
X18281D01*
X19114Y335886D02*
X18281D01*
X16614Y334220D01*
X18281Y332554D01*
X19114D01*
X16614Y334220D02*
X14115D01*
X19114Y327556D02*
X18281Y329222D01*
X16614Y330888D01*
X14948D01*
X14115Y330055D01*
Y328389D01*
X14948Y327556D01*
X15781D01*
X16614Y328389D01*
Y330888D01*
X18281Y325889D02*
X19114Y325056D01*
Y323390D01*
X18281Y322557D01*
X14948D01*
X14115Y323390D01*
Y325056D01*
X14948Y325889D01*
X18281D01*
X19114Y320891D02*
X14115D01*
Y318392D01*
X14948Y317559D01*
X18281D01*
X19114Y318392D01*
Y320891D01*
X18281Y315893D02*
X19114Y315060D01*
Y313394D01*
X18281Y312561D01*
X17447D01*
X16614Y313394D01*
Y314227D01*
Y313394D01*
X15781Y312561D01*
X14948D01*
X14115Y313394D01*
Y315060D01*
X14948Y315893D01*
X18281Y310894D02*
X19114Y310061D01*
Y308395D01*
X18281Y307562D01*
X14948D01*
X14115Y308395D01*
Y310061D01*
X14948Y310894D01*
X18281D01*
X14115Y305896D02*
X19114D01*
Y303397D01*
X18281Y302564D01*
X16614D01*
X15781Y303397D01*
Y305896D01*
X457250Y528498D02*
Y523500D01*
X459749D01*
X460582Y524333D01*
Y527665D01*
X459749Y528498D01*
X457250D01*
X464748Y523500D02*
X463081D01*
X462248Y524333D01*
Y525999D01*
X463081Y526832D01*
X464748D01*
X465581Y525999D01*
Y525166D01*
X462248D01*
X468080Y523500D02*
Y527665D01*
Y525999D01*
X467247D01*
X468913D01*
X468080D01*
Y527665D01*
X468913Y528498D01*
X472245Y526832D02*
X473911D01*
X474744Y525999D01*
Y523500D01*
X472245D01*
X471412Y524333D01*
X472245Y525166D01*
X474744D01*
X476410Y526832D02*
Y524333D01*
X477244Y523500D01*
X479743D01*
Y526832D01*
X481409Y523500D02*
X483075D01*
X482242D01*
Y528498D01*
X481409D01*
X486407Y527665D02*
Y526832D01*
X485574D01*
X487240D01*
X486407D01*
Y524333D01*
X487240Y523500D01*
X494738D02*
Y528498D01*
X497237D01*
X498070Y527665D01*
Y525999D01*
X497237Y525166D01*
X494738D01*
X500569Y526832D02*
X502235D01*
X503068Y525999D01*
Y523500D01*
X500569D01*
X499736Y524333D01*
X500569Y525166D01*
X503068D01*
X508067Y528498D02*
Y523500D01*
X505568D01*
X504735Y524333D01*
Y525999D01*
X505568Y526832D01*
X508067D01*
X509733Y523500D02*
X512232D01*
X513065Y524333D01*
X512232Y525166D01*
X510566D01*
X509733Y525999D01*
X510566Y526832D01*
X513065D01*
X515564Y527665D02*
Y526832D01*
X514731D01*
X516397D01*
X515564D01*
Y524333D01*
X516397Y523500D01*
X518897Y526832D02*
Y524333D01*
X519730Y523500D01*
X522229D01*
Y522667D01*
X521396Y521834D01*
X520563D01*
X522229Y523500D02*
Y526832D01*
X523895Y523500D02*
X525561D01*
X524728D01*
Y528498D01*
X523895D01*
X530560Y523500D02*
X528894D01*
X528060Y524333D01*
Y525999D01*
X528894Y526832D01*
X530560D01*
X531393Y525999D01*
Y525166D01*
X528060D01*
X533059Y526832D02*
X533892D01*
Y525999D01*
X533059D01*
Y526832D01*
Y524333D02*
X533892D01*
Y523500D01*
X533059D01*
Y524333D01*
X544722Y528498D02*
X543055D01*
X542222Y527665D01*
Y524333D01*
X543055Y523500D01*
X544722D01*
X545555Y524333D01*
Y527665D01*
X544722Y528498D01*
X547221D02*
X550553Y523500D01*
Y528498D02*
X547221Y523500D01*
X552219Y527665D02*
X553052Y528498D01*
X554718D01*
X555551Y527665D01*
Y526832D01*
X554718Y525999D01*
X555551Y525166D01*
Y524333D01*
X554718Y523500D01*
X553052D01*
X552219Y524333D01*
Y525166D01*
X553052Y525999D01*
X552219Y526832D01*
Y527665D01*
X553052Y525999D02*
X554718D01*
X557218Y527665D02*
X558051Y528498D01*
X559717D01*
X560550Y527665D01*
Y526832D01*
X559717Y525999D01*
X560550Y525166D01*
Y524333D01*
X559717Y523500D01*
X558051D01*
X557218Y524333D01*
Y525166D01*
X558051Y525999D01*
X557218Y526832D01*
Y527665D01*
X558051Y525999D02*
X559717D01*
X562216Y528498D02*
Y527665D01*
X563882Y525999D01*
X565548Y527665D01*
Y528498D01*
X563882Y525999D02*
Y523500D01*
X567214Y527665D02*
X568047Y528498D01*
X569714D01*
X570547Y527665D01*
Y526832D01*
X569714Y525999D01*
X570547Y525166D01*
Y524333D01*
X569714Y523500D01*
X568047D01*
X567214Y524333D01*
Y525166D01*
X568047Y525999D01*
X567214Y526832D01*
Y527665D01*
X568047Y525999D02*
X569714D01*
X572213Y527665D02*
X573046Y528498D01*
X574712D01*
X575545Y527665D01*
Y526832D01*
X574712Y525999D01*
X575545Y525166D01*
Y524333D01*
X574712Y523500D01*
X573046D01*
X572213Y524333D01*
Y525166D01*
X573046Y525999D01*
X572213Y526832D01*
Y527665D01*
X573046Y525999D02*
X574712D01*
X577211Y528498D02*
Y523500D01*
X579710D01*
X580543Y524333D01*
Y527665D01*
X579710Y528498D01*
X577211D01*
X585542D02*
X583876Y527665D01*
X582209Y525999D01*
Y524333D01*
X583043Y523500D01*
X584709D01*
X585542Y524333D01*
Y525166D01*
X584709Y525999D01*
X582209D01*
X587208Y527665D02*
X588041Y528498D01*
X589707D01*
X590540Y527665D01*
Y526832D01*
X589707Y525999D01*
X590540Y525166D01*
Y524333D01*
X589707Y523500D01*
X588041D01*
X587208Y524333D01*
Y525166D01*
X588041Y525999D01*
X587208Y526832D01*
Y527665D01*
X588041Y525999D02*
X589707D01*
X592206Y523500D02*
Y528498D01*
X594705D01*
X595539Y527665D01*
Y525999D01*
X594705Y525166D01*
X592206D01*
X456000Y516000D02*
X457666D01*
X456833D01*
Y520998D01*
X456000Y520165D01*
X460165Y516000D02*
X462665D01*
X463498Y516833D01*
X462665Y517666D01*
X460998D01*
X460165Y518499D01*
X460998Y519332D01*
X463498D01*
X465997Y520165D02*
Y519332D01*
X465164D01*
X466830D01*
X465997D01*
Y516833D01*
X466830Y516000D01*
X474327D02*
Y520998D01*
X475993Y519332D01*
X477660Y520998D01*
Y516000D01*
X480159Y520165D02*
Y519332D01*
X479326D01*
X480992D01*
X480159D01*
Y516833D01*
X480992Y516000D01*
X485157Y514334D02*
X485990D01*
X486823Y515167D01*
Y519332D01*
X484324D01*
X483491Y518499D01*
Y516833D01*
X484324Y516000D01*
X486823D01*
X493488D02*
Y520998D01*
X495987D01*
X496820Y520165D01*
Y518499D01*
X495987Y517666D01*
X493488D01*
X499319Y519332D02*
X500985D01*
X501819Y518499D01*
Y516000D01*
X499319D01*
X498486Y516833D01*
X499319Y517666D01*
X501819D01*
X506817Y520998D02*
Y516000D01*
X504318D01*
X503485Y516833D01*
Y518499D01*
X504318Y519332D01*
X506817D01*
X508483Y516000D02*
X510982D01*
X511815Y516833D01*
X510982Y517666D01*
X509316D01*
X508483Y518499D01*
X509316Y519332D01*
X511815D01*
X514314Y520165D02*
Y519332D01*
X513481D01*
X515147D01*
X514314D01*
Y516833D01*
X515147Y516000D01*
X517647Y519332D02*
Y516833D01*
X518480Y516000D01*
X520979D01*
Y515167D01*
X520146Y514334D01*
X519313D01*
X520979Y516000D02*
Y519332D01*
X522645Y516000D02*
X524311D01*
X523478D01*
Y520998D01*
X522645D01*
X529310Y516000D02*
X527643D01*
X526810Y516833D01*
Y518499D01*
X527643Y519332D01*
X529310D01*
X530143Y518499D01*
Y517666D01*
X526810D01*
X531809Y519332D02*
X532642D01*
Y518499D01*
X531809D01*
Y519332D01*
Y516833D02*
X532642D01*
Y516000D01*
X531809D01*
Y516833D01*
X540973Y516000D02*
Y520998D01*
X543472D01*
X544305Y520165D01*
Y518499D01*
X543472Y517666D01*
X540973D01*
X542639D02*
X544305Y516000D01*
X545971Y520998D02*
X549303Y516000D01*
Y520998D02*
X545971Y516000D01*
X550969D02*
X552635D01*
X551802D01*
Y520998D01*
X550969Y520165D01*
X555135Y516000D02*
X556801D01*
X555968D01*
Y520998D01*
X555135Y520165D01*
X559300D02*
X560133Y520998D01*
X561799D01*
X562632Y520165D01*
Y516833D01*
X561799Y516000D01*
X560133D01*
X559300Y516833D01*
Y520165D01*
X564298Y520998D02*
Y520165D01*
X565964Y518499D01*
X567630Y520165D01*
Y520998D01*
X565964Y518499D02*
Y516000D01*
X569297Y520165D02*
X570130Y520998D01*
X571796D01*
X572629Y520165D01*
Y519332D01*
X571796Y518499D01*
X572629Y517666D01*
Y516833D01*
X571796Y516000D01*
X570130D01*
X569297Y516833D01*
Y517666D01*
X570130Y518499D01*
X569297Y519332D01*
Y520165D01*
X570130Y518499D02*
X571796D01*
X574295Y520165D02*
X575128Y520998D01*
X576794D01*
X577627Y520165D01*
Y516833D01*
X576794Y516000D01*
X575128D01*
X574295Y516833D01*
Y520165D01*
X579293Y520998D02*
Y516000D01*
X581793D01*
X582626Y516833D01*
Y520165D01*
X581793Y520998D01*
X579293D01*
X587624D02*
X584292D01*
Y518499D01*
X585958Y519332D01*
X586791D01*
X587624Y518499D01*
Y516833D01*
X586791Y516000D01*
X585125D01*
X584292Y516833D01*
X589290Y520165D02*
X590123Y520998D01*
X591789D01*
X592622Y520165D01*
Y516833D01*
X591789Y516000D01*
X590123D01*
X589290Y516833D01*
Y520165D01*
X594288Y516000D02*
Y520998D01*
X596788D01*
X597621Y520165D01*
Y518499D01*
X596788Y517666D01*
X594288D01*
X460582Y508500D02*
X457250D01*
X460582Y511832D01*
Y512665D01*
X459749Y513498D01*
X458083D01*
X457250Y512665D01*
X462248Y508500D02*
Y511832D01*
X464748D01*
X465581Y510999D01*
Y508500D01*
X470579Y513498D02*
Y508500D01*
X468080D01*
X467247Y509333D01*
Y510999D01*
X468080Y511832D01*
X470579D01*
X477244Y508500D02*
Y513498D01*
X478910Y511832D01*
X480576Y513498D01*
Y508500D01*
X483075Y512665D02*
Y511832D01*
X482242D01*
X483908D01*
X483075D01*
Y509333D01*
X483908Y508500D01*
X488073Y506834D02*
X488906D01*
X489740Y507667D01*
Y511832D01*
X487240D01*
X486407Y510999D01*
Y509333D01*
X487240Y508500D01*
X489740D01*
X496404D02*
Y513498D01*
X498903D01*
X499736Y512665D01*
Y510999D01*
X498903Y510166D01*
X496404D01*
X502235Y511832D02*
X503902D01*
X504735Y510999D01*
Y508500D01*
X502235D01*
X501402Y509333D01*
X502235Y510166D01*
X504735D01*
X509733Y513498D02*
Y508500D01*
X507234D01*
X506401Y509333D01*
Y510999D01*
X507234Y511832D01*
X509733D01*
X511399Y508500D02*
X513898D01*
X514731Y509333D01*
X513898Y510166D01*
X512232D01*
X511399Y510999D01*
X512232Y511832D01*
X514731D01*
X517231Y512665D02*
Y511832D01*
X516397D01*
X518064D01*
X517231D01*
Y509333D01*
X518064Y508500D01*
X520563Y511832D02*
Y509333D01*
X521396Y508500D01*
X523895D01*
Y507667D01*
X523062Y506834D01*
X522229D01*
X523895Y508500D02*
Y511832D01*
X525561Y508500D02*
X527227D01*
X526394D01*
Y513498D01*
X525561D01*
X532226Y508500D02*
X530560D01*
X529727Y509333D01*
Y510999D01*
X530560Y511832D01*
X532226D01*
X533059Y510999D01*
Y510166D01*
X529727D01*
X534725Y511832D02*
X535558D01*
Y510999D01*
X534725D01*
Y511832D01*
Y509333D02*
X535558D01*
Y508500D01*
X534725D01*
Y509333D01*
X547221Y513498D02*
X543889D01*
Y508500D01*
X547221D01*
X543889Y510999D02*
X545555D01*
X548887Y513498D02*
X552219Y508500D01*
Y513498D02*
X548887Y508500D01*
X553885Y513498D02*
X557218D01*
Y512665D01*
X553885Y509333D01*
Y508500D01*
X558884Y512665D02*
X559717Y513498D01*
X561383D01*
X562216Y512665D01*
Y509333D01*
X561383Y508500D01*
X559717D01*
X558884Y509333D01*
Y512665D01*
X563882Y513498D02*
Y512665D01*
X565548Y510999D01*
X567214Y512665D01*
Y513498D01*
X565548Y510999D02*
Y508500D01*
X568881Y513498D02*
X572213D01*
Y512665D01*
X568881Y509333D01*
Y508500D01*
X573879Y512665D02*
X574712Y513498D01*
X576378D01*
X577211Y512665D01*
Y509333D01*
X576378Y508500D01*
X574712D01*
X573879Y509333D01*
Y512665D01*
X578877Y513498D02*
Y508500D01*
X581377D01*
X582209Y509333D01*
Y512665D01*
X581377Y513498D01*
X578877D01*
X583876D02*
X587208D01*
Y512665D01*
X583876Y509333D01*
Y508500D01*
X588874Y512665D02*
X589707Y513498D01*
X591373D01*
X592206Y512665D01*
Y509333D01*
X591373Y508500D01*
X589707D01*
X588874Y509333D01*
Y512665D01*
X593872Y508500D02*
Y513498D01*
X596372D01*
X597205Y512665D01*
Y510999D01*
X596372Y510166D01*
X593872D01*
X457250Y505165D02*
X458083Y505998D01*
X459749D01*
X460582Y505165D01*
Y504332D01*
X459749Y503499D01*
X458916D01*
X459749D01*
X460582Y502666D01*
Y501833D01*
X459749Y501000D01*
X458083D01*
X457250Y501833D01*
X462248Y504332D02*
Y501000D01*
Y502666D01*
X463081Y503499D01*
X463914Y504332D01*
X464748D01*
X470579Y505998D02*
Y501000D01*
X468080D01*
X467247Y501833D01*
Y503499D01*
X468080Y504332D01*
X470579D01*
X477244Y501000D02*
Y505998D01*
X478910Y504332D01*
X480576Y505998D01*
Y501000D01*
X483075Y505165D02*
Y504332D01*
X482242D01*
X483908D01*
X483075D01*
Y501833D01*
X483908Y501000D01*
X488073Y499334D02*
X488906D01*
X489740Y500167D01*
Y504332D01*
X487240D01*
X486407Y503499D01*
Y501833D01*
X487240Y501000D01*
X489740D01*
X496404D02*
Y505998D01*
X498903D01*
X499736Y505165D01*
Y503499D01*
X498903Y502666D01*
X496404D01*
X502235Y504332D02*
X503902D01*
X504735Y503499D01*
Y501000D01*
X502235D01*
X501402Y501833D01*
X502235Y502666D01*
X504735D01*
X509733Y505998D02*
Y501000D01*
X507234D01*
X506401Y501833D01*
Y503499D01*
X507234Y504332D01*
X509733D01*
X511399Y501000D02*
X513898D01*
X514731Y501833D01*
X513898Y502666D01*
X512232D01*
X511399Y503499D01*
X512232Y504332D01*
X514731D01*
X517231Y505165D02*
Y504332D01*
X516397D01*
X518064D01*
X517231D01*
Y501833D01*
X518064Y501000D01*
X520563Y504332D02*
Y501833D01*
X521396Y501000D01*
X523895D01*
Y500167D01*
X523062Y499334D01*
X522229D01*
X523895Y501000D02*
Y504332D01*
X525561Y501000D02*
X527227D01*
X526394D01*
Y505998D01*
X525561D01*
X532226Y501000D02*
X530560D01*
X529727Y501833D01*
Y503499D01*
X530560Y504332D01*
X532226D01*
X533059Y503499D01*
Y502666D01*
X529727D01*
X534725Y504332D02*
X535558D01*
Y503499D01*
X534725D01*
Y504332D01*
Y501833D02*
X535558D01*
Y501000D01*
X534725D01*
Y501833D01*
X547221Y505998D02*
X543889D01*
Y501000D01*
X547221D01*
X543889Y503499D02*
X545555D01*
X548887Y505998D02*
X552219Y501000D01*
Y505998D02*
X548887Y501000D01*
X553885Y505998D02*
X557218D01*
Y505165D01*
X553885Y501833D01*
Y501000D01*
X558884Y505165D02*
X559717Y505998D01*
X561383D01*
X562216Y505165D01*
Y501833D01*
X561383Y501000D01*
X559717D01*
X558884Y501833D01*
Y505165D01*
X563882Y505998D02*
Y505165D01*
X565548Y503499D01*
X567214Y505165D01*
Y505998D01*
X565548Y503499D02*
Y501000D01*
X568881Y505998D02*
X572213D01*
Y505165D01*
X568881Y501833D01*
Y501000D01*
X573879Y505165D02*
X574712Y505998D01*
X576378D01*
X577211Y505165D01*
Y501833D01*
X576378Y501000D01*
X574712D01*
X573879Y501833D01*
Y505165D01*
X578877Y505998D02*
Y501000D01*
X581377D01*
X582209Y501833D01*
Y505165D01*
X581377Y505998D01*
X578877D01*
X583876D02*
X587208D01*
Y505165D01*
X583876Y501833D01*
Y501000D01*
X588874Y505165D02*
X589707Y505998D01*
X591373D01*
X592206Y505165D01*
Y501833D01*
X591373Y501000D01*
X589707D01*
X588874Y501833D01*
Y505165D01*
X593872Y501000D02*
Y505998D01*
X596372D01*
X597205Y505165D01*
Y503499D01*
X596372Y502666D01*
X593872D01*
X456000Y498498D02*
Y493500D01*
X459332D01*
X463498D02*
X461831D01*
X460998Y494333D01*
Y495999D01*
X461831Y496832D01*
X463498D01*
X464331Y495999D01*
Y495166D01*
X460998D01*
X466830Y493500D02*
Y497665D01*
Y495999D01*
X465997D01*
X467663D01*
X466830D01*
Y497665D01*
X467663Y498498D01*
X470995Y497665D02*
Y496832D01*
X470162D01*
X471828D01*
X470995D01*
Y494333D01*
X471828Y493500D01*
X479326D02*
Y498498D01*
X480992Y496832D01*
X482658Y498498D01*
Y493500D01*
X485157Y497665D02*
Y496832D01*
X484324D01*
X485990D01*
X485157D01*
Y494333D01*
X485990Y493500D01*
X490156Y491834D02*
X490989D01*
X491822Y492667D01*
Y496832D01*
X489323D01*
X488489Y495999D01*
Y494333D01*
X489323Y493500D01*
X491822D01*
X498486D02*
Y498498D01*
X500985D01*
X501819Y497665D01*
Y495999D01*
X500985Y495166D01*
X498486D01*
X504318Y496832D02*
X505984D01*
X506817Y495999D01*
Y493500D01*
X504318D01*
X503485Y494333D01*
X504318Y495166D01*
X506817D01*
X511815Y498498D02*
Y493500D01*
X509316D01*
X508483Y494333D01*
Y495999D01*
X509316Y496832D01*
X511815D01*
X513481Y493500D02*
X515981D01*
X516814Y494333D01*
X515981Y495166D01*
X514314D01*
X513481Y495999D01*
X514314Y496832D01*
X516814D01*
X519313Y497665D02*
Y496832D01*
X518480D01*
X520146D01*
X519313D01*
Y494333D01*
X520146Y493500D01*
X522645Y496832D02*
Y494333D01*
X523478Y493500D01*
X525977D01*
Y492667D01*
X525144Y491834D01*
X524311D01*
X525977Y493500D02*
Y496832D01*
X527643Y493500D02*
X529310D01*
X528476D01*
Y498498D01*
X527643D01*
X534308Y493500D02*
X532642D01*
X531809Y494333D01*
Y495999D01*
X532642Y496832D01*
X534308D01*
X535141Y495999D01*
Y495166D01*
X531809D01*
X536807Y496832D02*
X537640D01*
Y495999D01*
X536807D01*
Y496832D01*
Y494333D02*
X537640D01*
Y493500D01*
X536807D01*
Y494333D01*
X549303Y498498D02*
X545971D01*
Y493500D01*
X549303D01*
X545971Y495999D02*
X547637D01*
X550969Y498498D02*
X554302Y493500D01*
Y498498D02*
X550969Y493500D01*
X559300Y498498D02*
X557634Y497665D01*
X555968Y495999D01*
Y494333D01*
X556801Y493500D01*
X558467D01*
X559300Y494333D01*
Y495166D01*
X558467Y495999D01*
X555968D01*
X560966Y497665D02*
X561799Y498498D01*
X563465D01*
X564298Y497665D01*
Y494333D01*
X563465Y493500D01*
X561799D01*
X560966Y494333D01*
Y497665D01*
X565964Y498498D02*
Y497665D01*
X567630Y495999D01*
X569297Y497665D01*
Y498498D01*
X567630Y495999D02*
Y493500D01*
X574295Y498498D02*
X572629Y497665D01*
X570963Y495999D01*
Y494333D01*
X571796Y493500D01*
X573462D01*
X574295Y494333D01*
Y495166D01*
X573462Y495999D01*
X570963D01*
X575961Y497665D02*
X576794Y498498D01*
X578460D01*
X579293Y497665D01*
Y494333D01*
X578460Y493500D01*
X576794D01*
X575961Y494333D01*
Y497665D01*
X580960Y498498D02*
Y493500D01*
X583459D01*
X584292Y494333D01*
Y497665D01*
X583459Y498498D01*
X580960D01*
X585958Y497665D02*
X586791Y498498D01*
X588457D01*
X589290Y497665D01*
Y496832D01*
X588457Y495999D01*
X587624D01*
X588457D01*
X589290Y495166D01*
Y494333D01*
X588457Y493500D01*
X586791D01*
X585958Y494333D01*
X590956Y497665D02*
X591789Y498498D01*
X593456D01*
X594288Y497665D01*
Y494333D01*
X593456Y493500D01*
X591789D01*
X590956Y494333D01*
Y497665D01*
X595955Y493500D02*
Y498498D01*
X598454D01*
X599287Y497665D01*
Y495999D01*
X598454Y495166D01*
X595955D01*
X454750Y486000D02*
Y490998D01*
X457249D01*
X458082Y490165D01*
Y488499D01*
X457249Y487666D01*
X454750D01*
X456416D02*
X458082Y486000D01*
X459748D02*
X461414D01*
X460581D01*
Y489332D01*
X459748D01*
X465580Y484334D02*
X466413D01*
X467246Y485167D01*
Y489332D01*
X464747D01*
X463914Y488499D01*
Y486833D01*
X464747Y486000D01*
X467246D01*
X468912Y490998D02*
Y486000D01*
Y488499D01*
X469745Y489332D01*
X471411D01*
X472244Y488499D01*
Y486000D01*
X474744Y490165D02*
Y489332D01*
X473911D01*
X475577D01*
X474744D01*
Y486833D01*
X475577Y486000D01*
X483074D02*
Y490998D01*
X484740Y489332D01*
X486406Y490998D01*
Y486000D01*
X488906Y490165D02*
Y489332D01*
X488072D01*
X489739D01*
X488906D01*
Y486833D01*
X489739Y486000D01*
X493904Y484334D02*
X494737D01*
X495570Y485167D01*
Y489332D01*
X493071D01*
X492238Y488499D01*
Y486833D01*
X493071Y486000D01*
X495570D01*
X502235D02*
Y490998D01*
X504734D01*
X505567Y490165D01*
Y488499D01*
X504734Y487666D01*
X502235D01*
X508066Y489332D02*
X509732D01*
X510565Y488499D01*
Y486000D01*
X508066D01*
X507233Y486833D01*
X508066Y487666D01*
X510565D01*
X515564Y490998D02*
Y486000D01*
X513064D01*
X512231Y486833D01*
Y488499D01*
X513064Y489332D01*
X515564D01*
X517230Y486000D02*
X519729D01*
X520562Y486833D01*
X519729Y487666D01*
X518063D01*
X517230Y488499D01*
X518063Y489332D01*
X520562D01*
X523061Y490165D02*
Y489332D01*
X522228D01*
X523894D01*
X523061D01*
Y486833D01*
X523894Y486000D01*
X526394Y489332D02*
Y486833D01*
X527226Y486000D01*
X529726D01*
Y485167D01*
X528893Y484334D01*
X528060D01*
X529726Y486000D02*
Y489332D01*
X531392Y486000D02*
X533058D01*
X532225D01*
Y490998D01*
X531392D01*
X538056Y486000D02*
X536390D01*
X535557Y486833D01*
Y488499D01*
X536390Y489332D01*
X538056D01*
X538889Y488499D01*
Y487666D01*
X535557D01*
X540555Y489332D02*
X541389D01*
Y488499D01*
X540555D01*
Y489332D01*
Y486833D02*
X541389D01*
Y486000D01*
X540555D01*
Y486833D01*
X553052Y490998D02*
X549719D01*
Y486000D01*
X553052D01*
X549719Y488499D02*
X551385D01*
X554718Y490998D02*
X558050Y486000D01*
Y490998D02*
X554718Y486000D01*
X563048Y490998D02*
X561382Y490165D01*
X559716Y488499D01*
Y486833D01*
X560549Y486000D01*
X562215D01*
X563048Y486833D01*
Y487666D01*
X562215Y488499D01*
X559716D01*
X564714Y490165D02*
X565547Y490998D01*
X567214D01*
X568047Y490165D01*
Y486833D01*
X567214Y486000D01*
X565547D01*
X564714Y486833D01*
Y490165D01*
X569713Y490998D02*
Y490165D01*
X571379Y488499D01*
X573045Y490165D01*
Y490998D01*
X571379Y488499D02*
Y486000D01*
X578043Y490998D02*
X576377Y490165D01*
X574711Y488499D01*
Y486833D01*
X575544Y486000D01*
X577210D01*
X578043Y486833D01*
Y487666D01*
X577210Y488499D01*
X574711D01*
X579709Y490165D02*
X580543Y490998D01*
X582209D01*
X583042Y490165D01*
Y486833D01*
X582209Y486000D01*
X580543D01*
X579709Y486833D01*
Y490165D01*
X584708Y490998D02*
Y486000D01*
X587207D01*
X588040Y486833D01*
Y490165D01*
X587207Y490998D01*
X584708D01*
X589706Y490165D02*
X590539Y490998D01*
X592205D01*
X593039Y490165D01*
Y489332D01*
X592205Y488499D01*
X591372D01*
X592205D01*
X593039Y487666D01*
Y486833D01*
X592205Y486000D01*
X590539D01*
X589706Y486833D01*
X594705Y490165D02*
X595538Y490998D01*
X597204D01*
X598037Y490165D01*
Y486833D01*
X597204Y486000D01*
X595538D01*
X594705Y486833D01*
Y490165D01*
X599703Y486000D02*
Y490998D01*
X602202D01*
X603035Y490165D01*
Y488499D01*
X602202Y487666D01*
X599703D01*
X459750Y478500D02*
Y481832D01*
X461416Y483498D01*
X463082Y481832D01*
Y478500D01*
Y480999D01*
X459750D01*
X464748Y478500D02*
X466414D01*
X465581D01*
Y483498D01*
X464748D01*
X469747Y482665D02*
Y481832D01*
X468914D01*
X470580D01*
X469747D01*
Y479333D01*
X470580Y478500D01*
X478077D02*
Y483498D01*
X480577D01*
X481410Y482665D01*
Y480999D01*
X480577Y480166D01*
X478077D01*
X483909Y481832D02*
X485575D01*
X486408Y480999D01*
Y478500D01*
X483909D01*
X483076Y479333D01*
X483909Y480166D01*
X486408D01*
X491406Y483498D02*
Y478500D01*
X488907D01*
X488074Y479333D01*
Y480999D01*
X488907Y481832D01*
X491406D01*
X493073Y478500D02*
X495572D01*
X496405Y479333D01*
X495572Y480166D01*
X493906D01*
X493073Y480999D01*
X493906Y481832D01*
X496405D01*
X498904Y482665D02*
Y481832D01*
X498071D01*
X499737D01*
X498904D01*
Y479333D01*
X499737Y478500D01*
X502236Y481832D02*
Y479333D01*
X503069Y478500D01*
X505569D01*
Y477667D01*
X504735Y476834D01*
X503902D01*
X505569Y478500D02*
Y481832D01*
X507235Y478500D02*
X508901D01*
X508068D01*
Y483498D01*
X507235D01*
X513899Y478500D02*
X512233D01*
X511400Y479333D01*
Y480999D01*
X512233Y481832D01*
X513899D01*
X514732Y480999D01*
Y480166D01*
X511400D01*
X521397Y478500D02*
X523063D01*
X522230D01*
Y483498D01*
X521397Y482665D01*
X525562Y481832D02*
X526395D01*
Y480999D01*
X525562D01*
Y481832D01*
Y479333D02*
X526395D01*
Y478500D01*
X525562D01*
Y479333D01*
X537225Y483498D02*
X535559D01*
X534726Y482665D01*
Y479333D01*
X535559Y478500D01*
X537225D01*
X538058Y479333D01*
Y482665D01*
X537225Y483498D01*
X539724D02*
X543056Y478500D01*
Y483498D02*
X539724Y478500D01*
X548055Y483498D02*
X546389Y482665D01*
X544723Y480999D01*
Y479333D01*
X545555Y478500D01*
X547222D01*
X548055Y479333D01*
Y480166D01*
X547222Y480999D01*
X544723D01*
X549721Y482665D02*
X550554Y483498D01*
X552220D01*
X553053Y482665D01*
Y479333D01*
X552220Y478500D01*
X550554D01*
X549721Y479333D01*
Y482665D01*
X554719Y483498D02*
Y482665D01*
X556385Y480999D01*
X558051Y482665D01*
Y483498D01*
X556385Y480999D02*
Y478500D01*
X559718Y479333D02*
X560551Y478500D01*
X562217D01*
X563050Y479333D01*
Y482665D01*
X562217Y483498D01*
X560551D01*
X559718Y482665D01*
Y481832D01*
X560551Y480999D01*
X563050D01*
X564716Y482665D02*
X565549Y483498D01*
X567215D01*
X568048Y482665D01*
Y479333D01*
X567215Y478500D01*
X565549D01*
X564716Y479333D01*
Y482665D01*
X569714Y483498D02*
Y478500D01*
X572214D01*
X573047Y479333D01*
Y482665D01*
X572214Y483498D01*
X569714D01*
X574713Y482665D02*
X575546Y483498D01*
X577212D01*
X578045Y482665D01*
Y481832D01*
X577212Y480999D01*
X576379D01*
X577212D01*
X578045Y480166D01*
Y479333D01*
X577212Y478500D01*
X575546D01*
X574713Y479333D01*
X579711Y482665D02*
X580544Y483498D01*
X582210D01*
X583043Y482665D01*
Y479333D01*
X582210Y478500D01*
X580544D01*
X579711Y479333D01*
Y482665D01*
X584710Y478500D02*
Y483498D01*
X587209D01*
X588042Y482665D01*
Y480999D01*
X587209Y480166D01*
X584710D01*
X459750Y471000D02*
Y474332D01*
X461416Y475998D01*
X463082Y474332D01*
Y471000D01*
Y473499D01*
X459750D01*
X464748Y471000D02*
X466414D01*
X465581D01*
Y475998D01*
X464748D01*
X469747Y475165D02*
Y474332D01*
X468914D01*
X470580D01*
X469747D01*
Y471833D01*
X470580Y471000D01*
X478077D02*
Y475998D01*
X480577D01*
X481410Y475165D01*
Y473499D01*
X480577Y472666D01*
X478077D01*
X483909Y474332D02*
X485575D01*
X486408Y473499D01*
Y471000D01*
X483909D01*
X483076Y471833D01*
X483909Y472666D01*
X486408D01*
X491406Y475998D02*
Y471000D01*
X488907D01*
X488074Y471833D01*
Y473499D01*
X488907Y474332D01*
X491406D01*
X493073Y471000D02*
X495572D01*
X496405Y471833D01*
X495572Y472666D01*
X493906D01*
X493073Y473499D01*
X493906Y474332D01*
X496405D01*
X498904Y475165D02*
Y474332D01*
X498071D01*
X499737D01*
X498904D01*
Y471833D01*
X499737Y471000D01*
X502236Y474332D02*
Y471833D01*
X503069Y471000D01*
X505569D01*
Y470167D01*
X504735Y469334D01*
X503902D01*
X505569Y471000D02*
Y474332D01*
X507235Y471000D02*
X508901D01*
X508068D01*
Y475998D01*
X507235D01*
X513899Y471000D02*
X512233D01*
X511400Y471833D01*
Y473499D01*
X512233Y474332D01*
X513899D01*
X514732Y473499D01*
Y472666D01*
X511400D01*
X524729Y471000D02*
X521397D01*
X524729Y474332D01*
Y475165D01*
X523896Y475998D01*
X522230D01*
X521397Y475165D01*
X526395Y474332D02*
X527228D01*
Y473499D01*
X526395D01*
Y474332D01*
Y471833D02*
X527228D01*
Y471000D01*
X526395D01*
Y471833D01*
X538058Y475998D02*
X536392D01*
X535559Y475165D01*
Y471833D01*
X536392Y471000D01*
X538058D01*
X538891Y471833D01*
Y475165D01*
X538058Y475998D01*
X540557D02*
X543889Y471000D01*
Y475998D02*
X540557Y471000D01*
X545555Y471833D02*
X546389Y471000D01*
X548055D01*
X548888Y471833D01*
Y475165D01*
X548055Y475998D01*
X546389D01*
X545555Y475165D01*
Y474332D01*
X546389Y473499D01*
X548888D01*
X550554Y475165D02*
X551387Y475998D01*
X553053D01*
X553886Y475165D01*
Y471833D01*
X553053Y471000D01*
X551387D01*
X550554Y471833D01*
Y475165D01*
X555552Y475998D02*
Y475165D01*
X557218Y473499D01*
X558885Y475165D01*
Y475998D01*
X557218Y473499D02*
Y471000D01*
X563883Y475998D02*
X562217Y475165D01*
X560551Y473499D01*
Y471833D01*
X561384Y471000D01*
X563050D01*
X563883Y471833D01*
Y472666D01*
X563050Y473499D01*
X560551D01*
X565549Y475165D02*
X566382Y475998D01*
X568048D01*
X568881Y475165D01*
Y471833D01*
X568048Y471000D01*
X566382D01*
X565549Y471833D01*
Y475165D01*
X570547Y475998D02*
Y471000D01*
X573047D01*
X573880Y471833D01*
Y475165D01*
X573047Y475998D01*
X570547D01*
X575546Y475165D02*
X576379Y475998D01*
X578045D01*
X578878Y475165D01*
Y474332D01*
X578045Y473499D01*
X577212D01*
X578045D01*
X578878Y472666D01*
Y471833D01*
X578045Y471000D01*
X576379D01*
X575546Y471833D01*
X580544Y475165D02*
X581377Y475998D01*
X583043D01*
X583877Y475165D01*
Y471833D01*
X583043Y471000D01*
X581377D01*
X580544Y471833D01*
Y475165D01*
X585543Y471000D02*
Y475998D01*
X588042D01*
X588875Y475165D01*
Y473499D01*
X588042Y472666D01*
X585543D01*
X449750Y608070D02*
Y603071D01*
X452249D01*
X453082Y603904D01*
Y607237D01*
X452249Y608070D01*
X449750D01*
X457248Y603071D02*
X455581D01*
X454748Y603904D01*
Y605571D01*
X455581Y606404D01*
X457248D01*
X458081Y605571D01*
Y604737D01*
X454748D01*
X460580Y603071D02*
Y607237D01*
Y605571D01*
X459747D01*
X461413D01*
X460580D01*
Y607237D01*
X461413Y608070D01*
X464745Y606404D02*
X466411D01*
X467244Y605571D01*
Y603071D01*
X464745D01*
X463912Y603904D01*
X464745Y604737D01*
X467244D01*
X468911Y606404D02*
Y603904D01*
X469743Y603071D01*
X472243D01*
Y606404D01*
X473909Y603071D02*
X475575D01*
X474742D01*
Y608070D01*
X473909D01*
X478907Y607237D02*
Y606404D01*
X478074D01*
X479740D01*
X478907D01*
Y603904D01*
X479740Y603071D01*
X487238D02*
Y608070D01*
X489737D01*
X490570Y607237D01*
Y605571D01*
X489737Y604737D01*
X487238D01*
X493069Y606404D02*
X494735D01*
X495569Y605571D01*
Y603071D01*
X493069D01*
X492236Y603904D01*
X493069Y604737D01*
X495569D01*
X500567Y608070D02*
Y603071D01*
X498068D01*
X497235Y603904D01*
Y605571D01*
X498068Y606404D01*
X500567D01*
X502233Y603071D02*
X504732D01*
X505565Y603904D01*
X504732Y604737D01*
X503066D01*
X502233Y605571D01*
X503066Y606404D01*
X505565D01*
X508064Y607237D02*
Y606404D01*
X507231D01*
X508897D01*
X508064D01*
Y603904D01*
X508897Y603071D01*
X511397Y606404D02*
Y603904D01*
X512230Y603071D01*
X514729D01*
Y602238D01*
X513896Y601405D01*
X513063D01*
X514729Y603071D02*
Y606404D01*
X516395Y603071D02*
X518061D01*
X517228D01*
Y608070D01*
X516395D01*
X523060Y603071D02*
X521393D01*
X520560Y603904D01*
Y605571D01*
X521393Y606404D01*
X523060D01*
X523893Y605571D01*
Y604737D01*
X520560D01*
X525559Y606404D02*
X526392D01*
Y605571D01*
X525559D01*
Y606404D01*
Y603904D02*
X526392D01*
Y603071D01*
X525559D01*
Y603904D01*
X537222Y608070D02*
X535556D01*
X534723Y607237D01*
Y603904D01*
X535556Y603071D01*
X537222D01*
X538055Y603904D01*
Y607237D01*
X537222Y608070D01*
X539721D02*
X543053Y603071D01*
Y608070D02*
X539721Y603071D01*
X544719Y607237D02*
X545552Y608070D01*
X547218D01*
X548052Y607237D01*
Y606404D01*
X547218Y605571D01*
X548052Y604737D01*
Y603904D01*
X547218Y603071D01*
X545552D01*
X544719Y603904D01*
Y604737D01*
X545552Y605571D01*
X544719Y606404D01*
Y607237D01*
X545552Y605571D02*
X547218D01*
X549718Y607237D02*
X550551Y608070D01*
X552217D01*
X553050Y607237D01*
Y606404D01*
X552217Y605571D01*
X553050Y604737D01*
Y603904D01*
X552217Y603071D01*
X550551D01*
X549718Y603904D01*
Y604737D01*
X550551Y605571D01*
X549718Y606404D01*
Y607237D01*
X550551Y605571D02*
X552217D01*
X554716Y608070D02*
Y607237D01*
X556382Y605571D01*
X558048Y607237D01*
Y608070D01*
X556382Y605571D02*
Y603071D01*
X559714Y607237D02*
X560547Y608070D01*
X562214D01*
X563047Y607237D01*
Y606404D01*
X562214Y605571D01*
X563047Y604737D01*
Y603904D01*
X562214Y603071D01*
X560547D01*
X559714Y603904D01*
Y604737D01*
X560547Y605571D01*
X559714Y606404D01*
Y607237D01*
X560547Y605571D02*
X562214D01*
X564713Y607237D02*
X565546Y608070D01*
X567212D01*
X568045Y607237D01*
Y606404D01*
X567212Y605571D01*
X568045Y604737D01*
Y603904D01*
X567212Y603071D01*
X565546D01*
X564713Y603904D01*
Y604737D01*
X565546Y605571D01*
X564713Y606404D01*
Y607237D01*
X565546Y605571D02*
X567212D01*
X569711Y608070D02*
Y603071D01*
X572210D01*
X573043Y603904D01*
Y607237D01*
X572210Y608070D01*
X569711D01*
X578042D02*
X576376Y607237D01*
X574710Y605571D01*
Y603904D01*
X575543Y603071D01*
X577209D01*
X578042Y603904D01*
Y604737D01*
X577209Y605571D01*
X574710D01*
X579708Y607237D02*
X580541Y608070D01*
X582207D01*
X583040Y607237D01*
Y606404D01*
X582207Y605571D01*
X583040Y604737D01*
Y603904D01*
X582207Y603071D01*
X580541D01*
X579708Y603904D01*
Y604737D01*
X580541Y605571D01*
X579708Y606404D01*
Y607237D01*
X580541Y605571D02*
X582207D01*
X584706Y603071D02*
Y608070D01*
X587206D01*
X588038Y607237D01*
Y605571D01*
X587206Y604737D01*
X584706D01*
X448500Y595571D02*
X450166D01*
X449333D01*
Y600570D01*
X448500Y599737D01*
X452665Y595571D02*
X455164D01*
X455998Y596404D01*
X455164Y597237D01*
X453498D01*
X452665Y598070D01*
X453498Y598904D01*
X455998D01*
X458497Y599737D02*
Y598904D01*
X457664D01*
X459330D01*
X458497D01*
Y596404D01*
X459330Y595571D01*
X466827D02*
Y600570D01*
X468494Y598904D01*
X470160Y600570D01*
Y595571D01*
X472659Y599737D02*
Y598904D01*
X471826D01*
X473492D01*
X472659D01*
Y596404D01*
X473492Y595571D01*
X477657Y593905D02*
X478490D01*
X479323Y594738D01*
Y598904D01*
X476824D01*
X475991Y598070D01*
Y596404D01*
X476824Y595571D01*
X479323D01*
X485988D02*
Y600570D01*
X488487D01*
X489320Y599737D01*
Y598070D01*
X488487Y597237D01*
X485988D01*
X491819Y598904D02*
X493485D01*
X494318Y598070D01*
Y595571D01*
X491819D01*
X490986Y596404D01*
X491819Y597237D01*
X494318D01*
X499317Y600570D02*
Y595571D01*
X496818D01*
X495985Y596404D01*
Y598070D01*
X496818Y598904D01*
X499317D01*
X500983Y595571D02*
X503482D01*
X504315Y596404D01*
X503482Y597237D01*
X501816D01*
X500983Y598070D01*
X501816Y598904D01*
X504315D01*
X506814Y599737D02*
Y598904D01*
X505981D01*
X507648D01*
X506814D01*
Y596404D01*
X507648Y595571D01*
X510147Y598904D02*
Y596404D01*
X510980Y595571D01*
X513479D01*
Y594738D01*
X512646Y593905D01*
X511813D01*
X513479Y595571D02*
Y598904D01*
X515145Y595571D02*
X516811D01*
X515978D01*
Y600570D01*
X515145D01*
X521810Y595571D02*
X520144D01*
X519310Y596404D01*
Y598070D01*
X520144Y598904D01*
X521810D01*
X522643Y598070D01*
Y597237D01*
X519310D01*
X524309Y598904D02*
X525142D01*
Y598070D01*
X524309D01*
Y598904D01*
Y596404D02*
X525142D01*
Y595571D01*
X524309D01*
Y596404D01*
X533472Y595571D02*
Y600570D01*
X535972D01*
X536805Y599737D01*
Y598070D01*
X535972Y597237D01*
X533472D01*
X535139D02*
X536805Y595571D01*
X538471Y600570D02*
X541803Y595571D01*
Y600570D02*
X538471Y595571D01*
X543469D02*
X545135D01*
X544302D01*
Y600570D01*
X543469Y599737D01*
X547635Y595571D02*
X549301D01*
X548468D01*
Y600570D01*
X547635Y599737D01*
X551800D02*
X552633Y600570D01*
X554299D01*
X555132Y599737D01*
Y596404D01*
X554299Y595571D01*
X552633D01*
X551800Y596404D01*
Y599737D01*
X556798Y600570D02*
Y599737D01*
X558464Y598070D01*
X560131Y599737D01*
Y600570D01*
X558464Y598070D02*
Y595571D01*
X561797Y599737D02*
X562630Y600570D01*
X564296D01*
X565129Y599737D01*
Y598904D01*
X564296Y598070D01*
X565129Y597237D01*
Y596404D01*
X564296Y595571D01*
X562630D01*
X561797Y596404D01*
Y597237D01*
X562630Y598070D01*
X561797Y598904D01*
Y599737D01*
X562630Y598070D02*
X564296D01*
X566795Y599737D02*
X567628Y600570D01*
X569294D01*
X570127Y599737D01*
Y596404D01*
X569294Y595571D01*
X567628D01*
X566795Y596404D01*
Y599737D01*
X571793Y600570D02*
Y595571D01*
X574293D01*
X575126Y596404D01*
Y599737D01*
X574293Y600570D01*
X571793D01*
X580124D02*
X576792D01*
Y598070D01*
X578458Y598904D01*
X579291D01*
X580124Y598070D01*
Y596404D01*
X579291Y595571D01*
X577625D01*
X576792Y596404D01*
X581790Y599737D02*
X582623Y600570D01*
X584289D01*
X585122Y599737D01*
Y596404D01*
X584289Y595571D01*
X582623D01*
X581790Y596404D01*
Y599737D01*
X586789Y595571D02*
Y600570D01*
X589288D01*
X590121Y599737D01*
Y598070D01*
X589288Y597237D01*
X586789D01*
X453082Y588071D02*
X449750D01*
X453082Y591404D01*
Y592237D01*
X452249Y593070D01*
X450583D01*
X449750Y592237D01*
X454748Y588071D02*
Y591404D01*
X457248D01*
X458081Y590570D01*
Y588071D01*
X463079Y593070D02*
Y588071D01*
X460580D01*
X459747Y588904D01*
Y590570D01*
X460580Y591404D01*
X463079D01*
X469743Y588071D02*
Y593070D01*
X471410Y591404D01*
X473076Y593070D01*
Y588071D01*
X475575Y592237D02*
Y591404D01*
X474742D01*
X476408D01*
X475575D01*
Y588904D01*
X476408Y588071D01*
X480573Y586405D02*
X481406D01*
X482239Y587238D01*
Y591404D01*
X479740D01*
X478907Y590570D01*
Y588904D01*
X479740Y588071D01*
X482239D01*
X488904D02*
Y593070D01*
X491403D01*
X492236Y592237D01*
Y590570D01*
X491403Y589737D01*
X488904D01*
X494735Y591404D02*
X496402D01*
X497235Y590570D01*
Y588071D01*
X494735D01*
X493902Y588904D01*
X494735Y589737D01*
X497235D01*
X502233Y593070D02*
Y588071D01*
X499734D01*
X498901Y588904D01*
Y590570D01*
X499734Y591404D01*
X502233D01*
X503899Y588071D02*
X506398D01*
X507231Y588904D01*
X506398Y589737D01*
X504732D01*
X503899Y590570D01*
X504732Y591404D01*
X507231D01*
X509731Y592237D02*
Y591404D01*
X508897D01*
X510564D01*
X509731D01*
Y588904D01*
X510564Y588071D01*
X513063Y591404D02*
Y588904D01*
X513896Y588071D01*
X516395D01*
Y587238D01*
X515562Y586405D01*
X514729D01*
X516395Y588071D02*
Y591404D01*
X518061Y588071D02*
X519727D01*
X518894D01*
Y593070D01*
X518061D01*
X524726Y588071D02*
X523060D01*
X522226Y588904D01*
Y590570D01*
X523060Y591404D01*
X524726D01*
X525559Y590570D01*
Y589737D01*
X522226D01*
X527225Y591404D02*
X528058D01*
Y590570D01*
X527225D01*
Y591404D01*
Y588904D02*
X528058D01*
Y588071D01*
X527225D01*
Y588904D01*
X539721Y593070D02*
X536389D01*
Y588071D01*
X539721D01*
X536389Y590570D02*
X538055D01*
X541387Y593070D02*
X544719Y588071D01*
Y593070D02*
X541387Y588071D01*
X546385Y593070D02*
X549718D01*
Y592237D01*
X546385Y588904D01*
Y588071D01*
X551384Y592237D02*
X552217Y593070D01*
X553883D01*
X554716Y592237D01*
Y588904D01*
X553883Y588071D01*
X552217D01*
X551384Y588904D01*
Y592237D01*
X556382Y593070D02*
Y592237D01*
X558048Y590570D01*
X559714Y592237D01*
Y593070D01*
X558048Y590570D02*
Y588071D01*
X561380Y593070D02*
X564713D01*
Y592237D01*
X561380Y588904D01*
Y588071D01*
X566379Y592237D02*
X567212Y593070D01*
X568878D01*
X569711Y592237D01*
Y588904D01*
X568878Y588071D01*
X567212D01*
X566379Y588904D01*
Y592237D01*
X571377Y593070D02*
Y588071D01*
X573876D01*
X574710Y588904D01*
Y592237D01*
X573876Y593070D01*
X571377D01*
X576376D02*
X579708D01*
Y592237D01*
X576376Y588904D01*
Y588071D01*
X581374Y592237D02*
X582207Y593070D01*
X583873D01*
X584706Y592237D01*
Y588904D01*
X583873Y588071D01*
X582207D01*
X581374Y588904D01*
Y592237D01*
X586372Y588071D02*
Y593070D01*
X588872D01*
X589705Y592237D01*
Y590570D01*
X588872Y589737D01*
X586372D01*
X449750Y584737D02*
X450583Y585570D01*
X452249D01*
X453082Y584737D01*
Y583904D01*
X452249Y583071D01*
X451416D01*
X452249D01*
X453082Y582237D01*
Y581404D01*
X452249Y580571D01*
X450583D01*
X449750Y581404D01*
X454748Y583904D02*
Y580571D01*
Y582237D01*
X455581Y583071D01*
X456415Y583904D01*
X457248D01*
X463079Y585570D02*
Y580571D01*
X460580D01*
X459747Y581404D01*
Y583071D01*
X460580Y583904D01*
X463079D01*
X469743Y580571D02*
Y585570D01*
X471410Y583904D01*
X473076Y585570D01*
Y580571D01*
X475575Y584737D02*
Y583904D01*
X474742D01*
X476408D01*
X475575D01*
Y581404D01*
X476408Y580571D01*
X480573Y578905D02*
X481406D01*
X482239Y579738D01*
Y583904D01*
X479740D01*
X478907Y583071D01*
Y581404D01*
X479740Y580571D01*
X482239D01*
X488904D02*
Y585570D01*
X491403D01*
X492236Y584737D01*
Y583071D01*
X491403Y582237D01*
X488904D01*
X494735Y583904D02*
X496402D01*
X497235Y583071D01*
Y580571D01*
X494735D01*
X493902Y581404D01*
X494735Y582237D01*
X497235D01*
X502233Y585570D02*
Y580571D01*
X499734D01*
X498901Y581404D01*
Y583071D01*
X499734Y583904D01*
X502233D01*
X503899Y580571D02*
X506398D01*
X507231Y581404D01*
X506398Y582237D01*
X504732D01*
X503899Y583071D01*
X504732Y583904D01*
X507231D01*
X509731Y584737D02*
Y583904D01*
X508897D01*
X510564D01*
X509731D01*
Y581404D01*
X510564Y580571D01*
X513063Y583904D02*
Y581404D01*
X513896Y580571D01*
X516395D01*
Y579738D01*
X515562Y578905D01*
X514729D01*
X516395Y580571D02*
Y583904D01*
X518061Y580571D02*
X519727D01*
X518894D01*
Y585570D01*
X518061D01*
X524726Y580571D02*
X523060D01*
X522226Y581404D01*
Y583071D01*
X523060Y583904D01*
X524726D01*
X525559Y583071D01*
Y582237D01*
X522226D01*
X527225Y583904D02*
X528058D01*
Y583071D01*
X527225D01*
Y583904D01*
Y581404D02*
X528058D01*
Y580571D01*
X527225D01*
Y581404D01*
X539721Y585570D02*
X536389D01*
Y580571D01*
X539721D01*
X536389Y583071D02*
X538055D01*
X541387Y585570D02*
X544719Y580571D01*
Y585570D02*
X541387Y580571D01*
X546385Y585570D02*
X549718D01*
Y584737D01*
X546385Y581404D01*
Y580571D01*
X551384Y584737D02*
X552217Y585570D01*
X553883D01*
X554716Y584737D01*
Y581404D01*
X553883Y580571D01*
X552217D01*
X551384Y581404D01*
Y584737D01*
X556382Y585570D02*
Y584737D01*
X558048Y583071D01*
X559714Y584737D01*
Y585570D01*
X558048Y583071D02*
Y580571D01*
X561380Y585570D02*
X564713D01*
Y584737D01*
X561380Y581404D01*
Y580571D01*
X566379Y584737D02*
X567212Y585570D01*
X568878D01*
X569711Y584737D01*
Y581404D01*
X568878Y580571D01*
X567212D01*
X566379Y581404D01*
Y584737D01*
X571377Y585570D02*
Y580571D01*
X573876D01*
X574710Y581404D01*
Y584737D01*
X573876Y585570D01*
X571377D01*
X576376D02*
X579708D01*
Y584737D01*
X576376Y581404D01*
Y580571D01*
X581374Y584737D02*
X582207Y585570D01*
X583873D01*
X584706Y584737D01*
Y581404D01*
X583873Y580571D01*
X582207D01*
X581374Y581404D01*
Y584737D01*
X586372Y580571D02*
Y585570D01*
X588872D01*
X589705Y584737D01*
Y583071D01*
X588872Y582237D01*
X586372D01*
X448500Y578070D02*
Y573071D01*
X451832D01*
X455998D02*
X454331D01*
X453498Y573904D01*
Y575570D01*
X454331Y576404D01*
X455998D01*
X456831Y575570D01*
Y574737D01*
X453498D01*
X459330Y573071D02*
Y577237D01*
Y575570D01*
X458497D01*
X460163D01*
X459330D01*
Y577237D01*
X460163Y578070D01*
X463495Y577237D02*
Y576404D01*
X462662D01*
X464328D01*
X463495D01*
Y573904D01*
X464328Y573071D01*
X471826D02*
Y578070D01*
X473492Y576404D01*
X475158Y578070D01*
Y573071D01*
X477657Y577237D02*
Y576404D01*
X476824D01*
X478490D01*
X477657D01*
Y573904D01*
X478490Y573071D01*
X482656Y571405D02*
X483489D01*
X484322Y572238D01*
Y576404D01*
X481822D01*
X480990Y575570D01*
Y573904D01*
X481822Y573071D01*
X484322D01*
X490986D02*
Y578070D01*
X493485D01*
X494318Y577237D01*
Y575570D01*
X493485Y574737D01*
X490986D01*
X496818Y576404D02*
X498484D01*
X499317Y575570D01*
Y573071D01*
X496818D01*
X495985Y573904D01*
X496818Y574737D01*
X499317D01*
X504315Y578070D02*
Y573071D01*
X501816D01*
X500983Y573904D01*
Y575570D01*
X501816Y576404D01*
X504315D01*
X505981Y573071D02*
X508481D01*
X509314Y573904D01*
X508481Y574737D01*
X506814D01*
X505981Y575570D01*
X506814Y576404D01*
X509314D01*
X511813Y577237D02*
Y576404D01*
X510980D01*
X512646D01*
X511813D01*
Y573904D01*
X512646Y573071D01*
X515145Y576404D02*
Y573904D01*
X515978Y573071D01*
X518477D01*
Y572238D01*
X517644Y571405D01*
X516811D01*
X518477Y573071D02*
Y576404D01*
X520144Y573071D02*
X521810D01*
X520976D01*
Y578070D01*
X520144D01*
X526808Y573071D02*
X525142D01*
X524309Y573904D01*
Y575570D01*
X525142Y576404D01*
X526808D01*
X527641Y575570D01*
Y574737D01*
X524309D01*
X529307Y576404D02*
X530140D01*
Y575570D01*
X529307D01*
Y576404D01*
Y573904D02*
X530140D01*
Y573071D01*
X529307D01*
Y573904D01*
X541803Y578070D02*
X538471D01*
Y573071D01*
X541803D01*
X538471Y575570D02*
X540137D01*
X543469Y578070D02*
X546802Y573071D01*
Y578070D02*
X543469Y573071D01*
X551800Y578070D02*
X550134Y577237D01*
X548468Y575570D01*
Y573904D01*
X549301Y573071D01*
X550967D01*
X551800Y573904D01*
Y574737D01*
X550967Y575570D01*
X548468D01*
X553466Y577237D02*
X554299Y578070D01*
X555965D01*
X556798Y577237D01*
Y573904D01*
X555965Y573071D01*
X554299D01*
X553466Y573904D01*
Y577237D01*
X558464Y578070D02*
Y577237D01*
X560131Y575570D01*
X561797Y577237D01*
Y578070D01*
X560131Y575570D02*
Y573071D01*
X566795Y578070D02*
X565129Y577237D01*
X563463Y575570D01*
Y573904D01*
X564296Y573071D01*
X565962D01*
X566795Y573904D01*
Y574737D01*
X565962Y575570D01*
X563463D01*
X568461Y577237D02*
X569294Y578070D01*
X570960D01*
X571793Y577237D01*
Y573904D01*
X570960Y573071D01*
X569294D01*
X568461Y573904D01*
Y577237D01*
X573459Y578070D02*
Y573071D01*
X575959D01*
X576792Y573904D01*
Y577237D01*
X575959Y578070D01*
X573459D01*
X578458Y577237D02*
X579291Y578070D01*
X580957D01*
X581790Y577237D01*
Y576404D01*
X580957Y575570D01*
X580124D01*
X580957D01*
X581790Y574737D01*
Y573904D01*
X580957Y573071D01*
X579291D01*
X578458Y573904D01*
X583456Y577237D02*
X584289Y578070D01*
X585955D01*
X586789Y577237D01*
Y573904D01*
X585955Y573071D01*
X584289D01*
X583456Y573904D01*
Y577237D01*
X588455Y573071D02*
Y578070D01*
X590954D01*
X591787Y577237D01*
Y575570D01*
X590954Y574737D01*
X588455D01*
X447250Y565571D02*
Y570570D01*
X449749D01*
X450582Y569737D01*
Y568071D01*
X449749Y567237D01*
X447250D01*
X448916D02*
X450582Y565571D01*
X452248D02*
X453914D01*
X453081D01*
Y568904D01*
X452248D01*
X458080Y563905D02*
X458913D01*
X459746Y564738D01*
Y568904D01*
X457247D01*
X456414Y568071D01*
Y566404D01*
X457247Y565571D01*
X459746D01*
X461412Y570570D02*
Y565571D01*
Y568071D01*
X462245Y568904D01*
X463911D01*
X464744Y568071D01*
Y565571D01*
X467243Y569737D02*
Y568904D01*
X466410D01*
X468077D01*
X467243D01*
Y566404D01*
X468077Y565571D01*
X475574D02*
Y570570D01*
X477240Y568904D01*
X478906Y570570D01*
Y565571D01*
X481406Y569737D02*
Y568904D01*
X480573D01*
X482239D01*
X481406D01*
Y566404D01*
X482239Y565571D01*
X486404Y563905D02*
X487237D01*
X488070Y564738D01*
Y568904D01*
X485571D01*
X484738Y568071D01*
Y566404D01*
X485571Y565571D01*
X488070D01*
X494735D02*
Y570570D01*
X497234D01*
X498067Y569737D01*
Y568071D01*
X497234Y567237D01*
X494735D01*
X500566Y568904D02*
X502232D01*
X503065Y568071D01*
Y565571D01*
X500566D01*
X499733Y566404D01*
X500566Y567237D01*
X503065D01*
X508064Y570570D02*
Y565571D01*
X505564D01*
X504731Y566404D01*
Y568071D01*
X505564Y568904D01*
X508064D01*
X509730Y565571D02*
X512229D01*
X513062Y566404D01*
X512229Y567237D01*
X510563D01*
X509730Y568071D01*
X510563Y568904D01*
X513062D01*
X515561Y569737D02*
Y568904D01*
X514728D01*
X516394D01*
X515561D01*
Y566404D01*
X516394Y565571D01*
X518893Y568904D02*
Y566404D01*
X519727Y565571D01*
X522226D01*
Y564738D01*
X521393Y563905D01*
X520560D01*
X522226Y565571D02*
Y568904D01*
X523892Y565571D02*
X525558D01*
X524725D01*
Y570570D01*
X523892D01*
X530556Y565571D02*
X528890D01*
X528057Y566404D01*
Y568071D01*
X528890Y568904D01*
X530556D01*
X531389Y568071D01*
Y567237D01*
X528057D01*
X533055Y568904D02*
X533889D01*
Y568071D01*
X533055D01*
Y568904D01*
Y566404D02*
X533889D01*
Y565571D01*
X533055D01*
Y566404D01*
X545551Y570570D02*
X542219D01*
Y565571D01*
X545551D01*
X542219Y568071D02*
X543885D01*
X547218Y570570D02*
X550550Y565571D01*
Y570570D02*
X547218Y565571D01*
X555548Y570570D02*
X553882Y569737D01*
X552216Y568071D01*
Y566404D01*
X553049Y565571D01*
X554715D01*
X555548Y566404D01*
Y567237D01*
X554715Y568071D01*
X552216D01*
X557214Y569737D02*
X558047Y570570D01*
X559714D01*
X560547Y569737D01*
Y566404D01*
X559714Y565571D01*
X558047D01*
X557214Y566404D01*
Y569737D01*
X562213Y570570D02*
Y569737D01*
X563879Y568071D01*
X565545Y569737D01*
Y570570D01*
X563879Y568071D02*
Y565571D01*
X570543Y570570D02*
X568877Y569737D01*
X567211Y568071D01*
Y566404D01*
X568044Y565571D01*
X569710D01*
X570543Y566404D01*
Y567237D01*
X569710Y568071D01*
X567211D01*
X572210Y569737D02*
X573043Y570570D01*
X574709D01*
X575542Y569737D01*
Y566404D01*
X574709Y565571D01*
X573043D01*
X572210Y566404D01*
Y569737D01*
X577208Y570570D02*
Y565571D01*
X579707D01*
X580540Y566404D01*
Y569737D01*
X579707Y570570D01*
X577208D01*
X582206Y569737D02*
X583039Y570570D01*
X584705D01*
X585538Y569737D01*
Y568904D01*
X584705Y568071D01*
X583872D01*
X584705D01*
X585538Y567237D01*
Y566404D01*
X584705Y565571D01*
X583039D01*
X582206Y566404D01*
X587205Y569737D02*
X588038Y570570D01*
X589704D01*
X590537Y569737D01*
Y566404D01*
X589704Y565571D01*
X588038D01*
X587205Y566404D01*
Y569737D01*
X592203Y565571D02*
Y570570D01*
X594702D01*
X595535Y569737D01*
Y568071D01*
X594702Y567237D01*
X592203D01*
X452250Y558071D02*
Y561404D01*
X453916Y563070D01*
X455582Y561404D01*
Y558071D01*
Y560570D01*
X452250D01*
X457248Y558071D02*
X458915D01*
X458081D01*
Y563070D01*
X457248D01*
X462247Y562237D02*
Y561404D01*
X461414D01*
X463080D01*
X462247D01*
Y558904D01*
X463080Y558071D01*
X470577D02*
Y563070D01*
X473077D01*
X473910Y562237D01*
Y560570D01*
X473077Y559737D01*
X470577D01*
X476409Y561404D02*
X478075D01*
X478908Y560570D01*
Y558071D01*
X476409D01*
X475576Y558904D01*
X476409Y559737D01*
X478908D01*
X483906Y563070D02*
Y558071D01*
X481407D01*
X480574Y558904D01*
Y560570D01*
X481407Y561404D01*
X483906D01*
X485572Y558071D02*
X488072D01*
X488905Y558904D01*
X488072Y559737D01*
X486406D01*
X485572Y560570D01*
X486406Y561404D01*
X488905D01*
X491404Y562237D02*
Y561404D01*
X490571D01*
X492237D01*
X491404D01*
Y558904D01*
X492237Y558071D01*
X494736Y561404D02*
Y558904D01*
X495569Y558071D01*
X498069D01*
Y557238D01*
X497235Y556405D01*
X496402D01*
X498069Y558071D02*
Y561404D01*
X499735Y558071D02*
X501401D01*
X500568D01*
Y563070D01*
X499735D01*
X506399Y558071D02*
X504733D01*
X503900Y558904D01*
Y560570D01*
X504733Y561404D01*
X506399D01*
X507232Y560570D01*
Y559737D01*
X503900D01*
X513897Y558071D02*
X515563D01*
X514730D01*
Y563070D01*
X513897Y562237D01*
X518062Y561404D02*
X518895D01*
Y560570D01*
X518062D01*
Y561404D01*
Y558904D02*
X518895D01*
Y558071D01*
X518062D01*
Y558904D01*
X529725Y563070D02*
X528059D01*
X527226Y562237D01*
Y558904D01*
X528059Y558071D01*
X529725D01*
X530558Y558904D01*
Y562237D01*
X529725Y563070D01*
X532224D02*
X535556Y558071D01*
Y563070D02*
X532224Y558071D01*
X540555Y563070D02*
X538889Y562237D01*
X537222Y560570D01*
Y558904D01*
X538056Y558071D01*
X539722D01*
X540555Y558904D01*
Y559737D01*
X539722Y560570D01*
X537222D01*
X542221Y562237D02*
X543054Y563070D01*
X544720D01*
X545553Y562237D01*
Y558904D01*
X544720Y558071D01*
X543054D01*
X542221Y558904D01*
Y562237D01*
X547219Y563070D02*
Y562237D01*
X548885Y560570D01*
X550552Y562237D01*
Y563070D01*
X548885Y560570D02*
Y558071D01*
X552218Y558904D02*
X553051Y558071D01*
X554717D01*
X555550Y558904D01*
Y562237D01*
X554717Y563070D01*
X553051D01*
X552218Y562237D01*
Y561404D01*
X553051Y560570D01*
X555550D01*
X557216Y562237D02*
X558049Y563070D01*
X559715D01*
X560548Y562237D01*
Y558904D01*
X559715Y558071D01*
X558049D01*
X557216Y558904D01*
Y562237D01*
X562214Y563070D02*
Y558071D01*
X564714D01*
X565547Y558904D01*
Y562237D01*
X564714Y563070D01*
X562214D01*
X567213Y562237D02*
X568046Y563070D01*
X569712D01*
X570545Y562237D01*
Y561404D01*
X569712Y560570D01*
X568879D01*
X569712D01*
X570545Y559737D01*
Y558904D01*
X569712Y558071D01*
X568046D01*
X567213Y558904D01*
X572211Y562237D02*
X573044Y563070D01*
X574710D01*
X575543Y562237D01*
Y558904D01*
X574710Y558071D01*
X573044D01*
X572211Y558904D01*
Y562237D01*
X577210Y558071D02*
Y563070D01*
X579709D01*
X580542Y562237D01*
Y560570D01*
X579709Y559737D01*
X577210D01*
X452250Y550571D02*
Y553904D01*
X453916Y555570D01*
X455582Y553904D01*
Y550571D01*
Y553070D01*
X452250D01*
X457248Y550571D02*
X458915D01*
X458081D01*
Y555570D01*
X457248D01*
X462247Y554737D02*
Y553904D01*
X461414D01*
X463080D01*
X462247D01*
Y551404D01*
X463080Y550571D01*
X470577D02*
Y555570D01*
X473077D01*
X473910Y554737D01*
Y553070D01*
X473077Y552237D01*
X470577D01*
X476409Y553904D02*
X478075D01*
X478908Y553070D01*
Y550571D01*
X476409D01*
X475576Y551404D01*
X476409Y552237D01*
X478908D01*
X483906Y555570D02*
Y550571D01*
X481407D01*
X480574Y551404D01*
Y553070D01*
X481407Y553904D01*
X483906D01*
X485572Y550571D02*
X488072D01*
X488905Y551404D01*
X488072Y552237D01*
X486406D01*
X485572Y553070D01*
X486406Y553904D01*
X488905D01*
X491404Y554737D02*
Y553904D01*
X490571D01*
X492237D01*
X491404D01*
Y551404D01*
X492237Y550571D01*
X494736Y553904D02*
Y551404D01*
X495569Y550571D01*
X498069D01*
Y549738D01*
X497235Y548905D01*
X496402D01*
X498069Y550571D02*
Y553904D01*
X499735Y550571D02*
X501401D01*
X500568D01*
Y555570D01*
X499735D01*
X506399Y550571D02*
X504733D01*
X503900Y551404D01*
Y553070D01*
X504733Y553904D01*
X506399D01*
X507232Y553070D01*
Y552237D01*
X503900D01*
X517229Y550571D02*
X513897D01*
X517229Y553904D01*
Y554737D01*
X516396Y555570D01*
X514730D01*
X513897Y554737D01*
X518895Y553904D02*
X519728D01*
Y553070D01*
X518895D01*
Y553904D01*
Y551404D02*
X519728D01*
Y550571D01*
X518895D01*
Y551404D01*
X530558Y555570D02*
X528892D01*
X528059Y554737D01*
Y551404D01*
X528892Y550571D01*
X530558D01*
X531391Y551404D01*
Y554737D01*
X530558Y555570D01*
X533057D02*
X536389Y550571D01*
Y555570D02*
X533057Y550571D01*
X538056Y551404D02*
X538889Y550571D01*
X540555D01*
X541388Y551404D01*
Y554737D01*
X540555Y555570D01*
X538889D01*
X538056Y554737D01*
Y553904D01*
X538889Y553070D01*
X541388D01*
X543054Y554737D02*
X543887Y555570D01*
X545553D01*
X546386Y554737D01*
Y551404D01*
X545553Y550571D01*
X543887D01*
X543054Y551404D01*
Y554737D01*
X548052Y555570D02*
Y554737D01*
X549718Y553070D01*
X551385Y554737D01*
Y555570D01*
X549718Y553070D02*
Y550571D01*
X556383Y555570D02*
X554717Y554737D01*
X553051Y553070D01*
Y551404D01*
X553884Y550571D01*
X555550D01*
X556383Y551404D01*
Y552237D01*
X555550Y553070D01*
X553051D01*
X558049Y554737D02*
X558882Y555570D01*
X560548D01*
X561381Y554737D01*
Y551404D01*
X560548Y550571D01*
X558882D01*
X558049Y551404D01*
Y554737D01*
X563047Y555570D02*
Y550571D01*
X565547D01*
X566380Y551404D01*
Y554737D01*
X565547Y555570D01*
X563047D01*
X568046Y554737D02*
X568879Y555570D01*
X570545D01*
X571378Y554737D01*
Y553904D01*
X570545Y553070D01*
X569712D01*
X570545D01*
X571378Y552237D01*
Y551404D01*
X570545Y550571D01*
X568879D01*
X568046Y551404D01*
X573044Y554737D02*
X573877Y555570D01*
X575543D01*
X576376Y554737D01*
Y551404D01*
X575543Y550571D01*
X573877D01*
X573044Y551404D01*
Y554737D01*
X578043Y550571D02*
Y555570D01*
X580542D01*
X581375Y554737D01*
Y553070D01*
X580542Y552237D01*
X578043D01*
X451750Y675498D02*
Y670500D01*
X454249D01*
X455082Y671333D01*
Y674665D01*
X454249Y675498D01*
X451750D01*
X459248Y670500D02*
X457581D01*
X456748Y671333D01*
Y672999D01*
X457581Y673832D01*
X459248D01*
X460081Y672999D01*
Y672166D01*
X456748D01*
X462580Y670500D02*
Y674665D01*
Y672999D01*
X461747D01*
X463413D01*
X462580D01*
Y674665D01*
X463413Y675498D01*
X466745Y673832D02*
X468411D01*
X469244Y672999D01*
Y670500D01*
X466745D01*
X465912Y671333D01*
X466745Y672166D01*
X469244D01*
X470911Y673832D02*
Y671333D01*
X471743Y670500D01*
X474243D01*
Y673832D01*
X475909Y670500D02*
X477575D01*
X476742D01*
Y675498D01*
X475909D01*
X480907Y674665D02*
Y673832D01*
X480074D01*
X481740D01*
X480907D01*
Y671333D01*
X481740Y670500D01*
X489238D02*
Y675498D01*
X491737D01*
X492570Y674665D01*
Y672999D01*
X491737Y672166D01*
X489238D01*
X495069Y673832D02*
X496735D01*
X497569Y672999D01*
Y670500D01*
X495069D01*
X494236Y671333D01*
X495069Y672166D01*
X497569D01*
X502567Y675498D02*
Y670500D01*
X500068D01*
X499235Y671333D01*
Y672999D01*
X500068Y673832D01*
X502567D01*
X504233Y670500D02*
X506732D01*
X507565Y671333D01*
X506732Y672166D01*
X505066D01*
X504233Y672999D01*
X505066Y673832D01*
X507565D01*
X510064Y674665D02*
Y673832D01*
X509231D01*
X510897D01*
X510064D01*
Y671333D01*
X510897Y670500D01*
X513397Y673832D02*
Y671333D01*
X514230Y670500D01*
X516729D01*
Y669667D01*
X515896Y668834D01*
X515063D01*
X516729Y670500D02*
Y673832D01*
X518395Y670500D02*
X520061D01*
X519228D01*
Y675498D01*
X518395D01*
X525060Y670500D02*
X523393D01*
X522560Y671333D01*
Y672999D01*
X523393Y673832D01*
X525060D01*
X525893Y672999D01*
Y672166D01*
X522560D01*
X527559Y673832D02*
X528392D01*
Y672999D01*
X527559D01*
Y673832D01*
Y671333D02*
X528392D01*
Y670500D01*
X527559D01*
Y671333D01*
X539222Y675498D02*
X537556D01*
X536723Y674665D01*
Y671333D01*
X537556Y670500D01*
X539222D01*
X540055Y671333D01*
Y674665D01*
X539222Y675498D01*
X541721D02*
X545053Y670500D01*
Y675498D02*
X541721Y670500D01*
X546719Y674665D02*
X547552Y675498D01*
X549218D01*
X550051Y674665D01*
Y673832D01*
X549218Y672999D01*
X550051Y672166D01*
Y671333D01*
X549218Y670500D01*
X547552D01*
X546719Y671333D01*
Y672166D01*
X547552Y672999D01*
X546719Y673832D01*
Y674665D01*
X547552Y672999D02*
X549218D01*
X551718Y674665D02*
X552551Y675498D01*
X554217D01*
X555050Y674665D01*
Y673832D01*
X554217Y672999D01*
X555050Y672166D01*
Y671333D01*
X554217Y670500D01*
X552551D01*
X551718Y671333D01*
Y672166D01*
X552551Y672999D01*
X551718Y673832D01*
Y674665D01*
X552551Y672999D02*
X554217D01*
X556716Y675498D02*
Y674665D01*
X558382Y672999D01*
X560048Y674665D01*
Y675498D01*
X558382Y672999D02*
Y670500D01*
X561714Y674665D02*
X562547Y675498D01*
X564214D01*
X565047Y674665D01*
Y673832D01*
X564214Y672999D01*
X565047Y672166D01*
Y671333D01*
X564214Y670500D01*
X562547D01*
X561714Y671333D01*
Y672166D01*
X562547Y672999D01*
X561714Y673832D01*
Y674665D01*
X562547Y672999D02*
X564214D01*
X566713Y674665D02*
X567546Y675498D01*
X569212D01*
X570045Y674665D01*
Y673832D01*
X569212Y672999D01*
X570045Y672166D01*
Y671333D01*
X569212Y670500D01*
X567546D01*
X566713Y671333D01*
Y672166D01*
X567546Y672999D01*
X566713Y673832D01*
Y674665D01*
X567546Y672999D02*
X569212D01*
X571711Y675498D02*
Y670500D01*
X574210D01*
X575043Y671333D01*
Y674665D01*
X574210Y675498D01*
X571711D01*
X580042D02*
X578376Y674665D01*
X576710Y672999D01*
Y671333D01*
X577543Y670500D01*
X579209D01*
X580042Y671333D01*
Y672166D01*
X579209Y672999D01*
X576710D01*
X581708Y674665D02*
X582541Y675498D01*
X584207D01*
X585040Y674665D01*
Y673832D01*
X584207Y672999D01*
X585040Y672166D01*
Y671333D01*
X584207Y670500D01*
X582541D01*
X581708Y671333D01*
Y672166D01*
X582541Y672999D01*
X581708Y673832D01*
Y674665D01*
X582541Y672999D02*
X584207D01*
X586706Y670500D02*
Y675498D01*
X589206D01*
X590038Y674665D01*
Y672999D01*
X589206Y672166D01*
X586706D01*
X450500Y663000D02*
X452166D01*
X451333D01*
Y667998D01*
X450500Y667165D01*
X454665Y663000D02*
X457164D01*
X457998Y663833D01*
X457164Y664666D01*
X455498D01*
X454665Y665499D01*
X455498Y666332D01*
X457998D01*
X460497Y667165D02*
Y666332D01*
X459664D01*
X461330D01*
X460497D01*
Y663833D01*
X461330Y663000D01*
X468827D02*
Y667998D01*
X470494Y666332D01*
X472160Y667998D01*
Y663000D01*
X474659Y667165D02*
Y666332D01*
X473826D01*
X475492D01*
X474659D01*
Y663833D01*
X475492Y663000D01*
X479657Y661334D02*
X480490D01*
X481323Y662167D01*
Y666332D01*
X478824D01*
X477991Y665499D01*
Y663833D01*
X478824Y663000D01*
X481323D01*
X487988D02*
Y667998D01*
X490487D01*
X491320Y667165D01*
Y665499D01*
X490487Y664666D01*
X487988D01*
X493819Y666332D02*
X495485D01*
X496318Y665499D01*
Y663000D01*
X493819D01*
X492986Y663833D01*
X493819Y664666D01*
X496318D01*
X501317Y667998D02*
Y663000D01*
X498818D01*
X497985Y663833D01*
Y665499D01*
X498818Y666332D01*
X501317D01*
X502983Y663000D02*
X505482D01*
X506315Y663833D01*
X505482Y664666D01*
X503816D01*
X502983Y665499D01*
X503816Y666332D01*
X506315D01*
X508814Y667165D02*
Y666332D01*
X507981D01*
X509648D01*
X508814D01*
Y663833D01*
X509648Y663000D01*
X512147Y666332D02*
Y663833D01*
X512980Y663000D01*
X515479D01*
Y662167D01*
X514646Y661334D01*
X513813D01*
X515479Y663000D02*
Y666332D01*
X517145Y663000D02*
X518811D01*
X517978D01*
Y667998D01*
X517145D01*
X523810Y663000D02*
X522144D01*
X521310Y663833D01*
Y665499D01*
X522144Y666332D01*
X523810D01*
X524643Y665499D01*
Y664666D01*
X521310D01*
X526309Y666332D02*
X527142D01*
Y665499D01*
X526309D01*
Y666332D01*
Y663833D02*
X527142D01*
Y663000D01*
X526309D01*
Y663833D01*
X535472Y663000D02*
Y667998D01*
X537972D01*
X538805Y667165D01*
Y665499D01*
X537972Y664666D01*
X535472D01*
X537139D02*
X538805Y663000D01*
X540471Y667998D02*
X543803Y663000D01*
Y667998D02*
X540471Y663000D01*
X545469D02*
X547135D01*
X546302D01*
Y667998D01*
X545469Y667165D01*
X549635Y663000D02*
X551301D01*
X550468D01*
Y667998D01*
X549635Y667165D01*
X553800D02*
X554633Y667998D01*
X556299D01*
X557132Y667165D01*
Y663833D01*
X556299Y663000D01*
X554633D01*
X553800Y663833D01*
Y667165D01*
X558798Y667998D02*
Y667165D01*
X560464Y665499D01*
X562130Y667165D01*
Y667998D01*
X560464Y665499D02*
Y663000D01*
X563797Y667165D02*
X564630Y667998D01*
X566296D01*
X567129Y667165D01*
Y666332D01*
X566296Y665499D01*
X567129Y664666D01*
Y663833D01*
X566296Y663000D01*
X564630D01*
X563797Y663833D01*
Y664666D01*
X564630Y665499D01*
X563797Y666332D01*
Y667165D01*
X564630Y665499D02*
X566296D01*
X568795Y667165D02*
X569628Y667998D01*
X571294D01*
X572127Y667165D01*
Y663833D01*
X571294Y663000D01*
X569628D01*
X568795Y663833D01*
Y667165D01*
X573793Y667998D02*
Y663000D01*
X576293D01*
X577126Y663833D01*
Y667165D01*
X576293Y667998D01*
X573793D01*
X582124D02*
X578792D01*
Y665499D01*
X580458Y666332D01*
X581291D01*
X582124Y665499D01*
Y663833D01*
X581291Y663000D01*
X579625D01*
X578792Y663833D01*
X583790Y667165D02*
X584623Y667998D01*
X586289D01*
X587122Y667165D01*
Y663833D01*
X586289Y663000D01*
X584623D01*
X583790Y663833D01*
Y667165D01*
X588789Y663000D02*
Y667998D01*
X591288D01*
X592121Y667165D01*
Y665499D01*
X591288Y664666D01*
X588789D01*
X455082Y655500D02*
X451750D01*
X455082Y658832D01*
Y659665D01*
X454249Y660498D01*
X452583D01*
X451750Y659665D01*
X456748Y655500D02*
Y658832D01*
X459248D01*
X460081Y657999D01*
Y655500D01*
X465079Y660498D02*
Y655500D01*
X462580D01*
X461747Y656333D01*
Y657999D01*
X462580Y658832D01*
X465079D01*
X471743Y655500D02*
Y660498D01*
X473410Y658832D01*
X475076Y660498D01*
Y655500D01*
X477575Y659665D02*
Y658832D01*
X476742D01*
X478408D01*
X477575D01*
Y656333D01*
X478408Y655500D01*
X482573Y653834D02*
X483406D01*
X484239Y654667D01*
Y658832D01*
X481740D01*
X480907Y657999D01*
Y656333D01*
X481740Y655500D01*
X484239D01*
X490904D02*
Y660498D01*
X493403D01*
X494236Y659665D01*
Y657999D01*
X493403Y657166D01*
X490904D01*
X496735Y658832D02*
X498402D01*
X499235Y657999D01*
Y655500D01*
X496735D01*
X495902Y656333D01*
X496735Y657166D01*
X499235D01*
X504233Y660498D02*
Y655500D01*
X501734D01*
X500901Y656333D01*
Y657999D01*
X501734Y658832D01*
X504233D01*
X505899Y655500D02*
X508398D01*
X509231Y656333D01*
X508398Y657166D01*
X506732D01*
X505899Y657999D01*
X506732Y658832D01*
X509231D01*
X511731Y659665D02*
Y658832D01*
X510897D01*
X512564D01*
X511731D01*
Y656333D01*
X512564Y655500D01*
X515063Y658832D02*
Y656333D01*
X515896Y655500D01*
X518395D01*
Y654667D01*
X517562Y653834D01*
X516729D01*
X518395Y655500D02*
Y658832D01*
X520061Y655500D02*
X521727D01*
X520894D01*
Y660498D01*
X520061D01*
X526726Y655500D02*
X525060D01*
X524227Y656333D01*
Y657999D01*
X525060Y658832D01*
X526726D01*
X527559Y657999D01*
Y657166D01*
X524227D01*
X529225Y658832D02*
X530058D01*
Y657999D01*
X529225D01*
Y658832D01*
Y656333D02*
X530058D01*
Y655500D01*
X529225D01*
Y656333D01*
X541721Y660498D02*
X538389D01*
Y655500D01*
X541721D01*
X538389Y657999D02*
X540055D01*
X543387Y660498D02*
X546719Y655500D01*
Y660498D02*
X543387Y655500D01*
X548385Y660498D02*
X551718D01*
Y659665D01*
X548385Y656333D01*
Y655500D01*
X553384Y659665D02*
X554217Y660498D01*
X555883D01*
X556716Y659665D01*
Y656333D01*
X555883Y655500D01*
X554217D01*
X553384Y656333D01*
Y659665D01*
X558382Y660498D02*
Y659665D01*
X560048Y657999D01*
X561714Y659665D01*
Y660498D01*
X560048Y657999D02*
Y655500D01*
X563380Y660498D02*
X566713D01*
Y659665D01*
X563380Y656333D01*
Y655500D01*
X568379Y659665D02*
X569212Y660498D01*
X570878D01*
X571711Y659665D01*
Y656333D01*
X570878Y655500D01*
X569212D01*
X568379Y656333D01*
Y659665D01*
X573377Y660498D02*
Y655500D01*
X575877D01*
X576710Y656333D01*
Y659665D01*
X575877Y660498D01*
X573377D01*
X578376D02*
X581708D01*
Y659665D01*
X578376Y656333D01*
Y655500D01*
X583374Y659665D02*
X584207Y660498D01*
X585873D01*
X586706Y659665D01*
Y656333D01*
X585873Y655500D01*
X584207D01*
X583374Y656333D01*
Y659665D01*
X588372Y655500D02*
Y660498D01*
X590872D01*
X591705Y659665D01*
Y657999D01*
X590872Y657166D01*
X588372D01*
X451750Y652165D02*
X452583Y652998D01*
X454249D01*
X455082Y652165D01*
Y651332D01*
X454249Y650499D01*
X453416D01*
X454249D01*
X455082Y649666D01*
Y648833D01*
X454249Y648000D01*
X452583D01*
X451750Y648833D01*
X456748Y651332D02*
Y648000D01*
Y649666D01*
X457581Y650499D01*
X458415Y651332D01*
X459248D01*
X465079Y652998D02*
Y648000D01*
X462580D01*
X461747Y648833D01*
Y650499D01*
X462580Y651332D01*
X465079D01*
X471743Y648000D02*
Y652998D01*
X473410Y651332D01*
X475076Y652998D01*
Y648000D01*
X477575Y652165D02*
Y651332D01*
X476742D01*
X478408D01*
X477575D01*
Y648833D01*
X478408Y648000D01*
X482573Y646334D02*
X483406D01*
X484239Y647167D01*
Y651332D01*
X481740D01*
X480907Y650499D01*
Y648833D01*
X481740Y648000D01*
X484239D01*
X490904D02*
Y652998D01*
X493403D01*
X494236Y652165D01*
Y650499D01*
X493403Y649666D01*
X490904D01*
X496735Y651332D02*
X498402D01*
X499235Y650499D01*
Y648000D01*
X496735D01*
X495902Y648833D01*
X496735Y649666D01*
X499235D01*
X504233Y652998D02*
Y648000D01*
X501734D01*
X500901Y648833D01*
Y650499D01*
X501734Y651332D01*
X504233D01*
X505899Y648000D02*
X508398D01*
X509231Y648833D01*
X508398Y649666D01*
X506732D01*
X505899Y650499D01*
X506732Y651332D01*
X509231D01*
X511731Y652165D02*
Y651332D01*
X510897D01*
X512564D01*
X511731D01*
Y648833D01*
X512564Y648000D01*
X515063Y651332D02*
Y648833D01*
X515896Y648000D01*
X518395D01*
Y647167D01*
X517562Y646334D01*
X516729D01*
X518395Y648000D02*
Y651332D01*
X520061Y648000D02*
X521727D01*
X520894D01*
Y652998D01*
X520061D01*
X526726Y648000D02*
X525060D01*
X524227Y648833D01*
Y650499D01*
X525060Y651332D01*
X526726D01*
X527559Y650499D01*
Y649666D01*
X524227D01*
X529225Y651332D02*
X530058D01*
Y650499D01*
X529225D01*
Y651332D01*
Y648833D02*
X530058D01*
Y648000D01*
X529225D01*
Y648833D01*
X541721Y652998D02*
X538389D01*
Y648000D01*
X541721D01*
X538389Y650499D02*
X540055D01*
X543387Y652998D02*
X546719Y648000D01*
Y652998D02*
X543387Y648000D01*
X548385Y652998D02*
X551718D01*
Y652165D01*
X548385Y648833D01*
Y648000D01*
X553384Y652165D02*
X554217Y652998D01*
X555883D01*
X556716Y652165D01*
Y648833D01*
X555883Y648000D01*
X554217D01*
X553384Y648833D01*
Y652165D01*
X558382Y652998D02*
Y652165D01*
X560048Y650499D01*
X561714Y652165D01*
Y652998D01*
X560048Y650499D02*
Y648000D01*
X563380Y652998D02*
X566713D01*
Y652165D01*
X563380Y648833D01*
Y648000D01*
X568379Y652165D02*
X569212Y652998D01*
X570878D01*
X571711Y652165D01*
Y648833D01*
X570878Y648000D01*
X569212D01*
X568379Y648833D01*
Y652165D01*
X573377Y652998D02*
Y648000D01*
X575877D01*
X576710Y648833D01*
Y652165D01*
X575877Y652998D01*
X573377D01*
X578376D02*
X581708D01*
Y652165D01*
X578376Y648833D01*
Y648000D01*
X583374Y652165D02*
X584207Y652998D01*
X585873D01*
X586706Y652165D01*
Y648833D01*
X585873Y648000D01*
X584207D01*
X583374Y648833D01*
Y652165D01*
X588372Y648000D02*
Y652998D01*
X590872D01*
X591705Y652165D01*
Y650499D01*
X590872Y649666D01*
X588372D01*
X450500Y645498D02*
Y640500D01*
X453832D01*
X457998D02*
X456331D01*
X455498Y641333D01*
Y642999D01*
X456331Y643832D01*
X457998D01*
X458831Y642999D01*
Y642166D01*
X455498D01*
X461330Y640500D02*
Y644665D01*
Y642999D01*
X460497D01*
X462163D01*
X461330D01*
Y644665D01*
X462163Y645498D01*
X465495Y644665D02*
Y643832D01*
X464662D01*
X466328D01*
X465495D01*
Y641333D01*
X466328Y640500D01*
X473826D02*
Y645498D01*
X475492Y643832D01*
X477158Y645498D01*
Y640500D01*
X479657Y644665D02*
Y643832D01*
X478824D01*
X480490D01*
X479657D01*
Y641333D01*
X480490Y640500D01*
X484656Y638834D02*
X485489D01*
X486322Y639667D01*
Y643832D01*
X483822D01*
X482990Y642999D01*
Y641333D01*
X483822Y640500D01*
X486322D01*
X492986D02*
Y645498D01*
X495485D01*
X496318Y644665D01*
Y642999D01*
X495485Y642166D01*
X492986D01*
X498818Y643832D02*
X500484D01*
X501317Y642999D01*
Y640500D01*
X498818D01*
X497985Y641333D01*
X498818Y642166D01*
X501317D01*
X506315Y645498D02*
Y640500D01*
X503816D01*
X502983Y641333D01*
Y642999D01*
X503816Y643832D01*
X506315D01*
X507981Y640500D02*
X510481D01*
X511314Y641333D01*
X510481Y642166D01*
X508814D01*
X507981Y642999D01*
X508814Y643832D01*
X511314D01*
X513813Y644665D02*
Y643832D01*
X512980D01*
X514646D01*
X513813D01*
Y641333D01*
X514646Y640500D01*
X517145Y643832D02*
Y641333D01*
X517978Y640500D01*
X520477D01*
Y639667D01*
X519644Y638834D01*
X518811D01*
X520477Y640500D02*
Y643832D01*
X522144Y640500D02*
X523810D01*
X522976D01*
Y645498D01*
X522144D01*
X528808Y640500D02*
X527142D01*
X526309Y641333D01*
Y642999D01*
X527142Y643832D01*
X528808D01*
X529641Y642999D01*
Y642166D01*
X526309D01*
X531307Y643832D02*
X532140D01*
Y642999D01*
X531307D01*
Y643832D01*
Y641333D02*
X532140D01*
Y640500D01*
X531307D01*
Y641333D01*
X543803Y645498D02*
X540471D01*
Y640500D01*
X543803D01*
X540471Y642999D02*
X542137D01*
X545469Y645498D02*
X548802Y640500D01*
Y645498D02*
X545469Y640500D01*
X553800Y645498D02*
X552134Y644665D01*
X550468Y642999D01*
Y641333D01*
X551301Y640500D01*
X552967D01*
X553800Y641333D01*
Y642166D01*
X552967Y642999D01*
X550468D01*
X555466Y644665D02*
X556299Y645498D01*
X557965D01*
X558798Y644665D01*
Y641333D01*
X557965Y640500D01*
X556299D01*
X555466Y641333D01*
Y644665D01*
X560464Y645498D02*
Y644665D01*
X562130Y642999D01*
X563797Y644665D01*
Y645498D01*
X562130Y642999D02*
Y640500D01*
X568795Y645498D02*
X567129Y644665D01*
X565463Y642999D01*
Y641333D01*
X566296Y640500D01*
X567962D01*
X568795Y641333D01*
Y642166D01*
X567962Y642999D01*
X565463D01*
X570461Y644665D02*
X571294Y645498D01*
X572960D01*
X573793Y644665D01*
Y641333D01*
X572960Y640500D01*
X571294D01*
X570461Y641333D01*
Y644665D01*
X575459Y645498D02*
Y640500D01*
X577959D01*
X578792Y641333D01*
Y644665D01*
X577959Y645498D01*
X575459D01*
X580458Y644665D02*
X581291Y645498D01*
X582957D01*
X583790Y644665D01*
Y643832D01*
X582957Y642999D01*
X582124D01*
X582957D01*
X583790Y642166D01*
Y641333D01*
X582957Y640500D01*
X581291D01*
X580458Y641333D01*
X585456Y644665D02*
X586289Y645498D01*
X587956D01*
X588789Y644665D01*
Y641333D01*
X587956Y640500D01*
X586289D01*
X585456Y641333D01*
Y644665D01*
X590455Y640500D02*
Y645498D01*
X592954D01*
X593787Y644665D01*
Y642999D01*
X592954Y642166D01*
X590455D01*
X449250Y633000D02*
Y637998D01*
X451749D01*
X452582Y637165D01*
Y635499D01*
X451749Y634666D01*
X449250D01*
X450916D02*
X452582Y633000D01*
X454248D02*
X455914D01*
X455081D01*
Y636332D01*
X454248D01*
X460080Y631334D02*
X460913D01*
X461746Y632167D01*
Y636332D01*
X459247D01*
X458414Y635499D01*
Y633833D01*
X459247Y633000D01*
X461746D01*
X463412Y637998D02*
Y633000D01*
Y635499D01*
X464245Y636332D01*
X465911D01*
X466744Y635499D01*
Y633000D01*
X469243Y637165D02*
Y636332D01*
X468410D01*
X470077D01*
X469243D01*
Y633833D01*
X470077Y633000D01*
X477574D02*
Y637998D01*
X479240Y636332D01*
X480906Y637998D01*
Y633000D01*
X483406Y637165D02*
Y636332D01*
X482573D01*
X484239D01*
X483406D01*
Y633833D01*
X484239Y633000D01*
X488404Y631334D02*
X489237D01*
X490070Y632167D01*
Y636332D01*
X487571D01*
X486738Y635499D01*
Y633833D01*
X487571Y633000D01*
X490070D01*
X496735D02*
Y637998D01*
X499234D01*
X500067Y637165D01*
Y635499D01*
X499234Y634666D01*
X496735D01*
X502566Y636332D02*
X504232D01*
X505065Y635499D01*
Y633000D01*
X502566D01*
X501733Y633833D01*
X502566Y634666D01*
X505065D01*
X510064Y637998D02*
Y633000D01*
X507564D01*
X506731Y633833D01*
Y635499D01*
X507564Y636332D01*
X510064D01*
X511730Y633000D02*
X514229D01*
X515062Y633833D01*
X514229Y634666D01*
X512563D01*
X511730Y635499D01*
X512563Y636332D01*
X515062D01*
X517561Y637165D02*
Y636332D01*
X516728D01*
X518394D01*
X517561D01*
Y633833D01*
X518394Y633000D01*
X520893Y636332D02*
Y633833D01*
X521727Y633000D01*
X524226D01*
Y632167D01*
X523393Y631334D01*
X522560D01*
X524226Y633000D02*
Y636332D01*
X525892Y633000D02*
X527558D01*
X526725D01*
Y637998D01*
X525892D01*
X532556Y633000D02*
X530890D01*
X530057Y633833D01*
Y635499D01*
X530890Y636332D01*
X532556D01*
X533389Y635499D01*
Y634666D01*
X530057D01*
X535055Y636332D02*
X535889D01*
Y635499D01*
X535055D01*
Y636332D01*
Y633833D02*
X535889D01*
Y633000D01*
X535055D01*
Y633833D01*
X547551Y637998D02*
X544219D01*
Y633000D01*
X547551D01*
X544219Y635499D02*
X545885D01*
X549218Y637998D02*
X552550Y633000D01*
Y637998D02*
X549218Y633000D01*
X557548Y637998D02*
X555882Y637165D01*
X554216Y635499D01*
Y633833D01*
X555049Y633000D01*
X556715D01*
X557548Y633833D01*
Y634666D01*
X556715Y635499D01*
X554216D01*
X559214Y637165D02*
X560047Y637998D01*
X561714D01*
X562547Y637165D01*
Y633833D01*
X561714Y633000D01*
X560047D01*
X559214Y633833D01*
Y637165D01*
X564213Y637998D02*
Y637165D01*
X565879Y635499D01*
X567545Y637165D01*
Y637998D01*
X565879Y635499D02*
Y633000D01*
X572543Y637998D02*
X570877Y637165D01*
X569211Y635499D01*
Y633833D01*
X570044Y633000D01*
X571710D01*
X572543Y633833D01*
Y634666D01*
X571710Y635499D01*
X569211D01*
X574209Y637165D02*
X575043Y637998D01*
X576709D01*
X577542Y637165D01*
Y633833D01*
X576709Y633000D01*
X575043D01*
X574209Y633833D01*
Y637165D01*
X579208Y637998D02*
Y633000D01*
X581707D01*
X582540Y633833D01*
Y637165D01*
X581707Y637998D01*
X579208D01*
X584206Y637165D02*
X585039Y637998D01*
X586705D01*
X587538Y637165D01*
Y636332D01*
X586705Y635499D01*
X585872D01*
X586705D01*
X587538Y634666D01*
Y633833D01*
X586705Y633000D01*
X585039D01*
X584206Y633833D01*
X589205Y637165D02*
X590038Y637998D01*
X591704D01*
X592537Y637165D01*
Y633833D01*
X591704Y633000D01*
X590038D01*
X589205Y633833D01*
Y637165D01*
X594203Y633000D02*
Y637998D01*
X596702D01*
X597535Y637165D01*
Y635499D01*
X596702Y634666D01*
X594203D01*
X454250Y625500D02*
Y628832D01*
X455916Y630498D01*
X457582Y628832D01*
Y625500D01*
Y627999D01*
X454250D01*
X459248Y625500D02*
X460915D01*
X460081D01*
Y630498D01*
X459248D01*
X464247Y629665D02*
Y628832D01*
X463414D01*
X465080D01*
X464247D01*
Y626333D01*
X465080Y625500D01*
X472577D02*
Y630498D01*
X475077D01*
X475910Y629665D01*
Y627999D01*
X475077Y627166D01*
X472577D01*
X478409Y628832D02*
X480075D01*
X480908Y627999D01*
Y625500D01*
X478409D01*
X477576Y626333D01*
X478409Y627166D01*
X480908D01*
X485906Y630498D02*
Y625500D01*
X483407D01*
X482574Y626333D01*
Y627999D01*
X483407Y628832D01*
X485906D01*
X487572Y625500D02*
X490072D01*
X490905Y626333D01*
X490072Y627166D01*
X488406D01*
X487572Y627999D01*
X488406Y628832D01*
X490905D01*
X493404Y629665D02*
Y628832D01*
X492571D01*
X494237D01*
X493404D01*
Y626333D01*
X494237Y625500D01*
X496736Y628832D02*
Y626333D01*
X497569Y625500D01*
X500069D01*
Y624667D01*
X499235Y623834D01*
X498402D01*
X500069Y625500D02*
Y628832D01*
X501735Y625500D02*
X503401D01*
X502568D01*
Y630498D01*
X501735D01*
X508399Y625500D02*
X506733D01*
X505900Y626333D01*
Y627999D01*
X506733Y628832D01*
X508399D01*
X509232Y627999D01*
Y627166D01*
X505900D01*
X515897Y625500D02*
X517563D01*
X516730D01*
Y630498D01*
X515897Y629665D01*
X520062Y628832D02*
X520895D01*
Y627999D01*
X520062D01*
Y628832D01*
Y626333D02*
X520895D01*
Y625500D01*
X520062D01*
Y626333D01*
X531725Y630498D02*
X530059D01*
X529226Y629665D01*
Y626333D01*
X530059Y625500D01*
X531725D01*
X532558Y626333D01*
Y629665D01*
X531725Y630498D01*
X534224D02*
X537556Y625500D01*
Y630498D02*
X534224Y625500D01*
X542555Y630498D02*
X540889Y629665D01*
X539222Y627999D01*
Y626333D01*
X540056Y625500D01*
X541722D01*
X542555Y626333D01*
Y627166D01*
X541722Y627999D01*
X539222D01*
X544221Y629665D02*
X545054Y630498D01*
X546720D01*
X547553Y629665D01*
Y626333D01*
X546720Y625500D01*
X545054D01*
X544221Y626333D01*
Y629665D01*
X549219Y630498D02*
Y629665D01*
X550885Y627999D01*
X552552Y629665D01*
Y630498D01*
X550885Y627999D02*
Y625500D01*
X554218Y626333D02*
X555051Y625500D01*
X556717D01*
X557550Y626333D01*
Y629665D01*
X556717Y630498D01*
X555051D01*
X554218Y629665D01*
Y628832D01*
X555051Y627999D01*
X557550D01*
X559216Y629665D02*
X560049Y630498D01*
X561715D01*
X562548Y629665D01*
Y626333D01*
X561715Y625500D01*
X560049D01*
X559216Y626333D01*
Y629665D01*
X564214Y630498D02*
Y625500D01*
X566714D01*
X567547Y626333D01*
Y629665D01*
X566714Y630498D01*
X564214D01*
X569213Y629665D02*
X570046Y630498D01*
X571712D01*
X572545Y629665D01*
Y628832D01*
X571712Y627999D01*
X570879D01*
X571712D01*
X572545Y627166D01*
Y626333D01*
X571712Y625500D01*
X570046D01*
X569213Y626333D01*
X574211Y629665D02*
X575044Y630498D01*
X576710D01*
X577543Y629665D01*
Y626333D01*
X576710Y625500D01*
X575044D01*
X574211Y626333D01*
Y629665D01*
X579210Y625500D02*
Y630498D01*
X581709D01*
X582542Y629665D01*
Y627999D01*
X581709Y627166D01*
X579210D01*
X454250Y618000D02*
Y621332D01*
X455916Y622998D01*
X457582Y621332D01*
Y618000D01*
Y620499D01*
X454250D01*
X459248Y618000D02*
X460915D01*
X460081D01*
Y622998D01*
X459248D01*
X464247Y622165D02*
Y621332D01*
X463414D01*
X465080D01*
X464247D01*
Y618833D01*
X465080Y618000D01*
X472577D02*
Y622998D01*
X475077D01*
X475910Y622165D01*
Y620499D01*
X475077Y619666D01*
X472577D01*
X478409Y621332D02*
X480075D01*
X480908Y620499D01*
Y618000D01*
X478409D01*
X477576Y618833D01*
X478409Y619666D01*
X480908D01*
X485906Y622998D02*
Y618000D01*
X483407D01*
X482574Y618833D01*
Y620499D01*
X483407Y621332D01*
X485906D01*
X487572Y618000D02*
X490072D01*
X490905Y618833D01*
X490072Y619666D01*
X488406D01*
X487572Y620499D01*
X488406Y621332D01*
X490905D01*
X493404Y622165D02*
Y621332D01*
X492571D01*
X494237D01*
X493404D01*
Y618833D01*
X494237Y618000D01*
X496736Y621332D02*
Y618833D01*
X497569Y618000D01*
X500069D01*
Y617167D01*
X499235Y616334D01*
X498402D01*
X500069Y618000D02*
Y621332D01*
X501735Y618000D02*
X503401D01*
X502568D01*
Y622998D01*
X501735D01*
X508399Y618000D02*
X506733D01*
X505900Y618833D01*
Y620499D01*
X506733Y621332D01*
X508399D01*
X509232Y620499D01*
Y619666D01*
X505900D01*
X519229Y618000D02*
X515897D01*
X519229Y621332D01*
Y622165D01*
X518396Y622998D01*
X516730D01*
X515897Y622165D01*
X520895Y621332D02*
X521728D01*
Y620499D01*
X520895D01*
Y621332D01*
Y618833D02*
X521728D01*
Y618000D01*
X520895D01*
Y618833D01*
X532558Y622998D02*
X530892D01*
X530059Y622165D01*
Y618833D01*
X530892Y618000D01*
X532558D01*
X533391Y618833D01*
Y622165D01*
X532558Y622998D01*
X535057D02*
X538389Y618000D01*
Y622998D02*
X535057Y618000D01*
X540056Y618833D02*
X540889Y618000D01*
X542555D01*
X543388Y618833D01*
Y622165D01*
X542555Y622998D01*
X540889D01*
X540056Y622165D01*
Y621332D01*
X540889Y620499D01*
X543388D01*
X545054Y622165D02*
X545887Y622998D01*
X547553D01*
X548386Y622165D01*
Y618833D01*
X547553Y618000D01*
X545887D01*
X545054Y618833D01*
Y622165D01*
X550052Y622998D02*
Y622165D01*
X551718Y620499D01*
X553385Y622165D01*
Y622998D01*
X551718Y620499D02*
Y618000D01*
X558383Y622998D02*
X556717Y622165D01*
X555051Y620499D01*
Y618833D01*
X555884Y618000D01*
X557550D01*
X558383Y618833D01*
Y619666D01*
X557550Y620499D01*
X555051D01*
X560049Y622165D02*
X560882Y622998D01*
X562548D01*
X563381Y622165D01*
Y618833D01*
X562548Y618000D01*
X560882D01*
X560049Y618833D01*
Y622165D01*
X565047Y622998D02*
Y618000D01*
X567547D01*
X568380Y618833D01*
Y622165D01*
X567547Y622998D01*
X565047D01*
X570046Y622165D02*
X570879Y622998D01*
X572545D01*
X573378Y622165D01*
Y621332D01*
X572545Y620499D01*
X571712D01*
X572545D01*
X573378Y619666D01*
Y618833D01*
X572545Y618000D01*
X570879D01*
X570046Y618833D01*
X575044Y622165D02*
X575877Y622998D01*
X577543D01*
X578376Y622165D01*
Y618833D01*
X577543Y618000D01*
X575877D01*
X575044Y618833D01*
Y622165D01*
X580043Y618000D02*
Y622998D01*
X582542D01*
X583375Y622165D01*
Y620499D01*
X582542Y619666D01*
X580043D01*
D137*
X477213Y433000D02*
Y450583D01*
X492370Y433000D02*
Y450583D01*
X477213Y449083D02*
X492370D01*
X477213D02*
X478213Y449583D01*
X477213Y449083D02*
X478213Y448583D01*
Y449583D01*
X491370D02*
X492370Y449083D01*
X491370Y448583D02*
X492370Y449083D01*
X491370Y448583D02*
Y449583D01*
X477213Y433000D02*
Y440583D01*
X478787Y433000D02*
Y440583D01*
X472213Y439083D02*
X477213D01*
X478787D02*
X483787D01*
X476213Y439583D02*
X477213Y439083D01*
X476213Y438583D02*
X477213Y439083D01*
X476213Y438583D02*
Y439583D01*
X478787Y439083D02*
X479787Y439583D01*
X478787Y439083D02*
X479787Y438583D01*
Y439583D01*
X492370Y434083D02*
X503870D01*
X492370Y431917D02*
X503870D01*
X502370Y434083D02*
Y439083D01*
Y426917D02*
Y431917D01*
X501870Y435083D02*
X502370Y434083D01*
X502870Y435083D01*
X501870D02*
X502870D01*
X501870Y430917D02*
X502370Y431917D01*
X502870Y430917D01*
X501870D02*
X502870D01*
X484791Y435658D02*
X511902D01*
X484791Y430342D02*
X511902D01*
X510402Y435658D02*
Y440658D01*
Y425343D02*
Y430342D01*
X509902Y436657D02*
X510402Y435658D01*
X510902Y436657D01*
X509902D02*
X510902D01*
X509902Y429343D02*
X510402Y430342D01*
X510902Y429343D01*
X509902D02*
X510902D01*
X479181Y418843D02*
Y433000D01*
X490402Y418843D02*
Y433000D01*
X474181Y420342D02*
X479181D01*
X490402D02*
X495402D01*
X478181Y420843D02*
X479181Y420342D01*
X478181Y419842D02*
X479181Y420342D01*
X478181Y419842D02*
Y420843D01*
X490402Y420342D02*
X491402Y420843D01*
X490402Y420342D02*
X491402Y419842D01*
Y420843D01*
X546470Y426831D02*
X577497D01*
X546470Y443169D02*
X577497D01*
X562159Y455858D02*
Y456858D01*
X561159Y456358D02*
X562159Y455858D01*
X561159Y456358D02*
X562159Y456858D01*
X576497Y455858D02*
Y456858D01*
Y455858D02*
X577497Y456358D01*
X576497Y456858D02*
X577497Y456358D01*
X561159D02*
X577497D01*
X561159Y426831D02*
Y457858D01*
X577497Y426831D02*
Y457858D01*
X560848Y408142D02*
Y409142D01*
Y408142D02*
X561848Y408642D01*
X560848Y409142D02*
X561848Y408642D01*
X577808Y408142D02*
Y409142D01*
X576808Y408642D02*
X577808Y408142D01*
X576808Y408642D02*
X577808Y409142D01*
X556848Y408642D02*
X561848D01*
X576808D02*
X581808D01*
X561848Y407142D02*
Y431161D01*
X576808Y407142D02*
Y431161D01*
X595186Y426520D02*
X596186D01*
X595186D02*
X595686Y427520D01*
X596186Y426520D01*
X595186Y443480D02*
X596186D01*
X595186D02*
X595686Y442480D01*
X596186Y443480D01*
X595686Y422520D02*
Y427520D01*
Y442480D02*
Y447480D01*
X573167Y427520D02*
X597186D01*
X573167Y442480D02*
X597186D01*
X569607Y415642D02*
Y416642D01*
Y415642D02*
X570608Y416142D01*
X569607Y416642D02*
X570608Y416142D01*
X574166Y415642D02*
Y416642D01*
X573167Y416142D02*
X574166Y415642D01*
X573167Y416142D02*
X574166Y416642D01*
X565608Y416142D02*
X570608D01*
X573167D02*
X578166D01*
X570608Y414642D02*
Y427520D01*
X573167Y414642D02*
Y427520D01*
X273484Y327750D02*
X298484D01*
X270000Y329984D02*
X298484D01*
X273484Y327750D02*
X298484D01*
X276969Y329984D02*
X298484D01*
X269984Y334250D02*
Y371984D01*
X276984Y334250D02*
Y371984D01*
X273484Y327750D02*
Y376984D01*
X276984Y334250D02*
Y376984D01*
X269000Y310750D02*
Y311750D01*
Y310750D02*
X270000Y311250D01*
X269000Y311750D02*
X270000Y311250D01*
X277968Y310750D02*
Y311750D01*
X276968Y311250D02*
X277968Y310750D01*
X276968Y311250D02*
X277968Y311750D01*
X265000Y311250D02*
X270000D01*
X276968D02*
X281968D01*
X270000Y309750D02*
Y322500D01*
X276968Y309750D02*
Y322500D01*
X276984Y321250D02*
X321469D01*
X276984Y334250D02*
X321469D01*
X286969Y317000D02*
X287969D01*
X286969D02*
X287469Y318000D01*
X287969Y317000D01*
X286969Y323500D02*
X287969D01*
X286969D02*
X287469Y322500D01*
X287969Y323500D01*
X287469Y313000D02*
Y318000D01*
Y322500D02*
Y327500D01*
X276968Y318000D02*
X288969D01*
X276968Y322500D02*
X288969D01*
X91829Y402843D02*
X115215D01*
X91829Y393000D02*
X115215D01*
X113715Y402843D02*
Y407842D01*
Y388000D02*
Y393000D01*
Y402843D02*
X114215Y403842D01*
X113215D02*
X113715Y402843D01*
X113215Y403842D02*
X114215D01*
X113715Y393000D02*
X114215Y392000D01*
X113215D02*
X113715Y393000D01*
X113215Y392000D02*
X114215D01*
X105215Y412489D02*
X147715D01*
X105215Y383389D02*
X147715D01*
X146215D02*
Y412489D01*
X146715Y411489D01*
X145715D02*
X146215Y412489D01*
X145715Y411489D02*
X146715D01*
X146215Y383389D02*
X146715Y384389D01*
X145715D02*
X146215Y383389D01*
X145715Y384389D02*
X146715D01*
X91829Y371889D02*
Y393000D01*
Y371889D02*
Y393000D01*
Y373389D02*
X96829D01*
X86829D02*
X91829D01*
X92829Y373889D01*
X91829Y373389D02*
X92829Y372889D01*
Y373889D01*
X90829D02*
X91829Y373389D01*
X90829Y372889D02*
X91829Y373389D01*
X90829Y372889D02*
Y373889D01*
X105215Y412489D02*
Y454989D01*
X91829Y397939D02*
Y454989D01*
X105215Y453489D02*
X110215D01*
X86829D02*
X91829D01*
X105215D02*
X106215Y453989D01*
X105215Y453489D02*
X106215Y452989D01*
Y453989D01*
X90829D02*
X91829Y453489D01*
X90829Y452989D02*
X91829Y453489D01*
X90829Y452989D02*
Y453989D01*
X105215Y412489D02*
Y449989D01*
X82615Y412489D02*
Y449989D01*
Y448489D02*
X105215D01*
X104215Y448989D02*
X105215Y448489D01*
X104215Y447989D02*
X105215Y448489D01*
X104215Y447989D02*
Y448989D01*
X82615Y448489D02*
X83615Y448989D01*
X82615Y448489D02*
X83615Y447989D01*
Y448989D01*
X467000Y559500D02*
Y576500D01*
X520000Y559500D02*
Y576500D01*
X467000Y575000D02*
X520000D01*
X467000D02*
X468000Y575500D01*
X467000Y575000D02*
X468000Y574500D01*
Y575500D01*
X519000D02*
X520000Y575000D01*
X519000Y574500D02*
X520000Y575000D01*
X519000Y574500D02*
Y575500D01*
X454250Y566500D02*
Y609000D01*
X532750Y566500D02*
Y609000D01*
X454250Y607500D02*
X532750D01*
X454250D02*
X455250Y608000D01*
X454250Y607500D02*
X455250Y607000D01*
Y608000D01*
X531750D02*
X532750Y607500D01*
X531750Y607000D02*
X532750Y607500D01*
X531750Y607000D02*
Y608000D01*
X467000Y559500D02*
X544250D01*
X467000Y546500D02*
X544250D01*
X542750Y559500D02*
Y564500D01*
Y541500D02*
Y546500D01*
X542250Y560500D02*
X542750Y559500D01*
X543250Y560500D01*
X542250D02*
X543250D01*
X542250Y545500D02*
X542750Y546500D01*
X543250Y545500D01*
X542250D02*
X543250D01*
X416750Y566500D02*
X454250D01*
X416750Y553000D02*
X493500D01*
X418250Y566500D02*
Y571500D01*
Y548000D02*
Y553000D01*
X417750Y567500D02*
X418250Y566500D01*
X418750Y567500D01*
X417750D02*
X418750D01*
X417750Y552000D02*
X418250Y553000D01*
X418750Y552000D01*
X417750D02*
X418750D01*
X421750Y566500D02*
X454250D01*
X421750Y539500D02*
X454250D01*
X423250D02*
Y566500D01*
X422750Y565500D02*
X423250Y566500D01*
X423750Y565500D01*
X422750D02*
X423750D01*
X422750Y540500D02*
X423250Y539500D01*
X423750Y540500D01*
X422750D02*
X423750D01*
X478598Y428158D02*
Y429157D01*
X479598Y428657D01*
X478598Y428158D02*
X479598Y428657D01*
X491819Y428158D02*
Y429157D01*
X490819Y428657D02*
X491819Y429157D01*
X490819Y428657D02*
X491819Y428158D01*
X474598Y428657D02*
X479598D01*
X490819D02*
X495819D01*
X479598Y416000D02*
Y430158D01*
X490819Y416000D02*
Y430158D01*
X459098Y419658D02*
X460098D01*
X459098D02*
X459598Y418657D01*
X460098Y419658D01*
X459098Y412343D02*
X460098D01*
X459098D02*
X459598Y413343D01*
X460098Y412343D01*
X459598Y418657D02*
Y423658D01*
Y408343D02*
Y413343D01*
X458098Y418657D02*
X485209D01*
X458098Y413343D02*
X485209D01*
X467130Y418083D02*
X468130D01*
X467130D02*
X467630Y417083D01*
X468130Y418083D01*
X467130Y413917D02*
X468130D01*
X467130D02*
X467630Y414917D01*
X468130Y413917D01*
X467630Y417083D02*
Y422083D01*
Y409917D02*
Y414917D01*
X466130Y417083D02*
X477630D01*
X466130Y414917D02*
X477630D01*
X490213Y409417D02*
Y410417D01*
X491213Y409917D01*
X490213Y409417D02*
X491213Y409917D01*
X493787Y409417D02*
Y410417D01*
X492787Y409917D02*
X493787Y410417D01*
X492787Y409917D02*
X493787Y409417D01*
X486213Y409917D02*
X491213D01*
X492787D02*
X497787D01*
X491213Y408417D02*
Y416000D01*
X492787Y408417D02*
Y416000D01*
X478630Y399417D02*
Y400417D01*
X477630Y399917D02*
X478630Y400417D01*
X477630Y399917D02*
X478630Y399417D01*
X491787D02*
Y400417D01*
X492787Y399917D01*
X491787Y399417D02*
X492787Y399917D01*
X477630D02*
X492787D01*
X477630Y398417D02*
Y416000D01*
X492787Y398417D02*
Y416000D01*
X95063Y327766D02*
X120063D01*
X91579Y330000D02*
X120063D01*
X95063Y327766D02*
X120063D01*
X98548Y330000D02*
X120063D01*
X91563Y334266D02*
Y372000D01*
X98563Y334266D02*
Y372000D01*
X95063Y327766D02*
Y377000D01*
X98563Y334266D02*
Y377000D01*
X90579Y310766D02*
Y311766D01*
Y310766D02*
X91579Y311266D01*
X90579Y311766D02*
X91579Y311266D01*
X99547Y310766D02*
Y311766D01*
X98548Y311266D02*
X99547Y310766D01*
X98548Y311266D02*
X99547Y311766D01*
X86579Y311266D02*
X91579D01*
X98548D02*
X103548D01*
X91579Y309766D02*
Y322516D01*
X98548Y309766D02*
Y322516D01*
X98563Y321266D02*
X143048D01*
X98563Y334266D02*
X143048D01*
X108548Y317016D02*
X109548D01*
X108548D02*
X109048Y318016D01*
X109548Y317016D01*
X108548Y323516D02*
X109548D01*
X108548D02*
X109048Y322516D01*
X109548Y323516D01*
X109048Y313016D02*
Y318016D01*
Y322516D02*
Y327516D01*
X98548Y318016D02*
X110548D01*
X98548Y322516D02*
X110548D01*
X144969D02*
X156969D01*
X144969Y318016D02*
X156969D01*
X155469Y322516D02*
Y327516D01*
Y313016D02*
Y318016D01*
Y322516D02*
X155969Y323516D01*
X154969D02*
X155469Y322516D01*
X154969Y323516D02*
X155969D01*
X155469Y318016D02*
X155969Y317016D01*
X154969D02*
X155469Y318016D01*
X154969Y317016D02*
X155969D01*
X144984Y334266D02*
X189469D01*
X144984Y321266D02*
X189469D01*
X144969Y309766D02*
Y322516D01*
X138000Y309766D02*
Y322516D01*
X144969Y311266D02*
X149969D01*
X133000D02*
X138000D01*
X144969D02*
X145969Y311766D01*
X144969Y311266D02*
X145969Y310766D01*
Y311766D01*
X137000D02*
X138000Y311266D01*
X137000Y310766D02*
X138000Y311266D01*
X137000Y310766D02*
Y311766D01*
X144984Y334266D02*
Y377000D01*
X141484Y327766D02*
Y377000D01*
X144984Y334266D02*
Y372000D01*
X137984Y334266D02*
Y372000D01*
X144969Y330000D02*
X166484D01*
X141484Y327766D02*
X166484D01*
X138000Y330000D02*
X166484D01*
X141484Y327766D02*
X166484D01*
X204516Y327266D02*
X229516D01*
X201032Y329500D02*
X229516D01*
X204516Y327266D02*
X229516D01*
X208000Y329500D02*
X229516D01*
X201016Y333766D02*
Y371500D01*
X208016Y333766D02*
Y371500D01*
X204516Y327266D02*
Y376500D01*
X208016Y333766D02*
Y376500D01*
X200031Y310266D02*
Y311266D01*
Y310266D02*
X201031Y310766D01*
X200031Y311266D02*
X201031Y310766D01*
X209000Y310266D02*
Y311266D01*
X208000Y310766D02*
X209000Y310266D01*
X208000Y310766D02*
X209000Y311266D01*
X196031Y310766D02*
X201031D01*
X208000D02*
X213000D01*
X201031Y309266D02*
Y322016D01*
X208000Y309266D02*
Y322016D01*
X208016Y320766D02*
X252500D01*
X208016Y333766D02*
X252500D01*
X218000Y316516D02*
X219000D01*
X218000D02*
X218500Y317516D01*
X219000Y316516D01*
X218000Y323016D02*
X219000D01*
X218000D02*
X218500Y322016D01*
X219000Y323016D01*
X218500Y312516D02*
Y317516D01*
Y322016D02*
Y327016D01*
X208000Y317516D02*
X220000D01*
X208000Y322016D02*
X220000D01*
X327469D02*
X339469D01*
X327469Y317516D02*
X339469D01*
X337969Y322016D02*
Y327016D01*
Y312516D02*
Y317516D01*
Y322016D02*
X338469Y323016D01*
X337469D02*
X337969Y322016D01*
X337469Y323016D02*
X338469D01*
X337969Y317516D02*
X338469Y316516D01*
X337469D02*
X337969Y317516D01*
X337469Y316516D02*
X338469D01*
X327484Y333766D02*
X371969D01*
X327484Y320766D02*
X371969D01*
X327469Y309266D02*
Y322016D01*
X320500Y309266D02*
Y322016D01*
X327469Y310766D02*
X332469D01*
X315500D02*
X320500D01*
X327469D02*
X328469Y311266D01*
X327469Y310766D02*
X328469Y310266D01*
Y311266D01*
X319500D02*
X320500Y310766D01*
X319500Y310266D02*
X320500Y310766D01*
X319500Y310266D02*
Y311266D01*
X327484Y333766D02*
Y376500D01*
X323984Y327266D02*
Y376500D01*
X327484Y333766D02*
Y371500D01*
X320484Y333766D02*
Y371500D01*
X327469Y329500D02*
X348984D01*
X323984Y327266D02*
X348984D01*
X320500Y329500D02*
X348984D01*
X323984Y327266D02*
X348984D01*
X595984Y327766D02*
X620984D01*
X592500Y330000D02*
X620984D01*
X595984Y327766D02*
X620984D01*
X599468Y330001D02*
X620984D01*
X592484Y334266D02*
Y372000D01*
X599484Y334266D02*
Y372000D01*
X595984Y327766D02*
Y377000D01*
X599484Y334266D02*
Y377000D01*
X591500Y310766D02*
Y311766D01*
Y310766D02*
X592500Y311266D01*
X591500Y311766D02*
X592500Y311266D01*
X600468Y310766D02*
Y311766D01*
X599468Y311266D02*
X600468Y310766D01*
X599468Y311266D02*
X600468Y311766D01*
X587500Y311266D02*
X592500D01*
X599468D02*
X604468D01*
X592500Y309766D02*
Y322516D01*
X599468Y309766D02*
Y322516D01*
X599484Y321266D02*
X643968D01*
X599484Y334266D02*
X643968D01*
X609468Y317016D02*
X610468D01*
X609468D02*
X609968Y318016D01*
X610468Y317016D01*
X609468Y323516D02*
X610468D01*
X609468D02*
X609968Y322516D01*
X610468Y323516D01*
X609968Y313016D02*
Y318016D01*
Y322516D02*
Y327516D01*
X599468Y318016D02*
X611468D01*
X599468Y322516D02*
X611468D01*
X629193Y324016D02*
X641193D01*
X629193Y319516D02*
X641193D01*
X639693Y324016D02*
Y329016D01*
Y314516D02*
Y319516D01*
Y324016D02*
X640193Y325016D01*
X639193D02*
X639693Y324016D01*
X639193Y325016D02*
X640193D01*
X639693Y319516D02*
X640193Y318516D01*
X639193D02*
X639693Y319516D01*
X639193Y318516D02*
X640193D01*
X629209Y335766D02*
X673693D01*
X629209Y322766D02*
X673693D01*
X629193Y311266D02*
Y324016D01*
X622224Y311266D02*
Y324016D01*
X629193Y312766D02*
X634193D01*
X617224D02*
X622224D01*
X629193D02*
X630193Y313266D01*
X629193Y312766D02*
X630193Y312266D01*
Y313266D01*
X621224D02*
X622224Y312766D01*
X621224Y312266D02*
X622224Y312766D01*
X621224Y312266D02*
Y313266D01*
X629209Y335766D02*
Y378500D01*
X625709Y329266D02*
Y378500D01*
X629209Y335766D02*
Y373500D01*
X622209Y335766D02*
Y373500D01*
X629193Y331500D02*
X650709D01*
X625709Y329266D02*
X650709D01*
X622225Y331500D02*
X650709D01*
X625709Y329266D02*
X650709D01*
X659000Y323500D02*
X671000D01*
X659000Y319000D02*
X671000D01*
X669500Y323500D02*
Y328500D01*
Y314000D02*
Y319000D01*
Y323500D02*
X670000Y324500D01*
X669000D02*
X669500Y323500D01*
X669000Y324500D02*
X670000D01*
X669500Y319000D02*
X670000Y318000D01*
X669000D02*
X669500Y319000D01*
X669000Y318000D02*
X670000D01*
X659016Y335250D02*
X703500D01*
X659016Y322250D02*
X703500D01*
X702000Y335250D02*
Y340250D01*
Y317250D02*
Y322250D01*
Y335250D02*
X702500Y336250D01*
X701500D02*
X702000Y335250D01*
X701500Y336250D02*
X702500D01*
X702000Y322250D02*
X702500Y321250D01*
X701500D02*
X702000Y322250D01*
X701500Y321250D02*
X702500D01*
X659000Y310750D02*
Y323500D01*
X652031Y310750D02*
Y323500D01*
X659000Y312250D02*
X664000D01*
X647031D02*
X652031D01*
X659000D02*
X660000Y312750D01*
X659000Y312250D02*
X660000Y311750D01*
Y312750D01*
X651031D02*
X652031Y312250D01*
X651031Y311750D02*
X652031Y312250D01*
X651031Y311750D02*
Y312750D01*
X659016Y335250D02*
Y377984D01*
X655516Y328750D02*
Y377984D01*
X659016Y376484D02*
X664016D01*
X650516D02*
X655516D01*
X659016D02*
X660016Y376984D01*
X659016Y376484D02*
X660016Y375984D01*
Y376984D01*
X654516D02*
X655516Y376484D01*
X654516Y375984D02*
X655516Y376484D01*
X654516Y375984D02*
Y376984D01*
X659016Y335250D02*
Y372984D01*
X652016Y335250D02*
Y372984D01*
X659016Y371484D02*
X664016D01*
X647016D02*
X652016D01*
X659016D02*
X660016Y371984D01*
X659016Y371484D02*
X660016Y370984D01*
Y371984D01*
X651016D02*
X652016Y371484D01*
X651016Y370984D02*
X652016Y371484D01*
X651016Y370984D02*
Y371984D01*
X659000Y330984D02*
X680516D01*
X655516Y328750D02*
X680516D01*
X679016Y330984D02*
Y335984D01*
Y323750D02*
Y328750D01*
Y330984D02*
X679516Y331984D01*
X678516D02*
X679016Y330984D01*
X678516Y331984D02*
X679516D01*
X679016Y328750D02*
X679516Y327750D01*
X678516D02*
X679016Y328750D01*
X678516Y327750D02*
X679516D01*
X652032Y330984D02*
X680516D01*
X655516Y328750D02*
X680516D01*
X679016Y330984D02*
Y335984D01*
Y323750D02*
Y328750D01*
Y330984D02*
X679516Y331984D01*
X678516D02*
X679016Y330984D01*
X678516Y331984D02*
X679516D01*
X679016Y328750D02*
X679516Y327750D01*
X678516D02*
X679016Y328750D01*
X678516Y327750D02*
X679516D01*
X459500Y639071D02*
Y656071D01*
X512500Y639071D02*
Y656071D01*
X459500Y654571D02*
X512500D01*
X459500D02*
X460500Y655071D01*
X459500Y654571D02*
X460500Y654071D01*
Y655071D01*
X511500D02*
X512500Y654571D01*
X511500Y654071D02*
X512500Y654571D01*
X511500Y654071D02*
Y655071D01*
X446750Y646071D02*
Y688571D01*
X525250Y646071D02*
Y688571D01*
X446750Y687071D02*
X525250D01*
X446750D02*
X447750Y687571D01*
X446750Y687071D02*
X447750Y686571D01*
Y687571D01*
X524250D02*
X525250Y687071D01*
X524250Y686571D02*
X525250Y687071D01*
X524250Y686571D02*
Y687571D01*
X459500Y639071D02*
X536750D01*
X459500Y626071D02*
X536750D01*
X535250Y639071D02*
Y644071D01*
Y621071D02*
Y626071D01*
X534750Y640071D02*
X535250Y639071D01*
X535750Y640071D01*
X534750D02*
X535750D01*
X534750Y625071D02*
X535250Y626071D01*
X535750Y625071D01*
X534750D02*
X535750D01*
X409250Y646071D02*
X446750D01*
X409250Y632571D02*
X486000D01*
X410750Y646071D02*
Y651071D01*
Y627571D02*
Y632571D01*
X410250Y647071D02*
X410750Y646071D01*
X411250Y647071D01*
X410250D02*
X411250D01*
X410250Y631571D02*
X410750Y632571D01*
X411250Y631571D01*
X410250D02*
X411250D01*
X414250Y646071D02*
X446750D01*
X414250Y619071D02*
X446750D01*
X415750D02*
Y646071D01*
X415250Y645071D02*
X415750Y646071D01*
X416250Y645071D01*
X415250D02*
X416250D01*
X415250Y620071D02*
X415750Y619071D01*
X416250Y620071D01*
X415250D02*
X416250D01*
X461500Y706500D02*
Y723500D01*
X514500Y706500D02*
Y723500D01*
X461500Y722000D02*
X514500D01*
X461500D02*
X462500Y722500D01*
X461500Y722000D02*
X462500Y721500D01*
Y722500D01*
X513500D02*
X514500Y722000D01*
X513500Y721500D02*
X514500Y722000D01*
X513500Y721500D02*
Y722500D01*
X448750Y713500D02*
Y756000D01*
X527250Y713500D02*
Y756000D01*
X448750Y754500D02*
X527250D01*
X448750D02*
X449750Y755000D01*
X448750Y754500D02*
X449750Y754000D01*
Y755000D01*
X526250D02*
X527250Y754500D01*
X526250Y754000D02*
X527250Y754500D01*
X526250Y754000D02*
Y755000D01*
X461500Y706500D02*
X538750D01*
X461500Y693500D02*
X538750D01*
X537250Y706500D02*
Y711500D01*
Y688500D02*
Y693500D01*
X536750Y707500D02*
X537250Y706500D01*
X537750Y707500D01*
X536750D02*
X537750D01*
X536750Y692500D02*
X537250Y693500D01*
X537750Y692500D01*
X536750D02*
X537750D01*
X411250Y713500D02*
X448750D01*
X411250Y700000D02*
X488000D01*
X412750Y713500D02*
Y718500D01*
Y695000D02*
Y700000D01*
X412250Y714500D02*
X412750Y713500D01*
X413250Y714500D01*
X412250D02*
X413250D01*
X412250Y699000D02*
X412750Y700000D01*
X413250Y699000D01*
X412250D02*
X413250D01*
X416250Y713500D02*
X448750D01*
X416250Y686500D02*
X448750D01*
X417750D02*
Y713500D01*
X417250Y712500D02*
X417750Y713500D01*
X418250Y712500D01*
X417250D02*
X418250D01*
X417250Y687500D02*
X417750Y686500D01*
X418250Y687500D01*
X417250D02*
X418250D01*
X476041Y453165D02*
X476458Y453582D01*
X477291D01*
X477707Y453165D01*
Y451499D01*
X477291Y451083D01*
X476458D01*
X476041Y451499D01*
Y453165D01*
X478541Y451083D02*
Y451499D01*
X478957D01*
Y451083D01*
X478541D01*
X480623D02*
X481456D01*
X481040D01*
Y453582D01*
X480623Y453165D01*
X484372Y453582D02*
X482706D01*
Y452332D01*
X483539Y452749D01*
X483955D01*
X484372Y452332D01*
Y451499D01*
X483955Y451083D01*
X483122D01*
X482706Y451499D01*
X486871Y451083D02*
X485205D01*
X486871Y452749D01*
Y453165D01*
X486455Y453582D01*
X485622D01*
X485205Y453165D01*
X487704Y451083D02*
X488537D01*
X488121D01*
Y452749D01*
X487704D01*
X489787Y451083D02*
Y452749D01*
X491037D01*
X491453Y452332D01*
Y451083D01*
X492286D02*
X493952Y452749D01*
X494785Y453165D02*
X495202Y453582D01*
X496035D01*
X496451Y453165D01*
Y452749D01*
X496035Y452332D01*
X495618D01*
X496035D01*
X496451Y451916D01*
Y451499D01*
X496035Y451083D01*
X495202D01*
X494785Y451499D01*
X497285Y451083D02*
Y451499D01*
X497701D01*
Y451083D01*
X497285D01*
X499367Y453165D02*
X499784Y453582D01*
X500617D01*
X501033Y453165D01*
Y452749D01*
X500617Y452332D01*
X501033Y451916D01*
Y451499D01*
X500617Y451083D01*
X499784D01*
X499367Y451499D01*
Y451916D01*
X499784Y452332D01*
X499367Y452749D01*
Y453165D01*
X499784Y452332D02*
X500617D01*
X503532Y453582D02*
X501866D01*
Y452332D01*
X502699Y452749D01*
X503116D01*
X503532Y452332D01*
Y451499D01*
X503116Y451083D01*
X502283D01*
X501866Y451499D01*
X504365Y451083D02*
Y452749D01*
X504782D01*
X505199Y452332D01*
Y451083D01*
Y452332D01*
X505615Y452749D01*
X506032Y452332D01*
Y451083D01*
X506865D02*
Y452749D01*
X507281D01*
X507698Y452332D01*
Y451083D01*
Y452332D01*
X508114Y452749D01*
X508531Y452332D01*
Y451083D01*
X469875Y443165D02*
X470292Y443582D01*
X471125D01*
X471541Y443165D01*
Y441499D01*
X471125Y441083D01*
X470292D01*
X469875Y441499D01*
Y443165D01*
X472374Y441083D02*
Y441499D01*
X472791D01*
Y441083D01*
X472374D01*
X474457Y443165D02*
X474873Y443582D01*
X475706D01*
X476123Y443165D01*
Y441499D01*
X475706Y441083D01*
X474873D01*
X474457Y441499D01*
Y443165D01*
X476956Y441083D02*
X477789D01*
X477373D01*
Y443582D01*
X476956Y443165D01*
X480705Y443582D02*
X479872Y443165D01*
X479039Y442332D01*
Y441499D01*
X479455Y441083D01*
X480288D01*
X480705Y441499D01*
Y441916D01*
X480288Y442332D01*
X479039D01*
X481538Y441083D02*
X482371D01*
X481954D01*
Y442749D01*
X481538D01*
X483621Y441083D02*
Y442749D01*
X484870D01*
X485287Y442332D01*
Y441083D01*
X486120D02*
X487786Y442749D01*
X488619Y443165D02*
X489036Y443582D01*
X489868D01*
X490285Y443165D01*
Y441499D01*
X489868Y441083D01*
X489036D01*
X488619Y441499D01*
Y443165D01*
X491118Y441083D02*
Y441499D01*
X491535D01*
Y441083D01*
X491118D01*
X494450D02*
Y443582D01*
X493201Y442332D01*
X494867D01*
X495700Y441083D02*
Y442749D01*
X496116D01*
X496533Y442332D01*
Y441083D01*
Y442332D01*
X496950Y442749D01*
X497366Y442332D01*
Y441083D01*
X498199D02*
Y442749D01*
X498616D01*
X499032Y442332D01*
Y441083D01*
Y442332D01*
X499449Y442749D01*
X499865Y442332D01*
Y441083D01*
X504370Y433833D02*
X504787Y434249D01*
X505620D01*
X506036Y433833D01*
Y432166D01*
X505620Y431750D01*
X504787D01*
X504370Y432166D01*
Y433833D01*
X506869Y431750D02*
Y432166D01*
X507286D01*
Y431750D01*
X506869D01*
X508952Y433833D02*
X509369Y434249D01*
X510202D01*
X510618Y433833D01*
Y432166D01*
X510202Y431750D01*
X509369D01*
X508952Y432166D01*
Y433833D01*
X513117Y431750D02*
X511451D01*
X513117Y433416D01*
Y433833D01*
X512701Y434249D01*
X511868D01*
X511451Y433833D01*
X515616Y431750D02*
X513950D01*
X515616Y433416D01*
Y433833D01*
X515200Y434249D01*
X514367D01*
X513950Y433833D01*
X516449Y431750D02*
X517283D01*
X516866D01*
Y433416D01*
X516449D01*
X518532Y431750D02*
Y433416D01*
X519782D01*
X520198Y433000D01*
Y431750D01*
X521031D02*
X522697Y433416D01*
X523530Y433833D02*
X523947Y434249D01*
X524780D01*
X525197Y433833D01*
Y432166D01*
X524780Y431750D01*
X523947D01*
X523530Y432166D01*
Y433833D01*
X526030Y431750D02*
Y432166D01*
X526446D01*
Y431750D01*
X526030D01*
X529778Y434249D02*
X528112D01*
Y433000D01*
X528945Y433416D01*
X529362D01*
X529778Y433000D01*
Y432166D01*
X529362Y431750D01*
X528529D01*
X528112Y432166D01*
X532278Y434249D02*
X530612D01*
Y433000D01*
X531445Y433416D01*
X531861D01*
X532278Y433000D01*
Y432166D01*
X531861Y431750D01*
X531028D01*
X530612Y432166D01*
X533111Y431750D02*
Y433416D01*
X533527D01*
X533944Y433000D01*
Y431750D01*
Y433000D01*
X534360Y433416D01*
X534777Y433000D01*
Y431750D01*
X535610D02*
Y433416D01*
X536026D01*
X536443Y433000D01*
Y431750D01*
Y433000D01*
X536860Y433416D01*
X537276Y433000D01*
Y431750D01*
X512402Y433833D02*
X512818Y434249D01*
X513651D01*
X514068Y433833D01*
Y432166D01*
X513651Y431750D01*
X512818D01*
X512402Y432166D01*
Y433833D01*
X514901Y431750D02*
Y432166D01*
X515317D01*
Y431750D01*
X514901D01*
X516983Y433833D02*
X517400Y434249D01*
X518233D01*
X518650Y433833D01*
Y432166D01*
X518233Y431750D01*
X517400D01*
X516983Y432166D01*
Y433833D01*
X521149Y434249D02*
X519483D01*
Y433000D01*
X520316Y433416D01*
X520732D01*
X521149Y433000D01*
Y432166D01*
X520732Y431750D01*
X519899D01*
X519483Y432166D01*
X521982Y433833D02*
X522398Y434249D01*
X523231D01*
X523648Y433833D01*
Y433416D01*
X523231Y433000D01*
X522815D01*
X523231D01*
X523648Y432583D01*
Y432166D01*
X523231Y431750D01*
X522398D01*
X521982Y432166D01*
X524481Y431750D02*
X525314D01*
X524897D01*
Y433416D01*
X524481D01*
X526564Y431750D02*
Y433416D01*
X527813D01*
X528230Y433000D01*
Y431750D01*
X529063D02*
X530729Y433416D01*
X531562Y431750D02*
X532395D01*
X531979D01*
Y434249D01*
X531562Y433833D01*
X533645Y431750D02*
Y432166D01*
X534061D01*
Y431750D01*
X533645D01*
X535727Y433833D02*
X536144Y434249D01*
X536977D01*
X537394Y433833D01*
Y433416D01*
X536977Y433000D01*
X536560D01*
X536977D01*
X537394Y432583D01*
Y432166D01*
X536977Y431750D01*
X536144D01*
X535727Y432166D01*
X539893Y434249D02*
X538227D01*
Y433000D01*
X539060Y433416D01*
X539476D01*
X539893Y433000D01*
Y432166D01*
X539476Y431750D01*
X538643D01*
X538227Y432166D01*
X540726Y431750D02*
Y433416D01*
X541142D01*
X541559Y433000D01*
Y431750D01*
Y433000D01*
X541975Y433416D01*
X542392Y433000D01*
Y431750D01*
X543225D02*
Y433416D01*
X543642D01*
X544058Y433000D01*
Y431750D01*
Y433000D01*
X544475Y433416D01*
X544891Y433000D01*
Y431750D01*
X476041Y417925D02*
X476458Y418342D01*
X477291D01*
X477707Y417925D01*
Y416259D01*
X477291Y415842D01*
X476458D01*
X476041Y416259D01*
Y417925D01*
X478541Y415842D02*
Y416259D01*
X478957D01*
Y415842D01*
X478541D01*
X480623D02*
X481456D01*
X481040D01*
Y418342D01*
X480623Y417925D01*
X482706Y415842D02*
X483539D01*
X483122D01*
Y418342D01*
X482706Y417925D01*
X486455Y415842D02*
X484789D01*
X486455Y417509D01*
Y417925D01*
X486038Y418342D01*
X485205D01*
X484789Y417925D01*
X487288Y415842D02*
X488121D01*
X487704D01*
Y417509D01*
X487288D01*
X489370Y415842D02*
Y417509D01*
X490620D01*
X491037Y417092D01*
Y415842D01*
X491869D02*
X493536Y417509D01*
X496035Y415842D02*
X494369D01*
X496035Y417509D01*
Y417925D01*
X495618Y418342D01*
X494785D01*
X494369Y417925D01*
X496868Y415842D02*
Y416259D01*
X497285D01*
Y415842D01*
X496868D01*
X498951Y417925D02*
X499367Y418342D01*
X500200D01*
X500617Y417925D01*
Y417509D01*
X500200Y417092D01*
X500617Y416676D01*
Y416259D01*
X500200Y415842D01*
X499367D01*
X498951Y416259D01*
Y416676D01*
X499367Y417092D01*
X498951Y417509D01*
Y417925D01*
X499367Y417092D02*
X500200D01*
X503116Y418342D02*
X501450D01*
Y417092D01*
X502283Y417509D01*
X502699D01*
X503116Y417092D01*
Y416259D01*
X502699Y415842D01*
X501866D01*
X501450Y416259D01*
X503949Y415842D02*
Y417509D01*
X504365D01*
X504782Y417092D01*
Y415842D01*
Y417092D01*
X505199Y417509D01*
X505615Y417092D01*
Y415842D01*
X506448D02*
Y417509D01*
X506865D01*
X507281Y417092D01*
Y415842D01*
Y417092D01*
X507698Y417509D01*
X508114Y417092D01*
Y415842D01*
X117798Y398673D02*
X118214Y398256D01*
Y397423D01*
X117798Y397007D01*
X116132D01*
X115715Y397423D01*
Y398256D01*
X116132Y398673D01*
X117798D01*
X115715Y396174D02*
X116132D01*
Y395757D01*
X115715D01*
Y396174D01*
X117798Y394091D02*
X118214Y393675D01*
Y392842D01*
X117798Y392425D01*
X116132D01*
X115715Y392842D01*
Y393675D01*
X116132Y394091D01*
X117798D01*
X116132Y391592D02*
X115715Y391176D01*
Y390342D01*
X116132Y389926D01*
X117798D01*
X118214Y390342D01*
Y391176D01*
X117798Y391592D01*
X117381D01*
X116965Y391176D01*
Y389926D01*
X117798Y389093D02*
X118214Y388676D01*
Y387843D01*
X117798Y387427D01*
X117381D01*
X116965Y387843D01*
X116548Y387427D01*
X116132D01*
X115715Y387843D01*
Y388676D01*
X116132Y389093D01*
X116548D01*
X116965Y388676D01*
X117381Y389093D01*
X117798D01*
X116965Y388676D02*
Y387843D01*
X115715Y386594D02*
Y385760D01*
Y386177D01*
X117381D01*
Y386594D01*
X115715Y384511D02*
X117381D01*
Y383261D01*
X116965Y382845D01*
X115715D01*
Y382012D02*
X117381Y380346D01*
X115715Y377846D02*
Y379513D01*
X117381Y377846D01*
X117798D01*
X118214Y378263D01*
Y379096D01*
X117798Y379513D01*
X115715Y377013D02*
X116132D01*
Y376597D01*
X115715D01*
Y377013D01*
X118214Y373265D02*
Y374931D01*
X116965D01*
X117381Y374098D01*
Y373681D01*
X116965Y373265D01*
X116132D01*
X115715Y373681D01*
Y374514D01*
X116132Y374931D01*
X115715Y372431D02*
X117381D01*
Y372015D01*
X116965Y371599D01*
X115715D01*
X116965D01*
X117381Y371182D01*
X116965Y370765D01*
X115715D01*
Y369932D02*
X117381D01*
Y369516D01*
X116965Y369099D01*
X115715D01*
X116965D01*
X117381Y368683D01*
X116965Y368266D01*
X115715D01*
X150298Y407314D02*
X150714Y406897D01*
Y406064D01*
X150298Y405647D01*
X148632D01*
X148215Y406064D01*
Y406897D01*
X148632Y407314D01*
X150298D01*
X148215Y404814D02*
X148632D01*
Y404398D01*
X148215D01*
Y404814D01*
Y401066D02*
Y402732D01*
X149881Y401066D01*
X150298D01*
X150714Y401482D01*
Y402315D01*
X150298Y402732D01*
X148632Y400233D02*
X148215Y399816D01*
Y398983D01*
X148632Y398566D01*
X150298D01*
X150714Y398983D01*
Y399816D01*
X150298Y400233D01*
X149881D01*
X149465Y399816D01*
Y398566D01*
X148215Y397733D02*
Y396900D01*
Y397317D01*
X150714D01*
X150298Y397733D01*
X148215Y395651D02*
Y394818D01*
Y395234D01*
X149881D01*
Y395651D01*
X148215Y393568D02*
X149881D01*
Y392318D01*
X149465Y391902D01*
X148215D01*
Y391069D02*
X149881Y389403D01*
X150714Y388570D02*
Y386904D01*
X150298D01*
X148632Y388570D01*
X148215D01*
Y386070D02*
X148632D01*
Y385654D01*
X148215D01*
Y386070D01*
X150298Y383988D02*
X150714Y383571D01*
Y382738D01*
X150298Y382322D01*
X149881D01*
X149465Y382738D01*
Y383155D01*
Y382738D01*
X149048Y382322D01*
X148632D01*
X148215Y382738D01*
Y383571D01*
X148632Y383988D01*
Y381489D02*
X148215Y381072D01*
Y380239D01*
X148632Y379822D01*
X150298D01*
X150714Y380239D01*
Y381072D01*
X150298Y381489D01*
X149881D01*
X149465Y381072D01*
Y379822D01*
X148215Y378989D02*
Y378156D01*
Y378573D01*
X150714D01*
X150298Y378989D01*
X148215Y376907D02*
X149881D01*
Y376490D01*
X149465Y376074D01*
X148215D01*
X149465D01*
X149881Y375657D01*
X149465Y375241D01*
X148215D01*
Y374408D02*
X149881D01*
Y373991D01*
X149465Y373574D01*
X148215D01*
X149465D01*
X149881Y373158D01*
X149465Y372741D01*
X148215D01*
X92662Y371389D02*
X93079Y370972D01*
Y370139D01*
X92662Y369722D01*
X90996D01*
X90579Y370139D01*
Y370972D01*
X90996Y371389D01*
X92662D01*
X90579Y368889D02*
Y368056D01*
Y368473D01*
X92246D01*
Y368889D01*
X90579Y366807D02*
X92246D01*
Y365557D01*
X91829Y365141D01*
X90579D01*
Y364307D02*
X92246Y362641D01*
X92662Y361808D02*
X93079Y361392D01*
Y360559D01*
X92662Y360142D01*
X90996D01*
X90579Y360559D01*
Y361392D01*
X90996Y361808D01*
X92662D01*
X90579Y359309D02*
X92246D01*
Y358893D01*
X91829Y358476D01*
X90579D01*
X91829D01*
X92246Y358060D01*
X91829Y357643D01*
X90579D01*
Y356810D02*
X92246D01*
Y356393D01*
X91829Y355977D01*
X90579D01*
X91829D01*
X92246Y355560D01*
X91829Y355144D01*
X90579D01*
X99355Y471739D02*
X99771Y471322D01*
Y470489D01*
X99355Y470072D01*
X97689D01*
X97272Y470489D01*
Y471322D01*
X97689Y471739D01*
X99355D01*
X97272Y469239D02*
X97689D01*
Y468823D01*
X97272D01*
Y469239D01*
Y467157D02*
Y466324D01*
Y466740D01*
X99771D01*
X99355Y467157D01*
Y465074D02*
X99771Y464657D01*
Y463824D01*
X99355Y463408D01*
X98938D01*
X98522Y463824D01*
Y464241D01*
Y463824D01*
X98105Y463408D01*
X97689D01*
X97272Y463824D01*
Y464657D01*
X97689Y465074D01*
X97272Y461325D02*
X99771D01*
X98522Y462575D01*
Y460909D01*
X97272Y460076D02*
Y459243D01*
Y459659D01*
X98938D01*
Y460076D01*
X97272Y457993D02*
X98938D01*
Y456743D01*
X98522Y456327D01*
X97272D01*
Y455494D02*
X98938Y453828D01*
X99355Y452995D02*
X99771Y452578D01*
Y451745D01*
X99355Y451329D01*
X98938D01*
X98522Y451745D01*
Y452162D01*
Y451745D01*
X98105Y451329D01*
X97689D01*
X97272Y451745D01*
Y452578D01*
X97689Y452995D01*
X97272Y450495D02*
X97689D01*
Y450079D01*
X97272D01*
Y450495D01*
Y447163D02*
X99771D01*
X98522Y448413D01*
Y446747D01*
X97272Y445914D02*
X98938D01*
Y445497D01*
X98522Y445081D01*
X97272D01*
X98522D01*
X98938Y444664D01*
X98522Y444247D01*
X97272D01*
Y443414D02*
X98938D01*
Y442998D01*
X98522Y442581D01*
X97272D01*
X98522D01*
X98938Y442165D01*
X98522Y441748D01*
X97272D01*
X94748Y467989D02*
X95164Y467572D01*
Y466739D01*
X94748Y466322D01*
X93082D01*
X92665Y466739D01*
Y467572D01*
X93082Y467989D01*
X94748D01*
X92665Y465489D02*
X93082D01*
Y465073D01*
X92665D01*
Y465489D01*
Y461741D02*
Y463407D01*
X94331Y461741D01*
X94748D01*
X95164Y462157D01*
Y462990D01*
X94748Y463407D01*
X92665Y459241D02*
Y460908D01*
X94331Y459241D01*
X94748D01*
X95164Y459658D01*
Y460491D01*
X94748Y460908D01*
X95164Y456742D02*
X94748Y457575D01*
X93915Y458408D01*
X93082D01*
X92665Y457992D01*
Y457159D01*
X93082Y456742D01*
X93498D01*
X93915Y457159D01*
Y458408D01*
X92665Y455909D02*
Y455076D01*
Y455493D01*
X94331D01*
Y455909D01*
X92665Y453827D02*
X94331D01*
Y452577D01*
X93915Y452160D01*
X92665D01*
Y451327D02*
X94331Y449661D01*
X95164Y447162D02*
Y448828D01*
X93915D01*
X94331Y447995D01*
Y447578D01*
X93915Y447162D01*
X93082D01*
X92665Y447578D01*
Y448412D01*
X93082Y448828D01*
X92665Y446329D02*
X93082D01*
Y445912D01*
X92665D01*
Y446329D01*
X95164Y444246D02*
Y442580D01*
X94748D01*
X93082Y444246D01*
X92665D01*
Y440497D02*
X95164D01*
X93915Y441747D01*
Y440081D01*
X92665Y439248D02*
X94331D01*
Y438831D01*
X93915Y438415D01*
X92665D01*
X93915D01*
X94331Y437998D01*
X93915Y437582D01*
X92665D01*
Y436749D02*
X94331D01*
Y436332D01*
X93915Y435916D01*
X92665D01*
X93915D01*
X94331Y435499D01*
X93915Y435082D01*
X92665D01*
X484125Y579083D02*
X484542Y579499D01*
X485375D01*
X485791Y579083D01*
Y577417D01*
X485375Y577000D01*
X484542D01*
X484125Y577417D01*
Y579083D01*
X486624Y577000D02*
Y577417D01*
X487041D01*
Y577000D01*
X486624D01*
X490373Y579499D02*
X488707D01*
Y578250D01*
X489540Y578666D01*
X489957D01*
X490373Y578250D01*
Y577417D01*
X489957Y577000D01*
X489123D01*
X488707Y577417D01*
X491206Y579083D02*
X491623Y579499D01*
X492456D01*
X492872Y579083D01*
Y578666D01*
X492456Y578250D01*
X492039D01*
X492456D01*
X492872Y577833D01*
Y577417D01*
X492456Y577000D01*
X491623D01*
X491206Y577417D01*
X493705Y577000D02*
X494538D01*
X494122D01*
Y578666D01*
X493705D01*
X495788Y577000D02*
Y578666D01*
X497038D01*
X497454Y578250D01*
Y577000D01*
X498287D02*
X499953Y578666D01*
X500786Y577000D02*
X501619D01*
X501203D01*
Y579499D01*
X500786Y579083D01*
X502869D02*
X503286Y579499D01*
X504118D01*
X504535Y579083D01*
Y578666D01*
X504118Y578250D01*
X503702D01*
X504118D01*
X504535Y577833D01*
Y577417D01*
X504118Y577000D01*
X503286D01*
X502869Y577417D01*
X505368Y577000D02*
Y577417D01*
X505785D01*
Y577000D01*
X505368D01*
X508700D02*
Y579499D01*
X507451Y578250D01*
X509117D01*
X511616Y579499D02*
X510783Y579083D01*
X509950Y578250D01*
Y577417D01*
X510366Y577000D01*
X511200D01*
X511616Y577417D01*
Y577833D01*
X511200Y578250D01*
X509950D01*
X514115Y577000D02*
X512449D01*
X514115Y578666D01*
Y579083D01*
X513699Y579499D01*
X512866D01*
X512449Y579083D01*
X514948Y577000D02*
Y578666D01*
X515365D01*
X515781Y578250D01*
Y577000D01*
Y578250D01*
X516198Y578666D01*
X516614Y578250D01*
Y577000D01*
X517448D02*
Y578666D01*
X517864D01*
X518281Y578250D01*
Y577000D01*
Y578250D01*
X518697Y578666D01*
X519114Y578250D01*
Y577000D01*
X483500Y611583D02*
X483917Y611999D01*
X484750D01*
X485166Y611583D01*
Y609916D01*
X484750Y609500D01*
X483917D01*
X483500Y609916D01*
Y611583D01*
X485999Y609500D02*
Y609916D01*
X486416D01*
Y609500D01*
X485999D01*
X488082Y611999D02*
X489748D01*
Y611583D01*
X488082Y609916D01*
Y609500D01*
X490581Y611583D02*
X490998Y611999D01*
X491831D01*
X492247Y611583D01*
Y611166D01*
X491831Y610750D01*
X492247Y610333D01*
Y609916D01*
X491831Y609500D01*
X490998D01*
X490581Y609916D01*
Y610333D01*
X490998Y610750D01*
X490581Y611166D01*
Y611583D01*
X490998Y610750D02*
X491831D01*
X494746Y611999D02*
X493080D01*
Y610750D01*
X493913Y611166D01*
X494330D01*
X494746Y610750D01*
Y609916D01*
X494330Y609500D01*
X493497D01*
X493080Y609916D01*
X495579Y609500D02*
X496413D01*
X495996D01*
Y611166D01*
X495579D01*
X497662Y609500D02*
Y611166D01*
X498912D01*
X499328Y610750D01*
Y609500D01*
X500161D02*
X501827Y611166D01*
X502661Y609500D02*
X503493D01*
X503077D01*
Y611999D01*
X502661Y611583D01*
X504743Y609916D02*
X505160Y609500D01*
X505993D01*
X506409Y609916D01*
Y611583D01*
X505993Y611999D01*
X505160D01*
X504743Y611583D01*
Y611166D01*
X505160Y610750D01*
X506409D01*
X507242Y609500D02*
Y609916D01*
X507659D01*
Y609500D01*
X507242D01*
X509325Y609916D02*
X509741Y609500D01*
X510575D01*
X510991Y609916D01*
Y611583D01*
X510575Y611999D01*
X509741D01*
X509325Y611583D01*
Y611166D01*
X509741Y610750D01*
X510991D01*
X511824Y611583D02*
X512241Y611999D01*
X513074D01*
X513490Y611583D01*
Y611166D01*
X513074Y610750D01*
X512657D01*
X513074D01*
X513490Y610333D01*
Y609916D01*
X513074Y609500D01*
X512241D01*
X511824Y609916D01*
X514323D02*
X514740Y609500D01*
X515573D01*
X515989Y609916D01*
Y611583D01*
X515573Y611999D01*
X514740D01*
X514323Y611583D01*
Y611166D01*
X514740Y610750D01*
X515989D01*
X516822Y609500D02*
Y611166D01*
X517239D01*
X517656Y610750D01*
Y609500D01*
Y610750D01*
X518072Y611166D01*
X518489Y610750D01*
Y609500D01*
X519322D02*
Y611166D01*
X519738D01*
X520155Y610750D01*
Y609500D01*
Y610750D01*
X520571Y611166D01*
X520988Y610750D01*
Y609500D01*
X544750Y553833D02*
X545166Y554249D01*
X546000D01*
X546416Y553833D01*
Y552167D01*
X546000Y551750D01*
X545166D01*
X544750Y552167D01*
Y553833D01*
X547249Y551750D02*
Y552167D01*
X547666D01*
Y551750D01*
X547249D01*
X549332D02*
X550165D01*
X549748D01*
Y554249D01*
X549332Y553833D01*
X551414D02*
X551831Y554249D01*
X552664D01*
X553081Y553833D01*
Y553416D01*
X552664Y553000D01*
X552248D01*
X552664D01*
X553081Y552583D01*
Y552167D01*
X552664Y551750D01*
X551831D01*
X551414Y552167D01*
X553914Y551750D02*
X554747D01*
X554330D01*
Y553416D01*
X553914D01*
X555996Y551750D02*
Y553416D01*
X557246D01*
X557662Y553000D01*
Y551750D01*
X558496D02*
X560162Y553416D01*
X560995Y553833D02*
X561411Y554249D01*
X562244D01*
X562661Y553833D01*
Y553416D01*
X562244Y553000D01*
X561828D01*
X562244D01*
X562661Y552583D01*
Y552167D01*
X562244Y551750D01*
X561411D01*
X560995Y552167D01*
X563494Y551750D02*
Y552167D01*
X563910D01*
Y551750D01*
X563494D01*
X565577Y553833D02*
X565993Y554249D01*
X566826D01*
X567243Y553833D01*
Y553416D01*
X566826Y553000D01*
X566410D01*
X566826D01*
X567243Y552583D01*
Y552167D01*
X566826Y551750D01*
X565993D01*
X565577Y552167D01*
X568076Y553833D02*
X568492Y554249D01*
X569325D01*
X569742Y553833D01*
Y552167D01*
X569325Y551750D01*
X568492D01*
X568076Y552167D01*
Y553833D01*
X572241Y551750D02*
X570575D01*
X572241Y553416D01*
Y553833D01*
X571825Y554249D01*
X570992D01*
X570575Y553833D01*
X573074Y551750D02*
Y553416D01*
X573491D01*
X573907Y553000D01*
Y551750D01*
Y553000D01*
X574324Y553416D01*
X574740Y553000D01*
Y551750D01*
X575573D02*
Y553416D01*
X575990D01*
X576406Y553000D01*
Y551750D01*
Y553000D01*
X576823Y553416D01*
X577240Y553000D01*
Y551750D01*
X397500Y560583D02*
X397917Y560999D01*
X398750D01*
X399166Y560583D01*
Y558917D01*
X398750Y558500D01*
X397917D01*
X397500Y558917D01*
Y560583D01*
X399999Y558500D02*
Y558917D01*
X400416D01*
Y558500D01*
X399999D01*
X402082D02*
X402915D01*
X402498D01*
Y560999D01*
X402082Y560583D01*
X404165D02*
X404581Y560999D01*
X405414D01*
X405831Y560583D01*
Y560166D01*
X405414Y559750D01*
X404998D01*
X405414D01*
X405831Y559333D01*
Y558917D01*
X405414Y558500D01*
X404581D01*
X404165Y558917D01*
X408330Y560999D02*
X406664D01*
Y559750D01*
X407497Y560166D01*
X407913D01*
X408330Y559750D01*
Y558917D01*
X407913Y558500D01*
X407080D01*
X406664Y558917D01*
X409163Y558500D02*
X409996D01*
X409579D01*
Y560166D01*
X409163D01*
X411246Y558500D02*
Y560166D01*
X412495D01*
X412912Y559750D01*
Y558500D01*
X413745D02*
X415411Y560166D01*
X416244Y560583D02*
X416660Y560999D01*
X417493D01*
X417910Y560583D01*
Y560166D01*
X417493Y559750D01*
X417077D01*
X417493D01*
X417910Y559333D01*
Y558917D01*
X417493Y558500D01*
X416660D01*
X416244Y558917D01*
X418743Y558500D02*
Y558917D01*
X419160D01*
Y558500D01*
X418743D01*
X422075D02*
Y560999D01*
X420826Y559750D01*
X422492D01*
X424991Y558500D02*
X423325D01*
X424991Y560166D01*
Y560583D01*
X424575Y560999D01*
X423741D01*
X423325Y560583D01*
X425824Y558917D02*
X426241Y558500D01*
X427074D01*
X427490Y558917D01*
Y560583D01*
X427074Y560999D01*
X426241D01*
X425824Y560583D01*
Y560166D01*
X426241Y559750D01*
X427490D01*
X428323Y558500D02*
Y560166D01*
X428740D01*
X429156Y559750D01*
Y558500D01*
Y559750D01*
X429573Y560166D01*
X429989Y559750D01*
Y558500D01*
X430823D02*
Y560166D01*
X431239D01*
X431656Y559750D01*
Y558500D01*
Y559750D01*
X432072Y560166D01*
X432489Y559750D01*
Y558500D01*
X403750Y553833D02*
X404167Y554249D01*
X405000D01*
X405416Y553833D01*
Y552167D01*
X405000Y551750D01*
X404167D01*
X403750Y552167D01*
Y553833D01*
X406249Y551750D02*
Y552167D01*
X406666D01*
Y551750D01*
X406249D01*
X409998D02*
X408332D01*
X409998Y553416D01*
Y553833D01*
X409581Y554249D01*
X408748D01*
X408332Y553833D01*
X410831Y554249D02*
X412497D01*
Y553833D01*
X410831Y552167D01*
Y551750D01*
X413330D02*
X414163D01*
X413747D01*
Y553416D01*
X413330D01*
X415413Y551750D02*
Y553416D01*
X416663D01*
X417079Y553000D01*
Y551750D01*
X417912D02*
X419578Y553416D01*
X422077Y554249D02*
X421244Y553833D01*
X420411Y553000D01*
Y552167D01*
X420828Y551750D01*
X421661D01*
X422077Y552167D01*
Y552583D01*
X421661Y553000D01*
X420411D01*
X422910Y551750D02*
Y552167D01*
X423327D01*
Y551750D01*
X422910D01*
X424993Y553833D02*
X425410Y554249D01*
X426243D01*
X426659Y553833D01*
Y553416D01*
X426243Y553000D01*
X426659Y552583D01*
Y552167D01*
X426243Y551750D01*
X425410D01*
X424993Y552167D01*
Y552583D01*
X425410Y553000D01*
X424993Y553416D01*
Y553833D01*
X425410Y553000D02*
X426243D01*
X429158Y554249D02*
X427492D01*
Y553000D01*
X428325Y553416D01*
X428742D01*
X429158Y553000D01*
Y552167D01*
X428742Y551750D01*
X427909D01*
X427492Y552167D01*
X429991Y553833D02*
X430408Y554249D01*
X431241D01*
X431658Y553833D01*
Y553416D01*
X431241Y553000D01*
X431658Y552583D01*
Y552167D01*
X431241Y551750D01*
X430408D01*
X429991Y552167D01*
Y552583D01*
X430408Y553000D01*
X429991Y553416D01*
Y553833D01*
X430408Y553000D02*
X431241D01*
X432491Y551750D02*
Y553416D01*
X432907D01*
X433324Y553000D01*
Y551750D01*
Y553000D01*
X433740Y553416D01*
X434157Y553000D01*
Y551750D01*
X434990D02*
Y553416D01*
X435406D01*
X435823Y553000D01*
Y551750D01*
Y553000D01*
X436239Y553416D01*
X436656Y553000D01*
Y551750D01*
X476625Y658654D02*
X477041Y659070D01*
X477875D01*
X478291Y658654D01*
Y656988D01*
X477875Y656571D01*
X477041D01*
X476625Y656988D01*
Y658654D01*
X479124Y656571D02*
Y656988D01*
X479541D01*
Y656571D01*
X479124D01*
X482873Y659070D02*
X481207D01*
Y657821D01*
X482040Y658237D01*
X482456D01*
X482873Y657821D01*
Y656988D01*
X482456Y656571D01*
X481623D01*
X481207Y656988D01*
X483706Y658654D02*
X484123Y659070D01*
X484956D01*
X485372Y658654D01*
Y658237D01*
X484956Y657821D01*
X484539D01*
X484956D01*
X485372Y657404D01*
Y656988D01*
X484956Y656571D01*
X484123D01*
X483706Y656988D01*
X486205Y656571D02*
X487038D01*
X486622D01*
Y658237D01*
X486205D01*
X488288Y656571D02*
Y658237D01*
X489537D01*
X489954Y657821D01*
Y656571D01*
X490787D02*
X492453Y658237D01*
X493286Y656571D02*
X494119D01*
X493703D01*
Y659070D01*
X493286Y658654D01*
X495369D02*
X495786Y659070D01*
X496619D01*
X497035Y658654D01*
Y658237D01*
X496619Y657821D01*
X496202D01*
X496619D01*
X497035Y657404D01*
Y656988D01*
X496619Y656571D01*
X495786D01*
X495369Y656988D01*
X497868Y656571D02*
Y656988D01*
X498285D01*
Y656571D01*
X497868D01*
X501200D02*
Y659070D01*
X499951Y657821D01*
X501617D01*
X504116Y659070D02*
X503283Y658654D01*
X502450Y657821D01*
Y656988D01*
X502867Y656571D01*
X503700D01*
X504116Y656988D01*
Y657404D01*
X503700Y657821D01*
X502450D01*
X506615Y656571D02*
X504949D01*
X506615Y658237D01*
Y658654D01*
X506199Y659070D01*
X505366D01*
X504949Y658654D01*
X507448Y656571D02*
Y658237D01*
X507865D01*
X508281Y657821D01*
Y656571D01*
Y657821D01*
X508698Y658237D01*
X509115Y657821D01*
Y656571D01*
X509947D02*
Y658237D01*
X510364D01*
X510781Y657821D01*
Y656571D01*
Y657821D01*
X511197Y658237D01*
X511614Y657821D01*
Y656571D01*
X476000Y691154D02*
X476416Y691571D01*
X477250D01*
X477666Y691154D01*
Y689488D01*
X477250Y689071D01*
X476416D01*
X476000Y689488D01*
Y691154D01*
X478499Y689071D02*
Y689488D01*
X478916D01*
Y689071D01*
X478499D01*
X480582Y691571D02*
X482248D01*
Y691154D01*
X480582Y689488D01*
Y689071D01*
X483081Y691154D02*
X483498Y691571D01*
X484331D01*
X484747Y691154D01*
Y690737D01*
X484331Y690321D01*
X484747Y689904D01*
Y689488D01*
X484331Y689071D01*
X483498D01*
X483081Y689488D01*
Y689904D01*
X483498Y690321D01*
X483081Y690737D01*
Y691154D01*
X483498Y690321D02*
X484331D01*
X487246Y691571D02*
X485580D01*
Y690321D01*
X486413Y690737D01*
X486830D01*
X487246Y690321D01*
Y689488D01*
X486830Y689071D01*
X485997D01*
X485580Y689488D01*
X488079Y689071D02*
X488912D01*
X488496D01*
Y690737D01*
X488079D01*
X490162Y689071D02*
Y690737D01*
X491412D01*
X491828Y690321D01*
Y689071D01*
X492661D02*
X494327Y690737D01*
X495160Y689071D02*
X495994D01*
X495577D01*
Y691571D01*
X495160Y691154D01*
X497243Y689488D02*
X497660Y689071D01*
X498493D01*
X498909Y689488D01*
Y691154D01*
X498493Y691571D01*
X497660D01*
X497243Y691154D01*
Y690737D01*
X497660Y690321D01*
X498909D01*
X499742Y689071D02*
Y689488D01*
X500159D01*
Y689071D01*
X499742D01*
X501825Y689488D02*
X502242Y689071D01*
X503075D01*
X503491Y689488D01*
Y691154D01*
X503075Y691571D01*
X502242D01*
X501825Y691154D01*
Y690737D01*
X502242Y690321D01*
X503491D01*
X504324Y691154D02*
X504741Y691571D01*
X505574D01*
X505990Y691154D01*
Y690737D01*
X505574Y690321D01*
X505157D01*
X505574D01*
X505990Y689904D01*
Y689488D01*
X505574Y689071D01*
X504741D01*
X504324Y689488D01*
X506823D02*
X507240Y689071D01*
X508073D01*
X508490Y689488D01*
Y691154D01*
X508073Y691571D01*
X507240D01*
X506823Y691154D01*
Y690737D01*
X507240Y690321D01*
X508490D01*
X509323Y689071D02*
Y690737D01*
X509739D01*
X510156Y690321D01*
Y689071D01*
Y690321D01*
X510572Y690737D01*
X510989Y690321D01*
Y689071D01*
X511822D02*
Y690737D01*
X512238D01*
X512655Y690321D01*
Y689071D01*
Y690321D01*
X513071Y690737D01*
X513488Y690321D01*
Y689071D01*
X537250Y633404D02*
X537667Y633820D01*
X538500D01*
X538916Y633404D01*
Y631738D01*
X538500Y631321D01*
X537667D01*
X537250Y631738D01*
Y633404D01*
X539749Y631321D02*
Y631738D01*
X540166D01*
Y631321D01*
X539749D01*
X541832D02*
X542665D01*
X542248D01*
Y633820D01*
X541832Y633404D01*
X543915D02*
X544331Y633820D01*
X545164D01*
X545581Y633404D01*
Y632987D01*
X545164Y632571D01*
X544748D01*
X545164D01*
X545581Y632154D01*
Y631738D01*
X545164Y631321D01*
X544331D01*
X543915Y631738D01*
X546414Y631321D02*
X547247D01*
X546830D01*
Y632987D01*
X546414D01*
X548496Y631321D02*
Y632987D01*
X549746D01*
X550163Y632571D01*
Y631321D01*
X550996D02*
X552662Y632987D01*
X553495Y633404D02*
X553911Y633820D01*
X554744D01*
X555161Y633404D01*
Y632987D01*
X554744Y632571D01*
X554328D01*
X554744D01*
X555161Y632154D01*
Y631738D01*
X554744Y631321D01*
X553911D01*
X553495Y631738D01*
X555994Y631321D02*
Y631738D01*
X556411D01*
Y631321D01*
X555994D01*
X558077Y633404D02*
X558493Y633820D01*
X559326D01*
X559743Y633404D01*
Y632987D01*
X559326Y632571D01*
X558910D01*
X559326D01*
X559743Y632154D01*
Y631738D01*
X559326Y631321D01*
X558493D01*
X558077Y631738D01*
X560576Y633404D02*
X560992Y633820D01*
X561825D01*
X562242Y633404D01*
Y631738D01*
X561825Y631321D01*
X560992D01*
X560576Y631738D01*
Y633404D01*
X564741Y631321D02*
X563075D01*
X564741Y632987D01*
Y633404D01*
X564325Y633820D01*
X563491D01*
X563075Y633404D01*
X565574Y631321D02*
Y632987D01*
X565991D01*
X566407Y632571D01*
Y631321D01*
Y632571D01*
X566824Y632987D01*
X567240Y632571D01*
Y631321D01*
X568073D02*
Y632987D01*
X568490D01*
X568906Y632571D01*
Y631321D01*
Y632571D01*
X569323Y632987D01*
X569739Y632571D01*
Y631321D01*
X390000Y640154D02*
X390417Y640570D01*
X391250D01*
X391666Y640154D01*
Y638488D01*
X391250Y638071D01*
X390417D01*
X390000Y638488D01*
Y640154D01*
X392499Y638071D02*
Y638488D01*
X392916D01*
Y638071D01*
X392499D01*
X394582D02*
X395415D01*
X394998D01*
Y640570D01*
X394582Y640154D01*
X396665D02*
X397081Y640570D01*
X397914D01*
X398331Y640154D01*
Y639737D01*
X397914Y639321D01*
X397498D01*
X397914D01*
X398331Y638904D01*
Y638488D01*
X397914Y638071D01*
X397081D01*
X396665Y638488D01*
X400830Y640570D02*
X399164D01*
Y639321D01*
X399997Y639737D01*
X400413D01*
X400830Y639321D01*
Y638488D01*
X400413Y638071D01*
X399580D01*
X399164Y638488D01*
X401663Y638071D02*
X402496D01*
X402079D01*
Y639737D01*
X401663D01*
X403746Y638071D02*
Y639737D01*
X404995D01*
X405412Y639321D01*
Y638071D01*
X406245D02*
X407911Y639737D01*
X408744Y640154D02*
X409161Y640570D01*
X409994D01*
X410410Y640154D01*
Y639737D01*
X409994Y639321D01*
X409577D01*
X409994D01*
X410410Y638904D01*
Y638488D01*
X409994Y638071D01*
X409161D01*
X408744Y638488D01*
X411243Y638071D02*
Y638488D01*
X411660D01*
Y638071D01*
X411243D01*
X414575D02*
Y640570D01*
X413326Y639321D01*
X414992D01*
X417491Y638071D02*
X415825D01*
X417491Y639737D01*
Y640154D01*
X417075Y640570D01*
X416242D01*
X415825Y640154D01*
X418324Y638488D02*
X418741Y638071D01*
X419574D01*
X419990Y638488D01*
Y640154D01*
X419574Y640570D01*
X418741D01*
X418324Y640154D01*
Y639737D01*
X418741Y639321D01*
X419990D01*
X420823Y638071D02*
Y639737D01*
X421240D01*
X421656Y639321D01*
Y638071D01*
Y639321D01*
X422073Y639737D01*
X422490Y639321D01*
Y638071D01*
X423322D02*
Y639737D01*
X423739D01*
X424156Y639321D01*
Y638071D01*
Y639321D01*
X424572Y639737D01*
X424989Y639321D01*
Y638071D01*
X396250Y633404D02*
X396667Y633820D01*
X397500D01*
X397916Y633404D01*
Y631738D01*
X397500Y631321D01*
X396667D01*
X396250Y631738D01*
Y633404D01*
X398749Y631321D02*
Y631738D01*
X399166D01*
Y631321D01*
X398749D01*
X402498D02*
X400832D01*
X402498Y632987D01*
Y633404D01*
X402081Y633820D01*
X401248D01*
X400832Y633404D01*
X403331Y633820D02*
X404997D01*
Y633404D01*
X403331Y631738D01*
Y631321D01*
X405830D02*
X406663D01*
X406247D01*
Y632987D01*
X405830D01*
X407913Y631321D02*
Y632987D01*
X409163D01*
X409579Y632571D01*
Y631321D01*
X410412D02*
X412078Y632987D01*
X414577Y633820D02*
X413744Y633404D01*
X412911Y632571D01*
Y631738D01*
X413328Y631321D01*
X414161D01*
X414577Y631738D01*
Y632154D01*
X414161Y632571D01*
X412911D01*
X415411Y631321D02*
Y631738D01*
X415827D01*
Y631321D01*
X415411D01*
X417493Y633404D02*
X417910Y633820D01*
X418743D01*
X419159Y633404D01*
Y632987D01*
X418743Y632571D01*
X419159Y632154D01*
Y631738D01*
X418743Y631321D01*
X417910D01*
X417493Y631738D01*
Y632154D01*
X417910Y632571D01*
X417493Y632987D01*
Y633404D01*
X417910Y632571D02*
X418743D01*
X421658Y633820D02*
X419992D01*
Y632571D01*
X420825Y632987D01*
X421242D01*
X421658Y632571D01*
Y631738D01*
X421242Y631321D01*
X420409D01*
X419992Y631738D01*
X422492Y633404D02*
X422908Y633820D01*
X423741D01*
X424158Y633404D01*
Y632987D01*
X423741Y632571D01*
X424158Y632154D01*
Y631738D01*
X423741Y631321D01*
X422908D01*
X422492Y631738D01*
Y632154D01*
X422908Y632571D01*
X422492Y632987D01*
Y633404D01*
X422908Y632571D02*
X423741D01*
X424991Y631321D02*
Y632987D01*
X425407D01*
X425824Y632571D01*
Y631321D01*
Y632571D01*
X426240Y632987D01*
X426657Y632571D01*
Y631321D01*
X427490D02*
Y632987D01*
X427906D01*
X428323Y632571D01*
Y631321D01*
Y632571D01*
X428740Y632987D01*
X429156Y632571D01*
Y631321D01*
X478625Y726083D02*
X479041Y726499D01*
X479875D01*
X480291Y726083D01*
Y724416D01*
X479875Y724000D01*
X479041D01*
X478625Y724416D01*
Y726083D01*
X481124Y724000D02*
Y724416D01*
X481541D01*
Y724000D01*
X481124D01*
X484873Y726499D02*
X483207D01*
Y725250D01*
X484040Y725666D01*
X484456D01*
X484873Y725250D01*
Y724416D01*
X484456Y724000D01*
X483623D01*
X483207Y724416D01*
X485706Y726083D02*
X486123Y726499D01*
X486956D01*
X487372Y726083D01*
Y725666D01*
X486956Y725250D01*
X486539D01*
X486956D01*
X487372Y724833D01*
Y724416D01*
X486956Y724000D01*
X486123D01*
X485706Y724416D01*
X488205Y724000D02*
X489038D01*
X488622D01*
Y725666D01*
X488205D01*
X490288Y724000D02*
Y725666D01*
X491538D01*
X491954Y725250D01*
Y724000D01*
X492787D02*
X494453Y725666D01*
X495286Y724000D02*
X496119D01*
X495703D01*
Y726499D01*
X495286Y726083D01*
X497369D02*
X497786Y726499D01*
X498619D01*
X499035Y726083D01*
Y725666D01*
X498619Y725250D01*
X498202D01*
X498619D01*
X499035Y724833D01*
Y724416D01*
X498619Y724000D01*
X497786D01*
X497369Y724416D01*
X499868Y724000D02*
Y724416D01*
X500285D01*
Y724000D01*
X499868D01*
X503200D02*
Y726499D01*
X501951Y725250D01*
X503617D01*
X506116Y726499D02*
X505283Y726083D01*
X504450Y725250D01*
Y724416D01*
X504867Y724000D01*
X505700D01*
X506116Y724416D01*
Y724833D01*
X505700Y725250D01*
X504450D01*
X508615Y724000D02*
X506949D01*
X508615Y725666D01*
Y726083D01*
X508199Y726499D01*
X507366D01*
X506949Y726083D01*
X509448Y724000D02*
Y725666D01*
X509865D01*
X510281Y725250D01*
Y724000D01*
Y725250D01*
X510698Y725666D01*
X511115Y725250D01*
Y724000D01*
X511947D02*
Y725666D01*
X512364D01*
X512781Y725250D01*
Y724000D01*
Y725250D01*
X513197Y725666D01*
X513614Y725250D01*
Y724000D01*
X478000Y758583D02*
X478416Y758999D01*
X479250D01*
X479666Y758583D01*
Y756917D01*
X479250Y756500D01*
X478416D01*
X478000Y756917D01*
Y758583D01*
X480499Y756500D02*
Y756917D01*
X480916D01*
Y756500D01*
X480499D01*
X482582Y758999D02*
X484248D01*
Y758583D01*
X482582Y756917D01*
Y756500D01*
X485081Y758583D02*
X485498Y758999D01*
X486331D01*
X486747Y758583D01*
Y758166D01*
X486331Y757750D01*
X486747Y757333D01*
Y756917D01*
X486331Y756500D01*
X485498D01*
X485081Y756917D01*
Y757333D01*
X485498Y757750D01*
X485081Y758166D01*
Y758583D01*
X485498Y757750D02*
X486331D01*
X489246Y758999D02*
X487580D01*
Y757750D01*
X488413Y758166D01*
X488830D01*
X489246Y757750D01*
Y756917D01*
X488830Y756500D01*
X487997D01*
X487580Y756917D01*
X490079Y756500D02*
X490912D01*
X490496D01*
Y758166D01*
X490079D01*
X492162Y756500D02*
Y758166D01*
X493412D01*
X493828Y757750D01*
Y756500D01*
X494661D02*
X496327Y758166D01*
X497160Y756500D02*
X497994D01*
X497577D01*
Y758999D01*
X497160Y758583D01*
X499243Y756917D02*
X499660Y756500D01*
X500493D01*
X500909Y756917D01*
Y758583D01*
X500493Y758999D01*
X499660D01*
X499243Y758583D01*
Y758166D01*
X499660Y757750D01*
X500909D01*
X501742Y756500D02*
Y756917D01*
X502159D01*
Y756500D01*
X501742D01*
X503825Y756917D02*
X504242Y756500D01*
X505075D01*
X505491Y756917D01*
Y758583D01*
X505075Y758999D01*
X504242D01*
X503825Y758583D01*
Y758166D01*
X504242Y757750D01*
X505491D01*
X506324Y758583D02*
X506741Y758999D01*
X507574D01*
X507990Y758583D01*
Y758166D01*
X507574Y757750D01*
X507157D01*
X507574D01*
X507990Y757333D01*
Y756917D01*
X507574Y756500D01*
X506741D01*
X506324Y756917D01*
X508823D02*
X509240Y756500D01*
X510073D01*
X510490Y756917D01*
Y758583D01*
X510073Y758999D01*
X509240D01*
X508823Y758583D01*
Y758166D01*
X509240Y757750D01*
X510490D01*
X511322Y756500D02*
Y758166D01*
X511739D01*
X512156Y757750D01*
Y756500D01*
Y757750D01*
X512572Y758166D01*
X512989Y757750D01*
Y756500D01*
X513822D02*
Y758166D01*
X514238D01*
X514655Y757750D01*
Y756500D01*
Y757750D01*
X515071Y758166D01*
X515488Y757750D01*
Y756500D01*
X539250Y700833D02*
X539667Y701249D01*
X540500D01*
X540916Y700833D01*
Y699166D01*
X540500Y698750D01*
X539667D01*
X539250Y699166D01*
Y700833D01*
X541749Y698750D02*
Y699166D01*
X542166D01*
Y698750D01*
X541749D01*
X543832D02*
X544665D01*
X544248D01*
Y701249D01*
X543832Y700833D01*
X545915D02*
X546331Y701249D01*
X547164D01*
X547581Y700833D01*
Y700416D01*
X547164Y700000D01*
X546748D01*
X547164D01*
X547581Y699583D01*
Y699166D01*
X547164Y698750D01*
X546331D01*
X545915Y699166D01*
X548414Y698750D02*
X549247D01*
X548830D01*
Y700416D01*
X548414D01*
X550496Y698750D02*
Y700416D01*
X551746D01*
X552163Y700000D01*
Y698750D01*
X552996D02*
X554662Y700416D01*
X555495Y700833D02*
X555911Y701249D01*
X556744D01*
X557161Y700833D01*
Y700416D01*
X556744Y700000D01*
X556328D01*
X556744D01*
X557161Y699583D01*
Y699166D01*
X556744Y698750D01*
X555911D01*
X555495Y699166D01*
X557994Y698750D02*
Y699166D01*
X558411D01*
Y698750D01*
X557994D01*
X560077Y700833D02*
X560493Y701249D01*
X561326D01*
X561743Y700833D01*
Y700416D01*
X561326Y700000D01*
X560910D01*
X561326D01*
X561743Y699583D01*
Y699166D01*
X561326Y698750D01*
X560493D01*
X560077Y699166D01*
X562576Y700833D02*
X562992Y701249D01*
X563825D01*
X564242Y700833D01*
Y699166D01*
X563825Y698750D01*
X562992D01*
X562576Y699166D01*
Y700833D01*
X566741Y698750D02*
X565075D01*
X566741Y700416D01*
Y700833D01*
X566325Y701249D01*
X565491D01*
X565075Y700833D01*
X567574Y698750D02*
Y700416D01*
X567991D01*
X568407Y700000D01*
Y698750D01*
Y700000D01*
X568824Y700416D01*
X569240Y700000D01*
Y698750D01*
X570073D02*
Y700416D01*
X570490D01*
X570906Y700000D01*
Y698750D01*
Y700000D01*
X571323Y700416D01*
X571739Y700000D01*
Y698750D01*
X392000Y707583D02*
X392417Y707999D01*
X393250D01*
X393666Y707583D01*
Y705917D01*
X393250Y705500D01*
X392417D01*
X392000Y705917D01*
Y707583D01*
X394499Y705500D02*
Y705917D01*
X394916D01*
Y705500D01*
X394499D01*
X396582D02*
X397415D01*
X396998D01*
Y707999D01*
X396582Y707583D01*
X398664D02*
X399081Y707999D01*
X399914D01*
X400331Y707583D01*
Y707166D01*
X399914Y706750D01*
X399498D01*
X399914D01*
X400331Y706333D01*
Y705917D01*
X399914Y705500D01*
X399081D01*
X398664Y705917D01*
X402830Y707999D02*
X401164D01*
Y706750D01*
X401997Y707166D01*
X402413D01*
X402830Y706750D01*
Y705917D01*
X402413Y705500D01*
X401580D01*
X401164Y705917D01*
X403663Y705500D02*
X404496D01*
X404079D01*
Y707166D01*
X403663D01*
X405746Y705500D02*
Y707166D01*
X406995D01*
X407412Y706750D01*
Y705500D01*
X408245D02*
X409911Y707166D01*
X410744Y707583D02*
X411161Y707999D01*
X411994D01*
X412410Y707583D01*
Y707166D01*
X411994Y706750D01*
X411577D01*
X411994D01*
X412410Y706333D01*
Y705917D01*
X411994Y705500D01*
X411161D01*
X410744Y705917D01*
X413243Y705500D02*
Y705917D01*
X413660D01*
Y705500D01*
X413243D01*
X416575D02*
Y707999D01*
X415326Y706750D01*
X416992D01*
X419491Y705500D02*
X417825D01*
X419491Y707166D01*
Y707583D01*
X419075Y707999D01*
X418242D01*
X417825Y707583D01*
X420324Y705917D02*
X420741Y705500D01*
X421574D01*
X421990Y705917D01*
Y707583D01*
X421574Y707999D01*
X420741D01*
X420324Y707583D01*
Y707166D01*
X420741Y706750D01*
X421990D01*
X422823Y705500D02*
Y707166D01*
X423240D01*
X423656Y706750D01*
Y705500D01*
Y706750D01*
X424073Y707166D01*
X424489Y706750D01*
Y705500D01*
X425322D02*
Y707166D01*
X425739D01*
X426156Y706750D01*
Y705500D01*
Y706750D01*
X426572Y707166D01*
X426989Y706750D01*
Y705500D01*
X398250Y700833D02*
X398667Y701249D01*
X399500D01*
X399916Y700833D01*
Y699166D01*
X399500Y698750D01*
X398667D01*
X398250Y699166D01*
Y700833D01*
X400749Y698750D02*
Y699166D01*
X401166D01*
Y698750D01*
X400749D01*
X404498D02*
X402832D01*
X404498Y700416D01*
Y700833D01*
X404081Y701249D01*
X403248D01*
X402832Y700833D01*
X405331Y701249D02*
X406997D01*
Y700833D01*
X405331Y699166D01*
Y698750D01*
X407830D02*
X408663D01*
X408247D01*
Y700416D01*
X407830D01*
X409913Y698750D02*
Y700416D01*
X411163D01*
X411579Y700000D01*
Y698750D01*
X412412D02*
X414078Y700416D01*
X416577Y701249D02*
X415744Y700833D01*
X414911Y700000D01*
Y699166D01*
X415328Y698750D01*
X416161D01*
X416577Y699166D01*
Y699583D01*
X416161Y700000D01*
X414911D01*
X417411Y698750D02*
Y699166D01*
X417827D01*
Y698750D01*
X417411D01*
X419493Y700833D02*
X419910Y701249D01*
X420743D01*
X421159Y700833D01*
Y700416D01*
X420743Y700000D01*
X421159Y699583D01*
Y699166D01*
X420743Y698750D01*
X419910D01*
X419493Y699166D01*
Y699583D01*
X419910Y700000D01*
X419493Y700416D01*
Y700833D01*
X419910Y700000D02*
X420743D01*
X423658Y701249D02*
X421992D01*
Y700000D01*
X422825Y700416D01*
X423242D01*
X423658Y700000D01*
Y699166D01*
X423242Y698750D01*
X422409D01*
X421992Y699166D01*
X424492Y700833D02*
X424908Y701249D01*
X425741D01*
X426158Y700833D01*
Y700416D01*
X425741Y700000D01*
X426158Y699583D01*
Y699166D01*
X425741Y698750D01*
X424908D01*
X424492Y699166D01*
Y699583D01*
X424908Y700000D01*
X424492Y700416D01*
Y700833D01*
X424908Y700000D02*
X425741D01*
X426991Y698750D02*
Y700416D01*
X427407D01*
X427824Y700000D01*
Y698750D01*
Y700000D01*
X428240Y700416D01*
X428657Y700000D01*
Y698750D01*
X429490D02*
Y700416D01*
X429906D01*
X430323Y700000D01*
Y698750D01*
Y700000D01*
X430739Y700416D01*
X431156Y700000D01*
Y698750D01*
M02*
