G04*
G04 #@! TF.GenerationSoftware,Altium Limited,Altium Designer,18.1.7 (191)*
G04*
G04 Layer_Color=255*
%FSLAX25Y25*%
%MOIN*%
G70*
G01*
G75*
%ADD18O,0.01181X0.04921*%
%ADD19O,0.04921X0.01181*%
%ADD20R,0.04921X0.01181*%
%ADD21R,0.03937X0.05906*%
%ADD22R,0.05118X0.02559*%
%ADD23R,0.12992X0.09449*%
%ADD24R,0.03937X0.09449*%
%ADD25R,0.04375X0.02365*%
%ADD27R,0.04000X0.09000*%
%ADD28R,0.04000X0.03000*%
%ADD29R,0.03740X0.06299*%
%ADD30R,0.03543X0.02953*%
%ADD31R,0.02165X0.02165*%
%ADD32R,0.08189X0.08189*%
%ADD33O,0.03347X0.01181*%
%ADD34O,0.01181X0.03347*%
%ADD35R,0.03543X0.02756*%
%ADD36R,0.03347X0.02756*%
%ADD37R,0.03937X0.03543*%
G04:AMPARAMS|DCode=38|XSize=35.43mil|YSize=39.37mil|CornerRadius=8.86mil|HoleSize=0mil|Usage=FLASHONLY|Rotation=90.000|XOffset=0mil|YOffset=0mil|HoleType=Round|Shape=RoundedRectangle|*
%AMROUNDEDRECTD38*
21,1,0.03543,0.02165,0,0,90.0*
21,1,0.01772,0.03937,0,0,90.0*
1,1,0.01772,0.01083,0.00886*
1,1,0.01772,0.01083,-0.00886*
1,1,0.01772,-0.01083,-0.00886*
1,1,0.01772,-0.01083,0.00886*
%
%ADD38ROUNDEDRECTD38*%
%ADD39R,0.06299X0.03740*%
%ADD40R,0.02756X0.03347*%
%ADD41R,0.02441X0.02441*%
%ADD42R,0.02441X0.02441*%
%ADD43R,0.02165X0.02165*%
%ADD44R,0.02165X0.02165*%
%ADD53R,0.03937X0.01378*%
%ADD54R,0.01378X0.03937*%
%ADD81C,0.06100*%
%ADD82C,0.08800*%
%ADD91R,0.08504X0.08504*%
%ADD93C,0.16000*%
%ADD94C,0.14961*%
%ADD95C,0.06299*%
%ADD96R,0.06299X0.06299*%
%ADD97C,0.02598*%
%ADD98R,0.06496X0.06496*%
%ADD99C,0.06496*%
%ADD100R,0.03937X0.03937*%
%ADD101C,0.03937*%
%ADD102C,0.05512*%
%ADD103R,0.05512X0.05512*%
%ADD104C,0.06004*%
%ADD105C,0.10925*%
%ADD106C,0.16831*%
%ADD107C,0.14764*%
%ADD108C,0.19311*%
D18*
X623287Y573350D02*
D03*
X625256D02*
D03*
X627224D02*
D03*
X629193D02*
D03*
X631161D02*
D03*
X633130D02*
D03*
X635098D02*
D03*
X637067D02*
D03*
X639035D02*
D03*
X641004D02*
D03*
X642972D02*
D03*
X644941D02*
D03*
X646909D02*
D03*
X648878D02*
D03*
X650846D02*
D03*
X652815D02*
D03*
Y529452D02*
D03*
X650846D02*
D03*
X648878D02*
D03*
X646909D02*
D03*
X644941D02*
D03*
X642972D02*
D03*
X641004D02*
D03*
X639035D02*
D03*
X637067D02*
D03*
X635098D02*
D03*
X633130D02*
D03*
X631161D02*
D03*
X629193D02*
D03*
X627224D02*
D03*
X625256D02*
D03*
X623287D02*
D03*
D19*
X660000Y566165D02*
D03*
Y564197D02*
D03*
Y562228D02*
D03*
Y560260D02*
D03*
Y558291D02*
D03*
Y556323D02*
D03*
Y554354D02*
D03*
Y552386D02*
D03*
Y550417D02*
D03*
Y548449D02*
D03*
Y546480D02*
D03*
Y544512D02*
D03*
Y542543D02*
D03*
Y540575D02*
D03*
Y538606D02*
D03*
Y536638D02*
D03*
X616102D02*
D03*
Y538606D02*
D03*
Y540575D02*
D03*
Y542543D02*
D03*
Y544512D02*
D03*
Y546480D02*
D03*
Y548449D02*
D03*
Y550417D02*
D03*
Y552386D02*
D03*
Y554354D02*
D03*
Y556323D02*
D03*
Y558291D02*
D03*
Y560260D02*
D03*
Y562228D02*
D03*
Y564197D02*
D03*
D20*
Y566165D02*
D03*
D21*
X619500Y620043D02*
D03*
X628161D02*
D03*
X595941Y667500D02*
D03*
X587280D02*
D03*
D22*
X490760Y448314D02*
D03*
X498240Y452054D02*
D03*
Y444574D02*
D03*
D23*
X684000Y454917D02*
D03*
D24*
X693055Y432083D02*
D03*
X684000D02*
D03*
X674945D02*
D03*
D25*
X478000Y433000D02*
D03*
X491583D02*
D03*
X478417Y416000D02*
D03*
X492000D02*
D03*
D27*
X270000Y329984D02*
D03*
X276969Y329984D02*
D03*
X91579Y330000D02*
D03*
X98548Y330000D02*
D03*
X144969D02*
D03*
X138000Y330000D02*
D03*
X201032Y329500D02*
D03*
X208000Y329500D02*
D03*
X327469D02*
D03*
X320500Y329500D02*
D03*
X592500Y330000D02*
D03*
X599468Y330001D02*
D03*
X629193Y331500D02*
D03*
X622225Y331500D02*
D03*
X659000Y330984D02*
D03*
X652032Y330984D02*
D03*
D28*
X270000Y322500D02*
D03*
X276968D02*
D03*
X91579Y322516D02*
D03*
X98548D02*
D03*
X144969D02*
D03*
X138000D02*
D03*
X201031Y322016D02*
D03*
X208000D02*
D03*
X327469D02*
D03*
X320500D02*
D03*
X592500Y322516D02*
D03*
X599468D02*
D03*
X629193Y324016D02*
D03*
X622224D02*
D03*
X659000Y323500D02*
D03*
X652031D02*
D03*
D29*
X692216Y594543D02*
D03*
X681783D02*
D03*
X712717Y594543D02*
D03*
X702284D02*
D03*
D30*
X609500Y501658D02*
D03*
Y496343D02*
D03*
X591661Y496343D02*
D03*
Y501657D02*
D03*
X583500Y496185D02*
D03*
Y501500D02*
D03*
X619000Y501838D02*
D03*
Y496523D02*
D03*
X600000Y501658D02*
D03*
Y496343D02*
D03*
X626724Y501681D02*
D03*
Y496366D02*
D03*
D31*
X631772Y628815D02*
D03*
X628228D02*
D03*
X615000Y602500D02*
D03*
X611457D02*
D03*
X594772Y625197D02*
D03*
X591228D02*
D03*
X653772Y635271D02*
D03*
X650228D02*
D03*
X654000Y629043D02*
D03*
X650457D02*
D03*
X605833Y670500D02*
D03*
X609377D02*
D03*
D32*
X601661Y649023D02*
D03*
D33*
X594181Y645185D02*
D03*
Y647744D02*
D03*
Y650303D02*
D03*
Y652862D02*
D03*
X609142D02*
D03*
Y650303D02*
D03*
Y647744D02*
D03*
Y645185D02*
D03*
D34*
X597823Y656504D02*
D03*
X600382D02*
D03*
X602941D02*
D03*
X605500D02*
D03*
Y641543D02*
D03*
X602941D02*
D03*
X600382D02*
D03*
X597823D02*
D03*
D35*
X520500Y452000D02*
D03*
Y457905D02*
D03*
D36*
X700000Y398744D02*
D03*
Y404256D02*
D03*
X708000Y441244D02*
D03*
Y446756D02*
D03*
D37*
X688500Y554354D02*
D03*
D38*
Y563015D02*
D03*
X682201D02*
D03*
Y554354D02*
D03*
D39*
X728000Y438283D02*
D03*
Y448716D02*
D03*
X636657Y438165D02*
D03*
Y448598D02*
D03*
X650000Y438327D02*
D03*
Y448760D02*
D03*
X717500Y438283D02*
D03*
Y448716D02*
D03*
D40*
X567851Y463811D02*
D03*
X573363D02*
D03*
X605744Y591500D02*
D03*
X611256D02*
D03*
X644547Y510767D02*
D03*
X639035D02*
D03*
D41*
X622500Y655189D02*
D03*
Y658811D02*
D03*
X709500Y398378D02*
D03*
Y402000D02*
D03*
X686216Y408869D02*
D03*
Y412491D02*
D03*
X679716Y408869D02*
D03*
Y412491D02*
D03*
X693716Y408869D02*
D03*
Y412491D02*
D03*
X660000Y442189D02*
D03*
Y445811D02*
D03*
X648342Y515421D02*
D03*
Y519043D02*
D03*
X609142Y548311D02*
D03*
Y544689D02*
D03*
X682500Y541811D02*
D03*
Y538189D02*
D03*
X656000Y515689D02*
D03*
Y519311D02*
D03*
X699000Y560622D02*
D03*
Y557000D02*
D03*
X686421Y572311D02*
D03*
Y568689D02*
D03*
X677221Y538000D02*
D03*
Y541622D02*
D03*
X696500Y541189D02*
D03*
Y544811D02*
D03*
X615500Y655189D02*
D03*
Y658811D02*
D03*
D42*
X629189Y589000D02*
D03*
X632811D02*
D03*
X606189Y585000D02*
D03*
X609811D02*
D03*
X610311Y577000D02*
D03*
X606689D02*
D03*
X640197Y495267D02*
D03*
X643819D02*
D03*
Y502724D02*
D03*
X640197D02*
D03*
D43*
X637500Y593086D02*
D03*
Y589543D02*
D03*
X689500Y541228D02*
D03*
Y544771D02*
D03*
X599356Y614389D02*
D03*
Y610846D02*
D03*
X605500Y611271D02*
D03*
Y614815D02*
D03*
D44*
X591272Y619043D02*
D03*
X587728D02*
D03*
D53*
X576808Y438839D02*
D03*
Y436280D02*
D03*
Y433721D02*
D03*
Y431161D02*
D03*
X561848D02*
D03*
Y433721D02*
D03*
Y436280D02*
D03*
Y438839D02*
D03*
D54*
X573167Y427520D02*
D03*
X570608D02*
D03*
X568048D02*
D03*
X565489D02*
D03*
Y442480D02*
D03*
X568048D02*
D03*
X570608D02*
D03*
X573167D02*
D03*
D81*
X91829Y393000D02*
D03*
Y402843D02*
D03*
D82*
X467000Y559500D02*
D03*
Y546500D02*
D03*
X520000Y559500D02*
D03*
Y546500D02*
D03*
X459500Y639071D02*
D03*
Y626071D02*
D03*
X512500Y639071D02*
D03*
Y626071D02*
D03*
X461500Y706500D02*
D03*
Y693500D02*
D03*
X514500Y706500D02*
D03*
Y693500D02*
D03*
D91*
X569328Y435000D02*
D03*
D93*
X80000Y275500D02*
D03*
X725500Y276500D02*
D03*
X724000Y733500D02*
D03*
X79000D02*
D03*
D94*
X687890Y614641D02*
D03*
Y662043D02*
D03*
D95*
X677221Y633421D02*
D03*
Y643263D02*
D03*
X669347Y633421D02*
D03*
D96*
Y643263D02*
D03*
D97*
X603601Y646991D02*
D03*
Y651141D02*
D03*
X599428D02*
D03*
Y646991D02*
D03*
D98*
X123500Y448500D02*
D03*
X123000Y353500D02*
D03*
D99*
X123500Y508500D02*
D03*
X233500D02*
D03*
Y448500D02*
D03*
X542694Y299000D02*
D03*
X533402D02*
D03*
X465528D02*
D03*
X456237D02*
D03*
X388363D02*
D03*
X379071D02*
D03*
X123000Y413500D02*
D03*
X233000D02*
D03*
Y353500D02*
D03*
D100*
X632500Y601043D02*
D03*
D101*
X637500D02*
D03*
X642500D02*
D03*
X647500D02*
D03*
X652500D02*
D03*
D102*
X638157Y657543D02*
D03*
D103*
X648000D02*
D03*
D104*
X714780Y382354D02*
D03*
Y319205D02*
D03*
X413000Y575083D02*
D03*
Y526500D02*
D03*
X408000Y660291D02*
D03*
Y611709D02*
D03*
X408720Y726291D02*
D03*
Y677709D02*
D03*
X563279Y608587D02*
D03*
Y671736D02*
D03*
D105*
X713500Y362000D02*
D03*
Y339559D02*
D03*
X691059Y362000D02*
D03*
Y339559D02*
D03*
X414280Y550791D02*
D03*
X436721D02*
D03*
X409279Y636000D02*
D03*
X431720D02*
D03*
X410000Y702000D02*
D03*
X432441D02*
D03*
X539559Y628941D02*
D03*
Y651382D02*
D03*
X562000Y628941D02*
D03*
Y651382D02*
D03*
D106*
X272559Y651882D02*
D03*
Y671567D02*
D03*
X311929Y651882D02*
D03*
Y671567D02*
D03*
X334488Y707000D02*
D03*
X250000D02*
D03*
X100571Y710433D02*
D03*
X185059D02*
D03*
X162500Y675000D02*
D03*
Y655315D02*
D03*
X123130Y675000D02*
D03*
Y655315D02*
D03*
D107*
X531355Y369079D02*
D03*
X516394D02*
D03*
X501434D02*
D03*
X486473D02*
D03*
X435292D02*
D03*
X420331D02*
D03*
X405371D02*
D03*
X390410D02*
D03*
D108*
X310620Y538459D02*
D03*
X236730Y600460D02*
D03*
X259000Y627000D02*
D03*
X332890Y564999D02*
D03*
X195500Y541189D02*
D03*
X121610Y603190D02*
D03*
X143880Y629730D02*
D03*
X217770Y567729D02*
D03*
M02*
