G04*
G04 #@! TF.GenerationSoftware,Altium Limited,Altium Designer,18.1.7 (191)*
G04*
G04 Layer_Color=255*
%FSLAX25Y25*%
%MOIN*%
G70*
G01*
G75*
%ADD81C,0.06100*%
%ADD82C,0.08800*%
%ADD93C,0.16000*%
%ADD94C,0.14961*%
%ADD95C,0.06299*%
%ADD96R,0.06299X0.06299*%
%ADD97C,0.02598*%
%ADD98R,0.06496X0.06496*%
%ADD99C,0.06496*%
%ADD100R,0.03937X0.03937*%
%ADD101C,0.03937*%
%ADD102C,0.05512*%
%ADD103R,0.05512X0.05512*%
%ADD104C,0.06004*%
%ADD105C,0.10925*%
%ADD106C,0.16831*%
%ADD107C,0.14764*%
%ADD108C,0.19311*%
D81*
X91829Y393000D02*
D03*
Y402843D02*
D03*
D82*
X467000Y559500D02*
D03*
Y546500D02*
D03*
X520000Y559500D02*
D03*
Y546500D02*
D03*
X459500Y639071D02*
D03*
Y626071D02*
D03*
X512500Y639071D02*
D03*
Y626071D02*
D03*
X461500Y706500D02*
D03*
Y693500D02*
D03*
X514500Y706500D02*
D03*
Y693500D02*
D03*
D93*
X80000Y275500D02*
D03*
X725500Y276500D02*
D03*
X724000Y733500D02*
D03*
X79000D02*
D03*
D94*
X687890Y614641D02*
D03*
Y662043D02*
D03*
D95*
X677221Y633421D02*
D03*
Y643263D02*
D03*
X669347Y633421D02*
D03*
D96*
Y643263D02*
D03*
D97*
X603601Y646991D02*
D03*
Y651141D02*
D03*
X599428D02*
D03*
Y646991D02*
D03*
D98*
X123500Y448500D02*
D03*
X123000Y353500D02*
D03*
D99*
X123500Y508500D02*
D03*
X233500D02*
D03*
Y448500D02*
D03*
X542694Y299000D02*
D03*
X533402D02*
D03*
X465528D02*
D03*
X456237D02*
D03*
X388363D02*
D03*
X379071D02*
D03*
X123000Y413500D02*
D03*
X233000D02*
D03*
Y353500D02*
D03*
D100*
X632500Y601043D02*
D03*
D101*
X637500D02*
D03*
X642500D02*
D03*
X647500D02*
D03*
X652500D02*
D03*
D102*
X638157Y657543D02*
D03*
D103*
X648000D02*
D03*
D104*
X714780Y382354D02*
D03*
Y319205D02*
D03*
X413000Y575083D02*
D03*
Y526500D02*
D03*
X408000Y660291D02*
D03*
Y611709D02*
D03*
X408720Y726291D02*
D03*
Y677709D02*
D03*
X563279Y608587D02*
D03*
Y671736D02*
D03*
D105*
X713500Y362000D02*
D03*
Y339559D02*
D03*
X691059Y362000D02*
D03*
Y339559D02*
D03*
X414280Y550791D02*
D03*
X436721D02*
D03*
X409279Y636000D02*
D03*
X431720D02*
D03*
X410000Y702000D02*
D03*
X432441D02*
D03*
X539559Y628941D02*
D03*
Y651382D02*
D03*
X562000Y628941D02*
D03*
Y651382D02*
D03*
D106*
X272559Y651882D02*
D03*
Y671567D02*
D03*
X311929Y651882D02*
D03*
Y671567D02*
D03*
X334488Y707000D02*
D03*
X250000D02*
D03*
X100571Y710433D02*
D03*
X185059D02*
D03*
X162500Y675000D02*
D03*
Y655315D02*
D03*
X123130Y675000D02*
D03*
Y655315D02*
D03*
D107*
X531355Y369079D02*
D03*
X516394D02*
D03*
X501434D02*
D03*
X486473D02*
D03*
X435292D02*
D03*
X420331D02*
D03*
X405371D02*
D03*
X390410D02*
D03*
D108*
X310620Y538459D02*
D03*
X236730Y600460D02*
D03*
X259000Y627000D02*
D03*
X332890Y564999D02*
D03*
X195500Y541189D02*
D03*
X121610Y603190D02*
D03*
X143880Y629730D02*
D03*
X217770Y567729D02*
D03*
M02*
