M48
;Layer_Color=9474304
;FILE_FORMAT=2:5
INCH,LZ
;TYPE=PLATED
T1F00S00C0.01200
T2F00S00C0.01201
T3F00S00C0.01500
T4F00S00C0.02362
T5F00S00C0.03622
T6F00S00C0.04213
T7F00S00C0.04724
T8F00S00C0.04921
T9F00S00C0.07087
T10F00S00C0.07500
T11F00S00C0.09055
;TYPE=NON_PLATED
T12F00S00C0.05197
T13F00S00C0.05315
T14F00S00C0.06299
T15F00S00C0.11811
%
T01
X0502Y0189823
X05305Y0193311
X05395Y0225
X05595Y0226
X0447Y0205
Y02005
Y0196
Y01915
Y0187
Y01825
X04285Y02335
X04235Y0252
X04305Y0258
X04155
X0407Y02535
X04Y02435
X0403Y0239
X039Y02375
X03745Y0233
X0376Y0254
X03715
X0364Y02595
X036
X0356Y02565
X0357Y02525
X0351Y0258
X0348Y02605
X03375Y0247
X03285
X03255Y02515
X03265Y02905
Y0294
X03955Y0292
X0406Y0286
X04205
X04105Y0298
X0396Y02645
X0383Y0257
Y0251
X038Y02045
X03745
X032Y0169
X045Y0255
X0301Y02585
X0263Y02595
X0241Y02445
X02735Y02315
X028Y03135
X0268Y0351
X0269Y0372
X0274Y03855
X0287Y03975
X0298Y0369
X0243Y0372
X02385
X0234433Y0395761
X0244Y0404
X02455Y0416
X02345Y04265
X02665Y04255
X0308Y04315
X02925Y0449
X03205Y04315
X0336Y04145
X03335Y0409915
X0329Y03965
Y0391
X03355Y03805
X03445Y0386
X0358Y03805
X0368Y0383
X03885Y03845
X04025
X0405424Y0403
X0421Y04095
X0424Y0413
X04295Y0388
X04685Y0393581
X04465Y0427
X0405Y04315
X0394
X0405Y0446
X03795Y04455
X0357Y04255
X0366Y03425
X0343Y0339
X03475Y03325
X0351Y03255
X0354Y0318
X03615Y0317
X03835Y03175
X0381Y03205
X039Y0326
Y03345
X03985Y0321
X0395Y03135
X0445Y0336
X0484Y0318
X05Y03295
X04845Y043
X0469Y0447083
T02
X0413468Y023306
X0417618
Y0237233
X0413468
T03
X02665Y03965
Y040422
Y04115
X0356974Y0410766
X0357Y0403618
Y0396429
X0446Y0395661
Y0403118
Y0411
T04
X03025Y02015
Y0211342
X0306Y02985
Y03035
Y03085
Y03135
Y03185
T05
X0270169Y0198378
X0278043
Y020822
X0270169
T06
X0262189Y04635
X0274
X0352189
X0364
X0441189
X0453
T07
X05595Y0268472
X0569343
Y0278315
Y0288158
Y0298
Y0307842
X05595
Y0298
Y0288158
Y0278315
Y0317685
X0569343
T08
X05635Y0337
Y0346843
Y0356685
Y0366528
Y037637
Y0386213
T09
X0282965Y0338539
X0304618
Y036098
X0282965
Y0383421
X0304618
T10
X0569791Y0169
X0226
Y04665
X0569791
T11
X02595Y0179598
Y0227
T12
X0250378Y0455784
X0285811
X0340378
X0375811
X0429378
X0464811
T13
X0568776Y0361606
T14
X0531232Y0268472
Y0317685
T15
X0254224Y0338579
Y0383421
M30
