G04 #@! TF.GenerationSoftware,KiCad,Pcbnew,(5.1.10)-1*
G04 #@! TF.CreationDate,2021-06-08T20:52:12+03:00*
G04 #@! TF.ProjectId,ScienceBoard-1,53636965-6e63-4654-926f-6172642d312e,rev?*
G04 #@! TF.SameCoordinates,Original*
G04 #@! TF.FileFunction,Legend,Top*
G04 #@! TF.FilePolarity,Positive*
%FSLAX46Y46*%
G04 Gerber Fmt 4.6, Leading zero omitted, Abs format (unit mm)*
G04 Created by KiCad (PCBNEW (5.1.10)-1) date 2021-06-08 20:52:12*
%MOMM*%
%LPD*%
G01*
G04 APERTURE LIST*
%ADD10C,0.120000*%
%ADD11C,0.127000*%
%ADD12C,0.150000*%
%ADD13C,0.015000*%
G04 APERTURE END LIST*
D10*
X117566000Y-45998000D02*
X123576000Y-45998000D01*
X119816000Y-52818000D02*
X123576000Y-52818000D01*
X123576000Y-45998000D02*
X123576000Y-47258000D01*
X123576000Y-52818000D02*
X123576000Y-51558000D01*
D11*
X54998000Y-45930000D02*
X54998000Y-48030000D01*
X57298000Y-45930000D02*
X54998000Y-45930000D01*
X63798000Y-45930000D02*
X59798000Y-45930000D01*
X65398000Y-53330000D02*
X65398000Y-46830000D01*
X57998000Y-53330000D02*
X65398000Y-53330000D01*
X54998000Y-53330000D02*
X55498000Y-53330000D01*
X54998000Y-51030000D02*
X54998000Y-53330000D01*
X53798000Y-51030000D02*
X54998000Y-51030000D01*
X53798000Y-48030000D02*
X53798000Y-51030000D01*
X54998000Y-48030000D02*
X53798000Y-48030000D01*
D10*
X58872000Y-56894000D02*
X58872000Y-55434000D01*
X62032000Y-56894000D02*
X62032000Y-54734000D01*
X62032000Y-56894000D02*
X61102000Y-56894000D01*
X58872000Y-56894000D02*
X59802000Y-56894000D01*
X94020000Y-90207000D02*
X88260000Y-90207000D01*
X94020000Y-88787000D02*
X94020000Y-90207000D01*
X93520000Y-88787000D02*
X94020000Y-88787000D01*
X93520000Y-78757000D02*
X93520000Y-88787000D01*
X94020000Y-78757000D02*
X93520000Y-78757000D01*
X94020000Y-77337000D02*
X94020000Y-78757000D01*
X88260000Y-77337000D02*
X94020000Y-77337000D01*
X86430000Y-90207000D02*
X86740000Y-90207000D01*
X86430000Y-77337000D02*
X86430000Y-90207000D01*
X86740000Y-77337000D02*
X86430000Y-77337000D01*
X54192000Y-89675000D02*
X54192000Y-87265000D01*
X56602000Y-89675000D02*
X54192000Y-89675000D01*
X68742000Y-83280000D02*
X68742000Y-85090000D01*
X67192000Y-83280000D02*
X68742000Y-83280000D01*
X67192000Y-80805000D02*
X67192000Y-83280000D01*
X54492000Y-80805000D02*
X67192000Y-80805000D01*
X54492000Y-85090000D02*
X54492000Y-80805000D01*
X68742000Y-86900000D02*
X68742000Y-85090000D01*
X67192000Y-86900000D02*
X68742000Y-86900000D01*
X67192000Y-89375000D02*
X67192000Y-86900000D01*
X54492000Y-89375000D02*
X67192000Y-89375000D01*
X54492000Y-85090000D02*
X54492000Y-89375000D01*
X65697000Y-78920000D02*
X65697000Y-80805000D01*
X62177000Y-78920000D02*
X62177000Y-80805000D01*
X65697000Y-91260000D02*
X65697000Y-89375000D01*
X62177000Y-91260000D02*
X62177000Y-89375000D01*
X65697000Y-78920000D02*
G75*
G03*
X62177000Y-78920000I-1760000J0D01*
G01*
X62177000Y-91260000D02*
G75*
G03*
X65697000Y-91260000I1760000J0D01*
G01*
X119724000Y-86928000D02*
X121174000Y-86928000D01*
X119724000Y-79188000D02*
X119724000Y-86928000D01*
X124624000Y-79188000D02*
X119724000Y-79188000D01*
X124624000Y-86928000D02*
X124624000Y-79188000D01*
X123174000Y-86928000D02*
X124624000Y-86928000D01*
X121174000Y-86928000D02*
G75*
G02*
X123174000Y-86928000I1000000J0D01*
G01*
X179742000Y-54550000D02*
X178292000Y-54550000D01*
X179742000Y-62290000D02*
X179742000Y-54550000D01*
X174842000Y-62290000D02*
X179742000Y-62290000D01*
X174842000Y-54550000D02*
X174842000Y-62290000D01*
X176292000Y-54550000D02*
X174842000Y-54550000D01*
X178292000Y-54550000D02*
G75*
G02*
X176292000Y-54550000I-1000000J0D01*
G01*
X122738000Y-70976000D02*
X122738000Y-70376000D01*
X121138000Y-70976000D02*
X122738000Y-70976000D01*
X121138000Y-70376000D02*
X121138000Y-70976000D01*
X120198000Y-70976000D02*
X120198000Y-70376000D01*
X118598000Y-70976000D02*
X120198000Y-70976000D01*
X118598000Y-70376000D02*
X118598000Y-70976000D01*
X121688000Y-76396000D02*
X121688000Y-75396000D01*
X119648000Y-76396000D02*
X119648000Y-75396000D01*
X121688000Y-74866000D02*
X121938000Y-75396000D01*
X119648000Y-74866000D02*
X121688000Y-74866000D01*
X119398000Y-75396000D02*
X119648000Y-74866000D01*
X121938000Y-75396000D02*
X121938000Y-76396000D01*
X119398000Y-75396000D02*
X121938000Y-75396000D01*
X119398000Y-76396000D02*
X119398000Y-75396000D01*
X117728000Y-71406000D02*
X117728000Y-75406000D01*
X123318000Y-70376000D02*
X118018000Y-70376000D01*
X123318000Y-76396000D02*
X123318000Y-70376000D01*
X118018000Y-76396000D02*
X123318000Y-76396000D01*
X118018000Y-70376000D02*
X118018000Y-76396000D01*
X115608000Y-70976000D02*
X115608000Y-70376000D01*
X114008000Y-70976000D02*
X115608000Y-70976000D01*
X114008000Y-70376000D02*
X114008000Y-70976000D01*
X113068000Y-70976000D02*
X113068000Y-70376000D01*
X111468000Y-70976000D02*
X113068000Y-70976000D01*
X111468000Y-70376000D02*
X111468000Y-70976000D01*
X114558000Y-76396000D02*
X114558000Y-75396000D01*
X112518000Y-76396000D02*
X112518000Y-75396000D01*
X114558000Y-74866000D02*
X114808000Y-75396000D01*
X112518000Y-74866000D02*
X114558000Y-74866000D01*
X112268000Y-75396000D02*
X112518000Y-74866000D01*
X114808000Y-75396000D02*
X114808000Y-76396000D01*
X112268000Y-75396000D02*
X114808000Y-75396000D01*
X112268000Y-76396000D02*
X112268000Y-75396000D01*
X110598000Y-71406000D02*
X110598000Y-75406000D01*
X116188000Y-70376000D02*
X110888000Y-70376000D01*
X116188000Y-76396000D02*
X116188000Y-70376000D01*
X110888000Y-76396000D02*
X116188000Y-76396000D01*
X110888000Y-70376000D02*
X110888000Y-76396000D01*
X110200000Y-51960000D02*
X108740000Y-51960000D01*
X110200000Y-48800000D02*
X108040000Y-48800000D01*
X110200000Y-48800000D02*
X110200000Y-49730000D01*
X110200000Y-51960000D02*
X110200000Y-51030000D01*
X114190000Y-83858000D02*
X114790000Y-83858000D01*
X114190000Y-82258000D02*
X114190000Y-83858000D01*
X114790000Y-82258000D02*
X114190000Y-82258000D01*
X114190000Y-81318000D02*
X114790000Y-81318000D01*
X114190000Y-79718000D02*
X114190000Y-81318000D01*
X114790000Y-79718000D02*
X114190000Y-79718000D01*
X108770000Y-82808000D02*
X109770000Y-82808000D01*
X108770000Y-80768000D02*
X109770000Y-80768000D01*
X110300000Y-82808000D02*
X109770000Y-83058000D01*
X110300000Y-80768000D02*
X110300000Y-82808000D01*
X109770000Y-80518000D02*
X110300000Y-80768000D01*
X109770000Y-83058000D02*
X108770000Y-83058000D01*
X109770000Y-80518000D02*
X109770000Y-83058000D01*
X108770000Y-80518000D02*
X109770000Y-80518000D01*
X113760000Y-78848000D02*
X109760000Y-78848000D01*
X114790000Y-84438000D02*
X114790000Y-79138000D01*
X108770000Y-84438000D02*
X114790000Y-84438000D01*
X108770000Y-79138000D02*
X108770000Y-84438000D01*
X114790000Y-79138000D02*
X108770000Y-79138000D01*
X101130000Y-47354000D02*
X101130000Y-46754000D01*
X99530000Y-47354000D02*
X101130000Y-47354000D01*
X99530000Y-46754000D02*
X99530000Y-47354000D01*
X98590000Y-47354000D02*
X98590000Y-46754000D01*
X96990000Y-47354000D02*
X98590000Y-47354000D01*
X96990000Y-46754000D02*
X96990000Y-47354000D01*
X100080000Y-52774000D02*
X100080000Y-51774000D01*
X98040000Y-52774000D02*
X98040000Y-51774000D01*
X100080000Y-51244000D02*
X100330000Y-51774000D01*
X98040000Y-51244000D02*
X100080000Y-51244000D01*
X97790000Y-51774000D02*
X98040000Y-51244000D01*
X100330000Y-51774000D02*
X100330000Y-52774000D01*
X97790000Y-51774000D02*
X100330000Y-51774000D01*
X97790000Y-52774000D02*
X97790000Y-51774000D01*
X96120000Y-47784000D02*
X96120000Y-51784000D01*
X101710000Y-46754000D02*
X96410000Y-46754000D01*
X101710000Y-52774000D02*
X101710000Y-46754000D01*
X96410000Y-52774000D02*
X101710000Y-52774000D01*
X96410000Y-46754000D02*
X96410000Y-52774000D01*
X100640000Y-43690000D02*
X99710000Y-43690000D01*
X97480000Y-43690000D02*
X98410000Y-43690000D01*
X97480000Y-43690000D02*
X97480000Y-45850000D01*
X100640000Y-43690000D02*
X100640000Y-45150000D01*
X78321000Y-83423000D02*
X83592000Y-83423000D01*
X78321000Y-87032000D02*
X83592000Y-87032000D01*
X78321000Y-77158000D02*
X83592000Y-77158000D01*
X78321000Y-93298000D02*
X83592000Y-93298000D01*
X83592000Y-93298000D02*
X83592000Y-77158000D01*
X78321000Y-93298000D02*
X78321000Y-77158000D01*
X66710000Y-75590000D02*
X66710000Y-42498000D01*
X66710000Y-42498000D02*
X93888000Y-42498000D01*
X93888000Y-42498000D02*
X93888000Y-75590000D01*
X93888000Y-75590000D02*
X66710000Y-75590000D01*
X95356000Y-57563936D02*
X95356000Y-58768064D01*
X97176000Y-57563936D02*
X97176000Y-58768064D01*
X73168000Y-81244000D02*
X73168000Y-77344000D01*
X75168000Y-81244000D02*
X75168000Y-77344000D01*
X73168000Y-81244000D02*
X75168000Y-81244000D01*
X153780000Y-60160000D02*
X153180000Y-60160000D01*
X153780000Y-61760000D02*
X153780000Y-60160000D01*
X153180000Y-61760000D02*
X153780000Y-61760000D01*
X153780000Y-62700000D02*
X153180000Y-62700000D01*
X153780000Y-64300000D02*
X153780000Y-62700000D01*
X153180000Y-64300000D02*
X153780000Y-64300000D01*
X159200000Y-61210000D02*
X158200000Y-61210000D01*
X159200000Y-63250000D02*
X158200000Y-63250000D01*
X157670000Y-61210000D02*
X158200000Y-60960000D01*
X157670000Y-63250000D02*
X157670000Y-61210000D01*
X158200000Y-63500000D02*
X157670000Y-63250000D01*
X158200000Y-60960000D02*
X159200000Y-60960000D01*
X158200000Y-63500000D02*
X158200000Y-60960000D01*
X159200000Y-63500000D02*
X158200000Y-63500000D01*
X154210000Y-65170000D02*
X158210000Y-65170000D01*
X153180000Y-59580000D02*
X153180000Y-64880000D01*
X159200000Y-59580000D02*
X153180000Y-59580000D01*
X159200000Y-64880000D02*
X159200000Y-59580000D01*
X153180000Y-64880000D02*
X159200000Y-64880000D01*
X189709000Y-71666000D02*
X189709000Y-69466000D01*
X189709000Y-71666000D02*
X189709000Y-73866000D01*
X181639000Y-71666000D02*
X181639000Y-69466000D01*
X181639000Y-71666000D02*
X181639000Y-75316000D01*
X177545000Y-71656000D02*
X177545000Y-69456000D01*
X177545000Y-71656000D02*
X177545000Y-73856000D01*
X169475000Y-71656000D02*
X169475000Y-69456000D01*
X169475000Y-71656000D02*
X169475000Y-75306000D01*
X102975000Y-59815000D02*
X102975000Y-61315000D01*
X102975000Y-61315000D02*
X103245000Y-61315000D01*
X103245000Y-61315000D02*
X103245000Y-64145000D01*
X109875000Y-59815000D02*
X109875000Y-61315000D01*
X109875000Y-61315000D02*
X109605000Y-61315000D01*
X109605000Y-61315000D02*
X109605000Y-62415000D01*
X140832000Y-49937000D02*
X139332000Y-49937000D01*
X139332000Y-49937000D02*
X139332000Y-50627000D01*
X139332000Y-50627000D02*
X134207000Y-50627000D01*
X140832000Y-60337000D02*
X139332000Y-60337000D01*
X139332000Y-60337000D02*
X139332000Y-59647000D01*
X139332000Y-59647000D02*
X138232000Y-59647000D01*
X140856000Y-63869000D02*
X139356000Y-63869000D01*
X139356000Y-63869000D02*
X139356000Y-64559000D01*
X139356000Y-64559000D02*
X134231000Y-64559000D01*
X140856000Y-74269000D02*
X139356000Y-74269000D01*
X139356000Y-74269000D02*
X139356000Y-73579000D01*
X139356000Y-73579000D02*
X138256000Y-73579000D01*
X180556000Y-88028000D02*
X180556000Y-88628000D01*
X182156000Y-88028000D02*
X180556000Y-88028000D01*
X182156000Y-88628000D02*
X182156000Y-88028000D01*
X183096000Y-88028000D02*
X183096000Y-88628000D01*
X184696000Y-88028000D02*
X183096000Y-88028000D01*
X184696000Y-88628000D02*
X184696000Y-88028000D01*
X185636000Y-88028000D02*
X185636000Y-88628000D01*
X187236000Y-88028000D02*
X185636000Y-88028000D01*
X187236000Y-88628000D02*
X187236000Y-88028000D01*
X188176000Y-88028000D02*
X188176000Y-88628000D01*
X189776000Y-88028000D02*
X188176000Y-88028000D01*
X189776000Y-88628000D02*
X189776000Y-88028000D01*
X181606000Y-82608000D02*
X181606000Y-83608000D01*
X188726000Y-82608000D02*
X188726000Y-83608000D01*
X181606000Y-84138000D02*
X181356000Y-83608000D01*
X188726000Y-84138000D02*
X181606000Y-84138000D01*
X188976000Y-83608000D02*
X188726000Y-84138000D01*
X181356000Y-83608000D02*
X181356000Y-82608000D01*
X188976000Y-83608000D02*
X181356000Y-83608000D01*
X188976000Y-82608000D02*
X188976000Y-83608000D01*
X190646000Y-87598000D02*
X190646000Y-83598000D01*
X179976000Y-88628000D02*
X190356000Y-88628000D01*
X179976000Y-82608000D02*
X179976000Y-88628000D01*
X190356000Y-82608000D02*
X179976000Y-82608000D01*
X190356000Y-88628000D02*
X190356000Y-82608000D01*
X169126000Y-88028000D02*
X169126000Y-88628000D01*
X170726000Y-88028000D02*
X169126000Y-88028000D01*
X170726000Y-88628000D02*
X170726000Y-88028000D01*
X171666000Y-88028000D02*
X171666000Y-88628000D01*
X173266000Y-88028000D02*
X171666000Y-88028000D01*
X173266000Y-88628000D02*
X173266000Y-88028000D01*
X174206000Y-88028000D02*
X174206000Y-88628000D01*
X175806000Y-88028000D02*
X174206000Y-88028000D01*
X175806000Y-88628000D02*
X175806000Y-88028000D01*
X176746000Y-88028000D02*
X176746000Y-88628000D01*
X178346000Y-88028000D02*
X176746000Y-88028000D01*
X178346000Y-88628000D02*
X178346000Y-88028000D01*
X170176000Y-82608000D02*
X170176000Y-83608000D01*
X177296000Y-82608000D02*
X177296000Y-83608000D01*
X170176000Y-84138000D02*
X169926000Y-83608000D01*
X177296000Y-84138000D02*
X170176000Y-84138000D01*
X177546000Y-83608000D02*
X177296000Y-84138000D01*
X169926000Y-83608000D02*
X169926000Y-82608000D01*
X177546000Y-83608000D02*
X169926000Y-83608000D01*
X177546000Y-82608000D02*
X177546000Y-83608000D01*
X179216000Y-87598000D02*
X179216000Y-83598000D01*
X168546000Y-88628000D02*
X178926000Y-88628000D01*
X168546000Y-82608000D02*
X168546000Y-88628000D01*
X178926000Y-82608000D02*
X168546000Y-82608000D01*
X178926000Y-88628000D02*
X178926000Y-82608000D01*
X170142000Y-52722000D02*
X170142000Y-53322000D01*
X171742000Y-52722000D02*
X170142000Y-52722000D01*
X171742000Y-53322000D02*
X171742000Y-52722000D01*
X172682000Y-52722000D02*
X172682000Y-53322000D01*
X174282000Y-52722000D02*
X172682000Y-52722000D01*
X174282000Y-53322000D02*
X174282000Y-52722000D01*
X175222000Y-52722000D02*
X175222000Y-53322000D01*
X176822000Y-52722000D02*
X175222000Y-52722000D01*
X176822000Y-53322000D02*
X176822000Y-52722000D01*
X177762000Y-52722000D02*
X177762000Y-53322000D01*
X179362000Y-52722000D02*
X177762000Y-52722000D01*
X179362000Y-53322000D02*
X179362000Y-52722000D01*
X180302000Y-52722000D02*
X180302000Y-53322000D01*
X181902000Y-52722000D02*
X180302000Y-52722000D01*
X181902000Y-53322000D02*
X181902000Y-52722000D01*
X182842000Y-52722000D02*
X182842000Y-53322000D01*
X184442000Y-52722000D02*
X182842000Y-52722000D01*
X184442000Y-53322000D02*
X184442000Y-52722000D01*
X185382000Y-52722000D02*
X185382000Y-53322000D01*
X186982000Y-52722000D02*
X185382000Y-52722000D01*
X186982000Y-53322000D02*
X186982000Y-52722000D01*
X187922000Y-52722000D02*
X187922000Y-53322000D01*
X189522000Y-52722000D02*
X187922000Y-52722000D01*
X189522000Y-53322000D02*
X189522000Y-52722000D01*
X171192000Y-47302000D02*
X171192000Y-48302000D01*
X176022000Y-48832000D02*
X176022000Y-48302000D01*
X171192000Y-48832000D02*
X176022000Y-48832000D01*
X170942000Y-48302000D02*
X171192000Y-48832000D01*
X176022000Y-48302000D02*
X176022000Y-47302000D01*
X170942000Y-48302000D02*
X176022000Y-48302000D01*
X170942000Y-47302000D02*
X170942000Y-48302000D01*
X188472000Y-47302000D02*
X188472000Y-48302000D01*
X183642000Y-48832000D02*
X183642000Y-48302000D01*
X188472000Y-48832000D02*
X183642000Y-48832000D01*
X188722000Y-48302000D02*
X188472000Y-48832000D01*
X183642000Y-48302000D02*
X183642000Y-47302000D01*
X188722000Y-48302000D02*
X183642000Y-48302000D01*
X188722000Y-47302000D02*
X188722000Y-48302000D01*
X190392000Y-52292000D02*
X190392000Y-48292000D01*
X169562000Y-53322000D02*
X190102000Y-53322000D01*
X169562000Y-47302000D02*
X169562000Y-53322000D01*
X190102000Y-47302000D02*
X169562000Y-47302000D01*
X190102000Y-53322000D02*
X190102000Y-47302000D01*
X126762000Y-57368000D02*
X126762000Y-53468000D01*
X128762000Y-57368000D02*
X128762000Y-53468000D01*
X126762000Y-57368000D02*
X128762000Y-57368000D01*
X109438000Y-67040000D02*
X105538000Y-67040000D01*
X109438000Y-65040000D02*
X105538000Y-65040000D01*
X109438000Y-67040000D02*
X109438000Y-65040000D01*
X129032000Y-62230000D02*
G75*
G03*
X129032000Y-62230000I-5120000J0D01*
G01*
X110382000Y-59798000D02*
X112732000Y-59798000D01*
X117202000Y-59798000D02*
X114852000Y-59798000D01*
X117202000Y-54042437D02*
X117202000Y-59798000D01*
X110382000Y-54042437D02*
X110382000Y-59798000D01*
X111446437Y-52978000D02*
X112732000Y-52978000D01*
X116137563Y-52978000D02*
X114852000Y-52978000D01*
X116137563Y-52978000D02*
X117202000Y-54042437D01*
X111446437Y-52978000D02*
X110382000Y-54042437D01*
D12*
X120904095Y-44360380D02*
X120904095Y-45169904D01*
X120951714Y-45265142D01*
X120999333Y-45312761D01*
X121094571Y-45360380D01*
X121285047Y-45360380D01*
X121380285Y-45312761D01*
X121427904Y-45265142D01*
X121475523Y-45169904D01*
X121475523Y-44360380D01*
X122380285Y-44360380D02*
X122189809Y-44360380D01*
X122094571Y-44408000D01*
X122046952Y-44455619D01*
X121951714Y-44598476D01*
X121904095Y-44788952D01*
X121904095Y-45169904D01*
X121951714Y-45265142D01*
X121999333Y-45312761D01*
X122094571Y-45360380D01*
X122285047Y-45360380D01*
X122380285Y-45312761D01*
X122427904Y-45265142D01*
X122475523Y-45169904D01*
X122475523Y-44931809D01*
X122427904Y-44836571D01*
X122380285Y-44788952D01*
X122285047Y-44741333D01*
X122094571Y-44741333D01*
X121999333Y-44788952D01*
X121951714Y-44836571D01*
X121904095Y-44931809D01*
X117954380Y-48140857D02*
X117478190Y-48474190D01*
X117954380Y-48712285D02*
X116954380Y-48712285D01*
X116954380Y-48331333D01*
X117002000Y-48236095D01*
X117049619Y-48188476D01*
X117144857Y-48140857D01*
X117287714Y-48140857D01*
X117382952Y-48188476D01*
X117430571Y-48236095D01*
X117478190Y-48331333D01*
X117478190Y-48712285D01*
X117954380Y-47188476D02*
X117954380Y-47759904D01*
X117954380Y-47474190D02*
X116954380Y-47474190D01*
X117097238Y-47569428D01*
X117192476Y-47664666D01*
X117240095Y-47759904D01*
X117954380Y-46236095D02*
X117954380Y-46807523D01*
X117954380Y-46521809D02*
X116954380Y-46521809D01*
X117097238Y-46617047D01*
X117192476Y-46712285D01*
X117240095Y-46807523D01*
D13*
X57836286Y-42587475D02*
X57836286Y-43302779D01*
X57788599Y-43445839D01*
X57693225Y-43541213D01*
X57550165Y-43588900D01*
X57454791Y-43588900D01*
X58265468Y-42682849D02*
X58313155Y-42635162D01*
X58408529Y-42587475D01*
X58646964Y-42587475D01*
X58742337Y-42635162D01*
X58790024Y-42682849D01*
X58837711Y-42778223D01*
X58837711Y-42873597D01*
X58790024Y-43016657D01*
X58217781Y-43588900D01*
X58837711Y-43588900D01*
D12*
X63499619Y-56229238D02*
X63452000Y-56324476D01*
X63356761Y-56419714D01*
X63213904Y-56562571D01*
X63166285Y-56657809D01*
X63166285Y-56753047D01*
X63404380Y-56705428D02*
X63356761Y-56800666D01*
X63261523Y-56895904D01*
X63071047Y-56943523D01*
X62737714Y-56943523D01*
X62547238Y-56895904D01*
X62452000Y-56800666D01*
X62404380Y-56705428D01*
X62404380Y-56514952D01*
X62452000Y-56419714D01*
X62547238Y-56324476D01*
X62737714Y-56276857D01*
X63071047Y-56276857D01*
X63261523Y-56324476D01*
X63356761Y-56419714D01*
X63404380Y-56514952D01*
X63404380Y-56705428D01*
X62404380Y-55419714D02*
X62404380Y-55610190D01*
X62452000Y-55705428D01*
X62499619Y-55753047D01*
X62642476Y-55848285D01*
X62832952Y-55895904D01*
X63213904Y-55895904D01*
X63309142Y-55848285D01*
X63356761Y-55800666D01*
X63404380Y-55705428D01*
X63404380Y-55514952D01*
X63356761Y-55419714D01*
X63309142Y-55372095D01*
X63213904Y-55324476D01*
X62975809Y-55324476D01*
X62880571Y-55372095D01*
X62832952Y-55419714D01*
X62785333Y-55514952D01*
X62785333Y-55705428D01*
X62832952Y-55800666D01*
X62880571Y-55848285D01*
X62975809Y-55895904D01*
X94562380Y-84105333D02*
X95276666Y-84105333D01*
X95419523Y-84152952D01*
X95514761Y-84248190D01*
X95562380Y-84391047D01*
X95562380Y-84486285D01*
X94990952Y-83486285D02*
X94943333Y-83581523D01*
X94895714Y-83629142D01*
X94800476Y-83676761D01*
X94752857Y-83676761D01*
X94657619Y-83629142D01*
X94610000Y-83581523D01*
X94562380Y-83486285D01*
X94562380Y-83295809D01*
X94610000Y-83200571D01*
X94657619Y-83152952D01*
X94752857Y-83105333D01*
X94800476Y-83105333D01*
X94895714Y-83152952D01*
X94943333Y-83200571D01*
X94990952Y-83295809D01*
X94990952Y-83486285D01*
X95038571Y-83581523D01*
X95086190Y-83629142D01*
X95181428Y-83676761D01*
X95371904Y-83676761D01*
X95467142Y-83629142D01*
X95514761Y-83581523D01*
X95562380Y-83486285D01*
X95562380Y-83295809D01*
X95514761Y-83200571D01*
X95467142Y-83152952D01*
X95371904Y-83105333D01*
X95181428Y-83105333D01*
X95086190Y-83152952D01*
X95038571Y-83200571D01*
X94990952Y-83295809D01*
X52854380Y-85423333D02*
X53568666Y-85423333D01*
X53711523Y-85470952D01*
X53806761Y-85566190D01*
X53854380Y-85709047D01*
X53854380Y-85804285D01*
X52854380Y-84518571D02*
X52854380Y-84709047D01*
X52902000Y-84804285D01*
X52949619Y-84851904D01*
X53092476Y-84947142D01*
X53282952Y-84994761D01*
X53663904Y-84994761D01*
X53759142Y-84947142D01*
X53806761Y-84899523D01*
X53854380Y-84804285D01*
X53854380Y-84613809D01*
X53806761Y-84518571D01*
X53759142Y-84470952D01*
X53663904Y-84423333D01*
X53425809Y-84423333D01*
X53330571Y-84470952D01*
X53282952Y-84518571D01*
X53235333Y-84613809D01*
X53235333Y-84804285D01*
X53282952Y-84899523D01*
X53330571Y-84947142D01*
X53425809Y-84994761D01*
X121412095Y-87380380D02*
X121412095Y-88189904D01*
X121459714Y-88285142D01*
X121507333Y-88332761D01*
X121602571Y-88380380D01*
X121793047Y-88380380D01*
X121888285Y-88332761D01*
X121935904Y-88285142D01*
X121983523Y-88189904D01*
X121983523Y-87380380D01*
X122364476Y-87380380D02*
X122983523Y-87380380D01*
X122650190Y-87761333D01*
X122793047Y-87761333D01*
X122888285Y-87808952D01*
X122935904Y-87856571D01*
X122983523Y-87951809D01*
X122983523Y-88189904D01*
X122935904Y-88285142D01*
X122888285Y-88332761D01*
X122793047Y-88380380D01*
X122507333Y-88380380D01*
X122412095Y-88332761D01*
X122364476Y-88285142D01*
X176530095Y-53002380D02*
X176530095Y-53811904D01*
X176577714Y-53907142D01*
X176625333Y-53954761D01*
X176720571Y-54002380D01*
X176911047Y-54002380D01*
X177006285Y-53954761D01*
X177053904Y-53907142D01*
X177101523Y-53811904D01*
X177101523Y-53002380D01*
X177530095Y-53097619D02*
X177577714Y-53050000D01*
X177672952Y-53002380D01*
X177911047Y-53002380D01*
X178006285Y-53050000D01*
X178053904Y-53097619D01*
X178101523Y-53192857D01*
X178101523Y-53288095D01*
X178053904Y-53430952D01*
X177482476Y-54002380D01*
X178101523Y-54002380D01*
X100586904Y-39876380D02*
X101253571Y-40876380D01*
X101253571Y-39876380D02*
X100586904Y-40876380D01*
X101586904Y-40590666D02*
X102063095Y-40590666D01*
X101491666Y-40876380D02*
X101825000Y-39876380D01*
X102158333Y-40876380D01*
X102444047Y-39971619D02*
X102491666Y-39924000D01*
X102586904Y-39876380D01*
X102825000Y-39876380D01*
X102920238Y-39924000D01*
X102967857Y-39971619D01*
X103015476Y-40066857D01*
X103015476Y-40162095D01*
X102967857Y-40304952D01*
X102396428Y-40876380D01*
X103015476Y-40876380D01*
X161769000Y-63133142D02*
X161816619Y-63180761D01*
X161769000Y-63228380D01*
X161721380Y-63180761D01*
X161769000Y-63133142D01*
X161769000Y-63228380D01*
X119858476Y-68738380D02*
X119858476Y-69452666D01*
X119810857Y-69595523D01*
X119715619Y-69690761D01*
X119572761Y-69738380D01*
X119477523Y-69738380D01*
X120858476Y-69738380D02*
X120287047Y-69738380D01*
X120572761Y-69738380D02*
X120572761Y-68738380D01*
X120477523Y-68881238D01*
X120382285Y-68976476D01*
X120287047Y-69024095D01*
X121810857Y-69738380D02*
X121239428Y-69738380D01*
X121525142Y-69738380D02*
X121525142Y-68738380D01*
X121429904Y-68881238D01*
X121334666Y-68976476D01*
X121239428Y-69024095D01*
X113204666Y-68738380D02*
X113204666Y-69452666D01*
X113157047Y-69595523D01*
X113061809Y-69690761D01*
X112918952Y-69738380D01*
X112823714Y-69738380D01*
X113728476Y-69738380D02*
X113918952Y-69738380D01*
X114014190Y-69690761D01*
X114061809Y-69643142D01*
X114157047Y-69500285D01*
X114204666Y-69309809D01*
X114204666Y-68928857D01*
X114157047Y-68833619D01*
X114109428Y-68786000D01*
X114014190Y-68738380D01*
X113823714Y-68738380D01*
X113728476Y-68786000D01*
X113680857Y-68833619D01*
X113633238Y-68928857D01*
X113633238Y-69166952D01*
X113680857Y-69262190D01*
X113728476Y-69309809D01*
X113823714Y-69357428D01*
X114014190Y-69357428D01*
X114109428Y-69309809D01*
X114157047Y-69262190D01*
X114204666Y-69166952D01*
X106216380Y-52204857D02*
X105740190Y-52538190D01*
X106216380Y-52776285D02*
X105216380Y-52776285D01*
X105216380Y-52395333D01*
X105264000Y-52300095D01*
X105311619Y-52252476D01*
X105406857Y-52204857D01*
X105549714Y-52204857D01*
X105644952Y-52252476D01*
X105692571Y-52300095D01*
X105740190Y-52395333D01*
X105740190Y-52776285D01*
X105311619Y-51823904D02*
X105264000Y-51776285D01*
X105216380Y-51681047D01*
X105216380Y-51442952D01*
X105264000Y-51347714D01*
X105311619Y-51300095D01*
X105406857Y-51252476D01*
X105502095Y-51252476D01*
X105644952Y-51300095D01*
X106216380Y-51871523D01*
X106216380Y-51252476D01*
X105549714Y-50395333D02*
X106216380Y-50395333D01*
X105168761Y-50633428D02*
X105883047Y-50871523D01*
X105883047Y-50252476D01*
X106216380Y-49410857D02*
X105740190Y-49744190D01*
X106216380Y-49982285D02*
X105216380Y-49982285D01*
X105216380Y-49601333D01*
X105264000Y-49506095D01*
X105311619Y-49458476D01*
X105406857Y-49410857D01*
X105549714Y-49410857D01*
X105644952Y-49458476D01*
X105692571Y-49506095D01*
X105740190Y-49601333D01*
X105740190Y-49982285D01*
X106216380Y-48458476D02*
X106216380Y-49029904D01*
X106216380Y-48744190D02*
X105216380Y-48744190D01*
X105359238Y-48839428D01*
X105454476Y-48934666D01*
X105502095Y-49029904D01*
X105216380Y-48125142D02*
X105216380Y-47458476D01*
X106216380Y-47887047D01*
X109344761Y-48427619D02*
X109249523Y-48380000D01*
X109154285Y-48284761D01*
X109011428Y-48141904D01*
X108916190Y-48094285D01*
X108820952Y-48094285D01*
X108868571Y-48332380D02*
X108773333Y-48284761D01*
X108678095Y-48189523D01*
X108630476Y-47999047D01*
X108630476Y-47665714D01*
X108678095Y-47475238D01*
X108773333Y-47380000D01*
X108868571Y-47332380D01*
X109059047Y-47332380D01*
X109154285Y-47380000D01*
X109249523Y-47475238D01*
X109297142Y-47665714D01*
X109297142Y-47999047D01*
X109249523Y-48189523D01*
X109154285Y-48284761D01*
X109059047Y-48332380D01*
X108868571Y-48332380D01*
X110201904Y-47332380D02*
X109725714Y-47332380D01*
X109678095Y-47808571D01*
X109725714Y-47760952D01*
X109820952Y-47713333D01*
X110059047Y-47713333D01*
X110154285Y-47760952D01*
X110201904Y-47808571D01*
X110249523Y-47903809D01*
X110249523Y-48141904D01*
X110201904Y-48237142D01*
X110154285Y-48284761D01*
X110059047Y-48332380D01*
X109820952Y-48332380D01*
X109725714Y-48284761D01*
X109678095Y-48237142D01*
X109064380Y-78652666D02*
X108588190Y-78986000D01*
X109064380Y-79224095D02*
X108064380Y-79224095D01*
X108064380Y-78843142D01*
X108112000Y-78747904D01*
X108159619Y-78700285D01*
X108254857Y-78652666D01*
X108397714Y-78652666D01*
X108492952Y-78700285D01*
X108540571Y-78747904D01*
X108588190Y-78843142D01*
X108588190Y-79224095D01*
X108159619Y-78271714D02*
X108112000Y-78224095D01*
X108064380Y-78128857D01*
X108064380Y-77890761D01*
X108112000Y-77795523D01*
X108159619Y-77747904D01*
X108254857Y-77700285D01*
X108350095Y-77700285D01*
X108492952Y-77747904D01*
X109064380Y-78319333D01*
X109064380Y-77700285D01*
X129627333Y-84880380D02*
X129294000Y-84404190D01*
X129055904Y-84880380D02*
X129055904Y-83880380D01*
X129436857Y-83880380D01*
X129532095Y-83928000D01*
X129579714Y-83975619D01*
X129627333Y-84070857D01*
X129627333Y-84213714D01*
X129579714Y-84308952D01*
X129532095Y-84356571D01*
X129436857Y-84404190D01*
X129055904Y-84404190D01*
X130579714Y-84880380D02*
X130008285Y-84880380D01*
X130294000Y-84880380D02*
X130294000Y-83880380D01*
X130198761Y-84023238D01*
X130103523Y-84118476D01*
X130008285Y-84166095D01*
X115332380Y-82121333D02*
X116046666Y-82121333D01*
X116189523Y-82168952D01*
X116284761Y-82264190D01*
X116332380Y-82407047D01*
X116332380Y-82502285D01*
X115332380Y-81740380D02*
X115332380Y-81073714D01*
X116332380Y-81502285D01*
X98726666Y-45116380D02*
X98726666Y-45830666D01*
X98679047Y-45973523D01*
X98583809Y-46068761D01*
X98440952Y-46116380D01*
X98345714Y-46116380D01*
X99679047Y-45116380D02*
X99202857Y-45116380D01*
X99155238Y-45592571D01*
X99202857Y-45544952D01*
X99298095Y-45497333D01*
X99536190Y-45497333D01*
X99631428Y-45544952D01*
X99679047Y-45592571D01*
X99726666Y-45687809D01*
X99726666Y-45925904D01*
X99679047Y-46021142D01*
X99631428Y-46068761D01*
X99536190Y-46116380D01*
X99298095Y-46116380D01*
X99202857Y-46068761D01*
X99155238Y-46021142D01*
X97012380Y-45188095D02*
X96012380Y-45188095D01*
X96012380Y-44950000D01*
X96060000Y-44807142D01*
X96155238Y-44711904D01*
X96250476Y-44664285D01*
X96440952Y-44616666D01*
X96583809Y-44616666D01*
X96774285Y-44664285D01*
X96869523Y-44711904D01*
X96964761Y-44807142D01*
X97012380Y-44950000D01*
X97012380Y-45188095D01*
X96440952Y-44045238D02*
X96393333Y-44140476D01*
X96345714Y-44188095D01*
X96250476Y-44235714D01*
X96202857Y-44235714D01*
X96107619Y-44188095D01*
X96060000Y-44140476D01*
X96012380Y-44045238D01*
X96012380Y-43854761D01*
X96060000Y-43759523D01*
X96107619Y-43711904D01*
X96202857Y-43664285D01*
X96250476Y-43664285D01*
X96345714Y-43711904D01*
X96393333Y-43759523D01*
X96440952Y-43854761D01*
X96440952Y-44045238D01*
X96488571Y-44140476D01*
X96536190Y-44188095D01*
X96631428Y-44235714D01*
X96821904Y-44235714D01*
X96917142Y-44188095D01*
X96964761Y-44140476D01*
X97012380Y-44045238D01*
X97012380Y-43854761D01*
X96964761Y-43759523D01*
X96917142Y-43711904D01*
X96821904Y-43664285D01*
X96631428Y-43664285D01*
X96536190Y-43711904D01*
X96488571Y-43759523D01*
X96440952Y-43854761D01*
X77869619Y-85323238D02*
X77822000Y-85418476D01*
X77726761Y-85513714D01*
X77583904Y-85656571D01*
X77536285Y-85751809D01*
X77536285Y-85847047D01*
X77774380Y-85799428D02*
X77726761Y-85894666D01*
X77631523Y-85989904D01*
X77441047Y-86037523D01*
X77107714Y-86037523D01*
X76917238Y-85989904D01*
X76822000Y-85894666D01*
X76774380Y-85799428D01*
X76774380Y-85608952D01*
X76822000Y-85513714D01*
X76917238Y-85418476D01*
X77107714Y-85370857D01*
X77441047Y-85370857D01*
X77631523Y-85418476D01*
X77726761Y-85513714D01*
X77774380Y-85608952D01*
X77774380Y-85799428D01*
X77107714Y-84513714D02*
X77774380Y-84513714D01*
X76726761Y-84751809D02*
X77441047Y-84989904D01*
X77441047Y-84370857D01*
X89507904Y-42150380D02*
X89507904Y-41150380D01*
X90079333Y-42150380D02*
X89650761Y-41578952D01*
X90079333Y-41150380D02*
X89507904Y-41721809D01*
X91031714Y-42150380D02*
X90460285Y-42150380D01*
X90746000Y-42150380D02*
X90746000Y-41150380D01*
X90650761Y-41293238D01*
X90555523Y-41388476D01*
X90460285Y-41436095D01*
X98014571Y-58499333D02*
X98014571Y-58832666D01*
X98538380Y-58832666D02*
X97538380Y-58832666D01*
X97538380Y-58356476D01*
X98538380Y-57451714D02*
X98538380Y-58023142D01*
X98538380Y-57737428D02*
X97538380Y-57737428D01*
X97681238Y-57832666D01*
X97776476Y-57927904D01*
X97824095Y-58023142D01*
X72620380Y-79732095D02*
X71620380Y-79732095D01*
X71620380Y-79494000D01*
X71668000Y-79351142D01*
X71763238Y-79255904D01*
X71858476Y-79208285D01*
X72048952Y-79160666D01*
X72191809Y-79160666D01*
X72382285Y-79208285D01*
X72477523Y-79255904D01*
X72572761Y-79351142D01*
X72620380Y-79494000D01*
X72620380Y-79732095D01*
X71620380Y-78827333D02*
X71620380Y-78160666D01*
X72620380Y-78589238D01*
X151542380Y-62563333D02*
X152256666Y-62563333D01*
X152399523Y-62610952D01*
X152494761Y-62706190D01*
X152542380Y-62849047D01*
X152542380Y-62944285D01*
X151875714Y-61658571D02*
X152542380Y-61658571D01*
X151494761Y-61896666D02*
X152209047Y-62134761D01*
X152209047Y-61515714D01*
X180276380Y-72427904D02*
X181085904Y-72427904D01*
X181181142Y-72380285D01*
X181228761Y-72332666D01*
X181276380Y-72237428D01*
X181276380Y-72046952D01*
X181228761Y-71951714D01*
X181181142Y-71904095D01*
X181085904Y-71856476D01*
X180276380Y-71856476D01*
X181276380Y-71332666D02*
X181276380Y-71142190D01*
X181228761Y-71046952D01*
X181181142Y-70999333D01*
X181038285Y-70904095D01*
X180847809Y-70856476D01*
X180466857Y-70856476D01*
X180371619Y-70904095D01*
X180324000Y-70951714D01*
X180276380Y-71046952D01*
X180276380Y-71237428D01*
X180324000Y-71332666D01*
X180371619Y-71380285D01*
X180466857Y-71427904D01*
X180704952Y-71427904D01*
X180800190Y-71380285D01*
X180847809Y-71332666D01*
X180895428Y-71237428D01*
X180895428Y-71046952D01*
X180847809Y-70951714D01*
X180800190Y-70904095D01*
X180704952Y-70856476D01*
X168112380Y-72417904D02*
X168921904Y-72417904D01*
X169017142Y-72370285D01*
X169064761Y-72322666D01*
X169112380Y-72227428D01*
X169112380Y-72036952D01*
X169064761Y-71941714D01*
X169017142Y-71894095D01*
X168921904Y-71846476D01*
X168112380Y-71846476D01*
X169112380Y-70846476D02*
X169112380Y-71417904D01*
X169112380Y-71132190D02*
X168112380Y-71132190D01*
X168255238Y-71227428D01*
X168350476Y-71322666D01*
X168398095Y-71417904D01*
X132432380Y-46870857D02*
X131956190Y-47204190D01*
X132432380Y-47442285D02*
X131432380Y-47442285D01*
X131432380Y-47061333D01*
X131480000Y-46966095D01*
X131527619Y-46918476D01*
X131622857Y-46870857D01*
X131765714Y-46870857D01*
X131860952Y-46918476D01*
X131908571Y-46966095D01*
X131956190Y-47061333D01*
X131956190Y-47442285D01*
X131432380Y-46537523D02*
X131432380Y-45918476D01*
X131813333Y-46251809D01*
X131813333Y-46108952D01*
X131860952Y-46013714D01*
X131908571Y-45966095D01*
X132003809Y-45918476D01*
X132241904Y-45918476D01*
X132337142Y-45966095D01*
X132384761Y-46013714D01*
X132432380Y-46108952D01*
X132432380Y-46394666D01*
X132384761Y-46489904D01*
X132337142Y-46537523D01*
X131765714Y-45061333D02*
X132432380Y-45061333D01*
X131384761Y-45299428D02*
X132099047Y-45537523D01*
X132099047Y-44918476D01*
X156816380Y-46870857D02*
X156340190Y-47204190D01*
X156816380Y-47442285D02*
X155816380Y-47442285D01*
X155816380Y-47061333D01*
X155864000Y-46966095D01*
X155911619Y-46918476D01*
X156006857Y-46870857D01*
X156149714Y-46870857D01*
X156244952Y-46918476D01*
X156292571Y-46966095D01*
X156340190Y-47061333D01*
X156340190Y-47442285D01*
X155816380Y-46537523D02*
X155816380Y-45918476D01*
X156197333Y-46251809D01*
X156197333Y-46108952D01*
X156244952Y-46013714D01*
X156292571Y-45966095D01*
X156387809Y-45918476D01*
X156625904Y-45918476D01*
X156721142Y-45966095D01*
X156768761Y-46013714D01*
X156816380Y-46108952D01*
X156816380Y-46394666D01*
X156768761Y-46489904D01*
X156721142Y-46537523D01*
X155816380Y-45585142D02*
X155816380Y-44966095D01*
X156197333Y-45299428D01*
X156197333Y-45156571D01*
X156244952Y-45061333D01*
X156292571Y-45013714D01*
X156387809Y-44966095D01*
X156625904Y-44966095D01*
X156721142Y-45013714D01*
X156768761Y-45061333D01*
X156816380Y-45156571D01*
X156816380Y-45442285D01*
X156768761Y-45537523D01*
X156721142Y-45585142D01*
X134972380Y-46870857D02*
X134496190Y-47204190D01*
X134972380Y-47442285D02*
X133972380Y-47442285D01*
X133972380Y-47061333D01*
X134020000Y-46966095D01*
X134067619Y-46918476D01*
X134162857Y-46870857D01*
X134305714Y-46870857D01*
X134400952Y-46918476D01*
X134448571Y-46966095D01*
X134496190Y-47061333D01*
X134496190Y-47442285D01*
X133972380Y-46537523D02*
X133972380Y-45918476D01*
X134353333Y-46251809D01*
X134353333Y-46108952D01*
X134400952Y-46013714D01*
X134448571Y-45966095D01*
X134543809Y-45918476D01*
X134781904Y-45918476D01*
X134877142Y-45966095D01*
X134924761Y-46013714D01*
X134972380Y-46108952D01*
X134972380Y-46394666D01*
X134924761Y-46489904D01*
X134877142Y-46537523D01*
X134067619Y-45537523D02*
X134020000Y-45489904D01*
X133972380Y-45394666D01*
X133972380Y-45156571D01*
X134020000Y-45061333D01*
X134067619Y-45013714D01*
X134162857Y-44966095D01*
X134258095Y-44966095D01*
X134400952Y-45013714D01*
X134972380Y-45585142D01*
X134972380Y-44966095D01*
X127552380Y-46870857D02*
X127076190Y-47204190D01*
X127552380Y-47442285D02*
X126552380Y-47442285D01*
X126552380Y-47061333D01*
X126600000Y-46966095D01*
X126647619Y-46918476D01*
X126742857Y-46870857D01*
X126885714Y-46870857D01*
X126980952Y-46918476D01*
X127028571Y-46966095D01*
X127076190Y-47061333D01*
X127076190Y-47442285D01*
X126552380Y-46537523D02*
X126552380Y-45918476D01*
X126933333Y-46251809D01*
X126933333Y-46108952D01*
X126980952Y-46013714D01*
X127028571Y-45966095D01*
X127123809Y-45918476D01*
X127361904Y-45918476D01*
X127457142Y-45966095D01*
X127504761Y-46013714D01*
X127552380Y-46108952D01*
X127552380Y-46394666D01*
X127504761Y-46489904D01*
X127457142Y-46537523D01*
X127552380Y-44966095D02*
X127552380Y-45537523D01*
X127552380Y-45251809D02*
X126552380Y-45251809D01*
X126695238Y-45347047D01*
X126790476Y-45442285D01*
X126838095Y-45537523D01*
X181400380Y-65920857D02*
X180924190Y-66254190D01*
X181400380Y-66492285D02*
X180400380Y-66492285D01*
X180400380Y-66111333D01*
X180448000Y-66016095D01*
X180495619Y-65968476D01*
X180590857Y-65920857D01*
X180733714Y-65920857D01*
X180828952Y-65968476D01*
X180876571Y-66016095D01*
X180924190Y-66111333D01*
X180924190Y-66492285D01*
X180495619Y-65539904D02*
X180448000Y-65492285D01*
X180400380Y-65397047D01*
X180400380Y-65158952D01*
X180448000Y-65063714D01*
X180495619Y-65016095D01*
X180590857Y-64968476D01*
X180686095Y-64968476D01*
X180828952Y-65016095D01*
X181400380Y-65587523D01*
X181400380Y-64968476D01*
X181400380Y-64492285D02*
X181400380Y-64301809D01*
X181352761Y-64206571D01*
X181305142Y-64158952D01*
X181162285Y-64063714D01*
X180971809Y-64016095D01*
X180590857Y-64016095D01*
X180495619Y-64063714D01*
X180448000Y-64111333D01*
X180400380Y-64206571D01*
X180400380Y-64397047D01*
X180448000Y-64492285D01*
X180495619Y-64539904D01*
X180590857Y-64587523D01*
X180828952Y-64587523D01*
X180924190Y-64539904D01*
X180971809Y-64492285D01*
X181019428Y-64397047D01*
X181019428Y-64206571D01*
X180971809Y-64111333D01*
X180924190Y-64063714D01*
X180828952Y-64016095D01*
X184756380Y-65920857D02*
X184280190Y-66254190D01*
X184756380Y-66492285D02*
X183756380Y-66492285D01*
X183756380Y-66111333D01*
X183804000Y-66016095D01*
X183851619Y-65968476D01*
X183946857Y-65920857D01*
X184089714Y-65920857D01*
X184184952Y-65968476D01*
X184232571Y-66016095D01*
X184280190Y-66111333D01*
X184280190Y-66492285D01*
X183851619Y-65539904D02*
X183804000Y-65492285D01*
X183756380Y-65397047D01*
X183756380Y-65158952D01*
X183804000Y-65063714D01*
X183851619Y-65016095D01*
X183946857Y-64968476D01*
X184042095Y-64968476D01*
X184184952Y-65016095D01*
X184756380Y-65587523D01*
X184756380Y-64968476D01*
X184184952Y-64397047D02*
X184137333Y-64492285D01*
X184089714Y-64539904D01*
X183994476Y-64587523D01*
X183946857Y-64587523D01*
X183851619Y-64539904D01*
X183804000Y-64492285D01*
X183756380Y-64397047D01*
X183756380Y-64206571D01*
X183804000Y-64111333D01*
X183851619Y-64063714D01*
X183946857Y-64016095D01*
X183994476Y-64016095D01*
X184089714Y-64063714D01*
X184137333Y-64111333D01*
X184184952Y-64206571D01*
X184184952Y-64397047D01*
X184232571Y-64492285D01*
X184280190Y-64539904D01*
X184375428Y-64587523D01*
X184565904Y-64587523D01*
X184661142Y-64539904D01*
X184708761Y-64492285D01*
X184756380Y-64397047D01*
X184756380Y-64206571D01*
X184708761Y-64111333D01*
X184661142Y-64063714D01*
X184565904Y-64016095D01*
X184375428Y-64016095D01*
X184280190Y-64063714D01*
X184232571Y-64111333D01*
X184184952Y-64206571D01*
X179189142Y-76298380D02*
X178855809Y-75822190D01*
X178617714Y-76298380D02*
X178617714Y-75298380D01*
X178998666Y-75298380D01*
X179093904Y-75346000D01*
X179141523Y-75393619D01*
X179189142Y-75488857D01*
X179189142Y-75631714D01*
X179141523Y-75726952D01*
X179093904Y-75774571D01*
X178998666Y-75822190D01*
X178617714Y-75822190D01*
X179570095Y-75393619D02*
X179617714Y-75346000D01*
X179712952Y-75298380D01*
X179951047Y-75298380D01*
X180046285Y-75346000D01*
X180093904Y-75393619D01*
X180141523Y-75488857D01*
X180141523Y-75584095D01*
X180093904Y-75726952D01*
X179522476Y-76298380D01*
X180141523Y-76298380D01*
X180474857Y-75298380D02*
X181141523Y-75298380D01*
X180712952Y-76298380D01*
X179189142Y-73858380D02*
X178855809Y-73382190D01*
X178617714Y-73858380D02*
X178617714Y-72858380D01*
X178998666Y-72858380D01*
X179093904Y-72906000D01*
X179141523Y-72953619D01*
X179189142Y-73048857D01*
X179189142Y-73191714D01*
X179141523Y-73286952D01*
X179093904Y-73334571D01*
X178998666Y-73382190D01*
X178617714Y-73382190D01*
X179570095Y-72953619D02*
X179617714Y-72906000D01*
X179712952Y-72858380D01*
X179951047Y-72858380D01*
X180046285Y-72906000D01*
X180093904Y-72953619D01*
X180141523Y-73048857D01*
X180141523Y-73144095D01*
X180093904Y-73286952D01*
X179522476Y-73858380D01*
X180141523Y-73858380D01*
X180998666Y-72858380D02*
X180808190Y-72858380D01*
X180712952Y-72906000D01*
X180665333Y-72953619D01*
X180570095Y-73096476D01*
X180522476Y-73286952D01*
X180522476Y-73667904D01*
X180570095Y-73763142D01*
X180617714Y-73810761D01*
X180712952Y-73858380D01*
X180903428Y-73858380D01*
X180998666Y-73810761D01*
X181046285Y-73763142D01*
X181093904Y-73667904D01*
X181093904Y-73429809D01*
X181046285Y-73334571D01*
X180998666Y-73286952D01*
X180903428Y-73239333D01*
X180712952Y-73239333D01*
X180617714Y-73286952D01*
X180570095Y-73334571D01*
X180522476Y-73429809D01*
X178935142Y-78938380D02*
X178601809Y-78462190D01*
X178363714Y-78938380D02*
X178363714Y-77938380D01*
X178744666Y-77938380D01*
X178839904Y-77986000D01*
X178887523Y-78033619D01*
X178935142Y-78128857D01*
X178935142Y-78271714D01*
X178887523Y-78366952D01*
X178839904Y-78414571D01*
X178744666Y-78462190D01*
X178363714Y-78462190D01*
X179316095Y-78033619D02*
X179363714Y-77986000D01*
X179458952Y-77938380D01*
X179697047Y-77938380D01*
X179792285Y-77986000D01*
X179839904Y-78033619D01*
X179887523Y-78128857D01*
X179887523Y-78224095D01*
X179839904Y-78366952D01*
X179268476Y-78938380D01*
X179887523Y-78938380D01*
X180792285Y-77938380D02*
X180316095Y-77938380D01*
X180268476Y-78414571D01*
X180316095Y-78366952D01*
X180411333Y-78319333D01*
X180649428Y-78319333D01*
X180744666Y-78366952D01*
X180792285Y-78414571D01*
X180839904Y-78509809D01*
X180839904Y-78747904D01*
X180792285Y-78843142D01*
X180744666Y-78890761D01*
X180649428Y-78938380D01*
X180411333Y-78938380D01*
X180316095Y-78890761D01*
X180268476Y-78843142D01*
X101644380Y-64904857D02*
X101168190Y-65238190D01*
X101644380Y-65476285D02*
X100644380Y-65476285D01*
X100644380Y-65095333D01*
X100692000Y-65000095D01*
X100739619Y-64952476D01*
X100834857Y-64904857D01*
X100977714Y-64904857D01*
X101072952Y-64952476D01*
X101120571Y-65000095D01*
X101168190Y-65095333D01*
X101168190Y-65476285D01*
X100739619Y-64523904D02*
X100692000Y-64476285D01*
X100644380Y-64381047D01*
X100644380Y-64142952D01*
X100692000Y-64047714D01*
X100739619Y-64000095D01*
X100834857Y-63952476D01*
X100930095Y-63952476D01*
X101072952Y-64000095D01*
X101644380Y-64571523D01*
X101644380Y-63952476D01*
X100739619Y-63571523D02*
X100692000Y-63523904D01*
X100644380Y-63428666D01*
X100644380Y-63190571D01*
X100692000Y-63095333D01*
X100739619Y-63047714D01*
X100834857Y-63000095D01*
X100930095Y-63000095D01*
X101072952Y-63047714D01*
X101644380Y-63619142D01*
X101644380Y-63000095D01*
X130929142Y-56940380D02*
X130595809Y-56464190D01*
X130357714Y-56940380D02*
X130357714Y-55940380D01*
X130738666Y-55940380D01*
X130833904Y-55988000D01*
X130881523Y-56035619D01*
X130929142Y-56130857D01*
X130929142Y-56273714D01*
X130881523Y-56368952D01*
X130833904Y-56416571D01*
X130738666Y-56464190D01*
X130357714Y-56464190D01*
X131310095Y-56035619D02*
X131357714Y-55988000D01*
X131452952Y-55940380D01*
X131691047Y-55940380D01*
X131786285Y-55988000D01*
X131833904Y-56035619D01*
X131881523Y-56130857D01*
X131881523Y-56226095D01*
X131833904Y-56368952D01*
X131262476Y-56940380D01*
X131881523Y-56940380D01*
X132833904Y-56940380D02*
X132262476Y-56940380D01*
X132548190Y-56940380D02*
X132548190Y-55940380D01*
X132452952Y-56083238D01*
X132357714Y-56178476D01*
X132262476Y-56226095D01*
X130675142Y-71926380D02*
X130341809Y-71450190D01*
X130103714Y-71926380D02*
X130103714Y-70926380D01*
X130484666Y-70926380D01*
X130579904Y-70974000D01*
X130627523Y-71021619D01*
X130675142Y-71116857D01*
X130675142Y-71259714D01*
X130627523Y-71354952D01*
X130579904Y-71402571D01*
X130484666Y-71450190D01*
X130103714Y-71450190D01*
X131056095Y-71021619D02*
X131103714Y-70974000D01*
X131198952Y-70926380D01*
X131437047Y-70926380D01*
X131532285Y-70974000D01*
X131579904Y-71021619D01*
X131627523Y-71116857D01*
X131627523Y-71212095D01*
X131579904Y-71354952D01*
X131008476Y-71926380D01*
X131627523Y-71926380D01*
X132246571Y-70926380D02*
X132341809Y-70926380D01*
X132437047Y-70974000D01*
X132484666Y-71021619D01*
X132532285Y-71116857D01*
X132579904Y-71307333D01*
X132579904Y-71545428D01*
X132532285Y-71735904D01*
X132484666Y-71831142D01*
X132437047Y-71878761D01*
X132341809Y-71926380D01*
X132246571Y-71926380D01*
X132151333Y-71878761D01*
X132103714Y-71831142D01*
X132056095Y-71735904D01*
X132008476Y-71545428D01*
X132008476Y-71307333D01*
X132056095Y-71116857D01*
X132103714Y-71021619D01*
X132151333Y-70974000D01*
X132246571Y-70926380D01*
X130929142Y-55670380D02*
X130595809Y-55194190D01*
X130357714Y-55670380D02*
X130357714Y-54670380D01*
X130738666Y-54670380D01*
X130833904Y-54718000D01*
X130881523Y-54765619D01*
X130929142Y-54860857D01*
X130929142Y-55003714D01*
X130881523Y-55098952D01*
X130833904Y-55146571D01*
X130738666Y-55194190D01*
X130357714Y-55194190D01*
X131881523Y-55670380D02*
X131310095Y-55670380D01*
X131595809Y-55670380D02*
X131595809Y-54670380D01*
X131500571Y-54813238D01*
X131405333Y-54908476D01*
X131310095Y-54956095D01*
X132357714Y-55670380D02*
X132548190Y-55670380D01*
X132643428Y-55622761D01*
X132691047Y-55575142D01*
X132786285Y-55432285D01*
X132833904Y-55241809D01*
X132833904Y-54860857D01*
X132786285Y-54765619D01*
X132738666Y-54718000D01*
X132643428Y-54670380D01*
X132452952Y-54670380D01*
X132357714Y-54718000D01*
X132310095Y-54765619D01*
X132262476Y-54860857D01*
X132262476Y-55098952D01*
X132310095Y-55194190D01*
X132357714Y-55241809D01*
X132452952Y-55289428D01*
X132643428Y-55289428D01*
X132738666Y-55241809D01*
X132786285Y-55194190D01*
X132833904Y-55098952D01*
X131151333Y-68624380D02*
X130818000Y-68148190D01*
X130579904Y-68624380D02*
X130579904Y-67624380D01*
X130960857Y-67624380D01*
X131056095Y-67672000D01*
X131103714Y-67719619D01*
X131151333Y-67814857D01*
X131151333Y-67957714D01*
X131103714Y-68052952D01*
X131056095Y-68100571D01*
X130960857Y-68148190D01*
X130579904Y-68148190D01*
X131722761Y-68052952D02*
X131627523Y-68005333D01*
X131579904Y-67957714D01*
X131532285Y-67862476D01*
X131532285Y-67814857D01*
X131579904Y-67719619D01*
X131627523Y-67672000D01*
X131722761Y-67624380D01*
X131913238Y-67624380D01*
X132008476Y-67672000D01*
X132056095Y-67719619D01*
X132103714Y-67814857D01*
X132103714Y-67862476D01*
X132056095Y-67957714D01*
X132008476Y-68005333D01*
X131913238Y-68052952D01*
X131722761Y-68052952D01*
X131627523Y-68100571D01*
X131579904Y-68148190D01*
X131532285Y-68243428D01*
X131532285Y-68433904D01*
X131579904Y-68529142D01*
X131627523Y-68576761D01*
X131722761Y-68624380D01*
X131913238Y-68624380D01*
X132008476Y-68576761D01*
X132056095Y-68529142D01*
X132103714Y-68433904D01*
X132103714Y-68243428D01*
X132056095Y-68148190D01*
X132008476Y-68100571D01*
X131913238Y-68052952D01*
X170224380Y-65698666D02*
X169748190Y-66032000D01*
X170224380Y-66270095D02*
X169224380Y-66270095D01*
X169224380Y-65889142D01*
X169272000Y-65793904D01*
X169319619Y-65746285D01*
X169414857Y-65698666D01*
X169557714Y-65698666D01*
X169652952Y-65746285D01*
X169700571Y-65793904D01*
X169748190Y-65889142D01*
X169748190Y-66270095D01*
X169224380Y-65365333D02*
X169224380Y-64698666D01*
X170224380Y-65127238D01*
X171548380Y-65698666D02*
X171072190Y-66032000D01*
X171548380Y-66270095D02*
X170548380Y-66270095D01*
X170548380Y-65889142D01*
X170596000Y-65793904D01*
X170643619Y-65746285D01*
X170738857Y-65698666D01*
X170881714Y-65698666D01*
X170976952Y-65746285D01*
X171024571Y-65793904D01*
X171072190Y-65889142D01*
X171072190Y-66270095D01*
X170548380Y-64841523D02*
X170548380Y-65032000D01*
X170596000Y-65127238D01*
X170643619Y-65174857D01*
X170786476Y-65270095D01*
X170976952Y-65317714D01*
X171357904Y-65317714D01*
X171453142Y-65270095D01*
X171500761Y-65222476D01*
X171548380Y-65127238D01*
X171548380Y-64936761D01*
X171500761Y-64841523D01*
X171453142Y-64793904D01*
X171357904Y-64746285D01*
X171119809Y-64746285D01*
X171024571Y-64793904D01*
X170976952Y-64841523D01*
X170929333Y-64936761D01*
X170929333Y-65127238D01*
X170976952Y-65222476D01*
X171024571Y-65270095D01*
X171119809Y-65317714D01*
X167981333Y-76044380D02*
X167648000Y-75568190D01*
X167409904Y-76044380D02*
X167409904Y-75044380D01*
X167790857Y-75044380D01*
X167886095Y-75092000D01*
X167933714Y-75139619D01*
X167981333Y-75234857D01*
X167981333Y-75377714D01*
X167933714Y-75472952D01*
X167886095Y-75520571D01*
X167790857Y-75568190D01*
X167409904Y-75568190D01*
X168886095Y-75044380D02*
X168409904Y-75044380D01*
X168362285Y-75520571D01*
X168409904Y-75472952D01*
X168505142Y-75425333D01*
X168743238Y-75425333D01*
X168838476Y-75472952D01*
X168886095Y-75520571D01*
X168933714Y-75615809D01*
X168933714Y-75853904D01*
X168886095Y-75949142D01*
X168838476Y-75996761D01*
X168743238Y-76044380D01*
X168505142Y-76044380D01*
X168409904Y-75996761D01*
X168362285Y-75949142D01*
X167981333Y-75990380D02*
X167648000Y-75514190D01*
X167409904Y-75990380D02*
X167409904Y-74990380D01*
X167790857Y-74990380D01*
X167886095Y-75038000D01*
X167933714Y-75085619D01*
X167981333Y-75180857D01*
X167981333Y-75323714D01*
X167933714Y-75418952D01*
X167886095Y-75466571D01*
X167790857Y-75514190D01*
X167409904Y-75514190D01*
X168838476Y-75323714D02*
X168838476Y-75990380D01*
X168600380Y-74942761D02*
X168362285Y-75657047D01*
X168981333Y-75657047D01*
X167981333Y-77006380D02*
X167648000Y-76530190D01*
X167409904Y-77006380D02*
X167409904Y-76006380D01*
X167790857Y-76006380D01*
X167886095Y-76054000D01*
X167933714Y-76101619D01*
X167981333Y-76196857D01*
X167981333Y-76339714D01*
X167933714Y-76434952D01*
X167886095Y-76482571D01*
X167790857Y-76530190D01*
X167409904Y-76530190D01*
X168314666Y-76006380D02*
X168933714Y-76006380D01*
X168600380Y-76387333D01*
X168743238Y-76387333D01*
X168838476Y-76434952D01*
X168886095Y-76482571D01*
X168933714Y-76577809D01*
X168933714Y-76815904D01*
X168886095Y-76911142D01*
X168838476Y-76958761D01*
X168743238Y-77006380D01*
X168457523Y-77006380D01*
X168362285Y-76958761D01*
X168314666Y-76911142D01*
X102472619Y-58940238D02*
X102425000Y-59035476D01*
X102329761Y-59130714D01*
X102186904Y-59273571D01*
X102139285Y-59368809D01*
X102139285Y-59464047D01*
X102377380Y-59416428D02*
X102329761Y-59511666D01*
X102234523Y-59606904D01*
X102044047Y-59654523D01*
X101710714Y-59654523D01*
X101520238Y-59606904D01*
X101425000Y-59511666D01*
X101377380Y-59416428D01*
X101377380Y-59225952D01*
X101425000Y-59130714D01*
X101520238Y-59035476D01*
X101710714Y-58987857D01*
X102044047Y-58987857D01*
X102234523Y-59035476D01*
X102329761Y-59130714D01*
X102377380Y-59225952D01*
X102377380Y-59416428D01*
X101377380Y-58654523D02*
X101377380Y-58035476D01*
X101758333Y-58368809D01*
X101758333Y-58225952D01*
X101805952Y-58130714D01*
X101853571Y-58083095D01*
X101948809Y-58035476D01*
X102186904Y-58035476D01*
X102282142Y-58083095D01*
X102329761Y-58130714D01*
X102377380Y-58225952D01*
X102377380Y-58511666D01*
X102329761Y-58606904D01*
X102282142Y-58654523D01*
X142186761Y-49034619D02*
X142091523Y-48987000D01*
X141996285Y-48891761D01*
X141853428Y-48748904D01*
X141758190Y-48701285D01*
X141662952Y-48701285D01*
X141710571Y-48939380D02*
X141615333Y-48891761D01*
X141520095Y-48796523D01*
X141472476Y-48606047D01*
X141472476Y-48272714D01*
X141520095Y-48082238D01*
X141615333Y-47987000D01*
X141710571Y-47939380D01*
X141901047Y-47939380D01*
X141996285Y-47987000D01*
X142091523Y-48082238D01*
X142139142Y-48272714D01*
X142139142Y-48606047D01*
X142091523Y-48796523D01*
X141996285Y-48891761D01*
X141901047Y-48939380D01*
X141710571Y-48939380D01*
X142520095Y-48034619D02*
X142567714Y-47987000D01*
X142662952Y-47939380D01*
X142901047Y-47939380D01*
X142996285Y-47987000D01*
X143043904Y-48034619D01*
X143091523Y-48129857D01*
X143091523Y-48225095D01*
X143043904Y-48367952D01*
X142472476Y-48939380D01*
X143091523Y-48939380D01*
X142210761Y-62966619D02*
X142115523Y-62919000D01*
X142020285Y-62823761D01*
X141877428Y-62680904D01*
X141782190Y-62633285D01*
X141686952Y-62633285D01*
X141734571Y-62871380D02*
X141639333Y-62823761D01*
X141544095Y-62728523D01*
X141496476Y-62538047D01*
X141496476Y-62204714D01*
X141544095Y-62014238D01*
X141639333Y-61919000D01*
X141734571Y-61871380D01*
X141925047Y-61871380D01*
X142020285Y-61919000D01*
X142115523Y-62014238D01*
X142163142Y-62204714D01*
X142163142Y-62538047D01*
X142115523Y-62728523D01*
X142020285Y-62823761D01*
X141925047Y-62871380D01*
X141734571Y-62871380D01*
X143115523Y-62871380D02*
X142544095Y-62871380D01*
X142829809Y-62871380D02*
X142829809Y-61871380D01*
X142734571Y-62014238D01*
X142639333Y-62109476D01*
X142544095Y-62157095D01*
X184356476Y-89170380D02*
X184356476Y-89884666D01*
X184308857Y-90027523D01*
X184213619Y-90122761D01*
X184070761Y-90170380D01*
X183975523Y-90170380D01*
X185356476Y-90170380D02*
X184785047Y-90170380D01*
X185070761Y-90170380D02*
X185070761Y-89170380D01*
X184975523Y-89313238D01*
X184880285Y-89408476D01*
X184785047Y-89456095D01*
X185975523Y-89170380D02*
X186070761Y-89170380D01*
X186166000Y-89218000D01*
X186213619Y-89265619D01*
X186261238Y-89360857D01*
X186308857Y-89551333D01*
X186308857Y-89789428D01*
X186261238Y-89979904D01*
X186213619Y-90075142D01*
X186166000Y-90122761D01*
X186070761Y-90170380D01*
X185975523Y-90170380D01*
X185880285Y-90122761D01*
X185832666Y-90075142D01*
X185785047Y-89979904D01*
X185737428Y-89789428D01*
X185737428Y-89551333D01*
X185785047Y-89360857D01*
X185832666Y-89265619D01*
X185880285Y-89218000D01*
X185975523Y-89170380D01*
X173402666Y-89170380D02*
X173402666Y-89884666D01*
X173355047Y-90027523D01*
X173259809Y-90122761D01*
X173116952Y-90170380D01*
X173021714Y-90170380D01*
X173783619Y-89170380D02*
X174402666Y-89170380D01*
X174069333Y-89551333D01*
X174212190Y-89551333D01*
X174307428Y-89598952D01*
X174355047Y-89646571D01*
X174402666Y-89741809D01*
X174402666Y-89979904D01*
X174355047Y-90075142D01*
X174307428Y-90122761D01*
X174212190Y-90170380D01*
X173926476Y-90170380D01*
X173831238Y-90122761D01*
X173783619Y-90075142D01*
X179498666Y-53864380D02*
X179498666Y-54578666D01*
X179451047Y-54721523D01*
X179355809Y-54816761D01*
X179212952Y-54864380D01*
X179117714Y-54864380D01*
X180498666Y-54864380D02*
X179927238Y-54864380D01*
X180212952Y-54864380D02*
X180212952Y-53864380D01*
X180117714Y-54007238D01*
X180022476Y-54102476D01*
X179927238Y-54150095D01*
X126214380Y-55856095D02*
X125214380Y-55856095D01*
X125214380Y-55618000D01*
X125262000Y-55475142D01*
X125357238Y-55379904D01*
X125452476Y-55332285D01*
X125642952Y-55284666D01*
X125785809Y-55284666D01*
X125976285Y-55332285D01*
X126071523Y-55379904D01*
X126166761Y-55475142D01*
X126214380Y-55618000D01*
X126214380Y-55856095D01*
X125309619Y-54903714D02*
X125262000Y-54856095D01*
X125214380Y-54760857D01*
X125214380Y-54522761D01*
X125262000Y-54427523D01*
X125309619Y-54379904D01*
X125404857Y-54332285D01*
X125500095Y-54332285D01*
X125642952Y-54379904D01*
X126214380Y-54951333D01*
X126214380Y-54332285D01*
X106449904Y-68492380D02*
X106449904Y-67492380D01*
X106688000Y-67492380D01*
X106830857Y-67540000D01*
X106926095Y-67635238D01*
X106973714Y-67730476D01*
X107021333Y-67920952D01*
X107021333Y-68063809D01*
X106973714Y-68254285D01*
X106926095Y-68349523D01*
X106830857Y-68444761D01*
X106688000Y-68492380D01*
X106449904Y-68492380D01*
X107973714Y-68492380D02*
X107402285Y-68492380D01*
X107688000Y-68492380D02*
X107688000Y-67492380D01*
X107592761Y-67635238D01*
X107497523Y-67730476D01*
X107402285Y-67778095D01*
X123269142Y-56337142D02*
X123221523Y-56384761D01*
X123078666Y-56432380D01*
X122983428Y-56432380D01*
X122840571Y-56384761D01*
X122745333Y-56289523D01*
X122697714Y-56194285D01*
X122650095Y-56003809D01*
X122650095Y-55860952D01*
X122697714Y-55670476D01*
X122745333Y-55575238D01*
X122840571Y-55480000D01*
X122983428Y-55432380D01*
X123078666Y-55432380D01*
X123221523Y-55480000D01*
X123269142Y-55527619D01*
X123650095Y-55527619D02*
X123697714Y-55480000D01*
X123792952Y-55432380D01*
X124031047Y-55432380D01*
X124126285Y-55480000D01*
X124173904Y-55527619D01*
X124221523Y-55622857D01*
X124221523Y-55718095D01*
X124173904Y-55860952D01*
X123602476Y-56432380D01*
X124221523Y-56432380D01*
X125126285Y-55432380D02*
X124650095Y-55432380D01*
X124602476Y-55908571D01*
X124650095Y-55860952D01*
X124745333Y-55813333D01*
X124983428Y-55813333D01*
X125078666Y-55860952D01*
X125126285Y-55908571D01*
X125173904Y-56003809D01*
X125173904Y-56241904D01*
X125126285Y-56337142D01*
X125078666Y-56384761D01*
X124983428Y-56432380D01*
X124745333Y-56432380D01*
X124650095Y-56384761D01*
X124602476Y-56337142D01*
X118499142Y-57030857D02*
X118546761Y-57078476D01*
X118594380Y-57221333D01*
X118594380Y-57316571D01*
X118546761Y-57459428D01*
X118451523Y-57554666D01*
X118356285Y-57602285D01*
X118165809Y-57649904D01*
X118022952Y-57649904D01*
X117832476Y-57602285D01*
X117737238Y-57554666D01*
X117642000Y-57459428D01*
X117594380Y-57316571D01*
X117594380Y-57221333D01*
X117642000Y-57078476D01*
X117689619Y-57030857D01*
X117689619Y-56649904D02*
X117642000Y-56602285D01*
X117594380Y-56507047D01*
X117594380Y-56268952D01*
X117642000Y-56173714D01*
X117689619Y-56126095D01*
X117784857Y-56078476D01*
X117880095Y-56078476D01*
X118022952Y-56126095D01*
X118594380Y-56697523D01*
X118594380Y-56078476D01*
X117927714Y-55221333D02*
X118594380Y-55221333D01*
X117546761Y-55459428D02*
X118261047Y-55697523D01*
X118261047Y-55078476D01*
X130929142Y-58115142D02*
X130881523Y-58162761D01*
X130738666Y-58210380D01*
X130643428Y-58210380D01*
X130500571Y-58162761D01*
X130405333Y-58067523D01*
X130357714Y-57972285D01*
X130310095Y-57781809D01*
X130310095Y-57638952D01*
X130357714Y-57448476D01*
X130405333Y-57353238D01*
X130500571Y-57258000D01*
X130643428Y-57210380D01*
X130738666Y-57210380D01*
X130881523Y-57258000D01*
X130929142Y-57305619D01*
X131310095Y-57305619D02*
X131357714Y-57258000D01*
X131452952Y-57210380D01*
X131691047Y-57210380D01*
X131786285Y-57258000D01*
X131833904Y-57305619D01*
X131881523Y-57400857D01*
X131881523Y-57496095D01*
X131833904Y-57638952D01*
X131262476Y-58210380D01*
X131881523Y-58210380D01*
X132214857Y-57210380D02*
X132833904Y-57210380D01*
X132500571Y-57591333D01*
X132643428Y-57591333D01*
X132738666Y-57638952D01*
X132786285Y-57686571D01*
X132833904Y-57781809D01*
X132833904Y-58019904D01*
X132786285Y-58115142D01*
X132738666Y-58162761D01*
X132643428Y-58210380D01*
X132357714Y-58210380D01*
X132262476Y-58162761D01*
X132214857Y-58115142D01*
X130675142Y-70815142D02*
X130627523Y-70862761D01*
X130484666Y-70910380D01*
X130389428Y-70910380D01*
X130246571Y-70862761D01*
X130151333Y-70767523D01*
X130103714Y-70672285D01*
X130056095Y-70481809D01*
X130056095Y-70338952D01*
X130103714Y-70148476D01*
X130151333Y-70053238D01*
X130246571Y-69958000D01*
X130389428Y-69910380D01*
X130484666Y-69910380D01*
X130627523Y-69958000D01*
X130675142Y-70005619D01*
X131056095Y-70005619D02*
X131103714Y-69958000D01*
X131198952Y-69910380D01*
X131437047Y-69910380D01*
X131532285Y-69958000D01*
X131579904Y-70005619D01*
X131627523Y-70100857D01*
X131627523Y-70196095D01*
X131579904Y-70338952D01*
X131008476Y-70910380D01*
X131627523Y-70910380D01*
X132008476Y-70005619D02*
X132056095Y-69958000D01*
X132151333Y-69910380D01*
X132389428Y-69910380D01*
X132484666Y-69958000D01*
X132532285Y-70005619D01*
X132579904Y-70100857D01*
X132579904Y-70196095D01*
X132532285Y-70338952D01*
X131960857Y-70910380D01*
X132579904Y-70910380D01*
X130929142Y-56899142D02*
X130881523Y-56946761D01*
X130738666Y-56994380D01*
X130643428Y-56994380D01*
X130500571Y-56946761D01*
X130405333Y-56851523D01*
X130357714Y-56756285D01*
X130310095Y-56565809D01*
X130310095Y-56422952D01*
X130357714Y-56232476D01*
X130405333Y-56137238D01*
X130500571Y-56042000D01*
X130643428Y-55994380D01*
X130738666Y-55994380D01*
X130881523Y-56042000D01*
X130929142Y-56089619D01*
X131310095Y-56089619D02*
X131357714Y-56042000D01*
X131452952Y-55994380D01*
X131691047Y-55994380D01*
X131786285Y-56042000D01*
X131833904Y-56089619D01*
X131881523Y-56184857D01*
X131881523Y-56280095D01*
X131833904Y-56422952D01*
X131262476Y-56994380D01*
X131881523Y-56994380D01*
X132833904Y-56994380D02*
X132262476Y-56994380D01*
X132548190Y-56994380D02*
X132548190Y-55994380D01*
X132452952Y-56137238D01*
X132357714Y-56232476D01*
X132262476Y-56280095D01*
X130698142Y-71885142D02*
X130650523Y-71932761D01*
X130507666Y-71980380D01*
X130412428Y-71980380D01*
X130269571Y-71932761D01*
X130174333Y-71837523D01*
X130126714Y-71742285D01*
X130079095Y-71551809D01*
X130079095Y-71408952D01*
X130126714Y-71218476D01*
X130174333Y-71123238D01*
X130269571Y-71028000D01*
X130412428Y-70980380D01*
X130507666Y-70980380D01*
X130650523Y-71028000D01*
X130698142Y-71075619D01*
X131079095Y-71075619D02*
X131126714Y-71028000D01*
X131221952Y-70980380D01*
X131460047Y-70980380D01*
X131555285Y-71028000D01*
X131602904Y-71075619D01*
X131650523Y-71170857D01*
X131650523Y-71266095D01*
X131602904Y-71408952D01*
X131031476Y-71980380D01*
X131650523Y-71980380D01*
X132269571Y-70980380D02*
X132364809Y-70980380D01*
X132460047Y-71028000D01*
X132507666Y-71075619D01*
X132555285Y-71170857D01*
X132602904Y-71361333D01*
X132602904Y-71599428D01*
X132555285Y-71789904D01*
X132507666Y-71885142D01*
X132460047Y-71932761D01*
X132364809Y-71980380D01*
X132269571Y-71980380D01*
X132174333Y-71932761D01*
X132126714Y-71885142D01*
X132079095Y-71789904D01*
X132031476Y-71599428D01*
X132031476Y-71361333D01*
X132079095Y-71170857D01*
X132126714Y-71075619D01*
X132174333Y-71028000D01*
X132269571Y-70980380D01*
X114557142Y-64627857D02*
X114604761Y-64675476D01*
X114652380Y-64818333D01*
X114652380Y-64913571D01*
X114604761Y-65056428D01*
X114509523Y-65151666D01*
X114414285Y-65199285D01*
X114223809Y-65246904D01*
X114080952Y-65246904D01*
X113890476Y-65199285D01*
X113795238Y-65151666D01*
X113700000Y-65056428D01*
X113652380Y-64913571D01*
X113652380Y-64818333D01*
X113700000Y-64675476D01*
X113747619Y-64627857D01*
X114652380Y-63675476D02*
X114652380Y-64246904D01*
X114652380Y-63961190D02*
X113652380Y-63961190D01*
X113795238Y-64056428D01*
X113890476Y-64151666D01*
X113938095Y-64246904D01*
X114652380Y-63199285D02*
X114652380Y-63008809D01*
X114604761Y-62913571D01*
X114557142Y-62865952D01*
X114414285Y-62770714D01*
X114223809Y-62723095D01*
X113842857Y-62723095D01*
X113747619Y-62770714D01*
X113700000Y-62818333D01*
X113652380Y-62913571D01*
X113652380Y-63104047D01*
X113700000Y-63199285D01*
X113747619Y-63246904D01*
X113842857Y-63294523D01*
X114080952Y-63294523D01*
X114176190Y-63246904D01*
X114223809Y-63199285D01*
X114271428Y-63104047D01*
X114271428Y-62913571D01*
X114223809Y-62818333D01*
X114176190Y-62770714D01*
X114080952Y-62723095D01*
X138179142Y-78112857D02*
X138226761Y-78160476D01*
X138274380Y-78303333D01*
X138274380Y-78398571D01*
X138226761Y-78541428D01*
X138131523Y-78636666D01*
X138036285Y-78684285D01*
X137845809Y-78731904D01*
X137702952Y-78731904D01*
X137512476Y-78684285D01*
X137417238Y-78636666D01*
X137322000Y-78541428D01*
X137274380Y-78398571D01*
X137274380Y-78303333D01*
X137322000Y-78160476D01*
X137369619Y-78112857D01*
X138274380Y-77160476D02*
X138274380Y-77731904D01*
X138274380Y-77446190D02*
X137274380Y-77446190D01*
X137417238Y-77541428D01*
X137512476Y-77636666D01*
X137560095Y-77731904D01*
X137702952Y-76589047D02*
X137655333Y-76684285D01*
X137607714Y-76731904D01*
X137512476Y-76779523D01*
X137464857Y-76779523D01*
X137369619Y-76731904D01*
X137322000Y-76684285D01*
X137274380Y-76589047D01*
X137274380Y-76398571D01*
X137322000Y-76303333D01*
X137369619Y-76255714D01*
X137464857Y-76208095D01*
X137512476Y-76208095D01*
X137607714Y-76255714D01*
X137655333Y-76303333D01*
X137702952Y-76398571D01*
X137702952Y-76589047D01*
X137750571Y-76684285D01*
X137798190Y-76731904D01*
X137893428Y-76779523D01*
X138083904Y-76779523D01*
X138179142Y-76731904D01*
X138226761Y-76684285D01*
X138274380Y-76589047D01*
X138274380Y-76398571D01*
X138226761Y-76303333D01*
X138179142Y-76255714D01*
X138083904Y-76208095D01*
X137893428Y-76208095D01*
X137798190Y-76255714D01*
X137750571Y-76303333D01*
X137702952Y-76398571D01*
X139819142Y-63503142D02*
X139771523Y-63550761D01*
X139628666Y-63598380D01*
X139533428Y-63598380D01*
X139390571Y-63550761D01*
X139295333Y-63455523D01*
X139247714Y-63360285D01*
X139200095Y-63169809D01*
X139200095Y-63026952D01*
X139247714Y-62836476D01*
X139295333Y-62741238D01*
X139390571Y-62646000D01*
X139533428Y-62598380D01*
X139628666Y-62598380D01*
X139771523Y-62646000D01*
X139819142Y-62693619D01*
X140771523Y-63598380D02*
X140200095Y-63598380D01*
X140485809Y-63598380D02*
X140485809Y-62598380D01*
X140390571Y-62741238D01*
X140295333Y-62836476D01*
X140200095Y-62884095D01*
X141104857Y-62598380D02*
X141771523Y-62598380D01*
X141342952Y-63598380D01*
X139565142Y-78489142D02*
X139517523Y-78536761D01*
X139374666Y-78584380D01*
X139279428Y-78584380D01*
X139136571Y-78536761D01*
X139041333Y-78441523D01*
X138993714Y-78346285D01*
X138946095Y-78155809D01*
X138946095Y-78012952D01*
X138993714Y-77822476D01*
X139041333Y-77727238D01*
X139136571Y-77632000D01*
X139279428Y-77584380D01*
X139374666Y-77584380D01*
X139517523Y-77632000D01*
X139565142Y-77679619D01*
X140517523Y-78584380D02*
X139946095Y-78584380D01*
X140231809Y-78584380D02*
X140231809Y-77584380D01*
X140136571Y-77727238D01*
X140041333Y-77822476D01*
X139946095Y-77870095D01*
X141374666Y-77584380D02*
X141184190Y-77584380D01*
X141088952Y-77632000D01*
X141041333Y-77679619D01*
X140946095Y-77822476D01*
X140898476Y-78012952D01*
X140898476Y-78393904D01*
X140946095Y-78489142D01*
X140993714Y-78536761D01*
X141088952Y-78584380D01*
X141279428Y-78584380D01*
X141374666Y-78536761D01*
X141422285Y-78489142D01*
X141469904Y-78393904D01*
X141469904Y-78155809D01*
X141422285Y-78060571D01*
X141374666Y-78012952D01*
X141279428Y-77965333D01*
X141088952Y-77965333D01*
X140993714Y-78012952D01*
X140946095Y-78060571D01*
X140898476Y-78155809D01*
X148285142Y-48394857D02*
X148332761Y-48442476D01*
X148380380Y-48585333D01*
X148380380Y-48680571D01*
X148332761Y-48823428D01*
X148237523Y-48918666D01*
X148142285Y-48966285D01*
X147951809Y-49013904D01*
X147808952Y-49013904D01*
X147618476Y-48966285D01*
X147523238Y-48918666D01*
X147428000Y-48823428D01*
X147380380Y-48680571D01*
X147380380Y-48585333D01*
X147428000Y-48442476D01*
X147475619Y-48394857D01*
X148380380Y-47442476D02*
X148380380Y-48013904D01*
X148380380Y-47728190D02*
X147380380Y-47728190D01*
X147523238Y-47823428D01*
X147618476Y-47918666D01*
X147666095Y-48013904D01*
X147380380Y-46537714D02*
X147380380Y-47013904D01*
X147856571Y-47061523D01*
X147808952Y-47013904D01*
X147761333Y-46918666D01*
X147761333Y-46680571D01*
X147808952Y-46585333D01*
X147856571Y-46537714D01*
X147951809Y-46490095D01*
X148189904Y-46490095D01*
X148285142Y-46537714D01*
X148332761Y-46585333D01*
X148380380Y-46680571D01*
X148380380Y-46918666D01*
X148332761Y-47013904D01*
X148285142Y-47061523D01*
X151133142Y-78897857D02*
X151180761Y-78945476D01*
X151228380Y-79088333D01*
X151228380Y-79183571D01*
X151180761Y-79326428D01*
X151085523Y-79421666D01*
X150990285Y-79469285D01*
X150799809Y-79516904D01*
X150656952Y-79516904D01*
X150466476Y-79469285D01*
X150371238Y-79421666D01*
X150276000Y-79326428D01*
X150228380Y-79183571D01*
X150228380Y-79088333D01*
X150276000Y-78945476D01*
X150323619Y-78897857D01*
X151228380Y-77945476D02*
X151228380Y-78516904D01*
X151228380Y-78231190D02*
X150228380Y-78231190D01*
X150371238Y-78326428D01*
X150466476Y-78421666D01*
X150514095Y-78516904D01*
X150561714Y-77088333D02*
X151228380Y-77088333D01*
X150180761Y-77326428D02*
X150895047Y-77564523D01*
X150895047Y-76945476D01*
X172331142Y-63449142D02*
X172283523Y-63496761D01*
X172140666Y-63544380D01*
X172045428Y-63544380D01*
X171902571Y-63496761D01*
X171807333Y-63401523D01*
X171759714Y-63306285D01*
X171712095Y-63115809D01*
X171712095Y-62972952D01*
X171759714Y-62782476D01*
X171807333Y-62687238D01*
X171902571Y-62592000D01*
X172045428Y-62544380D01*
X172140666Y-62544380D01*
X172283523Y-62592000D01*
X172331142Y-62639619D01*
X173283523Y-63544380D02*
X172712095Y-63544380D01*
X172997809Y-63544380D02*
X172997809Y-62544380D01*
X172902571Y-62687238D01*
X172807333Y-62782476D01*
X172712095Y-62830095D01*
X173616857Y-62544380D02*
X174235904Y-62544380D01*
X173902571Y-62925333D01*
X174045428Y-62925333D01*
X174140666Y-62972952D01*
X174188285Y-63020571D01*
X174235904Y-63115809D01*
X174235904Y-63353904D01*
X174188285Y-63449142D01*
X174140666Y-63496761D01*
X174045428Y-63544380D01*
X173759714Y-63544380D01*
X173664476Y-63496761D01*
X173616857Y-63449142D01*
X176141142Y-64719142D02*
X176093523Y-64766761D01*
X175950666Y-64814380D01*
X175855428Y-64814380D01*
X175712571Y-64766761D01*
X175617333Y-64671523D01*
X175569714Y-64576285D01*
X175522095Y-64385809D01*
X175522095Y-64242952D01*
X175569714Y-64052476D01*
X175617333Y-63957238D01*
X175712571Y-63862000D01*
X175855428Y-63814380D01*
X175950666Y-63814380D01*
X176093523Y-63862000D01*
X176141142Y-63909619D01*
X177093523Y-64814380D02*
X176522095Y-64814380D01*
X176807809Y-64814380D02*
X176807809Y-63814380D01*
X176712571Y-63957238D01*
X176617333Y-64052476D01*
X176522095Y-64100095D01*
X177474476Y-63909619D02*
X177522095Y-63862000D01*
X177617333Y-63814380D01*
X177855428Y-63814380D01*
X177950666Y-63862000D01*
X177998285Y-63909619D01*
X178045904Y-64004857D01*
X178045904Y-64100095D01*
X177998285Y-64242952D01*
X177426857Y-64814380D01*
X178045904Y-64814380D01*
X173855142Y-67059142D02*
X173807523Y-67106761D01*
X173664666Y-67154380D01*
X173569428Y-67154380D01*
X173426571Y-67106761D01*
X173331333Y-67011523D01*
X173283714Y-66916285D01*
X173236095Y-66725809D01*
X173236095Y-66582952D01*
X173283714Y-66392476D01*
X173331333Y-66297238D01*
X173426571Y-66202000D01*
X173569428Y-66154380D01*
X173664666Y-66154380D01*
X173807523Y-66202000D01*
X173855142Y-66249619D01*
X174807523Y-67154380D02*
X174236095Y-67154380D01*
X174521809Y-67154380D02*
X174521809Y-66154380D01*
X174426571Y-66297238D01*
X174331333Y-66392476D01*
X174236095Y-66440095D01*
X175759904Y-67154380D02*
X175188476Y-67154380D01*
X175474190Y-67154380D02*
X175474190Y-66154380D01*
X175378952Y-66297238D01*
X175283714Y-66392476D01*
X175188476Y-66440095D01*
X184523142Y-63449142D02*
X184475523Y-63496761D01*
X184332666Y-63544380D01*
X184237428Y-63544380D01*
X184094571Y-63496761D01*
X183999333Y-63401523D01*
X183951714Y-63306285D01*
X183904095Y-63115809D01*
X183904095Y-62972952D01*
X183951714Y-62782476D01*
X183999333Y-62687238D01*
X184094571Y-62592000D01*
X184237428Y-62544380D01*
X184332666Y-62544380D01*
X184475523Y-62592000D01*
X184523142Y-62639619D01*
X185475523Y-63544380D02*
X184904095Y-63544380D01*
X185189809Y-63544380D02*
X185189809Y-62544380D01*
X185094571Y-62687238D01*
X184999333Y-62782476D01*
X184904095Y-62830095D01*
X186094571Y-62544380D02*
X186189809Y-62544380D01*
X186285047Y-62592000D01*
X186332666Y-62639619D01*
X186380285Y-62734857D01*
X186427904Y-62925333D01*
X186427904Y-63163428D01*
X186380285Y-63353904D01*
X186332666Y-63449142D01*
X186285047Y-63496761D01*
X186189809Y-63544380D01*
X186094571Y-63544380D01*
X185999333Y-63496761D01*
X185951714Y-63449142D01*
X185904095Y-63353904D01*
X185856476Y-63163428D01*
X185856476Y-62925333D01*
X185904095Y-62734857D01*
X185951714Y-62639619D01*
X185999333Y-62592000D01*
X186094571Y-62544380D01*
X187031333Y-65789142D02*
X186983714Y-65836761D01*
X186840857Y-65884380D01*
X186745619Y-65884380D01*
X186602761Y-65836761D01*
X186507523Y-65741523D01*
X186459904Y-65646285D01*
X186412285Y-65455809D01*
X186412285Y-65312952D01*
X186459904Y-65122476D01*
X186507523Y-65027238D01*
X186602761Y-64932000D01*
X186745619Y-64884380D01*
X186840857Y-64884380D01*
X186983714Y-64932000D01*
X187031333Y-64979619D01*
X187507523Y-65884380D02*
X187698000Y-65884380D01*
X187793238Y-65836761D01*
X187840857Y-65789142D01*
X187936095Y-65646285D01*
X187983714Y-65455809D01*
X187983714Y-65074857D01*
X187936095Y-64979619D01*
X187888476Y-64932000D01*
X187793238Y-64884380D01*
X187602761Y-64884380D01*
X187507523Y-64932000D01*
X187459904Y-64979619D01*
X187412285Y-65074857D01*
X187412285Y-65312952D01*
X187459904Y-65408190D01*
X187507523Y-65455809D01*
X187602761Y-65503428D01*
X187793238Y-65503428D01*
X187888476Y-65455809D01*
X187936095Y-65408190D01*
X187983714Y-65312952D01*
X189317187Y-65745502D02*
X189269568Y-65793121D01*
X189126711Y-65840740D01*
X189031473Y-65840740D01*
X188888615Y-65793121D01*
X188793377Y-65697883D01*
X188745758Y-65602645D01*
X188698139Y-65412169D01*
X188698139Y-65269312D01*
X188745758Y-65078836D01*
X188793377Y-64983598D01*
X188888615Y-64888360D01*
X189031473Y-64840740D01*
X189126711Y-64840740D01*
X189269568Y-64888360D01*
X189317187Y-64935979D01*
X189888615Y-65269312D02*
X189793377Y-65221693D01*
X189745758Y-65174074D01*
X189698139Y-65078836D01*
X189698139Y-65031217D01*
X189745758Y-64935979D01*
X189793377Y-64888360D01*
X189888615Y-64840740D01*
X190079092Y-64840740D01*
X190174330Y-64888360D01*
X190221949Y-64935979D01*
X190269568Y-65031217D01*
X190269568Y-65078836D01*
X190221949Y-65174074D01*
X190174330Y-65221693D01*
X190079092Y-65269312D01*
X189888615Y-65269312D01*
X189793377Y-65316931D01*
X189745758Y-65364550D01*
X189698139Y-65459788D01*
X189698139Y-65650264D01*
X189745758Y-65745502D01*
X189793377Y-65793121D01*
X189888615Y-65840740D01*
X190079092Y-65840740D01*
X190174330Y-65793121D01*
X190221949Y-65745502D01*
X190269568Y-65650264D01*
X190269568Y-65459788D01*
X190221949Y-65364550D01*
X190174330Y-65316931D01*
X190079092Y-65269312D01*
M02*
