G04*
G04 #@! TF.GenerationSoftware,Altium Limited,Altium Designer,18.1.7 (191)*
G04*
G04 Layer_Color=128*
%FSLAX25Y25*%
%MOIN*%
G70*
G01*
G75*
%ADD15R,0.02441X0.02441*%
%ADD22R,0.02165X0.02165*%
%ADD92R,0.05550X0.01400*%
D15*
X299189Y403000D02*
D03*
X302811D02*
D03*
Y431500D02*
D03*
X299189D02*
D03*
X479811Y415417D02*
D03*
X476189D02*
D03*
X479811Y430000D02*
D03*
X476189D02*
D03*
X389811Y445500D02*
D03*
X386189D02*
D03*
X479811Y444500D02*
D03*
X476189D02*
D03*
X302811Y445500D02*
D03*
X299189D02*
D03*
X302811Y417000D02*
D03*
X299189D02*
D03*
X482811Y402839D02*
D03*
X479189D02*
D03*
X386189Y431500D02*
D03*
X389811D02*
D03*
X386189Y402500D02*
D03*
X389811D02*
D03*
X386189Y416500D02*
D03*
X389811D02*
D03*
D22*
X234728Y446118D02*
D03*
X238272D02*
D03*
X414173Y446000D02*
D03*
X410629D02*
D03*
X410586Y416941D02*
D03*
X414129D02*
D03*
X410586Y431441D02*
D03*
X414129D02*
D03*
X414272Y403000D02*
D03*
X410728D02*
D03*
X329272Y445000D02*
D03*
X325728D02*
D03*
X325768Y416957D02*
D03*
X329311D02*
D03*
X329090Y431457D02*
D03*
X325547D02*
D03*
X325457Y402500D02*
D03*
X329000D02*
D03*
X234728Y432000D02*
D03*
X238272D02*
D03*
X234729Y404043D02*
D03*
X238272D02*
D03*
X234729Y418618D02*
D03*
X238272D02*
D03*
D92*
X254375Y395162D02*
D03*
Y397721D02*
D03*
Y400280D02*
D03*
Y402839D02*
D03*
Y405398D02*
D03*
Y407957D02*
D03*
Y410515D02*
D03*
Y413074D02*
D03*
X277625D02*
D03*
Y410515D02*
D03*
Y407957D02*
D03*
Y405398D02*
D03*
Y402839D02*
D03*
Y400280D02*
D03*
Y397721D02*
D03*
Y395162D02*
D03*
X344875Y394661D02*
D03*
Y397220D02*
D03*
Y399780D02*
D03*
Y402339D02*
D03*
Y404897D02*
D03*
Y407456D02*
D03*
Y410015D02*
D03*
Y412574D02*
D03*
X368125D02*
D03*
Y410015D02*
D03*
Y407456D02*
D03*
Y404897D02*
D03*
Y402339D02*
D03*
Y399780D02*
D03*
Y397220D02*
D03*
Y394661D02*
D03*
X434375Y394162D02*
D03*
Y396721D02*
D03*
Y399279D02*
D03*
Y401838D02*
D03*
Y404397D02*
D03*
Y406956D02*
D03*
Y409515D02*
D03*
Y412075D02*
D03*
X457625D02*
D03*
Y409515D02*
D03*
Y406956D02*
D03*
Y404397D02*
D03*
Y401838D02*
D03*
Y399279D02*
D03*
Y396721D02*
D03*
Y394162D02*
D03*
M02*
