G04*
G04 #@! TF.GenerationSoftware,Altium Limited,Altium Designer,18.1.7 (191)*
G04*
G04 Layer_Color=255*
%FSLAX25Y25*%
%MOIN*%
G70*
G01*
G75*
%ADD15R,0.02441X0.02441*%
%ADD22R,0.02165X0.02165*%
%ADD66C,0.11811*%
%ADD67C,0.10827*%
%ADD68R,0.10827X0.10827*%
%ADD77R,0.06693X0.06693*%
%ADD78C,0.06693*%
%ADD79C,0.06299*%
%ADD80R,0.05512X0.05512*%
%ADD81C,0.05512*%
%ADD82C,0.02657*%
%ADD83C,0.07382*%
%ADD84C,0.02598*%
%ADD85C,0.06319*%
%ADD86C,0.03937*%
%ADD87C,0.14961*%
%ADD88R,0.06299X0.06299*%
%ADD89C,0.02000*%
%ADD90C,0.06000*%
%ADD92R,0.05550X0.01400*%
D15*
X299189Y403000D02*
D03*
X302811D02*
D03*
Y431500D02*
D03*
X299189D02*
D03*
X479811Y415417D02*
D03*
X476189D02*
D03*
X479811Y430000D02*
D03*
X476189D02*
D03*
X389811Y445500D02*
D03*
X386189D02*
D03*
X479811Y444500D02*
D03*
X476189D02*
D03*
X302811Y445500D02*
D03*
X299189D02*
D03*
X302811Y417000D02*
D03*
X299189D02*
D03*
X482811Y402839D02*
D03*
X479189D02*
D03*
X386189Y431500D02*
D03*
X389811D02*
D03*
X386189Y402500D02*
D03*
X389811D02*
D03*
X386189Y416500D02*
D03*
X389811D02*
D03*
D22*
X234728Y446118D02*
D03*
X238272D02*
D03*
X414173Y446000D02*
D03*
X410629D02*
D03*
X410586Y416941D02*
D03*
X414129D02*
D03*
X410586Y431441D02*
D03*
X414129D02*
D03*
X414272Y403000D02*
D03*
X410728D02*
D03*
X329272Y445000D02*
D03*
X325728D02*
D03*
X325768Y416957D02*
D03*
X329311D02*
D03*
X329090Y431457D02*
D03*
X325547D02*
D03*
X325457Y402500D02*
D03*
X329000D02*
D03*
X234728Y432000D02*
D03*
X238272D02*
D03*
X234729Y404043D02*
D03*
X238272D02*
D03*
X234729Y418618D02*
D03*
X238272D02*
D03*
D66*
X254224Y338579D02*
D03*
Y383421D02*
D03*
D67*
X304618D02*
D03*
Y360980D02*
D03*
Y338539D02*
D03*
X282965Y383421D02*
D03*
Y360980D02*
D03*
D68*
Y338539D02*
D03*
D77*
X569343Y268472D02*
D03*
D78*
Y278315D02*
D03*
Y288158D02*
D03*
Y298000D02*
D03*
Y307842D02*
D03*
Y317685D02*
D03*
X559500Y268472D02*
D03*
Y278315D02*
D03*
Y288158D02*
D03*
Y298000D02*
D03*
Y307842D02*
D03*
Y317685D02*
D03*
D79*
X531232Y268472D02*
D03*
Y317685D02*
D03*
X270169Y208220D02*
D03*
Y198378D02*
D03*
X278043Y208220D02*
D03*
D80*
X302500Y211342D02*
D03*
D81*
Y201500D02*
D03*
X306000Y318500D02*
D03*
D82*
X568776Y361606D02*
D03*
D83*
X563500Y386213D02*
D03*
Y376370D02*
D03*
Y366528D02*
D03*
Y356685D02*
D03*
Y346843D02*
D03*
Y337000D02*
D03*
D84*
X429378Y455784D02*
D03*
X464811D02*
D03*
X340378D02*
D03*
X375811D02*
D03*
X250378D02*
D03*
X285811D02*
D03*
X413468Y237233D02*
D03*
X417618D02*
D03*
Y233060D02*
D03*
X413468D02*
D03*
D85*
X441189Y463500D02*
D03*
X453000D02*
D03*
X352189D02*
D03*
X364000D02*
D03*
X262189D02*
D03*
X274000D02*
D03*
D86*
X306000Y298500D02*
D03*
Y303500D02*
D03*
Y308500D02*
D03*
Y313500D02*
D03*
D87*
X259500Y227000D02*
D03*
Y179598D02*
D03*
D88*
X278043Y198378D02*
D03*
D89*
X266500Y404220D02*
D03*
X446000Y395661D02*
D03*
Y403118D02*
D03*
Y411000D02*
D03*
X357000Y396429D02*
D03*
Y403618D02*
D03*
X356974Y410766D02*
D03*
X266500Y396500D02*
D03*
Y411500D02*
D03*
D90*
X569791Y169000D02*
D03*
Y466500D02*
D03*
X226000Y169000D02*
D03*
Y466500D02*
D03*
D92*
X254375Y395162D02*
D03*
Y397721D02*
D03*
Y400280D02*
D03*
Y402839D02*
D03*
Y405398D02*
D03*
Y407957D02*
D03*
Y410515D02*
D03*
Y413074D02*
D03*
X277625D02*
D03*
Y410515D02*
D03*
Y407957D02*
D03*
Y405398D02*
D03*
Y402839D02*
D03*
Y400280D02*
D03*
Y397721D02*
D03*
Y395162D02*
D03*
X344875Y394661D02*
D03*
Y397220D02*
D03*
Y399780D02*
D03*
Y402339D02*
D03*
Y404897D02*
D03*
Y407456D02*
D03*
Y410015D02*
D03*
Y412574D02*
D03*
X368125D02*
D03*
Y410015D02*
D03*
Y407456D02*
D03*
Y404897D02*
D03*
Y402339D02*
D03*
Y399780D02*
D03*
Y397220D02*
D03*
Y394661D02*
D03*
X434375Y394162D02*
D03*
Y396721D02*
D03*
Y399279D02*
D03*
Y401838D02*
D03*
Y404397D02*
D03*
Y406956D02*
D03*
Y409515D02*
D03*
Y412075D02*
D03*
X457625D02*
D03*
Y409515D02*
D03*
Y406956D02*
D03*
Y404397D02*
D03*
Y401838D02*
D03*
Y399279D02*
D03*
Y396721D02*
D03*
Y394162D02*
D03*
M02*
