G04*
G04 #@! TF.GenerationSoftware,Altium Limited,Altium Designer,18.1.7 (191)*
G04*
G04 Layer_Color=8421504*
%FSLAX25Y25*%
%MOIN*%
G70*
G01*
G75*
%ADD15R,0.02441X0.02441*%
%ADD16R,0.02165X0.02165*%
%ADD17R,0.01181X0.04921*%
%ADD18O,0.01181X0.04921*%
%ADD19O,0.04921X0.01181*%
%ADD20R,0.06299X0.03740*%
%ADD21R,0.03740X0.06299*%
%ADD22R,0.02165X0.02165*%
%ADD23R,0.03937X0.05906*%
%ADD24R,0.02441X0.02441*%
G04:AMPARAMS|DCode=25|XSize=35.43mil|YSize=39.37mil|CornerRadius=8.86mil|HoleSize=0mil|Usage=FLASHONLY|Rotation=90.000|XOffset=0mil|YOffset=0mil|HoleType=Round|Shape=RoundedRectangle|*
%AMROUNDEDRECTD25*
21,1,0.03543,0.02165,0,0,90.0*
21,1,0.01772,0.03937,0,0,90.0*
1,1,0.01772,0.01083,0.00886*
1,1,0.01772,0.01083,-0.00886*
1,1,0.01772,-0.01083,-0.00886*
1,1,0.01772,-0.01083,0.00886*
%
%ADD25ROUNDEDRECTD25*%
%ADD26R,0.03937X0.03543*%
%ADD27R,0.09449X0.12992*%
%ADD28R,0.09449X0.03937*%
%ADD29R,0.02756X0.03347*%
%ADD30R,0.03347X0.02756*%
%ADD31O,0.03347X0.01181*%
%ADD32O,0.01181X0.03347*%
%ADD33R,0.08189X0.08189*%
D15*
X259189Y281448D02*
D03*
X262811D02*
D03*
X436067Y258000D02*
D03*
X439689D02*
D03*
X363689Y252500D02*
D03*
X367311D02*
D03*
X436378Y273000D02*
D03*
X440000D02*
D03*
X312811Y269500D02*
D03*
X309189D02*
D03*
X532811Y185500D02*
D03*
X529189D02*
D03*
X271189Y301000D02*
D03*
X274811D02*
D03*
X259189Y266448D02*
D03*
X262811D02*
D03*
X386689Y330500D02*
D03*
X390311D02*
D03*
X312811Y277500D02*
D03*
X309189D02*
D03*
D16*
X450000Y250000D02*
D03*
Y246457D02*
D03*
X391000Y226272D02*
D03*
Y222728D02*
D03*
X420500Y203728D02*
D03*
Y207272D02*
D03*
X414000Y203728D02*
D03*
Y207272D02*
D03*
X374500Y222728D02*
D03*
Y226272D02*
D03*
D17*
X352189Y267102D02*
D03*
D18*
X354157D02*
D03*
X356126D02*
D03*
X358094D02*
D03*
X360063D02*
D03*
X362032D02*
D03*
X364000D02*
D03*
X365969D02*
D03*
X367937D02*
D03*
X369906D02*
D03*
X371874D02*
D03*
X373843D02*
D03*
X375811D02*
D03*
X377780D02*
D03*
X379748D02*
D03*
X381717D02*
D03*
Y311000D02*
D03*
X379748D02*
D03*
X377780D02*
D03*
X375811D02*
D03*
X373843D02*
D03*
X371874D02*
D03*
X369906D02*
D03*
X367937D02*
D03*
X365969D02*
D03*
X364000D02*
D03*
X362032D02*
D03*
X360063D02*
D03*
X358094D02*
D03*
X356126D02*
D03*
X354157D02*
D03*
X352189D02*
D03*
D19*
X388902Y274287D02*
D03*
Y276256D02*
D03*
Y278224D02*
D03*
Y280193D02*
D03*
Y282161D02*
D03*
Y284130D02*
D03*
Y286098D02*
D03*
Y288067D02*
D03*
Y290035D02*
D03*
Y292004D02*
D03*
Y293972D02*
D03*
Y295941D02*
D03*
Y297909D02*
D03*
Y299878D02*
D03*
Y301846D02*
D03*
Y303815D02*
D03*
X345004D02*
D03*
Y301846D02*
D03*
Y299878D02*
D03*
Y297909D02*
D03*
Y295941D02*
D03*
Y293972D02*
D03*
Y292004D02*
D03*
Y290035D02*
D03*
Y288067D02*
D03*
Y286098D02*
D03*
Y284130D02*
D03*
Y282161D02*
D03*
Y280193D02*
D03*
Y278224D02*
D03*
Y276256D02*
D03*
Y274287D02*
D03*
D20*
X313000Y169283D02*
D03*
Y179717D02*
D03*
X299500D02*
D03*
Y169284D02*
D03*
D21*
X522598Y210500D02*
D03*
X512165D02*
D03*
X522382Y189500D02*
D03*
X511949D02*
D03*
X550217Y233000D02*
D03*
X539783D02*
D03*
X550216Y244500D02*
D03*
X539783D02*
D03*
D22*
X390272Y342000D02*
D03*
X386728D02*
D03*
X393772Y234000D02*
D03*
X390228D02*
D03*
X510728Y317000D02*
D03*
X514272D02*
D03*
X510728Y307500D02*
D03*
X514272D02*
D03*
X510728Y278500D02*
D03*
X514272D02*
D03*
X510728Y268500D02*
D03*
X514272D02*
D03*
X510728Y288000D02*
D03*
X514272D02*
D03*
X510728Y298000D02*
D03*
X514272D02*
D03*
X410000Y258000D02*
D03*
X406457D02*
D03*
X419957D02*
D03*
X423500D02*
D03*
X287228Y313500D02*
D03*
X290772D02*
D03*
X262772D02*
D03*
X259228D02*
D03*
D23*
X401331Y207500D02*
D03*
X392669D02*
D03*
X438838Y236280D02*
D03*
X447500D02*
D03*
D24*
X388500Y321811D02*
D03*
Y318189D02*
D03*
X378000Y326689D02*
D03*
Y330311D02*
D03*
X360000Y331189D02*
D03*
Y334811D02*
D03*
Y321689D02*
D03*
Y325311D02*
D03*
X319500Y294311D02*
D03*
Y290689D02*
D03*
X279500Y240689D02*
D03*
Y244311D02*
D03*
X263500Y240689D02*
D03*
Y244311D02*
D03*
X248000Y240689D02*
D03*
Y244311D02*
D03*
X559500Y245811D02*
D03*
Y242189D02*
D03*
X305000Y226811D02*
D03*
Y223189D02*
D03*
D25*
X366201Y322000D02*
D03*
Y330661D02*
D03*
X372500D02*
D03*
D26*
Y322000D02*
D03*
D27*
X564799Y206500D02*
D03*
D28*
X541964Y215555D02*
D03*
Y197445D02*
D03*
Y206500D02*
D03*
D29*
X308244Y258500D02*
D03*
X313756D02*
D03*
X511626Y230000D02*
D03*
X517138D02*
D03*
X264500Y297448D02*
D03*
X258988D02*
D03*
D30*
X294500Y223244D02*
D03*
Y228756D02*
D03*
D31*
X408020Y238839D02*
D03*
Y236280D02*
D03*
Y233720D02*
D03*
Y231161D02*
D03*
X422980D02*
D03*
Y233720D02*
D03*
Y236280D02*
D03*
Y238839D02*
D03*
D32*
X411661Y227520D02*
D03*
X414220D02*
D03*
X416780D02*
D03*
X419339D02*
D03*
Y242480D02*
D03*
X416780D02*
D03*
X414220D02*
D03*
X411661D02*
D03*
D33*
X415500Y235000D02*
D03*
M02*
