G04*
G04 #@! TF.GenerationSoftware,Altium Limited,Altium Designer,18.1.7 (191)*
G04*
G04 Layer_Color=65535*
%FSLAX25Y25*%
%MOIN*%
G70*
G01*
G75*
%ADD10C,0.00984*%
%ADD11C,0.01000*%
%ADD12C,0.00787*%
%ADD13C,0.00394*%
%ADD14C,0.00500*%
D10*
X352129Y273877D02*
G03*
X352129Y273877I-492J0D01*
G01*
X372492Y324909D02*
G03*
X372492Y324909I-197J0D01*
G01*
X542457Y219689D02*
G03*
X542457Y219689I-492J0D01*
G01*
X283850Y198378D02*
G03*
X283850Y198378I-492J0D01*
G01*
X283555Y321925D02*
G03*
X283555Y321925I-492J0D01*
G01*
X404969Y242874D02*
G03*
X404969Y242874I-492J0D01*
G01*
D11*
X314902Y206421D02*
G03*
X314902Y206421I-12402J0D01*
G01*
X389000Y203000D02*
Y212000D01*
Y203000D02*
X403500D01*
X405500Y205000D01*
Y210000D01*
X403500Y212000D02*
X405500Y210000D01*
X389000Y212000D02*
X403500D01*
X451169Y231780D02*
Y240780D01*
X436669D02*
X451169D01*
X434669Y238780D02*
X436669Y240780D01*
X434669Y233780D02*
Y238780D01*
Y233780D02*
X436669Y231780D01*
X451169D01*
X496500Y451526D02*
Y456525D01*
X498999D01*
X499832Y455692D01*
Y454026D01*
X498999Y453193D01*
X496500D01*
X498166D02*
X499832Y451526D01*
X502331D02*
X503998D01*
X504831Y452359D01*
Y454026D01*
X503998Y454859D01*
X502331D01*
X501498Y454026D01*
Y452359D01*
X502331Y451526D01*
X506497Y454859D02*
X508163Y451526D01*
X509829Y454859D01*
X513994Y451526D02*
X512328D01*
X511495Y452359D01*
Y454026D01*
X512328Y454859D01*
X513994D01*
X514827Y454026D01*
Y453193D01*
X511495D01*
X516494Y454859D02*
Y451526D01*
Y453193D01*
X517327Y454026D01*
X518160Y454859D01*
X518993D01*
X526490Y451526D02*
Y454859D01*
X528156Y456525D01*
X529822Y454859D01*
Y451526D01*
Y454026D01*
X526490D01*
X531489Y454859D02*
Y451526D01*
Y453193D01*
X532322Y454026D01*
X533155Y454859D01*
X533988D01*
X536487Y451526D02*
Y454859D01*
X537320D01*
X538153Y454026D01*
Y451526D01*
Y454026D01*
X538986Y454859D01*
X539819Y454026D01*
Y451526D01*
X546484Y456525D02*
Y451526D01*
X548983D01*
X549816Y452359D01*
Y453193D01*
X548983Y454026D01*
X546484D01*
X548983D01*
X549816Y454859D01*
Y455692D01*
X548983Y456525D01*
X546484D01*
X552315Y451526D02*
X553981D01*
X554814Y452359D01*
Y454026D01*
X553981Y454859D01*
X552315D01*
X551482Y454026D01*
Y452359D01*
X552315Y451526D01*
X557314Y454859D02*
X558980D01*
X559813Y454026D01*
Y451526D01*
X557314D01*
X556481Y452359D01*
X557314Y453193D01*
X559813D01*
X561479Y454859D02*
Y451526D01*
Y453193D01*
X562312Y454026D01*
X563145Y454859D01*
X563978D01*
X569810Y456525D02*
Y451526D01*
X567310D01*
X566477Y452359D01*
Y454026D01*
X567310Y454859D01*
X569810D01*
X496500Y448127D02*
Y443128D01*
X498999D01*
X499832Y443961D01*
Y447294D01*
X498999Y448127D01*
X496500D01*
X503998Y443128D02*
X502331D01*
X501498Y443961D01*
Y445628D01*
X502331Y446461D01*
X503998D01*
X504831Y445628D01*
Y444795D01*
X501498D01*
X506497Y443128D02*
X508996D01*
X509829Y443961D01*
X508996Y444795D01*
X507330D01*
X506497Y445628D01*
X507330Y446461D01*
X509829D01*
X511495Y443128D02*
X513161D01*
X512328D01*
Y446461D01*
X511495D01*
X517327Y441462D02*
X518160D01*
X518993Y442295D01*
Y446461D01*
X516494D01*
X515660Y445628D01*
Y443961D01*
X516494Y443128D01*
X518993D01*
X520659D02*
Y446461D01*
X523158D01*
X523991Y445628D01*
Y443128D01*
X528156D02*
X526490D01*
X525657Y443961D01*
Y445628D01*
X526490Y446461D01*
X528156D01*
X528990Y445628D01*
Y444795D01*
X525657D01*
X533988Y448127D02*
Y443128D01*
X531489D01*
X530656Y443961D01*
Y445628D01*
X531489Y446461D01*
X533988D01*
X540652Y448127D02*
Y443128D01*
X543152D01*
X543985Y443961D01*
Y444795D01*
Y445628D01*
X543152Y446461D01*
X540652D01*
X545651D02*
Y443961D01*
X546484Y443128D01*
X548983D01*
Y442295D01*
X548150Y441462D01*
X547317D01*
X548983Y443128D02*
Y446461D01*
X496500Y433064D02*
Y438063D01*
X498166Y436397D01*
X499832Y438063D01*
Y433064D01*
X504831Y436397D02*
X502331D01*
X501498Y435563D01*
Y433897D01*
X502331Y433064D01*
X504831D01*
X508163Y431398D02*
X508996D01*
X509829Y432231D01*
Y436397D01*
X507330D01*
X506497Y435563D01*
Y433897D01*
X507330Y433064D01*
X509829D01*
X511495D02*
X513161D01*
X512328D01*
Y436397D01*
X511495D01*
X515660Y433064D02*
X517327D01*
X516494D01*
Y438063D01*
X515660D01*
X519826Y433064D02*
X521492D01*
X520659D01*
Y438063D01*
X519826D01*
X528990Y433064D02*
Y438063D01*
X531489D01*
X532322Y437229D01*
Y435563D01*
X531489Y434730D01*
X528990D01*
X530656D02*
X532322Y433064D01*
X534821D02*
X536487D01*
X537320Y433897D01*
Y435563D01*
X536487Y436397D01*
X534821D01*
X533988Y435563D01*
Y433897D01*
X534821Y433064D01*
X538986Y438063D02*
Y433064D01*
X541485D01*
X542318Y433897D01*
Y434730D01*
Y435563D01*
X541485Y436397D01*
X538986D01*
X544818Y433064D02*
X546484D01*
X547317Y433897D01*
Y435563D01*
X546484Y436397D01*
X544818D01*
X543985Y435563D01*
Y433897D01*
X544818Y433064D01*
X549816Y437229D02*
Y436397D01*
X548983D01*
X550649D01*
X549816D01*
Y433897D01*
X550649Y433064D01*
X553148D02*
X554814D01*
X553981D01*
Y436397D01*
X553148D01*
X560646D02*
X558147D01*
X557314Y435563D01*
Y433897D01*
X558147Y433064D01*
X560646D01*
X562312D02*
X564811D01*
X565644Y433897D01*
X564811Y434730D01*
X563145D01*
X562312Y435563D01*
X563145Y436397D01*
X565644D01*
X499832Y427998D02*
X498166D01*
X498999D01*
Y423833D01*
X498166Y423000D01*
X497333D01*
X496500Y423833D01*
X501498Y426332D02*
Y423833D01*
X502331Y423000D01*
X504831D01*
Y426332D01*
X506497Y423000D02*
Y426332D01*
X508996D01*
X509829Y425499D01*
Y423000D01*
X513994D02*
X512328D01*
X511495Y423833D01*
Y425499D01*
X512328Y426332D01*
X513994D01*
X514827Y425499D01*
Y424666D01*
X511495D01*
X524824Y423000D02*
X521492D01*
X524824Y426332D01*
Y427165D01*
X523991Y427998D01*
X522325D01*
X521492Y427165D01*
X526490D02*
X527323Y427998D01*
X528990D01*
X529822Y427165D01*
Y423833D01*
X528990Y423000D01*
X527323D01*
X526490Y423833D01*
Y427165D01*
X534821Y423000D02*
X531489D01*
X534821Y426332D01*
Y427165D01*
X533988Y427998D01*
X532322D01*
X531489Y427165D01*
X536487Y423000D02*
X538153D01*
X537320D01*
Y427998D01*
X536487Y427165D01*
X291500Y216500D02*
Y218499D01*
X290501Y217500D02*
X292500D01*
X497500Y297000D02*
Y299999D01*
X499000D01*
X499499Y299499D01*
Y298499D01*
X499000Y298000D01*
X497500D01*
X498500D02*
X499499Y297000D01*
X500499Y299499D02*
X500999Y299999D01*
X501999D01*
X502498Y299499D01*
Y298999D01*
X501999Y298499D01*
X501499D01*
X501999D01*
X502498Y298000D01*
Y297500D01*
X501999Y297000D01*
X500999D01*
X500499Y297500D01*
X503498Y299499D02*
X503998Y299999D01*
X504998D01*
X505497Y299499D01*
Y297500D01*
X504998Y297000D01*
X503998D01*
X503498Y297500D01*
Y299499D01*
X497500Y287000D02*
Y289999D01*
X499000D01*
X499499Y289499D01*
Y288499D01*
X499000Y288000D01*
X497500D01*
X498500D02*
X499499Y287000D01*
X502498D02*
X500499D01*
X502498Y288999D01*
Y289499D01*
X501999Y289999D01*
X500999D01*
X500499Y289499D01*
X503498Y287500D02*
X503998Y287000D01*
X504998D01*
X505497Y287500D01*
Y289499D01*
X504998Y289999D01*
X503998D01*
X503498Y289499D01*
Y288999D01*
X503998Y288499D01*
X505497D01*
X497500Y316000D02*
Y318999D01*
X499000D01*
X499499Y318499D01*
Y317499D01*
X499000Y317000D01*
X497500D01*
X498500D02*
X499499Y316000D01*
X500499Y318499D02*
X500999Y318999D01*
X501999D01*
X502498Y318499D01*
Y317999D01*
X501999Y317499D01*
X501499D01*
X501999D01*
X502498Y317000D01*
Y316500D01*
X501999Y316000D01*
X500999D01*
X500499Y316500D01*
X505497Y316000D02*
X503498D01*
X505497Y317999D01*
Y318499D01*
X504998Y318999D01*
X503998D01*
X503498Y318499D01*
X497500Y307000D02*
Y309999D01*
X499000D01*
X499499Y309499D01*
Y308500D01*
X499000Y308000D01*
X497500D01*
X498500D02*
X499499Y307000D01*
X500499Y309499D02*
X500999Y309999D01*
X501999D01*
X502498Y309499D01*
Y308999D01*
X501999Y308500D01*
X501499D01*
X501999D01*
X502498Y308000D01*
Y307500D01*
X501999Y307000D01*
X500999D01*
X500499Y307500D01*
X503498Y307000D02*
X504498D01*
X503998D01*
Y309999D01*
X503498Y309499D01*
X497500Y277000D02*
Y279999D01*
X499000D01*
X499499Y279499D01*
Y278500D01*
X499000Y278000D01*
X497500D01*
X498500D02*
X499499Y277000D01*
X502498D02*
X500499D01*
X502498Y278999D01*
Y279499D01*
X501999Y279999D01*
X500999D01*
X500499Y279499D01*
X503498D02*
X503998Y279999D01*
X504998D01*
X505497Y279499D01*
Y278999D01*
X504998Y278500D01*
X505497Y278000D01*
Y277500D01*
X504998Y277000D01*
X503998D01*
X503498Y277500D01*
Y278000D01*
X503998Y278500D01*
X503498Y278999D01*
Y279499D01*
X503998Y278500D02*
X504998D01*
X497500Y267500D02*
Y270499D01*
X499000D01*
X499499Y269999D01*
Y269000D01*
X499000Y268500D01*
X497500D01*
X498500D02*
X499499Y267500D01*
X502498D02*
X500499D01*
X502498Y269499D01*
Y269999D01*
X501999Y270499D01*
X500999D01*
X500499Y269999D01*
X503498Y270499D02*
X505497D01*
Y269999D01*
X503498Y268000D01*
Y267500D01*
X519400Y327700D02*
Y330699D01*
X520899D01*
X521399Y330199D01*
Y329200D01*
X520899Y328700D01*
X519400D01*
X522399Y328200D02*
X522899Y327700D01*
X523899D01*
X524398Y328200D01*
Y330199D01*
X523899Y330699D01*
X522899D01*
X522399Y330199D01*
Y329699D01*
X522899Y329200D01*
X524398D01*
X239000Y466000D02*
Y468999D01*
X240499D01*
X240999Y468499D01*
Y467499D01*
X240499Y467000D01*
X239000D01*
X243498Y466000D02*
Y468999D01*
X241999Y467499D01*
X243998D01*
X326500Y466000D02*
Y468999D01*
X327999D01*
X328499Y468499D01*
Y467499D01*
X327999Y467000D01*
X326500D01*
X329499Y468499D02*
X329999Y468999D01*
X330998D01*
X331498Y468499D01*
Y467999D01*
X330998Y467499D01*
X330499D01*
X330998D01*
X331498Y467000D01*
Y466500D01*
X330998Y466000D01*
X329999D01*
X329499Y466500D01*
X416500Y466000D02*
Y468999D01*
X418000D01*
X418499Y468499D01*
Y467499D01*
X418000Y467000D01*
X416500D01*
X421498Y466000D02*
X419499D01*
X421498Y467999D01*
Y468499D01*
X420998Y468999D01*
X419999D01*
X419499Y468499D01*
X557500Y395500D02*
Y398499D01*
X558999D01*
X559499Y397999D01*
Y397000D01*
X558999Y396500D01*
X557500D01*
X562498Y398499D02*
X560499D01*
Y397000D01*
X561499Y397499D01*
X561999D01*
X562498Y397000D01*
Y396000D01*
X561999Y395500D01*
X560999D01*
X560499Y396000D01*
X221500Y399000D02*
Y401999D01*
X223000D01*
X223499Y401499D01*
Y400499D01*
X223000Y400000D01*
X221500D01*
X224499Y401499D02*
X224999Y401999D01*
X225998D01*
X226498Y401499D01*
Y400999D01*
X225998Y400499D01*
X226498Y400000D01*
Y399500D01*
X225998Y399000D01*
X224999D01*
X224499Y399500D01*
Y400000D01*
X224999Y400499D01*
X224499Y400999D01*
Y401499D01*
X224999Y400499D02*
X225998D01*
X340500Y317999D02*
Y315500D01*
X341000Y315000D01*
X342000D01*
X342499Y315500D01*
Y317999D01*
X345498Y315000D02*
X343499D01*
X345498Y316999D01*
Y317499D01*
X344999Y317999D01*
X343999D01*
X343499Y317499D01*
X221500Y232499D02*
Y230000D01*
X222000Y229500D01*
X223000D01*
X223499Y230000D01*
Y232499D01*
X226498Y231999D02*
X225998Y232499D01*
X224999D01*
X224499Y231999D01*
Y231499D01*
X224999Y230999D01*
X225998D01*
X226498Y230500D01*
Y230000D01*
X225998Y229500D01*
X224999D01*
X224499Y230000D01*
X227498Y232499D02*
Y229500D01*
X228998D01*
X229497Y230000D01*
Y230500D01*
X228998Y230999D01*
X227498D01*
X228998D01*
X229497Y231499D01*
Y231999D01*
X228998Y232499D01*
X227498D01*
X230497Y229500D02*
X231497D01*
X230997D01*
Y232499D01*
X230497Y231999D01*
X364000Y336999D02*
X365999Y334000D01*
Y336999D02*
X364000Y334000D01*
X366999D02*
X367999D01*
X367499D01*
Y336999D01*
X366999Y336499D01*
X406000Y248999D02*
Y246500D01*
X406500Y246000D01*
X407500D01*
X407999Y246500D01*
Y248999D01*
X408999Y248499D02*
X409499Y248999D01*
X410499D01*
X410998Y248499D01*
Y247999D01*
X410499Y247499D01*
X409999D01*
X410499D01*
X410998Y247000D01*
Y246500D01*
X410499Y246000D01*
X409499D01*
X408999Y246500D01*
X548500Y224499D02*
Y222000D01*
X549000Y221500D01*
X550000D01*
X550499Y222000D01*
Y224499D01*
X551499Y221500D02*
X552499D01*
X551999D01*
Y224499D01*
X551499Y223999D01*
X356000Y221500D02*
Y224499D01*
X357500D01*
X357999Y223999D01*
Y223000D01*
X357500Y222500D01*
X356000D01*
X357000D02*
X357999Y221500D01*
X358999D02*
X359999D01*
X359499D01*
Y224499D01*
X358999Y223999D01*
X362998Y221500D02*
Y224499D01*
X361498Y223000D01*
X363498D01*
X453000Y245500D02*
Y248499D01*
X454499D01*
X454999Y247999D01*
Y247000D01*
X454499Y246500D01*
X453000D01*
X454000D02*
X454999Y245500D01*
X455999D02*
X456999D01*
X456499D01*
Y248499D01*
X455999Y247999D01*
X458498D02*
X458998Y248499D01*
X459998D01*
X460498Y247999D01*
Y247499D01*
X459998Y247000D01*
X459498D01*
X459998D01*
X460498Y246500D01*
Y246000D01*
X459998Y245500D01*
X458998D01*
X458498Y246000D01*
X412500Y211000D02*
Y213999D01*
X414000D01*
X414499Y213499D01*
Y212499D01*
X414000Y212000D01*
X412500D01*
X413500D02*
X414499Y211000D01*
X415499Y211500D02*
X415999Y211000D01*
X416998D01*
X417498Y211500D01*
Y213499D01*
X416998Y213999D01*
X415999D01*
X415499Y213499D01*
Y212999D01*
X415999Y212499D01*
X417498D01*
X424000Y202500D02*
Y205499D01*
X425499D01*
X425999Y204999D01*
Y203999D01*
X425499Y203500D01*
X424000D01*
X425000D02*
X425999Y202500D01*
X426999Y204999D02*
X427499Y205499D01*
X428499D01*
X428998Y204999D01*
Y204499D01*
X428499Y203999D01*
X428998Y203500D01*
Y203000D01*
X428499Y202500D01*
X427499D01*
X426999Y203000D01*
Y203500D01*
X427499Y203999D01*
X426999Y204499D01*
Y204999D01*
X427499Y203999D02*
X428499D01*
X378500Y221500D02*
Y224499D01*
X379999D01*
X380499Y223999D01*
Y223000D01*
X379999Y222500D01*
X378500D01*
X379500D02*
X380499Y221500D01*
X381499Y224499D02*
X383498D01*
Y223999D01*
X381499Y222000D01*
Y221500D01*
X405500Y260500D02*
Y263499D01*
X406999D01*
X407499Y262999D01*
Y262000D01*
X406999Y261500D01*
X405500D01*
X406500D02*
X407499Y260500D01*
X410498Y263499D02*
X409499Y262999D01*
X408499Y262000D01*
Y261000D01*
X408999Y260500D01*
X409999D01*
X410498Y261000D01*
Y261500D01*
X409999Y262000D01*
X408499D01*
X377500Y229500D02*
Y232499D01*
X378999D01*
X379499Y231999D01*
Y230999D01*
X378999Y230500D01*
X377500D01*
X378500D02*
X379499Y229500D01*
X382498Y232499D02*
X380499D01*
Y230999D01*
X381499Y231499D01*
X381998D01*
X382498Y230999D01*
Y230000D01*
X381998Y229500D01*
X380999D01*
X380499Y230000D01*
X419000Y260500D02*
Y263499D01*
X420500D01*
X420999Y262999D01*
Y262000D01*
X420500Y261500D01*
X419000D01*
X420000D02*
X420999Y260500D01*
X423498D02*
Y263499D01*
X421999Y262000D01*
X423998D01*
X394000Y337500D02*
Y340499D01*
X395499D01*
X395999Y339999D01*
Y339000D01*
X395499Y338500D01*
X394000D01*
X395000D02*
X395999Y337500D01*
X396999Y339999D02*
X397499Y340499D01*
X398499D01*
X398998Y339999D01*
Y339499D01*
X398499Y339000D01*
X397999D01*
X398499D01*
X398998Y338500D01*
Y338000D01*
X398499Y337500D01*
X397499D01*
X396999Y338000D01*
X288000Y316500D02*
Y319499D01*
X289499D01*
X289999Y318999D01*
Y318000D01*
X289499Y317500D01*
X288000D01*
X289000D02*
X289999Y316500D01*
X292998D02*
X290999D01*
X292998Y318499D01*
Y318999D01*
X292498Y319499D01*
X291499D01*
X290999Y318999D01*
X318500Y171500D02*
Y174499D01*
X320000D01*
X320499Y173999D01*
Y173000D01*
X320000Y172500D01*
X318500D01*
X319500D02*
X320499Y171500D01*
X321499D02*
X322499D01*
X321999D01*
Y174499D01*
X321499Y173999D01*
X312000Y315500D02*
Y318499D01*
X313499D01*
X313999Y317999D01*
Y317000D01*
X313499Y316500D01*
X312000D01*
X314999Y315500D02*
X315999D01*
X315499D01*
Y318499D01*
X314999Y317999D01*
X293000Y234999D02*
Y232000D01*
X294999D01*
X295999D02*
X296999D01*
X296499D01*
Y234999D01*
X295999Y234499D01*
X259999Y319551D02*
X258000D01*
Y318052D01*
X259000D01*
X258000D01*
Y316552D01*
X260999D02*
X261999D01*
X261499D01*
Y319551D01*
X260999Y319051D01*
X389000Y216999D02*
Y214000D01*
X390499D01*
X390999Y214500D01*
Y216499D01*
X390499Y216999D01*
X389000D01*
X393998Y214000D02*
X391999D01*
X393998Y215999D01*
Y216499D01*
X393498Y216999D01*
X392499D01*
X391999Y216499D01*
X437500Y245999D02*
Y243000D01*
X439000D01*
X439499Y243500D01*
Y245499D01*
X439000Y245999D01*
X437500D01*
X440499Y243000D02*
X441499D01*
X440999D01*
Y245999D01*
X440499Y245499D01*
X436999Y263499D02*
X436500Y263999D01*
X435500D01*
X435000Y263499D01*
Y261500D01*
X435500Y261000D01*
X436500D01*
X436999Y261500D01*
X439998Y261000D02*
X437999D01*
X439998Y262999D01*
Y263499D01*
X439499Y263999D01*
X438499D01*
X437999Y263499D01*
X440998Y261500D02*
X441498Y261000D01*
X442498D01*
X442997Y261500D01*
Y263499D01*
X442498Y263999D01*
X441498D01*
X440998Y263499D01*
Y262999D01*
X441498Y262499D01*
X442997D01*
X436999Y278499D02*
X436500Y278999D01*
X435500D01*
X435000Y278499D01*
Y276500D01*
X435500Y276000D01*
X436500D01*
X436999Y276500D01*
X439998Y276000D02*
X437999D01*
X439998Y277999D01*
Y278499D01*
X439499Y278999D01*
X438499D01*
X437999Y278499D01*
X440998D02*
X441498Y278999D01*
X442498D01*
X442997Y278499D01*
Y277999D01*
X442498Y277500D01*
X442997Y277000D01*
Y276500D01*
X442498Y276000D01*
X441498D01*
X440998Y276500D01*
Y277000D01*
X441498Y277500D01*
X440998Y277999D01*
Y278499D01*
X441498Y277500D02*
X442498D01*
X395999Y328499D02*
X395499Y328999D01*
X394500D01*
X394000Y328499D01*
Y326500D01*
X394500Y326000D01*
X395499D01*
X395999Y326500D01*
X398998Y326000D02*
X396999D01*
X398998Y327999D01*
Y328499D01*
X398499Y328999D01*
X397499D01*
X396999Y328499D01*
X399998Y328999D02*
X401997D01*
Y328499D01*
X399998Y326500D01*
Y326000D01*
X290999Y277999D02*
X290499Y278499D01*
X289500D01*
X289000Y277999D01*
Y276000D01*
X289500Y275500D01*
X290499D01*
X290999Y276000D01*
X293998Y275500D02*
X291999D01*
X293998Y277499D01*
Y277999D01*
X293498Y278499D01*
X292499D01*
X291999Y277999D01*
X296997Y278499D02*
X295998Y277999D01*
X294998Y276999D01*
Y276000D01*
X295498Y275500D01*
X296498D01*
X296997Y276000D01*
Y276500D01*
X296498Y276999D01*
X294998D01*
X290999Y269499D02*
X290499Y269999D01*
X289500D01*
X289000Y269499D01*
Y267500D01*
X289500Y267000D01*
X290499D01*
X290999Y267500D01*
X293998Y267000D02*
X291999D01*
X293998Y268999D01*
Y269499D01*
X293498Y269999D01*
X292499D01*
X291999Y269499D01*
X296997Y269999D02*
X294998D01*
Y268499D01*
X295998Y268999D01*
X296498D01*
X296997Y268499D01*
Y267500D01*
X296498Y267000D01*
X295498D01*
X294998Y267500D01*
X290999Y260499D02*
X290499Y260999D01*
X289500D01*
X289000Y260499D01*
Y258500D01*
X289500Y258000D01*
X290499D01*
X290999Y258500D01*
X293998Y258000D02*
X291999D01*
X293998Y259999D01*
Y260499D01*
X293498Y260999D01*
X292499D01*
X291999Y260499D01*
X296498Y258000D02*
Y260999D01*
X294998Y259500D01*
X296997D01*
X241999Y298499D02*
X241499Y298999D01*
X240500D01*
X240000Y298499D01*
Y296500D01*
X240500Y296000D01*
X241499D01*
X241999Y296500D01*
X244998Y296000D02*
X242999D01*
X244998Y297999D01*
Y298499D01*
X244498Y298999D01*
X243499D01*
X242999Y298499D01*
X245998D02*
X246498Y298999D01*
X247498D01*
X247997Y298499D01*
Y297999D01*
X247498Y297499D01*
X246998D01*
X247498D01*
X247997Y297000D01*
Y296500D01*
X247498Y296000D01*
X246498D01*
X245998Y296500D01*
X241999Y282499D02*
X241499Y282999D01*
X240500D01*
X240000Y282499D01*
Y280500D01*
X240500Y280000D01*
X241499D01*
X241999Y280500D01*
X244998Y280000D02*
X242999D01*
X244998Y281999D01*
Y282499D01*
X244498Y282999D01*
X243499D01*
X242999Y282499D01*
X247997Y280000D02*
X245998D01*
X247997Y281999D01*
Y282499D01*
X247498Y282999D01*
X246498D01*
X245998Y282499D01*
X241999Y267499D02*
X241499Y267999D01*
X240500D01*
X240000Y267499D01*
Y265500D01*
X240500Y265000D01*
X241499D01*
X241999Y265500D01*
X244998Y265000D02*
X242999D01*
X244998Y266999D01*
Y267499D01*
X244498Y267999D01*
X243499D01*
X242999Y267499D01*
X245998Y265000D02*
X246998D01*
X246498D01*
Y267999D01*
X245998Y267499D01*
X271999Y306499D02*
X271499Y306999D01*
X270500D01*
X270000Y306499D01*
Y304500D01*
X270500Y304000D01*
X271499D01*
X271999Y304500D01*
X274998Y304000D02*
X272999D01*
X274998Y305999D01*
Y306499D01*
X274499Y306999D01*
X273499D01*
X272999Y306499D01*
X275998D02*
X276498Y306999D01*
X277498D01*
X277997Y306499D01*
Y304500D01*
X277498Y304000D01*
X276498D01*
X275998Y304500D01*
Y306499D01*
X343499Y332499D02*
X343000Y332999D01*
X342000D01*
X341500Y332499D01*
Y330500D01*
X342000Y330000D01*
X343000D01*
X343499Y330500D01*
X344499Y330000D02*
X345499D01*
X344999D01*
Y332999D01*
X344499Y332499D01*
X346998Y330500D02*
X347498Y330000D01*
X348498D01*
X348998Y330500D01*
Y332499D01*
X348498Y332999D01*
X347498D01*
X346998Y332499D01*
Y331999D01*
X347498Y331500D01*
X348998D01*
X378499Y335999D02*
X377999Y336499D01*
X377000D01*
X376500Y335999D01*
Y334000D01*
X377000Y333500D01*
X377999D01*
X378499Y334000D01*
X379499Y333500D02*
X380499D01*
X379999D01*
Y336499D01*
X379499Y335999D01*
X381998D02*
X382498Y336499D01*
X383498D01*
X383998Y335999D01*
Y335499D01*
X383498Y334999D01*
X383998Y334500D01*
Y334000D01*
X383498Y333500D01*
X382498D01*
X381998Y334000D01*
Y334500D01*
X382498Y334999D01*
X381998Y335499D01*
Y335999D01*
X382498Y334999D02*
X383498D01*
X360999Y245499D02*
X360500Y245999D01*
X359500D01*
X359000Y245499D01*
Y243500D01*
X359500Y243000D01*
X360500D01*
X360999Y243500D01*
X361999Y243000D02*
X362999D01*
X362499D01*
Y245999D01*
X361999Y245499D01*
X364498Y245999D02*
X366498D01*
Y245499D01*
X364498Y243500D01*
Y243000D01*
X303499Y289499D02*
X302999Y289999D01*
X302000D01*
X301500Y289499D01*
Y287500D01*
X302000Y287000D01*
X302999D01*
X303499Y287500D01*
X304499Y287000D02*
X305499D01*
X304999D01*
Y289999D01*
X304499Y289499D01*
X308998Y289999D02*
X307998Y289499D01*
X306998Y288499D01*
Y287500D01*
X307498Y287000D01*
X308498D01*
X308998Y287500D01*
Y288000D01*
X308498Y288499D01*
X306998D01*
X343999Y324999D02*
X343499Y325499D01*
X342500D01*
X342000Y324999D01*
Y323000D01*
X342500Y322500D01*
X343499D01*
X343999Y323000D01*
X344999Y322500D02*
X345999D01*
X345499D01*
Y325499D01*
X344999Y324999D01*
X349498Y325499D02*
X347498D01*
Y324000D01*
X348498Y324499D01*
X348998D01*
X349498Y324000D01*
Y323000D01*
X348998Y322500D01*
X347998D01*
X347498Y323000D01*
X394999Y320999D02*
X394499Y321499D01*
X393500D01*
X393000Y320999D01*
Y319000D01*
X393500Y318500D01*
X394499D01*
X394999Y319000D01*
X395999Y318500D02*
X396999D01*
X396499D01*
Y321499D01*
X395999Y320999D01*
X399998Y318500D02*
Y321499D01*
X398498Y320000D01*
X400498D01*
X538999Y186999D02*
X538499Y187499D01*
X537500D01*
X537000Y186999D01*
Y185000D01*
X537500Y184500D01*
X538499D01*
X538999Y185000D01*
X539999Y184500D02*
X540999D01*
X540499D01*
Y187499D01*
X539999Y186999D01*
X542498D02*
X542998Y187499D01*
X543998D01*
X544498Y186999D01*
Y186499D01*
X543998Y186000D01*
X543498D01*
X543998D01*
X544498Y185500D01*
Y185000D01*
X543998Y184500D01*
X542998D01*
X542498Y185000D01*
X505999Y235999D02*
X505500Y236499D01*
X504500D01*
X504000Y235999D01*
Y234000D01*
X504500Y233500D01*
X505500D01*
X505999Y234000D01*
X506999Y233500D02*
X507999D01*
X507499D01*
Y236499D01*
X506999Y235999D01*
X511498Y233500D02*
X509498D01*
X511498Y235499D01*
Y235999D01*
X510998Y236499D01*
X509998D01*
X509498Y235999D01*
X505999Y218499D02*
X505500Y218999D01*
X504500D01*
X504000Y218499D01*
Y216500D01*
X504500Y216000D01*
X505500D01*
X505999Y216500D01*
X506999Y216000D02*
X507999D01*
X507499D01*
Y218999D01*
X506999Y218499D01*
X509498Y216000D02*
X510498D01*
X509998D01*
Y218999D01*
X509498Y218499D01*
X505999Y196999D02*
X505500Y197499D01*
X504500D01*
X504000Y196999D01*
Y195000D01*
X504500Y194500D01*
X505500D01*
X505999Y195000D01*
X506999Y194500D02*
X507999D01*
X507499D01*
Y197499D01*
X506999Y196999D01*
X509498D02*
X509998Y197499D01*
X510998D01*
X511498Y196999D01*
Y195000D01*
X510998Y194500D01*
X509998D01*
X509498Y195000D01*
Y196999D01*
X565499Y243499D02*
X564999Y243999D01*
X564000D01*
X563500Y243499D01*
Y241500D01*
X564000Y241000D01*
X564999D01*
X565499Y241500D01*
X566499D02*
X566999Y241000D01*
X567999D01*
X568498Y241500D01*
Y243499D01*
X567999Y243999D01*
X566999D01*
X566499Y243499D01*
Y242999D01*
X566999Y242499D01*
X568498D01*
X527999Y243999D02*
X527499Y244499D01*
X526500D01*
X526000Y243999D01*
Y242000D01*
X526500Y241500D01*
X527499D01*
X527999Y242000D01*
X528999Y243999D02*
X529499Y244499D01*
X530499D01*
X530998Y243999D01*
Y243499D01*
X530499Y243000D01*
X530998Y242500D01*
Y242000D01*
X530499Y241500D01*
X529499D01*
X528999Y242000D01*
Y242500D01*
X529499Y243000D01*
X528999Y243499D01*
Y243999D01*
X529499Y243000D02*
X530499D01*
X527999Y232499D02*
X527499Y232999D01*
X526500D01*
X526000Y232499D01*
Y230500D01*
X526500Y230000D01*
X527499D01*
X527999Y230500D01*
X528999Y232999D02*
X530998D01*
Y232499D01*
X528999Y230500D01*
Y230000D01*
X248499Y249499D02*
X248000Y249999D01*
X247000D01*
X246500Y249499D01*
Y247500D01*
X247000Y247000D01*
X248000D01*
X248499Y247500D01*
X251498Y249999D02*
X250499Y249499D01*
X249499Y248499D01*
Y247500D01*
X249999Y247000D01*
X250998D01*
X251498Y247500D01*
Y248000D01*
X250998Y248499D01*
X249499D01*
X263999Y249499D02*
X263499Y249999D01*
X262500D01*
X262000Y249499D01*
Y247500D01*
X262500Y247000D01*
X263499D01*
X263999Y247500D01*
X266998Y249999D02*
X264999D01*
Y248499D01*
X265999Y248999D01*
X266498D01*
X266998Y248499D01*
Y247500D01*
X266498Y247000D01*
X265499D01*
X264999Y247500D01*
X279999Y249499D02*
X279500Y249999D01*
X278500D01*
X278000Y249499D01*
Y247500D01*
X278500Y247000D01*
X279500D01*
X279999Y247500D01*
X282499Y247000D02*
Y249999D01*
X280999Y248499D01*
X282998D01*
X310499Y224499D02*
X309999Y224999D01*
X309000D01*
X308500Y224499D01*
Y222500D01*
X309000Y222000D01*
X309999D01*
X310499Y222500D01*
X311499Y224499D02*
X311999Y224999D01*
X312999D01*
X313498Y224499D01*
Y223999D01*
X312999Y223499D01*
X312499D01*
X312999D01*
X313498Y223000D01*
Y222500D01*
X312999Y222000D01*
X311999D01*
X311499Y222500D01*
X286499Y173999D02*
X285999Y174499D01*
X285000D01*
X284500Y173999D01*
Y172000D01*
X285000Y171500D01*
X285999D01*
X286499Y172000D01*
X289498Y171500D02*
X287499D01*
X289498Y173499D01*
Y173999D01*
X288999Y174499D01*
X287999D01*
X287499Y173999D01*
X318499Y197999D02*
X318000Y198499D01*
X317000D01*
X316500Y197999D01*
Y196000D01*
X317000Y195500D01*
X318000D01*
X318499Y196000D01*
X319499Y195500D02*
X320499D01*
X319999D01*
Y198499D01*
X319499Y197999D01*
D12*
X561138Y328142D02*
G03*
X561531Y328142I197J0D01*
G01*
D02*
G03*
X561138Y328142I-197J0D01*
G01*
X349827Y271925D02*
X384079D01*
X349827Y306177D02*
X384079D01*
X349827Y271925D02*
Y306177D01*
X384079Y271925D02*
Y306177D01*
X310244Y172728D02*
Y176272D01*
X315756Y172728D02*
Y176272D01*
X302256Y172728D02*
Y176272D01*
X296744Y172728D02*
Y176272D01*
X515610Y207744D02*
X519153D01*
X515610Y213256D02*
X519153D01*
X515394Y186744D02*
X518937D01*
X515394Y192256D02*
X518937D01*
X364500Y325000D02*
Y327000D01*
X374500Y325000D02*
Y327000D01*
X543228Y235756D02*
X546772D01*
X543228Y230244D02*
X546772D01*
X548264Y219689D02*
X558500D01*
X548264Y193311D02*
X558500D01*
X548264D02*
Y219689D01*
X558500Y193311D02*
Y219689D01*
X310409Y259780D02*
X311591D01*
X310409Y257220D02*
X311591D01*
X513791Y231280D02*
X514972D01*
X513791Y228720D02*
X514972D01*
X261153Y296168D02*
X262335D01*
X261153Y298728D02*
X262335D01*
X302457Y294957D02*
X309543D01*
Y322043D01*
X302457D02*
X309543D01*
X302457Y294957D02*
Y322043D01*
X543228Y241744D02*
X546772D01*
X543228Y247256D02*
X546772D01*
X280878Y203102D02*
Y204441D01*
Y212000D02*
Y227000D01*
Y179598D02*
Y193653D01*
X268555Y179598D02*
X280878D01*
X268555Y227000D02*
X280878D01*
X219027D02*
X250445D01*
X219027Y179598D02*
Y227000D01*
Y179598D02*
X250445D01*
X219284Y325468D02*
X278535D01*
X219284Y396433D02*
X278535D01*
X219382Y325567D02*
Y396433D01*
X293220Y225410D02*
Y226591D01*
X295779Y225410D02*
Y226591D01*
X407035Y241004D02*
Y243465D01*
X409496D01*
X421504D02*
X423965D01*
Y241004D02*
Y243465D01*
Y226535D02*
Y228996D01*
X421504Y226535D02*
X423965D01*
X407035D02*
Y228996D01*
Y226535D02*
X409496D01*
D13*
X453000Y472161D02*
G03*
X453000Y472555I0J197D01*
G01*
D02*
G03*
X453000Y472161I0J-197D01*
G01*
X364000D02*
G03*
X364000Y472555I0J197D01*
G01*
D02*
G03*
X364000Y472161I0J-197D01*
G01*
X274000D02*
G03*
X274000Y472555I0J197D01*
G01*
D02*
G03*
X274000Y472161I0J-197D01*
G01*
X570350Y330228D02*
Y356685D01*
X563500Y330228D02*
X570350D01*
Y366528D02*
Y392984D01*
X556650D02*
X570350D01*
X556650Y330228D02*
Y392984D01*
Y330228D02*
X563500D01*
X466090Y461374D02*
Y470705D01*
X428098D02*
X466090D01*
X428098Y461374D02*
Y470705D01*
X433315Y453500D02*
X460874D01*
X377091Y461374D02*
Y470705D01*
X339098D02*
X377091D01*
X339098Y461374D02*
Y470705D01*
X344315Y453500D02*
X371874D01*
X287090Y461374D02*
Y470705D01*
X249098D02*
X287090D01*
X249098Y461374D02*
Y470705D01*
X254315Y453500D02*
X281874D01*
D14*
X569343Y260701D02*
X571842Y254701D01*
X566843D02*
X571842D01*
X566843D02*
X569343Y260701D01*
X570563Y322127D02*
Y324457D01*
X518634D02*
X570563D01*
X518634Y261701D02*
Y324457D01*
Y261701D02*
X570563D01*
Y263866D01*
Y273079D02*
Y273873D01*
Y282757D02*
Y283716D01*
Y292599D02*
Y293558D01*
Y302442D02*
Y303401D01*
Y312284D02*
Y313243D01*
M02*
