G04*
G04 #@! TF.GenerationSoftware,Altium Limited,Altium Designer,18.1.7 (191)*
G04*
G04 Layer_Color=8388736*
%FSLAX25Y25*%
%MOIN*%
G70*
G01*
G75*
%ADD34R,0.03241X0.03241*%
%ADD35R,0.02965X0.02965*%
%ADD36R,0.01981X0.05721*%
%ADD37O,0.01981X0.05721*%
%ADD38O,0.05721X0.01981*%
%ADD39R,0.07099X0.04540*%
%ADD40R,0.04540X0.07099*%
%ADD41R,0.02965X0.02965*%
%ADD42R,0.04737X0.06706*%
%ADD43R,0.03241X0.03241*%
G04:AMPARAMS|DCode=44|XSize=43.43mil|YSize=47.37mil|CornerRadius=12.86mil|HoleSize=0mil|Usage=FLASHONLY|Rotation=90.000|XOffset=0mil|YOffset=0mil|HoleType=Round|Shape=RoundedRectangle|*
%AMROUNDEDRECTD44*
21,1,0.04343,0.02165,0,0,90.0*
21,1,0.01772,0.04737,0,0,90.0*
1,1,0.02572,0.01083,0.00886*
1,1,0.02572,0.01083,-0.00886*
1,1,0.02572,-0.01083,-0.00886*
1,1,0.02572,-0.01083,0.00886*
%
%ADD44ROUNDEDRECTD44*%
%ADD45R,0.04737X0.04343*%
%ADD46R,0.10249X0.13792*%
%ADD47R,0.10249X0.04737*%
%ADD48R,0.03556X0.04147*%
%ADD49R,0.04147X0.03556*%
%ADD50O,0.04147X0.01981*%
%ADD51O,0.01981X0.04147*%
%ADD52R,0.08989X0.08989*%
%ADD53R,0.07293X0.07293*%
%ADD54C,0.07293*%
%ADD55C,0.06899*%
%ADD56R,0.06312X0.06312*%
%ADD57C,0.06312*%
%ADD58C,0.03458*%
%ADD59C,0.08182*%
%ADD60C,0.03398*%
%ADD61C,0.07119*%
%ADD62C,0.04737*%
%ADD63C,0.15761*%
%ADD64C,0.07099*%
%ADD65R,0.07099X0.07099*%
%ADD66C,0.11811*%
%ADD67C,0.10827*%
%ADD68R,0.10827X0.10827*%
%ADD69C,0.02800*%
%ADD70C,0.06800*%
%ADD71C,0.03300*%
D34*
X259189Y281448D02*
D03*
X262811D02*
D03*
X436067Y258000D02*
D03*
X439689D02*
D03*
X363689Y252500D02*
D03*
X367311D02*
D03*
X436378Y273000D02*
D03*
X440000D02*
D03*
X312811Y269500D02*
D03*
X309189D02*
D03*
X532811Y185500D02*
D03*
X529189D02*
D03*
X271189Y301000D02*
D03*
X274811D02*
D03*
X259189Y266448D02*
D03*
X262811D02*
D03*
X386689Y330500D02*
D03*
X390311D02*
D03*
X312811Y277500D02*
D03*
X309189D02*
D03*
D35*
X450000Y250000D02*
D03*
Y246457D02*
D03*
X391000Y226272D02*
D03*
Y222728D02*
D03*
X420500Y203728D02*
D03*
Y207272D02*
D03*
X414000Y203728D02*
D03*
Y207272D02*
D03*
X374500Y222728D02*
D03*
Y226272D02*
D03*
D36*
X352189Y267102D02*
D03*
D37*
X354157D02*
D03*
X356126D02*
D03*
X358094D02*
D03*
X360063D02*
D03*
X362032D02*
D03*
X364000D02*
D03*
X365969D02*
D03*
X367937D02*
D03*
X369906D02*
D03*
X371874D02*
D03*
X373843D02*
D03*
X375811D02*
D03*
X377780D02*
D03*
X379748D02*
D03*
X381717D02*
D03*
Y311000D02*
D03*
X379748D02*
D03*
X377780D02*
D03*
X375811D02*
D03*
X373843D02*
D03*
X371874D02*
D03*
X369906D02*
D03*
X367937D02*
D03*
X365969D02*
D03*
X364000D02*
D03*
X362032D02*
D03*
X360063D02*
D03*
X358094D02*
D03*
X356126D02*
D03*
X354157D02*
D03*
X352189D02*
D03*
D38*
X388902Y274287D02*
D03*
Y276256D02*
D03*
Y278224D02*
D03*
Y280193D02*
D03*
Y282161D02*
D03*
Y284130D02*
D03*
Y286098D02*
D03*
Y288067D02*
D03*
Y290035D02*
D03*
Y292004D02*
D03*
Y293972D02*
D03*
Y295941D02*
D03*
Y297909D02*
D03*
Y299878D02*
D03*
Y301846D02*
D03*
Y303815D02*
D03*
X345004D02*
D03*
Y301846D02*
D03*
Y299878D02*
D03*
Y297909D02*
D03*
Y295941D02*
D03*
Y293972D02*
D03*
Y292004D02*
D03*
Y290035D02*
D03*
Y288067D02*
D03*
Y286098D02*
D03*
Y284130D02*
D03*
Y282161D02*
D03*
Y280193D02*
D03*
Y278224D02*
D03*
Y276256D02*
D03*
Y274287D02*
D03*
D39*
X313000Y169283D02*
D03*
Y179717D02*
D03*
X299500D02*
D03*
Y169284D02*
D03*
D40*
X522598Y210500D02*
D03*
X512165D02*
D03*
X522382Y189500D02*
D03*
X511949D02*
D03*
X550217Y233000D02*
D03*
X539783D02*
D03*
X550216Y244500D02*
D03*
X539783D02*
D03*
D41*
X390272Y342000D02*
D03*
X386728D02*
D03*
X393772Y234000D02*
D03*
X390228D02*
D03*
X510728Y317000D02*
D03*
X514272D02*
D03*
X510728Y307500D02*
D03*
X514272D02*
D03*
X510728Y278500D02*
D03*
X514272D02*
D03*
X510728Y268500D02*
D03*
X514272D02*
D03*
X510728Y288000D02*
D03*
X514272D02*
D03*
X510728Y298000D02*
D03*
X514272D02*
D03*
X410000Y258000D02*
D03*
X406457D02*
D03*
X419957D02*
D03*
X423500D02*
D03*
X287228Y313500D02*
D03*
X290772D02*
D03*
X262772D02*
D03*
X259228D02*
D03*
D42*
X401331Y207500D02*
D03*
X392669D02*
D03*
X438838Y236280D02*
D03*
X447500D02*
D03*
D43*
X388500Y321811D02*
D03*
Y318189D02*
D03*
X378000Y326689D02*
D03*
Y330311D02*
D03*
X360000Y331189D02*
D03*
Y334811D02*
D03*
Y321689D02*
D03*
Y325311D02*
D03*
X319500Y294311D02*
D03*
Y290689D02*
D03*
X279500Y240689D02*
D03*
Y244311D02*
D03*
X263500Y240689D02*
D03*
Y244311D02*
D03*
X248000Y240689D02*
D03*
Y244311D02*
D03*
X559500Y245811D02*
D03*
Y242189D02*
D03*
X305000Y226811D02*
D03*
Y223189D02*
D03*
D44*
X366201Y322000D02*
D03*
Y330661D02*
D03*
X372500D02*
D03*
D45*
Y322000D02*
D03*
D46*
X564799Y206500D02*
D03*
D47*
X541964Y215555D02*
D03*
Y197445D02*
D03*
Y206500D02*
D03*
D48*
X308244Y258500D02*
D03*
X313756D02*
D03*
X511626Y230000D02*
D03*
X517138D02*
D03*
X264500Y297448D02*
D03*
X258988D02*
D03*
D49*
X294500Y223244D02*
D03*
Y228756D02*
D03*
D50*
X408020Y238839D02*
D03*
Y236280D02*
D03*
Y233720D02*
D03*
Y231161D02*
D03*
X422980D02*
D03*
Y233720D02*
D03*
Y236280D02*
D03*
Y238839D02*
D03*
D51*
X411661Y227520D02*
D03*
X414220D02*
D03*
X416780D02*
D03*
X419339D02*
D03*
Y242480D02*
D03*
X416780D02*
D03*
X414220D02*
D03*
X411661D02*
D03*
D52*
X415500Y235000D02*
D03*
D53*
X569343Y268472D02*
D03*
D54*
Y278315D02*
D03*
Y288158D02*
D03*
Y298000D02*
D03*
Y307842D02*
D03*
Y317685D02*
D03*
X559500Y268472D02*
D03*
Y278315D02*
D03*
Y288158D02*
D03*
Y298000D02*
D03*
Y307842D02*
D03*
Y317685D02*
D03*
D55*
X531232Y268472D02*
D03*
Y317685D02*
D03*
D56*
X302500Y211342D02*
D03*
D57*
Y201500D02*
D03*
X306000Y318500D02*
D03*
D58*
X568776Y361606D02*
D03*
D59*
X563500Y386213D02*
D03*
Y376370D02*
D03*
Y366528D02*
D03*
Y356685D02*
D03*
Y346843D02*
D03*
Y337000D02*
D03*
D60*
X429378Y455784D02*
D03*
X464811D02*
D03*
X340378D02*
D03*
X375811D02*
D03*
X250378D02*
D03*
X285811D02*
D03*
X413468Y237233D02*
D03*
X417618D02*
D03*
Y233060D02*
D03*
X413468D02*
D03*
D61*
X441189Y463500D02*
D03*
X453000D02*
D03*
X352189D02*
D03*
X364000D02*
D03*
X262189D02*
D03*
X274000D02*
D03*
D62*
X306000Y298500D02*
D03*
Y303500D02*
D03*
Y308500D02*
D03*
Y313500D02*
D03*
D63*
X259500Y227000D02*
D03*
Y179598D02*
D03*
D64*
X270169Y208220D02*
D03*
Y198378D02*
D03*
X278043Y208220D02*
D03*
D65*
Y198378D02*
D03*
D66*
X254224Y338579D02*
D03*
Y383421D02*
D03*
D67*
X304618D02*
D03*
Y360980D02*
D03*
Y338539D02*
D03*
X282965Y383421D02*
D03*
Y360980D02*
D03*
D68*
Y338539D02*
D03*
D69*
X266500Y404220D02*
D03*
X446000Y395661D02*
D03*
Y403118D02*
D03*
Y411000D02*
D03*
X357000Y396429D02*
D03*
Y403618D02*
D03*
X356974Y410766D02*
D03*
X266500Y396500D02*
D03*
Y411500D02*
D03*
D70*
X569791Y169000D02*
D03*
Y466500D02*
D03*
X226000Y169000D02*
D03*
Y466500D02*
D03*
D71*
X329000Y396500D02*
D03*
X344500Y386000D02*
D03*
X368000Y383000D02*
D03*
X329000Y391000D02*
D03*
X406000Y286000D02*
D03*
X407000Y253500D02*
D03*
X390000Y237500D02*
D03*
X400000Y243500D02*
D03*
X328500Y247000D02*
D03*
X337500D02*
D03*
X348000Y260500D02*
D03*
X351000Y258000D02*
D03*
X325500Y251500D02*
D03*
X326500Y290500D02*
D03*
Y294000D02*
D03*
X280000Y313500D02*
D03*
X396000Y264500D02*
D03*
X376000Y254000D02*
D03*
X383000Y251000D02*
D03*
X371500Y254000D02*
D03*
X364000Y259500D02*
D03*
X383000Y257000D02*
D03*
X357000Y252500D02*
D03*
X420500Y286000D02*
D03*
X395500Y292000D02*
D03*
X410500Y298000D02*
D03*
X445000Y336000D02*
D03*
X395000Y313500D02*
D03*
X354000Y318000D02*
D03*
X351000Y325500D02*
D03*
X383500Y317500D02*
D03*
X357000Y425500D02*
D03*
X266500D02*
D03*
X446500Y427000D02*
D03*
X269000Y372000D02*
D03*
X390000Y326000D02*
D03*
X447000Y205000D02*
D03*
Y200500D02*
D03*
Y196000D02*
D03*
Y191500D02*
D03*
Y187000D02*
D03*
Y182500D02*
D03*
X366000Y342500D02*
D03*
X402500Y384500D02*
D03*
X429500Y388000D02*
D03*
X238500Y372000D02*
D03*
X245500Y416000D02*
D03*
X421000Y409500D02*
D03*
X388500Y384500D02*
D03*
X405424Y403000D02*
D03*
X500000Y329500D02*
D03*
X424000Y413000D02*
D03*
X390000Y334500D02*
D03*
X484500Y430000D02*
D03*
X405000Y431500D02*
D03*
Y446000D02*
D03*
X394000Y431500D02*
D03*
X398500Y321000D02*
D03*
X381000Y320500D02*
D03*
X335500Y380500D02*
D03*
X358000D02*
D03*
X308000Y431500D02*
D03*
X287000Y397500D02*
D03*
X320500Y431500D02*
D03*
X336000Y414500D02*
D03*
X374500Y233000D02*
D03*
X320000Y169000D02*
D03*
X450000Y255000D02*
D03*
X428500Y233500D02*
D03*
X430500Y258000D02*
D03*
X423500Y252000D02*
D03*
X380000Y204500D02*
D03*
X268000Y351000D02*
D03*
X301000Y258500D02*
D03*
X263000Y259500D02*
D03*
X356000Y256500D02*
D03*
X244000Y404000D02*
D03*
X234500Y426500D02*
D03*
X360000Y259500D02*
D03*
X415500Y258000D02*
D03*
X343000Y339000D02*
D03*
X361500Y317000D02*
D03*
X484000Y318000D02*
D03*
X403000Y239000D02*
D03*
X241000Y244500D02*
D03*
X243000Y372000D02*
D03*
X274000Y385500D02*
D03*
X273500Y231500D02*
D03*
X539500Y225000D02*
D03*
X559500Y226000D02*
D03*
X374500Y204500D02*
D03*
X298000Y369000D02*
D03*
X234433Y395761D02*
D03*
X333500Y409915D02*
D03*
X469000Y447083D02*
D03*
X379500Y445500D02*
D03*
X530500Y193311D02*
D03*
X502000Y189823D02*
D03*
X468500Y393581D02*
D03*
X347500Y332500D02*
D03*
X292500Y449000D02*
D03*
M02*
