G04*
G04 #@! TF.GenerationSoftware,Altium Limited,Altium Designer,18.1.7 (191)*
G04*
G04 Layer_Physical_Order=2*
G04 Layer_Color=36540*
%FSLAX25Y25*%
%MOIN*%
G70*
G01*
G75*
%ADD67C,0.10827*%
%ADD83C,0.07382*%
%ADD91C,0.02500*%
G36*
X473500Y347583D02*
X324000D01*
Y329500D01*
X273000D01*
Y347583D01*
X224500D01*
X224500Y459000D01*
X225000Y459500D01*
X248641D01*
X248740Y459000D01*
X248563Y458927D01*
X247812Y458350D01*
X247235Y457598D01*
X246872Y456723D01*
X246748Y455784D01*
X246872Y454844D01*
X247235Y453969D01*
X247812Y453217D01*
X248563Y452640D01*
X249439Y452278D01*
X250378Y452154D01*
X251317Y452278D01*
X252193Y452640D01*
X252944Y453217D01*
X253521Y453969D01*
X253884Y454844D01*
X254007Y455784D01*
X253884Y456723D01*
X253521Y457598D01*
X252944Y458350D01*
X252193Y458927D01*
X252016Y459000D01*
X252115Y459500D01*
X260977D01*
X261103Y459448D01*
X262189Y459305D01*
X263275Y459448D01*
X263401Y459500D01*
X272788D01*
X272914Y459448D01*
X274000Y459305D01*
X275086Y459448D01*
X275212Y459500D01*
X284074D01*
X284173Y459000D01*
X283996Y458927D01*
X283245Y458350D01*
X282668Y457598D01*
X282305Y456723D01*
X282182Y455784D01*
X282305Y454844D01*
X282668Y453969D01*
X283245Y453217D01*
X283996Y452640D01*
X284872Y452278D01*
X285811Y452154D01*
X286750Y452278D01*
X287626Y452640D01*
X288377Y453217D01*
X288954Y453969D01*
X289317Y454844D01*
X289440Y455784D01*
X289317Y456723D01*
X288954Y457598D01*
X288377Y458350D01*
X287626Y458927D01*
X287449Y459000D01*
X287548Y459500D01*
X338641D01*
X338740Y459000D01*
X338563Y458927D01*
X337811Y458350D01*
X337235Y457598D01*
X336872Y456723D01*
X336749Y455784D01*
X336872Y454844D01*
X337235Y453969D01*
X337811Y453217D01*
X338563Y452640D01*
X339439Y452278D01*
X340378Y452154D01*
X341317Y452278D01*
X342193Y452640D01*
X342944Y453217D01*
X343521Y453969D01*
X343884Y454844D01*
X344007Y455784D01*
X343884Y456723D01*
X343521Y457598D01*
X342944Y458350D01*
X342193Y458927D01*
X342016Y459000D01*
X342115Y459500D01*
X350977D01*
X351103Y459448D01*
X352189Y459305D01*
X353275Y459448D01*
X353401Y459500D01*
X362788D01*
X362914Y459448D01*
X364000Y459305D01*
X365086Y459448D01*
X365212Y459500D01*
X374074D01*
X374173Y459000D01*
X373996Y458927D01*
X373245Y458350D01*
X372668Y457598D01*
X372305Y456723D01*
X372182Y455784D01*
X372305Y454844D01*
X372668Y453969D01*
X373245Y453217D01*
X373996Y452640D01*
X374872Y452278D01*
X375811Y452154D01*
X376750Y452278D01*
X377626Y452640D01*
X378377Y453217D01*
X378954Y453969D01*
X379317Y454844D01*
X379440Y455784D01*
X379317Y456723D01*
X378954Y457598D01*
X378377Y458350D01*
X377626Y458927D01*
X377449Y459000D01*
X377548Y459500D01*
X427641D01*
X427740Y459000D01*
X427563Y458927D01*
X426812Y458350D01*
X426235Y457598D01*
X425872Y456723D01*
X425748Y455784D01*
X425872Y454844D01*
X426235Y453969D01*
X426812Y453217D01*
X427563Y452640D01*
X428439Y452278D01*
X429378Y452154D01*
X430317Y452278D01*
X431193Y452640D01*
X431944Y453217D01*
X432521Y453969D01*
X432884Y454844D01*
X433007Y455784D01*
X432884Y456723D01*
X432521Y457598D01*
X431944Y458350D01*
X431193Y458927D01*
X431016Y459000D01*
X431115Y459500D01*
X439977D01*
X440103Y459448D01*
X441189Y459305D01*
X442275Y459448D01*
X442401Y459500D01*
X451788D01*
X451914Y459448D01*
X453000Y459305D01*
X454086Y459448D01*
X454212Y459500D01*
X463074D01*
X463173Y459000D01*
X462996Y458927D01*
X462245Y458350D01*
X461668Y457598D01*
X461305Y456723D01*
X461181Y455784D01*
X461305Y454844D01*
X461668Y453969D01*
X462245Y453217D01*
X462996Y452640D01*
X463872Y452278D01*
X464811Y452154D01*
X465750Y452278D01*
X466626Y452640D01*
X467377Y453217D01*
X467954Y453969D01*
X468317Y454844D01*
X468440Y455784D01*
X468317Y456723D01*
X467954Y457598D01*
X467377Y458350D01*
X466626Y458927D01*
X466449Y459000D01*
X466548Y459500D01*
X473500D01*
Y347583D01*
D02*
G37*
G36*
X491265Y346500D02*
X491265Y319591D01*
X525988Y287000D01*
Y201500D01*
X574998D01*
Y179424D01*
X574546Y179000D01*
X268335D01*
X267999Y179370D01*
X268021Y179598D01*
X267858Y181261D01*
X267373Y182859D01*
X266585Y184333D01*
X265526Y185624D01*
X264234Y186684D01*
X262761Y187471D01*
X261162Y187956D01*
X259500Y188120D01*
X257838Y187956D01*
X256239Y187471D01*
X254766Y186684D01*
X253474Y185624D01*
X252415Y184333D01*
X251627Y182859D01*
X251142Y181261D01*
X250979Y179598D01*
X251001Y179370D01*
X250665Y179000D01*
X233000D01*
X233000Y326500D01*
X324301Y326500D01*
Y328540D01*
X324390Y328558D01*
X324721Y328779D01*
X324942Y329110D01*
X325020Y329500D01*
Y346500D01*
X491265Y346500D01*
D02*
G37*
G36*
X575000Y203032D02*
X531000D01*
X531000Y203032D01*
Y264083D01*
X531232Y264287D01*
X532315Y264430D01*
X533325Y264848D01*
X534192Y265513D01*
X534857Y266380D01*
X535275Y267389D01*
X535418Y268472D01*
X535275Y269556D01*
X534857Y270565D01*
X534192Y271432D01*
X533325Y272097D01*
X532315Y272515D01*
X531232Y272658D01*
X531000Y272862D01*
Y290782D01*
X494500Y327282D01*
Y457500D01*
X575000D01*
Y203032D01*
D02*
G37*
%LPC*%
G36*
X405000Y448294D02*
X404122Y448119D01*
X403378Y447622D01*
X402880Y446878D01*
X402706Y446000D01*
X402880Y445122D01*
X403378Y444378D01*
X404122Y443881D01*
X405000Y443706D01*
X405878Y443881D01*
X406622Y444378D01*
X407120Y445122D01*
X407294Y446000D01*
X407120Y446878D01*
X406622Y447622D01*
X405878Y448119D01*
X405000Y448294D01*
D02*
G37*
G36*
Y433794D02*
X404122Y433619D01*
X403378Y433122D01*
X402880Y432378D01*
X402706Y431500D01*
X402880Y430622D01*
X403378Y429878D01*
X404122Y429381D01*
X405000Y429206D01*
X405878Y429381D01*
X406622Y429878D01*
X407120Y430622D01*
X407294Y431500D01*
X407120Y432378D01*
X406622Y433122D01*
X405878Y433619D01*
X405000Y433794D01*
D02*
G37*
G36*
X394000D02*
X393122Y433619D01*
X392378Y433122D01*
X391880Y432378D01*
X391706Y431500D01*
X391880Y430622D01*
X392378Y429878D01*
X393122Y429381D01*
X394000Y429206D01*
X394878Y429381D01*
X395622Y429878D01*
X396119Y430622D01*
X396294Y431500D01*
X396119Y432378D01*
X395622Y433122D01*
X394878Y433619D01*
X394000Y433794D01*
D02*
G37*
G36*
X320500D02*
X319622Y433619D01*
X318878Y433122D01*
X318380Y432378D01*
X318206Y431500D01*
X318380Y430622D01*
X318878Y429878D01*
X319622Y429381D01*
X320500Y429206D01*
X321378Y429381D01*
X322122Y429878D01*
X322620Y430622D01*
X322794Y431500D01*
X322620Y432378D01*
X322122Y433122D01*
X321378Y433619D01*
X320500Y433794D01*
D02*
G37*
G36*
X308000D02*
X307122Y433619D01*
X306378Y433122D01*
X305880Y432378D01*
X305706Y431500D01*
X305880Y430622D01*
X306378Y429878D01*
X307122Y429381D01*
X308000Y429206D01*
X308878Y429381D01*
X309622Y429878D01*
X310120Y430622D01*
X310294Y431500D01*
X310120Y432378D01*
X309622Y433122D01*
X308878Y433619D01*
X308000Y433794D01*
D02*
G37*
G36*
X446500Y429294D02*
X445622Y429119D01*
X444878Y428622D01*
X444381Y427878D01*
X444206Y427000D01*
X444381Y426122D01*
X444878Y425378D01*
X445622Y424881D01*
X446500Y424706D01*
X447378Y424881D01*
X448122Y425378D01*
X448619Y426122D01*
X448794Y427000D01*
X448619Y427878D01*
X448122Y428622D01*
X447378Y429119D01*
X446500Y429294D01*
D02*
G37*
G36*
X234500Y428794D02*
X233622Y428619D01*
X232878Y428122D01*
X232381Y427378D01*
X232206Y426500D01*
X232381Y425622D01*
X232878Y424878D01*
X233622Y424381D01*
X234500Y424206D01*
X235378Y424381D01*
X236122Y424878D01*
X236619Y425622D01*
X236794Y426500D01*
X236619Y427378D01*
X236122Y428122D01*
X235378Y428619D01*
X234500Y428794D01*
D02*
G37*
G36*
X357000Y427794D02*
X356122Y427619D01*
X355378Y427122D01*
X354880Y426378D01*
X354706Y425500D01*
X354880Y424622D01*
X355378Y423878D01*
X356122Y423381D01*
X357000Y423206D01*
X357878Y423381D01*
X358622Y423878D01*
X359120Y424622D01*
X359294Y425500D01*
X359120Y426378D01*
X358622Y427122D01*
X357878Y427619D01*
X357000Y427794D01*
D02*
G37*
G36*
X266500D02*
X265622Y427619D01*
X264878Y427122D01*
X264381Y426378D01*
X264206Y425500D01*
X264381Y424622D01*
X264878Y423878D01*
X265622Y423381D01*
X266500Y423206D01*
X267378Y423381D01*
X268122Y423878D01*
X268619Y424622D01*
X268794Y425500D01*
X268619Y426378D01*
X268122Y427122D01*
X267378Y427619D01*
X266500Y427794D01*
D02*
G37*
G36*
X245500Y418294D02*
X244622Y418119D01*
X243878Y417622D01*
X243380Y416878D01*
X243206Y416000D01*
X243380Y415122D01*
X243878Y414378D01*
X244622Y413881D01*
X245500Y413706D01*
X246378Y413881D01*
X247122Y414378D01*
X247620Y415122D01*
X247794Y416000D01*
X247620Y416878D01*
X247122Y417622D01*
X246378Y418119D01*
X245500Y418294D01*
D02*
G37*
G36*
X336000Y416794D02*
X335122Y416619D01*
X334378Y416122D01*
X333880Y415378D01*
X333706Y414500D01*
X333880Y413622D01*
X334378Y412878D01*
X335122Y412381D01*
X336000Y412206D01*
X336878Y412381D01*
X337622Y412878D01*
X338120Y413622D01*
X338294Y414500D01*
X338120Y415378D01*
X337622Y416122D01*
X336878Y416619D01*
X336000Y416794D01*
D02*
G37*
G36*
X424000Y415294D02*
X423122Y415119D01*
X422378Y414622D01*
X421881Y413878D01*
X421706Y413000D01*
X421881Y412122D01*
X421575Y411680D01*
X421000Y411794D01*
X420122Y411619D01*
X419378Y411122D01*
X418881Y410378D01*
X418706Y409500D01*
X418881Y408622D01*
X419378Y407878D01*
X420122Y407380D01*
X421000Y407206D01*
X421878Y407380D01*
X422622Y407878D01*
X423119Y408622D01*
X423294Y409500D01*
X423119Y410378D01*
X423425Y410820D01*
X424000Y410706D01*
X424878Y410881D01*
X425622Y411378D01*
X426119Y412122D01*
X426294Y413000D01*
X426119Y413878D01*
X425622Y414622D01*
X424878Y415119D01*
X424000Y415294D01*
D02*
G37*
G36*
X266500Y413539D02*
X265720Y413384D01*
X265058Y412942D01*
X264616Y412280D01*
X264461Y411500D01*
X264616Y410720D01*
X265058Y410058D01*
X265720Y409616D01*
X266500Y409461D01*
X267280Y409616D01*
X267942Y410058D01*
X268384Y410720D01*
X268539Y411500D01*
X268384Y412280D01*
X267942Y412942D01*
X267280Y413384D01*
X266500Y413539D01*
D02*
G37*
G36*
X446000Y413039D02*
X445220Y412884D01*
X444558Y412442D01*
X444116Y411780D01*
X443961Y411000D01*
X444116Y410220D01*
X444558Y409558D01*
X445220Y409116D01*
X446000Y408961D01*
X446780Y409116D01*
X447442Y409558D01*
X447884Y410220D01*
X448039Y411000D01*
X447884Y411780D01*
X447442Y412442D01*
X446780Y412884D01*
X446000Y413039D01*
D02*
G37*
G36*
X356974Y412805D02*
X356194Y412649D01*
X355532Y412207D01*
X355090Y411546D01*
X354935Y410766D01*
X355090Y409985D01*
X355532Y409324D01*
X356194Y408882D01*
X356974Y408726D01*
X357754Y408882D01*
X358416Y409324D01*
X358858Y409985D01*
X359013Y410766D01*
X358858Y411546D01*
X358416Y412207D01*
X357754Y412649D01*
X356974Y412805D01*
D02*
G37*
G36*
X333500Y412210D02*
X332622Y412035D01*
X331878Y411538D01*
X331381Y410793D01*
X331206Y409915D01*
X331381Y409038D01*
X331878Y408293D01*
X332622Y407796D01*
X333500Y407621D01*
X334378Y407796D01*
X335122Y408293D01*
X335619Y409038D01*
X335794Y409915D01*
X335619Y410793D01*
X335122Y411538D01*
X334378Y412035D01*
X333500Y412210D01*
D02*
G37*
G36*
X266500Y406260D02*
X265720Y406105D01*
X265058Y405662D01*
X264616Y405001D01*
X264461Y404220D01*
X264616Y403440D01*
X265058Y402779D01*
X265720Y402337D01*
X266500Y402181D01*
X267280Y402337D01*
X267942Y402779D01*
X268384Y403440D01*
X268539Y404220D01*
X268384Y405001D01*
X267942Y405662D01*
X267280Y406105D01*
X266500Y406260D01*
D02*
G37*
G36*
X244000Y406294D02*
X243122Y406119D01*
X242378Y405622D01*
X241880Y404878D01*
X241706Y404000D01*
X241880Y403122D01*
X242378Y402378D01*
X243122Y401881D01*
X244000Y401706D01*
X244878Y401881D01*
X245622Y402378D01*
X246119Y403122D01*
X246294Y404000D01*
X246119Y404878D01*
X245622Y405622D01*
X244878Y406119D01*
X244000Y406294D01*
D02*
G37*
G36*
X357000Y405657D02*
X356220Y405502D01*
X355558Y405060D01*
X355116Y404398D01*
X354961Y403618D01*
X355116Y402838D01*
X355558Y402176D01*
X356220Y401734D01*
X357000Y401579D01*
X357780Y401734D01*
X358442Y402176D01*
X358884Y402838D01*
X359039Y403618D01*
X358884Y404398D01*
X358442Y405060D01*
X357780Y405502D01*
X357000Y405657D01*
D02*
G37*
G36*
X446000Y405157D02*
X445220Y405002D01*
X444558Y404560D01*
X444116Y403898D01*
X443961Y403118D01*
X444116Y402338D01*
X444558Y401676D01*
X445220Y401234D01*
X446000Y401079D01*
X446780Y401234D01*
X447442Y401676D01*
X447884Y402338D01*
X448039Y403118D01*
X447884Y403898D01*
X447442Y404560D01*
X446780Y405002D01*
X446000Y405157D01*
D02*
G37*
G36*
X405424Y405294D02*
X404546Y405120D01*
X403802Y404622D01*
X403304Y403878D01*
X403130Y403000D01*
X403304Y402122D01*
X403802Y401378D01*
X404546Y400880D01*
X405424Y400706D01*
X406302Y400880D01*
X407046Y401378D01*
X407543Y402122D01*
X407718Y403000D01*
X407543Y403878D01*
X407046Y404622D01*
X406302Y405120D01*
X405424Y405294D01*
D02*
G37*
G36*
X287000Y399794D02*
X286122Y399620D01*
X285378Y399122D01*
X284880Y398378D01*
X284706Y397500D01*
X284880Y396622D01*
X285378Y395878D01*
X286122Y395380D01*
X287000Y395206D01*
X287878Y395380D01*
X288622Y395878D01*
X289120Y396622D01*
X289294Y397500D01*
X289120Y398378D01*
X288622Y399122D01*
X287878Y399620D01*
X287000Y399794D01*
D02*
G37*
G36*
X266500Y398539D02*
X265720Y398384D01*
X265058Y397942D01*
X264616Y397280D01*
X264461Y396500D01*
X264616Y395720D01*
X265058Y395058D01*
X265720Y394616D01*
X266500Y394461D01*
X267280Y394616D01*
X267942Y395058D01*
X268384Y395720D01*
X268539Y396500D01*
X268384Y397280D01*
X267942Y397942D01*
X267280Y398384D01*
X266500Y398539D01*
D02*
G37*
G36*
X357000Y398468D02*
X356220Y398313D01*
X355558Y397871D01*
X355116Y397210D01*
X354961Y396429D01*
X355116Y395649D01*
X355558Y394987D01*
X356220Y394545D01*
X357000Y394390D01*
X357780Y394545D01*
X358442Y394987D01*
X358884Y395649D01*
X359039Y396429D01*
X358884Y397210D01*
X358442Y397871D01*
X357780Y398313D01*
X357000Y398468D01*
D02*
G37*
G36*
X329000Y398794D02*
X328122Y398620D01*
X327378Y398122D01*
X326881Y397378D01*
X326706Y396500D01*
X326881Y395622D01*
X327378Y394878D01*
X328122Y394380D01*
X329000Y394206D01*
X329878Y394380D01*
X330622Y394878D01*
X331119Y395622D01*
X331294Y396500D01*
X331119Y397378D01*
X330622Y398122D01*
X329878Y398620D01*
X329000Y398794D01*
D02*
G37*
G36*
X446000Y397701D02*
X445220Y397545D01*
X444558Y397103D01*
X444116Y396442D01*
X443961Y395661D01*
X444116Y394881D01*
X444558Y394219D01*
X445220Y393777D01*
X446000Y393622D01*
X446780Y393777D01*
X447442Y394219D01*
X447884Y394881D01*
X448039Y395661D01*
X447884Y396442D01*
X447442Y397103D01*
X446780Y397545D01*
X446000Y397701D01*
D02*
G37*
G36*
X234433Y398056D02*
X233555Y397881D01*
X232811Y397384D01*
X232313Y396639D01*
X232139Y395761D01*
X232313Y394884D01*
X232811Y394139D01*
X233555Y393642D01*
X234433Y393467D01*
X235311Y393642D01*
X236055Y394139D01*
X236552Y394884D01*
X236727Y395761D01*
X236552Y396639D01*
X236055Y397384D01*
X235311Y397881D01*
X234433Y398056D01*
D02*
G37*
G36*
X468500Y395876D02*
X467622Y395701D01*
X466878Y395204D01*
X466381Y394459D01*
X466206Y393581D01*
X466381Y392704D01*
X466878Y391959D01*
X467622Y391462D01*
X468500Y391287D01*
X469378Y391462D01*
X470122Y391959D01*
X470619Y392704D01*
X470794Y393581D01*
X470619Y394459D01*
X470122Y395204D01*
X469378Y395701D01*
X468500Y395876D01*
D02*
G37*
G36*
X329000Y393294D02*
X328122Y393120D01*
X327378Y392622D01*
X326881Y391878D01*
X326706Y391000D01*
X326881Y390122D01*
X327378Y389378D01*
X328122Y388880D01*
X329000Y388706D01*
X329878Y388880D01*
X330622Y389378D01*
X331119Y390122D01*
X331294Y391000D01*
X331119Y391878D01*
X330622Y392622D01*
X329878Y393120D01*
X329000Y393294D01*
D02*
G37*
G36*
X429500Y390294D02*
X428622Y390120D01*
X427878Y389622D01*
X427381Y388878D01*
X427206Y388000D01*
X427381Y387122D01*
X427878Y386378D01*
X428622Y385880D01*
X429500Y385706D01*
X430378Y385880D01*
X431122Y386378D01*
X431619Y387122D01*
X431794Y388000D01*
X431619Y388878D01*
X431122Y389622D01*
X430378Y390120D01*
X429500Y390294D01*
D02*
G37*
G36*
X344500Y388294D02*
X343622Y388120D01*
X342878Y387622D01*
X342380Y386878D01*
X342206Y386000D01*
X342380Y385122D01*
X342878Y384378D01*
X343622Y383880D01*
X344500Y383706D01*
X345378Y383880D01*
X346122Y384378D01*
X346620Y385122D01*
X346794Y386000D01*
X346620Y386878D01*
X346122Y387622D01*
X345378Y388120D01*
X344500Y388294D01*
D02*
G37*
G36*
X274000Y387794D02*
X273122Y387619D01*
X272378Y387122D01*
X271881Y386378D01*
X271706Y385500D01*
X271881Y384622D01*
X272378Y383878D01*
X273122Y383381D01*
X274000Y383206D01*
X274878Y383381D01*
X275622Y383878D01*
X276119Y384622D01*
X276294Y385500D01*
X276119Y386378D01*
X275622Y387122D01*
X274878Y387619D01*
X274000Y387794D01*
D02*
G37*
G36*
X402500Y386794D02*
X401622Y386619D01*
X400878Y386122D01*
X400381Y385378D01*
X400206Y384500D01*
X400381Y383622D01*
X400878Y382878D01*
X401622Y382381D01*
X402500Y382206D01*
X403378Y382381D01*
X404122Y382878D01*
X404620Y383622D01*
X404794Y384500D01*
X404620Y385378D01*
X404122Y386122D01*
X403378Y386619D01*
X402500Y386794D01*
D02*
G37*
G36*
X388500D02*
X387622Y386619D01*
X386878Y386122D01*
X386381Y385378D01*
X386206Y384500D01*
X386381Y383622D01*
X386878Y382878D01*
X387622Y382381D01*
X388500Y382206D01*
X389378Y382381D01*
X390122Y382878D01*
X390619Y383622D01*
X390794Y384500D01*
X390619Y385378D01*
X390122Y386122D01*
X389378Y386619D01*
X388500Y386794D01*
D02*
G37*
G36*
X368000Y385294D02*
X367122Y385120D01*
X366378Y384622D01*
X365880Y383878D01*
X365706Y383000D01*
X365880Y382122D01*
X366378Y381378D01*
X367122Y380880D01*
X368000Y380706D01*
X368878Y380880D01*
X369622Y381378D01*
X370120Y382122D01*
X370294Y383000D01*
X370120Y383878D01*
X369622Y384622D01*
X368878Y385120D01*
X368000Y385294D01*
D02*
G37*
G36*
X358000Y382794D02*
X357122Y382620D01*
X356378Y382122D01*
X355880Y381378D01*
X355706Y380500D01*
X355880Y379622D01*
X356378Y378878D01*
X357122Y378380D01*
X358000Y378206D01*
X358878Y378380D01*
X359622Y378878D01*
X360120Y379622D01*
X360294Y380500D01*
X360120Y381378D01*
X359622Y382122D01*
X358878Y382620D01*
X358000Y382794D01*
D02*
G37*
G36*
X335500D02*
X334622Y382620D01*
X333878Y382122D01*
X333381Y381378D01*
X333206Y380500D01*
X333381Y379622D01*
X333878Y378878D01*
X334622Y378380D01*
X335500Y378206D01*
X336378Y378380D01*
X337122Y378878D01*
X337619Y379622D01*
X337794Y380500D01*
X337619Y381378D01*
X337122Y382122D01*
X336378Y382620D01*
X335500Y382794D01*
D02*
G37*
G36*
X282965Y389866D02*
X281707Y389742D01*
X280498Y389375D01*
X279384Y388780D01*
X278408Y387978D01*
X277606Y387002D01*
X277011Y385887D01*
X276644Y384679D01*
X276520Y383421D01*
X276644Y382164D01*
X277011Y380955D01*
X277606Y379841D01*
X278408Y378864D01*
X279384Y378063D01*
X280498Y377467D01*
X281707Y377101D01*
X282965Y376977D01*
X284222Y377101D01*
X285431Y377467D01*
X286545Y378063D01*
X287522Y378864D01*
X288323Y379841D01*
X288918Y380955D01*
X289285Y382164D01*
X289409Y383421D01*
X289285Y384679D01*
X288918Y385887D01*
X288323Y387002D01*
X287522Y387978D01*
X286545Y388780D01*
X285431Y389375D01*
X284222Y389742D01*
X282965Y389866D01*
D02*
G37*
G36*
X254224Y390360D02*
X252871Y390227D01*
X251569Y389832D01*
X250369Y389191D01*
X249318Y388328D01*
X248455Y387276D01*
X247814Y386077D01*
X247419Y384775D01*
X247286Y383421D01*
X247419Y382067D01*
X247814Y380766D01*
X248455Y379566D01*
X249318Y378515D01*
X250369Y377652D01*
X251569Y377010D01*
X252871Y376616D01*
X254224Y376482D01*
X255578Y376616D01*
X256880Y377010D01*
X258080Y377652D01*
X259131Y378515D01*
X259994Y379566D01*
X260635Y380766D01*
X261030Y382067D01*
X261163Y383421D01*
X261030Y384775D01*
X260635Y386077D01*
X259994Y387276D01*
X259131Y388328D01*
X258080Y389191D01*
X256880Y389832D01*
X255578Y390227D01*
X254224Y390360D01*
D02*
G37*
G36*
X243000Y374294D02*
X242122Y374119D01*
X241378Y373622D01*
X241042Y373120D01*
X240458D01*
X240122Y373622D01*
X239378Y374119D01*
X238500Y374294D01*
X237622Y374119D01*
X236878Y373622D01*
X236381Y372878D01*
X236206Y372000D01*
X236381Y371122D01*
X236878Y370378D01*
X237622Y369881D01*
X238500Y369706D01*
X239378Y369881D01*
X240122Y370378D01*
X240458Y370880D01*
X241042D01*
X241378Y370378D01*
X242122Y369881D01*
X243000Y369706D01*
X243878Y369881D01*
X244622Y370378D01*
X245120Y371122D01*
X245294Y372000D01*
X245120Y372878D01*
X244622Y373622D01*
X243878Y374119D01*
X243000Y374294D01*
D02*
G37*
G36*
X269000D02*
X268122Y374119D01*
X267378Y373622D01*
X266880Y372878D01*
X266706Y372000D01*
X266880Y371122D01*
X267378Y370378D01*
X268122Y369881D01*
X269000Y369706D01*
X269878Y369881D01*
X270622Y370378D01*
X271119Y371122D01*
X271294Y372000D01*
X271119Y372878D01*
X270622Y373622D01*
X269878Y374119D01*
X269000Y374294D01*
D02*
G37*
G36*
X298000Y371294D02*
X297122Y371119D01*
X296378Y370622D01*
X295881Y369878D01*
X295706Y369000D01*
X295881Y368122D01*
X296378Y367378D01*
X297122Y366880D01*
X298000Y366706D01*
X298878Y366880D01*
X299622Y367378D01*
X300119Y368122D01*
X300294Y369000D01*
X300119Y369878D01*
X299622Y370622D01*
X298878Y371119D01*
X298000Y371294D01*
D02*
G37*
G36*
X282965Y367425D02*
X281707Y367301D01*
X280498Y366934D01*
X279384Y366339D01*
X278408Y365537D01*
X277606Y364561D01*
X277011Y363446D01*
X276644Y362238D01*
X276520Y360980D01*
X276644Y359723D01*
X277011Y358514D01*
X277606Y357400D01*
X278408Y356423D01*
X279384Y355622D01*
X280498Y355027D01*
X281707Y354660D01*
X282965Y354536D01*
X284222Y354660D01*
X285431Y355027D01*
X286545Y355622D01*
X287522Y356423D01*
X288323Y357400D01*
X288918Y358514D01*
X289285Y359723D01*
X289409Y360980D01*
X289285Y362238D01*
X288918Y363446D01*
X288323Y364561D01*
X287522Y365537D01*
X286545Y366339D01*
X285431Y366934D01*
X284222Y367301D01*
X282965Y367425D01*
D02*
G37*
G36*
X268000Y353294D02*
X267122Y353119D01*
X266378Y352622D01*
X265880Y351878D01*
X265706Y351000D01*
X265880Y350122D01*
X266378Y349378D01*
X267122Y348881D01*
X268000Y348706D01*
X268878Y348881D01*
X269622Y349378D01*
X270120Y350122D01*
X270294Y351000D01*
X270120Y351878D01*
X269622Y352622D01*
X268878Y353119D01*
X268000Y353294D01*
D02*
G37*
G36*
X289378Y344953D02*
X276551D01*
Y332126D01*
X289378D01*
Y344953D01*
D02*
G37*
G36*
X366000Y344794D02*
X365122Y344619D01*
X364378Y344122D01*
X363880Y343378D01*
X363706Y342500D01*
X363880Y341622D01*
X364378Y340878D01*
X365122Y340381D01*
X366000Y340206D01*
X366878Y340381D01*
X367622Y340878D01*
X368120Y341622D01*
X368294Y342500D01*
X368120Y343378D01*
X367622Y344122D01*
X366878Y344619D01*
X366000Y344794D01*
D02*
G37*
G36*
X343000Y341294D02*
X342122Y341120D01*
X341378Y340622D01*
X340880Y339878D01*
X340706Y339000D01*
X340880Y338122D01*
X341378Y337378D01*
X342122Y336880D01*
X343000Y336706D01*
X343878Y336880D01*
X344622Y337378D01*
X345120Y338122D01*
X345294Y339000D01*
X345120Y339878D01*
X344622Y340622D01*
X343878Y341120D01*
X343000Y341294D01*
D02*
G37*
G36*
X390500Y336695D02*
Y335000D01*
X392195D01*
X392120Y335378D01*
X391622Y336122D01*
X390878Y336619D01*
X390500Y336695D01*
D02*
G37*
G36*
X389500D02*
X389122Y336619D01*
X388378Y336122D01*
X387880Y335378D01*
X387805Y335000D01*
X389500D01*
Y336695D01*
D02*
G37*
G36*
X445000Y338294D02*
X444122Y338120D01*
X443378Y337622D01*
X442881Y336878D01*
X442706Y336000D01*
X442881Y335122D01*
X443378Y334378D01*
X444122Y333880D01*
X445000Y333706D01*
X445878Y333880D01*
X446622Y334378D01*
X447119Y335122D01*
X447294Y336000D01*
X447119Y336878D01*
X446622Y337622D01*
X445878Y338120D01*
X445000Y338294D01*
D02*
G37*
G36*
X392195Y334000D02*
X390500D01*
Y332305D01*
X390878Y332381D01*
X391622Y332878D01*
X392120Y333622D01*
X392195Y334000D01*
D02*
G37*
G36*
X389500D02*
X387805D01*
X387880Y333622D01*
X388378Y332878D01*
X389122Y332381D01*
X389500Y332305D01*
Y334000D01*
D02*
G37*
G36*
X347500Y334794D02*
X346622Y334619D01*
X345878Y334122D01*
X345380Y333378D01*
X345206Y332500D01*
X345380Y331622D01*
X345878Y330878D01*
X346622Y330381D01*
X347500Y330206D01*
X348378Y330381D01*
X349122Y330878D01*
X349620Y331622D01*
X349794Y332500D01*
X349620Y333378D01*
X349122Y334122D01*
X348378Y334619D01*
X347500Y334794D01*
D02*
G37*
G36*
X390000Y328294D02*
X389122Y328119D01*
X388378Y327622D01*
X387880Y326878D01*
X387706Y326000D01*
X387880Y325122D01*
X388378Y324378D01*
X389122Y323881D01*
X390000Y323706D01*
X390878Y323881D01*
X391622Y324378D01*
X392120Y325122D01*
X392294Y326000D01*
X392120Y326878D01*
X391622Y327622D01*
X390878Y328119D01*
X390000Y328294D01*
D02*
G37*
G36*
X351000Y327794D02*
X350122Y327620D01*
X349378Y327122D01*
X348881Y326378D01*
X348706Y325500D01*
X348881Y324622D01*
X349378Y323878D01*
X350122Y323380D01*
X351000Y323206D01*
X351878Y323380D01*
X352622Y323878D01*
X353119Y324622D01*
X353294Y325500D01*
X353119Y326378D01*
X352622Y327122D01*
X351878Y327620D01*
X351000Y327794D01*
D02*
G37*
G36*
X381500Y322695D02*
Y321000D01*
X383195D01*
X383120Y321378D01*
X382622Y322122D01*
X381878Y322620D01*
X381500Y322695D01*
D02*
G37*
G36*
X380500D02*
X380122Y322620D01*
X379378Y322122D01*
X378881Y321378D01*
X378805Y321000D01*
X380500D01*
Y322695D01*
D02*
G37*
G36*
X398500Y323294D02*
X397622Y323119D01*
X396878Y322622D01*
X396380Y321878D01*
X396206Y321000D01*
X396380Y320122D01*
X396878Y319378D01*
X397622Y318881D01*
X398500Y318706D01*
X399378Y318881D01*
X400122Y319378D01*
X400620Y320122D01*
X400794Y321000D01*
X400620Y321878D01*
X400122Y322622D01*
X399378Y323119D01*
X398500Y323294D01*
D02*
G37*
G36*
X484500Y320195D02*
Y318500D01*
X486195D01*
X486119Y318878D01*
X485622Y319622D01*
X484878Y320120D01*
X484500Y320195D01*
D02*
G37*
G36*
X483500D02*
X483122Y320120D01*
X482378Y319622D01*
X481881Y318878D01*
X481805Y318500D01*
X483500D01*
Y320195D01*
D02*
G37*
G36*
X362000Y319195D02*
Y317500D01*
X363695D01*
X363619Y317878D01*
X363122Y318622D01*
X362378Y319120D01*
X362000Y319195D01*
D02*
G37*
G36*
X361000D02*
X360622Y319120D01*
X359878Y318622D01*
X359381Y317878D01*
X359305Y317500D01*
X361000D01*
Y319195D01*
D02*
G37*
G36*
X486195Y317500D02*
X484500D01*
Y315805D01*
X484878Y315880D01*
X485622Y316378D01*
X486119Y317122D01*
X486195Y317500D01*
D02*
G37*
G36*
X483500D02*
X481805D01*
X481881Y317122D01*
X482378Y316378D01*
X483122Y315880D01*
X483500Y315805D01*
Y317500D01*
D02*
G37*
G36*
X354000Y320294D02*
X353122Y320120D01*
X352378Y319622D01*
X351881Y318878D01*
X351706Y318000D01*
X351881Y317122D01*
X352378Y316378D01*
X353122Y315880D01*
X354000Y315706D01*
X354878Y315880D01*
X355622Y316378D01*
X356119Y317122D01*
X356294Y318000D01*
X356119Y318878D01*
X355622Y319622D01*
X354878Y320120D01*
X354000Y320294D01*
D02*
G37*
G36*
X383436Y320000D02*
X378805D01*
X378881Y319622D01*
X379378Y318878D01*
X380122Y318380D01*
X380843Y318237D01*
X381263Y317787D01*
X381206Y317500D01*
X381381Y316622D01*
X381878Y315878D01*
X382622Y315381D01*
X383500Y315206D01*
X384378Y315381D01*
X385122Y315878D01*
X385619Y316622D01*
X385794Y317500D01*
X385619Y318378D01*
X385122Y319122D01*
X384378Y319619D01*
X383657Y319763D01*
X383436Y320000D01*
D02*
G37*
G36*
X363695Y316500D02*
X362000D01*
Y314805D01*
X362378Y314880D01*
X363122Y315378D01*
X363619Y316122D01*
X363695Y316500D01*
D02*
G37*
G36*
X361000D02*
X359305D01*
X359381Y316122D01*
X359878Y315378D01*
X360622Y314880D01*
X361000Y314805D01*
Y316500D01*
D02*
G37*
G36*
X280500Y315695D02*
Y314000D01*
X282195D01*
X282119Y314378D01*
X281622Y315122D01*
X280878Y315619D01*
X280500Y315695D01*
D02*
G37*
G36*
X279500D02*
X279122Y315619D01*
X278378Y315122D01*
X277881Y314378D01*
X277805Y314000D01*
X279500D01*
Y315695D01*
D02*
G37*
G36*
X282195Y313000D02*
X280500D01*
Y311305D01*
X280878Y311381D01*
X281622Y311878D01*
X282119Y312622D01*
X282195Y313000D01*
D02*
G37*
G36*
X279500D02*
X277805D01*
X277881Y312622D01*
X278378Y311878D01*
X279122Y311381D01*
X279500Y311305D01*
Y313000D01*
D02*
G37*
G36*
X395000Y315794D02*
X394122Y315619D01*
X393378Y315122D01*
X392881Y314378D01*
X392706Y313500D01*
X392881Y312622D01*
X393378Y311878D01*
X394122Y311381D01*
X395000Y311206D01*
X395878Y311381D01*
X396622Y311878D01*
X397119Y312622D01*
X397294Y313500D01*
X397119Y314378D01*
X396622Y315122D01*
X395878Y315619D01*
X395000Y315794D01*
D02*
G37*
G36*
X410500Y300294D02*
X409622Y300119D01*
X408878Y299622D01*
X408381Y298878D01*
X408206Y298000D01*
X408381Y297122D01*
X408878Y296378D01*
X409622Y295881D01*
X410500Y295706D01*
X411378Y295881D01*
X412122Y296378D01*
X412619Y297122D01*
X412794Y298000D01*
X412619Y298878D01*
X412122Y299622D01*
X411378Y300119D01*
X410500Y300294D01*
D02*
G37*
G36*
X306000Y322288D02*
X305019Y322159D01*
X304106Y321781D01*
X303321Y321179D01*
X302719Y320394D01*
X302341Y319480D01*
X302212Y318500D01*
X302341Y317519D01*
X302719Y316606D01*
X303321Y315821D01*
X303773Y315474D01*
X303407Y314997D01*
X303108Y314275D01*
X303006Y313500D01*
X303108Y312725D01*
X303407Y312003D01*
X303883Y311383D01*
X304056Y311250D01*
Y310750D01*
X303883Y310617D01*
X303407Y309997D01*
X303108Y309275D01*
X303006Y308500D01*
X303108Y307725D01*
X303407Y307003D01*
X303883Y306383D01*
X304056Y306250D01*
Y305750D01*
X303883Y305617D01*
X303407Y304997D01*
X303108Y304275D01*
X303006Y303500D01*
X303108Y302725D01*
X303407Y302003D01*
X303883Y301383D01*
X304056Y301250D01*
Y300750D01*
X303883Y300617D01*
X303407Y299997D01*
X303108Y299275D01*
X303006Y298500D01*
X303108Y297725D01*
X303407Y297003D01*
X303883Y296383D01*
X304503Y295907D01*
X305225Y295608D01*
X306000Y295506D01*
X306775Y295608D01*
X307497Y295907D01*
X308117Y296383D01*
X308593Y297003D01*
X308892Y297725D01*
X308994Y298500D01*
X308892Y299275D01*
X308593Y299997D01*
X308117Y300617D01*
X307944Y300750D01*
Y301250D01*
X308117Y301383D01*
X308593Y302003D01*
X308892Y302725D01*
X308994Y303500D01*
X308892Y304275D01*
X308593Y304997D01*
X308117Y305617D01*
X307944Y305750D01*
Y306250D01*
X308117Y306383D01*
X308593Y307003D01*
X308892Y307725D01*
X308994Y308500D01*
X308892Y309275D01*
X308593Y309997D01*
X308117Y310617D01*
X307944Y310750D01*
Y311250D01*
X308117Y311383D01*
X308593Y312003D01*
X308892Y312725D01*
X308994Y313500D01*
X308892Y314275D01*
X308593Y314997D01*
X308227Y315474D01*
X308679Y315821D01*
X309281Y316606D01*
X309659Y317519D01*
X309788Y318500D01*
X309659Y319480D01*
X309281Y320394D01*
X308679Y321179D01*
X307894Y321781D01*
X306980Y322159D01*
X306000Y322288D01*
D02*
G37*
G36*
X327000Y296195D02*
Y294500D01*
X328695D01*
X328620Y294878D01*
X328122Y295622D01*
X327378Y296119D01*
X327000Y296195D01*
D02*
G37*
G36*
X326000D02*
X325622Y296119D01*
X324878Y295622D01*
X324380Y294878D01*
X324305Y294500D01*
X326000D01*
Y296195D01*
D02*
G37*
G36*
X396000Y294195D02*
Y292500D01*
X397695D01*
X397620Y292878D01*
X397122Y293622D01*
X396378Y294120D01*
X396000Y294195D01*
D02*
G37*
G36*
X395000D02*
X394622Y294120D01*
X393878Y293622D01*
X393380Y292878D01*
X393305Y292500D01*
X395000D01*
Y294195D01*
D02*
G37*
G36*
X397695Y291500D02*
X396000D01*
Y289805D01*
X396378Y289880D01*
X397122Y290378D01*
X397620Y291122D01*
X397695Y291500D01*
D02*
G37*
G36*
X395000D02*
X393305D01*
X393380Y291122D01*
X393878Y290378D01*
X394622Y289880D01*
X395000Y289805D01*
Y291500D01*
D02*
G37*
G36*
X328695Y293500D02*
X324305D01*
X324380Y293122D01*
X324878Y292378D01*
Y292122D01*
X324380Y291378D01*
X324206Y290500D01*
X324380Y289622D01*
X324878Y288878D01*
X325622Y288381D01*
X326500Y288206D01*
X327378Y288381D01*
X328122Y288878D01*
X328620Y289622D01*
X328794Y290500D01*
X328620Y291378D01*
X328122Y292122D01*
Y292378D01*
X328620Y293122D01*
X328695Y293500D01*
D02*
G37*
G36*
X420500Y288294D02*
X419622Y288120D01*
X418878Y287622D01*
X418381Y286878D01*
X418206Y286000D01*
X418381Y285122D01*
X418878Y284378D01*
X419622Y283880D01*
X420500Y283706D01*
X421378Y283880D01*
X422122Y284378D01*
X422619Y285122D01*
X422794Y286000D01*
X422619Y286878D01*
X422122Y287622D01*
X421378Y288120D01*
X420500Y288294D01*
D02*
G37*
G36*
X406000D02*
X405122Y288120D01*
X404378Y287622D01*
X403881Y286878D01*
X403706Y286000D01*
X403881Y285122D01*
X404378Y284378D01*
X405122Y283880D01*
X406000Y283706D01*
X406878Y283880D01*
X407622Y284378D01*
X408119Y285122D01*
X408294Y286000D01*
X408119Y286878D01*
X407622Y287622D01*
X406878Y288120D01*
X406000Y288294D01*
D02*
G37*
G36*
X396000Y266794D02*
X395122Y266619D01*
X394378Y266122D01*
X393881Y265378D01*
X393706Y264500D01*
X393881Y263622D01*
X394378Y262878D01*
X395122Y262381D01*
X396000Y262206D01*
X396878Y262381D01*
X397622Y262878D01*
X398119Y263622D01*
X398294Y264500D01*
X398119Y265378D01*
X397622Y266122D01*
X396878Y266619D01*
X396000Y266794D01*
D02*
G37*
G36*
X364000Y261794D02*
X363122Y261619D01*
X362378Y261122D01*
X362250Y260931D01*
X361750D01*
X361622Y261122D01*
X360878Y261619D01*
X360000Y261794D01*
X359122Y261619D01*
X358378Y261122D01*
X357880Y260378D01*
X357706Y259500D01*
X357880Y258622D01*
X358022Y258411D01*
X357622Y258122D01*
X356878Y258619D01*
X356000Y258794D01*
X355122Y258619D01*
X354378Y258122D01*
X353881Y257378D01*
X353706Y256500D01*
X353881Y255622D01*
X354378Y254878D01*
X355034Y254439D01*
X355126Y254355D01*
X355200Y253855D01*
X354880Y253378D01*
X354805Y253000D01*
X359195D01*
X359120Y253378D01*
X358622Y254122D01*
X357966Y254561D01*
X357874Y254645D01*
X357800Y255145D01*
X358120Y255622D01*
X358294Y256500D01*
X358120Y257378D01*
X357978Y257589D01*
X358378Y257878D01*
X359122Y257381D01*
X360000Y257206D01*
X360878Y257381D01*
X361622Y257878D01*
X361750Y258069D01*
X362250D01*
X362378Y257878D01*
X363122Y257381D01*
X364000Y257206D01*
X364878Y257381D01*
X365622Y257878D01*
X366120Y258622D01*
X366294Y259500D01*
X366120Y260378D01*
X365622Y261122D01*
X364878Y261619D01*
X364000Y261794D01*
D02*
G37*
G36*
X431000Y260195D02*
Y258500D01*
X432695D01*
X432619Y258878D01*
X432122Y259622D01*
X431378Y260120D01*
X431000Y260195D01*
D02*
G37*
G36*
X430000D02*
X429622Y260120D01*
X428878Y259622D01*
X428381Y258878D01*
X428305Y258500D01*
X430000D01*
Y260195D01*
D02*
G37*
G36*
X263000Y261794D02*
X262122Y261619D01*
X261378Y261122D01*
X260880Y260378D01*
X260706Y259500D01*
X260880Y258622D01*
X261378Y257878D01*
X262122Y257381D01*
X263000Y257206D01*
X263878Y257381D01*
X264622Y257878D01*
X265120Y258622D01*
X265294Y259500D01*
X265120Y260378D01*
X264622Y261122D01*
X263878Y261619D01*
X263000Y261794D01*
D02*
G37*
G36*
X301000Y260794D02*
X300122Y260619D01*
X299378Y260122D01*
X298881Y259378D01*
X298706Y258500D01*
X298881Y257622D01*
X299378Y256878D01*
X300122Y256381D01*
X301000Y256206D01*
X301878Y256381D01*
X302622Y256878D01*
X303119Y257622D01*
X303294Y258500D01*
X303119Y259378D01*
X302622Y260122D01*
X301878Y260619D01*
X301000Y260794D01*
D02*
G37*
G36*
X432695Y257500D02*
X431000D01*
Y255805D01*
X431378Y255880D01*
X432122Y256378D01*
X432619Y257122D01*
X432695Y257500D01*
D02*
G37*
G36*
X430000D02*
X428305D01*
X428381Y257122D01*
X428878Y256378D01*
X429622Y255880D01*
X430000Y255805D01*
Y257500D01*
D02*
G37*
G36*
X415500Y260294D02*
X414622Y260120D01*
X413878Y259622D01*
X413381Y258878D01*
X413206Y258000D01*
X413381Y257122D01*
X413878Y256378D01*
X414622Y255880D01*
X415500Y255706D01*
X416378Y255880D01*
X417122Y256378D01*
X417619Y257122D01*
X417794Y258000D01*
X417619Y258878D01*
X417122Y259622D01*
X416378Y260120D01*
X415500Y260294D01*
D02*
G37*
G36*
X348000Y262794D02*
X347122Y262619D01*
X346378Y262122D01*
X345881Y261378D01*
X345706Y260500D01*
X345881Y259622D01*
X346378Y258878D01*
X347122Y258381D01*
X348000Y258206D01*
X348287Y258263D01*
X348737Y257843D01*
X348881Y257122D01*
X349378Y256378D01*
X350122Y255880D01*
X351000Y255706D01*
X351878Y255880D01*
X352622Y256378D01*
X353119Y257122D01*
X353294Y258000D01*
X353119Y258878D01*
X352622Y259622D01*
X351878Y260120D01*
X351000Y260294D01*
X350713Y260237D01*
X350263Y260657D01*
X350119Y261378D01*
X349622Y262122D01*
X348878Y262619D01*
X348000Y262794D01*
D02*
G37*
G36*
X450500Y257195D02*
Y255500D01*
X452195D01*
X452119Y255878D01*
X451622Y256622D01*
X450878Y257119D01*
X450500Y257195D01*
D02*
G37*
G36*
X449500D02*
X449122Y257119D01*
X448378Y256622D01*
X447881Y255878D01*
X447805Y255500D01*
X449500D01*
Y257195D01*
D02*
G37*
G36*
X376000Y256294D02*
X375122Y256119D01*
X374378Y255622D01*
X374042Y255120D01*
X373458D01*
X373122Y255622D01*
X372378Y256119D01*
X371500Y256294D01*
X370622Y256119D01*
X369878Y255622D01*
X369380Y254878D01*
X369206Y254000D01*
X369380Y253122D01*
X369878Y252378D01*
X370622Y251881D01*
X371500Y251706D01*
X372378Y251881D01*
X373122Y252378D01*
X373458Y252880D01*
X374042D01*
X374378Y252378D01*
X375122Y251881D01*
X376000Y251706D01*
X376878Y251881D01*
X377622Y252378D01*
X378119Y253122D01*
X378294Y254000D01*
X378119Y254878D01*
X377622Y255622D01*
X376878Y256119D01*
X376000Y256294D01*
D02*
G37*
G36*
X383000Y259294D02*
X382122Y259120D01*
X381378Y258622D01*
X380880Y257878D01*
X380706Y257000D01*
X380880Y256122D01*
X381378Y255378D01*
X382122Y254880D01*
X383000Y254706D01*
X383878Y254880D01*
X384622Y255378D01*
X385120Y256122D01*
X385294Y257000D01*
X385120Y257878D01*
X384622Y258622D01*
X383878Y259120D01*
X383000Y259294D01*
D02*
G37*
G36*
X407500Y255695D02*
Y254000D01*
X409195D01*
X409120Y254378D01*
X408622Y255122D01*
X407878Y255620D01*
X407500Y255695D01*
D02*
G37*
G36*
X406500D02*
X406122Y255620D01*
X405378Y255122D01*
X404881Y254378D01*
X404805Y254000D01*
X406500D01*
Y255695D01*
D02*
G37*
G36*
X452195Y254500D02*
X450500D01*
Y252805D01*
X450878Y252881D01*
X451622Y253378D01*
X452119Y254122D01*
X452195Y254500D01*
D02*
G37*
G36*
X449500D02*
X447805D01*
X447881Y254122D01*
X448378Y253378D01*
X449122Y252881D01*
X449500Y252805D01*
Y254500D01*
D02*
G37*
G36*
X424000Y254195D02*
Y252500D01*
X425695D01*
X425619Y252878D01*
X425122Y253622D01*
X424378Y254119D01*
X424000Y254195D01*
D02*
G37*
G36*
X423000D02*
X422622Y254119D01*
X421878Y253622D01*
X421381Y252878D01*
X421305Y252500D01*
X423000D01*
Y254195D01*
D02*
G37*
G36*
X409195Y253000D02*
X407500D01*
Y251305D01*
X407878Y251380D01*
X408622Y251878D01*
X409120Y252622D01*
X409195Y253000D01*
D02*
G37*
G36*
X406500D02*
X404805D01*
X404881Y252622D01*
X405378Y251878D01*
X406122Y251380D01*
X406500Y251305D01*
Y253000D01*
D02*
G37*
G36*
X359195Y252000D02*
X357500D01*
Y250305D01*
X357878Y250380D01*
X358622Y250878D01*
X359120Y251622D01*
X359195Y252000D01*
D02*
G37*
G36*
X356500D02*
X354805D01*
X354880Y251622D01*
X355378Y250878D01*
X356122Y250380D01*
X356500Y250305D01*
Y252000D01*
D02*
G37*
G36*
X425695Y251500D02*
X424000D01*
Y249805D01*
X424378Y249881D01*
X425122Y250378D01*
X425619Y251122D01*
X425695Y251500D01*
D02*
G37*
G36*
X423000D02*
X421305D01*
X421381Y251122D01*
X421878Y250378D01*
X422622Y249881D01*
X423000Y249805D01*
Y251500D01*
D02*
G37*
G36*
X325500Y253794D02*
X324622Y253620D01*
X323878Y253122D01*
X323380Y252378D01*
X323206Y251500D01*
X323380Y250622D01*
X323878Y249878D01*
X324622Y249380D01*
X325500Y249206D01*
X326378Y249380D01*
X327122Y249878D01*
X327620Y250622D01*
X327794Y251500D01*
X327620Y252378D01*
X327122Y253122D01*
X326378Y253620D01*
X325500Y253794D01*
D02*
G37*
G36*
X383000Y253294D02*
X382122Y253119D01*
X381378Y252622D01*
X380880Y251878D01*
X380706Y251000D01*
X380880Y250122D01*
X381378Y249378D01*
X382122Y248881D01*
X383000Y248706D01*
X383878Y248881D01*
X384622Y249378D01*
X385120Y250122D01*
X385294Y251000D01*
X385120Y251878D01*
X384622Y252622D01*
X383878Y253119D01*
X383000Y253294D01*
D02*
G37*
G36*
X337500Y249294D02*
X336622Y249119D01*
X335878Y248622D01*
X335381Y247878D01*
X335206Y247000D01*
X335381Y246122D01*
X335878Y245378D01*
X336622Y244881D01*
X337500Y244706D01*
X338378Y244881D01*
X339122Y245378D01*
X339619Y246122D01*
X339794Y247000D01*
X339619Y247878D01*
X339122Y248622D01*
X338378Y249119D01*
X337500Y249294D01*
D02*
G37*
G36*
X328500D02*
X327622Y249119D01*
X326878Y248622D01*
X326380Y247878D01*
X326206Y247000D01*
X326380Y246122D01*
X326878Y245378D01*
X327622Y244881D01*
X328500Y244706D01*
X329378Y244881D01*
X330122Y245378D01*
X330620Y246122D01*
X330794Y247000D01*
X330620Y247878D01*
X330122Y248622D01*
X329378Y249119D01*
X328500Y249294D01*
D02*
G37*
G36*
X241000Y246794D02*
X240122Y246620D01*
X239378Y246122D01*
X238880Y245378D01*
X238706Y244500D01*
X238880Y243622D01*
X239378Y242878D01*
X240122Y242380D01*
X241000Y242206D01*
X241878Y242380D01*
X242622Y242878D01*
X243120Y243622D01*
X243294Y244500D01*
X243120Y245378D01*
X242622Y246122D01*
X241878Y246620D01*
X241000Y246794D01*
D02*
G37*
G36*
X400000Y245794D02*
X399122Y245620D01*
X398378Y245122D01*
X397881Y244378D01*
X397706Y243500D01*
X397881Y242622D01*
X398378Y241878D01*
X399122Y241381D01*
X400000Y241206D01*
X400878Y241381D01*
X401622Y241878D01*
X402119Y242622D01*
X402294Y243500D01*
X402119Y244378D01*
X401622Y245122D01*
X400878Y245620D01*
X400000Y245794D01*
D02*
G37*
G36*
X403500Y241195D02*
Y239500D01*
X405195D01*
X405120Y239878D01*
X404622Y240622D01*
X403878Y241120D01*
X403500Y241195D01*
D02*
G37*
G36*
X402500D02*
X402122Y241120D01*
X401378Y240622D01*
X400880Y239878D01*
X400805Y239500D01*
X402500D01*
Y241195D01*
D02*
G37*
G36*
X417618Y239577D02*
X416721Y239399D01*
X415960Y238891D01*
X415793Y238640D01*
X415293D01*
X415126Y238891D01*
X414365Y239399D01*
X413468Y239577D01*
X412571Y239399D01*
X411810Y238891D01*
X411302Y238130D01*
X411124Y237233D01*
X411302Y236336D01*
X411810Y235576D01*
X412078Y235397D01*
Y234897D01*
X411810Y234718D01*
X411302Y233957D01*
X411124Y233060D01*
X411302Y232163D01*
X411810Y231403D01*
X412571Y230894D01*
X413468Y230716D01*
X414365Y230894D01*
X415126Y231403D01*
X415293Y231653D01*
X415793D01*
X415960Y231403D01*
X416721Y230894D01*
X417618Y230716D01*
X418515Y230894D01*
X419275Y231403D01*
X419784Y232163D01*
X419962Y233060D01*
X419784Y233957D01*
X419275Y234718D01*
X419008Y234897D01*
Y235397D01*
X419275Y235576D01*
X419784Y236336D01*
X419962Y237233D01*
X419784Y238130D01*
X419275Y238891D01*
X418515Y239399D01*
X417618Y239577D01*
D02*
G37*
G36*
X390500Y239695D02*
Y238000D01*
X392195D01*
X392120Y238378D01*
X391622Y239122D01*
X390878Y239619D01*
X390500Y239695D01*
D02*
G37*
G36*
X389500D02*
X389122Y239619D01*
X388378Y239122D01*
X387880Y238378D01*
X387805Y238000D01*
X389500D01*
Y239695D01*
D02*
G37*
G36*
X405195Y238500D02*
X403500D01*
Y236805D01*
X403878Y236880D01*
X404622Y237378D01*
X405120Y238122D01*
X405195Y238500D01*
D02*
G37*
G36*
X402500D02*
X400805D01*
X400880Y238122D01*
X401378Y237378D01*
X402122Y236880D01*
X402500Y236805D01*
Y238500D01*
D02*
G37*
G36*
X392195Y237000D02*
X390500D01*
Y235305D01*
X390878Y235381D01*
X391622Y235878D01*
X392120Y236622D01*
X392195Y237000D01*
D02*
G37*
G36*
X389500D02*
X387805D01*
X387880Y236622D01*
X388378Y235878D01*
X389122Y235381D01*
X389500Y235305D01*
Y237000D01*
D02*
G37*
G36*
X429000Y235695D02*
Y234000D01*
X430695D01*
X430619Y234378D01*
X430122Y235122D01*
X429378Y235619D01*
X429000Y235695D01*
D02*
G37*
G36*
X428000D02*
X427622Y235619D01*
X426878Y235122D01*
X426381Y234378D01*
X426305Y234000D01*
X428000D01*
Y235695D01*
D02*
G37*
G36*
X375000Y235195D02*
Y233500D01*
X376695D01*
X376620Y233878D01*
X376122Y234622D01*
X375378Y235120D01*
X375000Y235195D01*
D02*
G37*
G36*
X374000D02*
X373622Y235120D01*
X372878Y234622D01*
X372380Y233878D01*
X372305Y233500D01*
X374000D01*
Y235195D01*
D02*
G37*
G36*
X430695Y233000D02*
X429000D01*
Y231305D01*
X429378Y231381D01*
X430122Y231878D01*
X430619Y232622D01*
X430695Y233000D01*
D02*
G37*
G36*
X428000D02*
X426305D01*
X426381Y232622D01*
X426878Y231878D01*
X427622Y231381D01*
X428000Y231305D01*
Y233000D01*
D02*
G37*
G36*
X376695Y232500D02*
X375000D01*
Y230805D01*
X375378Y230880D01*
X376122Y231378D01*
X376620Y232122D01*
X376695Y232500D01*
D02*
G37*
G36*
X374000D02*
X372305D01*
X372380Y232122D01*
X372878Y231378D01*
X373622Y230880D01*
X374000Y230805D01*
Y232500D01*
D02*
G37*
G36*
X273500Y233794D02*
X272622Y233619D01*
X271878Y233122D01*
X271380Y232378D01*
X271206Y231500D01*
X271380Y230622D01*
X271878Y229878D01*
X272622Y229380D01*
X273500Y229206D01*
X274378Y229380D01*
X275122Y229878D01*
X275620Y230622D01*
X275794Y231500D01*
X275620Y232378D01*
X275122Y233122D01*
X274378Y233619D01*
X273500Y233794D01*
D02*
G37*
G36*
X259500Y235521D02*
X257838Y235358D01*
X256239Y234873D01*
X254766Y234085D01*
X253474Y233026D01*
X252415Y231734D01*
X251627Y230261D01*
X251142Y228662D01*
X250979Y227000D01*
X251142Y225338D01*
X251627Y223739D01*
X252415Y222266D01*
X253474Y220974D01*
X254766Y219915D01*
X256239Y219127D01*
X257838Y218642D01*
X259500Y218479D01*
X261162Y218642D01*
X262761Y219127D01*
X264234Y219915D01*
X265526Y220974D01*
X266585Y222266D01*
X267373Y223739D01*
X267858Y225338D01*
X268021Y227000D01*
X267858Y228662D01*
X267373Y230261D01*
X266585Y231734D01*
X265526Y233026D01*
X264234Y234085D01*
X262761Y234873D01*
X261162Y235358D01*
X259500Y235521D01*
D02*
G37*
G36*
X278043Y212406D02*
X276960Y212263D01*
X275951Y211845D01*
X275084Y211180D01*
X274418Y210313D01*
X274356Y210163D01*
X273856D01*
X273794Y210313D01*
X273129Y211180D01*
X272262Y211845D01*
X271252Y212263D01*
X270169Y212406D01*
X269086Y212263D01*
X268076Y211845D01*
X267210Y211180D01*
X266545Y210313D01*
X266126Y209304D01*
X265984Y208220D01*
X266126Y207137D01*
X266545Y206128D01*
X267210Y205261D01*
X268076Y204596D01*
X269086Y204178D01*
X270169Y204035D01*
X271252Y204178D01*
X272262Y204596D01*
X273129Y205261D01*
X273794Y206128D01*
X273856Y206278D01*
X274356D01*
X274418Y206128D01*
X275084Y205261D01*
X275951Y204596D01*
X276960Y204178D01*
X278043Y204035D01*
X279127Y204178D01*
X280136Y204596D01*
X281003Y205261D01*
X281668Y206128D01*
X282086Y207137D01*
X282229Y208220D01*
X282086Y209304D01*
X281668Y210313D01*
X281003Y211180D01*
X280136Y211845D01*
X279127Y212263D01*
X278043Y212406D01*
D02*
G37*
G36*
X306256Y215098D02*
X298744D01*
Y207587D01*
X306256D01*
Y215098D01*
D02*
G37*
G36*
X380000Y206794D02*
X379122Y206620D01*
X378378Y206122D01*
X377881Y205378D01*
X377706Y204500D01*
X377881Y203622D01*
X378378Y202878D01*
X379122Y202380D01*
X380000Y202206D01*
X380878Y202380D01*
X381622Y202878D01*
X382119Y203622D01*
X382294Y204500D01*
X382119Y205378D01*
X381622Y206122D01*
X380878Y206620D01*
X380000Y206794D01*
D02*
G37*
G36*
X374500D02*
X373622Y206620D01*
X372878Y206122D01*
X372380Y205378D01*
X372206Y204500D01*
X372380Y203622D01*
X372878Y202878D01*
X373622Y202380D01*
X374500Y202206D01*
X375378Y202380D01*
X376122Y202878D01*
X376620Y203622D01*
X376794Y204500D01*
X376620Y205378D01*
X376122Y206122D01*
X375378Y206620D01*
X374500Y206794D01*
D02*
G37*
G36*
X302500Y205288D02*
X301519Y205159D01*
X300606Y204781D01*
X299821Y204179D01*
X299219Y203394D01*
X298841Y202481D01*
X298712Y201500D01*
X298841Y200519D01*
X299219Y199606D01*
X299821Y198821D01*
X300606Y198219D01*
X301519Y197841D01*
X302500Y197712D01*
X303481Y197841D01*
X304394Y198219D01*
X305179Y198821D01*
X305781Y199606D01*
X306159Y200519D01*
X306288Y201500D01*
X306159Y202481D01*
X305781Y203394D01*
X305179Y204179D01*
X304394Y204781D01*
X303481Y205159D01*
X302500Y205288D01*
D02*
G37*
G36*
X270169Y202563D02*
X269086Y202421D01*
X268076Y202003D01*
X267210Y201337D01*
X266545Y200470D01*
X266126Y199461D01*
X265984Y198378D01*
X266126Y197294D01*
X266545Y196285D01*
X267210Y195418D01*
X268076Y194753D01*
X269086Y194335D01*
X270169Y194192D01*
X271252Y194335D01*
X272262Y194753D01*
X273129Y195418D01*
X273394Y195763D01*
X273894Y195594D01*
Y194228D01*
X282193D01*
Y202527D01*
X273894D01*
Y201162D01*
X273394Y200992D01*
X273129Y201337D01*
X272262Y202003D01*
X271252Y202421D01*
X270169Y202563D01*
D02*
G37*
G36*
X531000Y195506D02*
Y193811D01*
X532695D01*
X532619Y194189D01*
X532122Y194933D01*
X531378Y195430D01*
X531000Y195506D01*
D02*
G37*
G36*
X530000D02*
X529622Y195430D01*
X528878Y194933D01*
X528381Y194189D01*
X528305Y193811D01*
X530000D01*
Y195506D01*
D02*
G37*
G36*
X532695Y192811D02*
X531000D01*
Y191116D01*
X531378Y191192D01*
X532122Y191689D01*
X532619Y192433D01*
X532695Y192811D01*
D02*
G37*
G36*
X530000D02*
X528305D01*
X528381Y192433D01*
X528878Y191689D01*
X529622Y191192D01*
X530000Y191116D01*
Y192811D01*
D02*
G37*
G36*
X502500Y192018D02*
Y190323D01*
X504195D01*
X504119Y190701D01*
X503622Y191445D01*
X502878Y191943D01*
X502500Y192018D01*
D02*
G37*
G36*
X501500D02*
X501122Y191943D01*
X500378Y191445D01*
X499881Y190701D01*
X499805Y190323D01*
X501500D01*
Y192018D01*
D02*
G37*
G36*
X504195Y189323D02*
X502500D01*
Y187628D01*
X502878Y187704D01*
X503622Y188201D01*
X504119Y188945D01*
X504195Y189323D01*
D02*
G37*
G36*
X501500D02*
X499805D01*
X499881Y188945D01*
X500378Y188201D01*
X501122Y187704D01*
X501500Y187628D01*
Y189323D01*
D02*
G37*
G36*
X447000Y207294D02*
X446122Y207119D01*
X445378Y206622D01*
X444881Y205878D01*
X444706Y205000D01*
X444881Y204122D01*
X445378Y203378D01*
X445880Y203042D01*
Y202458D01*
X445378Y202122D01*
X444881Y201378D01*
X444706Y200500D01*
X444881Y199622D01*
X445378Y198878D01*
X445880Y198542D01*
Y197958D01*
X445378Y197622D01*
X444881Y196878D01*
X444706Y196000D01*
X444881Y195122D01*
X445378Y194378D01*
X445880Y194042D01*
Y193458D01*
X445378Y193122D01*
X444881Y192378D01*
X444706Y191500D01*
X444881Y190622D01*
X445378Y189878D01*
X445880Y189542D01*
Y188958D01*
X445378Y188622D01*
X444881Y187878D01*
X444706Y187000D01*
X444881Y186122D01*
X445378Y185378D01*
X445880Y185042D01*
Y184458D01*
X445378Y184122D01*
X444881Y183378D01*
X444706Y182500D01*
X444881Y181622D01*
X445378Y180878D01*
X446122Y180380D01*
X447000Y180206D01*
X447878Y180380D01*
X448622Y180878D01*
X449119Y181622D01*
X449294Y182500D01*
X449119Y183378D01*
X448622Y184122D01*
X448120Y184458D01*
Y185042D01*
X448622Y185378D01*
X449119Y186122D01*
X449294Y187000D01*
X449119Y187878D01*
X448622Y188622D01*
X448120Y188958D01*
Y189542D01*
X448622Y189878D01*
X449119Y190622D01*
X449294Y191500D01*
X449119Y192378D01*
X448622Y193122D01*
X448120Y193458D01*
Y194042D01*
X448622Y194378D01*
X449119Y195122D01*
X449294Y196000D01*
X449119Y196878D01*
X448622Y197622D01*
X448120Y197958D01*
Y198542D01*
X448622Y198878D01*
X449119Y199622D01*
X449294Y200500D01*
X449119Y201378D01*
X448622Y202122D01*
X448120Y202458D01*
Y203042D01*
X448622Y203378D01*
X449119Y204122D01*
X449294Y205000D01*
X449119Y205878D01*
X448622Y206622D01*
X447878Y207119D01*
X447000Y207294D01*
D02*
G37*
G36*
X563500Y390944D02*
X562275Y390783D01*
X561134Y390310D01*
X560154Y389558D01*
X559403Y388578D01*
X558930Y387437D01*
X558769Y386213D01*
X558930Y384988D01*
X559403Y383847D01*
X560154Y382867D01*
X561134Y382115D01*
X562275Y381642D01*
X563027Y381543D01*
Y381039D01*
X562275Y380940D01*
X561134Y380468D01*
X560154Y379716D01*
X559403Y378736D01*
X558930Y377595D01*
X558769Y376370D01*
X558930Y375146D01*
X559403Y374004D01*
X560154Y373025D01*
X561134Y372273D01*
X562275Y371800D01*
X563027Y371701D01*
Y371197D01*
X562275Y371098D01*
X561134Y370625D01*
X560154Y369873D01*
X559403Y368893D01*
X558930Y367752D01*
X558769Y366528D01*
X558930Y365303D01*
X559403Y364162D01*
X560154Y363182D01*
X561134Y362430D01*
X562275Y361957D01*
X563027Y361859D01*
Y361354D01*
X562275Y361255D01*
X561134Y360783D01*
X560154Y360031D01*
X559403Y359051D01*
X558930Y357910D01*
X558769Y356685D01*
X558930Y355461D01*
X559403Y354319D01*
X560154Y353339D01*
X561134Y352588D01*
X562275Y352115D01*
X563027Y352016D01*
Y351512D01*
X562275Y351413D01*
X561134Y350940D01*
X560154Y350188D01*
X559403Y349208D01*
X558930Y348067D01*
X558834Y347342D01*
X563500D01*
X568166D01*
X568070Y348067D01*
X567597Y349208D01*
X566846Y350188D01*
X565866Y350940D01*
X564725Y351413D01*
X563973Y351512D01*
Y352016D01*
X564725Y352115D01*
X565866Y352588D01*
X566846Y353339D01*
X567597Y354319D01*
X568070Y355461D01*
X568231Y356685D01*
X568124Y357499D01*
X568570Y357944D01*
X568776Y357917D01*
X569730Y358043D01*
X570620Y358412D01*
X571384Y358998D01*
X571970Y359762D01*
X572339Y360651D01*
X572465Y361606D01*
X572339Y362561D01*
X571970Y363451D01*
X571384Y364215D01*
X570620Y364801D01*
X569730Y365170D01*
X568776Y365295D01*
X568570Y365268D01*
X568124Y365714D01*
X568231Y366528D01*
X568070Y367752D01*
X567597Y368893D01*
X566846Y369873D01*
X565866Y370625D01*
X564725Y371098D01*
X563973Y371197D01*
Y371701D01*
X564725Y371800D01*
X565866Y372273D01*
X566846Y373025D01*
X567597Y374004D01*
X568070Y375146D01*
X568231Y376370D01*
X568070Y377595D01*
X567597Y378736D01*
X566846Y379716D01*
X565866Y380468D01*
X564725Y380940D01*
X563973Y381039D01*
Y381543D01*
X564725Y381642D01*
X565866Y382115D01*
X566846Y382867D01*
X567597Y383847D01*
X568070Y384988D01*
X568231Y386213D01*
X568070Y387437D01*
X567597Y388578D01*
X566846Y389558D01*
X565866Y390310D01*
X564725Y390783D01*
X563500Y390944D01*
D02*
G37*
G36*
X568166Y346342D02*
X563500D01*
X558834D01*
X558930Y345618D01*
X559403Y344477D01*
X560154Y343497D01*
X561134Y342745D01*
X562275Y342272D01*
X563027Y342173D01*
Y341669D01*
X562275Y341570D01*
X561134Y341097D01*
X560154Y340346D01*
X559403Y339366D01*
X558930Y338225D01*
X558834Y337500D01*
X563500D01*
Y337000D01*
D01*
Y337500D01*
X568166D01*
X568070Y338225D01*
X567597Y339366D01*
X566846Y340346D01*
X565866Y341097D01*
X564725Y341570D01*
X563973Y341669D01*
Y342173D01*
X564725Y342272D01*
X565866Y342745D01*
X566846Y343497D01*
X567597Y344477D01*
X568070Y345618D01*
X568166Y346342D01*
D02*
G37*
G36*
Y336500D02*
X564000D01*
Y332334D01*
X564725Y332430D01*
X565866Y332903D01*
X566846Y333654D01*
X567597Y334634D01*
X568070Y335775D01*
X568166Y336500D01*
D02*
G37*
G36*
X563000D02*
X558834D01*
X558930Y335775D01*
X559403Y334634D01*
X560154Y333654D01*
X561134Y332903D01*
X562275Y332430D01*
X563000Y332334D01*
Y336500D01*
D02*
G37*
G36*
X500500Y331695D02*
Y330000D01*
X502195D01*
X502119Y330378D01*
X501622Y331122D01*
X500878Y331620D01*
X500500Y331695D01*
D02*
G37*
G36*
X499500D02*
X499122Y331620D01*
X498378Y331122D01*
X497881Y330378D01*
X497805Y330000D01*
X499500D01*
Y331695D01*
D02*
G37*
G36*
X502195Y329000D02*
X500500D01*
Y327305D01*
X500878Y327380D01*
X501622Y327878D01*
X502119Y328622D01*
X502195Y329000D01*
D02*
G37*
G36*
X499500D02*
X497805D01*
X497881Y328622D01*
X498378Y327878D01*
X499122Y327380D01*
X499500Y327305D01*
Y329000D01*
D02*
G37*
G36*
X531232Y321870D02*
X530149Y321728D01*
X529140Y321310D01*
X528273Y320644D01*
X527608Y319778D01*
X527189Y318768D01*
X527047Y317685D01*
X527189Y316602D01*
X527608Y315592D01*
X528273Y314725D01*
X529140Y314060D01*
X530149Y313642D01*
X531232Y313499D01*
X532315Y313642D01*
X533325Y314060D01*
X534192Y314725D01*
X534857Y315592D01*
X535275Y316602D01*
X535418Y317685D01*
X535275Y318768D01*
X534857Y319778D01*
X534192Y320644D01*
X533325Y321310D01*
X532315Y321728D01*
X531232Y321870D01*
D02*
G37*
G36*
X569343Y322069D02*
X568208Y321920D01*
X567150Y321482D01*
X566243Y320785D01*
X565546Y319877D01*
X565108Y318820D01*
X564959Y317685D01*
X565108Y316550D01*
X565546Y315493D01*
X566243Y314585D01*
X567150Y313888D01*
X568208Y313451D01*
X569343Y313301D01*
X570477Y313451D01*
X571534Y313888D01*
X572442Y314585D01*
X573139Y315493D01*
X573577Y316550D01*
X573727Y317685D01*
X573577Y318820D01*
X573139Y319877D01*
X572442Y320785D01*
X571534Y321482D01*
X570477Y321920D01*
X569343Y322069D01*
D02*
G37*
G36*
X559500D02*
X558365Y321920D01*
X557308Y321482D01*
X556400Y320785D01*
X555703Y319877D01*
X555265Y318820D01*
X555116Y317685D01*
X555265Y316550D01*
X555703Y315493D01*
X556400Y314585D01*
X557308Y313888D01*
X558365Y313451D01*
X559500Y313301D01*
X560635Y313451D01*
X561692Y313888D01*
X562600Y314585D01*
X563297Y315493D01*
X563735Y316550D01*
X563884Y317685D01*
X563735Y318820D01*
X563297Y319877D01*
X562600Y320785D01*
X561692Y321482D01*
X560635Y321920D01*
X559500Y322069D01*
D02*
G37*
G36*
X569343Y312227D02*
X568208Y312077D01*
X567150Y311639D01*
X566243Y310943D01*
X565546Y310034D01*
X565108Y308977D01*
X564959Y307842D01*
X565108Y306708D01*
X565546Y305650D01*
X566243Y304743D01*
X567150Y304046D01*
X568208Y303608D01*
X569343Y303459D01*
X570477Y303608D01*
X571534Y304046D01*
X572442Y304743D01*
X573139Y305650D01*
X573577Y306708D01*
X573727Y307842D01*
X573577Y308977D01*
X573139Y310034D01*
X572442Y310943D01*
X571534Y311639D01*
X570477Y312077D01*
X569343Y312227D01*
D02*
G37*
G36*
X559500D02*
X558365Y312077D01*
X557308Y311639D01*
X556400Y310943D01*
X555703Y310034D01*
X555265Y308977D01*
X555116Y307842D01*
X555265Y306708D01*
X555703Y305650D01*
X556400Y304743D01*
X557308Y304046D01*
X558365Y303608D01*
X559500Y303459D01*
X560635Y303608D01*
X561692Y304046D01*
X562600Y304743D01*
X563297Y305650D01*
X563735Y306708D01*
X563884Y307842D01*
X563735Y308977D01*
X563297Y310034D01*
X562600Y310943D01*
X561692Y311639D01*
X560635Y312077D01*
X559500Y312227D01*
D02*
G37*
G36*
X569343Y302384D02*
X568208Y302235D01*
X567150Y301797D01*
X566243Y301100D01*
X565546Y300192D01*
X565108Y299135D01*
X564959Y298000D01*
X565108Y296865D01*
X565546Y295808D01*
X566243Y294900D01*
X567150Y294203D01*
X568208Y293765D01*
X569343Y293616D01*
X570477Y293765D01*
X571534Y294203D01*
X572442Y294900D01*
X573139Y295808D01*
X573577Y296865D01*
X573727Y298000D01*
X573577Y299135D01*
X573139Y300192D01*
X572442Y301100D01*
X571534Y301797D01*
X570477Y302235D01*
X569343Y302384D01*
D02*
G37*
G36*
X559500D02*
X558365Y302235D01*
X557308Y301797D01*
X556400Y301100D01*
X555703Y300192D01*
X555265Y299135D01*
X555116Y298000D01*
X555265Y296865D01*
X555703Y295808D01*
X556400Y294900D01*
X557308Y294203D01*
X558365Y293765D01*
X559500Y293616D01*
X560635Y293765D01*
X561692Y294203D01*
X562600Y294900D01*
X563297Y295808D01*
X563735Y296865D01*
X563884Y298000D01*
X563735Y299135D01*
X563297Y300192D01*
X562600Y301100D01*
X561692Y301797D01*
X560635Y302235D01*
X559500Y302384D01*
D02*
G37*
G36*
X569343Y292541D02*
X568208Y292392D01*
X567150Y291954D01*
X566243Y291257D01*
X565546Y290350D01*
X565108Y289292D01*
X564959Y288158D01*
X565108Y287023D01*
X565546Y285965D01*
X566243Y285057D01*
X567150Y284361D01*
X568208Y283923D01*
X569343Y283773D01*
X570477Y283923D01*
X571534Y284361D01*
X572442Y285057D01*
X573139Y285965D01*
X573577Y287023D01*
X573727Y288158D01*
X573577Y289292D01*
X573139Y290350D01*
X572442Y291257D01*
X571534Y291954D01*
X570477Y292392D01*
X569343Y292541D01*
D02*
G37*
G36*
X559500D02*
X558365Y292392D01*
X557308Y291954D01*
X556400Y291257D01*
X555703Y290350D01*
X555265Y289292D01*
X555116Y288158D01*
X555265Y287023D01*
X555703Y285965D01*
X556400Y285057D01*
X557308Y284361D01*
X558365Y283923D01*
X559500Y283773D01*
X560635Y283923D01*
X561692Y284361D01*
X562600Y285057D01*
X563297Y285965D01*
X563735Y287023D01*
X563884Y288158D01*
X563735Y289292D01*
X563297Y290350D01*
X562600Y291257D01*
X561692Y291954D01*
X560635Y292392D01*
X559500Y292541D01*
D02*
G37*
G36*
X569343Y282699D02*
X568208Y282550D01*
X567150Y282112D01*
X566243Y281415D01*
X565546Y280507D01*
X565108Y279450D01*
X564959Y278315D01*
X565108Y277180D01*
X565546Y276123D01*
X566243Y275215D01*
X567150Y274518D01*
X568208Y274080D01*
X569343Y273931D01*
X570477Y274080D01*
X571534Y274518D01*
X572442Y275215D01*
X573139Y276123D01*
X573577Y277180D01*
X573727Y278315D01*
X573577Y279450D01*
X573139Y280507D01*
X572442Y281415D01*
X571534Y282112D01*
X570477Y282550D01*
X569343Y282699D01*
D02*
G37*
G36*
X559500D02*
X558365Y282550D01*
X557308Y282112D01*
X556400Y281415D01*
X555703Y280507D01*
X555265Y279450D01*
X555116Y278315D01*
X555265Y277180D01*
X555703Y276123D01*
X556400Y275215D01*
X557308Y274518D01*
X558365Y274080D01*
X559500Y273931D01*
X560635Y274080D01*
X561692Y274518D01*
X562600Y275215D01*
X563297Y276123D01*
X563735Y277180D01*
X563884Y278315D01*
X563735Y279450D01*
X563297Y280507D01*
X562600Y281415D01*
X561692Y282112D01*
X560635Y282550D01*
X559500Y282699D01*
D02*
G37*
G36*
X573689Y272819D02*
X564996D01*
Y264126D01*
X573689D01*
Y272819D01*
D02*
G37*
G36*
X559500Y272856D02*
X558365Y272707D01*
X557308Y272269D01*
X556400Y271572D01*
X555703Y270664D01*
X555265Y269607D01*
X555116Y268472D01*
X555265Y267338D01*
X555703Y266281D01*
X556400Y265372D01*
X557308Y264676D01*
X558365Y264238D01*
X559500Y264089D01*
X560635Y264238D01*
X561692Y264676D01*
X562600Y265372D01*
X563297Y266281D01*
X563735Y267338D01*
X563884Y268472D01*
X563735Y269607D01*
X563297Y270664D01*
X562600Y271572D01*
X561692Y272269D01*
X560635Y272707D01*
X559500Y272856D01*
D02*
G37*
G36*
X540000Y227195D02*
Y225500D01*
X541695D01*
X541619Y225878D01*
X541122Y226622D01*
X540378Y227119D01*
X540000Y227195D01*
D02*
G37*
G36*
X539000D02*
X538622Y227119D01*
X537878Y226622D01*
X537381Y225878D01*
X537305Y225500D01*
X539000D01*
Y227195D01*
D02*
G37*
G36*
X559500Y228294D02*
X558622Y228119D01*
X557878Y227622D01*
X557381Y226878D01*
X557206Y226000D01*
X557381Y225122D01*
X557878Y224378D01*
X558622Y223881D01*
X559500Y223706D01*
X560378Y223881D01*
X561122Y224378D01*
X561619Y225122D01*
X561794Y226000D01*
X561619Y226878D01*
X561122Y227622D01*
X560378Y228119D01*
X559500Y228294D01*
D02*
G37*
G36*
X541695Y224500D02*
X540000D01*
Y222805D01*
X540378Y222881D01*
X541122Y223378D01*
X541619Y224122D01*
X541695Y224500D01*
D02*
G37*
G36*
X539000D02*
X537305D01*
X537381Y224122D01*
X537878Y223378D01*
X538622Y222881D01*
X539000Y222805D01*
Y224500D01*
D02*
G37*
%LPD*%
D67*
X304618Y383421D02*
D03*
Y360980D02*
D03*
Y338539D02*
D03*
D83*
X563500Y346843D02*
D03*
Y337000D02*
D03*
D91*
X407000Y253500D02*
D03*
X390000Y237500D02*
D03*
X326500Y294000D02*
D03*
X280000Y313500D02*
D03*
X357000Y252500D02*
D03*
X395500Y292000D02*
D03*
X500000Y329500D02*
D03*
X390000Y334500D02*
D03*
X381000Y320500D02*
D03*
X374500Y233000D02*
D03*
X450000Y255000D02*
D03*
X428500Y233500D02*
D03*
X430500Y258000D02*
D03*
X423500Y252000D02*
D03*
X361500Y317000D02*
D03*
X484000Y318000D02*
D03*
X403000Y239000D02*
D03*
X539500Y225000D02*
D03*
X469000Y447083D02*
D03*
X379500Y445500D02*
D03*
X530500Y193311D02*
D03*
X502000Y189823D02*
D03*
X292500Y449000D02*
D03*
M02*
