G04*
G04 #@! TF.GenerationSoftware,Altium Limited,Altium Designer,18.1.7 (191)*
G04*
G04 Layer_Color=32768*
%FSLAX25Y25*%
%MOIN*%
G70*
G01*
G75*
%ADD12C,0.00787*%
%ADD13C,0.00394*%
%ADD76C,0.00600*%
%ADD99C,0.00197*%
G36*
X256150Y414775D02*
X250600D01*
Y393461D01*
X256150D01*
Y393068D01*
X275850D01*
Y393461D01*
X281400D01*
Y414775D01*
X275850D01*
Y415168D01*
X256150D01*
Y414775D01*
D02*
G37*
G36*
X346650Y414275D02*
X341100D01*
Y392962D01*
X346650D01*
Y392568D01*
X366350D01*
Y392962D01*
X371900D01*
Y414275D01*
X366350D01*
Y414668D01*
X346650D01*
Y414275D01*
D02*
G37*
G36*
X436150Y413774D02*
X430600D01*
Y392461D01*
X436150D01*
Y392068D01*
X455850D01*
Y392461D01*
X461400D01*
Y413774D01*
X455850D01*
Y414168D01*
X436150D01*
Y413774D01*
D02*
G37*
D12*
X218988Y396827D02*
X310425D01*
X218988Y325173D02*
Y396827D01*
Y325173D02*
X310425D01*
Y396827D01*
D13*
X261000Y280365D02*
Y282531D01*
X259917Y281448D02*
X262083D01*
X437878Y256917D02*
Y259083D01*
X436795Y258000D02*
X438961D01*
X448917Y248228D02*
X451083D01*
X450000Y247146D02*
Y249311D01*
X299917Y403000D02*
X302083D01*
X301000Y401917D02*
Y404083D01*
X299917Y431500D02*
X302083D01*
X301000Y430417D02*
Y432583D01*
X476917Y415417D02*
X479083D01*
X478000Y414335D02*
Y416500D01*
X476917Y430000D02*
X479083D01*
X478000Y428917D02*
Y431083D01*
X340772Y262870D02*
X393134D01*
X340772Y315232D02*
X393134D01*
X340772Y262870D02*
Y315232D01*
X393134Y262870D02*
Y315232D01*
X366953Y287083D02*
Y291020D01*
X364984Y289051D02*
X368921D01*
X309457Y166921D02*
X316543D01*
X309457Y182079D02*
X316543D01*
X309457Y166921D02*
Y182079D01*
X316543Y166921D02*
Y182079D01*
X313000Y172531D02*
Y176468D01*
X311031Y174500D02*
X314968D01*
X297531D02*
X301468D01*
X299500Y172532D02*
Y176469D01*
X303043Y166921D02*
Y182079D01*
X295957Y166921D02*
Y182079D01*
X303043D01*
X295957Y166921D02*
X303043D01*
X517382Y208532D02*
Y212469D01*
X515413Y210500D02*
X519350D01*
X509803Y206957D02*
X524961D01*
X509803Y214043D02*
X524961D01*
Y206957D02*
Y214043D01*
X509803Y206957D02*
Y214043D01*
X517165Y187532D02*
Y191469D01*
X515197Y189500D02*
X519134D01*
X509587Y185957D02*
X524744D01*
X509587Y193043D02*
X524744D01*
Y185957D02*
Y193043D01*
X509587Y185957D02*
Y193043D01*
X387417Y342000D02*
X389583D01*
X388500Y340917D02*
Y343083D01*
X391000Y223417D02*
Y225583D01*
X389917Y224500D02*
X392083D01*
X397000Y205532D02*
Y209469D01*
X395031Y207500D02*
X398969D01*
X389717Y203563D02*
X404283D01*
X389717Y211437D02*
X404283D01*
Y203563D02*
Y211437D01*
X389717Y203563D02*
Y211437D01*
X420500Y204417D02*
Y206583D01*
X419417Y205500D02*
X421583D01*
X390917Y234000D02*
X393083D01*
X392000Y232917D02*
Y235083D01*
X387417Y320000D02*
X389583D01*
X388500Y318917D02*
Y321083D01*
X376917Y328500D02*
X379083D01*
X378000Y327417D02*
Y329583D01*
X358917Y333000D02*
X361083D01*
X360000Y331917D02*
Y334083D01*
X512500Y315917D02*
Y318083D01*
X511417Y317000D02*
X513583D01*
X512500Y306417D02*
Y308583D01*
X511417Y307500D02*
X513583D01*
X512500Y277417D02*
Y279583D01*
X511417Y278500D02*
X513583D01*
X512500Y267417D02*
Y269583D01*
X511417Y268500D02*
X513583D01*
X512500Y286917D02*
Y289083D01*
X511417Y288000D02*
X513583D01*
X512500Y296917D02*
Y299083D01*
X511417Y298000D02*
X513583D01*
X543031Y233000D02*
X546969D01*
X545000Y231031D02*
Y234968D01*
X552579Y229457D02*
Y236543D01*
X537421D02*
X552579D01*
X537421Y229457D02*
X552579D01*
X537421D02*
Y236543D01*
X553382Y204531D02*
Y208469D01*
X551413Y206500D02*
X555350D01*
X570409Y192327D02*
Y220673D01*
X536354D02*
X570409D01*
X536354Y192327D02*
X570409D01*
X536354D02*
Y220673D01*
X358917Y323500D02*
X361083D01*
X360000Y322417D02*
Y324583D01*
X318417Y292500D02*
X320583D01*
X319500Y291417D02*
Y293583D01*
X365500Y251417D02*
Y253583D01*
X364417Y252500D02*
X366583D01*
X438189Y271917D02*
Y274083D01*
X437106Y273000D02*
X439272D01*
X311000Y268417D02*
Y270583D01*
X309917Y269500D02*
X312083D01*
X306472Y256433D02*
Y260567D01*
X315528Y256433D02*
Y260567D01*
X306472D02*
X315528D01*
X306472Y256433D02*
X315528D01*
X309130Y258500D02*
X312870D01*
X311000Y256630D02*
Y260370D01*
X531000Y184417D02*
Y186583D01*
X529917Y185500D02*
X532083D01*
X509854Y227933D02*
Y232067D01*
X518909Y227933D02*
Y232067D01*
X509854D02*
X518909D01*
X509854Y227933D02*
X518909D01*
X512512Y230000D02*
X516252D01*
X514382Y228130D02*
Y231870D01*
X273000Y299917D02*
Y302083D01*
X271917Y301000D02*
X274083D01*
X266272Y295381D02*
Y299515D01*
X257216Y295381D02*
Y299515D01*
Y295381D02*
X266272D01*
X257216Y299515D02*
X266272D01*
X259874Y297448D02*
X263614D01*
X261744Y295578D02*
Y299318D01*
X278417Y242500D02*
X280583D01*
X279500Y241417D02*
Y243583D01*
X262417Y242500D02*
X264583D01*
X263500Y241417D02*
Y243583D01*
X261000Y265365D02*
Y267531D01*
X259917Y266448D02*
X262083D01*
X246917Y242500D02*
X249083D01*
X248000Y241417D02*
Y243583D01*
X407146Y258000D02*
X409311D01*
X408228Y256917D02*
Y259083D01*
X443169Y234311D02*
Y238248D01*
X441201Y236280D02*
X445138D01*
X435886Y240217D02*
X450453D01*
X435886Y232343D02*
X450453D01*
X435886D02*
Y240217D01*
X450453Y232343D02*
Y240217D01*
X420646Y258000D02*
X422811D01*
X421728Y256917D02*
Y259083D01*
X414000Y204417D02*
Y206583D01*
X412917Y205500D02*
X415083D01*
X386917Y445500D02*
X389083D01*
X388000Y444417D02*
Y446583D01*
X545000Y242531D02*
Y246468D01*
X543032Y244500D02*
X546969D01*
X537421Y240957D02*
X552579D01*
X537421Y248043D02*
X552579D01*
Y240957D02*
Y248043D01*
X537421Y240957D02*
Y248043D01*
X558417Y244000D02*
X560583D01*
X559500Y242917D02*
Y245083D01*
X388500Y329417D02*
Y331583D01*
X387417Y330500D02*
X389583D01*
X247532Y361000D02*
X251468D01*
X249500Y359032D02*
Y362968D01*
X287917Y313500D02*
X290083D01*
X289000Y312417D02*
Y314583D01*
X476917Y444500D02*
X479083D01*
X478000Y443417D02*
Y445583D01*
X299917Y445500D02*
X302083D01*
X301000Y444417D02*
Y446583D01*
X259917Y313500D02*
X262083D01*
X261000Y312417D02*
Y314583D01*
X374500Y223417D02*
Y225583D01*
X373417Y224500D02*
X375583D01*
X303917Y225000D02*
X306083D01*
X305000Y223917D02*
Y226083D01*
X292433Y221473D02*
X296567D01*
X292433Y230528D02*
X296567D01*
X292433Y221473D02*
Y230528D01*
X296567Y221473D02*
Y230528D01*
X294500Y224130D02*
Y227870D01*
X292630Y226000D02*
X296370D01*
X311000Y276417D02*
Y278583D01*
X309917Y277500D02*
X312083D01*
X299917Y417000D02*
X302083D01*
X301000Y415917D02*
Y418083D01*
X236500Y445035D02*
Y447201D01*
X235417Y446118D02*
X237583D01*
X413532Y235000D02*
X417469D01*
X415500Y233031D02*
Y236969D01*
X479917Y402839D02*
X482083D01*
X481000Y401756D02*
Y403921D01*
X388000Y430417D02*
Y432583D01*
X386917Y431500D02*
X389083D01*
X388000Y401417D02*
Y403583D01*
X386917Y402500D02*
X389083D01*
X411318Y446000D02*
X413484D01*
X412401Y444917D02*
Y447083D01*
X411275Y416941D02*
X413440D01*
X412358Y415858D02*
Y418024D01*
Y430358D02*
Y432524D01*
X411275Y431441D02*
X413440D01*
X411417Y403000D02*
X413583D01*
X412500Y401917D02*
Y404083D01*
X326417Y445000D02*
X328583D01*
X327500Y443917D02*
Y446083D01*
X326457Y416957D02*
X328622D01*
X327539Y415874D02*
Y418039D01*
X326236Y431457D02*
X328401D01*
X327319Y430374D02*
Y432539D01*
X326146Y402500D02*
X328311D01*
X327228Y401417D02*
Y403583D01*
X388000Y415417D02*
Y417583D01*
X386917Y416500D02*
X389083D01*
X236500Y430917D02*
Y433083D01*
X235417Y432000D02*
X237583D01*
X235418Y404043D02*
X237583D01*
X236500Y402961D02*
Y405126D01*
X235418Y418618D02*
X237583D01*
X236500Y417535D02*
Y419701D01*
D76*
X250600Y393461D02*
Y414775D01*
Y393461D02*
X256150D01*
Y393068D02*
Y393461D01*
Y393068D02*
X275850D01*
Y393461D01*
X281400D01*
Y414775D01*
X275850D02*
X281400D01*
X275850D02*
Y415168D01*
X256150D02*
X275850D01*
X256150Y414775D02*
Y415168D01*
X250600Y414775D02*
X256150D01*
X341100Y392962D02*
Y414275D01*
Y392962D02*
X346650D01*
Y392568D02*
Y392962D01*
Y392568D02*
X366350D01*
Y392962D01*
X371900D01*
Y414275D01*
X366350D02*
X371900D01*
X366350D02*
Y414668D01*
X346650D02*
X366350D01*
X346650Y414275D02*
Y414668D01*
X341100Y414275D02*
X346650D01*
X430600Y392461D02*
Y413774D01*
Y392461D02*
X436150D01*
Y392068D02*
Y392461D01*
Y392068D02*
X455850D01*
Y392461D01*
X461400D01*
Y413774D01*
X455850D02*
X461400D01*
X455850D02*
Y414168D01*
X436150D02*
X455850D01*
X436150Y413774D02*
Y414168D01*
X430600Y413774D02*
X436150D01*
D99*
X257260Y283417D02*
X264740D01*
X257260Y279480D02*
X264740D01*
X257260D02*
Y283417D01*
X264740Y279480D02*
Y283417D01*
X434138Y259969D02*
X441618D01*
X434138Y256032D02*
X441618D01*
X434138D02*
Y259969D01*
X441618Y256032D02*
Y259969D01*
X451772Y244685D02*
Y251772D01*
X448228Y244685D02*
Y251772D01*
X451772D01*
X448228Y244685D02*
X451772D01*
X297260Y401031D02*
Y404969D01*
X304740Y401031D02*
Y404969D01*
X297260Y401031D02*
X304740D01*
X297260Y404969D02*
X304740D01*
Y429531D02*
Y433468D01*
X297260Y429531D02*
Y433468D01*
X304740D01*
X297260Y429531D02*
X304740D01*
X481740Y413449D02*
Y417386D01*
X474260Y413449D02*
Y417386D01*
X481740D01*
X474260Y413449D02*
X481740D01*
Y428031D02*
Y431969D01*
X474260Y428031D02*
Y431969D01*
X481740D01*
X474260Y428031D02*
X481740D01*
X392043Y340228D02*
Y343772D01*
X384957Y340228D02*
Y343772D01*
Y340228D02*
X392043D01*
X384957Y343772D02*
X392043D01*
X389228Y228043D02*
X392772D01*
X389228Y220957D02*
X392772D01*
Y228043D01*
X389228Y220957D02*
Y228043D01*
X418728Y201957D02*
X422272D01*
X418728Y209043D02*
X422272D01*
X418728Y201957D02*
Y209043D01*
X422272Y201957D02*
Y209043D01*
X395543Y232228D02*
Y235772D01*
X388457Y232228D02*
Y235772D01*
Y232228D02*
X395543D01*
X388457Y235772D02*
X395543D01*
X390469Y316260D02*
Y323740D01*
X386532Y316260D02*
Y323740D01*
X390469D01*
X386532Y316260D02*
X390469D01*
X376031Y324760D02*
Y332240D01*
X379968Y324760D02*
Y332240D01*
X376031Y324760D02*
X379968D01*
X376031Y332240D02*
X379968D01*
X358031Y329260D02*
Y336740D01*
X361968Y329260D02*
Y336740D01*
X358031Y329260D02*
X361968D01*
X358031Y336740D02*
X361968D01*
X508957Y318772D02*
X516043D01*
X508957Y315228D02*
X516043D01*
X508957D02*
Y318772D01*
X516043Y315228D02*
Y318772D01*
X508957Y309272D02*
X516043D01*
X508957Y305728D02*
X516043D01*
X508957D02*
Y309272D01*
X516043Y305728D02*
Y309272D01*
X508957Y280272D02*
X516043D01*
X508957Y276728D02*
X516043D01*
X508957D02*
Y280272D01*
X516043Y276728D02*
Y280272D01*
X508957Y270272D02*
X516043D01*
X508957Y266728D02*
X516043D01*
X508957D02*
Y270272D01*
X516043Y266728D02*
Y270272D01*
X508957Y289772D02*
X516043D01*
X508957Y286228D02*
X516043D01*
X508957D02*
Y289772D01*
X516043Y286228D02*
Y289772D01*
X508957Y299772D02*
X516043D01*
X508957Y296228D02*
X516043D01*
X508957D02*
Y299772D01*
X516043Y296228D02*
Y299772D01*
X358031Y319760D02*
Y327240D01*
X361968Y319760D02*
Y327240D01*
X358031Y319760D02*
X361968D01*
X358031Y327240D02*
X361968D01*
X321469Y288760D02*
Y296240D01*
X317532Y288760D02*
Y296240D01*
X321469D01*
X317532Y288760D02*
X321469D01*
X361760Y254469D02*
X369240D01*
X361760Y250532D02*
X369240D01*
X361760D02*
Y254469D01*
X369240Y250532D02*
Y254469D01*
X434449Y274969D02*
X441929D01*
X434449Y271032D02*
X441929D01*
X434449D02*
Y274969D01*
X441929Y271032D02*
Y274969D01*
X307260Y267531D02*
X314740D01*
X307260Y271468D02*
X314740D01*
Y267531D02*
Y271468D01*
X307260Y267531D02*
Y271468D01*
X527260Y183531D02*
X534740D01*
X527260Y187468D02*
X534740D01*
Y183531D02*
Y187468D01*
X527260Y183531D02*
Y187468D01*
X269260Y302969D02*
X276740D01*
X269260Y299032D02*
X276740D01*
X269260D02*
Y302969D01*
X276740Y299032D02*
Y302969D01*
X277532Y238760D02*
Y246240D01*
X281469Y238760D02*
Y246240D01*
X277532Y238760D02*
X281469D01*
X277532Y246240D02*
X281469D01*
X261531Y238760D02*
Y246240D01*
X265469Y238760D02*
Y246240D01*
X261531Y238760D02*
X265469D01*
X261531Y246240D02*
X265469D01*
X257260Y268417D02*
X264740D01*
X257260Y264480D02*
X264740D01*
X257260D02*
Y268417D01*
X264740Y264480D02*
Y268417D01*
X246031Y238760D02*
Y246240D01*
X249969Y238760D02*
Y246240D01*
X246031Y238760D02*
X249969D01*
X246031Y246240D02*
X249969D01*
X411772Y256228D02*
Y259772D01*
X404685Y256228D02*
Y259772D01*
Y256228D02*
X411772D01*
X404685Y259772D02*
X411772D01*
X418185Y256228D02*
Y259772D01*
X425272Y256228D02*
Y259772D01*
X418185D02*
X425272D01*
X418185Y256228D02*
X425272D01*
X412228Y201957D02*
X415772D01*
X412228Y209043D02*
X415772D01*
X412228Y201957D02*
Y209043D01*
X415772Y201957D02*
Y209043D01*
X391740Y443532D02*
Y447469D01*
X384260Y443532D02*
Y447469D01*
X391740D01*
X384260Y443532D02*
X391740D01*
X561468Y240260D02*
Y247740D01*
X557531Y240260D02*
Y247740D01*
X561468D01*
X557531Y240260D02*
X561468D01*
X384760Y332469D02*
X392240D01*
X384760Y328532D02*
X392240D01*
X384760D02*
Y332469D01*
X392240Y328532D02*
Y332469D01*
X285457Y311728D02*
Y315272D01*
X292543Y311728D02*
Y315272D01*
X285457D02*
X292543D01*
X285457Y311728D02*
X292543D01*
X481740Y442531D02*
Y446469D01*
X474260Y442531D02*
Y446469D01*
X481740D01*
X474260Y442531D02*
X481740D01*
X304740Y443531D02*
Y447468D01*
X297260Y443531D02*
Y447468D01*
X304740D01*
X297260Y443531D02*
X304740D01*
X264543Y311728D02*
Y315272D01*
X257457Y311728D02*
Y315272D01*
Y311728D02*
X264543D01*
X257457Y315272D02*
X264543D01*
X372728Y220957D02*
X376272D01*
X372728Y228043D02*
X376272D01*
X372728Y220957D02*
Y228043D01*
X376272Y220957D02*
Y228043D01*
X306969Y221260D02*
Y228740D01*
X303032Y221260D02*
Y228740D01*
X306969D01*
X303032Y221260D02*
X306969D01*
X307260Y275531D02*
X314740D01*
X307260Y279468D02*
X314740D01*
Y275531D02*
Y279468D01*
X307260Y275531D02*
Y279468D01*
X304740Y415031D02*
Y418968D01*
X297260Y415031D02*
Y418968D01*
X304740D01*
X297260Y415031D02*
X304740D01*
X232957Y444346D02*
X240043D01*
X232957Y447890D02*
X240043D01*
X232957Y444346D02*
Y447890D01*
X240043Y444346D02*
Y447890D01*
X405362Y224862D02*
Y245138D01*
X425638Y224862D02*
Y245138D01*
X405362D02*
X425638D01*
X405362Y224862D02*
X425638D01*
X484740Y400870D02*
Y404807D01*
X477260Y400870D02*
Y404807D01*
X484740D01*
X477260Y400870D02*
X484740D01*
X384260Y429531D02*
X391740D01*
X384260Y433468D02*
X391740D01*
X384260Y429531D02*
Y433468D01*
X391740Y429531D02*
Y433468D01*
X384260Y400531D02*
X391740D01*
X384260Y404468D02*
X391740D01*
X384260Y400531D02*
Y404468D01*
X391740Y400531D02*
Y404468D01*
X415944Y444228D02*
Y447772D01*
X408858Y444228D02*
Y447772D01*
X415944D01*
X408858Y444228D02*
X415944D01*
X408814Y415169D02*
Y418713D01*
X415901Y415169D02*
Y418713D01*
X408814Y415169D02*
X415901D01*
X408814Y418713D02*
X415901D01*
X408814Y429669D02*
X415901D01*
X408814Y433213D02*
X415901D01*
X408814Y429669D02*
Y433213D01*
X415901Y429669D02*
Y433213D01*
X416043Y401228D02*
Y404772D01*
X408957Y401228D02*
Y404772D01*
X416043D01*
X408957Y401228D02*
X416043D01*
X331043Y443228D02*
Y446772D01*
X323957Y443228D02*
Y446772D01*
X331043D01*
X323957Y443228D02*
X331043D01*
X323996Y415185D02*
Y418728D01*
X331083Y415185D02*
Y418728D01*
X323996Y415185D02*
X331083D01*
X323996Y418728D02*
X331083D01*
X330862Y429685D02*
Y433228D01*
X323775Y429685D02*
Y433228D01*
X330862D01*
X323775Y429685D02*
X330862D01*
X323685Y400728D02*
Y404272D01*
X330772Y400728D02*
Y404272D01*
X323685Y400728D02*
X330772D01*
X323685Y404272D02*
X330772D01*
X384260Y414531D02*
X391740D01*
X384260Y418469D02*
X391740D01*
X384260Y414531D02*
Y418469D01*
X391740Y414531D02*
Y418469D01*
X232957Y430228D02*
X240043D01*
X232957Y433772D02*
X240043D01*
X232957Y430228D02*
Y433772D01*
X240043Y430228D02*
Y433772D01*
X232957Y402272D02*
Y405815D01*
X240044Y402272D02*
Y405815D01*
X232957Y402272D02*
X240044D01*
X232957Y405815D02*
X240044D01*
X232957Y416846D02*
Y420390D01*
X240043Y416846D02*
Y420390D01*
X232957Y416846D02*
X240043D01*
X232957Y420390D02*
X240043D01*
M02*
